<?xml version="1.0" encoding="utf-8"?>
<!-- Generator: Adobe Illustrator 27.0.0, SVG Export Plug-In . SVG Version: 6.00 Build 0)  -->
<svg version="1.1" id="Layer_1" xmlns="http://www.w3.org/2000/svg" xmlns:xlink="http://www.w3.org/1999/xlink" x="0px" y="0px"
	 viewBox="0 0 1920 1080" style="enable-background:new 0 0 1920 1080;" xml:space="preserve">
<style type="text/css">
	.st0{fill:none;}
	.st1{opacity:0.59;}
	.st2{fill:#352500;}
	.st3{fill:none;stroke:#231F20;stroke-width:2;stroke-miterlimit:45;}
	.st4{fill:#231F20;}
	.st5{fill:none;stroke:#231F20;stroke-width:2;stroke-miterlimit:45.0001;}
	.st6{fill:none;stroke:#231F20;stroke-width:2;stroke-linecap:round;stroke-linejoin:round;stroke-miterlimit:45;}
	.st7{fill:none;stroke:#231F20;stroke-width:3.375;stroke-linecap:round;stroke-linejoin:round;stroke-miterlimit:45;}
	.st8{fill:#FFFFFF;}
	.st9{fill:#DCDDDE;}
	.st10{fill:url(#SVGID_1_);}
	.st11{fill:none;stroke:#2A2829;stroke-width:2;stroke-linejoin:round;}
	.st12{fill:none;stroke:#2A2829;stroke-width:2;stroke-miterlimit:10;}
	.st13{fill:#FFFFFF;stroke:#2A2829;stroke-width:2;stroke-linejoin:round;}
	.st14{fill:#FFFFFF;stroke:#2A2829;stroke-width:2;stroke-linecap:round;stroke-linejoin:round;}
	.st15{stroke:#2A2829;stroke-width:2;stroke-miterlimit:10;}
	.st16{fill:none;stroke:#FFFFFF;stroke-miterlimit:10;}
	.st17{fill:none;stroke:#FFFFFF;stroke-width:2;stroke-miterlimit:45;}
	.st18{fill:none;stroke:#FFFFFF;stroke-width:2;stroke-miterlimit:45.0001;}
	.st19{fill:none;stroke:#FFFFFF;stroke-width:2;stroke-linecap:round;stroke-linejoin:round;stroke-miterlimit:45;}
	.st20{fill:none;stroke:#FFFFFF;stroke-width:3.375;stroke-linecap:round;stroke-linejoin:round;stroke-miterlimit:45;}
	.st21{fill:none;stroke:#FFFFFF;stroke-width:2;stroke-linejoin:round;}
	.st22{fill:none;stroke:#FFFFFF;stroke-width:2;stroke-miterlimit:10;}
	.st23{fill:none;stroke:#FFFFFF;stroke-width:2;stroke-linecap:round;stroke-linejoin:round;}
</style>
<g>
	<g transform="matrix(1,0,0,1,-4050,-2250)">
		<g id="Page-17_00000164473601334585398220000009587504355249620669_" transform="matrix(4.16667,0,0,4.16667,4050,2250)">
			<rect x="23.2" y="152.3" class="st0" width="82.1" height="82.1"/>
			<g id="Optic-fiber-from-skull--lean_00000141430053470808146450000002976711520968275877_">
				<g transform="matrix(1,0,0,1,29.6602,167.46)" class="st1">
					<path class="st2" d="M65.5,37.3c0.5,0.5,0.8,1.2,0.6,2.2c-0.3,1.6-0.7,2.5-1.1,2.8c-0.3,0.3-0.8,0.8-1.8,0.7c0,0-1,0.3-1.8-0.2
						c-0.2-0.1-0.4-0.3-0.5-0.4c0.3,0,0.6,0,0.6,0c0.2,0.1,0.5,0,0.5,0c-0.1,0-0.2-0.1-0.2-0.1c0-0.1-0.2-0.2-0.3-0.4
						c-0.1-0.2-0.3-0.5-0.4-0.5c0.1,0.1,0.3,0.2,0.6,0.3c0.8,0.5,1.6,0.1,1.6,0.1c0.2-0.1,0.4-0.3,0.4-0.3c-0.1,0-0.4-0.1-0.4-0.1
						c-0.2-0.2-0.7-0.4-1.1-0.6c-0.1,0-0.2-0.1-0.3-0.1c0.1,0,0.6,0.2,1,0.2c0.4,0,0.9-0.1,0.9-0.1s0.3,0,0.4-0.1
						c0,0-0.2-0.1-0.3-0.3c0,0-0.4-0.6-1.1-0.7c-0.5-0.1-1-0.3-1.2-0.4c0,0,0.2-0.2,0.8-0.2c0.6,0,1-0.3,1.1-0.3
						c0,0,0.2-0.1,0.3-0.2c0,0-0.2,0-0.4-0.1c0,0-0.5-0.4-1.3-0.4c-0.4,0-0.7,0-0.9,0c0-0.1,0-0.2,0.1-0.4c0.1-0.3,0.4-0.7,0.8-0.9
						c0.4-0.2,1.1-0.4,1.8-0.1c0.2,0.1,0.4,0.1,0.6,0.2C64.9,36.9,65.2,37.1,65.5,37.3"/>
				</g>
				<g transform="matrix(0.336699,0.941612,0.941612,-0.336699,72.95,84.8412)">
					<path class="st3" d="M102.4-30.3c-0.9-0.9-1.2-2-3.5-3.5c-2.2-1.5-5-1.2-6,0.1c-0.7,1-1.4,2.8,0.7,5.7c1.5,2.1,4.4,2.8,6.4,3.1
						"/>
				</g>
				<g transform="matrix(1,0,0,1,62.0625,102.641)">
					<path class="st4" d="M22,86.9c-0.2-0.3-0.3-0.7-0.5-1c-0.1-0.3-0.3-0.6-0.5-1l0.2-0.1c0.1,0.3,0.3,0.7,0.4,1
						C21.8,86.2,21.9,86.5,22,86.9"/>
				</g>
				<g transform="matrix(1,0,0,1,63.5728,88.0004)">
					<path class="st4" d="M20,102c-0.2-0.5-0.4-1-0.6-1.5c-0.2-0.5-0.5-0.9-0.8-1.4c-0.6-0.9-1.2-1.7-1.9-2.5
						c-0.7-0.8-1.6-1.4-2.6-1.7c-0.5-0.2-1-0.3-1.5-0.3c-0.5-0.1-1.1-0.1-1.6-0.1c1.1-0.1,2.1-0.1,3.2,0.2c1,0.3,2,0.9,2.7,1.7
						c0.7,0.8,1.3,1.7,1.9,2.6c0.3,0.5,0.5,0.9,0.7,1.4C19.7,101,19.8,101.5,20,102"/>
				</g>
				<g transform="matrix(-0.895262,0.445541,0.445541,0.895262,74.086,117.21)">
					<path class="st5" d="M27.9,69.8c0.7-0.2,0.8-0.7,0.8-1.1"/>
				</g>
				<g transform="matrix(1,0,0,1,73.377,114.321)">
					<path class="st4" d="M6.8,77.6c0.5,0,1-0.3,1.5-0.5c-0.4,0.3-0.9,0.6-1.5,0.8L6.8,77.6z"/>
				</g>
				<g transform="matrix(1,0,0,1,78.5225,114.593)">
					<path class="st4" d="M-0.1,75.7C0,75.8,0.1,75.9,0.1,76c0.1,0.1,0.1,0.2,0.1,0.3c0.1,0.2,0.2,0.4,0.3,0.6l-0.2,0.1
						c-0.1-0.2-0.1-0.4-0.2-0.6c0-0.1,0-0.2-0.1-0.3C0,75.9,0,75.8-0.1,75.7"/>
				</g>
				<g transform="matrix(1,0,0,1,70.4995,98.4629)">
					<path class="st4" d="M10.7,92.2c0.1-0.3,0.3-0.5,0.4-0.7c0.1-0.2,0.1-0.5,0-0.7c-0.1-0.5-0.5-0.8-0.9-1.2
						c-0.4-0.3-0.8-0.6-1.3-0.9c-0.2-0.2-0.4-0.3-0.6-0.5c-0.2-0.2-0.3-0.4-0.4-0.7c0.3,0.4,0.7,0.7,1.1,1c0.4,0.3,0.9,0.6,1.3,0.9
						c0.2,0.2,0.4,0.3,0.6,0.6c0.2,0.2,0.3,0.5,0.4,0.7c0.1,0.3,0.1,0.6-0.1,0.8C11,91.8,10.8,92,10.7,92.2"/>
				</g>
				<g transform="matrix(1,0,0,1,76.8735,114.77)">
					<path class="st4" d="M2.1,73.3c0.4,0.2,0.7,0.5,0.8,0.9C3.1,74.6,3,75,3,75.4c0,0.2,0,0.4,0,0.6c0,0.2,0,0.4,0.1,0.5
						c0.1,0.1,0.3,0.2,0.5,0.1c0.2-0.1,0.3-0.2,0.5-0.3c-0.1,0.2-0.2,0.3-0.4,0.4c-0.1,0-0.2,0.1-0.3,0.1c-0.1,0-0.2-0.1-0.3-0.2
						c-0.2-0.2-0.2-0.4-0.2-0.6c0-0.2,0-0.4,0-0.6c0-0.4,0.1-0.8,0-1.2C2.7,73.9,2.5,73.6,2.1,73.3"/>
				</g>
				<g transform="matrix(0.694254,-0.71973,-0.71973,-0.694254,41.3923,115.737)">
					<path class="st3" d="M-18-83.7c0.7-3.3-0.2-6-0.2-6"/>
				</g>
				<g transform="matrix(1,0,0,1,46.9585,99.7721)">
					<path class="st4" d="M42.2,87.1l-0.9-0.6l1,0.4L42.2,87.1z"/>
				</g>
				<g transform="matrix(0.97249,-0.232944,-0.232944,-0.97249,48.3049,103.166)">
					<path class="st3" d="M13.3-87.3c5.9-0.7,6.9-3.5,6.9-3.5"/>
				</g>
				<g transform="matrix(1,0,0,1,48.7285,78.5518)">
					<path class="st3" d="M34.3,106.3c-0.2-1.8,0.1-5.6,3.2-5.2c3.1,0.4,2.2,5.1,2.4,5.6c0.1,0.2,0,0.6,0.1,1"/>
				</g>
				<g transform="matrix(1,0,0,1,96.4731,124.972)">
					<path class="st6" d="M-43.9,70.1c2.2-3.3,5.4-5.5,9.4-6.4c4.2-0.9,5.6-1.8,10.4-2.5"/>
				</g>
				<g transform="matrix(1,0,0,1,154.589,127.732)">
					<path class="st4" d="M-102.2,67.3C-102.2,67.3-102.1,67.3-102.2,67.3c0.1-0.1,0.1-0.1,0.2,0c0.1,0,0.1,0.1,0,0.2l0,0l-0.7,1
						L-102.2,67.3"/>
				</g>
				<g transform="matrix(-0.814954,-0.579526,-0.579526,0.814954,11.1227,134.835)">
					<path class="st3" d="M-108.2,4.2c-0.6-0.2-0.5-1.7-0.5-1.7c-0.1-1.2,1-1.5,1-1.5c0.9-0.7,4-1.1,5.4-1.8c1.4-0.7,2.8-1,2.8-1"/>
				</g>
				<g transform="matrix(1,0,0,1,24.5396,136.029)">
					<path class="st4" d="M72.3,65c-0.2,0-0.3-0.2-0.3-0.3c0-0.1,0-0.3,0-0.4c0-0.2,0.1-0.5,0.2-0.7c0.1-0.2,0.2-0.4,0.4-0.6
						c0.2-0.2,0.3-0.3,0.5-0.5c-0.2,0.1-0.4,0.3-0.5,0.5c-0.1,0.2-0.2,0.4-0.3,0.6c-0.1,0.2-0.1,0.4-0.2,0.7c0,0.1,0,0.2,0,0.3
						c0,0.1,0.1,0.1,0.2,0.1L72.3,65z"/>
				</g>
				<g transform="matrix(1,0,0,1,24.6309,144.992)">
					<path class="st6" d="M66.7,56.8c0.6,0,1.1,0.1,3,0.1c1.9,0,2.6-1,2.6-1"/>
				</g>
				<g transform="matrix(1,0,0,1,40.9629,144.558)">
					<path class="st4" d="M50.3,57.1C50.3,57.1,50.4,57.1,50.3,57.1c0.1,0,0.1,0.1,0.1,0.1c0,0.1-0.1,0.1-0.1,0.1
						c-0.5-0.1-0.9-0.2-1.3-0.4C49.4,57,49.9,57.1,50.3,57.1L50.3,57.1z"/>
				</g>
				<g transform="matrix(-0.74284,0.669469,0.669469,0.74284,52.3326,144.667)">
					<path class="st6" d="M13.6,66.3c-0.5,0.3-0.8,0.6-1.1,0.8c-0.7,0.6-1.3,1.3-1.7,2c-0.4,0.7-0.9,1.2-1.5,1.1
						c-0.6-0.2-0.6-1-0.4-1.2"/>
				</g>
				<g transform="matrix(1,0,0,1,54.7739,148.665)">
					<path class="st4" d="M31.8,54.2C31.8,54.2,31.8,54.2,31.8,54.2c0.1,0,0.1,0,0.2,0.1c0,0.1,0,0.1-0.1,0.2c-0.3,0.1-0.6,0-0.9,0
						c-0.3,0-0.5,0-0.8-0.1l-0.8-0.1c-0.1,0-0.3,0-0.4,0c-0.1,0-0.3,0-0.4,0c0.1-0.1,0.3-0.1,0.4-0.1c0.1,0,0.3,0,0.4,0l0.8,0
						c0.3,0,0.5,0,0.8,0C31.3,54.3,31.6,54.3,31.8,54.2L31.8,54.2z"/>
				</g>
				<g transform="matrix(1,0,0,1,36.103,166.008)">
					<path class="st6" d="M54.7,42.7c0.1,0.1,0.3,0.2,0.6,0.3c0.8,0.5,1.6,0.1,1.6,0.1"/>
				</g>
				<g transform="matrix(1,0,0,1,40.1079,164.715)">
					<path class="st6" d="M52.9,44c-0.2-0.2-0.7-0.4-1.1-0.6c-0.1,0-0.2-0.1-0.3-0.1"/>
				</g>
				<g transform="matrix(1,0,0,1,42.2109,164.802)">
					<path class="st4" d="M48.7,43.8C48.7,43.8,48.7,43.8,48.7,43.8c0.1,0.1,0.1,0.2,0.1,0.2c0,0.1-0.1,0.1-0.2,0
						c-0.1-0.1-0.2-0.1-0.3-0.2c-0.1-0.1-0.2-0.1-0.3-0.2c0.1,0,0.2,0.1,0.3,0.1C48.4,43.7,48.5,43.8,48.7,43.8"/>
				</g>
				<g transform="matrix(1,0,0,1,41.5601,163.044)">
					<path class="st4" d="M49.5,44.6c0.2,0.1,0.4,0.2,0.6,0.2c0,0,0,0,0.1,0c0.1,0,0.1,0.1,0,0.2c0,0.1-0.1,0.1-0.2,0
						C49.8,44.9,49.7,44.7,49.5,44.6"/>
				</g>
				<g transform="matrix(1,0,0,1,34.187,158.57)">
					<path class="st6" d="M57.1,48c0.2,0.1,0.6,0.3,1.2,0.4c0.7,0.1,1.1,0.7,1.1,0.7"/>
				</g>
				<g transform="matrix(1,0,0,1,40.1079,163.3)">
					<path class="st6" d="M53.4,44.8c0,0-0.5,0.1-0.9,0.1c-0.4,0-1-0.2-1-0.2"/>
				</g>
				<g transform="matrix(1,0,0,1,40.6802,158.9)">
					<path class="st4" d="M50.7,47.6C50.7,47.6,50.8,47.6,50.7,47.6c0.1,0.1,0.1,0.2,0.1,0.2c-0.1,0.1-0.1,0.1-0.2,0l0,0l-0.3-0.3
						L50.7,47.6"/>
				</g>
				<g transform="matrix(1,0,0,1,35.6904,154.712)">
					<path class="st6" d="M55.1,50.6c0.2,0,0.5,0.1,1,0c0.8-0.1,1.3,0.4,1.3,0.4"/>
				</g>
				<g transform="matrix(1,0,0,1,40.855,156.956)">
					<path class="st6" d="M52.4,49.1c-0.1,0.1-0.5,0.3-1.1,0.4c-0.6,0-0.8,0.2-0.8,0.2"/>
				</g>
				<g transform="matrix(1,0,0,1,42.3501,155.188)">
					<path class="st4" d="M48.5,50C48.5,50,48.5,50,48.5,50c0.1,0,0.2,0.1,0.1,0.2c0,0.1-0.1,0.1-0.2,0.1c-0.1,0-0.2,0-0.3-0.1
						c-0.1,0-0.2,0-0.3,0c0.1-0.1,0.2-0.1,0.3-0.1C48.3,50,48.4,50,48.5,50L48.5,50z"/>
				</g>
				<g transform="matrix(1,0,0,1,41.269,161.721)">
					<path class="st6" d="M40.1,46.1c0.9,0,1.8-0.1,2.5-0.2c1.7-0.1,2.9,0.1,3.4,0.2c0.6,0,0.9,0.3,1.2,0.7c0.3,0.3,0.7,0.5,1.3,1
						c0.6,0.5,1.4,0.4,1.4,0.4"/>
				</g>
				<g transform="matrix(1,0,0,1,42.3799,167.628)">
					<path class="st6" d="M49.1,42c0-0.1-0.2-0.2-0.3-0.4s-0.4-0.5-0.4-0.5"/>
				</g>
				<g transform="matrix(1,0,0,1,36.0933,165.572)">
					<path class="st4" d="M56.9,43.2C56.9,43.2,56.8,43.2,56.9,43.2c-0.1-0.1-0.1-0.2,0-0.2c0,0,0.1,0,0.2,0
						c0.1,0.1,0.2,0.1,0.3,0.2l0,0l0,0c0,0,0,0.1,0,0.1c-0.1,0.2-0.2,0.3-0.4,0.4l0,0c0,0,0,0,0,0c-0.1,0-0.2-0.1-0.1-0.2
						c0-0.1,0.1-0.1,0.1-0.1c0.1,0,0.3-0.1,0.4-0.2l0,0.1h0c-0.1,0-0.1,0-0.2,0C57,43.3,56.9,43.3,56.9,43.2"/>
				</g>
				<g transform="matrix(1,0,0,1,34.5273,161.44)">
					<path class="st4" d="M58.9,46.8C58.9,46.8,58.9,46.8,58.9,46.8c-0.1,0-0.2-0.1-0.1-0.2c0-0.1,0.1-0.1,0.1-0.1
						c0.1,0,0.3,0,0.4,0l0,0l0,0.1c-0.1-0.1-0.2-0.1-0.3-0.2l0,0c0,0,0,0,0,0c0-0.1,0-0.2,0.1-0.2c0.1,0,0.1,0,0.1,0.1
						c0.1,0.1,0.1,0.2,0.2,0.3l0,0c0,0,0,0.1,0,0.1l0,0c-0.1,0.1-0.1,0.1-0.2,0.1C59.1,46.8,59,46.8,58.9,46.8"/>
				</g>
				<g transform="matrix(1,0,0,1,35.1436,155.614)">
					<path class="st4" d="M58.1,50.5C58.1,50.5,58.1,50.5,58.1,50.5c-0.1,0-0.2,0-0.2-0.1c0-0.1,0-0.1,0.1-0.2
						c0.1,0,0.2-0.1,0.3-0.1l0,0l0.1,0.1c-0.2,0-0.3,0-0.5-0.1l0,0c0,0,0,0,0,0c0-0.1,0-0.1,0-0.2c0.1,0,0.1,0,0.2,0
						c0.1,0.1,0.2,0.1,0.3,0.2l0,0l0,0c0,0,0,0,0,0.1l0,0c0,0.1-0.1,0.1-0.1,0.2C58.2,50.4,58.2,50.5,58.1,50.5L58.1,50.5z"/>
				</g>
				<g transform="matrix(1,0,0,1,40.7319,167.665)">
					<path class="st4" d="M50.6,42.1C50.6,42.1,50.6,42,50.6,42.1c-0.1-0.1,0-0.2,0-0.2c0.1,0,0.2,0,0.2,0.1c0,0,0,0.1,0,0.1
						c0,0,0,0.1,0.1,0.1l0,0c0,0,0,0,0,0c0,0,0,0.1,0,0.1c-0.2,0.1-0.3,0.1-0.5,0.1l0,0c0,0,0,0,0,0c-0.1,0-0.1-0.2,0-0.2
						c0,0,0.1,0,0.2,0c0.1,0.1,0.3,0.1,0.4,0.1l0,0.1h0c-0.1,0-0.1,0-0.2,0C50.7,42.1,50.7,42.1,50.6,42.1L50.6,42.1z"/>
				</g>
				<g transform="matrix(1,0,0,1,106.66,188.662)">
					<path class="st6" d="M-40.8,28.2c0.7,0.1,1.3,0.5,1.3,0.5c0.5,0.1,0.8,0.6,0.8,0.6c0.4,0.1,0.9,0.4,0.9,0.4"/>
				</g>
				<g transform="matrix(1,0,0,1,112.25,195.575)">
					<path class="st6" d="M-43.3,23.2c0,0,0,0.6-0.8,0.6c-0.5,0-0.9-0.2-1.2-0.5"/>
				</g>
				<g transform="matrix(1,0,0,1,115.273,189.127)">
					<path class="st4" d="M-49.4,27.6C-49.4,27.6-49.3,27.6-49.4,27.6c0.2,0,0.2,0.1,0.2,0.2c0,0.1-0.1,0.1-0.2,0.1l0,0l-0.3-0.2
						L-49.4,27.6"/>
				</g>
				<g transform="matrix(1,0,0,1,113.511,194.944)">
					<path class="st4" d="M-47,23.4c0.2,0.1,0.3,0.3,0.5,0.4c0,0,0,0,0,0c0,0.1,0,0.1,0,0.2c-0.1,0-0.1,0-0.2,0l0,0
						C-46.8,23.8-46.9,23.6-47,23.4"/>
				</g>
				<g transform="matrix(0.991608,-0.129279,-0.129279,-0.991608,112.275,194.688)">
					<path class="st6" d="M-49.3-17.8c0.6-0.3,1.2-0.3,1.2-0.3"/>
				</g>
				<g transform="matrix(1,0,0,1,115.644,193.893)">
					<path class="st4" d="M-49.9,24.7C-49.9,24.7-49.9,24.7-49.9,24.7c0.1,0.1,0.1,0.1,0.1,0.2c0,0.1-0.1,0.1-0.2,0l0,0
						c-0.2-0.1-0.4-0.3-0.5-0.4C-50.3,24.6-50.1,24.6-49.9,24.7"/>
				</g>
				<g transform="matrix(-0.550382,-0.834913,-0.834913,0.550382,123.356,193.05)">
					<path class="st7" d="M11.9,64.1c0,0.1-0.1,0.2-0.1,0.2"/>
				</g>
				<g transform="matrix(1,0,0,1,118.434,196.68)">
					<path class="st6" d="M-55.3,22.4c0,0,0.6,0.5,1.2,0.2c0.2-0.1,0.4-0.3,0.5-0.4"/>
				</g>
				<g transform="matrix(1,0,0,1,118.151,194.93)">
					<path class="st4" d="M-53.3,23.4c0.1,0.2,0.1,0.3,0,0.5l0,0c0,0,0,0,0,0.1c-0.1,0.1-0.1,0-0.2,0c-0.1-0.1,0-0.1,0-0.2
						C-53.4,23.7-53.3,23.6-53.3,23.4"/>
				</g>
				<g transform="matrix(1,0,0,1,122.727,191.307)">
					<path class="st4" d="M-59.4,27.1C-59.4,27.2-59.4,27.2-59.4,27.1c-0.1,0.1-0.1,0.1-0.2,0c-0.1,0-0.1-0.1,0-0.2
						c0.3-0.3,0.6-0.5,1-0.6C-58.9,26.6-59.2,26.8-59.4,27.1"/>
				</g>
				<g transform="matrix(1,0,0,1,100.784,188.547)">
					<path class="st6" d="M-34.9,28.3c0.2,0,0.4,0,0.7,0c0.7,0.1,1.7,0.4,2.4,0.5c1,0.2,1.8,0.7,1.8,0.7"/>
				</g>
				<g transform="matrix(-0.974602,-0.223945,-0.223945,0.974602,100.596,195.088)">
					<path class="st6" d="M23.7,29.4c0,0-0.1,1.3,1.8,0.9"/>
				</g>
				<g transform="matrix(1,0,0,1,97.7783,188.76)">
					<path class="st6" d="M-30.7,28.2c0.7,0,1.5,0.1,1.5,0.1c1.6-0.1,2.1,0.2,2.1,0.2c0.5,0,1.2,0.2,1.2,0.2"/>
				</g>
				<g transform="matrix(-0.850177,-0.526497,-0.526497,0.850177,97.7098,191.615)">
					<path class="st6" d="M7.9,35.8c-0.5,1,0.7,1.4,0.7,1.4"/>
				</g>
				<g transform="matrix(1,0,0,1,106.209,192.692)">
					<path class="st4" d="M-37.2,26.2C-37.2,26.2-37.3,26.2-37.2,26.2c-0.1,0.1-0.2,0.1-0.3,0c0-0.1,0-0.1,0.1-0.1l0,0
						c0.1-0.1,0.2-0.1,0.3-0.1c0.1,0,0.2,0,0.2,0.1l0,0L-37,26c-0.1-0.1-0.1-0.1-0.2-0.2c0,0-0.1,0-0.1-0.1c0,0-0.1,0-0.1,0
						c0,0,0,0,0,0c-0.1,0-0.1-0.1-0.1-0.2c0-0.1,0.1-0.1,0.2-0.1l0,0c0.1,0,0.1,0.1,0.2,0.1c0,0,0.1,0.1,0.1,0.1
						c0.1,0.1,0.2,0.2,0.2,0.3c0,0,0,0,0,0c0,0,0,0.1-0.1,0.1l0,0h0C-37,26.1-37.2,26.1-37.2,26.2"/>
				</g>
				<g transform="matrix(1,0,0,1,123.171,193.995)">
					<path class="st4" d="M-60,25C-60,25-60,25-60,25c0.1,0.1,0.1,0.2,0,0.2c-0.1,0-0.1,0-0.2,0c0,0-0.1-0.1-0.1-0.1
						c0,0-0.1,0-0.1-0.1c0,0,0,0,0,0l-0.1,0l0,0c0,0,0,0,0,0c0-0.1,0-0.2,0.1-0.3c0.1-0.1,0.2-0.2,0.3-0.2l0,0c0,0,0,0,0,0
						c0.1,0,0.1,0,0.1,0.1c0,0.1,0,0.1-0.1,0.1c-0.1,0-0.2,0-0.2,0.1c-0.1,0-0.1,0.1-0.1,0.2l-0.1,0l0,0c0,0,0-0.1,0.1-0.1
						c0,0,0.1,0,0.1,0c0,0,0.1,0,0.1,0C-60.1,24.9-60.1,25-60,25"/>
				</g>
				<g transform="matrix(1,0,0,1,100.598,191.86)">
					<path class="st4" d="M-29.7,26.7C-29.7,26.7-29.7,26.8-29.7,26.7c-0.1,0-0.2-0.1-0.2-0.1c0-0.1,0.1-0.1,0.1-0.1
						c0.1,0,0.2,0,0.2,0c0.1,0,0.2,0,0.2,0.1l0,0l-0.1,0.1c-0.1-0.1-0.3-0.2-0.5-0.2c0,0,0,0,0,0c-0.1,0-0.1-0.1,0-0.2
						c0,0,0.1-0.1,0.2,0l0,0c0.2,0.1,0.4,0.3,0.5,0.4c0,0,0,0,0,0c0,0,0,0.1-0.1,0.1l0,0h0c-0.1,0-0.1,0-0.2,0
						C-29.6,26.7-29.6,26.7-29.7,26.7"/>
				</g>
				<g transform="matrix(1,0,0,1,96.9072,190.035)">
					<path class="st4" d="M-24.7,28C-24.8,28-24.8,28-24.7,28c-0.1,0-0.2,0-0.2-0.1c0-0.1,0.1-0.1,0.1-0.1l0,0c0.1,0,0.1,0,0.2,0
						c0.1,0,0.1,0,0.2,0.1l0,0l-0.1,0.1c-0.1-0.1-0.1-0.2-0.2-0.2c-0.1,0-0.2-0.1-0.3-0.1c0,0,0,0,0,0c-0.1,0-0.1-0.1-0.1-0.2
						c0-0.1,0.1-0.1,0.2-0.1l0,0c0.1,0,0.3,0.1,0.4,0.2c0.1,0.1,0.2,0.2,0.2,0.3c0,0,0,0,0,0c0,0,0,0.1-0.1,0.1l0,0h0
						C-24.6,27.9-24.7,27.9-24.7,28"/>
				</g>
				<g transform="matrix(0.982222,0.187725,0.187725,-0.982222,115.859,193.745)">
					<path class="st6" d="M-45.5-34.3c0.6,0.1,0.9,0.3,0.9,0.3"/>
				</g>
				<g transform="matrix(1,0,0,1,106.043,187.701)">
					<path class="st6" d="M-41.4,28.7c1,0.1,0.8,0.3,2.2,0.1c1.4-0.2,2.1,0,2.1,0"/>
				</g>
				<g transform="matrix(-0.865101,-0.501598,-0.501598,0.865101,105.895,188.359)">
					<path class="st7" d="M17.5,43.1c0,0.2,0.2,0.3,0.2,0.3"/>
				</g>
				<g transform="matrix(1,0,0,1,105.372,187.785)">
					<path class="st4" d="M-36.1,29.1c0,0.1,0,0.1,0,0.2c-0.1,0.1-0.2,0.1-0.3,0c0-0.1,0-0.2,0-0.2l0.1-0.1c0,0,0.1-0.1,0.1-0.1
						c0,0,0.1,0,0.1,0c0.1,0,0.2,0,0.2,0l0,0L-36,29c0,0,0,0-0.1-0.1c0,0-0.1,0-0.1,0c-0.1,0-0.1,0-0.2-0.1c0,0,0,0,0,0
						c-0.1,0-0.1-0.1,0-0.2c0,0,0.1,0,0.1,0l0,0c0.1,0,0.2,0.1,0.2,0.1c0,0,0.1,0.1,0.1,0.1c0,0,0.1,0.1,0.1,0.1l0,0c0,0,0,0,0,0
						c0,0,0,0-0.1,0h0C-36,29-36,29-36.1,29.1C-36.1,29-36.1,29.1-36.1,29.1C-36.1,29.1-36.1,29.1-36.1,29.1"/>
				</g>
				<g transform="matrix(0.897117,-0.441792,-0.441792,-0.897117,135.667,186.298)">
					<path class="st6" d="M-83.4,10.2c0.5-2.2,2-2.3,2-2.6"/>
				</g>
				<g transform="matrix(0.671425,-0.741073,-0.741073,-0.671425,148.393,182.083)">
					<path class="st6" d="M-85,51.5c-0.6-1.1-0.1-2.3-0.5-4.7"/>
				</g>
				<g transform="matrix(1,0,0,1,82.832,179.58)">
					<path class="st6" d="M-18.5,34.2c1.9-0.5,2.7-1.1,3.5-1.6c1.6-1.1,3.6-5.6,9.2-7.3"/>
				</g>
				<g transform="matrix(0.994222,0.107345,0.107345,-0.994222,119.933,179.301)">
					<path class="st6" d="M-53.4-40.6c0.6,0.1,1.2,0.2,1.8,0.4"/>
				</g>
				<g transform="matrix(1,0,0,1,125.133,180.532)">
					<path class="st4" d="M-62.6,33.3C-62.6,33.3-62.6,33.3-62.6,33.3c0.1,0,0.2,0.1,0.1,0.1c0,0.1-0.1,0.1-0.1,0.1l-1.1-0.1
						L-62.6,33.3"/>
				</g>
				<g transform="matrix(0.613845,0.789426,0.789426,-0.613845,84.0378,181.402)">
					<path class="st6" d="M21.9-26.7c0.1,0.3-0.2,0.7-0.2,0.7"/>
				</g>
				<g transform="matrix(1,0,0,1,102.765,179.072)">
					<path class="st4" d="M-32.6,34.5c-0.1,0-0.1-0.1-0.1-0.1s0.1-0.1,0.1-0.1h0.7l0,0c0.4,0,0.7-0.1,1.1-0.1c0.2,0,0.4,0,0.5,0
						c0.2,0,0.4,0,0.6,0l0,0c0.5,0,0.9-0.1,1.4,0c0.2,0,0.5,0,0.7,0.1c0.2,0,0.7,0.2,0.7,0.2h0l0,0c0.2,0,0.3,0.1,0.4,0.2
						c0.1,0.1,0.3,0.2,0.3,0.3l0,0c0,0,0,0,0,0c0,0,0,0-0.1,0l0,0l-0.3-0.1l-0.1,0c0,0-0.1,0-0.1,0l0.1-0.1c0,0,0,0,0,0.1
						c0,0,0,0,0,0c0,0-0.1,0.1-0.1,0.1c-0.1,0-0.1-0.1-0.1-0.1c0-0.1,0.1-0.1,0.1-0.1c-0.1,0-0.1,0-0.1,0c0,0,0,0,0,0c0,0,0,0,0,0
						l0,0c0,0,0.1-0.1,0.1-0.1l0,0c0.1,0,0.1,0,0.2,0.1l0.1,0.1l0.2,0.1l-0.1,0.1l0,0c-0.1-0.2-0.4-0.3-0.7-0.3c0,0,0,0,0,0l0,0l0,0
						c-0.2-0.1-0.4-0.1-0.6-0.1c-0.2,0-0.5,0-0.7,0c-0.5,0-0.9,0-1.4,0c0,0,0,0,0,0l0,0c-0.2,0-0.3,0-0.5,0c-0.2,0-0.4,0-0.5,0
						c-0.4,0-0.7,0.1-1.1,0.1l0,0h0H-32.6L-32.6,34.5z"/>
				</g>
				<g transform="matrix(1,0,0,1,84.6465,185.864)">
					<path class="st6" d="M-10.9,29.6c0.4,0.2,1.1,0.5,1.7,0.4c0.8-0.1,0.9-0.5,0.9-0.5"/>
				</g>
				<g transform="matrix(1,0,0,1,92.1948,184.608)">
					<path class="st4" d="M-18.4,30.7C-18.4,30.7-18.4,30.7-18.4,30.7c0.1,0.1,0.1,0.2,0.1,0.2c0,0.1-0.1,0.1-0.2,0l-0.4-0.3
						L-18.4,30.7L-18.4,30.7z"/>
				</g>
				<g transform="matrix(1,0,0,1,96.8657,183.164)">
					<path class="st6" d="M-20.4,31.9c-0.1-0.1-0.2-0.1-0.2-0.1c-0.5-0.4-2.7-0.6-2.7-0.6c-0.5-0.2-1.4-0.1-1.4-0.1"/>
				</g>
				<g transform="matrix(1,0,0,1,101.639,181.107)">
					<path class="st4" d="M-31.1,32.9c0.1,0,0.2,0,0.3,0.1l0,0c0.4-0.1,0.9-0.1,1.4,0c0,0,0,0,0,0c0.1,0,0.1,0.1,0.1,0.2
						s-0.1,0.1-0.2,0.1l0,0c-0.4-0.2-0.8-0.2-1.3-0.2h0c0,0,0,0,0,0C-30.9,32.9-31,32.9-31.1,32.9"/>
				</g>
				<g transform="matrix(1,0,0,1,92.3711,184.695)">
					<path class="st6" d="M-19.5,30.7c0.2,0.1,0.9,0,0.9,0"/>
				</g>
				<g transform="matrix(1,0,0,1,94.1919,187.19)">
					<path class="st6" d="M-23.1,28.7c0,0,0.6,0.4,1.1,0.5c0.5,0.1,0.9-0.4,0.9-0.4"/>
				</g>
				<g transform="matrix(1,0,0,1,101.794,184.887)">
					<path class="st6" d="M-28.8,30.7c-0.5-0.6-1.7-0.6-1.7-0.6c-0.3-0.2-0.8-0.3-0.8-0.3"/>
				</g>
				<g transform="matrix(1,0,0,1,83.4956,181.339)">
					<path class="st4" d="M-6.7,32.9C-6.8,32.9-6.8,32.9-6.7,32.9c-0.1,0-0.2-0.1-0.1-0.1c0-0.1,0.1-0.1,0.1-0.1l0,0
						c0.1,0,0.1,0,0.2,0.1c0.1,0,0.1,0.1,0.2,0.1c0.1,0.1,0.2,0.2,0.2,0.3l0,0c0,0,0,0,0,0c0,0,0,0.1-0.1,0l0,0c-0.1,0-0.1,0-0.2,0
						c-0.1,0-0.1,0-0.2,0c0,0,0,0-0.1,0c-0.1,0-0.1,0-0.2-0.1c0-0.1,0-0.1,0.1-0.2L-6.7,32.9C-6.5,33-6.5,33-6.4,33
						c0.1,0,0.2,0,0.2,0.1l-0.1,0.1l0,0C-6.3,33.1-6.4,33-6.5,33c0,0-0.1,0-0.1-0.1C-6.7,32.9-6.7,32.9-6.7,32.9"/>
				</g>
				<g transform="matrix(1,0,0,1,84.6411,183.809)">
					<path class="st4" d="M-8.3,31.3C-8.3,31.3-8.3,31.3-8.3,31.3c-0.1-0.1-0.1-0.2,0-0.2c0,0,0.1,0,0.2,0c0.1,0.1,0.3,0.2,0.3,0.4
						v0c0,0,0,0,0,0c0,0,0,0.1-0.1,0.1l0,0c-0.1,0-0.1,0-0.2,0c-0.1,0-0.2,0-0.2,0c0,0,0,0-0.1,0c-0.1,0-0.2-0.1-0.1-0.2
						C-8.4,31.4-8.4,31.4-8.3,31.3L-8.3,31.3c0.1,0,0.2,0.1,0.2,0.1c0.1,0,0.1,0,0.2,0.1l-0.1,0.1C-8,31.5-8.1,31.4-8.3,31.3"/>
				</g>
				<g transform="matrix(1,0,0,1,94.7646,185.876)">
					<path class="st4" d="M-21.9,29.8C-21.9,29.8-21.9,29.8-21.9,29.8c-0.1-0.1-0.1-0.2,0-0.2c0.1,0,0.1,0,0.2,0
						c0.1,0.1,0.2,0.2,0.2,0.3c0.1,0.1,0.1,0.2,0.2,0.3l0,0c0,0,0,0,0,0c0,0,0,0.1-0.1,0.1l0,0c-0.1,0-0.1,0-0.2,0l-0.1,0
						c0,0-0.1,0,0,0c-0.1,0-0.1,0-0.2-0.1c0-0.1,0-0.1,0.1-0.2c0.1,0,0.1,0,0.1,0l0.1,0c0.1,0,0.1,0,0.2,0.1l-0.1,0.1l0,0
						c-0.1-0.1-0.1-0.2-0.2-0.2C-21.7,29.9-21.8,29.9-21.9,29.8"/>
				</g>
				<g transform="matrix(1,0,0,1,103.87,182.563)">
					<path class="st4" d="M-34.1,32c0.2,0,0.5,0,0.7,0l0,0c0,0,0,0,0,0c0.1,0,0.1,0.1,0.1,0.2c0,0.1-0.1,0.1-0.2,0.1
						C-33.6,32.2-33.9,32.1-34.1,32"/>
				</g>
				<g transform="matrix(1,0,0,1,99.6162,184.953)">
					<path class="st6" d="M-31.2,30.6c0.1,0,0.6,0.1,0.9,0.2c0.3,0.1,1.2,0,1.2,0c0.2,0.1,0.7,0.2,0.7,0.2"/>
				</g>
				<g transform="matrix(1,0,0,1,107.292,180.498)">
					<path class="st6" d="M-43.8,33.4c0,0.6,0,0.5,0.1,0.7c0.1,0.5,0.7,0.7,1,0.8C-42,35-41.2,35-41.2,35c0.2,0,1.4,0.2,1.8,0.2
						c0.3,0.1,0.8-0.1,0.8-0.1"/>
				</g>
				<g transform="matrix(1,0,0,1,41.9849,165.365)">
					<path class="st6" d="M50.9,45.1c1,0.1,1.5-0.4,1.8-0.7c0.4-0.3,0.8-1.2,1.1-2.8c0.3-1.6-0.6-2.4-1.5-2.8
						c-1-0.5-1.9-0.3-2.4-0.1c-0.5,0.2-0.9,0.8-0.9,1.2"/>
				</g>
				<g transform="matrix(1,0,0,1,36.3247,170.15)">
					<path class="st4" d="M56.6,40.2C56.6,40.2,56.6,40.2,56.6,40.2c0.1,0,0.2,0.1,0.1,0.2c0,0.1-0.1,0.1-0.2,0.1l0,0
						c-0.2-0.1-0.5-0.2-0.7-0.3C56.1,40.2,56.3,40.2,56.6,40.2"/>
				</g>
				<g transform="matrix(1,0,0,1,36.3706,168.803)">
					<path class="st6" d="M54.2,41c0.1,0.1,0.3,0.3,0.5,0.4c0.7,0.5,1.8,0.2,1.8,0.2"/>
				</g>
				<g transform="matrix(0.905581,-0.424173,-0.424173,-0.905581,34.6185,151.575)">
					<path class="st6" d="M30.3-71.2c0.6-0.2,1-1.2,1-1.2"/>
				</g>
				<g transform="matrix(0.999496,0.0317509,0.0317509,-0.999496,42.9934,148.701)">
					<path class="st6" d="M47.5-53.1c0.9-0.1,1.4,0.1,1.8,0.1"/>
				</g>
				<g transform="matrix(1,0,0,1,48.2422,149.202)">
					<path class="st4" d="M40.6,54C40.6,54,40.6,54,40.6,54c0.1,0,0.2,0.1,0.1,0.2c0,0-0.1,0.1-0.1,0l0,0c-0.5-0.1-0.9-0.1-1.4-0.2
						L38.4,54c-0.2,0-0.5,0-0.7,0c0.2,0,0.5,0,0.7,0l0.7,0C39.6,53.9,40.1,53.9,40.6,54"/>
				</g>
				<g transform="matrix(0.728114,0.685456,0.685456,-0.728114,42.7833,151.069)">
					<path class="st7" d="M71.4-6.4c0.1,0.4,0,0.8,0,0.8"/>
				</g>
				<g transform="matrix(1,0,0,1,42.356,151.207)">
					<path class="st4" d="M48.5,52.7C48.5,52.7,48.4,52.7,48.5,52.7c-0.1,0-0.2-0.1-0.2-0.1c0-0.1,0.1-0.1,0.1-0.1
						c0.1,0,0.2,0,0.3,0c0,0,0.1,0,0.1,0c0,0,0.1,0,0.1,0.1l0,0l0,0c0,0,0,0.1,0,0.1l0,0c-0.1,0.1-0.2,0.2-0.3,0.3c0,0,0,0,0,0.1
						c0,0.1-0.1,0.1-0.2,0c-0.1,0-0.1-0.1,0-0.2l0,0c0.1-0.2,0.3-0.2,0.4-0.3l0,0.1l0,0c0,0-0.1,0-0.2,0
						C48.6,52.7,48.5,52.7,48.5,52.7"/>
				</g>
				<g transform="matrix(1,0,0,1,43.9141,153.65)">
					<path class="st4" d="M46.4,50.9C46.4,50.9,46.4,50.9,46.4,50.9c0.1,0,0.2,0,0.2,0.1c0,0.1,0,0.1-0.1,0.2l0,0
						c-0.3,0.1-0.5,0.1-0.8,0.1C46,51.2,46.2,51.1,46.4,50.9"/>
				</g>
				<g transform="matrix(1,0,0,1,44.8584,150.446)">
					<path class="st4" d="M45.1,53.4c0.1,0,0.3-0.1,0.4-0.1c0.1,0,0.3,0,0.5,0l0,0c0,0,0,0,0,0c0.1,0,0.1,0.1,0,0.2
						c0,0.1-0.1,0.1-0.2,0c-0.1-0.1-0.2-0.1-0.4-0.1C45.4,53.4,45.2,53.3,45.1,53.4"/>
				</g>
				<g transform="matrix(1,0,0,1,45.1074,154.924)">
					<path class="st6" d="M41.3,50.4c0.3-0.1,1.2-0.1,1.9,0c0.7,0,1.6-0.2,1.6-0.2"/>
				</g>
				<g transform="matrix(0.949447,-0.313926,-0.313926,-0.949447,41.8432,154.04)">
					<path class="st6" d="M30.2-63.3c0.3-0.4,0.6-0.4,0.6-0.4"/>
				</g>
				<g transform="matrix(1,0,0,1,37.9453,151.17)">
					<path class="st4" d="M54.4,52.6C54.4,52.6,54.4,52.6,54.4,52.6c0.1,0,0.1,0.1,0.1,0.2c0,0.1-0.1,0.1-0.2,0.1
						c-0.1,0-0.2-0.1-0.3-0.1c-0.1,0-0.2-0.1-0.3-0.1c0.1,0,0.2,0,0.4,0C54.1,52.6,54.3,52.6,54.4,52.6"/>
				</g>
				<g transform="matrix(-0.242958,-0.970037,-0.970037,0.242958,47.4817,145.98)">
					<path class="st6" d="M-68-27.6c0,0,0.4,0.2,0.4,0.6c0,0.5-0.4,0.6-0.2,1.4c0.2,0.8,0.2,1.4,0.6,2c0.4,0.6,0.7,1,1.4,1.7"/>
				</g>
				<g transform="matrix(1,0,0,1,66.1045,152.948)">
					<path class="st4" d="M16.6,48.9c0.1,0.3,0.3,0.5,0.4,0.7c0.2,0.2,0.3,0.4,0.5,0.7c0.2,0.2,0.4,0.4,0.5,0.6
						c0.2,0.2,0.4,0.4,0.6,0.5c0,0,0,0,0,0c0.1,0,0.1,0.1,0,0.2c0,0.1-0.1,0.1-0.2,0c-0.2-0.2-0.4-0.4-0.6-0.6
						c-0.2-0.2-0.3-0.4-0.5-0.7c-0.2-0.2-0.3-0.5-0.5-0.7C16.8,49.4,16.7,49.2,16.6,48.9"/>
				</g>
				<g transform="matrix(1,0,0,1,136.226,185.026)">
					<path class="st4" d="M-77.5,29.5c0.3,0.2,0.6,0.5,0.7,0.9c0,0,0,0,0,0c0,0.1,0,0.1-0.1,0.2c-0.1,0-0.1,0-0.2-0.1
						C-77.1,30.1-77.3,29.8-77.5,29.5"/>
				</g>
				<g transform="matrix(1,0,0,1,154.28,152.625)">
					<path class="st6" d="M-105.2,51.9c-0.5-4,1.2-5.7,1.2-5.7c0.7-2.6,2.3-3.8,2.3-3.8"/>
				</g>
				<g transform="matrix(1,0,0,1,164.833,158.219)">
					<path class="st4" d="M-115.9,46.3C-115.9,46.3-115.9,46.3-115.9,46.3c0-0.1,0-0.1,0.1-0.2c0.1,0,0.1,0,0.1,0.1
						c0,0.7,0.1,1.4,0.3,2.1C-115.6,47.7-115.8,47-115.9,46.3"/>
				</g>
				<g transform="matrix(1,0,0,1,41.269,114.936)">
					<path class="st4" d="M49.9,78.9c-0.4-0.3-0.7-0.7-0.9-1.1c-0.1-0.2-0.3-0.4-0.5-0.5c-0.2-0.1-0.4-0.2-0.6-0.3
						c-0.2-0.1-0.4-0.1-0.7,0c-0.2,0-0.4,0.1-0.6,0.3c-0.2,0.1-0.4,0.3-0.6,0.4c-0.1,0.1-0.2,0.1-0.3,0.2c-0.1,0.1-0.2,0.1-0.4,0.1
						c0.1,0,0.2-0.1,0.3-0.1c0.1-0.1,0.2-0.2,0.3-0.2c0.2-0.2,0.4-0.3,0.6-0.5c0.2-0.1,0.4-0.3,0.7-0.3c0.3-0.1,0.5,0,0.8,0
						c0.2,0.1,0.5,0.2,0.7,0.3c0.2,0.2,0.4,0.4,0.5,0.6l0.4,0.6C49.6,78.6,49.8,78.8,49.9,78.9"/>
				</g>
				<g transform="matrix(1,0,0,1,42.4561,121.046)">
					<path class="st4" d="M48.3,72.7c-0.4,0.1-0.6,0.3-1,0.4c-0.3,0.1-0.7,0.2-1.1,0.2c-0.2,0-0.4-0.1-0.6-0.2
						c-0.2-0.1-0.3-0.2-0.5-0.4c-0.1-0.1-0.3-0.3-0.4-0.4c-0.1-0.1-0.2-0.3-0.4-0.4c0.2,0,0.3,0.2,0.4,0.3c0.1,0.1,0.3,0.2,0.4,0.4
						c0.3,0.2,0.6,0.4,0.9,0.4c0.3,0,0.7,0,1-0.1c0.2,0,0.3-0.1,0.5-0.2C48,72.8,48.1,72.7,48.3,72.7"/>
				</g>
				<g transform="matrix(1,0,0,1,43.0322,120.581)">
					<path class="st4" d="M47.6,73c-0.3,0.1-0.6,0.3-0.9,0.4c-0.3,0.1-0.6,0.2-1,0.2c-0.4,0-0.7-0.2-0.9-0.5
						c-0.1-0.1-0.2-0.3-0.3-0.4c-0.1-0.1-0.2-0.3-0.3-0.4c0.2,0,0.3,0.2,0.4,0.3c0.1,0.1,0.2,0.2,0.4,0.3c0.2,0.2,0.5,0.3,0.8,0.4
						c0.3,0,0.6,0,0.9-0.1C46.9,73.1,47.2,73.1,47.6,73"/>
				</g>
				<g transform="matrix(1,0,0,1,47.772,121.73)">
					<path class="st4" d="M41.2,70.3c-0.6-0.1-1.5,0.4-1.5,0.8c0,0.4,0.4,1,1.1,1.2c0.3,0.1,0.9,0,1.3-0.1c0.4-0.2,0.7-0.5,0.4-1
						C42.1,70.5,41.6,70.3,41.2,70.3"/>
				</g>
				<g transform="matrix(0,1,1,0,46.4877,117.241)">
					<path class="st8" d="M75.6,43.3c-0.2,0-0.4-0.2-0.4-0.4s0.2-0.4,0.4-0.4c0.2,0,0.4,0.2,0.4,0.4S75.8,43.3,75.6,43.3"/>
				</g>
				<g transform="matrix(1,0,0,1,28.3306,152.786)">
					<path class="st4" d="M67.3,52.4C67.3,52.4,67.3,52.4,67.3,52.4c0,0.1,0,0.2-0.1,0.2c-0.1,0-0.1,0-0.2-0.1
						c-0.1-0.3-0.3-0.5-0.6-0.6c-0.3-0.1-0.6-0.2-0.9-0.2c0.3,0,0.6,0,0.9,0.1C66.8,51.8,67.1,52,67.3,52.4"/>
				</g>
				<g transform="matrix(1,0,0,1,81.8135,162.13)">
					<path class="st6" d="M-0.4,45.7c-1.3,0-2.4-0.4-3.4-1.3c-0.3-0.2-0.5-0.5-0.6-0.8"/>
				</g>
				<g transform="matrix(1,0,0,1,84.2656,156.423)">
					<path class="st4" d="M-7.8,44.1c0,0.9,0,1.8,0.1,2.6c0.1,0.9,0.4,1.7,0.8,2.5l0,0c0,0,0,0,0,0c0,0.1,0,0.1-0.1,0.2
						c-0.1,0-0.1,0-0.2-0.1c-0.4-0.8-0.6-1.7-0.7-2.6C-7.9,45.9-7.9,45-7.8,44.1"/>
				</g>
				<g transform="matrix(1,0,0,1,112.815,180.596)">
					<path class="st6" d="M-36.1,33.5c-0.8-0.5-2.9-0.4-2.9-0.4c-0.4-0.1-1.5-0.1-1.5-0.1c-0.5-0.1-1.1,0.1-1.3,0.1
						s-0.3-0.1-0.5-0.2c-0.2-0.1-0.8-0.3-1.3-0.3c-0.5,0-1.1-0.1-1.4-0.1c-0.3,0-0.5,0-0.6,0c-0.2-0.1-0.5,0.1-0.5-0.3"/>
				</g>
				<g transform="matrix(1,0,0,1,124.416,187.221)">
					<path class="st6" d="M-59.7,29.2c-1-0.1-1.4-0.2-1.7-0.9c-0.1-0.3-0.2-1-0.2-1.5"/>
				</g>
				<g transform="matrix(1,0,0,1,123.026,184.572)">
					<path class="st6" d="M-63.7,30.9c0.2,0.3,0.1,1,0.7,1.3s0.6,0.4,1.6,0.9c1,0.5,1.7,0.7,1.7,0.7"/>
				</g>
				<g transform="matrix(1,0,0,1,149.886,190.966)">
					<path class="st6" d="M-117.5,28.2c-0.1-0.5-0.1-1,0.7-1.5c0.8-0.6,2.6-1.5,3.9-2.1c1-0.5,4.7-2,5.8-2.4
						c1.2-0.4,5.1-2.1,6.4-2.4c1.3-0.4,2.2,0,3.1,0.3c0.9,0.3,1.7,0.8,1.7,0.8"/>
				</g>
				<g transform="matrix(1,0,0,1,164.46,210.982)">
					<path class="st6" d="M-132.1,8.1c0.2,0.5,0.6,1.1,1.8,1.6c2,1,3.8,1.3,5.1,1.6c2.1,0.5,5.3,0.6,8.6,0.6c3.3,0,6.4-0.5,7.7-0.7
						c1.3-0.2,2.4-0.7,2.5-0.3c0.1,0.4-2.6,1.2-3.8,1.4c-1.2,0.2-7.3,1.1-12.8,0.7c-5.5-0.5-8.3-1.2-9.9-2.4
						c-1.7-1.2-1.8-2.8-1.1-4.2c0.6-1.4,2.9-2.9,3.9-3.5c1-0.6,4.3-2.3,6.4-3.3c2.1-1,4.3-2.7,6.5-4.1c2.2-1.4,1.9-1.2,1.9-1.9"/>
				</g>
				<g transform="matrix(1,0,0,1,212.815,191.602)">
					<path class="st4" d="M-180.3,27.5C-180.3,27.5-180.3,27.5-180.3,27.5c0,0.1,0,0.2-0.1,0.2c-0.1,0-0.1,0-0.2-0.1
						c0-0.3-0.1-0.5-0.1-0.7c0-0.2,0-0.5,0.1-0.7c0,0.2,0,0.5,0,0.7C-180.4,27-180.4,27.3-180.3,27.5"/>
				</g>
				<g transform="matrix(1,0,0,1,154.097,170.523)">
					<path class="st4" d="M-101.5,33.6c-0.1,0.5-0.2,1.1-0.2,1.6c0,0.5,0,1.1,0.1,1.6c0.1,0.5,0.2,1.1,0.3,1.6
						c0.1,0.5,0.3,1,0.5,1.6l0,0c0,0,0,0,0,0c0,0.1,0,0.1-0.1,0.2c-0.1,0-0.1,0-0.2-0.1c-0.2-0.5-0.3-1.1-0.4-1.6
						c-0.1-0.5-0.2-1.1-0.2-1.6c0-0.5-0.1-1.1,0-1.6C-101.7,34.6-101.6,34.1-101.5,33.6"/>
				</g>
				<g transform="matrix(1,0,0,1,162.93,169.663)">
					<path class="st4" d="M-113.3,37.4C-113.3,37.4-113.3,37.4-113.3,37.4C-113.3,37.4-113.3,37.4-113.3,37.4
						c0.2,0.3,0.3,0.6,0.4,0.9c0.1,0.2,0.1,0.3,0.2,0.5c0.1,0.1,0.2,0.3,0.3,0.4c0.4,0.5,0.8,1,1.1,1.6c0,0,0,0,0,0c0,0,0,0,0,0
						c-0.3-0.2-0.5-0.4-0.7-0.7c-0.2-0.3-0.4-0.5-0.5-0.9c-0.1-0.2-0.1-0.3-0.2-0.4c-0.1-0.1-0.2-0.3-0.3-0.4
						C-113.2,38-113.4,37.7-113.3,37.4"/>
				</g>
				<g transform="matrix(1,0,0,1,39.0352,144.113)">
					<path class="st4" d="M52.9,58.4c0-0.2-0.1-0.3-0.2-0.4c-0.1-0.1-0.3-0.1-0.5-0.2c0,0,0,0,0,0c-0.1,0-0.1-0.1-0.1-0.2
						c0-0.1,0.1-0.1,0.2-0.1l0,0c0.2,0.1,0.3,0.2,0.5,0.3C52.9,58,53,58.2,52.9,58.4"/>
				</g>
				<g transform="matrix(1,0,0,1,34.4868,144.867)">
					<path class="st4" d="M59,54.7C59,54.7,59,54.8,59,54.7C59,54.8,59,54.8,59,54.7c-0.8,0.1-1.7,0.1-2.5,0.2
						c-0.8,0.1-1.7,0.2-2.5,0.4c-0.8,0.2-1.6,0.4-2.4,0.7c-0.8,0.3-1.6,0.6-2.3,1c0.8-0.4,1.5-0.7,2.3-1c0.8-0.3,1.6-0.5,2.4-0.7
						c0.8-0.2,1.7-0.3,2.5-0.4C57.3,54.8,58.2,54.7,59,54.7L59,54.7z"/>
				</g>
				<g transform="matrix(1,0,0,1,34.502,151.435)">
					<path class="st4" d="M59,48.8C59,48.8,59,48.8,59,48.8C59,48.8,59,48.8,59,48.8c-0.7,0.2-1.3,0.4-1.9,0.6
						c-0.6,0.2-1.3,0.5-1.9,0.8c-0.6,0.3-1.2,0.7-1.7,1.1c-0.5,0.4-1,0.9-1.4,1.5c0.4-0.6,0.9-1,1.4-1.5c0.5-0.4,1.1-0.8,1.7-1.1
						c0.6-0.3,1.2-0.6,1.9-0.8C57.7,49.1,58.3,48.9,59,48.8L59,48.8z"/>
				</g>
				<g transform="matrix(1,0,0,1,32.1064,158.668)">
					<path class="st4" d="M62.2,41.7C62.2,41.7,62.2,41.7,62.2,41.7L62.2,41.7c-0.9,0.2-1.7,0.5-2.5,0.9c-0.8,0.4-1.5,0.9-2.2,1.4
						c-0.3,0.3-0.7,0.6-1,0.9c-0.3,0.3-0.6,0.6-0.9,1c-0.3,0.3-0.5,0.7-0.8,1c-0.3,0.4-0.5,0.7-0.7,1.1c0.2-0.4,0.5-0.7,0.7-1.1
						c0.3-0.3,0.5-0.7,0.8-1c0.3-0.3,0.6-0.7,0.9-1c0.3-0.3,0.6-0.6,1-0.9c0.7-0.6,1.4-1.1,2.2-1.5C60.5,42.1,61.3,41.8,62.2,41.7
						C62.2,41.7,62.2,41.7,62.2,41.7z"/>
				</g>
				<g transform="matrix(1,0,0,1,30.9131,143.745)">
					<path class="st4" d="M63.8,55.8C63.8,55.8,63.8,55.8,63.8,55.8L63.8,55.8c-0.9-0.3-1.7-0.4-2.6-0.4c-0.9,0-1.7,0.1-2.6,0.3
						c-0.2,0.1-0.4,0.1-0.6,0.2L57.8,56l-0.3,0.1c-0.2,0.1-0.4,0.2-0.6,0.2l-0.6,0.3L56,56.9L55.7,57l-0.5,0.3
						c-0.4,0.2-0.7,0.5-1,0.8c0.3-0.3,0.7-0.5,1-0.8l0.5-0.3l0.3-0.2l0.3-0.1l0.6-0.3c0.2-0.1,0.4-0.2,0.6-0.3l0.3-0.1l0.3-0.1
						c0.2-0.1,0.4-0.1,0.6-0.2c0.8-0.2,1.7-0.3,2.6-0.3C62.1,55.4,63,55.5,63.8,55.8C63.8,55.8,63.8,55.8,63.8,55.8z"/>
				</g>
				<g transform="matrix(0.501096,0.865392,0.865392,-0.501096,43.4919,99.6859)">
					<path class="st9" d="M100.5-4c-0.2,0.3-1.2,0-2.3-0.6c-1.1-0.6-1.8-1.4-1.7-1.6c0.2-0.3,1.2,0,2.3,0.6C100-5,100.7-4.3,100.5-4
						"/>
				</g>
				<g transform="matrix(0.501096,0.865392,0.865392,-0.501096,43.4919,99.6859)">
					
						<ellipse transform="matrix(0.4978 0.8673 -0.8673 0.4978 45.0775 -88.0699)" class="st3" cx="98.6" cy="-5.1" rx="0.6" ry="-2.3"/>
				</g>
				<g transform="matrix(-0.86673,0.498778,0.498778,0.86673,45.3285,94.5022)">
					<path class="st9" d="M5.3,100c-0.3,0.6-0.4,1.1-0.1,1.3c0.3,0.2,0.8-0.2,1.1-0.7c0.3-0.6,0.4-1.1,0.1-1.3
						C6.1,99.2,5.7,99.5,5.3,100"/>
				</g>
				<g transform="matrix(1,0,0,1,46.8066,104.595)">
					<path class="st9" d="M42.5,79.2c-0.2,0.3,0.2,0.8,0.7,1.1c0.6,0.3,1.1,0.4,1.3,0.1l-1.7,2.9c-0.2,0.3-0.7,0.2-1.3-0.1
						c-0.6-0.3-0.9-0.8-0.7-1.1L42.5,79.2"/>
				</g>
				<g transform="matrix(0.501077,0.865403,0.865403,-0.501077,40.8821,91.94)">
					
						<ellipse transform="matrix(0.4978 0.8673 -0.8673 0.4978 49.533 -92.6306)" class="st3" cx="104.8" cy="-3.5" rx="0.6" ry="-1.2"/>
				</g>
				<g transform="matrix(0.498962,0.866624,0.866624,-0.498962,46.2235,91.9421)">
					<path class="st3" d="M101.1-8.5l1.7-2.9c0.2-0.3,0.7-0.2,1.3,0.1c0.6,0.3,0.9,0.8,0.7,1.1l-1.7,2.9"/>
				</g>
				<g transform="matrix(-0.866648,0.498921,0.498921,0.866648,41.362,88.281)">
					<path class="st9" d="M3.2,106.4c-0.2,0.3-0.2,0.7,0,0.8c0.2,0.1,0.5-0.1,0.7-0.4c0.2-0.3,0.2-0.7,0-0.8
						C3.7,105.8,3.4,106,3.2,106.4"/>
				</g>
				<g transform="matrix(1,0,0,1,42.2632,94.4359)">
					<path class="st9" d="M48.6,87.6c-0.1,0.2,0.1,0.5,0.4,0.7c0.3,0.2,0.7,0.2,0.8,0l-1,1.8c-0.1,0.2-0.5,0.1-0.8,0
						c-0.3-0.2-0.5-0.5-0.4-0.7L48.6,87.6"/>
				</g>
				<g transform="matrix(-0.463541,0.886076,0.886076,0.463541,41.3769,86.5287)">
					<path class="st3" d="M61.4,88.5c0.1-0.2,0.2-0.4,0.3-0.4c0.2,0,0.4,0.3,0.4,0.7c0,0.4-0.1,0.7-0.3,0.7c-0.1,0-0.2-0.1-0.3-0.3"
						/>
				</g>
				<g transform="matrix(0.499026,0.866587,0.866587,-0.499026,41.9076,86.7201)">
					<path class="st3" d="M107-5.1l1-1.8c0.1-0.2,0.5-0.1,0.8,0c0.3,0.2,0.5,0.5,0.4,0.7l-1,1.8"/>
				</g>
				<g transform="matrix(0,-57.87,-57.87,0,30.9559,87.87)">
					
						<linearGradient id="SVGID_1_" gradientUnits="userSpaceOnUse" x1="-2.8634" y1="0.5198" x2="-2.5468" y2="0.5198" gradientTransform="matrix(1.08 0 0 1.08 -5.5709 1139.9911)">
						<stop  offset="0" style="stop-color:#C8C7C7"/>
						<stop  offset="0.9" style="stop-color:#FFFFFF"/>
						<stop  offset="1" style="stop-color:#FFFFFF"/>
					</linearGradient>
					<path class="st10" d="M-1.3-1.1c-0.1,0-0.1,0-0.2,0c-0.1,0-0.1,0-0.2,0.1c0,0,0,0,0,0c0,0,0,0,0,0c0,0,0,0,0,0c0,0,0,0,0,0
						c0,0,0,0,0,0c0,0,0,0,0,0c0,0,0.1-0.1,0.2-0.1C-1.4-1.1-1.3-1.2-1.3-1.1L-1.3-1.1z"/>
				</g>
				<g transform="matrix(1,0,0,1,28.7773,87.8659)">
					<path class="st3" d="M67.4,84.8c-1.1,3.5-2.7,6.9-4.2,9.6c0,0.1-0.1,0.1-0.1,0.1c-0.1,0-0.1,0-0.2,0c0,0-0.1,0-0.1,0
						c0,0-0.1,0-0.1,0c-0.1-0.1-0.2-0.1-0.2-0.2c0-0.1,0-0.2,0-0.3c1.4-2.6,3-5.9,4.1-9.4"/>
				</g>
				<g transform="matrix(1,0,0,1,26.2021,29.9996)">
					<path class="st4" d="M69.9,142.6c0.6-1.6,1-3.2,1.4-4.9c0.4-1.7,0.6-3.4,0.6-5.1c0,1.7-0.2,3.4-0.5,5.1c-0.3,1.7-0.8,3.3-1.3,5
						L69.9,142.6z"/>
				</g>
				<g transform="matrix(1,0,0,1,23.1548,58.955)">
					<path class="st4" d="M74.2,103.7c0,1.7-0.2,3.4-0.5,5c-0.3,1.7-0.8,3.3-1.3,4.9l-0.2-0.1c0.5-1.6,1-3.2,1.4-4.8
						C73.9,107,74.2,105.3,74.2,103.7"/>
				</g>
			</g>
		</g>
	</g>
</g>
<g>
	<g id="FED3_Outline_00000086689601531834392490000008414251197236893321_">
		<path class="st11" d="M549.6,798.8c-1.2-1.9-2.8-3.6-4.5-5c-1.1-0.7-3.6-3.6-4.6-4.2c-1.8-0.8-3.7-1.4-5.6-1.8
			c-1.8-0.3-4-0.9-5.2-1.1s-5.2-1.4-5.4-0.8c-0.3,1.1-0.1,2.2,0.5,3.1c0.9,0.9,1.6,1.8,2.3,2.8c0.3,0.4-7.9-1.4-9.1-1.7
			s-6.5-1-7.3-1.4c-0.9-0.8-1.5-1.8-1.8-3c-0.3-1,0.4-2-0.4-2.3s-4-0.9-5.2-1c-1.2-0.2-5-1.4-5.1-0.8c-0.1,0.6,2.1,3.8,2.9,4.6
			c0.7,1.3,1.4,2.6,2.3,3.8"/>
		<path class="st11" d="M554.6,761.9v37.5l-53.7-9.2c0,0-7.7-8-8.2-9.6c-0.4-1-0.7-2-0.9-3c0-1.3,0.4-2.6,1.3-3.6
			c0.8-1.3,11.5-18.5,11.9-18.5h3.3L554.6,761.9z"/>
		<path class="st12" d="M543.5,636.7l-0.8-8.8l5.8-2.4c0,0,54.3-3.9,56.4-3.9c2.1,0,72.5-1.8,74.2-1.8s30.4,0.7,31.7,1.1
			c1.4,0.4,5.3,1,5.4,2.1c0,1.1-0.6,8.9-0.6,8.9"/>
		<path class="st12" d="M545.9,651.8c6.8,0.4,58.5-0.3,62.5,0c3.9,0.3,68.2-1.4,72.2-1.4s31,0.3,31,0.3"/>
		<polygon class="st11" points="590.8,834.3 475.7,807.9 475.7,792.6 590.8,816 		"/>
		<path class="st12" d="M668.8,870.8c6-4.5,54.4-47.7,58.9-53.5c3.8-4.8,4.6-46.6,4.7-53.2s3.8-54,3.8-58.4
			c0.1-4.4,0.1-7.1-4.5-11.9s-5.2-5.3-8.3-5.9s-11.3-0.9-12.1-1.2s-2.1,1.4-8.3,2.3c-6.2,1-0.5-0.4-13.4,0.9
			c-12.9,1.3-7.1,1-19.4,1.7s-16.9,1.1-34.3,1.1s-24.4,1.3-36.6,0.9s-10.8-0.5-18.8-0.6s-12.3-0.8-20.5-1.1s-8.5-1-14.2-1.3
			c-3.2-0.2-5.8,0.5-7.9-0.7c-1-0.5,1.3-2.4-1-2.7c-2.2-0.2-8.8-0.2-12.9-0.6s-37.8-2.4-43.9-2.3c-6.1,0.1-44.8,2.8-44.9,3.5"/>
		<path class="st12" d="M694.1,808.1c2.8,1.3,22.9-14,23-17.3c0.1-3.3,7.3-62.4,5.6-61.5c-1.7,0.9-21.6,7.3-21.6,8.6
			C701.2,739.3,692.7,807.5,694.1,808.1z"/>
		<path class="st12" d="M541.4,679.6c1.9-6.7,2.6-9.6,4.8-12.2c2.2-2.6,2.4-4.4,5.9-6.2c4.7-2.3,9.6-3.9,14.7-4.9
			c5.3-0.9,21.5-1.8,28.1-1.3s20.1,1.7,24.9,2.4s26.7,5.5,33.1,6.8c6.4,1.3,23.2,7.3,27.2,8.6c3.9,1.4,10.9,5.7,13.9,7.3
			c3,1.7,7.2,7.1,9.1,8.8"/>
		<path class="st12" d="M427.9,691.2c5.5-3.2,13.4-3.7,23.3-2.9c9.9,0.8,199.7,9.6,203.8,10.2c3.8,0.4,7.6,1.2,11.2,2.6
			c4,1.6,7.8,2.5,9.6,6.4c1.8,3.9,2.9,10.9,3.2,16.9c0.3,6.1-1,39.2-1.1,43.6c-0.1,4.4-1.7,27.7-1.8,31c-0.1,3.3-1.5,45.8-1.9,49.2
			s-0.3,13.4-1.6,16.3c-1.4,2.9-2.7,6.6-6.3,8c-3.5,1.4-7.9,2.6-10.9,2.2c-3-0.3-106.7-27.4-111-28.6s-37.2-9.8-41.1-10.9
			s-20.3-5-25.2-6.3c-4.9-1.3-32.9-8.9-36.4-9.7c-3.5-0.9-8.9-2.5-10.5-4.9c-1.6-2.4-4.3-7.2-4.5-10.7s-1.8-53.7-1.8-59.4
			c0.1-5.8-1.7-38.7-1.4-41.8C423.8,699.2,424,693.4,427.9,691.2z"/>
		<ellipse class="st12" cx="586.5" cy="779.2" rx="14.8" ry="17.9"/>
		<ellipse class="st12" cx="454.2" cy="758.5" rx="11.1" ry="14.4"/>
		<path class="st12" d="M614,781.1c-0.8,18.2-13.9,28.4-28.1,28.4c-14.2,0-25.7-13.3-25.7-29.8s11.5-29.8,25.7-29.8
			S614.7,764.7,614,781.1z"/>
		<path class="st12" d="M472.9,757.9c2.3,13.7-8.4,25.1-18.8,25.1s-18.8-11.3-18.8-25.1c0-13.9,8.8-28.1,18.8-25.1
			c5,1.3,9.3,4.4,12.2,8.6C469.8,745.9,471.7,750.9,472.9,757.9z"/>
		<path class="st12" d="M537,687.3c4-7.2,5.1-9.9,10.5-14.2c5.4-4.3,12.4-8.1,17.7-9.6c5.3-1.5,15.9-2.1,19.2-2.3
			c3.3-0.2,15.9,0.6,20,1.7c4.2,1.1,18,3.6,22.8,5.5c4.8,1.9,18.1,7.8,21.1,9.2c3,1.4,20.2,11.4,21.9,14.1"/>
		<path class="st12" d="M711.3,686.2c-0.6-7.9-1.5-34.6,0-36.7c1.5-2.1,3.8-4.8,4.2-8c0.5-3.2,1-10,0-10h-20.1
			c-5.7,0-9.9-0.7-16.4-0.6c-6.5,0.1-30.9,0.4-37.3,0.6c-6.4,0.2-91.4,3.3-92.6,3.5s-5.5-0.4-5.6,1.1c-0.2,3.2-0.2,6.5,0,9.7
			c0.3,1.4,2.4,3.4,2.4,4.8c0,1.4,0.3,16.1,0.3,16.1"/>
		<path class="st13" d="M513,756.8c0.5-2.5,1.6-4.9,3.2-6.9c1.9-2.3,1.3-2.2,3.2-3.2c1.4-0.7,2.8-1.3,4.3-1.7c1.8-0.3,3.7-0.3,5.5,0
			c1.9,0.1,3.8,0.6,5.4,1.5c1.4,1,2.8,2.1,4,3.4c1,1,1.9,2.1,2.7,3.3c0.6,0.7,3.6,6.6,2.7,6.9c-2.4,0.6-4.9,0.9-7.4,1.1
			c-1.9,0-3.8-0.1-5.6,0c-1.8,0.1-6.8,0.6-7,0s-1.3-1.9-1.5-2.4c-0.6-0.8-1.5-1.3-2.5-1.5c-1,0-1.9,0.5-2.5,1.3
			c-0.5,0.6-0.4,2.5-1.1,2.2c-0.9-0.5-1.7-1-2.5-1.7C513.6,758.3,513.2,757.6,513,756.8z"/>
		<polyline class="st14" points="498.4,759.2 507.3,755.9 513.1,756.3 507,760.5 		"/>
		<polygon class="st11" points="529.5,764.4 529.5,776.8 538.3,778.5 538.3,765.5 		"/>
		<polyline class="st11" points="529.6,763.3 542.1,760.5 549.7,761.2 538.9,765.2 		"/>
		<path class="st11" d="M553.5,762.3c0,0-9.5,19.7-10.4,20.2c-0.8,0.4-1.5,0.8-2.1,1.4c-0.5,0.4-0.6,0.8-0.5,2.2
			c0,1.4,1.2,2.4,2.5,3.4c1.4,1,10.5,9.7,10.5,9.7"/>
		<path class="st11" d="M550.1,761.5c0,0-3.9,9.2-4.6,10.4c-0.7,1.2-3.6,6.2-4,7.2c-0.5,1.1-0.3,2-1.4,2c-1.1,0-6.3-0.9-7.7-1.1
			c-1.4-0.2-6.5-0.7-6.3-1.1c0.2-0.4,0.8-0.4,0-1.3c-0.8-1-2.9-1.3-4.4-1.5c-1.5-0.2-4.4-0.6-5.5-0.9c-1.1-0.2-2.6-0.2-3.9-0.4
			s-1.3-0.3-1.8,0s-0.2,1.3-1.1,1.3c-0.9,0.1-5.3-0.7-6.6-0.9c-1.3-0.2-5.9-0.4-5.5-1c0.4-0.6,1.3-1.8,1.3-1.8"/>
		<polygon class="st14" points="498.3,772.5 507,773.8 507,760.4 498.3,759.1 		"/>
		<path class="st14" d="M507,773.7l8.8-2.7c0,0,0.6-6.1,0-6.9c-0.6-0.8-8.8-3.5-8.8-3.5"/>
		<path class="st11" d="M561.7,769.2c0.8-2.9,2.9-11.2,4.6-13.4c1.8-2.3,3.9-4.3,6.3-5.9c1.9-1.4,4-2.5,6.2-3.2
			c3.7-1,7.5-1.5,11.3-1.3c3.7,0.4,7.2,1.5,10.4,3.3c2.7,1.8,5.3,3.8,7.6,6.2c2.9,2.5,5.6,8,6.7,10.2c1.3,2.8,2.5,5.6,3.5,8.5
			c0.7,4.1,0.7,8.3,0,12.4c-1,5-1.4,7.9-3.3,11.1c-1.6,2.8-2.7,5.3-5.2,7.2c-2.5,2-9.3,4.2-11.1,4.6c-3.3,0.3-6.6,0.5-9.9,0.5"/>
		<path class="st11" d="M581.6,746.1c0,0,8.5-3.5,11.6-3.9c2.8-0.4,8-0.9,11.7,0.4c3.1,0.9,6.1,2.2,8.8,4c3,1.9,5.8,4.2,8.2,6.9
			c2.8,3.2,5.1,6.9,6.7,10.9c1.6,4.6,2.5,9.5,2.5,14.4c0,3.8-0.2,7.7-3,12.3c-2.3,3.3-5,6.3-8.1,8.9c-2,1.8-10.6,5.2-12.5,6"/>
		<path class="st11" d="M670.2,702.7c9.3-2.5,53.4-15.2,55.2-14.2"/>
		<path class="st11" d="M679.1,719.4c4.1-1.4,56.7-20.3,57-18.7"/>
		
			<ellipse transform="matrix(0.4344 -0.9007 0.9007 0.4344 -412.2292 989.7953)" class="st12" cx="582.1" cy="823.2" rx="4.5" ry="3.5"/>
		<path class="st12" d="M441.8,738c1.7-2.3,6.9-6.4,8.5-6.8c1.6-0.4,8.8-1.9,9.7-2c0.9-0.1,7.3-1.2,8.9-1c2.6,0.4,5.2,1.1,7.7,2.2
			c2.4,1.3,4.6,3,6.4,5c2.4,2.8,4.3,6.1,5.6,9.6c0.9,2.5,2.5,7.2,2.5,11c-0.2,3.8-0.9,7.5-1.9,11.2c-0.6,1.4-2.9,7.4-5.4,9.4
			c-1.7,1.4-6.6,2.7-8.1,3.3c-1.5,0.5-17.5,3.3-19.8,3.2"/>
		<path class="st11" d="M451.3,730.9c3.7-0.4,7.5,0.1,11.1,1.3c3.1,1.3,5.8,3.4,7.6,6.3c2.3,2.8,4.2,5.9,5.5,9.2
			c1.2,2.8,2,5.7,2.4,8.8c0.5,3.3,0.3,6.7-0.5,9.9c-1,3.6-2.6,7-4.9,10c-1.4,1.9-2.9,4.6-4.3,4.9"/>
		
			<ellipse transform="matrix(0.4344 -0.9007 0.9007 0.4344 -417.8652 974.5107)" class="st12" cx="567.1" cy="820" rx="4.5" ry="3.5"/>
		
			<ellipse transform="matrix(0.4344 -0.9007 0.9007 0.4344 -423.3129 959.7991)" class="st12" cx="552.6" cy="817" rx="4.5" ry="3.5"/>
		
			<ellipse transform="matrix(0.4344 -0.9007 0.9007 0.4344 -428.5295 946.1087)" class="st12" cx="539.1" cy="814.3" rx="4.5" ry="3.5"/>
		
			<ellipse transform="matrix(0.4344 -0.9007 0.9007 0.4344 -432.6581 932.4177)" class="st12" cx="526.2" cy="810.7" rx="4.5" ry="3.5"/>
		
			<ellipse transform="matrix(0.4344 -0.9007 0.9007 0.4344 -437.7763 919.6097)" class="st12" cx="513.4" cy="808.4" rx="4.5" ry="3.5"/>
		
			<ellipse transform="matrix(0.4344 -0.9007 0.9007 0.4344 -442.7262 906.9734)" class="st12" cx="500.9" cy="806" rx="4.5" ry="3.5"/>
		
			<ellipse transform="matrix(0.4344 -0.9007 0.9007 0.4344 -447.0178 894.7156)" class="st12" cx="488.9" cy="803.3" rx="4.5" ry="3.5"/>
	</g>
</g>
<rect x="326" y="51.8" class="st15" width="901" height="530"/>
<g>
	<g transform="matrix(1,0,0,1,-4050,-2250)">
		<g id="Page-17_00000019675378486219183370000011973831784115704995_" transform="matrix(4.16667,0,0,4.16667,4050,2250)">
			<g id="Optic-fiber-from-skull--lean_00000094577729230702956460000005032959880639514285_">
				<g transform="matrix(1,0,0,1,29.6602,167.46)" class="st1">
					<path class="st16" d="M132.2-78.5c0.5,0.5,0.8,1.2,0.6,2.2c-0.3,1.6-0.7,2.5-1.1,2.8c-0.3,0.3-0.8,0.8-1.8,0.7
						c0,0-1,0.3-1.8-0.2c-0.2-0.1-0.4-0.3-0.5-0.4c0.3,0,0.6,0,0.6,0c0.2,0.1,0.5,0,0.5,0c-0.1,0-0.2-0.1-0.2-0.1
						c0-0.1-0.2-0.2-0.3-0.4c-0.1-0.2-0.3-0.5-0.4-0.5c0.1,0.1,0.3,0.2,0.6,0.3c0.8,0.5,1.6,0.1,1.6,0.1c0.2-0.1,0.4-0.3,0.4-0.3
						c-0.1,0-0.4-0.1-0.4-0.1c-0.2-0.2-0.7-0.4-1.1-0.6c-0.1,0-0.2-0.1-0.3-0.1c0.1,0,0.6,0.2,1,0.2c0.4,0,0.9-0.1,0.9-0.1
						s0.3,0,0.4-0.1c0,0-0.2-0.1-0.3-0.3c0,0-0.4-0.6-1.1-0.7c-0.5-0.1-1-0.3-1.2-0.4c0,0,0.2-0.2,0.8-0.2c0.6,0,1-0.3,1.1-0.3
						c0,0,0.2-0.1,0.3-0.2c0,0-0.2,0-0.4-0.1c0,0-0.5-0.4-1.3-0.4c-0.4,0-0.7,0-0.9,0c0-0.1,0-0.2,0.1-0.4c0.1-0.3,0.4-0.7,0.8-0.9
						c0.4-0.2,1.1-0.4,1.8-0.1c0.2,0.1,0.4,0.1,0.6,0.2C131.7-79,132-78.8,132.2-78.5"/>
				</g>
				<g transform="matrix(0.336699,0.941612,0.941612,-0.336699,72.95,84.8412)">
					<path class="st17" d="M15.8,71.6c-0.9-0.9-1.2-2-3.5-3.5c-2.2-1.5-5-1.2-6,0.1c-0.7,1-1.4,2.8,0.7,5.7c1.5,2.1,4.4,2.8,6.4,3.1
						"/>
				</g>
				<g transform="matrix(1,0,0,1,62.0625,102.641)">
					<path class="st16" d="M88.7-29c-0.2-0.3-0.3-0.7-0.5-1c-0.1-0.3-0.3-0.6-0.5-1L88-31c0.1,0.3,0.3,0.7,0.4,1
						C88.5-29.7,88.6-29.3,88.7-29"/>
				</g>
				<g transform="matrix(1,0,0,1,63.5728,88.0004)">
					<path class="st16" d="M86.7-13.9c-0.2-0.5-0.4-1-0.6-1.5c-0.2-0.5-0.5-0.9-0.8-1.4c-0.6-0.9-1.2-1.7-1.9-2.5
						c-0.7-0.8-1.6-1.4-2.6-1.7c-0.5-0.2-1-0.3-1.5-0.3c-0.5-0.1-1.1-0.1-1.6-0.1c1.1-0.1,2.1-0.1,3.2,0.2c1,0.3,2,0.9,2.7,1.7
						c0.7,0.8,1.3,1.7,1.9,2.6c0.3,0.5,0.5,0.9,0.7,1.4C86.4-14.9,86.5-14.4,86.7-13.9"/>
				</g>
				<g transform="matrix(-0.895262,0.445541,0.445541,0.895262,74.086,117.21)">
					<path class="st18" d="M-83.5-4.2c0.7-0.2,0.8-0.7,0.8-1.1"/>
				</g>
				<g transform="matrix(1,0,0,1,73.377,114.321)">
					<path class="st16" d="M73.5-38.2c0.5,0,1-0.3,1.5-0.5c-0.4,0.3-0.9,0.6-1.5,0.8L73.5-38.2z"/>
				</g>
				<g transform="matrix(1,0,0,1,78.5225,114.593)">
					<path class="st16" d="M66.7-40.2c0.1,0.1,0.1,0.2,0.2,0.3c0.1,0.1,0.1,0.2,0.1,0.3c0.1,0.2,0.2,0.4,0.3,0.6L67-38.9
						c-0.1-0.2-0.1-0.4-0.2-0.6c0-0.1,0-0.2-0.1-0.3C66.8-40,66.7-40.1,66.7-40.2"/>
				</g>
				<g transform="matrix(1,0,0,1,70.4995,98.4629)">
					<path class="st16" d="M77.4-23.6c0.1-0.3,0.3-0.5,0.4-0.7c0.1-0.2,0.1-0.5,0-0.7c-0.1-0.5-0.5-0.8-0.9-1.2
						c-0.4-0.3-0.8-0.6-1.3-0.9c-0.2-0.2-0.4-0.3-0.6-0.5c-0.2-0.2-0.3-0.4-0.4-0.7c0.3,0.4,0.7,0.7,1.1,1c0.4,0.3,0.9,0.6,1.3,0.9
						c0.2,0.2,0.4,0.3,0.6,0.6c0.2,0.2,0.3,0.5,0.4,0.7c0.1,0.3,0.1,0.6-0.1,0.8C77.8-24,77.5-23.9,77.4-23.6"/>
				</g>
				<g transform="matrix(1,0,0,1,76.8735,114.77)">
					<path class="st16" d="M68.9-42.5c0.4,0.2,0.7,0.5,0.8,0.9c0.1,0.4,0.1,0.8,0.1,1.2c0,0.2,0,0.4,0,0.6c0,0.2,0,0.4,0.1,0.5
						c0.1,0.1,0.3,0.2,0.5,0.1c0.2-0.1,0.3-0.2,0.5-0.3c-0.1,0.2-0.2,0.3-0.4,0.4c-0.1,0-0.2,0.1-0.3,0.1c-0.1,0-0.2-0.1-0.3-0.2
						c-0.2-0.2-0.2-0.4-0.2-0.6c0-0.2,0-0.4,0-0.6c0-0.4,0.1-0.8,0-1.2C69.4-42,69.2-42.3,68.9-42.5"/>
				</g>
				<g transform="matrix(0.694254,-0.71973,-0.71973,-0.694254,41.3923,115.737)">
					<path class="st17" d="M111.8-51.3c0.7-3.3-0.2-6-0.2-6"/>
				</g>
				<g transform="matrix(1,0,0,1,46.9585,99.7721)">
					<path class="st16" d="M108.9-28.7l-0.9-0.6l1,0.4L108.9-28.7z"/>
				</g>
				<g transform="matrix(0.97249,-0.232944,-0.232944,-0.97249,48.3049,103.166)">
					<path class="st17" d="M105.2,9.8c5.9-0.7,6.9-3.5,6.9-3.5"/>
				</g>
				<g transform="matrix(1,0,0,1,48.7285,78.5518)">
					<path class="st17" d="M101-9.5c-0.2-1.8,0.1-5.6,3.2-5.2c3.1,0.4,2.2,5.1,2.4,5.6c0.1,0.2,0,0.6,0.1,1"/>
				</g>
				<g transform="matrix(1,0,0,1,96.4731,124.972)">
					<path class="st19" d="M22.8-45.7c2.2-3.3,5.4-5.5,9.4-6.4c4.2-0.9,5.6-1.8,10.4-2.5"/>
				</g>
				<g transform="matrix(1,0,0,1,154.589,127.732)">
					<path class="st16" d="M-35.4-48.6C-35.4-48.6-35.4-48.6-35.4-48.6c0.1-0.1,0.1-0.1,0.2,0c0.1,0,0.1,0.1,0,0.2l0,0l-0.7,1
						L-35.4-48.6"/>
				</g>
				<g transform="matrix(-0.814954,-0.579526,-0.579526,0.814954,11.1227,134.835)">
					<path class="st17" d="M-95.4-128.9c-0.6-0.2-0.5-1.7-0.5-1.7c-0.1-1.2,1-1.5,1-1.5c0.9-0.7,4-1.1,5.4-1.8c1.4-0.7,2.8-1,2.8-1"
						/>
				</g>
				<g transform="matrix(1,0,0,1,24.5396,136.029)">
					<path class="st16" d="M139-50.8c-0.2,0-0.3-0.2-0.3-0.3c0-0.1,0-0.3,0-0.4c0-0.2,0.1-0.5,0.2-0.7c0.1-0.2,0.2-0.4,0.4-0.6
						c0.2-0.2,0.3-0.3,0.5-0.5c-0.2,0.1-0.4,0.3-0.5,0.5c-0.1,0.2-0.2,0.4-0.3,0.6c-0.1,0.2-0.1,0.4-0.2,0.7c0,0.1,0,0.2,0,0.3
						c0,0.1,0.1,0.1,0.2,0.1L139-50.8z"/>
				</g>
				<g transform="matrix(1,0,0,1,24.6309,144.992)">
					<path class="st19" d="M133.4-59.1c0.6,0,1.1,0.1,3,0.1c1.9,0,2.6-1,2.6-1"/>
				</g>
				<g transform="matrix(1,0,0,1,40.9629,144.558)">
					<path class="st16" d="M117.1-58.8C117.1-58.8,117.1-58.8,117.1-58.8c0.1,0,0.1,0.1,0.1,0.1c0,0.1-0.1,0.1-0.1,0.1
						c-0.5-0.1-0.9-0.2-1.3-0.4C116.2-58.8,116.6-58.7,117.1-58.8L117.1-58.8z"/>
				</g>
				<g transform="matrix(-0.74284,0.669469,0.669469,0.74284,52.3326,144.667)">
					<path class="st19" d="M-113.5,24.9c-0.5,0.3-0.8,0.6-1.1,0.8c-0.7,0.6-1.3,1.3-1.7,2c-0.4,0.7-0.9,1.2-1.5,1.1
						c-0.6-0.2-0.6-1-0.4-1.2"/>
				</g>
				<g transform="matrix(1,0,0,1,54.7739,148.665)">
					<path class="st16" d="M98.5-61.6C98.6-61.6,98.6-61.6,98.5-61.6c0.1,0,0.1,0,0.2,0.1c0,0.1,0,0.1-0.1,0.2c-0.3,0.1-0.6,0-0.9,0
						c-0.3,0-0.5,0-0.8-0.1l-0.8-0.1c-0.1,0-0.3,0-0.4,0c-0.1,0-0.3,0-0.4,0c0.1-0.1,0.3-0.1,0.4-0.1c0.1,0,0.3,0,0.4,0l0.8,0
						c0.3,0,0.5,0,0.8,0C98-61.6,98.3-61.5,98.5-61.6L98.5-61.6z"/>
				</g>
				<g transform="matrix(1,0,0,1,36.103,166.008)">
					<path class="st19" d="M121.4-73.2c0.1,0.1,0.3,0.2,0.6,0.3c0.8,0.5,1.6,0.1,1.6,0.1"/>
				</g>
				<g transform="matrix(1,0,0,1,40.1079,164.715)">
					<path class="st19" d="M119.6-71.9c-0.2-0.2-0.7-0.4-1.1-0.6c-0.1,0-0.2-0.1-0.3-0.1"/>
				</g>
				<g transform="matrix(1,0,0,1,42.2109,164.802)">
					<path class="st16" d="M115.4-72.1C115.4-72.1,115.4-72,115.4-72.1c0.1,0.1,0.1,0.2,0.1,0.2c0,0.1-0.1,0.1-0.2,0
						c-0.1-0.1-0.2-0.1-0.3-0.2c-0.1-0.1-0.2-0.1-0.3-0.2c0.1,0,0.2,0.1,0.3,0.1C115.2-72.1,115.3-72.1,115.4-72.1"/>
				</g>
				<g transform="matrix(1,0,0,1,41.5601,163.044)">
					<path class="st16" d="M116.3-71.3c0.2,0.1,0.4,0.2,0.6,0.2c0,0,0,0,0.1,0c0.1,0,0.1,0.1,0,0.2c0,0.1-0.1,0.1-0.2,0
						C116.5-71,116.4-71.1,116.3-71.3"/>
				</g>
				<g transform="matrix(1,0,0,1,34.187,158.57)">
					<path class="st19" d="M123.9-67.8c0.2,0.1,0.6,0.3,1.2,0.4c0.7,0.1,1.1,0.7,1.1,0.7"/>
				</g>
				<g transform="matrix(1,0,0,1,40.1079,163.3)">
					<path class="st19" d="M120.1-71c0,0-0.5,0.1-0.9,0.1c-0.4,0-1-0.2-1-0.2"/>
				</g>
				<g transform="matrix(1,0,0,1,40.6802,158.9)">
					<path class="st16" d="M117.4-68.3C117.5-68.3,117.5-68.3,117.4-68.3c0.1,0.1,0.1,0.2,0.1,0.2s-0.1,0.1-0.2,0l0,0l-0.3-0.3
						L117.4-68.3"/>
				</g>
				<g transform="matrix(1,0,0,1,35.6904,154.712)">
					<path class="st19" d="M121.9-65.3c0.2,0,0.5,0.1,1,0c0.8-0.1,1.3,0.4,1.3,0.4"/>
				</g>
				<g transform="matrix(1,0,0,1,40.855,156.956)">
					<path class="st19" d="M119.1-66.8c-0.1,0.1-0.5,0.3-1.1,0.4c-0.6,0-0.8,0.2-0.8,0.2"/>
				</g>
				<g transform="matrix(1,0,0,1,42.3501,155.188)">
					<path class="st16" d="M115.2-65.9C115.2-65.9,115.2-65.9,115.2-65.9c0.1,0,0.2,0.1,0.1,0.2c0,0.1-0.1,0.1-0.2,0.1
						c-0.1,0-0.2,0-0.3-0.1c-0.1,0-0.2,0-0.3,0c0.1-0.1,0.2-0.1,0.3-0.1C115-65.9,115.1-65.9,115.2-65.9L115.2-65.9z"/>
				</g>
				<g transform="matrix(1,0,0,1,41.269,161.721)">
					<path class="st19" d="M106.8-69.8c0.9,0,1.8-0.1,2.5-0.2c1.7-0.1,2.9,0.1,3.4,0.2c0.6,0,0.9,0.3,1.2,0.7c0.3,0.3,0.7,0.5,1.3,1
						c0.6,0.5,1.4,0.4,1.4,0.4"/>
				</g>
				<g transform="matrix(1,0,0,1,42.3799,167.628)">
					<path class="st19" d="M115.8-73.8c0-0.1-0.2-0.2-0.3-0.4s-0.4-0.5-0.4-0.5"/>
				</g>
				<g transform="matrix(1,0,0,1,36.0933,165.572)">
					<path class="st16" d="M123.6-72.6C123.6-72.6,123.6-72.6,123.6-72.6c-0.1-0.1-0.1-0.2,0-0.2c0,0,0.1,0,0.2,0
						c0.1,0.1,0.2,0.1,0.3,0.2l0,0l0,0c0,0,0,0.1,0,0.1c-0.1,0.2-0.2,0.3-0.4,0.4l0,0c0,0,0,0,0,0c-0.1,0-0.2-0.1-0.1-0.2
						c0-0.1,0.1-0.1,0.1-0.1c0.1,0,0.3-0.1,0.4-0.2l0,0.1h0c-0.1,0-0.1,0-0.2,0C123.7-72.6,123.7-72.6,123.6-72.6"/>
				</g>
				<g transform="matrix(1,0,0,1,34.5273,161.44)">
					<path class="st16" d="M125.7-69.1C125.7-69.1,125.6-69.1,125.7-69.1c-0.1,0-0.2-0.1-0.1-0.2c0-0.1,0.1-0.1,0.1-0.1
						c0.1,0,0.3,0,0.4,0l0,0l0,0.1c-0.1-0.1-0.2-0.1-0.3-0.2l0,0c0,0,0,0,0,0c0-0.1,0-0.2,0.1-0.2c0.1,0,0.1,0,0.1,0.1
						c0.1,0.1,0.1,0.2,0.2,0.3l0,0c0,0,0,0.1,0,0.1l0,0c-0.1,0.1-0.1,0.1-0.2,0.1C125.8-69.1,125.7-69.1,125.7-69.1"/>
				</g>
				<g transform="matrix(1,0,0,1,35.1436,155.614)">
					<path class="st16" d="M124.9-65.3C124.9-65.3,124.8-65.3,124.9-65.3c-0.1,0-0.2,0-0.2-0.1c0-0.1,0-0.1,0.1-0.2
						c0.1,0,0.2-0.1,0.3-0.1l0,0l0.1,0.1c-0.2,0-0.3,0-0.5-0.1l0,0c0,0,0,0,0,0c0-0.1,0-0.1,0-0.2c0.1,0,0.1,0,0.2,0
						c0.1,0.1,0.2,0.1,0.3,0.2l0,0l0,0c0,0,0,0,0,0.1l0,0c0,0.1-0.1,0.1-0.1,0.2C125-65.4,124.9-65.4,124.9-65.3L124.9-65.3z"/>
				</g>
				<g transform="matrix(1,0,0,1,40.7319,167.665)">
					<path class="st16" d="M117.4-73.8C117.3-73.8,117.3-73.8,117.4-73.8c-0.1-0.1,0-0.2,0-0.2c0.1,0,0.2,0,0.2,0.1c0,0,0,0.1,0,0.1
						c0,0,0,0.1,0.1,0.1l0,0c0,0,0,0,0,0c0,0,0,0.1,0,0.1c-0.2,0.1-0.3,0.1-0.5,0.1l0,0c0,0,0,0,0,0c-0.1,0-0.1-0.2,0-0.2
						c0,0,0.1,0,0.2,0c0.1,0.1,0.3,0.1,0.4,0.1l0,0.1h0c-0.1,0-0.1,0-0.2,0C117.5-73.7,117.4-73.7,117.4-73.8L117.4-73.8z"/>
				</g>
				<g transform="matrix(1,0,0,1,106.66,188.662)">
					<path class="st19" d="M25.9-87.6c0.7,0.1,1.3,0.5,1.3,0.5c0.5,0.1,0.8,0.6,0.8,0.6c0.4,0.1,0.9,0.4,0.9,0.4"/>
				</g>
				<g transform="matrix(1,0,0,1,112.25,195.575)">
					<path class="st19" d="M23.4-92.7c0,0,0,0.6-0.8,0.6c-0.5,0-0.9-0.2-1.2-0.5"/>
				</g>
				<g transform="matrix(1,0,0,1,115.273,189.127)">
					<path class="st16" d="M17.3-88.2C17.4-88.2,17.4-88.2,17.3-88.2c0.2,0,0.2,0.1,0.2,0.2c0,0.1-0.1,0.1-0.2,0.1l0,0L17-88.1
						L17.3-88.2"/>
				</g>
				<g transform="matrix(1,0,0,1,113.511,194.944)">
					<path class="st16" d="M19.7-92.4c0.2,0.1,0.3,0.3,0.5,0.4c0,0,0,0,0,0c0,0.1,0,0.1,0,0.2c-0.1,0-0.1,0-0.2,0l0,0
						C19.9-92,19.8-92.2,19.7-92.4"/>
				</g>
				<g transform="matrix(0.991608,-0.129279,-0.129279,-0.991608,112.275,194.688)">
					<path class="st19" d="M31.9,88.5c0.6-0.3,1.2-0.3,1.2-0.3"/>
				</g>
				<g transform="matrix(1,0,0,1,115.644,193.893)">
					<path class="st16" d="M16.8-91.2C16.9-91.2,16.9-91.2,16.8-91.2C17-91.1,17-91,16.9-91c0,0.1-0.1,0.1-0.2,0l0,0
						c-0.2-0.1-0.4-0.3-0.5-0.4C16.4-91.3,16.6-91.2,16.8-91.2"/>
				</g>
				<g transform="matrix(-0.550382,-0.834913,-0.834913,0.550382,123.356,193.05)">
					<path class="st20" d="M71.9-55.3c0,0.1-0.1,0.2-0.1,0.2"/>
				</g>
				<g transform="matrix(1,0,0,1,118.434,196.68)">
					<path class="st19" d="M11.4-93.4c0,0,0.6,0.5,1.2,0.2c0.2-0.1,0.4-0.3,0.5-0.4"/>
				</g>
				<g transform="matrix(1,0,0,1,118.151,194.93)">
					<path class="st16" d="M13.5-92.4c0.1,0.2,0.1,0.3,0,0.5l0,0c0,0,0,0,0,0.1c-0.1,0.1-0.1,0-0.2,0c-0.1-0.1,0-0.1,0-0.2
						C13.4-92.1,13.5-92.2,13.5-92.4"/>
				</g>
				<g transform="matrix(1,0,0,1,122.727,191.307)">
					<path class="st16" d="M7.3-88.7C7.3-88.7,7.3-88.7,7.3-88.7c-0.1,0.1-0.1,0.1-0.2,0s-0.1-0.1,0-0.2c0.3-0.3,0.6-0.5,1-0.6
						C7.8-89.3,7.5-89,7.3-88.7"/>
				</g>
				<g transform="matrix(1,0,0,1,100.784,188.547)">
					<path class="st19" d="M31.9-87.5c0.2,0,0.4,0,0.7,0c0.7,0.1,1.7,0.4,2.4,0.5c1,0.2,1.8,0.7,1.8,0.7"/>
				</g>
				<g transform="matrix(-0.974602,-0.223945,-0.223945,0.974602,100.596,195.088)">
					<path class="st19" d="M-15.4-98.4c0,0-0.1,1.3,1.8,0.9"/>
				</g>
				<g transform="matrix(1,0,0,1,97.7783,188.76)">
					<path class="st19" d="M36-87.7c0.7,0,1.5,0.1,1.5,0.1c1.6-0.1,2.1,0.2,2.1,0.2c0.5,0,1.2,0.2,1.2,0.2"/>
				</g>
				<g transform="matrix(-0.850177,-0.526497,-0.526497,0.850177,97.7098,191.615)">
					<path class="st19" d="M12.2-97.8c-0.5,1,0.7,1.4,0.7,1.4"/>
				</g>
				<g transform="matrix(1,0,0,1,106.209,192.692)">
					<path class="st16" d="M29.5-89.7C29.5-89.7,29.5-89.7,29.5-89.7c-0.1,0.1-0.2,0.1-0.3,0c0-0.1,0-0.1,0.1-0.1l0,0
						c0.1-0.1,0.2-0.1,0.3-0.1c0.1,0,0.2,0,0.2,0.1l0,0l-0.1,0.1c-0.1-0.1-0.1-0.1-0.2-0.2c0,0-0.1,0-0.1-0.1c0,0-0.1,0-0.1,0
						c0,0,0,0,0,0c-0.1,0-0.1-0.1-0.1-0.2c0-0.1,0.1-0.1,0.2-0.1l0,0c0.1,0,0.1,0.1,0.2,0.1c0,0,0.1,0.1,0.1,0.1
						c0.1,0.1,0.2,0.2,0.2,0.3c0,0,0,0,0,0c0,0,0,0.1-0.1,0.1l0,0h0C29.7-89.8,29.5-89.8,29.5-89.7"/>
				</g>
				<g transform="matrix(1,0,0,1,123.171,193.995)">
					<path class="st16" d="M6.7-90.8C6.8-90.8,6.8-90.8,6.7-90.8c0.1,0.1,0.1,0.2,0,0.2c-0.1,0-0.1,0-0.2,0c0,0-0.1-0.1-0.1-0.1
						c0,0-0.1,0-0.1-0.1c0,0,0,0,0,0l-0.1,0l0,0c0,0,0,0,0,0c0-0.1,0-0.2,0.1-0.3c0.1-0.1,0.2-0.2,0.3-0.2l0,0c0,0,0,0,0,0
						c0.1,0,0.1,0,0.1,0.1c0,0.1,0,0.1-0.1,0.1c-0.1,0-0.2,0-0.2,0.1c-0.1,0-0.1,0.1-0.1,0.2l-0.1,0l0,0c0,0,0-0.1,0.1-0.1
						c0,0,0.1,0,0.1,0c0,0,0.1,0,0.1,0C6.6-90.9,6.7-90.9,6.7-90.8"/>
				</g>
				<g transform="matrix(1,0,0,1,100.598,191.86)">
					<path class="st16" d="M37-89.1C37-89.1,37-89.1,37-89.1c-0.1,0-0.2-0.1-0.2-0.1c0-0.1,0.1-0.1,0.1-0.1c0.1,0,0.2,0,0.2,0
						c0.1,0,0.2,0,0.2,0.1l0,0l-0.1,0.1c-0.1-0.1-0.3-0.2-0.5-0.2c0,0,0,0,0,0c-0.1,0-0.1-0.1,0-0.2c0,0,0.1-0.1,0.2,0l0,0
						c0.2,0.1,0.4,0.3,0.5,0.4c0,0,0,0,0,0c0,0,0,0.1-0.1,0.1l0,0h0c-0.1,0-0.1,0-0.2,0C37.2-89.1,37.1-89.1,37-89.1"/>
				</g>
				<g transform="matrix(1,0,0,1,96.9072,190.035)">
					<path class="st16" d="M42-87.9C42-87.9,42-87.9,42-87.9c-0.1,0-0.2,0-0.2-0.1c0-0.1,0.1-0.1,0.1-0.1l0,0c0.1,0,0.1,0,0.2,0
						c0.1,0,0.1,0,0.2,0.1l0,0L42.2-88c-0.1-0.1-0.1-0.2-0.2-0.2c-0.1,0-0.2-0.1-0.3-0.1c0,0,0,0,0,0c-0.1,0-0.1-0.1-0.1-0.2
						c0-0.1,0.1-0.1,0.2-0.1l0,0c0.1,0,0.3,0.1,0.4,0.2c0.1,0.1,0.2,0.2,0.2,0.3c0,0,0,0,0,0c0,0,0,0.1-0.1,0.1l0,0h0
						C42.2-88,42.1-87.9,42-87.9"/>
				</g>
				<g transform="matrix(0.982222,0.187725,0.187725,-0.982222,115.859,193.745)">
					<path class="st19" d="M-1.7,92c0.6,0.1,0.9,0.3,0.9,0.3"/>
				</g>
				<g transform="matrix(1,0,0,1,106.043,187.701)">
					<path class="st19" d="M25.4-87.2c1,0.1,0.8,0.3,2.2,0.1c1.4-0.2,2.1,0,2.1,0"/>
				</g>
				<g transform="matrix(-0.865101,-0.501598,-0.501598,0.865101,105.895,188.359)">
					<path class="st20" d="M17.9-90.6c0,0.2,0.2,0.3,0.2,0.3"/>
				</g>
				<g transform="matrix(1,0,0,1,105.372,187.785)">
					<path class="st16" d="M30.6-86.7c0,0.1,0,0.1,0,0.2c-0.1,0.1-0.2,0.1-0.3,0c0-0.1,0-0.2,0-0.2l0.1-0.1c0,0,0.1-0.1,0.1-0.1
						c0,0,0.1,0,0.1,0c0.1,0,0.2,0,0.2,0l0,0l-0.1,0.1c0,0,0,0-0.1-0.1c0,0-0.1,0-0.1,0c-0.1,0-0.1,0-0.2-0.1c0,0,0,0,0,0
						c-0.1,0-0.1-0.1,0-0.2c0,0,0.1,0,0.1,0l0,0c0.1,0,0.2,0.1,0.2,0.1c0,0,0.1,0.1,0.1,0.1c0,0,0.1,0.1,0.1,0.1l0,0c0,0,0,0,0,0
						c0,0,0,0-0.1,0h0C30.7-86.9,30.7-86.8,30.6-86.7C30.7-86.8,30.7-86.8,30.6-86.7C30.6-86.8,30.6-86.7,30.6-86.7"/>
				</g>
				<g transform="matrix(0.897117,-0.441792,-0.441792,-0.897117,135.667,186.298)">
					<path class="st19" d="M27.7,84.6c0.5-2.2,2-2.3,2-2.6"/>
				</g>
				<g transform="matrix(0.671425,-0.741073,-0.741073,-0.671425,148.393,182.083)">
					<path class="st19" d="M45.7,79.8c-0.6-1.1-0.1-2.3-0.5-4.7"/>
				</g>
				<g transform="matrix(1,0,0,1,82.832,179.58)">
					<path class="st19" d="M48.2-81.7c1.9-0.5,2.7-1.1,3.5-1.6c1.6-1.1,3.6-5.6,9.2-7.3"/>
				</g>
				<g transform="matrix(0.994222,0.107345,0.107345,-0.994222,119.933,179.301)">
					<path class="st19" d="M0.5,81.7c0.6,0.1,1.2,0.2,1.8,0.4"/>
				</g>
				<g transform="matrix(1,0,0,1,125.133,180.532)">
					<path class="st16" d="M4.1-82.6C4.1-82.6,4.1-82.6,4.1-82.6c0.1,0,0.2,0.1,0.1,0.1c0,0.1-0.1,0.1-0.1,0.1L3-82.4L4.1-82.6"/>
				</g>
				<g transform="matrix(0.613845,0.789426,0.789426,-0.613845,84.0378,181.402)">
					<path class="st19" d="M-28.6,97.1c0.1,0.3-0.2,0.7-0.2,0.7"/>
				</g>
				<g transform="matrix(1,0,0,1,102.765,179.072)">
					<path class="st16" d="M34.1-81.3c-0.1,0-0.1-0.1-0.1-0.1s0.1-0.1,0.1-0.1h0.7l0,0c0.4,0,0.7-0.1,1.1-0.1c0.2,0,0.4,0,0.5,0
						c0.2,0,0.4,0,0.6,0l0,0c0.5,0,0.9-0.1,1.4,0c0.2,0,0.5,0,0.7,0.1c0.2,0,0.7,0.2,0.7,0.2h0l0,0c0.2,0,0.3,0.1,0.4,0.2
						c0.1,0.1,0.3,0.2,0.3,0.3l0,0c0,0,0,0,0,0c0,0,0,0-0.1,0l0,0L40.2-81L40-81c0,0-0.1,0-0.1,0l0.1-0.1c0,0,0,0,0,0.1c0,0,0,0,0,0
						c0,0-0.1,0.1-0.1,0.1c-0.1,0-0.1-0.1-0.1-0.1c0-0.1,0.1-0.1,0.1-0.1c-0.1,0-0.1,0-0.1,0c0,0,0,0,0,0c0,0,0,0,0,0l0,0
						c0,0,0.1-0.1,0.1-0.1l0,0c0.1,0,0.1,0,0.2,0.1l0.1,0.1l0.2,0.1L40.4-81l0,0c-0.1-0.2-0.4-0.3-0.7-0.3c0,0,0,0,0,0l0,0l0,0
						c-0.2-0.1-0.4-0.1-0.6-0.1c-0.2,0-0.5,0-0.7,0c-0.5,0-0.9,0-1.4,0c0,0,0,0,0,0l0,0c-0.2,0-0.3,0-0.5,0c-0.2,0-0.4,0-0.5,0
						c-0.4,0-0.7,0.1-1.1,0.1l0,0h0H34.1L34.1-81.3z"/>
				</g>
				<g transform="matrix(1,0,0,1,84.6465,185.864)">
					<path class="st19" d="M55.8-86.3c0.4,0.2,1.1,0.5,1.7,0.4c0.8-0.1,0.9-0.5,0.9-0.5"/>
				</g>
				<g transform="matrix(1,0,0,1,92.1948,184.608)">
					<path class="st16" d="M48.3-85.1C48.3-85.1,48.4-85.1,48.3-85.1c0.1,0.1,0.1,0.2,0.1,0.2c0,0.1-0.1,0.1-0.2,0l-0.4-0.3
						L48.3-85.1L48.3-85.1z"/>
				</g>
				<g transform="matrix(1,0,0,1,96.8657,183.164)">
					<path class="st19" d="M46.3-84c-0.1-0.1-0.2-0.1-0.2-0.1c-0.5-0.4-2.7-0.6-2.7-0.6c-0.5-0.2-1.4-0.1-1.4-0.1"/>
				</g>
				<g transform="matrix(1,0,0,1,101.639,181.107)">
					<path class="st16" d="M35.6-83c0.1,0,0.2,0,0.3,0.1l0,0c0.4-0.1,0.9-0.1,1.4,0c0,0,0,0,0,0c0.1,0,0.1,0.1,0.1,0.2
						c0,0.1-0.1,0.1-0.2,0.1l0,0c-0.4-0.2-0.8-0.2-1.3-0.2h0c0,0,0,0,0,0C35.8-82.9,35.7-82.9,35.6-83"/>
				</g>
				<g transform="matrix(1,0,0,1,92.3711,184.695)">
					<path class="st19" d="M47.2-85.1c0.2,0.1,0.9,0,0.9,0"/>
				</g>
				<g transform="matrix(1,0,0,1,94.1919,187.19)">
					<path class="st19" d="M43.7-87.2c0,0,0.6,0.4,1.1,0.5c0.5,0.1,0.9-0.4,0.9-0.4"/>
				</g>
				<g transform="matrix(1,0,0,1,101.794,184.887)">
					<path class="st19" d="M37.9-85.2c-0.5-0.6-1.7-0.6-1.7-0.6c-0.3-0.2-0.8-0.3-0.8-0.3"/>
				</g>
				<g transform="matrix(1,0,0,1,83.4956,181.339)">
					<path class="st16" d="M60-83C60-82.9,60-82.9,60-83c-0.1,0-0.2-0.1-0.1-0.1c0-0.1,0.1-0.1,0.1-0.1l0,0c0.1,0,0.1,0,0.2,0.1
						c0.1,0,0.1,0.1,0.2,0.1c0.1,0.1,0.2,0.2,0.2,0.3l0,0c0,0,0,0,0,0c0,0,0,0.1-0.1,0l0,0c-0.1,0-0.1,0-0.2,0c-0.1,0-0.1,0-0.2,0
						c0,0,0,0-0.1,0c-0.1,0-0.1,0-0.2-0.1c0-0.1,0-0.1,0.1-0.2L60-83c0.2,0.1,0.3,0.1,0.4,0.1c0.1,0,0.2,0,0.2,0.1l-0.1,0.1l0,0
						c-0.1-0.1-0.2-0.2-0.2-0.2c0,0-0.1,0-0.1-0.1C60.1-83,60-83,60-83"/>
				</g>
				<g transform="matrix(1,0,0,1,84.6411,183.809)">
					<path class="st16" d="M58.5-84.5C58.5-84.5,58.5-84.5,58.5-84.5c-0.1-0.1-0.1-0.2,0-0.2c0,0,0.1,0,0.2,0
						c0.1,0.1,0.3,0.2,0.3,0.4v0c0,0,0,0,0,0c0,0,0,0.1-0.1,0.1l0,0c-0.1,0-0.1,0-0.2,0c-0.1,0-0.2,0-0.2,0c0,0,0,0-0.1,0
						c-0.1,0-0.2-0.1-0.1-0.2C58.3-84.4,58.4-84.5,58.5-84.5L58.5-84.5c0.1,0,0.2,0.1,0.2,0.1c0.1,0,0.1,0,0.2,0.1l-0.1,0.1
						C58.8-84.4,58.6-84.4,58.5-84.5"/>
				</g>
				<g transform="matrix(1,0,0,1,94.7646,185.876)">
					<path class="st16" d="M44.9-86.1C44.9-86.1,44.8-86.1,44.9-86.1c-0.1-0.1-0.1-0.2,0-0.2c0.1,0,0.1,0,0.2,0
						c0.1,0.1,0.2,0.2,0.2,0.3c0.1,0.1,0.1,0.2,0.2,0.3l0,0c0,0,0,0,0,0c0,0,0,0.1-0.1,0.1l0,0c-0.1,0-0.1,0-0.2,0l-0.1,0
						c0,0-0.1,0,0,0c-0.1,0-0.1,0-0.2-0.1c0-0.1,0-0.1,0.1-0.2c0.1,0,0.1,0,0.1,0l0.1,0c0.1,0,0.1,0,0.2,0.1l-0.1,0.1l0,0
						c-0.1-0.1-0.1-0.2-0.2-0.2C45-85.9,44.9-86,44.9-86.1"/>
				</g>
				<g transform="matrix(1,0,0,1,103.87,182.563)">
					<path class="st16" d="M32.6-83.8c0.2,0,0.5,0,0.7,0l0,0c0,0,0,0,0,0c0.1,0,0.1,0.1,0.1,0.2c0,0.1-0.1,0.1-0.2,0.1
						C33.1-83.7,32.9-83.7,32.6-83.8"/>
				</g>
				<g transform="matrix(1,0,0,1,99.6162,184.953)">
					<path class="st19" d="M35.6-85.2c0.1,0,0.6,0.1,0.9,0.2c0.3,0.1,1.2,0,1.2,0c0.2,0.1,0.7,0.2,0.7,0.2"/>
				</g>
				<g transform="matrix(1,0,0,1,107.292,180.498)">
					<path class="st19" d="M22.9-82.4c0,0.6,0,0.5,0.1,0.7c0.1,0.5,0.7,0.7,1,0.8c0.8,0.1,1.6,0.1,1.6,0.1c0.2,0,1.4,0.2,1.8,0.2
						c0.3,0.1,0.8-0.1,0.8-0.1"/>
				</g>
				<g transform="matrix(1,0,0,1,41.9849,165.365)">
					<path class="st19" d="M117.6-70.8c1,0.1,1.5-0.4,1.8-0.7c0.4-0.3,0.8-1.2,1.1-2.8c0.3-1.6-0.6-2.4-1.5-2.8
						c-1-0.5-1.9-0.3-2.4-0.1c-0.5,0.2-0.9,0.8-0.9,1.2"/>
				</g>
				<g transform="matrix(1,0,0,1,36.3247,170.15)">
					<path class="st16" d="M123.3-75.7C123.3-75.7,123.3-75.7,123.3-75.7c0.1,0,0.2,0.1,0.1,0.2c0,0.1-0.1,0.1-0.2,0.1l0,0
						c-0.2-0.1-0.5-0.2-0.7-0.3C122.8-75.7,123.1-75.7,123.3-75.7"/>
				</g>
				<g transform="matrix(1,0,0,1,36.3706,168.803)">
					<path class="st19" d="M121-74.8c0.1,0.1,0.3,0.3,0.5,0.4c0.7,0.5,1.8,0.2,1.8,0.2"/>
				</g>
				<g transform="matrix(0.905581,-0.424173,-0.424173,-0.905581,34.6185,151.575)">
					<path class="st19" d="M139.8,5.4c0.6-0.2,1-1.2,1-1.2"/>
				</g>
				<g transform="matrix(0.999496,0.0317509,0.0317509,-0.999496,42.9934,148.701)">
					<path class="st19" d="M110.5,64.8c0.9-0.1,1.4,0.1,1.8,0.1"/>
				</g>
				<g transform="matrix(1,0,0,1,48.2422,149.202)">
					<path class="st16" d="M107.3-61.9C107.3-61.9,107.3-61.9,107.3-61.9c0.1,0,0.2,0.1,0.1,0.2c0,0-0.1,0.1-0.1,0l0,0
						c-0.5-0.1-0.9-0.1-1.4-0.2l-0.7-0.1c-0.2,0-0.5,0-0.7,0c0.2,0,0.5,0,0.7,0l0.7,0C106.3-61.9,106.8-61.9,107.3-61.9"/>
				</g>
				<g transform="matrix(0.728114,0.685456,0.685456,-0.728114,42.7833,151.069)">
					<path class="st20" d="M40.6,123.6c0.1,0.4,0,0.8,0,0.8"/>
				</g>
				<g transform="matrix(1,0,0,1,42.356,151.207)">
					<path class="st16" d="M115.2-63.1C115.2-63.1,115.2-63.1,115.2-63.1c-0.1,0-0.2-0.1-0.2-0.1c0-0.1,0.1-0.1,0.1-0.1
						c0.1,0,0.2,0,0.3,0c0,0,0.1,0,0.1,0c0,0,0.1,0,0.1,0.1l0,0l0,0c0,0,0,0.1,0,0.1l0,0c-0.1,0.1-0.2,0.2-0.3,0.3c0,0,0,0,0,0.1
						c0,0.1-0.1,0.1-0.2,0c-0.1,0-0.1-0.1,0-0.2l0,0c0.1-0.2,0.3-0.2,0.4-0.3l0,0.1l0,0c0,0-0.1,0-0.2,0
						C115.3-63.2,115.3-63.1,115.2-63.1"/>
				</g>
				<g transform="matrix(1,0,0,1,43.9141,153.65)">
					<path class="st16" d="M113.1-64.9C113.1-64.9,113.1-64.9,113.1-64.9c0.1,0,0.2,0,0.2,0.1c0,0.1,0,0.1-0.1,0.2l0,0
						c-0.3,0.1-0.5,0.1-0.8,0.1C112.7-64.6,112.9-64.8,113.1-64.9"/>
				</g>
				<g transform="matrix(1,0,0,1,44.8584,150.446)">
					<path class="st16" d="M111.8-62.5c0.1,0,0.3-0.1,0.4-0.1c0.1,0,0.3,0,0.5,0l0,0c0,0,0,0,0,0c0.1,0,0.1,0.1,0,0.2
						c0,0.1-0.1,0.1-0.2,0c-0.1-0.1-0.2-0.1-0.4-0.1C112.1-62.5,112-62.5,111.8-62.5"/>
				</g>
				<g transform="matrix(1,0,0,1,45.1074,154.924)">
					<path class="st19" d="M108-65.4c0.3-0.1,1.2-0.1,1.9,0c0.7,0,1.6-0.2,1.6-0.2"/>
				</g>
				<g transform="matrix(0.949447,-0.313926,-0.313926,-0.949447,41.8432,154.04)">
					<path class="st19" d="M129.9,25.7c0.3-0.4,0.6-0.4,0.6-0.4"/>
				</g>
				<g transform="matrix(1,0,0,1,37.9453,151.17)">
					<path class="st16" d="M121.1-63.2C121.1-63.2,121.1-63.2,121.1-63.2c0.1,0,0.1,0.1,0.1,0.2c0,0.1-0.1,0.1-0.2,0.1
						c-0.1,0-0.2-0.1-0.3-0.1c-0.1,0-0.2-0.1-0.3-0.1c0.1,0,0.2,0,0.4,0C120.9-63.3,121-63.3,121.1-63.2"/>
				</g>
				<g transform="matrix(-0.242958,-0.970037,-0.970037,0.242958,47.4817,145.98)">
					<path class="st19" d="M28.1-120.5c0,0,0.4,0.2,0.4,0.6c0,0.5-0.4,0.6-0.2,1.4c0.2,0.8,0.2,1.4,0.6,2c0.4,0.6,0.7,1,1.4,1.7"/>
				</g>
				<g transform="matrix(1,0,0,1,66.1045,152.948)">
					<path class="st16" d="M83.3-66.9c0.1,0.3,0.3,0.5,0.4,0.7c0.2,0.2,0.3,0.4,0.5,0.7c0.2,0.2,0.4,0.4,0.5,0.6
						c0.2,0.2,0.4,0.4,0.6,0.5c0,0,0,0,0,0c0.1,0,0.1,0.1,0,0.2c0,0.1-0.1,0.1-0.2,0c-0.2-0.2-0.4-0.4-0.6-0.6
						c-0.2-0.2-0.3-0.4-0.5-0.7c-0.2-0.2-0.3-0.5-0.5-0.7C83.6-66.4,83.4-66.6,83.3-66.9"/>
				</g>
				<g transform="matrix(1,0,0,1,136.226,185.026)">
					<path class="st16" d="M-10.8-86.3c0.3,0.2,0.6,0.5,0.7,0.9c0,0,0,0,0,0c0,0.1,0,0.1-0.1,0.2c-0.1,0-0.1,0-0.2-0.1
						C-10.4-85.7-10.5-86-10.8-86.3"/>
				</g>
				<g transform="matrix(1,0,0,1,154.28,152.625)">
					<path class="st19" d="M-38.5-63.9c-0.5-4,1.2-5.7,1.2-5.7c0.7-2.6,2.3-3.8,2.3-3.8"/>
				</g>
				<g transform="matrix(1,0,0,1,164.833,158.219)">
					<path class="st16" d="M-49.2-69.5C-49.2-69.5-49.2-69.5-49.2-69.5c0-0.1,0-0.1,0.1-0.2c0.1,0,0.1,0,0.1,0.1
						c0,0.7,0.1,1.4,0.3,2.1C-48.9-68.1-49-68.8-49.2-69.5"/>
				</g>
				<g transform="matrix(1,0,0,1,41.269,114.936)">
					<path class="st16" d="M116.7-36.9c-0.4-0.3-0.7-0.7-0.9-1.1c-0.1-0.2-0.3-0.4-0.5-0.5c-0.2-0.1-0.4-0.2-0.6-0.3
						c-0.2-0.1-0.4-0.1-0.7,0c-0.2,0-0.4,0.1-0.6,0.3c-0.2,0.1-0.4,0.3-0.6,0.4c-0.1,0.1-0.2,0.1-0.3,0.2c-0.1,0.1-0.2,0.1-0.4,0.1
						c0.1,0,0.2-0.1,0.3-0.1c0.1-0.1,0.2-0.2,0.3-0.2c0.2-0.2,0.4-0.3,0.6-0.5c0.2-0.1,0.4-0.3,0.7-0.3c0.3-0.1,0.5,0,0.8,0
						c0.2,0.1,0.5,0.2,0.7,0.3c0.2,0.2,0.4,0.4,0.5,0.6l0.4,0.6C116.4-37.3,116.5-37.1,116.7-36.9"/>
				</g>
				<g transform="matrix(1,0,0,1,42.4561,121.046)">
					<path class="st16" d="M115.1-43.1c-0.4,0.1-0.6,0.3-1,0.4c-0.3,0.1-0.7,0.2-1.1,0.2c-0.2,0-0.4-0.1-0.6-0.2
						c-0.2-0.1-0.3-0.2-0.5-0.4c-0.1-0.1-0.3-0.3-0.4-0.4c-0.1-0.1-0.2-0.3-0.4-0.4c0.2,0,0.3,0.2,0.4,0.3c0.1,0.1,0.3,0.2,0.4,0.4
						c0.3,0.2,0.6,0.4,0.9,0.4c0.3,0,0.7,0,1-0.1c0.2,0,0.3-0.1,0.5-0.2C114.7-43.1,114.9-43.1,115.1-43.1"/>
				</g>
				<g transform="matrix(1,0,0,1,43.0322,120.581)">
					<path class="st16" d="M114.3-42.8c-0.3,0.1-0.6,0.3-0.9,0.4c-0.3,0.1-0.6,0.2-1,0.2c-0.4,0-0.7-0.2-0.9-0.5
						c-0.1-0.1-0.2-0.3-0.3-0.4c-0.1-0.1-0.2-0.3-0.3-0.4c0.2,0,0.3,0.2,0.4,0.3c0.1,0.1,0.2,0.2,0.4,0.3c0.2,0.2,0.5,0.3,0.8,0.4
						c0.3,0,0.6,0,0.9-0.1C113.6-42.7,114-42.8,114.3-42.8"/>
				</g>
				<g transform="matrix(1,0,0,1,47.772,121.73)">
					<path class="st16" d="M107.9-45.6c-0.6-0.1-1.5,0.4-1.5,0.8c0,0.4,0.4,1,1.1,1.2c0.3,0.1,0.9,0,1.3-0.1c0.4-0.2,0.7-0.5,0.4-1
						C108.8-45.3,108.3-45.6,107.9-45.6"/>
				</g>
				<g transform="matrix(1,0,0,1,28.3306,152.786)">
					<path class="st16" d="M134-63.5C134-63.5,134-63.5,134-63.5c0,0.1,0,0.2-0.1,0.2c-0.1,0-0.1,0-0.2-0.1
						c-0.1-0.3-0.3-0.5-0.6-0.6c-0.3-0.1-0.6-0.2-0.9-0.2c0.3,0,0.6,0,0.9,0.1C133.5-64,133.8-63.8,134-63.5"/>
				</g>
				<g transform="matrix(1,0,0,1,81.8135,162.13)">
					<path class="st19" d="M66.3-70.2c-1.3,0-2.4-0.4-3.4-1.3c-0.3-0.2-0.5-0.5-0.6-0.8"/>
				</g>
				<g transform="matrix(1,0,0,1,84.2656,156.423)">
					<path class="st16" d="M59-71.8c0,0.9,0,1.8,0.1,2.6c0.1,0.9,0.4,1.7,0.8,2.5l0,0c0,0,0,0,0,0c0,0.1,0,0.1-0.1,0.2
						c-0.1,0-0.1,0-0.2-0.1c-0.4-0.8-0.6-1.7-0.7-2.6C58.9-70,58.9-70.9,59-71.8"/>
				</g>
				<g transform="matrix(1,0,0,1,112.815,180.596)">
					<path class="st19" d="M30.7-82.3c-0.8-0.5-2.9-0.4-2.9-0.4c-0.4-0.1-1.5-0.1-1.5-0.1c-0.5-0.1-1.1,0.1-1.3,0.1
						s-0.3-0.1-0.5-0.2c-0.2-0.1-0.8-0.3-1.3-0.3c-0.5,0-1.1-0.1-1.4-0.1c-0.3,0-0.5,0-0.6,0c-0.2-0.1-0.5,0.1-0.5-0.3"/>
				</g>
				<g transform="matrix(1,0,0,1,124.416,187.221)">
					<path class="st19" d="M7-86.7c-1-0.1-1.4-0.2-1.7-0.9c-0.1-0.3-0.2-1-0.2-1.5"/>
				</g>
				<g transform="matrix(1,0,0,1,123.026,184.572)">
					<path class="st19" d="M3-85c0.2,0.3,0.1,1,0.7,1.3c0.5,0.3,0.6,0.4,1.6,0.9c1,0.5,1.7,0.7,1.7,0.7"/>
				</g>
				<g transform="matrix(1,0,0,1,149.886,190.966)">
					<path class="st19" d="M-50.8-87.7c-0.1-0.5-0.1-1,0.7-1.5c0.8-0.6,2.6-1.5,3.9-2.1c1-0.5,4.7-2,5.8-2.4
						c1.2-0.4,5.1-2.1,6.4-2.4c1.3-0.4,2.2,0,3.1,0.3c0.9,0.3,1.7,0.8,1.7,0.8"/>
				</g>
				<g transform="matrix(1,0,0,1,164.46,210.982)">
					<path class="st19" d="M-65.3-107.7c0.2,0.5,0.6,1.1,1.8,1.6c2,1,3.8,1.3,5.1,1.6c2.1,0.5,5.3,0.6,8.6,0.6
						c3.3,0,6.4-0.5,7.7-0.7c1.3-0.2,2.4-0.7,2.5-0.3c0.1,0.4-2.6,1.2-3.8,1.4c-1.2,0.2-7.3,1.1-12.8,0.7s-8.3-1.2-9.9-2.4
						c-1.7-1.2-1.8-2.8-1.1-4.2c0.6-1.4,2.9-2.9,3.9-3.5c1-0.6,4.3-2.3,6.4-3.3c2.1-1,4.3-2.7,6.5-4.1c2.2-1.4,1.9-1.2,1.9-1.9"/>
				</g>
				<g transform="matrix(1,0,0,1,212.815,191.602)">
					<path class="st16" d="M-113.6-88.4C-113.6-88.4-113.6-88.4-113.6-88.4c0,0.1,0,0.2-0.1,0.2c-0.1,0-0.1,0-0.2-0.1
						c0-0.3-0.1-0.5-0.1-0.7c0-0.2,0-0.5,0.1-0.7c0,0.2,0,0.5,0,0.7C-113.7-88.8-113.6-88.6-113.6-88.4"/>
				</g>
				<g transform="matrix(1,0,0,1,154.097,170.523)">
					<path class="st16" d="M-34.8-82.3c-0.1,0.5-0.2,1.1-0.2,1.6c0,0.5,0,1.1,0.1,1.6c0.1,0.5,0.2,1.1,0.3,1.6
						c0.1,0.5,0.3,1,0.5,1.6l0,0c0,0,0,0,0,0c0,0.1,0,0.1-0.1,0.2c-0.1,0-0.1,0-0.2-0.1c-0.2-0.5-0.3-1.1-0.4-1.6
						c-0.1-0.5-0.2-1.1-0.2-1.6c0-0.5-0.1-1.1,0-1.6C-35-81.2-34.9-81.8-34.8-82.3"/>
				</g>
				<g transform="matrix(1,0,0,1,162.93,169.663)">
					<path class="st16" d="M-46.6-78.5C-46.6-78.5-46.6-78.5-46.6-78.5C-46.6-78.5-46.6-78.5-46.6-78.5c0.2,0.3,0.3,0.6,0.4,0.9
						c0.1,0.2,0.1,0.3,0.2,0.5c0.1,0.1,0.2,0.3,0.3,0.4c0.4,0.5,0.8,1,1.1,1.6c0,0,0,0,0,0c0,0,0,0,0,0c-0.3-0.2-0.5-0.4-0.7-0.7
						c-0.2-0.3-0.4-0.5-0.5-0.9c-0.1-0.2-0.1-0.3-0.2-0.4c-0.1-0.1-0.2-0.3-0.3-0.4C-46.5-77.8-46.6-78.1-46.6-78.5"/>
				</g>
				<g transform="matrix(1,0,0,1,39.0352,144.113)">
					<path class="st16" d="M119.7-57.5c0-0.2-0.1-0.3-0.2-0.4c-0.1-0.1-0.3-0.1-0.5-0.2c0,0,0,0,0,0c-0.1,0-0.1-0.1-0.1-0.2
						s0.1-0.1,0.2-0.1l0,0c0.2,0.1,0.3,0.2,0.5,0.3C119.6-57.8,119.7-57.6,119.7-57.5"/>
				</g>
				<g transform="matrix(1,0,0,1,34.4868,144.867)">
					<path class="st16" d="M125.8-61.1C125.8-61.1,125.8-61.1,125.8-61.1C125.8-61.1,125.8-61.1,125.8-61.1
						c-0.8,0.1-1.7,0.1-2.5,0.2c-0.8,0.1-1.7,0.2-2.5,0.4c-0.8,0.2-1.6,0.4-2.4,0.7c-0.8,0.3-1.6,0.6-2.3,1c0.8-0.4,1.5-0.7,2.3-1
						c0.8-0.3,1.6-0.5,2.4-0.7c0.8-0.2,1.7-0.3,2.5-0.4C124.1-61,124.9-61.1,125.8-61.1L125.8-61.1z"/>
				</g>
				<g transform="matrix(1,0,0,1,34.502,151.435)">
					<path class="st16" d="M125.7-67.1C125.7-67.1,125.8-67.1,125.7-67.1C125.8-67,125.8-67,125.7-67.1c-0.7,0.2-1.3,0.4-1.9,0.6
						c-0.6,0.2-1.3,0.5-1.9,0.8c-0.6,0.3-1.2,0.7-1.7,1.1c-0.5,0.4-1,0.9-1.4,1.5c0.4-0.6,0.9-1,1.4-1.5c0.5-0.4,1.1-0.8,1.7-1.1
						c0.6-0.3,1.2-0.6,1.9-0.8C124.4-66.7,125.1-66.9,125.7-67.1L125.7-67.1z"/>
				</g>
				<g transform="matrix(1,0,0,1,32.1064,158.668)">
					<path class="st16" d="M129-74.2C129-74.2,129-74.1,129-74.2L129-74.2c-0.9,0.2-1.7,0.5-2.5,0.9c-0.8,0.4-1.5,0.9-2.2,1.4
						c-0.3,0.3-0.7,0.6-1,0.9c-0.3,0.3-0.6,0.6-0.9,1c-0.3,0.3-0.5,0.7-0.8,1c-0.3,0.4-0.5,0.7-0.7,1.1c0.2-0.4,0.5-0.7,0.7-1.1
						c0.3-0.3,0.5-0.7,0.8-1c0.3-0.3,0.6-0.7,0.9-1c0.3-0.3,0.6-0.6,1-0.9c0.7-0.6,1.4-1.1,2.2-1.5C127.3-73.7,128.1-74.1,129-74.2
						C129-74.2,129-74.2,129-74.2z"/>
				</g>
				<g transform="matrix(1,0,0,1,30.9131,143.745)">
					<path class="st16" d="M130.6-60C130.6-60,130.5-60,130.6-60L130.6-60c-0.9-0.3-1.7-0.4-2.6-0.4c-0.9,0-1.7,0.1-2.6,0.3
						c-0.2,0.1-0.4,0.1-0.6,0.2l-0.3,0.1l-0.3,0.1c-0.2,0.1-0.4,0.2-0.6,0.2l-0.6,0.3l-0.3,0.1l-0.3,0.2l-0.5,0.3
						c-0.4,0.2-0.7,0.5-1,0.8c0.3-0.3,0.7-0.5,1-0.8l0.5-0.3l0.3-0.2l0.3-0.1l0.6-0.3c0.2-0.1,0.4-0.2,0.6-0.3l0.3-0.1l0.3-0.1
						c0.2-0.1,0.4-0.1,0.6-0.2c0.8-0.2,1.7-0.3,2.6-0.3C128.8-60.5,129.7-60.4,130.6-60C130.6-60.1,130.6-60.1,130.6-60z"/>
				</g>
				<g transform="matrix(0.501096,0.865392,0.865392,-0.501096,43.4919,99.6859)">
					<path class="st16" d="M33.7,111.8c-0.2,0.3-1.2,0-2.3-0.6c-1.1-0.6-1.8-1.4-1.7-1.6c0.2-0.3,1.2,0,2.3,0.6
						C33.1,110.8,33.9,111.5,33.7,111.8"/>
				</g>
				<g transform="matrix(0.501096,0.865392,0.865392,-0.501096,43.4919,99.6859)">
					
						<ellipse transform="matrix(0.4978 0.8673 -0.8673 0.4978 111.955 28.0342)" class="st17" cx="31.8" cy="110.7" rx="0.6" ry="-2.3"/>
				</g>
				<g transform="matrix(-0.86673,0.498778,0.498778,0.86673,45.3285,94.5022)">
					<path class="st16" d="M-110.3,32.9c-0.3,0.6-0.4,1.1-0.1,1.3c0.3,0.2,0.8-0.2,1.1-0.7c0.3-0.6,0.4-1.1,0.1-1.3
						C-109.5,32-110,32.3-110.3,32.9"/>
				</g>
				<g transform="matrix(1,0,0,1,46.8066,104.595)">
					<path class="st16" d="M109.2-36.7c-0.2,0.3,0.2,0.8,0.7,1.1c0.6,0.3,1.1,0.4,1.3,0.1l-1.7,2.9c-0.2,0.3-0.7,0.2-1.3-0.1
						c-0.6-0.3-0.9-0.8-0.7-1.1L109.2-36.7"/>
				</g>
				<g transform="matrix(0.501077,0.865403,0.865403,-0.501077,40.8821,91.94)">
					
						<ellipse transform="matrix(0.4978 0.8673 -0.8673 0.4978 116.408 23.4691)" class="st17" cx="37.9" cy="112.3" rx="0.6" ry="-1.2"/>
				</g>
				<g transform="matrix(0.498962,0.866624,0.866624,-0.498962,46.2235,91.9421)">
					<path class="st17" d="M34,107.1l1.7-2.9c0.2-0.3,0.7-0.2,1.3,0.1c0.6,0.3,0.9,0.8,0.7,1.1l-1.7,2.9"/>
				</g>
				<g transform="matrix(-0.866648,0.498921,0.498921,0.866648,41.362,88.281)">
					<path class="st16" d="M-112.4,39.2c-0.2,0.3-0.2,0.7,0,0.8c0.2,0.1,0.5-0.1,0.7-0.4c0.2-0.3,0.2-0.7,0-0.8
						C-111.9,38.7-112.2,38.9-112.4,39.2"/>
				</g>
				<g transform="matrix(1,0,0,1,42.2632,94.4359)">
					<path class="st16" d="M115.3-28.3c-0.1,0.2,0.1,0.5,0.4,0.7c0.3,0.2,0.7,0.2,0.8,0l-1,1.8c-0.1,0.2-0.5,0.1-0.8,0
						c-0.3-0.2-0.5-0.5-0.4-0.7L115.3-28.3"/>
				</g>
				<g transform="matrix(-0.463541,0.886076,0.886076,0.463541,41.3769,86.5287)">
					<path class="st17" d="M-72.2,93.9c0.1-0.2,0.2-0.4,0.3-0.4c0.2,0,0.4,0.3,0.4,0.7c0,0.4-0.1,0.7-0.3,0.7
						c-0.1,0-0.2-0.1-0.3-0.3"/>
				</g>
				<g transform="matrix(0.499026,0.866587,0.866587,-0.499026,41.9076,86.7201)">
					<path class="st17" d="M39.9,110.5l1-1.8c0.1-0.2,0.5-0.1,0.8,0c0.3,0.2,0.5,0.5,0.4,0.7l-1,1.8"/>
				</g>
				<g transform="matrix(0,-57.87,-57.87,0,30.9559,87.87)">
					<path class="st16" d="M0.7-2.3c-0.1,0-0.1,0-0.2,0c-0.1,0-0.1,0-0.2,0.1c0,0,0,0,0,0c0,0,0,0,0,0c0,0,0,0,0,0c0,0,0,0,0,0
						c0,0,0,0,0,0c0,0,0,0,0,0c0,0,0.1-0.1,0.2-0.1S0.7-2.3,0.7-2.3L0.7-2.3z"/>
				</g>
				<g transform="matrix(1,0,0,1,28.7773,87.8659)">
					<path class="st17" d="M134.2-31.1c-1.1,3.5-2.7,6.9-4.2,9.6c0,0.1-0.1,0.1-0.1,0.1c-0.1,0-0.1,0-0.2,0c0,0-0.1,0-0.1,0
						c0,0-0.1,0-0.1,0c-0.1-0.1-0.2-0.1-0.2-0.2c0-0.1,0-0.2,0-0.3c1.4-2.6,3-5.9,4.1-9.4"/>
				</g>
				<g transform="matrix(1,0,0,1,26.2021,29.9996)">
					<path class="st16" d="M136.6,26.7c0.6-1.6,1-3.2,1.4-4.9c0.4-1.7,0.6-3.4,0.6-5.1c0,1.7-0.2,3.4-0.5,5.1
						c-0.3,1.7-0.8,3.3-1.3,5L136.6,26.7z"/>
				</g>
				<g transform="matrix(1,0,0,1,23.1548,58.955)">
					<path class="st16" d="M141-12.2c0,1.7-0.2,3.4-0.5,5c-0.3,1.7-0.8,3.3-1.3,4.9l-0.2-0.1c0.5-1.6,1-3.2,1.4-4.8
						C140.7-8.8,140.9-10.5,141-12.2"/>
				</g>
			</g>
		</g>
	</g>
</g>
<g>
	<g id="FED3_Outline_00000107555128431434648390000007912518822218017941_">
		<path class="st21" d="M827.7,316.1c-1.2-1.9-2.8-3.6-4.5-5c-1.1-0.7-3.6-3.6-4.6-4.2c-1.8-0.8-3.7-1.4-5.6-1.8
			c-1.8-0.3-4-0.9-5.2-1.1c-1.3-0.2-5.2-1.4-5.4-0.8c-0.3,1.1-0.1,2.2,0.5,3.1c0.9,0.9,1.6,1.8,2.3,2.8c0.3,0.4-7.9-1.4-9.1-1.7
			c-1.2-0.4-6.5-1-7.3-1.4c-0.9-0.8-1.5-1.8-1.8-3c-0.3-1,0.4-2-0.4-2.3s-4-0.9-5.2-1s-5-1.4-5.1-0.8c-0.1,0.6,2.1,3.8,2.9,4.6
			c0.7,1.3,1.4,2.6,2.3,3.8"/>
		<path class="st21" d="M832.6,279.2v37.5l-53.7-9.2c0,0-7.7-8-8.2-9.6c-0.4-1-0.7-2-0.9-3c0-1.3,0.4-2.6,1.3-3.6
			c0.8-1.3,11.5-18.5,11.9-18.5h3.3L832.6,279.2z"/>
		<path class="st22" d="M821.5,154l-0.8-8.8l5.8-2.4c0,0,54.3-3.9,56.4-3.9c2.1,0,72.5-1.8,74.2-1.8c1.7,0.1,30.4,0.7,31.7,1.1
			c1.4,0.4,5.3,1,5.4,2.1c0,1.1-0.6,8.9-0.6,8.9"/>
		<path class="st22" d="M823.9,169c6.8,0.4,58.5-0.3,62.5,0c3.9,0.3,68.2-1.4,72.2-1.4s31,0.3,31,0.3"/>
		<polygon class="st21" points="868.9,351.6 753.8,325.2 753.8,309.9 868.9,333.3 		"/>
		<path class="st22" d="M946.9,388.1c6-4.5,54.4-47.7,58.9-53.5c3.8-4.8,4.6-46.6,4.7-53.2c0.1-6.6,3.8-54,3.8-58.4
			c0.1-4.4,0.1-7.1-4.5-11.9c-4.6-4.8-5.2-5.3-8.3-5.9c-3.1-0.6-11.3-0.9-12.1-1.2c-0.9-0.2-2.1,1.4-8.3,2.3
			c-6.2,1-0.5-0.4-13.4,0.9c-12.9,1.3-7.1,1-19.4,1.7c-12.2,0.8-16.9,1.1-34.3,1.1s-24.4,1.3-36.6,0.9s-10.8-0.5-18.8-0.6
			s-12.3-0.8-20.5-1.1c-8.1-0.3-8.5-1-14.2-1.3c-3.2-0.2-5.8,0.5-7.9-0.7c-1-0.5,1.3-2.4-1-2.7c-2.2-0.2-8.8-0.2-12.9-0.6
			s-37.8-2.4-43.9-2.3c-6.1,0.1-44.8,2.8-44.9,3.5"/>
		<path class="st22" d="M972.1,325.4c2.8,1.3,22.9-14,23-17.3c0.1-3.3,7.3-62.4,5.6-61.5c-1.7,0.9-21.6,7.3-21.6,8.6
			C979.2,256.6,970.7,324.7,972.1,325.4z"/>
		<path class="st22" d="M819.5,196.9c1.9-6.7,2.6-9.6,4.8-12.2c2.2-2.6,2.4-4.4,5.9-6.2c4.7-2.3,9.6-3.9,14.7-4.9
			c5.3-0.9,21.5-1.8,28.1-1.3c6.6,0.6,20.1,1.7,24.9,2.4s26.7,5.5,33.1,6.8c6.4,1.3,23.2,7.3,27.2,8.6s10.9,5.7,13.9,7.3
			s7.2,7.1,9.1,8.8"/>
		<path class="st22" d="M705.9,208.5c5.5-3.2,13.4-3.7,23.3-2.9c9.9,0.8,199.7,9.6,203.8,10.2c3.8,0.4,7.6,1.2,11.2,2.6
			c4,1.6,7.8,2.5,9.6,6.4c1.8,3.9,2.9,10.9,3.2,16.9s-1,39.2-1.1,43.6c-0.1,4.4-1.7,27.7-1.8,31s-1.5,45.8-1.9,49.2
			c-0.4,3.4-0.3,13.4-1.6,16.3c-1.4,2.9-2.7,6.6-6.3,8s-7.9,2.6-10.9,2.2s-106.7-27.4-111-28.6c-4.3-1.2-37.2-9.8-41.1-10.9
			s-20.3-5-25.2-6.3s-32.9-8.9-36.4-9.7c-3.5-0.9-8.9-2.5-10.5-4.9c-1.6-2.4-4.3-7.2-4.5-10.7s-1.8-53.7-1.8-59.4
			c0.1-5.8-1.7-38.7-1.4-41.8C701.8,216.5,702,210.7,705.9,208.5z"/>
		<ellipse class="st22" cx="864.6" cy="296.5" rx="14.8" ry="17.9"/>
		<ellipse class="st22" cx="732.3" cy="275.8" rx="11.1" ry="14.4"/>
		<path class="st22" d="M892,298.4c-0.8,18.2-13.9,28.4-28.1,28.4c-14.2,0-25.7-13.3-25.7-29.8c0-16.4,11.5-29.8,25.7-29.8
			S892.7,282,892,298.4z"/>
		<path class="st22" d="M750.9,275.2c2.3,13.7-8.4,25.1-18.8,25.1c-10.4,0-18.8-11.3-18.8-25.1c0-13.9,8.8-28.1,18.8-25.1
			c5,1.3,9.3,4.4,12.2,8.6C747.8,263.2,749.8,268.2,750.9,275.2z"/>
		<path class="st22" d="M815.1,204.6c4-7.2,5.1-9.9,10.5-14.2c5.4-4.3,12.4-8.1,17.7-9.6c5.3-1.5,15.9-2.1,19.2-2.3
			c3.3-0.2,15.9,0.6,20,1.7c4.2,1.1,18,3.6,22.8,5.5s18.1,7.8,21.1,9.2c3,1.4,20.2,11.4,21.9,14.1"/>
		<path class="st22" d="M989.4,203.5c-0.6-7.9-1.5-34.6,0-36.7c1.5-2.1,3.8-4.8,4.2-8c0.5-3.2,1-10,0-10h-20.1
			c-5.7,0-9.9-0.7-16.4-0.6c-6.5,0.1-30.9,0.4-37.3,0.6c-6.4,0.2-91.4,3.3-92.6,3.5c-1.2,0.3-5.5-0.4-5.6,1.1
			c-0.2,3.2-0.2,6.5,0,9.7c0.3,1.4,2.4,3.4,2.4,4.8c0,1.4,0.3,16.1,0.3,16.1"/>
		<path class="st21" d="M791,274.1c0.5-2.5,1.6-4.9,3.2-6.9c1.9-2.3,1.3-2.2,3.2-3.2c1.4-0.7,2.8-1.3,4.3-1.7c1.8-0.3,3.7-0.3,5.5,0
			c1.9,0.1,3.8,0.6,5.4,1.5c1.4,1,2.8,2.1,4,3.4c1,1,1.9,2.1,2.7,3.3c0.6,0.7,3.6,6.6,2.7,6.9c-2.4,0.6-4.9,0.9-7.4,1.1
			c-1.9,0-3.8-0.1-5.6,0c-1.8,0.1-6.8,0.6-7,0c-0.2-0.6-1.3-1.9-1.5-2.4c-0.6-0.8-1.5-1.3-2.5-1.5c-1,0-1.9,0.5-2.5,1.3
			c-0.5,0.6-0.4,2.5-1.1,2.2c-0.9-0.5-1.7-1-2.5-1.7C791.6,275.6,791.3,274.9,791,274.1z"/>
		<polyline class="st23" points="776.4,276.5 785.4,273.2 791.2,273.6 785,277.8 		"/>
		<polygon class="st21" points="807.6,281.7 807.6,294.1 816.3,295.7 816.3,282.8 		"/>
		<polyline class="st21" points="807.6,280.6 820.2,277.8 827.7,278.5 817,282.5 		"/>
		<path class="st21" d="M831.6,279.6c0,0-9.5,19.7-10.4,20.2c-0.8,0.4-1.5,0.8-2.1,1.4c-0.5,0.4-0.6,0.8-0.5,2.2
			c0,1.4,1.2,2.4,2.5,3.4c1.4,1,10.5,9.7,10.5,9.7"/>
		<path class="st21" d="M828.2,278.8c0,0-3.9,9.2-4.6,10.4c-0.7,1.2-3.6,6.2-4,7.2s-0.3,2-1.4,2c-1.1,0-6.3-0.9-7.7-1.1
			c-1.4-0.2-6.5-0.7-6.3-1.1c0.2-0.4,0.8-0.4,0-1.3s-2.9-1.3-4.4-1.5c-1.5-0.2-4.4-0.6-5.5-0.9s-2.6-0.2-3.9-0.4s-1.3-0.3-1.8,0
			s-0.2,1.3-1.1,1.3c-0.9,0.1-5.3-0.7-6.6-0.9c-1.3-0.2-5.9-0.4-5.5-1c0.4-0.6,1.3-1.8,1.3-1.8"/>
		<polygon class="st23" points="776.3,289.8 785.1,291.1 785.1,277.7 776.3,276.4 		"/>
		<path class="st23" d="M785,291l8.8-2.7c0,0,0.6-6.1,0-6.9s-8.8-3.5-8.8-3.5"/>
		<path class="st21" d="M839.8,286.5c0.8-2.9,2.9-11.2,4.6-13.4c1.8-2.3,3.9-4.3,6.3-5.9c1.9-1.4,4-2.5,6.2-3.2
			c3.7-1,7.5-1.5,11.3-1.3c3.7,0.4,7.2,1.5,10.4,3.3c2.7,1.8,5.3,3.8,7.6,6.2c2.9,2.5,5.6,8,6.7,10.2c1.3,2.8,2.5,5.6,3.5,8.5
			c0.7,4.1,0.7,8.3,0,12.4c-1,5-1.4,7.9-3.3,11.1c-1.6,2.8-2.7,5.3-5.2,7.2c-2.5,2-9.3,4.2-11.1,4.6c-3.3,0.3-6.6,0.5-9.9,0.5"/>
		<path class="st21" d="M859.6,263.3c0,0,8.5-3.5,11.6-3.9c2.8-0.4,8-0.9,11.7,0.4c3.1,0.9,6.1,2.2,8.8,4c3,1.9,5.8,4.2,8.2,6.9
			c2.8,3.2,5.1,6.9,6.7,10.9c1.6,4.6,2.5,9.5,2.5,14.4c0,3.8-0.2,7.7-3,12.3c-2.3,3.3-5,6.3-8.1,8.9c-2,1.8-10.6,5.2-12.5,6"/>
		<path class="st21" d="M948.3,220c9.3-2.5,53.4-15.2,55.2-14.2"/>
		<path class="st21" d="M957.1,236.7c4.1-1.4,56.7-20.3,57-18.7"/>
		
			<ellipse transform="matrix(0.4344 -0.9007 0.9007 0.4344 179.7987 967.2324)" class="st22" cx="860.1" cy="340.4" rx="4.5" ry="3.5"/>
		<path class="st22" d="M719.8,255.3c1.7-2.3,6.9-6.4,8.5-6.8c1.6-0.4,8.8-1.9,9.7-2c0.9-0.1,7.3-1.2,8.9-1c2.6,0.4,5.2,1.1,7.7,2.2
			c2.4,1.3,4.6,3,6.4,5c2.4,2.8,4.3,6.1,5.6,9.6c0.9,2.5,2.5,7.2,2.5,11c-0.2,3.8-0.9,7.5-1.9,11.2c-0.6,1.4-2.9,7.4-5.4,9.4
			c-1.7,1.4-6.6,2.7-8.1,3.3s-17.5,3.3-19.8,3.2"/>
		<path class="st21" d="M729.4,248.2c3.7-0.4,7.5,0.1,11.1,1.3c3.1,1.3,5.8,3.4,7.6,6.3c2.3,2.8,4.2,5.9,5.5,9.2
			c1.2,2.8,2,5.7,2.4,8.8c0.5,3.3,0.3,6.7-0.5,9.9c-1,3.6-2.6,7-4.9,10c-1.4,1.9-2.9,4.6-4.3,4.9"/>
		
			<ellipse transform="matrix(0.4344 -0.9007 0.9007 0.4344 174.1627 951.9478)" class="st22" cx="845.1" cy="337.3" rx="4.5" ry="3.5"/>
		
			<ellipse transform="matrix(0.4344 -0.9007 0.9007 0.4344 168.715 937.2361)" class="st22" cx="830.7" cy="334.3" rx="4.5" ry="3.5"/>
		
			<ellipse transform="matrix(0.4344 -0.9007 0.9007 0.4344 163.4984 923.5458)" class="st22" cx="817.2" cy="331.6" rx="4.5" ry="3.5"/>
		
			<ellipse transform="matrix(0.4344 -0.9007 0.9007 0.4344 159.3697 909.8547)" class="st22" cx="804.2" cy="328" rx="4.5" ry="3.5"/>
		
			<ellipse transform="matrix(0.4344 -0.9007 0.9007 0.4344 154.2516 897.0468)" class="st22" cx="791.4" cy="325.7" rx="4.5" ry="3.5"/>
		
			<ellipse transform="matrix(0.4344 -0.9007 0.9007 0.4344 149.3017 884.4104)" class="st22" cx="778.9" cy="323.3" rx="4.5" ry="3.5"/>
		
			<ellipse transform="matrix(0.4344 -0.9007 0.9007 0.4344 145.0101 872.1526)" class="st22" cx="767" cy="320.6" rx="4.5" ry="3.5"/>
	</g>
</g>
</svg>
