<?xml version="1.0" encoding="UTF-8" standalone="no"?>
<!DOCTYPE svg PUBLIC "-//W3C//DTD SVG 1.1//EN" "http://www.w3.org/Graphics/SVG/1.1/DTD/svg11.dtd">
<svg width="100%" height="100%" viewBox="0 0 333 276" version="1.1" xmlns="http://www.w3.org/2000/svg" xmlns:xlink="http://www.w3.org/1999/xlink" xml:space="preserve" xmlns:serif="http://www.serif.com/" style="fill-rule:evenodd;clip-rule:evenodd;stroke-linejoin:round;">
    <g transform="matrix(1,0,0,1,-875.709,-663.75)">
        <g transform="matrix(1,0,0,1,462.293,54)">
            <g id="FED3_Outline_00000086689601531834392490000008414251197236893321_">
                <path d="M549.6,798.8C548.4,796.9 546.8,795.2 545.1,793.8C544,793.1 541.5,790.2 540.5,789.6C538.7,788.8 536.8,788.2 534.9,787.8C533.1,787.5 530.9,786.9 529.7,786.7C528.5,786.5 524.5,785.3 524.3,785.9C524,787 524.2,788.1 524.8,789C525.7,789.9 526.4,790.8 527.1,791.8C527.4,792.2 519.2,790.4 518,790.1C516.8,789.8 511.5,789.1 510.7,788.7C509.8,787.9 509.2,786.9 508.9,785.7C508.6,784.7 509.3,783.7 508.5,783.4C507.7,783.1 504.5,782.5 503.3,782.4C502.1,782.2 498.3,781 498.2,781.6C498.1,782.2 500.3,785.4 501.1,786.2C501.8,787.5 502.5,788.8 503.4,790" style="fill:none;fill-rule:nonzero;stroke:rgb(42,40,41);stroke-width:2px;"/>
                <path d="M554.6,761.9L554.6,799.4L500.9,790.2C500.9,790.2 493.2,782.2 492.7,780.6C492.3,779.6 492,778.6 491.8,777.6C491.8,776.3 492.2,775 493.1,774C493.9,772.7 504.6,755.5 505,755.5L508.3,755.5L554.6,761.9Z" style="fill:none;fill-rule:nonzero;stroke:rgb(42,40,41);stroke-width:2px;"/>
                <path d="M543.5,636.7L542.7,627.9L548.5,625.5C548.5,625.5 602.8,621.6 604.9,621.6C607,621.6 677.4,619.8 679.1,619.8C680.8,619.8 709.5,620.5 710.8,620.9C712.2,621.3 716.1,621.9 716.2,623C716.2,624.1 715.6,631.9 715.6,631.9" style="fill:none;fill-rule:nonzero;stroke:rgb(42,40,41);stroke-width:2px;stroke-linejoin:miter;stroke-miterlimit:10;"/>
                <path d="M545.9,651.8C552.7,652.2 604.4,651.5 608.4,651.8C612.3,652.1 676.6,650.4 680.6,650.4C684.6,650.4 711.6,650.7 711.6,650.7" style="fill:none;fill-rule:nonzero;stroke:rgb(42,40,41);stroke-width:2px;stroke-linejoin:miter;stroke-miterlimit:10;"/>
                <path d="M590.8,834.3L475.7,807.9L475.7,792.6L590.8,816L590.8,834.3Z" style="fill:none;fill-rule:nonzero;stroke:rgb(42,40,41);stroke-width:2px;"/>
                <path d="M668.8,870.8C674.8,866.3 723.2,823.1 727.7,817.3C731.5,812.5 732.3,770.7 732.4,764.1C732.5,757.5 736.2,710.1 736.2,705.7C736.3,701.3 736.3,698.6 731.7,693.8C727.1,689 726.5,688.5 723.4,687.9C720.3,687.3 712.1,687 711.3,686.7C710.5,686.4 709.2,688.1 703,689C696.8,690 702.5,688.6 689.6,689.9C676.7,691.2 682.5,690.9 670.2,691.6C657.9,692.3 653.3,692.7 635.9,692.7C618.5,692.7 611.5,694 599.3,693.6C587.1,693.2 588.5,693.1 580.5,693C572.5,692.9 568.2,692.2 560,691.9C551.8,691.6 551.5,690.9 545.8,690.6C542.6,690.4 540,691.1 537.9,689.9C536.9,689.4 539.2,687.5 536.9,687.2C534.7,687 528.1,687 524,686.6C519.9,686.2 486.2,684.2 480.1,684.3C474,684.4 435.3,687.1 435.2,687.8" style="fill:none;fill-rule:nonzero;stroke:rgb(42,40,41);stroke-width:2px;stroke-linejoin:miter;stroke-miterlimit:10;"/>
                <path d="M694.1,808.1C696.9,809.4 717,794.1 717.1,790.8C717.2,787.5 724.4,728.4 722.7,729.3C721,730.2 701.1,736.6 701.1,737.9C701.2,739.3 692.7,807.5 694.1,808.1Z" style="fill:none;fill-rule:nonzero;stroke:rgb(42,40,41);stroke-width:2px;stroke-linejoin:miter;stroke-miterlimit:10;"/>
                <path d="M541.4,679.6C543.3,672.9 544,670 546.2,667.4C548.4,664.8 548.6,663 552.1,661.2C556.8,658.9 561.7,657.3 566.8,656.3C572.1,655.4 588.3,654.5 594.9,655C601.5,655.5 615,656.7 619.8,657.4C624.6,658.1 646.5,662.9 652.9,664.2C659.3,665.5 676.1,671.5 680.1,672.8C684,674.2 691,678.5 694,680.1C697,681.8 701.2,687.2 703.1,688.9" style="fill:none;fill-rule:nonzero;stroke:rgb(42,40,41);stroke-width:2px;stroke-linejoin:miter;stroke-miterlimit:10;"/>
                <path d="M427.9,691.2C433.4,688 441.3,687.5 451.2,688.3C461.1,689.1 650.9,697.9 655,698.5C658.8,698.9 662.6,699.7 666.2,701.1C670.2,702.7 674,703.6 675.8,707.5C677.6,711.4 678.7,718.4 679,724.4C679.3,730.5 678,763.6 677.9,768C677.8,772.4 676.2,795.7 676.1,799C676,802.3 674.6,844.8 674.2,848.2C673.8,851.6 673.9,861.6 672.6,864.5C671.2,867.4 669.9,871.1 666.3,872.5C662.8,873.9 658.4,875.1 655.4,874.7C652.4,874.4 548.7,847.3 544.4,846.1C540.1,844.9 507.2,836.3 503.3,835.2C499.4,834.1 483,830.2 478.1,828.9C473.2,827.6 445.2,820 441.7,819.2C438.2,818.3 432.8,816.7 431.2,814.3C429.6,811.9 426.9,807.1 426.7,803.6C426.5,800.1 424.9,749.9 424.9,744.2C425,738.4 423.2,705.5 423.5,702.4C423.8,699.2 424,693.4 427.9,691.2Z" style="fill:none;fill-rule:nonzero;stroke:rgb(42,40,41);stroke-width:2px;stroke-linejoin:miter;stroke-miterlimit:10;"/>
                <ellipse cx="586.5" cy="779.2" rx="14.8" ry="17.9" style="fill:none;stroke:rgb(42,40,41);stroke-width:2px;stroke-linejoin:miter;stroke-miterlimit:10;"/>
                <ellipse cx="454.2" cy="758.5" rx="11.1" ry="14.4" style="fill:none;stroke:rgb(42,40,41);stroke-width:2px;stroke-linejoin:miter;stroke-miterlimit:10;"/>
                <path d="M614,781.1C613.2,799.3 600.1,809.5 585.9,809.5C571.7,809.5 560.2,796.2 560.2,779.7C560.2,763.2 571.7,749.9 585.9,749.9C600.1,749.9 614.7,764.7 614,781.1Z" style="fill:none;fill-rule:nonzero;stroke:rgb(42,40,41);stroke-width:2px;stroke-linejoin:miter;stroke-miterlimit:10;"/>
                <path d="M472.9,757.9C475.2,771.6 464.5,783 454.1,783C443.7,783 435.3,771.7 435.3,757.9C435.3,744 444.1,729.8 454.1,732.8C459.1,734.1 463.4,737.2 466.3,741.4C469.8,745.9 471.7,750.9 472.9,757.9Z" style="fill:none;fill-rule:nonzero;stroke:rgb(42,40,41);stroke-width:2px;stroke-linejoin:miter;stroke-miterlimit:10;"/>
                <path d="M537,687.3C541,680.1 542.1,677.4 547.5,673.1C552.9,668.8 559.9,665 565.2,663.5C570.5,662 581.1,661.4 584.4,661.2C587.7,661 600.3,661.8 604.4,662.9C608.6,664 622.4,666.5 627.2,668.4C632,670.3 645.3,676.2 648.3,677.6C651.3,679 668.5,689 670.2,691.7" style="fill:none;fill-rule:nonzero;stroke:rgb(42,40,41);stroke-width:2px;stroke-linejoin:miter;stroke-miterlimit:10;"/>
                <path d="M711.3,686.2C710.7,678.3 709.8,651.6 711.3,649.5C712.8,647.4 715.1,644.7 715.5,641.5C716,638.3 716.5,631.5 715.5,631.5L695.4,631.5C689.7,631.5 685.5,630.8 679,630.9C672.5,631 648.1,631.3 641.7,631.5C635.3,631.7 550.3,634.8 549.1,635C547.9,635.2 543.6,634.6 543.5,636.1C543.3,639.3 543.3,642.6 543.5,645.8C543.8,647.2 545.9,649.2 545.9,650.6C545.9,652 546.2,666.7 546.2,666.7" style="fill:none;fill-rule:nonzero;stroke:rgb(42,40,41);stroke-width:2px;stroke-linejoin:miter;stroke-miterlimit:10;"/>
                <path d="M513,756.8C513.5,754.3 514.6,751.9 516.2,749.9C518.1,747.6 517.5,747.7 519.4,746.7C520.8,746 522.2,745.4 523.7,745C525.5,744.7 527.4,744.7 529.2,745C531.1,745.1 533,745.6 534.6,746.5C536,747.5 537.4,748.6 538.6,749.9C539.6,750.9 540.5,752 541.3,753.2C541.9,753.9 544.9,759.8 544,760.1C541.6,760.7 539.1,761 536.6,761.2C534.7,761.2 532.8,761.1 531,761.2C529.2,761.3 524.2,761.8 524,761.2C523.8,760.6 522.7,759.3 522.5,758.8C521.9,758 521,757.5 520,757.3C519,757.3 518.1,757.8 517.5,758.6C517,759.2 517.1,761.1 516.4,760.8C515.5,760.3 514.7,759.8 513.9,759.1C513.6,758.3 513.2,757.6 513,756.8Z" style="fill:white;fill-rule:nonzero;stroke:rgb(42,40,41);stroke-width:2px;"/>
                <path d="M498.4,759.2L507.3,755.9L513.1,756.3L507,760.5" style="fill:white;fill-rule:nonzero;stroke:rgb(42,40,41);stroke-width:2px;stroke-linecap:round;"/>
                <path d="M529.5,764.4L529.5,776.8L538.3,778.5L538.3,765.5L529.5,764.4Z" style="fill:none;fill-rule:nonzero;stroke:rgb(42,40,41);stroke-width:2px;"/>
                <path d="M529.6,763.3L542.1,760.5L549.7,761.2L538.9,765.2" style="fill:none;fill-rule:nonzero;stroke:rgb(42,40,41);stroke-width:2px;"/>
                <path d="M553.5,762.3C553.5,762.3 544,782 543.1,782.5C542.3,782.9 541.6,783.3 541,783.9C540.5,784.3 540.4,784.7 540.5,786.1C540.5,787.5 541.7,788.5 543,789.5C544.4,790.5 553.5,799.2 553.5,799.2" style="fill:none;fill-rule:nonzero;stroke:rgb(42,40,41);stroke-width:2px;"/>
                <path d="M550.1,761.5C550.1,761.5 546.2,770.7 545.5,771.9C544.8,773.1 541.9,778.1 541.5,779.1C541,780.2 541.2,781.1 540.1,781.1C539,781.1 533.8,780.2 532.4,780C531,779.8 525.9,779.3 526.1,778.9C526.3,778.5 526.9,778.5 526.1,777.6C525.3,776.6 523.2,776.3 521.7,776.1C520.2,775.9 517.3,775.5 516.2,775.2C515.1,775 513.6,775 512.3,774.8C511,774.6 511,774.5 510.5,774.8C510,775.1 510.3,776.1 509.4,776.1C508.5,776.2 504.1,775.4 502.8,775.2C501.5,775 496.9,774.8 497.3,774.2C497.7,773.6 498.6,772.4 498.6,772.4" style="fill:none;fill-rule:nonzero;stroke:rgb(42,40,41);stroke-width:2px;"/>
                <path d="M498.3,772.5L507,773.8L507,760.4L498.3,759.1L498.3,772.5Z" style="fill:white;fill-rule:nonzero;stroke:rgb(42,40,41);stroke-width:2px;stroke-linecap:round;"/>
                <path d="M507,773.7L515.8,771C515.8,771 516.4,764.9 515.8,764.1C515.2,763.3 507,760.6 507,760.6" style="fill:white;fill-rule:nonzero;stroke:rgb(42,40,41);stroke-width:2px;stroke-linecap:round;"/>
                <path d="M561.7,769.2C562.5,766.3 564.6,758 566.3,755.8C568.1,753.5 570.2,751.5 572.6,749.9C574.5,748.5 576.6,747.4 578.8,746.7C582.5,745.7 586.3,745.2 590.1,745.4C593.8,745.8 597.3,746.9 600.5,748.7C603.2,750.5 605.8,752.5 608.1,754.9C611,757.4 613.7,762.9 614.8,765.1C616.1,767.9 617.3,770.7 618.3,773.6C619,777.7 619,781.9 618.3,786C617.3,791 616.9,793.9 615,797.1C613.4,799.9 612.3,802.4 609.8,804.3C607.3,806.3 600.5,808.5 598.7,808.9C595.4,809.2 592.1,809.4 588.8,809.4" style="fill:none;fill-rule:nonzero;stroke:rgb(42,40,41);stroke-width:2px;"/>
                <path d="M581.6,746.1C581.6,746.1 590.1,742.6 593.2,742.2C596,741.8 601.2,741.3 604.9,742.6C608,743.5 611,744.8 613.7,746.6C616.7,748.5 619.5,750.8 621.9,753.5C624.7,756.7 627,760.4 628.6,764.4C630.2,769 631.1,773.9 631.1,778.8C631.1,782.6 630.9,786.5 628.1,791.1C625.8,794.4 623.1,797.4 620,800C618,801.8 609.4,805.2 607.5,806" style="fill:none;fill-rule:nonzero;stroke:rgb(42,40,41);stroke-width:2px;"/>
                <path d="M670.2,702.7C679.5,700.2 723.6,687.5 725.4,688.5" style="fill:none;fill-rule:nonzero;stroke:rgb(42,40,41);stroke-width:2px;"/>
                <path d="M679.1,719.4C683.2,718 735.8,699.1 736.1,700.7" style="fill:none;fill-rule:nonzero;stroke:rgb(42,40,41);stroke-width:2px;"/>
                <g transform="matrix(0.4344,-0.9007,0.9007,0.4344,-412.229,989.795)">
                    <ellipse cx="582.1" cy="823.2" rx="4.5" ry="3.5" style="fill:none;stroke:rgb(42,40,41);stroke-width:2px;stroke-linejoin:miter;stroke-miterlimit:10;"/>
                </g>
                <path d="M441.8,738C443.5,735.7 448.7,731.6 450.3,731.2C451.9,730.8 459.1,729.3 460,729.2C460.9,729.1 467.3,728 468.9,728.2C471.5,728.6 474.1,729.3 476.6,730.4C479,731.7 481.2,733.4 483,735.4C485.4,738.2 487.3,741.5 488.6,745C489.5,747.5 491.1,752.2 491.1,756C490.9,759.8 490.2,763.5 489.2,767.2C488.6,768.6 486.3,774.6 483.8,776.6C482.1,778 477.2,779.3 475.7,779.9C474.2,780.4 458.2,783.2 455.9,783.1" style="fill:none;fill-rule:nonzero;stroke:rgb(42,40,41);stroke-width:2px;stroke-linejoin:miter;stroke-miterlimit:10;"/>
                <path d="M451.3,730.9C455,730.5 458.8,731 462.4,732.2C465.5,733.5 468.2,735.6 470,738.5C472.3,741.3 474.2,744.4 475.5,747.7C476.7,750.5 477.5,753.4 477.9,756.5C478.4,759.8 478.2,763.2 477.4,766.4C476.4,770 474.8,773.4 472.5,776.4C471.1,778.3 469.6,781 468.2,781.3" style="fill:none;fill-rule:nonzero;stroke:rgb(42,40,41);stroke-width:2px;"/>
                <g transform="matrix(0.4344,-0.9007,0.9007,0.4344,-417.865,974.511)">
                    <ellipse cx="567.1" cy="820" rx="4.5" ry="3.5" style="fill:none;stroke:rgb(42,40,41);stroke-width:2px;stroke-linejoin:miter;stroke-miterlimit:10;"/>
                </g>
                <g transform="matrix(0.4344,-0.9007,0.9007,0.4344,-423.313,959.799)">
                    <ellipse cx="552.6" cy="817" rx="4.5" ry="3.5" style="fill:none;stroke:rgb(42,40,41);stroke-width:2px;stroke-linejoin:miter;stroke-miterlimit:10;"/>
                </g>
                <g transform="matrix(0.4344,-0.9007,0.9007,0.4344,-428.529,946.109)">
                    <ellipse cx="539.1" cy="814.3" rx="4.5" ry="3.5" style="fill:none;stroke:rgb(42,40,41);stroke-width:2px;stroke-linejoin:miter;stroke-miterlimit:10;"/>
                </g>
                <g transform="matrix(0.4344,-0.9007,0.9007,0.4344,-432.658,932.418)">
                    <ellipse cx="526.2" cy="810.7" rx="4.5" ry="3.5" style="fill:none;stroke:rgb(42,40,41);stroke-width:2px;stroke-linejoin:miter;stroke-miterlimit:10;"/>
                </g>
                <g transform="matrix(0.4344,-0.9007,0.9007,0.4344,-437.776,919.61)">
                    <ellipse cx="513.4" cy="808.4" rx="4.5" ry="3.5" style="fill:none;stroke:rgb(42,40,41);stroke-width:2px;stroke-linejoin:miter;stroke-miterlimit:10;"/>
                </g>
                <g transform="matrix(0.4344,-0.9007,0.9007,0.4344,-442.726,906.973)">
                    <ellipse cx="500.9" cy="806" rx="4.5" ry="3.5" style="fill:none;stroke:rgb(42,40,41);stroke-width:2px;stroke-linejoin:miter;stroke-miterlimit:10;"/>
                </g>
                <g transform="matrix(0.4344,-0.9007,0.9007,0.4344,-447.018,894.716)">
                    <ellipse cx="488.9" cy="803.3" rx="4.5" ry="3.5" style="fill:none;stroke:rgb(42,40,41);stroke-width:2px;stroke-linejoin:miter;stroke-miterlimit:10;"/>
                </g>
            </g>
        </g>
        <g transform="matrix(4.16667,0,0,4.16667,0,0)">
            <g>
                <g id="Page-17_00000019675378486219183370000011973831784115704995_">
                    <g id="Optic-fiber-from-skull--lean_00000094577729230702956460000005032959880639514285_">
                        <g transform="matrix(0,-57.87,-57.87,0,30.9559,87.87)">
                            <path d="M0.7,-2.3L0.5,-2.3C0.4,-2.3 0.4,-2.3 0.3,-2.2C0.3,-2.2 0.4,-2.3 0.5,-2.3L0.7,-2.3Z" style="fill:none;fill-rule:nonzero;stroke:white;stroke-width:1px;stroke-linejoin:miter;stroke-miterlimit:10;"/>
                        </g>
                    </g>
                </g>
            </g>
        </g>
    </g>
</svg>
