<?xml version="1.0" encoding="UTF-8" standalone="no"?>
<!DOCTYPE svg PUBLIC "-//W3C//DTD SVG 1.1//EN" "http://www.w3.org/Graphics/SVG/1.1/DTD/svg11.dtd">
<svg width="100%" height="100%" viewBox="0 0 1000 1000" version="1.1" xmlns="http://www.w3.org/2000/svg" xmlns:xlink="http://www.w3.org/1999/xlink" xml:space="preserve" xmlns:serif="http://www.serif.com/" style="fill-rule:evenodd;clip-rule:evenodd;stroke-miterlimit:10;">
    <g transform="matrix(1,0,0,1,-12150,-1125)">
        <g id="Page-14" serif:id="Page 14" transform="matrix(4.16667,0,0,4.16667,12150,1125)">
            <rect x="0" y="0" width="240" height="240" style="fill:none;"/>
            <g id="Nose-poke-with-poke-wall--obese" serif:id="Nose poke with poke wall, obese">
                <g transform="matrix(-0.904432,0.426619,0.426619,0.904432,147.334,153.864)">
                    <path d="M-2.394,1.766L0.536,1.766C0.478,1.549 0.429,1.33 0.385,1.119C-0.688,0.673 -1.71,0.005 -2.647,-0.856C-2.608,-0.046 -2.534,0.837 -2.394,1.766" style="fill:rgb(230,231,232);fill-rule:nonzero;"/>
                </g>
                <g transform="matrix(1,0,0,1,144.963,146.669)">
                    <path d="M0,-2.689C0.39,-2.16 0.87,-1.309 1.28,0C0.78,-0.58 0.32,-1.03 -0.08,-1.37C-0.02,-1.79 0,-2.229 0,-2.689" style="fill:rgb(230,231,232);fill-rule:nonzero;"/>
                </g>
                <g transform="matrix(1,0,0,1,146.243,152.25)">
                    <path d="M0,-5.58C0.49,-4 0.88,-1.769 0.88,1.37C0.07,-1.79 -0.93,-3.93 -1.73,-5.269L-1.73,-5.28C-1.55,-5.8 -1.43,-6.36 -1.36,-6.95C-0.96,-6.61 -0.5,-6.16 0,-5.58" style="fill:rgb(230,231,232);fill-rule:nonzero;"/>
                </g>
                <g transform="matrix(1,0,0,1,146.243,155.04)">
                    <path d="M0,-8.37C0.99,-7.21 2.11,-5.51 3.12,-3.08C2.64,-1.9 2,-0.86 1.22,0C1.12,-0.49 1,-0.96 0.88,-1.4L0.88,-1.42C0.88,-4.559 0.49,-6.79 0,-8.37" style="fill:rgb(230,231,232);fill-rule:nonzero;"/>
                </g>
                <g transform="matrix(1,0,0,1,143.233,155.636)">
                    <path d="M0,-6.456L0,-6.466C0.56,-7.065 0.97,-7.806 1.26,-8.655C1.26,-8.666 1.26,-8.666 1.27,-8.676C1.27,-8.676 1.28,-8.676 1.28,-8.666L1.28,-8.655C2.08,-7.315 3.08,-5.176 3.89,-2.016L3.89,-1.996C3.89,-1.426 3.88,-0.826 3.85,-0.195C3.29,0.364 2.66,0.834 1.96,1.194L1.2,1.555C0.22,1.944 0.062,2.22 -0.988,2.2C-0.378,1.31 -0.72,0.355 -0.35,-0.496C0.32,-2.016 0.12,-4.346 0.02,-5.796C0.01,-6.036 0,-6.256 0,-6.456" style="fill:rgb(230,231,232);fill-rule:nonzero;"/>
                </g>
                <g transform="matrix(1,0,0,1,157.913,141.651)">
                    <path d="M0,-7.771C3.09,0.689 1.13,9.029 -4.6,11.349L-7.66,12.79C-7.93,11.889 -8.24,11.059 -8.55,10.309C-6.98,6.5 -7,1.259 -8.94,-4.021C-11.91,-12.131 -19.01,-16.981 -24.64,-15.341L-16.28,-18.25C-10.55,-20.561 -3.02,-16.021 0,-7.771" style="fill:rgb(230,231,232);fill-rule:nonzero;"/>
                </g>
                <g transform="matrix(1,0,0,1,129.953,137.34)">
                    <path d="M0,0.49C-0.81,0.73 -2.06,1.09 -3.43,1.57C-3.45,1.23 -3.46,0.9 -3.46,0.57C-1.39,-0.13 0.68,-0.67 2.47,-1.08C2.45,-1.031 2.43,-0.98 2.42,-0.93C2.4,-0.89 2.38,-0.85 2.37,-0.81C2.28,-0.62 2.22,-0.42 2.16,-0.23L2.18,-0.23L2.17,-0.22C1.26,0.09 0.47,0.35 0,0.49" style="fill:rgb(230,231,232);fill-rule:nonzero;"/>
                </g>
                <g transform="matrix(1,0,0,1,126.523,134.479)">
                    <path d="M0,4.431C-1.16,4.851 -2.41,5.351 -3.54,5.961C-4.74,6.611 -5.83,7.101 -6.92,7.641L-7.56,6.021L1.31,-3.21C0.41,-1.319 -0.05,0.961 -0.03,3.431C-0.03,3.761 -0.02,4.091 0,4.431" style="fill:rgb(230,231,232);fill-rule:nonzero;"/>
                </g>
                <g transform="matrix(1,0,0,1,128.003,145.71)">
                    <path d="M0,-14.79C1.02,-16.81 2.56,-18.35 4.54,-19.15L5.27,-19.4C10.9,-21.04 18,-16.19 20.97,-8.08C22.91,-2.8 22.93,2.44 21.36,6.25C20.35,3.82 19.23,2.12 18.24,0.96C17.83,-0.35 17.35,-1.2 16.96,-1.729C16.95,-3.12 16.68,-4.64 16.12,-6.17C15.42,-8.07 14.31,-9.65 13.02,-10.76L13.01,-10.76C12.18,-11.49 11.27,-12.01 10.36,-12.29C9.39,-12.6 8.41,-12.64 7.5,-12.38C7.36,-12.34 7.22,-12.3 7.08,-12.24C6.72,-12.09 6.39,-11.9 6.09,-11.66C5.93,-11.56 5.79,-11.43 5.65,-11.28C5.5,-11.15 5.37,-11 5.25,-10.84C5.12,-10.7 5.01,-10.54 4.91,-10.37C4.91,-10.36 4.9,-10.36 4.9,-10.35C4.79,-10.19 4.7,-10.03 4.61,-9.85C4.58,-9.79 4.55,-9.729 4.53,-9.67C4.49,-9.6 4.46,-9.53 4.43,-9.46L4.43,-9.45L4.42,-9.45C2.63,-9.04 0.56,-8.5 -1.51,-7.8C-1.53,-10.269 -1.07,-12.55 -0.17,-14.44C-0.13,-14.56 -0.07,-14.68 0,-14.79" style="fill:rgb(230,231,232);fill-rule:nonzero;"/>
                </g>
                <g transform="matrix(1,0,0,1,106.793,133.941)">
                    <path d="M0,-9.971L0.35,0L-7.36,-2.841L0,-9.971Z" style="fill:rgb(230,231,232);fill-rule:nonzero;"/>
                </g>
                <g transform="matrix(1,0,0,1,107.143,129.81)">
                    <path d="M0,4.14L11.45,8.36L19.29,0.4L20.86,1.11C20.79,1.22 20.73,1.34 20.69,1.459L11.82,10.69L-11.42,2.53L-10.31,1.459L-1.98,-6.55L-0.35,-5.84L-7.71,1.289L0,4.13L0,4.14Z" style="fill:rgb(230,231,232);fill-rule:nonzero;"/>
                </g>
                <g transform="matrix(1,0,0,1,119.602,136.14)">
                    <path d="M0,5.98C-1.13,6.53 -2.27,7.129 -3.55,7.959C-4.6,8.65 -5.61,9.27 -6.47,9.78L-19.57,4.77L-23.88,-3.8L-0.64,4.36L0,5.98Z" style="fill:rgb(230,231,232);fill-rule:nonzero;"/>
                </g>
                <g transform="matrix(1,0,0,1,93.3223,118.73)">
                    <path d="M0,34.549C-6.574,31.793 -12.294,29.279 -14.54,28.35C-15.43,27.98 -15.569,27.93 -15.91,27.779C-16.959,27.3 -17.85,26.75 -19.26,24.529C-20.459,22.65 -20.479,21.19 -20.64,19.63C-20.68,19.15 -20.76,17.72 -20.76,17.72L-21.959,0.06L-21.12,0C-21.02,2.039 -20.58,4.23 -19.76,6.43C-17.04,13.699 -11.54,18.39 -7.24,16.779L1.57,13.69C2.28,13.42 2.911,13.02 3.46,12.489L3.51,12.539L2.4,13.61L6.71,22.18L19.811,27.19C18.811,27.779 18.01,28.23 17.53,28.489C17.49,28.51 17.451,28.529 17.411,28.55C17.36,28.579 17.311,28.6 17.271,28.619C16.581,28.97 15.49,29.52 13.47,29.779C11.451,30.029 8.141,29.529 4.86,30.85C3.61,31.36 2.234,32.691 2.041,33.95" style="fill:rgb(230,231,232);fill-rule:nonzero;"/>
                </g>
                <g transform="matrix(1,0,0,1,83.6328,115.341)">
                    <path d="M0,14.339C2.36,13.459 3.09,9.56 1.66,5.39C0.26,1.319 -2.9,-1.221 -5.26,-0.341C-7.62,0.539 -8.4,4.549 -6.89,8.589C-5.38,12.619 -2.35,15.219 0,14.339M5.51,3.989C8.1,11.52 6.75,18.56 2.45,20.169C-1.85,21.779 -7.35,17.089 -10.07,9.819C-10.89,7.619 -11.33,5.429 -11.43,3.39C-11.65,-1.321 -10.05,-5.19 -7.05,-6.31L-6.37,-6.501C-2.16,-7.44 3.13,-2.971 5.51,3.989" style="fill:rgb(230,231,232);fill-rule:nonzero;"/>
                </g>
                <g transform="matrix(1,0,0,1,98.0127,123.899)">
                    <path d="M0,-7.459C2.15,-1.159 1.53,4.641 -1.23,7.32C-1.78,7.851 -2.41,8.251 -3.12,8.52L-11.93,11.61C-7.63,10.001 -6.28,2.961 -8.87,-4.569C-11.25,-11.529 -16.54,-15.999 -20.75,-15.06L-12.32,-17.459C-8.02,-19.069 -2.52,-14.8 0,-7.459" style="fill:rgb(230,231,232);fill-rule:nonzero;"/>
                </g>
                <g transform="matrix(1,0,0,1,168.473,176.27)">
                    <path d="M0,-73.27C0,-73.27 -9.01,-75.36 -21.44,-78.25L-21.04,-80.03L3.23,-74.55C3.23,-74.55 6.06,-73.9 8.01,-72.03C10.01,-70.09 11.08,-67.79 11.27,-66.21C11.43,-64.82 11.45,-62.46 11.45,-62.04C11.45,-61.66 9.79,-10.53 9.48,-0.6C9.45,0.46 9.45,0.64 9.43,1.05C9.33,2.82 8.55,5.28 4.79,6.76L4.78,6.75C6.44,5.35 6.36,2.66 6.39,1.24C6.4,0.4 6.41,0.53 6.45,-0.75C6.76,-11.23 8.21,-59.35 8.21,-60.22C8.21,-61.2 8.37,-65.09 6.47,-68.65C4.57,-72.21 0,-73.27 0,-73.27" style="fill:rgb(230,231,232);fill-rule:nonzero;"/>
                </g>
                <g transform="matrix(1,0,0,1,180.373,174.24)">
                    <path d="M0,-69.55C2.83,-65.571 2.23,-58.811 2.23,-58.811L0.31,-3.25C0.31,-3.25 0.38,4.58 -0.5,6.779C-0.9,7.79 -1.45,8.71 -2.21,9.439C-3.09,10.29 -4.27,10.87 -5.85,11C-8.77,11.25 -10.32,10.01 -10.32,10.01L-10.32,10C-9.68,9.939 -8.97,9.75 -8.09,9.389C-7.71,9.24 -7.39,9.04 -7.12,8.779L-7.11,8.79C-3.35,7.309 -2.57,4.849 -2.47,3.08C-2.45,2.67 -2.45,2.49 -2.42,1.429C-2.11,-8.5 -0.45,-59.63 -0.45,-60.01C-0.45,-60.431 -0.47,-62.79 -0.63,-64.181C-0.82,-65.76 -1.89,-68.061 -3.89,-70C-5.84,-71.87 -8.67,-72.521 -8.67,-72.521L-32.94,-78L-32.94,-80.8C-32.94,-80.8 -10.81,-76.061 -8.37,-75.51C-5.47,-74.851 -2.66,-73.3 0,-69.55" style="fill:rgb(230,231,232);fill-rule:nonzero;"/>
                </g>
                <g transform="matrix(1,0,0,1,77.6528,83.9502)">
                    <path d="M0,-6.04C1.65,-5.73 16.64,-2.27 16.64,-2.27L16.64,0.26C16.64,0.26 2.37,-3.17 0.89,-3.46C-0.59,-3.74 -1.3,-3.96 -2.48,-3.73C-3.66,-3.5 -5.82,-2.88 -5.82,-2.88C-5.86,-2.87 -5.91,-2.851 -5.95,-2.84C-5.95,-2.84 -5.59,-4.33 -4.37,-5.37C-3.83,-5.83 -3.25,-6.07 -2.62,-6.181L-2.5,-6.2C-1.72,-6.3 -0.88,-6.21 0,-6.04" style="fill:rgb(230,231,232);fill-rule:nonzero;"/>
                </g>
                <g transform="matrix(1,0,0,1,115.003,84.2096)">
                    <path d="M0,-7.07L0.04,-4.53L-20.71,0L-20.71,-2.53L-0.01,-7.07L0,-7.07Z" style="fill:rgb(230,231,232);fill-rule:nonzero;"/>
                </g>
                <g transform="matrix(1,0,0,1,117.573,132.44)">
                    <path d="M0,0.329C1.64,-0.28 2.2,-2.78 1.3,-5.431C0.42,-8.021 -1.69,-9.591 -3.32,-8.981C-4.95,-8.37 -5.56,-5.78 -4.6,-3.221C-3.65,-0.671 -1.63,0.939 0,0.329M24.672,25.395C25.722,25.415 25.88,25.14 26.86,24.75L27.62,24.39L29.48,23.51L30.03,23.25L32.68,22L35.74,20.559C41.47,18.239 43.43,9.899 40.34,1.439C37.32,-6.811 29.79,-11.351 24.06,-9.04L15.7,-6.131L14.97,-5.881C12.99,-5.08 11.45,-3.54 10.43,-1.521L8.86,-2.231L1.02,5.729L-10.43,1.51L-10.43,1.5L-10.78,-8.471L-12.41,-9.181L-20.74,-1.171L-20.79,-1.221C-18.03,-3.9 -17.41,-9.7 -19.56,-16C-22.08,-23.341 -27.58,-27.61 -31.88,-26L-40.31,-23.601C-40.54,-23.561 -40.77,-23.49 -40.99,-23.41C-43.99,-22.29 -45.59,-18.421 -45.37,-13.71L-46.21,-13.65L-48.16,-42.381C-48.16,-42.381 -48.23,-43.551 -48.27,-43.941C-48.42,-45.45 -48.72,-47.75 -47.62,-49.851C-47.17,-50.691 -46.54,-51.12 -45.87,-51.33C-45.83,-51.341 -45.78,-51.36 -45.74,-51.37C-44.74,-51.631 -43.67,-51.421 -43.01,-51.261C-42.23,-51.07 1.99,-40.801 29.46,-34.421C41.89,-31.53 50.9,-29.441 50.9,-29.441C50.9,-29.441 55.47,-28.381 57.37,-24.82C59.27,-21.261 59.11,-17.37 59.11,-16.391C59.11,-15.521 57.66,32.6 57.35,43.079C57.31,44.359 57.3,44.229 57.29,45.069C57.26,46.489 57.34,49.18 55.68,50.579C55.41,50.84 55.09,51.04 54.71,51.189C53.83,51.55 53.12,51.739 52.48,51.8C50.94,51.96 49.87,51.369 47.94,50.59C47.006,50.213 35.009,45.267 20.151,39.108" style="fill:rgb(230,231,232);fill-rule:nonzero;"/>
                </g>
                <g transform="matrix(1,0,0,1,94.2925,93.49)">
                    <path d="M0,-9.28L20.75,-13.81L20.8,-11.44L29.95,-7.9L46.99,-5.92L66.58,-6.22L81.79,-8.61L88.36,-12.28C88.55,-11.52 87.52,-10.58 85.99,-9.78C84.45,-8.98 81.78,-8.16 81.78,-8.16L53.14,-0.05L53.14,2.75L52.74,4.53C25.27,-1.85 -18.95,-12.12 -19.73,-12.31C-20.39,-12.47 -21.46,-12.68 -22.46,-12.42C-22.46,-12.42 -20.3,-13.04 -19.12,-13.27C-17.94,-13.5 -17.23,-13.28 -15.75,-13C-14.27,-12.71 0,-9.28 0,-9.28" style="fill:rgb(230,231,232);fill-rule:nonzero;"/>
                </g>
                <g transform="matrix(1,0,0,1,75.1528,73.76)">
                    <path d="M0,3.99L39.7,-3.93L39.85,3.38L39.84,3.38L19.14,7.92C19.14,7.92 4.15,4.46 2.5,4.15C1.62,3.98 0.78,3.89 0,3.99" style="fill:rgb(230,231,232);fill-rule:nonzero;"/>
                </g>
                <g transform="matrix(1,0,0,1,232.292,173.14)">
                    <path d="M0,-88.33C2.37,-85.34 2.77,-83.8 2.7,-79.96L-1.52,-27.239C-1.52,-27.239 -1.84,-24.37 -2.11,-23.59C-2.41,-22.729 -3.13,-21.059 -5.23,-19.84C-7.26,-18.659 -54.13,10.54 -54.13,10.54C-53.37,9.811 -52.82,8.891 -52.42,7.88C-51.54,5.681 -51.61,-2.149 -51.61,-2.149L-49.69,-57.71C-49.69,-57.71 -49.09,-64.47 -51.92,-68.449C-54.58,-72.199 -57.39,-73.75 -60.29,-74.409C-62.73,-74.96 -84.86,-79.699 -84.86,-79.699L-56.22,-87.809C-56.22,-87.809 -53.55,-88.63 -52.01,-89.43C-50.48,-90.229 -49.45,-91.17 -49.64,-91.93L-49.37,-98.87L-6.67,-91.899C-6.67,-91.899 -2.38,-91.319 0,-88.33" style="fill:rgb(230,231,232);fill-rule:nonzero;"/>
                </g>
                <g transform="matrix(1,0,0,1,114.823,86.7918)">
                    <path d="M0,-18.782L9.14,-15.792L26.48,-14.181L46.18,-14.462L61.73,-16.442L68.37,-19.561L68.1,-12.522L67.83,-5.582L61.26,-1.912L46.05,0.478L26.46,0.779L9.42,-1.202L0.27,-4.742L0.22,-7.112L0.18,-9.652L0.03,-16.962L0,-18.782Z" style="fill:rgb(230,231,232);fill-rule:nonzero;"/>
                </g>
                <g transform="matrix(1,0,0,1,192.983,72.1106)">
                    <path d="M0,-47.511L0,-47.5C0,-47.5 -0.42,-38 -0.48,-36.061C-0.54,-34.12 -1.25,-32.66 -1.25,-32.66L-8.34,-12.971C-8.34,-12.971 -11.16,-5.12 -11.5,-4.781C-11.75,-4.531 -13.4,-2.891 -20.57,-1.651C-27.74,-0.401 -41.11,0 -43.59,0C-46.08,0 -54.44,-0.24 -61.81,-0.841C-69.47,-1.481 -75.05,-3.391 -76.27,-4C-77.5,-4.611 -78.16,-6.08 -78.16,-6.08C-78.16,-6.08 -87.28,-31.74 -87.7,-33.061C-88.13,-34.391 -88.25,-35.29 -88.25,-35.29L-88.58,-47.16L-88.58,-47.17L-77.17,-45.781L-54.33,-44.95L-27.88,-45.111L-7.43,-46.191L0,-47.511Z" style="fill:rgb(230,231,232);fill-rule:nonzero;"/>
                </g>
                <g transform="matrix(1,0,0,1,193.853,27.1599)">
                    <path d="M0,-8.78L-0.25,-2.67L-0.87,-2.56L-8.3,-1.24L-28.75,-0.16L-55.2,0L-78.04,-0.83L-89.45,-2.219L-89.63,-2.24L-89.8,-8.469L-78.2,-7.52L-55.18,-6.88L-28.71,-6.94L-8.2,-7.759L0,-8.78Z" style="fill:rgb(230,231,232);fill-rule:nonzero;"/>
                </g>
                <g transform="matrix(1,0,0,1,104.953,18.8005)">
                    <path d="M0,-1.32L11.59,-2.251L23.29,-2.621L33.07,-2.8L53.36,-2.8L63.33,-2.64L74.69,-2.251L81.74,-1.89L84.82,-1.661L88.9,-0.421L80.7,0.6L60.19,1.419L33.72,1.48L10.7,0.839L-0.9,-0.11L0,-1.32Z" style="fill:rgb(230,231,232);fill-rule:nonzero;"/>
                </g>
                <g transform="matrix(-0.901544,0.432687,0.432687,0.901544,76.187,168.375)">
                    <path d="M-25.024,-5.694C-23.546,-5.846 -8.416,-9.423 1.296,-5.694" style="fill:none;fill-rule:nonzero;stroke:rgb(35,31,32);stroke-width:0.75px;"/>
                </g>
                <g transform="matrix(1,0,0,1,110.024,152.767)">
                    <path d="M0,-5.12C-2.087,-3.857 -4.449,-3.136 -6.753,-2.394C-9.068,-1.66 -11.359,-0.877 -13.615,0L-13.868,-0.705C-11.553,-1.471 -9.208,-2.14 -6.859,-2.755C-4.516,-3.377 -2.15,-3.967 0,-5.12" style="fill:rgb(35,31,32);fill-rule:nonzero;"/>
                </g>
                <g transform="matrix(1,0,0,1,72.793,167.097)">
                    <path d="M0,-3.005C-0.669,-2.535 -1.273,-1.926 -1.864,-1.303L-3.64,0.581L-2.154,-1.541C-1.655,-2.247 -1.137,-2.957 -0.475,-3.586L0,-3.005Z" style="fill:rgb(35,31,32);fill-rule:nonzero;"/>
                </g>
                <g transform="matrix(1,0,0,1,72.5557,200.439)">
                    <path d="M0,-36.637C-3.364,-34.185 -4.994,-35.035 -12.701,-26.888C-19.444,-19.76 -20.412,-8.972 -17.251,0" style="fill:none;fill-rule:nonzero;stroke:rgb(35,31,32);stroke-width:0.75px;"/>
                </g>
                <g transform="matrix(1,0,0,1,55.6577,204.156)">
                    <path d="M0,-3.843L1.195,0L-0.707,-3.594L0,-3.843Z" style="fill:rgb(35,31,32);fill-rule:nonzero;"/>
                </g>
                <g transform="matrix(-0.794728,-0.606966,-0.606966,0.794728,99.4163,202.077)">
                    <path d="M-15.529,-26.125C-16.03,-24.788 -16.073,-23.693 -15.849,-22.699C-15.043,-19.119 -16.546,-17.095 -15.529,-9.78C-14.966,-5.732 -12.484,-2.747 -11.778,-0.37C-10.697,3.27 -8.835,5.252 -8.835,5.252" style="fill:none;fill-rule:nonzero;stroke:rgb(35,31,32);stroke-width:0.75px;"/>
                </g>
                <g transform="matrix(1,0,0,1,128.55,190.829)">
                    <path d="M0,-3.93L-0.572,0L-1.3,-0.178L0,-3.93Z" style="fill:rgb(35,31,32);fill-rule:nonzero;"/>
                </g>
                <g transform="matrix(0.86953,0.49388,0.49388,-0.86953,119.28,185.316)">
                    <path d="M10.071,-1.487C10.071,-1.487 11.375,-0.894 11.788,0.114C14.946,7.818 12.601,13.47 10.071,19.125C7.542,24.778 8.011,25.517 7.015,31.281C6.019,37.047 6.493,36.173 5.567,38.236" style="fill:none;fill-rule:nonzero;stroke:rgb(35,31,32);stroke-width:0.75px;"/>
                </g>
                <g transform="matrix(1,0,0,1,55.3345,222.389)">
                    <path d="M0,-21.874C0,-21.874 0.308,-16.292 3.17,-12.693C6.033,-9.095 4.02,-4.703 5.976,-1.902C7.305,0 10.604,-0.46 12.267,-0.856" style="fill:none;fill-rule:nonzero;stroke:rgb(35,31,32);stroke-width:0.75px;stroke-linecap:round;stroke-linejoin:round;"/>
                </g>
                <g transform="matrix(1,0,0,1,66.2451,221.389)">
                    <path d="M0,0.018C1.217,-0.153 2.447,-0.46 3.658,-0.799C2.533,-0.225 1.395,0.318 0.174,0.747C-0.022,0.817 -0.237,0.714 -0.307,0.518C-0.376,0.321 -0.273,0.106 -0.077,0.037C-0.053,0.029 -0.023,0.022 0,0.018" style="fill:rgb(35,31,32);fill-rule:nonzero;"/>
                </g>
                <g transform="matrix(1,0,0,1,66.3325,218.661)">
                    <path d="M0,3.112C1.667,2.596 4.695,2.872 7.011,2.251C9.511,1.581 11.285,0.991 14.273,0" style="fill:none;fill-rule:nonzero;stroke:rgb(35,31,32);stroke-width:0.75px;stroke-linecap:round;stroke-linejoin:round;"/>
                </g>
                <g transform="matrix(1,0,0,1,104.43,219.734)">
                    <path d="M0,-9.71C-0.392,-9.145 -0.752,-8.587 -1.179,-8.121C-8.632,0 -16.932,-0.57 -24.031,-1.074" style="fill:none;fill-rule:nonzero;stroke:rgb(35,31,32);stroke-width:0.75px;"/>
                </g>
                <g transform="matrix(1,0,0,1,80.3726,218.558)">
                    <path d="M0,0.476C-2.516,0.146 -5.092,0.306 -7.611,0.835C-5.162,0.065 -2.56,-0.359 0.053,-0.272L0,0.476Z" style="fill:rgb(35,31,32);fill-rule:nonzero;"/>
                </g>
                <g transform="matrix(1,0,0,1,105.905,210.238)">
                    <path d="M0,-3.24L-0.53,-1.628L-0.816,-0.823C-0.92,-0.552 -1.012,-0.295 -1.167,0L-1.784,-0.427C-1.631,-0.603 -1.469,-0.848 -1.318,-1.077L-0.869,-1.788L0,-3.24Z" style="fill:rgb(35,31,32);fill-rule:nonzero;"/>
                </g>
                <g transform="matrix(1,0,0,1,104.43,204.624)">
                    <path d="M0,-16.541C0.838,-15.378 1.56,-14.128 2.112,-12.784C2.677,-11.446 3.009,-10.003 3.137,-8.556C3.256,-7.105 3.214,-5.655 3.045,-4.228C2.874,-2.8 2.621,-1.389 2.263,0L2.47,-4.27C2.502,-5.687 2.522,-7.096 2.391,-8.488C2.285,-9.884 1.991,-11.249 1.573,-12.588C1.15,-13.927 0.569,-15.226 0,-16.541" style="fill:rgb(35,31,32);fill-rule:nonzero;"/>
                </g>
                <g transform="matrix(1,0,0,1,125.627,185.276)">
                    <path d="M0,-11.038C0.146,-10.082 0.057,-9.092 -0.064,-8.154C-0.175,-7.214 -0.261,-6.303 -0.175,-5.394C-0.031,-3.571 0.665,-1.814 1.302,0C0.148,-1.526 -0.741,-3.338 -0.922,-5.333C-1.001,-6.328 -0.869,-7.326 -0.639,-8.257C-0.418,-9.191 -0.146,-10.083 0,-11.038" style="fill:rgb(35,31,32);fill-rule:nonzero;"/>
                </g>
                <g transform="matrix(1,0,0,1,138.816,174.523)">
                    <path d="M0,-6.481C-0.288,-5.302 -0.657,-4.177 -1.092,-3.067C-1.525,-1.96 -2.038,-0.884 -2.646,0.128C-2.148,-0.943 -1.757,-2.054 -1.447,-3.185C-1.138,-4.313 -0.892,-5.47 -0.739,-6.609L0,-6.481Z" style="fill:rgb(35,31,32);fill-rule:nonzero;"/>
                </g>
                <g transform="matrix(-0.846007,-0.533172,-0.533172,0.846007,143.775,146.612)">
                    <path d="M-0.22,-1.692C-0.478,-1.154 -0.677,-0.616 -0.798,-0.073C-0.601,-0.183 -0.401,-0.278 -0.22,-0.362C-0.193,-0.905 -0.157,-1.441 -0.144,-1.702C-0.172,-1.695 -0.198,-1.689 -0.22,-1.692" style="fill:rgb(198,200,202);fill-rule:nonzero;"/>
                </g>
                <g transform="matrix(1,0,0,1,144.49,148.634)">
                    <path d="M0,-1.658C-0.286,-0.79 -0.709,-0.04 -1.27,0.552C-1.25,-0.346 -1.103,-0.879 -1.063,-0.997C-1.054,-1.016 -1.054,-1.026 -1.054,-1.026C-0.995,-1.125 -0.936,-1.223 -0.866,-1.332C-0.709,-1.579 -0.522,-1.894 -0.335,-2.21C-0.227,-2.043 -0.108,-1.855 0,-1.658" style="fill:rgb(198,200,202);fill-rule:nonzero;"/>
                </g>
                <g transform="matrix(1,0,0,1,137.666,137.113)">
                    <path d="M0,-1.845C-1.112,-1.509 -3.604,-0.652 -5.553,0C-5.464,-0.296 -5.366,-0.592 -5.238,-0.859C-2.412,-1.499 -0.295,-1.805 0,-1.845" style="fill:rgb(147,149,152);fill-rule:nonzero;"/>
                </g>
                <g transform="matrix(1,0,0,1,137.666,133.709)">
                    <path d="M0,1.559C-0.295,1.599 -2.412,1.905 -5.238,2.545C-4.687,1.244 -3.781,0.247 -2.58,-0.236C-0.729,-0.986 1.467,-0.354 3.318,1.234C3.121,1.214 1.536,1.106 0.04,1.549C0.04,1.549 0.03,1.549 0,1.559" style="fill:rgb(147,149,152);fill-rule:nonzero;"/>
                </g>
                <g transform="matrix(1,0,0,1,93.3379,112.076)">
                    <path d="M0,41.166C-6.863,38.296 -12.193,35.98 -14.559,34.999C-15.446,34.631 -15.588,34.586 -15.924,34.433C-16.97,33.957 -17.867,33.4 -19.275,31.187C-20.472,29.307 -20.498,27.842 -20.651,26.281C-20.698,25.806 -20.779,24.374 -20.779,24.374L-23.928,-22.021C-23.928,-22.021 -23.994,-23.19 -24.032,-23.579C-24.182,-25.09 -24.48,-27.39 -23.38,-29.481C-22.259,-31.614 -19.918,-31.163 -18.777,-30.892C-17.636,-30.62 75.138,-9.071 75.138,-9.071C75.138,-9.071 79.702,-8.012 81.604,-4.452C83.505,-0.893 83.342,2.993 83.342,3.972C83.342,4.844 81.897,52.966 81.582,63.439C81.543,64.72 81.541,64.595 81.522,65.437C81.486,67.096 81.604,70.464 78.941,71.551C75.93,72.78 74.892,72.052 72.177,70.953C71.138,70.533 61.546,66.591 44.385,59.475" style="fill:none;fill-rule:nonzero;stroke:rgb(35,31,32);stroke-width:0.75px;stroke-linecap:round;stroke-linejoin:round;"/>
                </g>
                <g transform="matrix(1,0,0,1,170.051,94.6729)">
                    <path d="M0,89.582C0,89.582 1.549,90.815 4.47,90.571C7.39,90.327 8.938,88.547 9.821,86.346C10.704,84.145 10.636,76.319 10.636,76.319L12.552,20.757C12.552,20.757 13.154,13.993 10.328,10.017C7.662,6.267 4.85,4.718 1.957,4.061C-0.491,3.504 -22.616,-1.233 -22.616,-1.233L-22.616,1.567L1.658,7.043C1.658,7.043 4.486,7.694 6.429,9.568C8.436,11.504 9.504,13.808 9.689,15.384C9.854,16.781 9.871,19.133 9.871,19.555C9.871,19.935 8.215,71.068 7.904,80.992C7.87,82.06 7.874,82.236 7.852,82.65C7.757,84.414 6.97,86.875 3.209,88.358" style="fill:none;fill-rule:nonzero;stroke:rgb(35,31,32);stroke-width:0.75px;stroke-linecap:round;stroke-linejoin:round;"/>
                </g>
                <g transform="matrix(1,0,0,1,183.193,86.4694)">
                    <path d="M0,-19.238L-0.537,-5.258L-7.111,-1.59L-22.324,0.802L-41.912,1.101L-58.945,-0.883L-68.1,-4.415L-68.372,-18.464L-59.23,-15.467L-41.891,-13.858L-22.188,-14.143L-6.643,-16.12L0,-19.238L-0.978,-20.339" style="fill:none;fill-rule:nonzero;stroke:rgb(35,31,32);stroke-width:0.75px;stroke-linecap:round;stroke-linejoin:round;"/>
                </g>
                <g transform="matrix(1,0,0,1,115.048,81.6708)">
                    <path d="M0,-1.995L-20.751,2.54L-20.751,0.01L-0.05,-4.535" style="fill:none;fill-rule:nonzero;stroke:rgb(35,31,32);stroke-width:0.75px;stroke-linecap:round;stroke-linejoin:round;"/>
                </g>
                <g transform="matrix(1,0,0,1,71.8296,83.1283)">
                    <path d="M0,-2.056C0,-2.056 2.161,-2.677 3.343,-2.909C4.524,-3.139 5.23,-2.922 6.711,-2.636C8.192,-2.351 22.468,1.083 22.468,1.083" style="fill:none;fill-rule:nonzero;stroke:rgb(35,31,32);stroke-width:0.75px;stroke-linecap:round;stroke-linejoin:round;"/>
                </g>
                <g transform="matrix(1,0,0,1,71.7017,78.1024)">
                    <path d="M0,3.006C0,3.006 0.36,1.52 1.583,0.474C2.805,-0.572 4.312,-0.505 5.956,-0.192C7.6,0.12 22.596,3.578 22.596,3.578" style="fill:none;fill-rule:nonzero;stroke:rgb(35,31,32);stroke-width:0.75px;stroke-linecap:round;stroke-linejoin:round;"/>
                </g>
                <g transform="matrix(0.980676,-0.195638,-0.195638,-0.980676,76.1933,81.5905)">
                    <path d="M-0.392,3.973L40.218,3.973" style="fill:none;fill-rule:nonzero;stroke:rgb(35,31,32);stroke-width:0.75px;stroke-linecap:round;stroke-linejoin:round;"/>
                </g>
                <g transform="matrix(1,0,0,1,147.435,81.2115)">
                    <path d="M0,12.228L28.634,4.118C28.634,4.118 31.31,3.302 32.845,2.5C34.379,1.699 35.411,0.761 35.221,0" style="fill:none;fill-rule:nonzero;stroke:rgb(35,31,32);stroke-width:0.75px;stroke-linecap:round;stroke-linejoin:round;"/>
                </g>
                <g transform="matrix(1,0,0,1,182.923,183.682)">
                    <path d="M0,-109.411L42.698,-102.442C42.698,-102.442 46.99,-101.858 49.367,-98.869C51.744,-95.88 52.138,-94.345 52.07,-90.5L47.846,-37.784C47.846,-37.784 47.535,-34.911 47.262,-34.129C46.963,-33.273 46.243,-31.602 44.138,-30.38C42.111,-29.202 -4.763,0 -4.763,0" style="fill:none;fill-rule:nonzero;stroke:rgb(35,31,32);stroke-width:0.75px;stroke-linecap:round;stroke-linejoin:round;"/>
                </g>
                <g transform="matrix(1,0,0,1,104.057,26.8595)">
                    <path d="M0,-8.173L0.163,-1.937L11.756,-0.53L34.597,0.306L61.043,0.142L81.5,-0.938L89.548,-2.364L89.792,-8.479L81.602,-7.459L61.084,-6.645L34.617,-6.583L11.593,-7.215L0,-8.173Z" style="fill:none;fill-rule:nonzero;stroke:rgb(35,31,32);stroke-width:0.75px;stroke-linecap:round;stroke-linejoin:round;"/>
                </g>
                <g transform="matrix(1,0,0,1,104.057,15.9965)">
                    <path d="M0,2.69L0.896,1.488L12.49,0.55L24.185,0.183L33.965,0L54.258,0L64.222,0.163L75.591,0.55L82.641,0.918L85.717,1.141L89.792,2.384" style="fill:none;fill-rule:nonzero;stroke:rgb(35,31,32);stroke-width:0.75px;stroke-linecap:round;stroke-linejoin:round;"/>
                </g>
                <g transform="matrix(1,0,0,1,104.406,71.7743)">
                    <path d="M0,-46.829L0.324,-34.95C0.324,-34.95 0.446,-34.053 0.874,-32.728C1.302,-31.403 10.416,-5.742 10.416,-5.742C10.416,-5.742 11.082,-4.275 12.304,-3.663C13.526,-3.052 19.109,-1.14 26.77,-0.508C34.135,0.1 42.5,0.34 44.985,0.34C47.471,0.34 60.837,-0.068 68.009,-1.311C75.181,-2.555 76.831,-4.195 77.076,-4.441C77.422,-4.787 80.234,-12.634 80.234,-12.634L87.325,-32.32C87.325,-32.32 88.038,-33.788 88.099,-35.725C88.16,-37.66 88.576,-47.169 88.576,-47.169" style="fill:none;fill-rule:nonzero;stroke:rgb(35,31,32);stroke-width:0.75px;stroke-linecap:round;stroke-linejoin:round;"/>
                </g>
                <g transform="matrix(0,-1,-1,0,115.809,67.0189)">
                    <path d="M-0.987,0.987L0.987,0.987" style="fill:none;fill-rule:nonzero;stroke:rgb(35,31,32);stroke-width:0.75px;stroke-linecap:round;stroke-linejoin:round;"/>
                </g>
                <g transform="matrix(0.350287,0.936643,0.936643,-0.350287,75.8793,116.048)">
                    <path d="M7.723,-5.357C15.485,-5.358 21.8,-1.854 21.8,2.74C21.799,7.334 15.681,11.059 7.723,11.278C-0.037,11.492 -6.325,7.711 -6.325,3.118C-6.325,-1.476 -0.039,-5.356 7.723,-5.357Z" style="fill:none;fill-rule:nonzero;stroke:rgb(35,31,32);stroke-width:0.75px;stroke-linecap:round;stroke-linejoin:round;"/>
                </g>
                <g transform="matrix(0.948253,0.317516,0.317516,-0.948253,136.777,157.831)">
                    <path d="M5.155,1.844C5.843,2.138 6.457,2.527 7.061,3.042C11.763,7.057 10.931,15.807 5.155,23.03C-0.476,30.071 -9.245,32.322 -13.946,28.307C-17.333,25.415 -17.894,20.066 -15.733,14.685" style="fill:none;fill-rule:nonzero;stroke:rgb(35,31,32);stroke-width:0.75px;stroke-linecap:round;stroke-linejoin:round;"/>
                </g>
                <g transform="matrix(0.944704,-0.327924,-0.327924,-0.944704,129.203,131.923)">
                    <path d="M4.912,3.971L14.536,3.971C20.711,4.278 26.333,-2.483 26.478,-11.263C26.627,-20.27 22.039,-27.506 15.865,-27.813L6.108,-28.865" style="fill:none;fill-rule:nonzero;stroke:rgb(35,31,32);stroke-width:0.75px;stroke-linecap:round;stroke-linejoin:round;"/>
                </g>
                <g transform="matrix(1,0,0,1,143.241,132.2)">
                    <path d="M0,16.981C1.876,14.991 2.292,11.188 0.882,7.341C-0.821,2.699 -4.99,0 -8.136,1.269C-9.592,1.857 -10.617,3.192 -11.113,4.919" style="fill:none;fill-rule:nonzero;stroke:rgb(35,31,32);stroke-width:0.75px;stroke-linecap:round;stroke-linejoin:round;"/>
                </g>
                <g transform="matrix(0.961854,-0.273564,-0.273564,-0.961854,73.9951,112.741)">
                    <path d="M3.505,2.859L12.976,2.859C17.555,3.23 21.675,-2.38 22.087,-10.132C22.511,-18.082 19.298,-24.277 14.719,-24.649L5.398,-25.204" style="fill:none;fill-rule:nonzero;stroke:rgb(35,31,32);stroke-width:0.75px;stroke-linecap:round;stroke-linejoin:round;"/>
                </g>
                <g transform="matrix(0.350283,0.936644,0.936644,-0.350283,78.0137,118.928)">
                    <path d="M4.236,-2.938C8.539,-2.939 12.041,-1.017 12.041,1.503C12.04,4.022 8.648,6.065 4.236,6.186C-0.067,6.303 -3.553,4.229 -3.553,1.709C-3.553,-0.809 -0.067,-2.938 4.236,-2.938" style="fill:rgb(147,149,152);fill-rule:nonzero;"/>
                </g>
                <g transform="matrix(0.350283,0.936644,0.936644,-0.350283,78.0137,118.928)">
                    <path d="M4.236,-2.938C8.539,-2.939 12.041,-1.017 12.041,1.503C12.04,4.022 8.648,6.065 4.236,6.186C-0.067,6.303 -3.553,4.229 -3.553,1.709C-3.553,-0.809 -0.067,-2.938 4.236,-2.938Z" style="fill:none;fill-rule:nonzero;stroke:rgb(35,31,32);stroke-width:0.75px;stroke-linecap:round;stroke-linejoin:round;"/>
                </g>
                <g transform="matrix(0.350324,0.936629,0.936629,-0.350324,113.845,125.762)">
                    <path d="M2.927,-2.029C5.656,-2.029 7.875,-0.701 7.876,1.04C7.875,2.781 5.724,4.193 2.927,4.276C0.2,4.358 -2.01,2.924 -2.01,1.183C-2.01,-0.558 0.2,-2.029 2.927,-2.029" style="fill:rgb(147,149,152);fill-rule:nonzero;"/>
                </g>
                <g transform="matrix(0.350324,0.936629,0.936629,-0.350324,113.845,125.762)">
                    <path d="M2.927,-2.029C5.656,-2.029 7.875,-0.701 7.876,1.04C7.875,2.781 5.724,4.193 2.927,4.276C0.2,4.358 -2.01,2.924 -2.01,1.183C-2.01,-0.558 0.2,-2.029 2.927,-2.029Z" style="fill:none;fill-rule:nonzero;stroke:rgb(35,31,32);stroke-width:0.75px;stroke-linecap:round;stroke-linejoin:round;"/>
                </g>
                <g transform="matrix(1,0,0,1,113.136,123.263)">
                    <path d="M0,22.657L-13.106,17.648L-17.413,9.075L-7.972,0L-6.342,0.706L-5.99,10.682" style="fill:none;fill-rule:nonzero;stroke:rgb(35,31,32);stroke-width:0.75px;stroke-linecap:round;stroke-linejoin:round;"/>
                </g>
                <g transform="matrix(-0.909349,-0.416034,-0.416034,0.909349,100.666,125.259)">
                    <path d="M-27.212,-6.223L-25.491,-6.223L-21.677,4.277L-1.309,5.827L-5.035,-3.722" style="fill:none;fill-rule:nonzero;stroke:rgb(35,31,32);stroke-width:0.75px;stroke-linecap:round;stroke-linejoin:round;"/>
                </g>
                <g transform="matrix(1,0,0,1,95.7236,139.419)">
                    <path d="M0,-7.081L23.24,1.085L32.127,-8.166" style="fill:none;fill-rule:nonzero;stroke:rgb(35,31,32);stroke-width:0.75px;stroke-linecap:round;stroke-linejoin:round;"/>
                </g>
                <g transform="matrix(0.368214,0.929741,0.929741,-0.368214,119.917,140.717)">
                    <path d="M-0.549,-0.808L1.189,-0.808" style="fill:none;fill-rule:nonzero;stroke:rgb(35,31,32);stroke-width:0.75px;stroke-linecap:round;stroke-linejoin:round;"/>
                </g>
                <g transform="matrix(1,0,0,1,141.02,152.551)">
                    <path d="M0,-17.605C0,-17.605 -1.694,-17.768 -3.297,-17.293C-4.9,-16.817 -9.559,-15.172 -11.067,-14.724C-12.575,-14.276 -15.59,-13.433 -18.035,-12.116C-20.48,-10.797 -22.436,-10.091 -24.963,-8.447C-27.489,-6.803 -29.73,-5.553 -30.423,-5.2C-31.116,-4.847 -32.203,-4.303 -34.227,-4.045C-36.25,-3.787 -39.556,-4.295 -42.838,-2.967C-44.365,-2.349 -45.551,-1.305 -45.779,0.163" style="fill:none;fill-rule:nonzero;stroke:rgb(35,31,32);stroke-width:0.75px;stroke-linecap:round;stroke-linejoin:round;"/>
                </g>
                <g transform="matrix(1,0,0,1,120.989,169.633)">
                    <path d="M0,-15.162C-1.426,-14.293 -2.785,-13.423 -3.288,-10.787C-3.79,-8.151 -2.404,-5.325 -1.657,-3.912C-0.91,-2.5 -0.123,-1.032 0.991,-0.516C2.105,0 3.45,-0.108 4.455,-1.413C5.46,-2.717 6.058,-3.288 6.683,-4.008" style="fill:none;fill-rule:nonzero;stroke:rgb(35,31,32);stroke-width:0.75px;stroke-linecap:round;stroke-linejoin:round;"/>
                </g>
                <g transform="matrix(1,0,0,1,127.388,165.149)">
                    <path d="M0,0.23L1.248,-0.774L0.566,0.722C0.478,0.917 0.246,1.004 0.05,0.916C-0.146,0.826 -0.232,0.595 -0.143,0.399C-0.117,0.342 -0.08,0.294 -0.034,0.257L0,0.23Z" style="fill:rgb(35,31,32);fill-rule:nonzero;"/>
                </g>
                <g transform="matrix(1,0,0,1,122.727,154.929)">
                    <path d="M0,-1.871C-0.167,-1.524 -0.43,-1.227 -0.692,-0.942C-0.959,-0.657 -1.247,-0.392 -1.543,-0.138C-1.702,0 -1.942,-0.017 -2.08,-0.176C-2.217,-0.334 -2.201,-0.574 -2.042,-0.712C-2.01,-0.74 -1.971,-0.763 -1.934,-0.778C-1.59,-0.916 -1.25,-1.065 -0.921,-1.239C-0.596,-1.417 -0.267,-1.601 0,-1.871" style="fill:rgb(35,31,32);fill-rule:nonzero;"/>
                </g>
                <g transform="matrix(1,0,0,1,119.63,168.316)">
                    <path d="M0,-11.386C-0.635,-10.494 -0.755,-9.444 -0.68,-8.414C-0.625,-7.368 -0.487,-6.338 -0.175,-5.36C-0.031,-4.864 0.162,-4.397 0.385,-3.918L1.029,-2.456C1.479,-1.523 1.92,-0.534 2.879,0C1.784,-0.257 1.042,-1.273 0.51,-2.187C-0.01,-3.133 -0.55,-4.056 -0.891,-5.139C-1.215,-6.205 -1.329,-7.326 -1.263,-8.416C-1.255,-9.503 -0.864,-10.707 0,-11.386" style="fill:rgb(35,31,32);fill-rule:nonzero;"/>
                </g>
                <g transform="matrix(1,0,0,1,127.335,165.722)">
                    <path d="M0,-0.282C0.196,-0.447 0.409,-0.47 0.542,-0.472L0.923,-0.47C1.158,-0.475 1.398,-0.541 1.627,-0.668C1.486,-0.452 1.283,-0.252 1.034,-0.113L0.681,0.072C0.572,0.129 0.536,0.195 0.559,0.218C0.421,0.372 0.184,0.386 0.029,0.247C-0.125,0.11 -0.138,-0.128 0,-0.282" style="fill:rgb(35,31,32);fill-rule:nonzero;"/>
                </g>
                <g transform="matrix(1,0,0,1,126.039,162.046)">
                    <path d="M0,-4.89C0.538,-4.869 0.986,-4.557 1.237,-4.131C1.347,-3.902 1.381,-3.639 1.467,-3.42C1.55,-3.199 1.679,-3.003 1.814,-2.791C1.944,-2.582 2.073,-2.352 2.108,-2.107C2.171,-1.864 2.208,-1.615 2.19,-1.367C2.149,-0.87 1.953,-0.399 1.611,-0.018C1.596,-0.001 1.569,0.001 1.552,-0.015C1.546,-0.021 1.541,-0.031 1.539,-0.038C1.423,-0.543 1.415,-0.97 1.39,-1.39C1.42,-1.812 1.393,-2.211 1.422,-2.67C1.42,-2.896 1.379,-3.124 1.251,-3.308C1.122,-3.492 0.913,-3.619 0.743,-3.75C0.438,-4.048 0.208,-4.371 -0.036,-4.825L-0.039,-4.829C-0.049,-4.849 -0.042,-4.874 -0.021,-4.885C-0.015,-4.889 -0.007,-4.891 0,-4.89" style="fill:rgb(35,31,32);fill-rule:nonzero;"/>
                </g>
                <g transform="matrix(1,0,0,1,111.031,148.966)">
                    <path d="M0,-1.419C-0.665,-1.126 -1.299,-0.933 -1.863,-0.568C-2.433,-0.214 -2.938,0.264 -3.408,0.773C-3.037,0.188 -2.623,-0.382 -2.091,-0.866C-1.563,-1.361 -0.908,-1.704 -0.363,-2.075C-0.191,-2.192 0.043,-2.148 0.16,-1.976C0.277,-1.804 0.233,-1.569 0.061,-1.452C0.042,-1.44 0.021,-1.428 0,-1.419" style="fill:rgb(35,31,32);fill-rule:nonzero;"/>
                </g>
                <g transform="matrix(1,0,0,1,122.943,163.536)">
                    <path d="M0,2.733C0.584,2.851 1.007,2.883 1.421,2.83C1.634,2.825 1.915,2.796 2.118,2.629C2.328,2.473 2.445,2.222 2.542,1.968C2.706,1.443 2.899,0.977 3.068,0.487C3.295,0.033 3.44,-0.528 3.958,-0.938C3.974,-0.951 3.997,-0.948 4.009,-0.932C4.015,-0.924 4.018,-0.915 4.017,-0.907L4.015,-0.89C3.968,-0.362 4.01,0.208 3.82,0.759C3.623,1.296 3.317,1.809 2.884,2.195C2.671,2.388 2.475,2.59 2.284,2.805C2.105,3.026 1.899,3.283 1.591,3.43C0.944,3.684 0.212,3.34 -0.049,2.79C-0.059,2.769 -0.05,2.745 -0.03,2.735C-0.021,2.731 -0.008,2.731 0,2.733" style="fill:rgb(35,31,32);fill-rule:nonzero;"/>
                </g>
                <g transform="matrix(1,0,0,1,144.898,147.61)">
                    <path d="M0,-2.508C0,-2.508 -0.753,-1.08 -1.252,-0.306C-1.321,-0.198 -1.385,-0.097 -1.442,0" style="fill:none;fill-rule:nonzero;stroke:rgb(35,31,32);stroke-width:0.75px;stroke-linecap:round;stroke-linejoin:round;"/>
                </g>
                <g transform="matrix(1,0,0,1,143.777,148.096)">
                    <path d="M0,-0.294C-0.322,0.011 -0.64,0.329 -0.886,0.716C-0.878,0.251 -0.769,-0.219 -0.644,-0.678C-0.588,-0.886 -0.375,-1.01 -0.167,-0.954C0.042,-0.898 0.165,-0.685 0.109,-0.477C0.09,-0.405 0.05,-0.342 0,-0.294" style="fill:rgb(35,31,32);fill-rule:nonzero;"/>
                </g>
                <g transform="matrix(1,0,0,1,143.456,155.139)">
                    <path d="M0,-7.53C0,-7.53 -0.289,-6.746 -0.197,-5.299C-0.105,-3.851 0.098,-1.518 -0.574,0" style="fill:none;fill-rule:nonzero;stroke:rgb(35,31,32);stroke-width:0.75px;stroke-linecap:round;stroke-linejoin:round;"/>
                </g>
                <g transform="matrix(0.166213,0.98609,0.98609,-0.166213,130.648,191.159)">
                    <path d="M-0.527,-0.611C-0.352,-0.653 0.608,-0.61 0.724,-0.611" style="fill:none;fill-rule:nonzero;stroke:rgb(35,31,32);stroke-width:0.75px;stroke-linecap:round;stroke-linejoin:round;"/>
                </g>
                <g transform="matrix(1,0,0,1,130.537,191.985)">
                    <path d="M0,-0.074C-0.099,0.187 -0.204,0.427 -0.308,0.646C-0.454,0.427 -0.599,0.23 -0.739,0.053L-0.748,0.042C-0.897,-0.146 -0.866,-0.421 -0.678,-0.57C-0.489,-0.72 -0.215,-0.688 -0.066,-0.5C0.033,-0.375 0.052,-0.213 0,-0.074" style="fill:rgb(35,31,32);fill-rule:nonzero;"/>
                </g>
                <g transform="matrix(1,0,0,1,138.431,193.625)">
                    <path d="M0,-1.442C-0.046,-1.38 0.276,-0.744 -0.69,-0.552C-1.657,-0.36 -1.983,-0.575 -2.549,0" style="fill:none;fill-rule:nonzero;stroke:rgb(35,31,32);stroke-width:0.75px;stroke-linecap:round;stroke-linejoin:round;"/>
                </g>
                <g transform="matrix(1,0,0,1,134.258,192.129)">
                    <path d="M0,0.553C0,0.553 0.13,0.537 0.337,0.422C0.544,0.307 1.097,0.016 1.956,0" style="fill:none;fill-rule:nonzero;stroke:rgb(35,31,32);stroke-width:0.75px;stroke-linecap:round;stroke-linejoin:round;"/>
                </g>
                <g transform="matrix(1,0,0,1,136.207,192.481)">
                    <path d="M0,-0.727C0.365,-0.693 0.778,-0.782 1.24,-0.815C1.702,-0.854 2.192,-0.766 2.601,-0.572L2.602,-0.572C2.675,-0.54 2.708,-0.456 2.678,-0.383C2.671,-0.368 2.663,-0.355 2.652,-0.343L2.581,-0.264C2.539,-0.218 2.494,-0.168 2.461,-0.121C2.445,-0.096 2.43,-0.072 2.425,-0.05C2.428,-0.041 2.412,0.021 2.523,-0.074C2.399,0.092 2.164,0.127 1.999,0.002C1.833,-0.123 1.799,-0.358 1.923,-0.523C2.074,-0.662 2.112,-0.623 2.167,-0.639C2.216,-0.641 2.255,-0.635 2.294,-0.629C2.372,-0.617 2.439,-0.598 2.511,-0.578L2.489,-0.27L2.488,-0.271C2.092,-0.379 1.702,-0.381 1.315,-0.285C0.929,-0.195 0.511,-0.022 0.013,0.023L-0.001,0.024C-0.209,0.043 -0.392,-0.11 -0.411,-0.318C-0.43,-0.525 -0.276,-0.708 -0.069,-0.727C-0.046,-0.729 -0.022,-0.729 0,-0.727" style="fill:rgb(35,31,32);fill-rule:nonzero;"/>
                </g>
                <g transform="matrix(1,0,0,1,132.913,191.538)">
                    <path d="M0,0.23C0.281,0.075 0.514,-0.005 0.84,-0.181C1.151,-0.343 1.487,-0.466 1.844,-0.566C2.189,-0.638 2.488,-0.717 2.873,-0.76C3.243,-0.792 3.63,-0.741 3.964,-0.594L3.966,-0.593L3.977,-0.283C4.003,-0.155 4.035,-0.081 4.105,-0.142C4.111,-0.103 4.182,-0.324 4.163,-0.276C4.166,-0.288 4.167,-0.283 4.169,-0.269L4.181,-0.186C4.199,-0.054 4.19,0.109 4.142,0.272C4.038,0.608 3.737,0.869 3.457,0.932C3.251,0.979 3.048,0.851 3.001,0.646C2.972,0.516 3.012,0.386 3.099,0.297L3.145,0.251C3.257,0.136 3.308,0.084 3.337,-0.001C3.361,-0.043 3.374,-0.1 3.391,-0.185L3.401,-0.265L3.409,-0.34C3.391,-0.319 3.467,-0.568 3.489,-0.55C3.622,-0.702 3.754,-0.683 3.882,-0.59L3.893,-0.28L3.89,-0.28C3.569,-0.288 3.271,-0.242 2.981,-0.152C2.704,-0.079 2.368,0.076 2.062,0.164C1.774,0.257 1.494,0.408 1.204,0.544C0.942,0.697 0.534,0.832 0.204,0.953C0.013,1.022 -0.198,0.923 -0.267,0.733C-0.33,0.561 -0.256,0.373 -0.101,0.287L0,0.23Z" style="fill:rgb(35,31,32);fill-rule:nonzero;"/>
                </g>
                <g transform="matrix(1,0,0,1,130.4,191.304)">
                    <path d="M0,0.377C-0.103,0.318 -0.024,0.372 -0.005,0.366C0.03,0.373 0.079,0.374 0.132,0.369C0.238,0.36 0.355,0.33 0.48,0.288C0.731,0.202 0.988,0.084 1.239,-0.043C1.5,-0.171 1.712,-0.308 1.994,-0.466C2.266,-0.611 2.583,-0.72 2.905,-0.724L2.91,-0.724C2.966,-0.726 3.02,-0.696 3.053,-0.655C3.154,-0.529 3.225,-0.406 3.265,-0.241C3.307,-0.082 3.29,0.118 3.204,0.287C3.099,0.468 3.039,0.536 2.93,0.662L2.789,0.808C2.761,0.858 2.856,0.74 2.846,0.751L2.721,0.884C2.586,1.027 2.361,1.034 2.218,0.899C2.14,0.825 2.103,0.723 2.107,0.623C2.113,0.508 2.283,0.279 2.359,0.259L2.513,0.173C2.589,0.132 2.715,0.029 2.75,0.002C2.852,-0.067 2.871,-0.284 2.79,-0.471L2.933,-0.403L2.929,-0.402C2.67,-0.366 2.436,-0.253 2.215,-0.099C2.009,0.054 1.754,0.261 1.511,0.419C1.263,0.585 1.01,0.743 0.727,0.882C0.585,0.949 0.428,1.017 0.248,1.056C0.158,1.075 0.062,1.09 -0.046,1.088C-0.17,1.072 -0.241,1.103 -0.466,0.965C-0.628,0.836 -0.656,0.6 -0.527,0.438C-0.398,0.275 -0.162,0.248 0,0.377" style="fill:rgb(35,31,32);fill-rule:nonzero;"/>
                </g>
                <g transform="matrix(1,0,0,1,132.133,193.023)">
                    <path d="M0,-1.032C0.508,-1.273 1.044,-1.214 1.526,-1.011C1.761,-0.894 1.99,-0.743 2.163,-0.527C2.339,-0.316 2.444,-0.036 2.432,0.241C1.941,-0.019 1.612,-0.148 1.215,-0.329C0.83,-0.512 0.435,-0.687 0,-1.032" style="fill:rgb(35,31,32);fill-rule:nonzero;"/>
                </g>
                <g transform="matrix(-1,0,0,1,135.439,193.486)">
                    <path d="M-2.324,0.246C-0.943,0.262 -0.667,-0.016 0,0.246" style="fill:none;fill-rule:nonzero;stroke:rgb(35,31,32);stroke-width:0.75px;stroke-linecap:round;stroke-linejoin:round;"/>
                </g>
                <g transform="matrix(1,0,0,1,127.331,196.686)">
                    <path d="M0,-4.654C0,-4.654 0.153,-4.265 0.307,-3.591C0.46,-2.916 1.17,-1.054 1.803,-0.644C1.803,-0.644 2.324,0 3.697,-0.031C5.07,-0.061 6.098,-0.767 6.382,-0.913C6.666,-1.058 7.379,-1.12 7.862,-1.342C8.346,-1.565 8.875,-1.933 9.458,-1.933C10.041,-1.933 10.631,-1.764 11.061,-1.834C11.491,-1.903 11.729,-2.232 11.706,-2.409" style="fill:none;fill-rule:nonzero;stroke:rgb(35,31,32);stroke-width:0.75px;stroke-linecap:round;stroke-linejoin:round;"/>
                </g>
                <g transform="matrix(1,0,0,1,104.779,214.68)">
                    <path d="M0,-3.242C-0.453,-2.338 -1.14,-1.73 -1.806,-1.127C-2.145,-0.83 -2.494,-0.55 -2.842,-0.271C-3.188,0.011 -3.548,0.273 -3.858,0.591C-3.594,0.231 -3.271,-0.083 -2.969,-0.409C-2.663,-0.733 -2.359,-1.057 -2.072,-1.391C-1.509,-2.055 -0.938,-2.77 -0.698,-3.517L-0.695,-3.526C-0.631,-3.724 -0.419,-3.833 -0.221,-3.769C-0.023,-3.705 0.085,-3.493 0.021,-3.296C0.016,-3.277 0.008,-3.259 0,-3.242" style="fill:rgb(35,31,32);fill-rule:nonzero;"/>
                </g>
                <g transform="matrix(1,0,0,1,138.931,194.178)">
                    <path d="M0,-0.26C0.117,-0.273 0.222,-0.258 0.34,-0.228C0.399,-0.208 0.457,-0.189 0.519,-0.162C0.569,-0.144 0.678,-0.098 0.661,0.048L0.661,0.05L0.66,0.05C0.381,-0.122 0.06,-0.163 -0.248,-0.171C-0.557,-0.176 -0.863,-0.136 -1.164,-0.071C-1.37,-0.026 -1.574,-0.156 -1.619,-0.363C-1.665,-0.57 -1.534,-0.774 -1.327,-0.819C-1.278,-0.829 -1.229,-0.83 -1.182,-0.822L-1.172,-0.821C-0.827,-0.762 -0.485,-0.673 -0.165,-0.537C0.15,-0.402 0.463,-0.22 0.66,0.05L0.66,0.051L0.658,0.052C0.562,0.142 0.57,0.188 0.527,0.207L0.424,0.302C0.356,0.362 0.277,0.42 0.211,0.459C0.029,0.57 -0.209,0.511 -0.321,0.329C-0.432,0.146 -0.374,-0.092 -0.19,-0.203C-0.14,-0.234 -0.085,-0.252 -0.03,-0.257L0,-0.26Z" style="fill:rgb(35,31,32);fill-rule:nonzero;"/>
                </g>
                <g transform="matrix(-0.999835,-0.0181548,-0.0181548,0.999835,107.17,215.014)">
                    <path d="M-3.03,0.121C-1.754,0.159 -0.8,-0.001 -0.001,0.121" style="fill:none;fill-rule:nonzero;stroke:rgb(35,31,32);stroke-width:0.75px;stroke-linecap:round;stroke-linejoin:round;"/>
                </g>
                <g transform="matrix(1,0,0,1,96.2949,218.454)">
                    <path d="M0,-1.607C0.088,-1.104 0.673,0.609 1.719,0.88C2.765,1.153 3.905,0.418 4.625,0.079C5.345,-0.26 6.649,-0.872 7.383,-1.035C8.116,-1.198 9.189,-1.144 9.896,-1.47C10.602,-1.796 11.118,-2 12.083,-1.946C13.047,-1.891 13.849,-1.864 14.256,-2C14.664,-2.135 15.071,-2.475 15.112,-2.76" style="fill:none;fill-rule:nonzero;stroke:rgb(35,31,32);stroke-width:0.75px;stroke-linecap:round;stroke-linejoin:round;"/>
                </g>
                <g transform="matrix(1,0,0,1,111.237,215.842)">
                    <path d="M0,-0.484C0.114,-0.5 0.201,-0.494 0.308,-0.486C0.41,-0.47 0.525,-0.466 0.659,-0.372L0.662,-0.37L0.465,-0.126C0.399,-0.169 0.264,-0.229 0.146,-0.256C0.023,-0.289 -0.106,-0.308 -0.238,-0.315C-0.5,-0.335 -0.769,-0.315 -1.036,-0.277C-1.242,-0.248 -1.434,-0.392 -1.463,-0.598C-1.492,-0.805 -1.348,-0.997 -1.142,-1.026C-1.11,-1.03 -1.074,-1.03 -1.043,-1.027C-0.737,-0.994 -0.429,-0.94 -0.128,-0.84C0.021,-0.792 0.169,-0.73 0.312,-0.652C0.457,-0.567 0.582,-0.493 0.716,-0.327L0.519,-0.082L0.518,-0.082C0.508,-0.022 0.381,0.08 0.339,0.185C0.241,0.428 -0.035,0.546 -0.278,0.45C-0.521,0.352 -0.64,0.076 -0.542,-0.168C-0.477,-0.332 -0.33,-0.438 -0.167,-0.462L0,-0.484Z" style="fill:rgb(35,31,32);fill-rule:nonzero;"/>
                </g>
                <g transform="matrix(1,0,0,1,107.219,214.686)">
                    <path d="M0,0.822L-1.314,0.586L-0.101,0.079L-0.083,0.071C0.118,-0.013 0.349,0.082 0.433,0.282C0.517,0.483 0.422,0.714 0.221,0.798C0.148,0.828 0.072,0.835 0,0.822" style="fill:rgb(35,31,32);fill-rule:nonzero;"/>
                </g>
                <g transform="matrix(1,0,0,1,113.58,215.106)">
                    <path d="M0,-2.864C-0.123,-2.728 -0.136,-1.995 -1.005,-1.669C-1.875,-1.343 -3.002,-1.329 -3.708,-1.057C-4.415,-0.785 -5.568,-0.206 -6.071,0" style="fill:none;fill-rule:nonzero;stroke:rgb(35,31,32);stroke-width:0.75px;stroke-linecap:round;stroke-linejoin:round;"/>
                </g>
                <g transform="matrix(1,0,0,1,106.53,212.011)">
                    <path d="M0,1.658C0.638,1.413 1.182,0.924 2.078,0.666C2.975,0.408 3.287,0.448 3.776,0.326C4.265,0.204 4.604,0.136 5.297,0" style="fill:none;fill-rule:nonzero;stroke:rgb(35,31,32);stroke-width:0.75px;stroke-linecap:round;stroke-linejoin:round;"/>
                </g>
                <g transform="matrix(1,0,0,1,111.755,212.622)">
                    <path d="M0,-0.978C0.389,-1.016 0.76,-0.998 1.127,-0.95C1.493,-0.896 1.854,-0.824 2.207,-0.651L2.208,-0.651C2.273,-0.619 2.301,-0.541 2.269,-0.475C2.262,-0.459 2.251,-0.446 2.24,-0.435L2.136,-0.341C2.064,-0.276 2.022,-0.16 2.104,-0.128C1.965,0.025 1.728,0.038 1.574,-0.101C1.42,-0.239 1.407,-0.476 1.546,-0.63C1.788,-0.777 1.995,-0.733 2.158,-0.663L2.085,-0.353L2.084,-0.353C1.467,-0.493 0.742,-0.417 0.145,-0.243C-0.055,-0.183 -0.265,-0.296 -0.324,-0.496C-0.384,-0.695 -0.271,-0.905 -0.071,-0.964C-0.049,-0.971 -0.022,-0.976 0,-0.978" style="fill:rgb(35,31,32);fill-rule:nonzero;"/>
                </g>
                <g transform="matrix(1,0,0,1,105.593,213.647)">
                    <path d="M0,-0.087C0.342,0.054 0.619,-0.13 0.803,-0.328C0.958,-0.495 1.22,-0.504 1.387,-0.349C1.554,-0.193 1.563,0.068 1.408,0.234C1.337,0.31 1.245,0.353 1.15,0.364L1.072,0.372C0.654,0.417 0.149,0.262 0,-0.087" style="fill:rgb(35,31,32);fill-rule:nonzero;"/>
                </g>
                <g transform="matrix(-0.585836,0.810429,0.810429,0.585836,111.301,212.36)">
                    <path d="M-1.172,-0.599C-0.991,-0.501 -0.082,-0.262 0.306,-0.599" style="fill:none;fill-rule:nonzero;stroke:rgb(35,31,32);stroke-width:0.75px;stroke-linecap:round;stroke-linejoin:round;"/>
                </g>
                <g transform="matrix(1,0,0,1,105.267,210.734)">
                    <path d="M0,1.888C0.666,1.563 0.842,1.223 2.458,0.761C4.075,0.299 3.953,0.231 4.971,0" style="fill:none;fill-rule:nonzero;stroke:rgb(35,31,32);stroke-width:0.75px;stroke-linecap:round;stroke-linejoin:round;"/>
                </g>
                <g transform="matrix(1,0,0,1,110.156,211.424)">
                    <path d="M0,-1.056C0.286,-1.084 0.574,-1.091 0.861,-1.071C1.15,-1.047 1.424,-1.009 1.718,-0.899L1.719,-0.899C1.798,-0.868 1.837,-0.78 1.807,-0.701L1.797,-0.68L1.754,-0.606C1.717,-0.542 1.676,-0.464 1.664,-0.399C1.647,-0.336 1.67,-0.27 1.718,-0.315C1.69,-0.11 1.501,0.035 1.296,0.007C1.091,-0.02 0.947,-0.208 0.974,-0.413C1.049,-0.63 1.178,-0.71 1.278,-0.77C1.385,-0.828 1.481,-0.856 1.59,-0.883L1.625,-0.591L1.624,-0.591C1.398,-0.611 1.131,-0.584 0.889,-0.535C0.642,-0.486 0.4,-0.414 0.166,-0.325C-0.03,-0.249 -0.249,-0.348 -0.323,-0.543C-0.398,-0.739 -0.3,-0.957 -0.105,-1.033C-0.073,-1.044 -0.041,-1.052 -0.009,-1.055L0,-1.056Z" style="fill:rgb(35,31,32);fill-rule:nonzero;"/>
                </g>
                <g transform="matrix(1,0,0,1,104.343,212.251)">
                    <path d="M0,0.602C0.327,0.519 0.546,0.264 0.759,0.035C0.909,-0.128 1.164,-0.139 1.327,0.011C1.49,0.163 1.5,0.416 1.35,0.58C1.281,0.654 1.191,0.697 1.099,0.706L1.089,0.707C0.903,0.728 0.717,0.741 0.53,0.731C0.347,0.718 0.151,0.699 0,0.602" style="fill:rgb(35,31,32);fill-rule:nonzero;"/>
                </g>
                <g transform="matrix(-0.616292,0.787517,0.787517,0.616292,108.065,211.77)">
                    <path d="M-1.378,-0.672C-1.25,-0.571 -0.515,-0.168 0.327,-0.672" style="fill:none;fill-rule:nonzero;stroke:rgb(35,31,32);stroke-width:0.75px;stroke-linecap:round;stroke-linejoin:round;"/>
                </g>
                <g transform="matrix(1,0,0,1,106.511,210.621)">
                    <path d="M0,-0.596C0.312,-0.725 0.626,-0.882 0.986,-0.999C1.346,-1.121 1.751,-1.146 2.108,-1.08L2.109,-1.08C2.193,-1.069 2.252,-0.993 2.247,-0.91L2.244,-0.852L2.223,-0.537C2.221,-0.442 2.213,-0.316 2.242,-0.275C2.393,-0.054 2.337,0.248 2.116,0.399C1.895,0.55 1.593,0.494 1.442,0.273C1.341,0.126 1.333,-0.057 1.403,-0.208L1.507,-0.426C1.582,-0.584 1.653,-0.648 1.728,-0.742L1.952,-0.988L2.086,-0.76C1.419,-0.76 0.952,-0.351 0.364,0.06C0.195,0.181 -0.041,0.141 -0.162,-0.029C-0.283,-0.198 -0.244,-0.434 -0.074,-0.555C-0.052,-0.571 -0.024,-0.585 0,-0.596" style="fill:rgb(35,31,32);fill-rule:nonzero;"/>
                </g>
                <g transform="matrix(1,0,0,1,60.374,227.213)">
                    <path d="M0,-9.703C-1.024,-8.905 -2.233,-8.054 -3.691,-7.13C-9.666,-3.343 -17.958,1.218 -34.989,-0.044C-52.021,-1.307 -53.646,-9.003 -53.646,-11.941C-53.646,-13.214 -53.107,-15.84 -53.85,-15.84C-54.907,-15.84 -56.708,-10.386 -53.781,-5.784C-50.854,-1.182 -41.452,6.137 -23.405,4.142C-5.357,2.147 0.468,-3.221 2.744,-4.767C2.882,-4.862 3.479,-5.236 3.667,-5.367" style="fill:none;fill-rule:nonzero;stroke:rgb(35,31,32);stroke-width:0.75px;stroke-linecap:round;stroke-linejoin:round;"/>
                </g>
                <g transform="matrix(1,0,0,1,136.853,149.687)">
                    <path d="M0,-6.49C-0.005,-6.284 -0.25,-6.194 -0.413,-6.148C-0.6,-6.097 -0.795,-6.095 -0.962,-6.082C-1.291,-6.085 -1.538,-5.933 -1.648,-5.752C-1.861,-5.283 -1.881,-4.539 -1.842,-3.909C-1.812,-3.235 -1.67,-2.652 -1.416,-1.997C-1.211,-1.361 -0.831,-0.692 -0.892,0.052C-0.999,-0.289 -1.183,-0.567 -1.388,-0.853C-1.58,-1.143 -1.777,-1.439 -1.948,-1.754C-2.123,-2.059 -2.282,-2.392 -2.398,-2.761C-2.505,-3.124 -2.56,-3.493 -2.59,-3.862C-2.596,-4.603 -2.619,-5.341 -2.124,-6.094C-1.805,-6.483 -1.29,-6.542 -0.932,-6.449C-0.752,-6.404 -0.598,-6.354 -0.437,-6.345C-0.283,-6.349 -0.083,-6.33 0,-6.49" style="fill:rgb(35,31,32);fill-rule:nonzero;"/>
                </g>
                <g transform="matrix(0.0170565,-0.999855,-0.999855,-0.0170565,140.123,147.516)">
                    <path d="M-1.142,1.769C-0.011,1.131 1.331,1.594 1.789,1.769" style="fill:none;fill-rule:nonzero;stroke:rgb(35,31,32);stroke-width:0.75px;stroke-linecap:round;stroke-linejoin:round;"/>
                </g>
                <g transform="matrix(1,0,0,1,138.02,143.698)">
                    <path d="M0,2.087C-0.029,1.711 -0.209,1.29 -0.415,0.887L-0.736,0.27C-0.834,0.062 -0.96,-0.161 -0.946,-0.399C-0.896,-0.173 -0.729,-0.008 -0.582,0.164L-0.107,0.672C0.207,1.022 0.529,1.392 0.729,1.911L0.733,1.92C0.809,2.116 0.711,2.336 0.516,2.411C0.32,2.486 0.1,2.39 0.024,2.193C0.011,2.159 0.003,2.122 0,2.087" style="fill:rgb(35,31,32);fill-rule:nonzero;"/>
                </g>
                <g transform="matrix(1,0,0,1,136.169,148.392)">
                    <path d="M0,0.897C0.407,0.94 0.82,0.894 1.163,0.751C1.51,0.605 1.737,0.344 1.842,0.046C1.912,-0.152 2.13,-0.256 2.329,-0.186C2.527,-0.117 2.631,0.102 2.562,0.3C2.548,0.337 2.53,0.372 2.507,0.402L2.489,0.426C2.181,0.834 1.7,1.082 1.25,1.116C0.8,1.153 0.378,1.06 0,0.897" style="fill:rgb(35,31,32);fill-rule:nonzero;"/>
                </g>
                <g transform="matrix(1,0,0,1,138.424,146.914)">
                    <path d="M0,-1.108C0.319,-0.133 -0.189,0.815 -0.6,1.297C-1.011,1.779 -1.902,2.12 -2.285,1.989C-2.669,1.859 -2.905,0.954 -3.049,0.371C-3.186,-0.183 -3.375,-1.878 -3.251,-2.507C-3.128,-3.136 -2.813,-3.228 -2.121,-3.067C-1.429,-2.906 -0.917,-2.568 -0.669,-2.199C-0.492,-1.934 -0.102,-1.419 0,-1.108" style="fill:rgb(35,31,32);fill-rule:nonzero;"/>
                </g>
                <g transform="matrix(0,1,1,0,136.135,144.491)">
                    <path d="M0.51,-0.509C0.824,-0.509 1.08,-0.28 1.08,0.001C1.08,0.282 0.824,0.51 0.51,0.51C0.195,0.51 -0.061,0.282 -0.061,0.001C-0.061,-0.28 0.195,-0.509 0.51,-0.509" style="fill:white;fill-rule:nonzero;"/>
                </g>
                <g transform="matrix(0.907624,-0.419784,-0.419784,-0.907624,133.423,138.183)">
                    <path d="M-0.21,0.953C-0.21,0.953 2.939,1.172 4.331,0.953" style="fill:rgb(35,31,32);fill-rule:nonzero;"/>
                </g>
                <g transform="matrix(1,0,0,1,132.833,135.138)">
                    <path d="M0,2.268C0.636,1.851 1.282,1.448 1.941,1.061C2.606,0.678 3.26,0.297 4.018,0L4.223,0.722C3.53,0.868 2.806,1.134 2.104,1.399C1.397,1.669 0.696,1.961 0,2.268" style="fill:rgb(35,31,32);fill-rule:nonzero;"/>
                </g>
                <g transform="matrix(1,0,0,1,143.226,161.905)">
                    <path d="M0,-16.857C1.013,-15.725 1.714,-14.386 2.33,-13.026C2.939,-11.66 3.412,-10.237 3.797,-8.794C4.201,-7.356 4.473,-5.885 4.724,-4.415L5.022,-2.196L5.229,0.033L5.003,-2.194L4.687,-4.409C4.424,-5.877 4.14,-7.342 3.725,-8.775C3.329,-10.211 2.845,-11.626 2.227,-12.98C1.607,-14.325 0.886,-15.661 -0.104,-16.75L-0.111,-16.756C-0.139,-16.788 -0.137,-16.835 -0.106,-16.863C-0.075,-16.89 -0.028,-16.888 0,-16.858L0,-16.857Z" style="fill:rgb(35,31,32);fill-rule:nonzero;"/>
                </g>
                <g transform="matrix(1,0,0,1,143.485,159.261)">
                    <path d="M0,-14.998C1.32,-14.309 2.347,-13.224 3.24,-12.078C4.132,-10.921 4.857,-9.645 5.458,-8.32C6.085,-7.004 6.543,-5.619 6.978,-4.231L7.522,-2.118L7.958,0.02L7.503,-2.114L6.941,-4.221C6.496,-5.602 6.026,-6.981 5.39,-8.288C4.78,-9.604 4.046,-10.868 3.151,-12.009C2.261,-13.137 1.214,-14.209 -0.058,-14.86L-0.069,-14.865C-0.105,-14.885 -0.12,-14.93 -0.102,-14.966C-0.083,-15.003 -0.038,-15.018 -0.001,-14.999L0,-14.998Z" style="fill:rgb(35,31,32);fill-rule:nonzero;"/>
                </g>
                <g transform="matrix(1,0,0,1,137.733,139.841)">
                    <path d="M0,-4.507C-2.802,-4.102 -5.582,-3.517 -8.318,-2.784C-11.05,-2.037 -13.748,-1.124 -16.283,0.155C-13.76,-1.146 -11.067,-2.085 -8.338,-2.857C-5.604,-3.614 -2.829,-4.224 -0.021,-4.656C0.021,-4.662 0.059,-4.634 0.065,-4.593C0.071,-4.552 0.043,-4.514 0.002,-4.508L0,-4.507Z" style="fill:rgb(35,31,32);fill-rule:nonzero;"/>
                </g>
                <g transform="matrix(1,0,0,1,144.267,160.178)">
                    <path d="M0,-17.044C1.17,-16.041 1.705,-14.584 2.125,-13.182C2.521,-11.753 2.717,-10.281 2.82,-8.808C2.901,-7.332 2.896,-5.855 2.813,-4.38C2.735,-2.905 2.569,-1.44 2.395,0.026C2.557,-1.44 2.71,-2.908 2.776,-4.382C2.846,-5.856 2.838,-7.332 2.745,-8.803C2.63,-10.271 2.421,-11.736 2.018,-13.15C1.598,-14.533 1.024,-15.987 -0.081,-16.917L-0.097,-16.931C-0.128,-16.957 -0.132,-17.004 -0.105,-17.035C-0.079,-17.066 -0.032,-17.07 0,-17.044Z" style="fill:rgb(35,31,32);fill-rule:nonzero;"/>
                </g>
            </g>
        </g>
    </g>
</svg>
