<?xml version="1.0" encoding="UTF-8" standalone="no"?>
<!DOCTYPE svg PUBLIC "-//W3C//DTD SVG 1.1//EN" "http://www.w3.org/Graphics/SVG/1.1/DTD/svg11.dtd">
<svg width="100%" height="100%" viewBox="0 0 1000 1000" version="1.1" xmlns="http://www.w3.org/2000/svg" xmlns:xlink="http://www.w3.org/1999/xlink" xml:space="preserve" xmlns:serif="http://www.serif.com/" style="fill-rule:evenodd;clip-rule:evenodd;stroke-linecap:round;stroke-linejoin:round;stroke-miterlimit:10;">
    <g transform="matrix(1,0,0,1,-6075,-1125)">
        <g id="Page-11" serif:id="Page 11" transform="matrix(4.16667,0,0,4.16667,6075,1125)">
            <rect x="0" y="0" width="240" height="240" style="fill:none;"/>
            <g id="Nose-poke-with-oke-wall--lean" serif:id="Nose poke with oke wall, lean">
                <g transform="matrix(-0.904432,0.426619,0.426619,0.904432,147.334,153.864)">
                    <path d="M-2.394,1.766L0.536,1.766C0.478,1.549 0.429,1.33 0.385,1.119C-0.688,0.673 -1.71,0.005 -2.647,-0.856C-2.608,-0.046 -2.534,0.837 -2.394,1.766" style="fill:rgb(230,231,232);fill-rule:nonzero;"/>
                </g>
                <g transform="matrix(1,0,0,1,144.963,146.669)">
                    <path d="M0,-2.689C0.39,-2.16 0.87,-1.309 1.28,0C0.78,-0.58 0.32,-1.03 -0.08,-1.37C-0.02,-1.79 0,-2.229 0,-2.689" style="fill:rgb(230,231,232);fill-rule:nonzero;"/>
                </g>
                <g transform="matrix(1,0,0,1,146.243,152.25)">
                    <path d="M0,-5.58C0.49,-4 0.88,-1.769 0.88,1.37C0.07,-1.79 -0.93,-3.93 -1.73,-5.269L-1.73,-5.28C-1.55,-5.8 -1.43,-6.36 -1.36,-6.95C-0.96,-6.61 -0.5,-6.16 0,-5.58" style="fill:rgb(230,231,232);fill-rule:nonzero;"/>
                </g>
                <g transform="matrix(1,0,0,1,146.243,155.04)">
                    <path d="M0,-8.37C0.99,-7.21 2.11,-5.51 3.12,-3.08C2.64,-1.9 2,-0.86 1.22,0C1.12,-0.49 1,-0.96 0.88,-1.4L0.88,-1.42C0.88,-4.559 0.49,-6.79 0,-8.37" style="fill:rgb(230,231,232);fill-rule:nonzero;"/>
                </g>
                <g transform="matrix(1,0,0,1,143.233,155.54)">
                    <path d="M0,-6.36L0,-6.37C0.56,-6.969 0.97,-7.71 1.26,-8.559C1.26,-8.57 1.26,-8.57 1.27,-8.58C1.27,-8.58 1.28,-8.58 1.28,-8.57L1.28,-8.559C2.08,-7.219 3.08,-5.08 3.89,-1.92L3.89,-1.9C3.89,-1.33 3.88,-0.73 3.85,-0.099C3.29,0.46 2.66,0.93 1.96,1.29L1.2,1.651C0.22,2.04 -0.7,2.22 -1.75,2.201C-1.14,1.31 -0.72,0.451 -0.35,-0.4C0.32,-1.92 0.12,-4.25 0.02,-5.7C0.01,-5.94 0,-6.16 0,-6.36" style="fill:rgb(230,231,232);fill-rule:nonzero;"/>
                </g>
                <g transform="matrix(1,0,0,1,157.913,141.651)">
                    <path d="M0,-7.771C3.09,0.689 1.13,9.029 -4.6,11.349L-7.66,12.79C-7.93,11.889 -8.24,11.059 -8.55,10.309C-6.98,6.5 -7,1.259 -8.94,-4.021C-11.91,-12.131 -19.01,-16.981 -24.64,-15.341L-16.28,-18.25C-10.55,-20.561 -3.02,-16.021 0,-7.771" style="fill:rgb(230,231,232);fill-rule:nonzero;"/>
                </g>
                <g transform="matrix(1,0,0,1,129.953,137.34)">
                    <path d="M0,0.49C-0.81,0.73 -2.06,1.09 -3.43,1.57C-3.45,1.23 -3.46,0.9 -3.46,0.57C-1.39,-0.13 0.68,-0.67 2.47,-1.08C2.45,-1.031 2.43,-0.98 2.42,-0.93C2.4,-0.89 2.38,-0.85 2.37,-0.81C2.28,-0.62 2.22,-0.42 2.16,-0.23L2.18,-0.23L2.17,-0.22C1.26,0.09 0.47,0.35 0,0.49" style="fill:rgb(230,231,232);fill-rule:nonzero;"/>
                </g>
                <g transform="matrix(1,0,0,1,126.523,134.479)">
                    <path d="M0,4.431C-1.16,4.851 -2.41,5.351 -3.54,5.961C-4.74,6.611 -5.83,7.101 -6.92,7.641L-7.56,6.021L1.31,-3.21C0.41,-1.319 -0.05,0.961 -0.03,3.431C-0.03,3.761 -0.02,4.091 0,4.431" style="fill:rgb(230,231,232);fill-rule:nonzero;"/>
                </g>
                <g transform="matrix(1,0,0,1,128.003,145.71)">
                    <path d="M0,-14.79C1.02,-16.81 2.56,-18.35 4.54,-19.15L5.27,-19.4C10.9,-21.04 18,-16.19 20.97,-8.08C22.91,-2.8 22.93,2.44 21.36,6.25C20.35,3.82 19.23,2.12 18.24,0.96C17.83,-0.35 17.35,-1.2 16.96,-1.729C16.95,-3.12 16.68,-4.64 16.12,-6.17C15.42,-8.07 14.31,-9.65 13.02,-10.76L13.01,-10.76C12.18,-11.49 11.27,-12.01 10.36,-12.29C9.39,-12.6 8.41,-12.64 7.5,-12.38C7.36,-12.34 7.22,-12.3 7.08,-12.24C6.72,-12.09 6.39,-11.9 6.09,-11.66C5.93,-11.56 5.79,-11.43 5.65,-11.28C5.5,-11.15 5.37,-11 5.25,-10.84C5.12,-10.7 5.01,-10.54 4.91,-10.37C4.91,-10.36 4.9,-10.36 4.9,-10.35C4.79,-10.19 4.7,-10.03 4.61,-9.85C4.58,-9.79 4.55,-9.729 4.53,-9.67C4.49,-9.6 4.46,-9.53 4.43,-9.46L4.43,-9.45L4.42,-9.45C2.63,-9.04 0.56,-8.5 -1.51,-7.8C-1.53,-10.269 -1.07,-12.55 -0.17,-14.44C-0.13,-14.56 -0.07,-14.68 0,-14.79" style="fill:rgb(230,231,232);fill-rule:nonzero;"/>
                </g>
                <g transform="matrix(1,0,0,1,106.793,133.941)">
                    <path d="M0,-9.971L0.35,0L-7.36,-2.841L0,-9.971Z" style="fill:rgb(230,231,232);fill-rule:nonzero;"/>
                </g>
                <g transform="matrix(1,0,0,1,107.143,129.81)">
                    <path d="M0,4.14L11.45,8.36L19.29,0.4L20.86,1.11C20.79,1.22 20.73,1.34 20.69,1.459L11.82,10.69L-11.42,2.53L-10.31,1.459L-1.98,-6.55L-0.35,-5.84L-7.71,1.289L0,4.13L0,4.14Z" style="fill:rgb(230,231,232);fill-rule:nonzero;"/>
                </g>
                <g transform="matrix(1,0,0,1,119.602,136.14)">
                    <path d="M0,5.98C-1.13,6.53 -2.27,7.129 -3.55,7.959C-4.6,8.65 -5.61,9.27 -6.47,9.78L-19.57,4.77L-23.88,-3.8L-0.64,4.36L0,5.98Z" style="fill:rgb(230,231,232);fill-rule:nonzero;"/>
                </g>
                <g transform="matrix(1,0,0,1,110.593,125.832)">
                    <path d="M0,21.518C-0.69,21.869 -1.78,22.418 -3.8,22.678C-5.82,22.928 -9.13,22.428 -12.41,23.748C-14.3,24.518 -14.84,26.558 -14.46,28.619C-22.17,25.428 -29.25,22.308 -31.81,21.248C-32.7,20.878 -32.84,20.829 -33.18,20.678C-34.23,20.199 -35.12,19.649 -36.53,17.428C-37.73,15.548 -37.75,14.088 -37.91,12.529C-37.95,12.048 -38.03,10.619 -38.03,10.619L-39.23,-7.042L-38.39,-7.101C-38.29,-5.062 -37.85,-2.872 -37.03,-0.671C-34.31,6.598 -28.81,11.289 -24.51,9.678L-15.7,6.588C-14.99,6.319 -14.36,5.918 -13.81,5.388L-13.76,5.438L-14.87,6.508L-10.56,15.079L2.54,20.088C1.54,20.678 0.74,21.128 0.26,21.388C0.22,21.409 0.18,21.428 0.14,21.449C0.09,21.478 0.04,21.498 0,21.518" style="fill:rgb(230,231,232);fill-rule:nonzero;"/>
                </g>
                <g transform="matrix(1,0,0,1,83.6328,115.341)">
                    <path d="M0,14.339C2.36,13.459 3.09,9.56 1.66,5.39C0.26,1.319 -2.9,-1.221 -5.26,-0.341C-7.62,0.539 -8.4,4.549 -6.89,8.589C-5.38,12.619 -2.35,15.219 0,14.339M5.51,3.989C8.1,11.52 6.75,18.56 2.45,20.169C-1.85,21.779 -7.35,17.089 -10.07,9.819C-10.89,7.619 -11.33,5.429 -11.43,3.39C-11.65,-1.321 -10.05,-5.19 -7.05,-6.31L-6.37,-6.501C-2.16,-7.44 3.13,-2.971 5.51,3.989" style="fill:rgb(230,231,232);fill-rule:nonzero;"/>
                </g>
                <g transform="matrix(1,0,0,1,98.0127,123.899)">
                    <path d="M0,-7.459C2.15,-1.159 1.53,4.641 -1.23,7.32C-1.78,7.851 -2.41,8.251 -3.12,8.52L-11.93,11.61C-7.63,10.001 -6.28,2.961 -8.87,-4.569C-11.25,-11.529 -16.54,-15.999 -20.75,-15.06L-12.32,-17.459C-8.02,-19.069 -2.52,-14.8 0,-7.459" style="fill:rgb(230,231,232);fill-rule:nonzero;"/>
                </g>
                <g transform="matrix(1,0,0,1,168.473,176.27)">
                    <path d="M0,-73.27C0,-73.27 -9.01,-75.36 -21.44,-78.25L-21.04,-80.03L3.23,-74.55C3.23,-74.55 6.06,-73.9 8.01,-72.03C10.01,-70.09 11.08,-67.79 11.27,-66.21C11.43,-64.82 11.45,-62.46 11.45,-62.04C11.45,-61.66 9.79,-10.53 9.48,-0.6C9.45,0.46 9.45,0.64 9.43,1.05C9.33,2.82 8.55,5.28 4.79,6.76L4.78,6.75C6.44,5.35 6.36,2.66 6.39,1.24C6.4,0.4 6.41,0.53 6.45,-0.75C6.76,-11.23 8.21,-59.35 8.21,-60.22C8.21,-61.2 8.37,-65.09 6.47,-68.65C4.57,-72.21 0,-73.27 0,-73.27" style="fill:rgb(230,231,232);fill-rule:nonzero;"/>
                </g>
                <g transform="matrix(1,0,0,1,180.373,174.24)">
                    <path d="M0,-69.55C2.83,-65.571 2.23,-58.811 2.23,-58.811L0.31,-3.25C0.31,-3.25 0.38,4.58 -0.5,6.779C-0.9,7.79 -1.45,8.71 -2.21,9.439C-3.09,10.29 -4.27,10.87 -5.85,11C-8.77,11.25 -10.32,10.01 -10.32,10.01L-10.32,10C-9.68,9.939 -8.97,9.75 -8.09,9.389C-7.71,9.24 -7.39,9.04 -7.12,8.779L-7.11,8.79C-3.35,7.309 -2.57,4.849 -2.47,3.08C-2.45,2.67 -2.45,2.49 -2.42,1.429C-2.11,-8.5 -0.45,-59.63 -0.45,-60.01C-0.45,-60.431 -0.47,-62.79 -0.63,-64.181C-0.82,-65.76 -1.89,-68.061 -3.89,-70C-5.84,-71.87 -8.67,-72.521 -8.67,-72.521L-32.94,-78L-32.94,-80.8C-32.94,-80.8 -10.81,-76.061 -8.37,-75.51C-5.47,-74.851 -2.66,-73.3 0,-69.55" style="fill:rgb(230,231,232);fill-rule:nonzero;"/>
                </g>
                <g transform="matrix(1,0,0,1,77.6528,83.9502)">
                    <path d="M0,-6.04C1.65,-5.73 16.64,-2.27 16.64,-2.27L16.64,0.26C16.64,0.26 2.37,-3.17 0.89,-3.46C-0.59,-3.74 -1.3,-3.96 -2.48,-3.73C-3.66,-3.5 -5.82,-2.88 -5.82,-2.88C-5.86,-2.87 -5.91,-2.851 -5.95,-2.84C-5.95,-2.84 -5.59,-4.33 -4.37,-5.37C-3.83,-5.83 -3.25,-6.07 -2.62,-6.181L-2.5,-6.2C-1.72,-6.3 -0.88,-6.21 0,-6.04" style="fill:rgb(230,231,232);fill-rule:nonzero;"/>
                </g>
                <g transform="matrix(1,0,0,1,115.003,84.2096)">
                    <path d="M0,-7.07L0.04,-4.53L-20.71,0L-20.71,-2.53L-0.01,-7.07L0,-7.07Z" style="fill:rgb(230,231,232);fill-rule:nonzero;"/>
                </g>
                <g transform="matrix(1,0,0,1,117.573,132.44)">
                    <path d="M0,0.329C1.64,-0.28 2.2,-2.78 1.3,-5.431C0.42,-8.021 -1.69,-9.591 -3.32,-8.981C-4.95,-8.37 -5.56,-5.78 -4.6,-3.221C-3.65,-0.671 -1.63,0.939 0,0.329M-12.41,-9.181L-20.74,-1.171L-20.79,-1.221C-18.03,-3.9 -17.41,-9.7 -19.56,-16C-22.08,-23.341 -27.58,-27.61 -31.88,-26L-40.31,-23.601C-40.54,-23.561 -40.77,-23.49 -40.99,-23.41C-43.99,-22.29 -45.59,-18.421 -45.37,-13.71L-46.21,-13.65L-48.16,-42.381C-48.16,-42.381 -48.23,-43.551 -48.27,-43.941C-48.42,-45.45 -48.72,-47.75 -47.62,-49.851C-47.17,-50.691 -46.54,-51.12 -45.87,-51.33C-45.83,-51.341 -45.78,-51.36 -45.74,-51.37C-44.74,-51.631 -43.67,-51.421 -43.01,-51.261C-42.23,-51.07 1.99,-40.801 29.46,-34.421C41.89,-31.53 50.9,-29.441 50.9,-29.441C50.9,-29.441 55.47,-28.381 57.37,-24.82C59.27,-21.261 59.11,-17.37 59.11,-16.391C59.11,-15.521 57.66,32.6 57.35,43.079C57.31,44.359 57.3,44.229 57.29,45.069C57.26,46.489 57.34,49.18 55.68,50.579C55.41,50.84 55.09,51.04 54.71,51.189C53.83,51.55 53.12,51.739 52.48,51.8C50.94,51.96 49.87,51.369 47.94,50.59C46.9,50.17 32.13,44.079 14.97,36.96C15.07,36.739 15.17,36.5 15.28,36.229C16.16,34.119 17.77,31.989 18.26,31.409C18.75,30.829 20.36,29.22 22.09,27.5C22.85,26.739 23.44,26.01 23.91,25.3C24.96,25.319 25.88,25.14 26.86,24.75L27.62,24.39L29.48,23.51L30.03,23.25L32.68,22L35.74,20.559C41.47,18.239 43.43,9.899 40.34,1.439C37.32,-6.811 29.79,-11.351 24.06,-9.04L15.7,-6.131L14.97,-5.881C12.99,-5.08 11.45,-3.54 10.43,-1.521L8.86,-2.231L1.02,5.729L-10.43,1.51L-10.43,1.5L-10.78,-8.471L-12.41,-9.181Z" style="fill:rgb(230,231,232);fill-rule:nonzero;"/>
                </g>
                <g transform="matrix(1,0,0,1,94.2925,93.49)">
                    <path d="M0,-9.28L20.75,-13.81L20.8,-11.44L29.95,-7.9L46.99,-5.92L66.58,-6.22L81.79,-8.61L88.36,-12.28C88.55,-11.52 87.52,-10.58 85.99,-9.78C84.45,-8.98 81.78,-8.16 81.78,-8.16L53.14,-0.05L53.14,2.75L52.74,4.53C25.27,-1.85 -18.95,-12.12 -19.73,-12.31C-20.39,-12.47 -21.46,-12.68 -22.46,-12.42C-22.46,-12.42 -20.3,-13.04 -19.12,-13.27C-17.94,-13.5 -17.23,-13.28 -15.75,-13C-14.27,-12.71 0,-9.28 0,-9.28" style="fill:rgb(230,231,232);fill-rule:nonzero;"/>
                </g>
                <g transform="matrix(1,0,0,1,75.1528,73.76)">
                    <path d="M0,3.99L39.7,-3.93L39.85,3.38L39.84,3.38L19.14,7.92C19.14,7.92 4.15,4.46 2.5,4.15C1.62,3.98 0.78,3.89 0,3.99" style="fill:rgb(230,231,232);fill-rule:nonzero;"/>
                </g>
                <g transform="matrix(1,0,0,1,232.292,173.14)">
                    <path d="M0,-88.33C2.37,-85.34 2.77,-83.8 2.7,-79.96L-1.52,-27.239C-1.52,-27.239 -1.84,-24.37 -2.11,-23.59C-2.41,-22.729 -3.13,-21.059 -5.23,-19.84C-7.26,-18.659 -54.13,10.54 -54.13,10.54C-53.37,9.811 -52.82,8.891 -52.42,7.88C-51.54,5.681 -51.61,-2.149 -51.61,-2.149L-49.69,-57.71C-49.69,-57.71 -49.09,-64.47 -51.92,-68.449C-54.58,-72.199 -57.39,-73.75 -60.29,-74.409C-62.73,-74.96 -84.86,-79.699 -84.86,-79.699L-56.22,-87.809C-56.22,-87.809 -53.55,-88.63 -52.01,-89.43C-50.48,-90.229 -49.45,-91.17 -49.64,-91.93L-49.37,-98.87L-6.67,-91.899C-6.67,-91.899 -2.38,-91.319 0,-88.33" style="fill:rgb(230,231,232);fill-rule:nonzero;"/>
                </g>
                <g transform="matrix(1,0,0,1,114.823,86.7918)">
                    <path d="M0,-18.782L9.14,-15.792L26.48,-14.181L46.18,-14.462L61.73,-16.442L68.37,-19.561L68.1,-12.522L67.83,-5.582L61.26,-1.912L46.05,0.478L26.46,0.779L9.42,-1.202L0.27,-4.742L0.22,-7.112L0.18,-9.652L0.03,-16.962L0,-18.782Z" style="fill:rgb(230,231,232);fill-rule:nonzero;"/>
                </g>
                <g transform="matrix(1,0,0,1,192.983,72.1106)">
                    <path d="M0,-47.511L0,-47.5C0,-47.5 -0.42,-38 -0.48,-36.061C-0.54,-34.12 -1.25,-32.66 -1.25,-32.66L-8.34,-12.971C-8.34,-12.971 -11.16,-5.12 -11.5,-4.781C-11.75,-4.531 -13.4,-2.891 -20.57,-1.651C-27.74,-0.401 -41.11,0 -43.59,0C-46.08,0 -54.44,-0.24 -61.81,-0.841C-69.47,-1.481 -75.05,-3.391 -76.27,-4C-77.5,-4.611 -78.16,-6.08 -78.16,-6.08C-78.16,-6.08 -87.28,-31.74 -87.7,-33.061C-88.13,-34.391 -88.25,-35.29 -88.25,-35.29L-88.58,-47.16L-88.58,-47.17L-77.17,-45.781L-54.33,-44.95L-27.88,-45.111L-7.43,-46.191L0,-47.511Z" style="fill:rgb(230,231,232);fill-rule:nonzero;"/>
                </g>
                <g transform="matrix(1,0,0,1,193.853,27.1599)">
                    <path d="M0,-8.78L-0.25,-2.67L-0.87,-2.56L-8.3,-1.24L-28.75,-0.16L-55.2,0L-78.04,-0.83L-89.45,-2.219L-89.63,-2.24L-89.8,-8.469L-78.2,-7.52L-55.18,-6.88L-28.71,-6.94L-8.2,-7.759L0,-8.78Z" style="fill:rgb(230,231,232);fill-rule:nonzero;"/>
                </g>
                <g transform="matrix(1,0,0,1,104.953,18.8005)">
                    <path d="M0,-1.32L11.59,-2.251L23.29,-2.621L33.07,-2.8L53.36,-2.8L63.33,-2.64L74.69,-2.251L81.74,-1.89L84.82,-1.661L88.9,-0.421L80.7,0.6L60.19,1.419L33.72,1.48L10.7,0.839L-0.9,-0.11L0,-1.32Z" style="fill:rgb(230,231,232);fill-rule:nonzero;"/>
                </g>
                <g transform="matrix(1,0,0,1,69.1602,214.124)">
                    <path d="M0,-6.284C0.107,-5.723 -0.062,-5.179 -0.175,-4.684C-0.298,-4.183 -0.409,-3.708 -0.476,-3.235C-0.554,-2.77 -0.569,-2.255 -0.353,-1.794C-0.145,-1.335 0.252,-0.969 0.706,-0.815C1.624,-0.53 2.594,-0.787 3.54,-1.097C4.5,-1.393 5.462,-1.768 6.487,-2.076L6.524,-2.011C5.729,-1.291 4.814,-0.723 3.794,-0.34C3.28,-0.16 2.734,-0.046 2.168,-0.025C1.607,0 0.999,-0.113 0.52,-0.446C0.035,-0.767 -0.292,-1.22 -0.567,-1.681C-0.844,-2.144 -1.072,-2.688 -1.098,-3.266C-1.113,-4.447 -0.432,-5.347 -0.075,-6.284L0,-6.284Z" style="fill:rgb(35,31,32);fill-rule:nonzero;"/>
                </g>
                <g transform="matrix(-0.846007,-0.533172,-0.533172,0.846007,143.775,146.612)">
                    <path d="M-0.22,-1.692C-0.478,-1.154 -0.677,-0.616 -0.798,-0.073C-0.601,-0.183 -0.401,-0.278 -0.22,-0.362C-0.193,-0.905 -0.157,-1.441 -0.144,-1.702C-0.172,-1.695 -0.198,-1.689 -0.22,-1.692" style="fill:rgb(198,200,202);fill-rule:nonzero;"/>
                </g>
                <g transform="matrix(1,0,0,1,144.49,148.634)">
                    <path d="M0,-1.658C-0.286,-0.79 -0.709,-0.04 -1.27,0.552C-1.25,-0.346 -1.103,-0.879 -1.063,-0.997C-1.054,-1.016 -1.054,-1.026 -1.054,-1.026C-0.995,-1.125 -0.936,-1.223 -0.866,-1.332C-0.709,-1.579 -0.522,-1.894 -0.335,-2.21C-0.227,-2.043 -0.108,-1.855 0,-1.658" style="fill:rgb(198,200,202);fill-rule:nonzero;"/>
                </g>
                <g transform="matrix(1,0,0,1,137.666,137.113)">
                    <path d="M0,-1.845C-1.112,-1.509 -3.604,-0.652 -5.553,0C-5.464,-0.296 -5.366,-0.592 -5.238,-0.859C-2.412,-1.499 -0.295,-1.805 0,-1.845" style="fill:rgb(147,149,152);fill-rule:nonzero;"/>
                </g>
                <g transform="matrix(1,0,0,1,137.666,133.709)">
                    <path d="M0,1.559C-0.295,1.599 -2.412,1.905 -5.238,2.545C-4.687,1.244 -3.781,0.247 -2.58,-0.236C-0.729,-0.986 1.467,-0.354 3.318,1.234C3.121,1.214 1.536,1.106 0.04,1.549C0.04,1.549 0.03,1.549 0,1.559" style="fill:rgb(147,149,152);fill-rule:nonzero;"/>
                </g>
                <g transform="matrix(1,0,0,1,96.1851,110.848)">
                    <path d="M0,43.623C-7.728,40.418 -14.832,37.296 -17.406,36.227C-18.293,35.859 -18.435,35.814 -18.771,35.661C-19.817,35.185 -20.714,34.629 -22.122,32.416C-23.319,30.535 -23.345,29.07 -23.499,27.51C-23.545,27.034 -23.626,25.602 -23.626,25.602L-26.775,-20.792C-26.775,-20.792 -26.841,-21.962 -26.879,-22.351C-27.029,-23.861 -27.328,-26.161 -26.227,-28.253C-25.106,-30.386 -22.765,-29.935 -21.624,-29.663C-20.483,-29.392 72.291,-7.843 72.291,-7.843C72.291,-7.843 76.854,-6.783 78.756,-3.224C80.658,0.336 80.495,4.222 80.495,5.2C80.495,6.072 79.05,54.194 78.735,64.668C78.696,65.948 78.693,65.823 78.675,66.666C78.639,68.324 78.756,71.692 76.094,72.779C73.083,74.009 72.045,73.28 69.33,72.182C68.291,71.762 53.52,65.673 36.358,58.558" style="fill:none;fill-rule:nonzero;stroke:rgb(35,31,32);stroke-width:0.75px;"/>
                </g>
                <g transform="matrix(1,0,0,1,170.051,94.6729)">
                    <path d="M0,89.582C0,89.582 1.549,90.815 4.47,90.571C7.39,90.327 8.938,88.547 9.821,86.346C10.704,84.145 10.636,76.319 10.636,76.319L12.552,20.757C12.552,20.757 13.154,13.993 10.328,10.017C7.662,6.267 4.85,4.718 1.957,4.061C-0.491,3.504 -22.616,-1.233 -22.616,-1.233L-22.616,1.567L1.658,7.043C1.658,7.043 4.486,7.694 6.429,9.568C8.436,11.504 9.504,13.808 9.689,15.384C9.854,16.781 9.871,19.133 9.871,19.555C9.871,19.935 8.215,71.068 7.904,80.992C7.87,82.06 7.874,82.236 7.852,82.65C7.757,84.414 6.97,86.875 3.209,88.358" style="fill:none;fill-rule:nonzero;stroke:rgb(35,31,32);stroke-width:0.75px;"/>
                </g>
                <g transform="matrix(1,0,0,1,183.193,86.4694)">
                    <path d="M0,-19.238L-0.537,-5.258L-7.111,-1.59L-22.324,0.802L-41.912,1.101L-58.945,-0.883L-68.1,-4.415L-68.372,-18.464L-59.23,-15.467L-41.891,-13.858L-22.188,-14.143L-6.643,-16.12L0,-19.238L-0.978,-20.339" style="fill:none;fill-rule:nonzero;stroke:rgb(35,31,32);stroke-width:0.75px;"/>
                </g>
                <g transform="matrix(1,0,0,1,115.048,81.6708)">
                    <path d="M0,-1.995L-20.751,2.54L-20.751,0.01L-0.05,-4.535" style="fill:none;fill-rule:nonzero;stroke:rgb(35,31,32);stroke-width:0.75px;"/>
                </g>
                <g transform="matrix(1,0,0,1,71.8296,83.1283)">
                    <path d="M0,-2.056C0,-2.056 2.161,-2.677 3.343,-2.909C4.524,-3.139 5.23,-2.922 6.711,-2.636C8.192,-2.351 22.468,1.083 22.468,1.083" style="fill:none;fill-rule:nonzero;stroke:rgb(35,31,32);stroke-width:0.75px;"/>
                </g>
                <g transform="matrix(1,0,0,1,71.7017,78.1024)">
                    <path d="M0,3.006C0,3.006 0.36,1.52 1.583,0.474C2.805,-0.572 4.312,-0.505 5.956,-0.192C7.6,0.12 22.596,3.578 22.596,3.578" style="fill:none;fill-rule:nonzero;stroke:rgb(35,31,32);stroke-width:0.75px;"/>
                </g>
                <g transform="matrix(0.980676,-0.195638,-0.195638,-0.980676,76.1933,81.5905)">
                    <path d="M-0.392,3.973L40.218,3.973" style="fill:none;fill-rule:nonzero;stroke:rgb(35,31,32);stroke-width:0.75px;"/>
                </g>
                <g transform="matrix(1,0,0,1,147.435,81.2115)">
                    <path d="M0,12.228L28.634,4.118C28.634,4.118 31.31,3.302 32.845,2.5C34.379,1.699 35.411,0.761 35.221,0" style="fill:none;fill-rule:nonzero;stroke:rgb(35,31,32);stroke-width:0.75px;"/>
                </g>
                <g transform="matrix(1,0,0,1,182.923,183.682)">
                    <path d="M0,-109.411L42.698,-102.442C42.698,-102.442 46.99,-101.858 49.367,-98.869C51.744,-95.88 52.138,-94.345 52.07,-90.5L47.846,-37.784C47.846,-37.784 47.535,-34.911 47.262,-34.129C46.963,-33.273 46.243,-31.602 44.138,-30.38C42.111,-29.202 -4.763,0 -4.763,0" style="fill:none;fill-rule:nonzero;stroke:rgb(35,31,32);stroke-width:0.75px;"/>
                </g>
                <g transform="matrix(1,0,0,1,104.057,26.8595)">
                    <path d="M0,-8.173L0.163,-1.937L11.756,-0.53L34.597,0.306L61.043,0.142L81.5,-0.938L89.548,-2.364L89.792,-8.479L81.602,-7.459L61.084,-6.645L34.617,-6.583L11.593,-7.215L0,-8.173Z" style="fill:none;fill-rule:nonzero;stroke:rgb(35,31,32);stroke-width:0.75px;"/>
                </g>
                <g transform="matrix(1,0,0,1,104.057,15.9965)">
                    <path d="M0,2.69L0.896,1.488L12.49,0.55L24.185,0.183L33.965,0L54.258,0L64.222,0.163L75.591,0.55L82.641,0.918L85.717,1.141L89.792,2.384" style="fill:none;fill-rule:nonzero;stroke:rgb(35,31,32);stroke-width:0.75px;"/>
                </g>
                <g transform="matrix(1,0,0,1,104.406,71.7743)">
                    <path d="M0,-46.829L0.324,-34.95C0.324,-34.95 0.446,-34.053 0.874,-32.728C1.302,-31.403 10.416,-5.742 10.416,-5.742C10.416,-5.742 11.082,-4.275 12.304,-3.663C13.526,-3.052 19.109,-1.14 26.77,-0.508C34.135,0.1 42.5,0.34 44.985,0.34C47.471,0.34 60.837,-0.068 68.009,-1.311C75.181,-2.555 76.831,-4.195 77.076,-4.441C77.422,-4.787 80.234,-12.634 80.234,-12.634L87.325,-32.32C87.325,-32.32 88.038,-33.788 88.099,-35.725C88.16,-37.66 88.576,-47.169 88.576,-47.169" style="fill:none;fill-rule:nonzero;stroke:rgb(35,31,32);stroke-width:0.75px;"/>
                </g>
                <g transform="matrix(0,-1,-1,0,115.809,67.0189)">
                    <path d="M-0.987,0.987L0.987,0.987" style="fill:none;fill-rule:nonzero;stroke:rgb(35,31,32);stroke-width:0.75px;"/>
                </g>
                <g transform="matrix(0.350287,0.936643,0.936643,-0.350287,75.8793,116.048)">
                    <path d="M7.723,-5.357C15.485,-5.358 21.8,-1.854 21.8,2.74C21.799,7.334 15.681,11.059 7.723,11.278C-0.037,11.492 -6.325,7.711 -6.325,3.118C-6.325,-1.476 -0.039,-5.356 7.723,-5.357Z" style="fill:none;fill-rule:nonzero;stroke:rgb(35,31,32);stroke-width:0.75px;"/>
                </g>
                <g transform="matrix(0.937127,0.348988,0.348988,-0.937127,135.502,157.496)">
                    <path d="M5.695,1.861C6.679,2.204 7.486,2.693 8.268,3.408C12.833,7.576 11.71,16.295 5.695,23.32C-0.168,30.168 -9.006,32.126 -13.571,27.958C-16.86,24.954 -17.241,19.588 -14.903,14.282" style="fill:none;fill-rule:nonzero;stroke:rgb(35,31,32);stroke-width:0.75px;"/>
                </g>
                <g transform="matrix(0.944704,-0.327924,-0.327924,-0.944704,129.203,131.923)">
                    <path d="M4.912,3.971L14.536,3.971C20.711,4.278 26.333,-2.483 26.478,-11.263C26.627,-20.27 22.039,-27.506 15.865,-27.813L6.108,-28.865" style="fill:none;fill-rule:nonzero;stroke:rgb(35,31,32);stroke-width:0.75px;"/>
                </g>
                <g transform="matrix(1,0,0,1,143.241,132.2)">
                    <path d="M0,16.981C1.876,14.991 2.292,11.188 0.882,7.341C-0.821,2.699 -4.99,0 -8.136,1.269C-9.592,1.857 -10.617,3.192 -11.113,4.919" style="fill:none;fill-rule:nonzero;stroke:rgb(35,31,32);stroke-width:0.75px;"/>
                </g>
                <g transform="matrix(0.961854,-0.273564,-0.273564,-0.961854,73.9951,112.741)">
                    <path d="M3.505,2.859L12.976,2.859C17.555,3.23 21.675,-2.38 22.087,-10.132C22.511,-18.082 19.298,-24.277 14.719,-24.649L5.398,-25.204" style="fill:none;fill-rule:nonzero;stroke:rgb(35,31,32);stroke-width:0.75px;"/>
                </g>
                <g transform="matrix(0.350283,0.936644,0.936644,-0.350283,78.0137,118.928)">
                    <path d="M4.236,-2.938C8.539,-2.939 12.041,-1.017 12.041,1.503C12.04,4.022 8.648,6.065 4.236,6.186C-0.067,6.303 -3.553,4.229 -3.553,1.709C-3.553,-0.809 -0.067,-2.938 4.236,-2.938" style="fill:rgb(147,149,152);fill-rule:nonzero;"/>
                </g>
                <g transform="matrix(0.350283,0.936644,0.936644,-0.350283,78.0137,118.928)">
                    <path d="M4.236,-2.938C8.539,-2.939 12.041,-1.017 12.041,1.503C12.04,4.022 8.648,6.065 4.236,6.186C-0.067,6.303 -3.553,4.229 -3.553,1.709C-3.553,-0.809 -0.067,-2.938 4.236,-2.938Z" style="fill:none;fill-rule:nonzero;stroke:rgb(35,31,32);stroke-width:0.75px;"/>
                </g>
                <g transform="matrix(0.350324,0.936629,0.936629,-0.350324,113.845,125.762)">
                    <path d="M2.927,-2.029C5.656,-2.029 7.875,-0.701 7.876,1.04C7.875,2.781 5.724,4.193 2.927,4.276C0.2,4.358 -2.01,2.924 -2.01,1.183C-2.01,-0.558 0.2,-2.029 2.927,-2.029" style="fill:rgb(147,149,152);fill-rule:nonzero;"/>
                </g>
                <g transform="matrix(0.350324,0.936629,0.936629,-0.350324,113.845,125.762)">
                    <path d="M2.927,-2.029C5.656,-2.029 7.875,-0.701 7.876,1.04C7.875,2.781 5.724,4.193 2.927,4.276C0.2,4.358 -2.01,2.924 -2.01,1.183C-2.01,-0.558 0.2,-2.029 2.927,-2.029Z" style="fill:none;fill-rule:nonzero;stroke:rgb(35,31,32);stroke-width:0.75px;"/>
                </g>
                <g transform="matrix(1,0,0,1,113.136,123.263)">
                    <path d="M0,22.657L-13.106,17.648L-17.413,9.075L-7.972,0L-6.342,0.706L-5.99,10.682" style="fill:none;fill-rule:nonzero;stroke:rgb(35,31,32);stroke-width:0.75px;"/>
                </g>
                <g transform="matrix(-0.909349,-0.416034,-0.416034,0.909349,100.666,125.259)">
                    <path d="M-27.212,-6.223L-25.491,-6.223L-21.677,4.277L-1.309,5.827L-5.035,-3.722" style="fill:none;fill-rule:nonzero;stroke:rgb(35,31,32);stroke-width:0.75px;"/>
                </g>
                <g transform="matrix(1,0,0,1,95.7236,139.419)">
                    <path d="M0,-7.081L23.24,1.085L32.127,-8.166" style="fill:none;fill-rule:nonzero;stroke:rgb(35,31,32);stroke-width:0.75px;"/>
                </g>
                <g transform="matrix(0.368214,0.929741,0.929741,-0.368214,119.917,140.717)">
                    <path d="M-0.549,-0.808L1.189,-0.808" style="fill:none;fill-rule:nonzero;stroke:rgb(35,31,32);stroke-width:0.75px;"/>
                </g>
                <g transform="matrix(1,0,0,1,141.02,157.65)">
                    <path d="M0,-22.704C0,-22.704 -1.694,-22.867 -3.297,-22.392C-4.9,-21.916 -9.559,-20.271 -11.067,-19.823C-12.575,-19.375 -15.59,-18.532 -18.035,-17.215C-20.48,-15.896 -22.436,-15.19 -24.963,-13.546C-27.489,-11.902 -29.73,-10.652 -30.423,-10.299C-31.116,-9.946 -32.203,-9.402 -34.227,-9.144C-36.25,-8.886 -39.556,-9.394 -42.838,-8.066C-45.813,-6.861 -45.439,-2.478 -43.398,0.163" style="fill:none;fill-rule:nonzero;stroke:rgb(35,31,32);stroke-width:0.75px;"/>
                </g>
                <g transform="matrix(1,0,0,1,120.989,169.633)">
                    <path d="M0,-15.162C-1.426,-14.293 -2.785,-13.423 -3.288,-10.787C-3.79,-8.151 -2.404,-5.325 -1.657,-3.912C-0.91,-2.5 -0.123,-1.032 0.991,-0.516C2.105,0 3.45,-0.108 4.455,-1.413C5.46,-2.717 6.058,-3.288 6.683,-4.008" style="fill:none;fill-rule:nonzero;stroke:rgb(35,31,32);stroke-width:0.75px;"/>
                </g>
                <g transform="matrix(1,0,0,1,127.388,165.149)">
                    <path d="M0,0.23L1.248,-0.774L0.566,0.722C0.478,0.917 0.246,1.004 0.05,0.916C-0.146,0.826 -0.232,0.595 -0.143,0.399C-0.117,0.342 -0.08,0.294 -0.034,0.257L0,0.23Z" style="fill:rgb(35,31,32);fill-rule:nonzero;"/>
                </g>
                <g transform="matrix(1,0,0,1,122.727,154.929)">
                    <path d="M0,-1.871C-0.167,-1.524 -0.43,-1.227 -0.692,-0.942C-0.959,-0.657 -1.247,-0.392 -1.543,-0.138C-1.702,0 -1.942,-0.017 -2.08,-0.176C-2.218,-0.334 -2.201,-0.574 -2.042,-0.712C-2.01,-0.74 -1.971,-0.763 -1.934,-0.778C-1.59,-0.916 -1.25,-1.065 -0.921,-1.239C-0.596,-1.417 -0.267,-1.601 0,-1.871" style="fill:rgb(35,31,32);fill-rule:nonzero;"/>
                </g>
                <g transform="matrix(1,0,0,1,119.63,168.316)">
                    <path d="M0,-11.386C-0.635,-10.494 -0.755,-9.444 -0.68,-8.414C-0.625,-7.368 -0.487,-6.338 -0.175,-5.36C-0.031,-4.864 0.162,-4.397 0.385,-3.918L1.029,-2.456C1.479,-1.523 1.92,-0.534 2.879,0C1.784,-0.257 1.042,-1.273 0.51,-2.187C-0.01,-3.133 -0.55,-4.056 -0.891,-5.139C-1.215,-6.205 -1.329,-7.326 -1.263,-8.416C-1.255,-9.503 -0.864,-10.707 0,-11.386" style="fill:rgb(35,31,32);fill-rule:nonzero;"/>
                </g>
                <g transform="matrix(1,0,0,1,127.335,165.722)">
                    <path d="M0,-0.282C0.196,-0.447 0.408,-0.47 0.542,-0.472L0.923,-0.47C1.158,-0.475 1.397,-0.541 1.627,-0.668C1.486,-0.452 1.283,-0.252 1.034,-0.113L0.681,0.072C0.572,0.129 0.536,0.195 0.559,0.218C0.421,0.372 0.184,0.386 0.029,0.247C-0.125,0.11 -0.138,-0.128 0,-0.282" style="fill:rgb(35,31,32);fill-rule:nonzero;"/>
                </g>
                <g transform="matrix(1,0,0,1,126.039,162.046)">
                    <path d="M0,-4.89C0.538,-4.869 0.986,-4.557 1.237,-4.131C1.347,-3.902 1.381,-3.639 1.467,-3.42C1.55,-3.199 1.679,-3.003 1.814,-2.791C1.944,-2.582 2.073,-2.352 2.108,-2.107C2.171,-1.864 2.208,-1.615 2.19,-1.367C2.149,-0.87 1.953,-0.399 1.611,-0.018C1.596,-0.001 1.569,0.001 1.552,-0.015C1.546,-0.021 1.541,-0.031 1.539,-0.038C1.423,-0.543 1.415,-0.97 1.39,-1.39C1.42,-1.812 1.393,-2.211 1.422,-2.67C1.42,-2.896 1.379,-3.124 1.251,-3.308C1.122,-3.492 0.913,-3.619 0.743,-3.75C0.438,-4.048 0.208,-4.371 -0.036,-4.825L-0.039,-4.829C-0.049,-4.849 -0.042,-4.874 -0.021,-4.885C-0.015,-4.889 -0.007,-4.891 0,-4.89" style="fill:rgb(35,31,32);fill-rule:nonzero;"/>
                </g>
                <g transform="matrix(1,0,0,1,111.031,150.67)">
                    <path d="M0,-3.123C-0.917,-2.709 -1.735,-2.222 -2.446,-1.513C-3.162,-0.822 -3.795,-0.031 -4.407,0.771C-3.898,-0.102 -3.368,-0.967 -2.722,-1.767C-2.096,-2.579 -1.23,-3.256 -0.363,-3.779L-0.349,-3.788C-0.171,-3.894 0.06,-3.838 0.167,-3.66C0.275,-3.482 0.218,-3.251 0.04,-3.144C0.027,-3.137 0.013,-3.129 0,-3.123" style="fill:rgb(35,31,32);fill-rule:nonzero;"/>
                </g>
                <g transform="matrix(1,0,0,1,122.943,163.536)">
                    <path d="M0,2.733C0.584,2.851 1.007,2.883 1.421,2.83C1.634,2.825 1.915,2.796 2.118,2.629C2.328,2.473 2.445,2.222 2.542,1.968C2.706,1.443 2.899,0.977 3.068,0.487C3.295,0.033 3.44,-0.528 3.958,-0.938C3.974,-0.951 3.997,-0.948 4.009,-0.932C4.015,-0.924 4.018,-0.915 4.017,-0.907L4.015,-0.89C3.968,-0.362 4.01,0.208 3.82,0.759C3.623,1.296 3.317,1.809 2.884,2.195C2.671,2.388 2.475,2.59 2.284,2.805C2.105,3.026 1.899,3.283 1.591,3.43C0.943,3.684 0.211,3.34 -0.049,2.79C-0.059,2.769 -0.05,2.745 -0.03,2.735C-0.021,2.731 -0.009,2.731 0,2.733" style="fill:rgb(35,31,32);fill-rule:nonzero;"/>
                </g>
                <g transform="matrix(1,0,0,1,144.898,147.61)">
                    <path d="M0,-2.508C0,-2.508 -0.753,-1.08 -1.252,-0.306C-1.321,-0.198 -1.385,-0.097 -1.442,0" style="fill:none;fill-rule:nonzero;stroke:rgb(35,31,32);stroke-width:0.75px;"/>
                </g>
                <g transform="matrix(1,0,0,1,143.777,148.096)">
                    <path d="M0,-0.294C-0.322,0.011 -0.64,0.329 -0.886,0.716C-0.878,0.251 -0.769,-0.219 -0.644,-0.678C-0.588,-0.886 -0.375,-1.01 -0.167,-0.954C0.042,-0.898 0.165,-0.685 0.109,-0.477C0.09,-0.405 0.05,-0.342 0,-0.294" style="fill:rgb(35,31,32);fill-rule:nonzero;"/>
                </g>
                <g transform="matrix(1,0,0,1,143.456,175.549)">
                    <path d="M0,-27.94C0,-27.94 -0.289,-27.156 -0.197,-25.709C-0.105,-24.261 0.098,-21.928 -0.574,-20.41C-1.247,-18.891 -2.062,-17.333 -3.793,-15.61C-5.525,-13.888 -7.135,-12.278 -7.624,-11.697C-8.113,-11.117 -9.724,-8.987 -10.6,-6.878C-11.477,-4.768 -11.875,-4.258 -12.547,-1.813C-12.739,-1.116 -12.891,-0.524 -13.004,0" style="fill:none;fill-rule:nonzero;stroke:rgb(35,31,32);stroke-width:0.75px;"/>
                </g>
                <g transform="matrix(1,0,0,1,130.818,178.311)">
                    <path d="M0,-2.682C-0.358,-1.656 -0.592,-0.594 -0.544,0.523C-0.843,-0.546 -0.859,-1.718 -0.733,-2.84L-0.732,-2.848C-0.708,-3.056 -0.522,-3.205 -0.314,-3.182C-0.107,-3.159 0.042,-2.971 0.019,-2.764C0.016,-2.736 0.009,-2.707 0,-2.682" style="fill:rgb(35,31,32);fill-rule:nonzero;"/>
                </g>
                <g transform="matrix(1,0,0,1,130.452,191.975)">
                    <path d="M0,-16.425C0,-16.425 -0.182,-14.906 0.195,-13.521C0.572,-12.135 1.01,-10.851 0.775,-8.67C0.541,-6.489 0.317,-5.409 0.124,-3.952C-0.07,-2.495 -0.396,-0.915 -0.345,-0.437C-0.326,-0.258 -0.304,-0.115 -0.285,0" style="fill:none;fill-rule:nonzero;stroke:rgb(35,31,32);stroke-width:0.75px;"/>
                </g>
                <g transform="matrix(1,0,0,1,130.537,191.985)">
                    <path d="M0,-0.074C-0.099,0.187 -0.204,0.427 -0.308,0.646C-0.454,0.427 -0.599,0.23 -0.739,0.053L-0.748,0.042C-0.897,-0.146 -0.866,-0.421 -0.678,-0.57C-0.489,-0.72 -0.215,-0.688 -0.066,-0.5C0.033,-0.375 0.052,-0.213 0,-0.074" style="fill:rgb(35,31,32);fill-rule:nonzero;"/>
                </g>
                <g transform="matrix(1,0,0,1,138.431,193.625)">
                    <path d="M0,-1.442C-0.046,-1.38 0.276,-0.744 -0.69,-0.552C-1.657,-0.36 -1.983,-0.575 -2.549,0" style="fill:none;fill-rule:nonzero;stroke:rgb(35,31,32);stroke-width:0.75px;"/>
                </g>
                <g transform="matrix(1,0,0,1,134.258,192.129)">
                    <path d="M0,0.553C0,0.553 0.13,0.537 0.337,0.422C0.544,0.307 1.097,0.016 1.956,0" style="fill:none;fill-rule:nonzero;stroke:rgb(35,31,32);stroke-width:0.75px;"/>
                </g>
                <g transform="matrix(1,0,0,1,136.207,192.481)">
                    <path d="M0,-0.727C0.365,-0.693 0.778,-0.782 1.24,-0.815C1.702,-0.854 2.192,-0.766 2.601,-0.572L2.602,-0.572C2.675,-0.54 2.708,-0.456 2.678,-0.383C2.671,-0.368 2.663,-0.355 2.652,-0.343L2.581,-0.264C2.539,-0.218 2.494,-0.168 2.461,-0.121C2.445,-0.096 2.43,-0.072 2.425,-0.05C2.428,-0.041 2.412,0.021 2.523,-0.074C2.399,0.092 2.164,0.127 1.999,0.002C1.833,-0.123 1.799,-0.358 1.923,-0.523C2.074,-0.662 2.112,-0.623 2.167,-0.639C2.216,-0.641 2.255,-0.635 2.294,-0.629C2.372,-0.617 2.439,-0.598 2.511,-0.578L2.489,-0.27L2.488,-0.271C2.092,-0.379 1.702,-0.381 1.315,-0.285C0.929,-0.195 0.511,-0.022 0.013,0.023L-0.001,0.024C-0.209,0.043 -0.392,-0.11 -0.411,-0.318C-0.43,-0.525 -0.276,-0.708 -0.069,-0.727C-0.046,-0.729 -0.022,-0.729 0,-0.727" style="fill:rgb(35,31,32);fill-rule:nonzero;"/>
                </g>
                <g transform="matrix(1,0,0,1,132.913,191.538)">
                    <path d="M0,0.23C0.281,0.075 0.514,-0.005 0.84,-0.181C1.151,-0.343 1.487,-0.466 1.844,-0.566C2.189,-0.638 2.488,-0.717 2.873,-0.76C3.243,-0.792 3.63,-0.741 3.964,-0.594L3.966,-0.593L3.977,-0.283C4.003,-0.155 4.035,-0.081 4.105,-0.142C4.111,-0.103 4.182,-0.324 4.163,-0.276C4.166,-0.288 4.167,-0.283 4.169,-0.269L4.181,-0.186C4.199,-0.054 4.19,0.109 4.142,0.272C4.038,0.608 3.737,0.869 3.457,0.932C3.251,0.979 3.048,0.851 3.001,0.646C2.971,0.516 3.012,0.386 3.099,0.297L3.145,0.251C3.257,0.136 3.307,0.084 3.337,-0.001C3.361,-0.043 3.374,-0.1 3.391,-0.185L3.401,-0.265L3.409,-0.34C3.391,-0.319 3.467,-0.568 3.489,-0.55C3.622,-0.702 3.754,-0.683 3.882,-0.59L3.893,-0.28L3.89,-0.28C3.569,-0.288 3.271,-0.242 2.981,-0.152C2.703,-0.079 2.368,0.076 2.061,0.164C1.773,0.257 1.494,0.408 1.204,0.544C0.942,0.697 0.534,0.832 0.204,0.953C0.013,1.022 -0.198,0.923 -0.267,0.733C-0.33,0.561 -0.256,0.373 -0.101,0.287L0,0.23Z" style="fill:rgb(35,31,32);fill-rule:nonzero;"/>
                </g>
                <g transform="matrix(1,0,0,1,130.4,191.304)">
                    <path d="M0,0.377C-0.103,0.318 -0.024,0.372 -0.005,0.366C0.03,0.373 0.079,0.374 0.132,0.369C0.238,0.36 0.355,0.33 0.48,0.288C0.731,0.202 0.988,0.084 1.239,-0.043C1.5,-0.171 1.712,-0.308 1.994,-0.466C2.266,-0.611 2.583,-0.72 2.905,-0.724L2.91,-0.724C2.966,-0.726 3.02,-0.696 3.053,-0.655C3.154,-0.529 3.224,-0.406 3.265,-0.241C3.307,-0.082 3.29,0.118 3.204,0.287C3.099,0.468 3.039,0.536 2.93,0.662L2.789,0.808C2.761,0.858 2.856,0.74 2.846,0.751L2.721,0.884C2.586,1.027 2.361,1.034 2.218,0.899C2.14,0.825 2.103,0.723 2.107,0.623C2.113,0.508 2.283,0.279 2.359,0.259L2.513,0.173C2.589,0.132 2.715,0.029 2.75,0.002C2.852,-0.067 2.871,-0.284 2.79,-0.471L2.933,-0.403L2.929,-0.402C2.67,-0.366 2.436,-0.253 2.215,-0.099C2.009,0.054 1.754,0.261 1.511,0.419C1.263,0.585 1.01,0.743 0.727,0.882C0.584,0.949 0.428,1.017 0.248,1.056C0.158,1.075 0.062,1.09 -0.047,1.088C-0.17,1.072 -0.241,1.103 -0.466,0.965C-0.628,0.836 -0.656,0.6 -0.527,0.438C-0.398,0.275 -0.162,0.248 0,0.377" style="fill:rgb(35,31,32);fill-rule:nonzero;"/>
                </g>
                <g transform="matrix(1,0,0,1,132.133,193.023)">
                    <path d="M0,-1.032C0.508,-1.273 1.044,-1.214 1.526,-1.011C1.761,-0.894 1.99,-0.743 2.163,-0.527C2.339,-0.316 2.444,-0.036 2.432,0.241C1.941,-0.019 1.612,-0.148 1.215,-0.329C0.83,-0.512 0.434,-0.687 0,-1.032" style="fill:rgb(35,31,32);fill-rule:nonzero;"/>
                </g>
                <g transform="matrix(-1,0,0,1,135.439,193.486)">
                    <path d="M-2.324,0.246C-0.943,0.262 -0.667,-0.016 0,0.246" style="fill:none;fill-rule:nonzero;stroke:rgb(35,31,32);stroke-width:0.75px;"/>
                </g>
                <g transform="matrix(1,0,0,1,124.361,196.687)">
                    <path d="M0,-8.92C0,-8.92 0.581,-8.818 1.059,-8.177C1.538,-7.534 1.884,-6.453 2.129,-6.035C2.374,-5.617 2.867,-4.956 2.97,-4.654C2.97,-4.654 3.124,-4.266 3.277,-3.591C3.431,-2.916 4.141,-1.055 4.773,-0.645C4.773,-0.645 5.294,0 6.667,-0.031C8.041,-0.062 9.068,-0.768 9.352,-0.913C9.636,-1.059 10.35,-1.12 10.833,-1.343C11.316,-1.566 11.845,-1.934 12.428,-1.934C13.011,-1.934 13.602,-1.765 14.031,-1.834C14.461,-1.903 14.699,-2.233 14.676,-2.409" style="fill:none;fill-rule:nonzero;stroke:rgb(35,31,32);stroke-width:0.75px;"/>
                </g>
                <g transform="matrix(1,0,0,1,107.695,212.571)">
                    <path d="M0,-14.897C-0.132,-13.868 -0.01,-11.769 0,-9.741C0.01,-7.713 -0.275,-5.522 -0.896,-4.29C-1.518,-3.056 -2.679,-1.151 -4.095,0" style="fill:none;fill-rule:nonzero;stroke:rgb(35,31,32);stroke-width:0.75px;"/>
                </g>
                <g transform="matrix(1,0,0,1,108.296,198.17)">
                    <path d="M0,-2.004C-0.255,-1.503 -0.284,-0.953 -0.229,-0.448C-0.206,-0.236 -0.359,-0.046 -0.571,-0.024C-0.783,0 -0.973,-0.153 -0.996,-0.365C-1.002,-0.424 -0.995,-0.481 -0.977,-0.533L-0.973,-0.544C-0.77,-1.118 -0.455,-1.66 0,-2.004" style="fill:rgb(35,31,32);fill-rule:nonzero;"/>
                </g>
                <g transform="matrix(1,0,0,1,103.836,214.542)">
                    <path d="M0,-1.68L-1.611,-0.613C-2.115,-0.24 -2.682,0.118 -2.916,0.729C-2.804,0.071 -2.286,-0.427 -1.855,-0.898L-0.473,-2.262C-0.325,-2.409 -0.086,-2.407 0.06,-2.259C0.207,-2.112 0.205,-1.872 0.057,-1.726C0.04,-1.709 0.02,-1.693 0,-1.68" style="fill:rgb(35,31,32);fill-rule:nonzero;"/>
                </g>
                <g transform="matrix(1,0,0,1,138.931,194.178)">
                    <path d="M0,-0.26C0.116,-0.273 0.222,-0.258 0.34,-0.228C0.399,-0.208 0.457,-0.189 0.519,-0.162C0.569,-0.144 0.678,-0.098 0.661,0.048L0.661,0.05L0.66,0.05C0.381,-0.122 0.06,-0.163 -0.248,-0.171C-0.557,-0.176 -0.863,-0.136 -1.164,-0.071C-1.37,-0.026 -1.574,-0.156 -1.619,-0.363C-1.665,-0.57 -1.534,-0.774 -1.327,-0.819C-1.278,-0.829 -1.229,-0.83 -1.182,-0.822L-1.172,-0.821C-0.827,-0.762 -0.486,-0.673 -0.165,-0.537C0.15,-0.402 0.463,-0.22 0.66,0.05L0.66,0.051L0.658,0.052C0.562,0.142 0.57,0.188 0.527,0.207L0.424,0.302C0.355,0.362 0.277,0.42 0.211,0.459C0.029,0.57 -0.209,0.511 -0.321,0.329C-0.432,0.146 -0.374,-0.092 -0.19,-0.203C-0.14,-0.234 -0.085,-0.252 -0.03,-0.257L0,-0.26Z" style="fill:rgb(35,31,32);fill-rule:nonzero;"/>
                </g>
                <g transform="matrix(1,0,0,1,107.641,187.636)">
                    <path d="M0,10.871C0,9.863 10.519,1.645 12.583,0.997C14.648,0.348 16.773,0 17.179,0.323" style="fill:none;fill-rule:nonzero;stroke:rgb(35,31,32);stroke-width:0.75px;"/>
                </g>
                <g transform="matrix(-0.999835,-0.0181548,-0.0181548,0.999835,107.17,215.014)">
                    <path d="M-3.03,0.121C-1.754,0.159 -0.8,-0.001 -0.001,0.121" style="fill:none;fill-rule:nonzero;stroke:rgb(35,31,32);stroke-width:0.75px;"/>
                </g>
                <g transform="matrix(1,0,0,1,96.7041,219.607)">
                    <path d="M0,-7.132C0,-7.132 0.127,-6.672 -0.09,-6.101C-0.307,-5.53 -0.402,-4.253 -0.266,-3.696C-0.13,-3.139 -0.035,-2.786 0.053,-2.283C0.141,-1.78 0.264,-0.544 1.31,-0.273C2.355,0 3.496,-0.735 4.216,-1.074C4.936,-1.413 6.24,-2.025 6.974,-2.188C7.707,-2.351 8.78,-2.297 9.486,-2.623C10.193,-2.949 10.709,-3.153 11.673,-3.099C12.638,-3.044 13.439,-3.017 13.847,-3.153C14.254,-3.288 14.662,-3.628 14.703,-3.913" style="fill:none;fill-rule:nonzero;stroke:rgb(35,31,32);stroke-width:0.75px;"/>
                </g>
                <g transform="matrix(1,0,0,1,111.237,215.842)">
                    <path d="M0,-0.484C0.114,-0.5 0.201,-0.494 0.308,-0.486C0.41,-0.47 0.524,-0.466 0.659,-0.372L0.662,-0.37L0.465,-0.126C0.399,-0.169 0.264,-0.229 0.146,-0.256C0.022,-0.289 -0.106,-0.308 -0.238,-0.315C-0.5,-0.335 -0.769,-0.315 -1.036,-0.277C-1.243,-0.248 -1.434,-0.392 -1.463,-0.598C-1.492,-0.805 -1.348,-0.997 -1.142,-1.026C-1.11,-1.03 -1.074,-1.03 -1.043,-1.027C-0.737,-0.994 -0.429,-0.94 -0.128,-0.84C0.021,-0.792 0.169,-0.73 0.312,-0.652C0.457,-0.567 0.582,-0.493 0.716,-0.327L0.519,-0.082L0.518,-0.082C0.508,-0.022 0.381,0.08 0.339,0.185C0.241,0.428 -0.035,0.546 -0.278,0.45C-0.521,0.352 -0.64,0.076 -0.542,-0.168C-0.477,-0.332 -0.33,-0.438 -0.167,-0.462L0,-0.484Z" style="fill:rgb(35,31,32);fill-rule:nonzero;"/>
                </g>
                <g transform="matrix(1,0,0,1,107.219,214.686)">
                    <path d="M0,0.822L-1.313,0.586L-0.101,0.079L-0.082,0.071C0.119,-0.013 0.349,0.082 0.433,0.282C0.517,0.483 0.422,0.714 0.222,0.798C0.149,0.828 0.073,0.835 0,0.822" style="fill:rgb(35,31,32);fill-rule:nonzero;"/>
                </g>
                <g transform="matrix(1,0,0,1,113.58,215.106)">
                    <path d="M0,-2.864C-0.123,-2.728 -0.136,-1.995 -1.005,-1.669C-1.875,-1.343 -3.002,-1.329 -3.708,-1.057C-4.415,-0.785 -5.568,-0.206 -6.071,0" style="fill:none;fill-rule:nonzero;stroke:rgb(35,31,32);stroke-width:0.75px;"/>
                </g>
                <g transform="matrix(1,0,0,1,106.53,212.011)">
                    <path d="M0,1.658C0.638,1.413 1.182,0.924 2.078,0.666C2.975,0.408 3.287,0.448 3.776,0.326C4.265,0.204 4.604,0.136 5.297,0" style="fill:none;fill-rule:nonzero;stroke:rgb(35,31,32);stroke-width:0.75px;"/>
                </g>
                <g transform="matrix(1,0,0,1,111.755,212.622)">
                    <path d="M0,-0.978C0.389,-1.016 0.76,-0.998 1.127,-0.95C1.493,-0.896 1.854,-0.824 2.207,-0.651L2.208,-0.651C2.273,-0.619 2.301,-0.541 2.269,-0.475C2.262,-0.459 2.251,-0.446 2.24,-0.435L2.136,-0.341C2.064,-0.276 2.022,-0.16 2.104,-0.128C1.965,0.025 1.728,0.038 1.574,-0.101C1.42,-0.239 1.407,-0.476 1.546,-0.63C1.788,-0.777 1.995,-0.733 2.158,-0.663L2.085,-0.353L2.084,-0.353C1.467,-0.493 0.742,-0.417 0.145,-0.243C-0.055,-0.183 -0.265,-0.296 -0.324,-0.496C-0.384,-0.695 -0.271,-0.905 -0.071,-0.964C-0.049,-0.971 -0.022,-0.976 0,-0.978" style="fill:rgb(35,31,32);fill-rule:nonzero;"/>
                </g>
                <g transform="matrix(1,0,0,1,105.593,213.647)">
                    <path d="M0,-0.087C0.342,0.054 0.619,-0.13 0.803,-0.328C0.958,-0.495 1.22,-0.504 1.387,-0.349C1.554,-0.193 1.563,0.068 1.407,0.234C1.337,0.31 1.245,0.353 1.15,0.364L1.072,0.372C0.654,0.417 0.149,0.262 0,-0.087" style="fill:rgb(35,31,32);fill-rule:nonzero;"/>
                </g>
                <g transform="matrix(-0.585836,0.810429,0.810429,0.585836,111.301,212.36)">
                    <path d="M-1.172,-0.599C-0.991,-0.501 -0.082,-0.262 0.306,-0.599" style="fill:none;fill-rule:nonzero;stroke:rgb(35,31,32);stroke-width:0.75px;"/>
                </g>
                <g transform="matrix(1,0,0,1,105.267,210.734)">
                    <path d="M0,1.888C0.666,1.563 0.842,1.223 2.458,0.761C4.075,0.299 3.953,0.231 4.971,0" style="fill:none;fill-rule:nonzero;stroke:rgb(35,31,32);stroke-width:0.75px;"/>
                </g>
                <g transform="matrix(1,0,0,1,110.155,211.424)">
                    <path d="M0,-1.056C0.286,-1.084 0.575,-1.091 0.861,-1.071C1.151,-1.047 1.425,-1.009 1.718,-0.899L1.72,-0.899C1.798,-0.868 1.837,-0.78 1.807,-0.701L1.797,-0.68L1.754,-0.606C1.717,-0.542 1.677,-0.464 1.665,-0.399C1.647,-0.336 1.671,-0.27 1.718,-0.315C1.691,-0.11 1.502,0.035 1.297,0.007C1.091,-0.02 0.947,-0.208 0.975,-0.413C1.049,-0.63 1.178,-0.71 1.279,-0.77C1.386,-0.828 1.482,-0.856 1.59,-0.883L1.625,-0.591C1.399,-0.611 1.131,-0.584 0.889,-0.535C0.643,-0.486 0.401,-0.414 0.166,-0.325C-0.029,-0.249 -0.249,-0.348 -0.323,-0.543C-0.397,-0.739 -0.3,-0.957 -0.104,-1.033C-0.073,-1.044 -0.041,-1.052 -0.008,-1.055L0,-1.056Z" style="fill:rgb(35,31,32);fill-rule:nonzero;"/>
                </g>
                <g transform="matrix(1,0,0,1,104.343,212.251)">
                    <path d="M0,0.602C0.327,0.519 0.546,0.264 0.759,0.035C0.909,-0.128 1.164,-0.139 1.327,0.011C1.49,0.163 1.5,0.416 1.35,0.58C1.281,0.654 1.191,0.697 1.099,0.706L1.089,0.707C0.903,0.728 0.716,0.741 0.53,0.731C0.346,0.718 0.151,0.699 0,0.602" style="fill:rgb(35,31,32);fill-rule:nonzero;"/>
                </g>
                <g transform="matrix(-0.616292,0.787517,0.787517,0.616292,108.065,211.77)">
                    <path d="M-1.378,-0.672C-1.25,-0.571 -0.515,-0.168 0.327,-0.672" style="fill:none;fill-rule:nonzero;stroke:rgb(35,31,32);stroke-width:0.75px;"/>
                </g>
                <g transform="matrix(0.888158,-0.459538,-0.459538,-0.888158,105.311,211.262)">
                    <path d="M-0.08,0.327C-0.08,0.327 0.505,0.303 1.344,0.327" style="fill:none;fill-rule:nonzero;stroke:rgb(35,31,32);stroke-width:0.75px;"/>
                </g>
                <g transform="matrix(1,0,0,1,106.171,210.554)">
                    <path d="M0,-0.529C0.743,-0.861 1.597,-1.146 2.448,-1.013C2.532,-1.003 2.592,-0.928 2.587,-0.845L2.583,-0.785L2.562,-0.47C2.561,-0.375 2.553,-0.249 2.581,-0.208C2.732,0.013 2.676,0.315 2.455,0.466C2.234,0.617 1.933,0.561 1.781,0.34C1.68,0.193 1.672,0.01 1.743,-0.141L1.846,-0.359C1.921,-0.517 1.993,-0.581 2.067,-0.675L2.291,-0.921L2.426,-0.693L2.425,-0.693C1.671,-0.672 0.994,-0.302 0.364,0.127C0.192,0.244 -0.042,0.2 -0.159,0.028C-0.276,-0.144 -0.231,-0.379 -0.06,-0.496C-0.042,-0.508 -0.02,-0.52 0,-0.529" style="fill:rgb(35,31,32);fill-rule:nonzero;"/>
                </g>
                <g transform="matrix(1,0,0,1,74.7646,211.902)">
                    <path d="M0,1.887C0.675,1.313 1.417,0.933 2.155,0.567L3.27,0.046C3.638,-0.13 4.015,-0.29 4.346,-0.529C4.053,-0.24 3.699,-0.021 3.362,0.209L2.344,0.891C1.682,1.353 1.024,1.843 0.532,2.416L0,1.887Z" style="fill:rgb(35,31,32);fill-rule:nonzero;"/>
                </g>
                <g transform="matrix(1,0,0,1,107.726,157.99)">
                    <path d="M0,-3.601C-0.757,-3.224 -1.589,-3.033 -2.4,-2.811C-3.224,-2.615 -4.024,-2.398 -4.811,-2.108C-6.382,-1.538 -7.898,-0.817 -9.413,-0.091C-9.599,0 -9.824,-0.079 -9.914,-0.265C-10.005,-0.452 -9.927,-0.676 -9.74,-0.766C-9.732,-0.771 -9.721,-0.775 -9.713,-0.779C-8.141,-1.391 -6.559,-2.002 -4.922,-2.46C-4.108,-2.694 -3.265,-2.852 -2.439,-2.989C-1.617,-3.15 -0.778,-3.281 0,-3.601" style="fill:rgb(35,31,32);fill-rule:nonzero;"/>
                </g>
                <g transform="matrix(1,0,0,1,67.7837,208.276)">
                    <path d="M0,-7.948C0.446,-6.752 0.849,-5.521 1.002,-4.223C1.162,-2.929 1.043,-1.585 0.662,-0.312C0.603,-0.113 0.394,0 0.195,-0.059C-0.003,-0.118 -0.117,-0.327 -0.058,-0.526C-0.054,-0.538 -0.05,-0.551 -0.045,-0.561C0.42,-1.702 0.659,-2.94 0.628,-4.197C0.604,-5.456 0.328,-6.713 0,-7.948" style="fill:rgb(35,31,32);fill-rule:nonzero;"/>
                </g>
                <g transform="matrix(1,0,0,1,98.1636,233.35)">
                    <path d="M0,-75.795C-1.121,-75.306 -2.666,-74.305 -3.966,-73.444C-8.693,-70.319 -25.551,-57.193 -27.67,-53.715C-29.789,-50.237 -31.099,-47.411 -31.883,-42.9C-32.536,-39.15 -32.348,-35.938 -31.831,-34.035C-31.315,-32.133 -30.255,-29.274 -30.006,-28.01C-29.503,-25.455 -30.887,-23.357 -31.742,-22.225C-33.705,-19.626 -35.505,-17.054 -41.48,-13.267C-47.456,-9.48 -55.748,-4.919 -72.779,-6.181C-89.81,-7.443 -91.436,-15.14 -91.436,-18.078C-91.436,-19.351 -90.897,-21.977 -91.639,-21.977C-92.696,-21.977 -94.497,-16.523 -91.571,-11.921C-88.644,-7.319 -79.242,0 -61.194,-1.995C-43.147,-3.99 -37.322,-9.357 -35.045,-10.904C-32.77,-12.452 -23.133,-19.296 -23.133,-19.296C-22.394,-19.951 -21.041,-20.954 -18.922,-20.818C-16.803,-20.683 -13.892,-19.977 -11.936,-19.977C-8.925,-19.977 -6.48,-21.672 -4.47,-21.672C-3.294,-21.672 -2.128,-21.318 -1.492,-20.898" style="fill:none;fill-rule:nonzero;stroke:rgb(35,31,32);stroke-width:0.75px;"/>
                </g>
                <g transform="matrix(1,0,0,1,96.8779,212.992)">
                    <path d="M0,-0.853C0.264,-0.549 0.407,-0.088 0.266,0.229C0.129,-0.098 -0.15,-0.201 -0.414,-0.227C-0.644,-0.249 -0.812,-0.455 -0.789,-0.685C-0.766,-0.915 -0.561,-1.082 -0.331,-1.06C-0.221,-1.048 -0.125,-0.996 -0.057,-0.918L0,-0.853Z" style="fill:rgb(35,31,32);fill-rule:nonzero;"/>
                </g>
                <g transform="matrix(1,0,0,1,136.853,149.687)">
                    <path d="M0,-6.49C-0.005,-6.284 -0.25,-6.194 -0.413,-6.149C-0.6,-6.097 -0.795,-6.095 -0.962,-6.082C-1.291,-6.085 -1.538,-5.933 -1.648,-5.752C-1.861,-5.283 -1.881,-4.539 -1.842,-3.909C-1.812,-3.235 -1.67,-2.652 -1.416,-1.997C-1.211,-1.361 -0.831,-0.692 -0.892,0.052C-0.999,-0.289 -1.183,-0.567 -1.388,-0.853C-1.58,-1.143 -1.777,-1.439 -1.948,-1.754C-2.123,-2.059 -2.282,-2.392 -2.398,-2.761C-2.505,-3.124 -2.56,-3.493 -2.59,-3.862C-2.596,-4.603 -2.62,-5.341 -2.124,-6.094C-1.805,-6.483 -1.291,-6.542 -0.932,-6.449C-0.753,-6.404 -0.598,-6.354 -0.437,-6.345C-0.283,-6.349 -0.083,-6.33 0,-6.49" style="fill:rgb(35,31,32);fill-rule:nonzero;"/>
                </g>
                <g transform="matrix(0.0170565,-0.999855,-0.999855,-0.0170565,140.123,147.516)">
                    <path d="M-1.142,1.769C-0.011,1.131 1.331,1.594 1.789,1.769" style="fill:none;fill-rule:nonzero;stroke:rgb(35,31,32);stroke-width:0.75px;"/>
                </g>
                <g transform="matrix(1,0,0,1,138.02,143.698)">
                    <path d="M0,2.087C-0.029,1.711 -0.209,1.29 -0.415,0.887L-0.736,0.27C-0.834,0.062 -0.96,-0.161 -0.946,-0.399C-0.896,-0.173 -0.729,-0.008 -0.582,0.164L-0.107,0.672C0.207,1.022 0.529,1.392 0.729,1.91L0.733,1.92C0.809,2.116 0.711,2.336 0.516,2.411C0.32,2.486 0.1,2.39 0.024,2.193C0.011,2.159 0.003,2.122 0,2.087" style="fill:rgb(35,31,32);fill-rule:nonzero;"/>
                </g>
                <g transform="matrix(1,0,0,1,136.169,148.392)">
                    <path d="M0,0.897C0.407,0.94 0.82,0.894 1.163,0.751C1.51,0.605 1.737,0.344 1.842,0.046C1.912,-0.152 2.13,-0.256 2.329,-0.186C2.527,-0.117 2.631,0.101 2.562,0.3C2.548,0.337 2.53,0.372 2.507,0.402L2.489,0.426C2.181,0.834 1.7,1.082 1.25,1.116C0.8,1.153 0.378,1.06 0,0.897" style="fill:rgb(35,31,32);fill-rule:nonzero;"/>
                </g>
                <g transform="matrix(1,0,0,1,138.424,146.914)">
                    <path d="M0,-1.108C0.319,-0.133 -0.189,0.815 -0.6,1.297C-1.011,1.779 -1.902,2.12 -2.285,1.989C-2.669,1.859 -2.905,0.954 -3.049,0.371C-3.186,-0.183 -3.375,-1.878 -3.251,-2.507C-3.128,-3.136 -2.813,-3.228 -2.121,-3.067C-1.429,-2.906 -0.917,-2.568 -0.669,-2.199C-0.492,-1.934 -0.102,-1.419 0,-1.108" style="fill:rgb(35,31,32);fill-rule:nonzero;"/>
                </g>
                <g transform="matrix(0,1,1,0,136.135,144.491)">
                    <path d="M0.51,-0.509C0.824,-0.509 1.08,-0.28 1.08,0.001C1.08,0.282 0.824,0.51 0.51,0.51C0.195,0.51 -0.061,0.282 -0.061,0.001C-0.061,-0.28 0.195,-0.509 0.51,-0.509" style="fill:white;fill-rule:nonzero;"/>
                </g>
                <g transform="matrix(0.907624,-0.419784,-0.419784,-0.907624,133.423,138.183)">
                    <path d="M-0.21,0.953C-0.21,0.953 2.939,1.172 4.331,0.953" style="fill:rgb(35,31,32);fill-rule:nonzero;"/>
                </g>
                <g transform="matrix(1,0,0,1,132.833,135.138)">
                    <path d="M0,2.268C0.636,1.851 1.282,1.448 1.941,1.061C2.606,0.678 3.26,0.297 4.018,0L4.223,0.722C3.53,0.868 2.806,1.134 2.104,1.399C1.397,1.669 0.696,1.961 0,2.268" style="fill:rgb(35,31,32);fill-rule:nonzero;"/>
                </g>
                <g transform="matrix(1,0,0,1,143.226,161.905)">
                    <path d="M0,-16.857C1.013,-15.725 1.714,-14.386 2.33,-13.026C2.939,-11.66 3.412,-10.237 3.797,-8.794C4.201,-7.356 4.473,-5.885 4.724,-4.415L5.022,-2.196L5.229,0.033L5.003,-2.194L4.687,-4.409C4.424,-5.877 4.14,-7.342 3.725,-8.775C3.328,-10.211 2.845,-11.626 2.227,-12.98C1.607,-14.325 0.886,-15.661 -0.104,-16.75L-0.111,-16.756C-0.139,-16.788 -0.137,-16.835 -0.106,-16.863C-0.076,-16.89 -0.028,-16.888 0,-16.858L0,-16.857Z" style="fill:rgb(35,31,32);fill-rule:nonzero;"/>
                </g>
                <g transform="matrix(1,0,0,1,143.484,159.261)">
                    <path d="M0,-14.998C1.321,-14.309 2.348,-13.224 3.241,-12.078C4.132,-10.921 4.857,-9.645 5.458,-8.32C6.085,-7.004 6.544,-5.619 6.978,-4.231L7.522,-2.118L7.958,0.02L7.504,-2.114L6.942,-4.221C6.497,-5.602 6.027,-6.981 5.39,-8.288C4.78,-9.604 4.047,-10.868 3.152,-12.009C2.261,-13.137 1.215,-14.209 -0.058,-14.86L-0.068,-14.865C-0.105,-14.885 -0.12,-14.93 -0.101,-14.966C-0.082,-15.003 -0.037,-15.018 0,-14.999L0,-14.998Z" style="fill:rgb(35,31,32);fill-rule:nonzero;"/>
                </g>
                <g transform="matrix(1,0,0,1,137.733,139.841)">
                    <path d="M0,-4.507C-2.802,-4.102 -5.582,-3.517 -8.318,-2.784C-11.05,-2.037 -13.749,-1.124 -16.283,0.155C-13.76,-1.146 -11.067,-2.085 -8.338,-2.858C-5.604,-3.614 -2.829,-4.224 -0.021,-4.656C0.021,-4.662 0.059,-4.634 0.065,-4.593C0.071,-4.553 0.043,-4.514 0.002,-4.508L0,-4.507Z" style="fill:rgb(35,31,32);fill-rule:nonzero;"/>
                </g>
                <g transform="matrix(1,0,0,1,144.266,160.178)">
                    <path d="M0,-17.044C1.171,-16.041 1.706,-14.584 2.126,-13.182C2.521,-11.753 2.717,-10.28 2.821,-8.808C2.901,-7.332 2.896,-5.855 2.814,-4.38C2.736,-2.905 2.569,-1.44 2.395,0.026C2.557,-1.44 2.711,-2.908 2.776,-4.382C2.847,-5.856 2.839,-7.332 2.746,-8.803C2.63,-10.271 2.422,-11.736 2.018,-13.15C1.598,-14.533 1.025,-15.987 -0.08,-16.917L-0.096,-16.931C-0.127,-16.957 -0.131,-17.004 -0.105,-17.035C-0.079,-17.066 -0.032,-17.07 0,-17.044Z" style="fill:rgb(35,31,32);fill-rule:nonzero;"/>
                </g>
            </g>
        </g>
    </g>
</svg>
