%
M48
M72
T01C0.0138
T02C0.0276
T03C0.0335
T04C0.0354
T05C0.0400
T06C0.0591
T07C0.0787
T08C0.1102
%
T01
X6351Y13832
X6233Y14360
X6633Y14860
X7211Y14492
X8011Y15192
X7633Y15660
X8033Y16160
X8911Y15192
X10433Y13960
X12631Y14942
X13503Y14380
X13911Y14672
X14258Y14560
X13891Y15092
X15241Y15422
X14621Y16192
X13991Y16622
X15341Y16972
X15475Y18188
X16112Y18060
X14784Y18448
X14202Y17921
X13617Y18818
X12761Y17752
X11561Y17442
X10811Y17392
X11431Y16902
X11081Y16472
X8873Y17600
X7711Y18792
X6511Y16592
X4933Y15860
X3611Y15292
X4611Y14492
X1702Y14021
X1811Y15792
X811Y17692
X2633Y19060
X3211Y18892
X4211Y18492
X4733Y17614
X3733Y19860
X4531Y20792
X6311Y21092
X7311Y21092
X9411Y21992
X10261Y21672
X11081Y21442
X11991Y20842
X11554Y19860
X12271Y22182
X11554Y23093
X10682Y23471
X8872Y24251
X7612Y24471
X5511Y23702
X4542Y24391
X3762Y24311
X4542Y24971
X5402Y25011
X3681Y23252
X5411Y22392
X7303Y22485
X10292Y25691
X9602Y27571
X10502Y29121
X12052Y28881
X14102Y29821
X15602Y29821
X15702Y31821
X14102Y31821
X14102Y27571
X15602Y27571
X13791Y26152
X13325Y25840
X13783Y25474
X14310Y25840
X14900Y25840
X14861Y23882
X15883Y23674
X15481Y23062
X15991Y22252
X16502Y21521
X17221Y20832
X17461Y22272
X18984Y22553
X20121Y21122
X20412Y19353
X21152Y19371
X22802Y19371
X24349Y19353
X26151Y20722
X26911Y21082
X26083Y21274
X26783Y22074
X25333Y22553
X27502Y23421
X28283Y21174
X29533Y20160
X29761Y19672
X30533Y19960
X31563Y19810
X32601Y19712
X33601Y19682
X34601Y19672
X35683Y19674
X36055Y19160
X36731Y19992
X35911Y17962
X36083Y16274
X35471Y16072
X34433Y16160
X34231Y15582
X33621Y15052
X32594Y14855
X32611Y14222
X31621Y14312
X31533Y15060
X31651Y15582
X33621Y14192
X32601Y13142
X31601Y13142
X29611Y13022
X28633Y14460
X29241Y14792
X29033Y15086
X29133Y15660
X28461Y15692
X27833Y15660
X26533Y15660
X26483Y15086
X26791Y14852
X25633Y14460
X24311Y14422
X23383Y14174
X22971Y13882
X22183Y14174
X21281Y14172
X21433Y15096
X22233Y15860
X23141Y15742
X23671Y15802
X23033Y15096
X24633Y15710
X24033Y16960
X24641Y17752
X25371Y17732
X26581Y17722
X26533Y17060
X28531Y17802
X29151Y17682
X29133Y17060
X30433Y17060
X31123Y18168
X30705Y18278
X30363Y18610
X29900Y18669
X28163Y19710
X26711Y19353
X26564Y20140
X23083Y21574
X23183Y17774
X21433Y16460
X19481Y16202
X19133Y15660
X17961Y16132
X17203Y16054
X16583Y15106
X16661Y14712
X15691Y14322
X17933Y15106
X18591Y14192
X19921Y14102
X24283Y13274
X26611Y12982
X33611Y17032
X35631Y14272
X36631Y14292
X35621Y12982
X39911Y16192
X39876Y17674
X39083Y18160
X40247Y19259
X37731Y22582
X35001Y23572
X34975Y25204
X33533Y26060
X32475Y26404
X33311Y25292
X31833Y24560
X31033Y24860
X33975Y28004
X34933Y28860
X35975Y28804
X37433Y29960
X38433Y29860
X36633Y30360
X37733Y31160
X36711Y31582
X33775Y30704
X32775Y30704
X31511Y30592
X32811Y29392
X33911Y29392
X35951Y27172
X36811Y26092
X41581Y25232
X41581Y29482
X41002Y31421
X27202Y31821
X14551Y22272
X16283Y19274
X17483Y17774
X2511Y20592
X2352Y25821
X802Y26721
X1352Y30071
X3352Y31071
X2602Y31721
X7102Y29571
X7102Y27821
X41271Y13983
T02
X36601Y23184
X36593Y24172
X37125Y24471
X31180Y23684
X30609Y23172
X30601Y24184
X25117Y21715
X24585Y21416
X24593Y20428
X19172Y20928
X18593Y21428
X18601Y20416
X12585Y23184
X12577Y24172
X13109Y24471
X7164Y23684
X6593Y23172
X6585Y24184
T03
X41067Y21269
X41067Y19360
T04
X41522Y17069
X41522Y15888
X37900Y27325
X37900Y28325
T05
X35298Y31470
X34298Y31470
X33298Y31470
X32298Y31470
X32085Y21644
X31085Y21644
X30085Y21644
X29085Y21644
X33085Y21644
X34085Y21644
X35085Y21644
X36085Y21644
X37085Y21644
X38085Y21644
X39085Y21644
X40085Y21644
X40117Y13644
X39117Y13644
X38117Y13644
X37117Y13644
X36117Y13644
X35117Y13644
X34117Y13644
X33117Y13644
X32117Y13644
X31117Y13644
X30117Y13644
X29117Y13644
X28117Y13644
X27117Y13644
X26117Y13644
X25117Y13644
X14880Y20487
X12932Y20487
X1416Y20904
X1416Y19904
X1416Y21904
X1416Y22904
X1416Y23904
X1416Y24904
X7585Y30770
X8585Y30770
X9585Y30770
X10585Y30770
X11585Y30770
T06
X9585Y23684
X16475Y23290
X21593Y20928
X26711Y23290
X33601Y23684
X42248Y21732
X42248Y18897
T07
X39900Y25325
X39900Y29325
T08
X40491Y23290
X8404Y28408
M30
