G75*
%MOIN*%
%OFA0B0*%
%FSLAX24Y24*%
%IPPOS*%
%LPD*%
%AMOC8*
5,1,8,0,0,1.08239X$1,22.5*
%
%ADD10C,0.0050*%
%ADD11C,0.0080*%
%ADD12C,0.0100*%
%ADD13R,0.0110X0.0010*%
%ADD14R,0.0250X0.0010*%
%ADD15R,0.0140X0.0010*%
%ADD16R,0.0760X0.0010*%
%ADD17R,0.0550X0.0010*%
%ADD18R,0.0320X0.0010*%
%ADD19R,0.0580X0.0010*%
%ADD20R,0.0370X0.0010*%
%ADD21R,0.0610X0.0010*%
%ADD22R,0.0420X0.0010*%
%ADD23R,0.0640X0.0010*%
%ADD24R,0.0440X0.0010*%
%ADD25R,0.0660X0.0010*%
%ADD26R,0.0480X0.0010*%
%ADD27R,0.0680X0.0010*%
%ADD28R,0.0500X0.0010*%
%ADD29R,0.0690X0.0010*%
%ADD30R,0.0530X0.0010*%
%ADD31R,0.0710X0.0010*%
%ADD32R,0.0560X0.0010*%
%ADD33R,0.0720X0.0010*%
%ADD34R,0.0730X0.0010*%
%ADD35R,0.0740X0.0010*%
%ADD36R,0.0600X0.0010*%
%ADD37R,0.0750X0.0010*%
%ADD38R,0.0290X0.0010*%
%ADD39R,0.0230X0.0010*%
%ADD40R,0.0220X0.0010*%
%ADD41R,0.0210X0.0010*%
%ADD42R,0.0200X0.0010*%
%ADD43R,0.0180X0.0010*%
%ADD44R,0.0190X0.0010*%
%ADD45R,0.0170X0.0010*%
%ADD46R,0.0160X0.0010*%
%ADD47R,0.0150X0.0010*%
%ADD48R,0.0270X0.0010*%
%ADD49R,0.0360X0.0010*%
%ADD50R,0.0350X0.0010*%
%ADD51R,0.0330X0.0010*%
%ADD52R,0.0310X0.0010*%
%ADD53R,0.0280X0.0010*%
%ADD54R,0.0300X0.0010*%
%ADD55R,0.0340X0.0010*%
%ADD56R,0.0260X0.0010*%
%ADD57R,0.0570X0.0010*%
%ADD58R,0.0510X0.0010*%
%ADD59R,0.0490X0.0010*%
%ADD60R,0.0470X0.0010*%
%ADD61R,0.0450X0.0010*%
%ADD62R,0.0410X0.0010*%
%ADD63R,0.0390X0.0010*%
%ADD64R,0.0540X0.0010*%
%ADD65R,0.0430X0.0010*%
%ADD66R,0.0020X0.0010*%
%ADD67R,0.0380X0.0010*%
%ADD68R,0.0590X0.0010*%
%ADD69R,0.0630X0.0010*%
%ADD70R,0.0650X0.0010*%
%ADD71R,0.0670X0.0010*%
%ADD72R,0.1610X0.0010*%
%ADD73R,0.0520X0.0010*%
%ADD74R,0.1530X0.0010*%
%ADD75R,0.1490X0.0010*%
%ADD76R,0.1450X0.0010*%
%ADD77R,0.0770X0.0010*%
%ADD78R,0.1420X0.0010*%
%ADD79R,0.0790X0.0010*%
%ADD80R,0.1380X0.0010*%
%ADD81R,0.1370X0.0010*%
%ADD82R,0.0810X0.0010*%
%ADD83R,0.1350X0.0010*%
%ADD84R,0.1320X0.0010*%
%ADD85R,0.0830X0.0010*%
%ADD86R,0.1300X0.0010*%
%ADD87R,0.1280X0.0010*%
%ADD88R,0.0850X0.0010*%
%ADD89R,0.0700X0.0010*%
%ADD90R,0.1260X0.0010*%
%ADD91R,0.0920X0.0010*%
%ADD92R,0.0870X0.0010*%
%ADD93R,0.1050X0.0010*%
%ADD94R,0.1230X0.0010*%
%ADD95R,0.0890X0.0010*%
%ADD96R,0.2530X0.0010*%
%ADD97R,0.2520X0.0010*%
%ADD98R,0.0910X0.0010*%
%ADD99R,0.2510X0.0010*%
%ADD100R,0.0930X0.0010*%
%ADD101R,0.0940X0.0010*%
%ADD102R,0.2500X0.0010*%
%ADD103R,0.0950X0.0010*%
%ADD104R,0.1570X0.0010*%
%ADD105R,0.0780X0.0010*%
%ADD106R,0.1500X0.0010*%
%ADD107R,0.1440X0.0010*%
%ADD108R,0.1410X0.0010*%
%ADD109R,0.1390X0.0010*%
%ADD110R,0.0620X0.0010*%
%ADD111R,0.1360X0.0010*%
%ADD112R,0.1340X0.0010*%
%ADD113R,0.1310X0.0010*%
%ADD114R,0.0460X0.0010*%
%ADD115R,0.0400X0.0010*%
%ADD116R,0.0240X0.0010*%
%ADD117R,0.0040X0.0010*%
%ADD118R,0.0010X0.0010*%
%ADD119R,0.0060X0.0010*%
%ADD120R,0.0090X0.0010*%
%ADD121R,0.0960X0.0010*%
%ADD122R,0.0030X0.0010*%
%ADD123R,0.0050X0.0010*%
%ADD124R,0.0070X0.0010*%
%ADD125R,0.0080X0.0010*%
%ADD126R,0.0100X0.0010*%
%ADD127R,0.0130X0.0010*%
%ADD128R,0.0980X0.0010*%
%ADD129R,0.1000X0.0010*%
%ADD130R,0.0120X0.0010*%
%ADD131R,0.1020X0.0010*%
%ADD132R,0.1040X0.0010*%
%ADD133R,0.1060X0.0010*%
%ADD134R,0.1080X0.0010*%
%ADD135R,0.1100X0.0010*%
%ADD136R,0.1120X0.0010*%
%ADD137R,0.1140X0.0010*%
%ADD138R,0.1160X0.0010*%
%ADD139R,0.1170X0.0010*%
%ADD140R,0.1200X0.0010*%
%ADD141R,0.1240X0.0010*%
%ADD142R,0.1250X0.0010*%
%ADD143R,0.1330X0.0010*%
%ADD144R,0.1400X0.0010*%
%ADD145R,0.1480X0.0010*%
%ADD146R,0.1520X0.0010*%
%ADD147R,0.1580X0.0010*%
%ADD148R,0.1600X0.0010*%
%ADD149R,0.1660X0.0010*%
%ADD150R,0.1700X0.0010*%
%ADD151R,0.1770X0.0010*%
%ADD152R,0.1820X0.0010*%
%ADD153R,0.0800X0.0010*%
%ADD154R,0.1880X0.0010*%
%ADD155R,0.2950X0.0010*%
%ADD156R,0.3900X0.0010*%
%ADD157R,0.1220X0.0010*%
%ADD158R,0.1640X0.0010*%
%ADD159C,0.0110*%
%ADD160C,0.0160*%
%ADD161C,0.0070*%
%ADD162C,0.0060*%
%ADD163C,0.0992*%
%ADD164C,0.0120*%
%ADD165C,0.0020*%
%ADD166R,0.0266X0.0965*%
%ADD167R,0.0098X0.0098*%
D10*
X002214Y013975D02*
X002214Y014285D01*
X002369Y014285D01*
X002421Y014234D01*
X002421Y014130D01*
X002369Y014078D01*
X002214Y014078D01*
X002317Y014078D02*
X002421Y013975D01*
X002545Y013975D02*
X002752Y013975D01*
X002649Y013975D02*
X002649Y014285D01*
X002545Y014182D01*
X002877Y014182D02*
X002980Y014285D01*
X002980Y013975D01*
X002877Y013975D02*
X003084Y013975D01*
X002782Y015575D02*
X002782Y015885D01*
X002627Y015730D01*
X002834Y015730D01*
X002502Y015627D02*
X002450Y015575D01*
X002347Y015575D01*
X002295Y015627D01*
X002295Y015834D01*
X002347Y015885D01*
X002450Y015885D01*
X002502Y015834D01*
X004145Y015884D02*
X004145Y015677D01*
X004197Y015625D01*
X004300Y015625D01*
X004352Y015677D01*
X004477Y015677D02*
X004529Y015625D01*
X004632Y015625D01*
X004684Y015677D01*
X004684Y015728D01*
X004632Y015780D01*
X004580Y015780D01*
X004632Y015780D02*
X004684Y015832D01*
X004684Y015884D01*
X004632Y015935D01*
X004529Y015935D01*
X004477Y015884D01*
X004352Y015884D02*
X004300Y015935D01*
X004197Y015935D01*
X004145Y015884D01*
X004047Y017785D02*
X003840Y017785D01*
X004047Y017992D01*
X004047Y018044D01*
X003995Y018095D01*
X003892Y018095D01*
X003840Y018044D01*
X003715Y018044D02*
X003715Y017837D01*
X003663Y017785D01*
X003560Y017785D01*
X003508Y017837D01*
X003508Y018044D01*
X003560Y018095D01*
X003663Y018095D01*
X003715Y018044D01*
X003612Y017888D02*
X003715Y017785D01*
X004618Y018651D02*
X004618Y018754D01*
X004618Y018703D02*
X004928Y018703D01*
X004928Y018754D02*
X004928Y018651D01*
X004877Y018872D02*
X004928Y018924D01*
X004928Y019027D01*
X004877Y019079D01*
X004928Y019204D02*
X004721Y019410D01*
X004670Y019410D01*
X004618Y019359D01*
X004618Y019255D01*
X004670Y019204D01*
X004670Y019079D02*
X004618Y019027D01*
X004618Y018924D01*
X004670Y018872D01*
X004877Y018872D01*
X004928Y019204D02*
X004928Y019410D01*
X003098Y019823D02*
X003047Y019772D01*
X002943Y019772D01*
X002891Y019823D01*
X002767Y019875D02*
X002663Y019772D01*
X002560Y019875D01*
X002560Y020082D01*
X002435Y020030D02*
X002435Y019978D01*
X002384Y019927D01*
X002435Y019875D01*
X002435Y019823D01*
X002384Y019772D01*
X002280Y019772D01*
X002228Y019823D01*
X002332Y019927D02*
X002384Y019927D01*
X002435Y020030D02*
X002384Y020082D01*
X002280Y020082D01*
X002228Y020030D01*
X002767Y020082D02*
X002767Y019875D01*
X002891Y020030D02*
X002943Y020082D01*
X003047Y020082D01*
X003098Y020030D01*
X003098Y019978D01*
X003047Y019927D01*
X003098Y019875D01*
X003098Y019823D01*
X003047Y019927D02*
X002995Y019927D01*
X003047Y021839D02*
X003098Y021890D01*
X003098Y022097D01*
X003047Y022149D01*
X002891Y022149D01*
X002891Y021839D01*
X003047Y021839D01*
X002767Y021839D02*
X002767Y022149D01*
X002560Y022149D02*
X002560Y021839D01*
X002435Y021890D02*
X002435Y021994D01*
X002332Y021994D01*
X002435Y022097D02*
X002384Y022149D01*
X002280Y022149D01*
X002228Y022097D01*
X002228Y021890D01*
X002280Y021839D01*
X002384Y021839D01*
X002435Y021890D01*
X002560Y022149D02*
X002767Y021839D01*
X002767Y022823D02*
X002560Y022823D01*
X002663Y022823D02*
X002663Y023133D01*
X002560Y023030D01*
X002435Y023081D02*
X002384Y023133D01*
X002228Y023133D01*
X002228Y022823D01*
X002384Y022823D01*
X002435Y022875D01*
X002435Y023081D01*
X002891Y023081D02*
X002943Y023133D01*
X003047Y023133D01*
X003098Y023081D01*
X003098Y023030D01*
X002891Y022823D01*
X003098Y022823D01*
X003098Y023807D02*
X002891Y023807D01*
X002995Y023807D02*
X002995Y024117D01*
X002891Y024014D01*
X002767Y023807D02*
X002560Y023807D01*
X002663Y023807D02*
X002663Y024117D01*
X002560Y024014D01*
X002435Y024066D02*
X002384Y024117D01*
X002228Y024117D01*
X002228Y023807D01*
X002384Y023807D01*
X002435Y023859D01*
X002435Y024066D01*
X002384Y024791D02*
X002435Y024843D01*
X002435Y025050D01*
X002384Y025102D01*
X002228Y025102D01*
X002228Y024791D01*
X002384Y024791D01*
X002560Y024791D02*
X002767Y024791D01*
X002663Y024791D02*
X002663Y025102D01*
X002560Y024998D01*
X002891Y025050D02*
X002943Y025102D01*
X003047Y025102D01*
X003098Y025050D01*
X002891Y024843D01*
X002943Y024791D01*
X003047Y024791D01*
X003098Y024843D01*
X003098Y025050D01*
X002891Y025050D02*
X002891Y024843D01*
X007443Y029104D02*
X007495Y029052D01*
X007702Y029052D01*
X007753Y029104D01*
X007753Y029207D01*
X007702Y029259D01*
X007598Y029259D01*
X007598Y029155D01*
X007495Y029259D02*
X007443Y029207D01*
X007443Y029104D01*
X007443Y029383D02*
X007753Y029590D01*
X007443Y029590D01*
X007443Y029715D02*
X007443Y029870D01*
X007495Y029922D01*
X007702Y029922D01*
X007753Y029870D01*
X007753Y029715D01*
X007443Y029715D01*
X007443Y029383D02*
X007753Y029383D01*
X008463Y029766D02*
X008514Y029714D01*
X008721Y029714D01*
X008773Y029766D01*
X008773Y029869D01*
X008721Y029921D01*
X008514Y029921D01*
X008463Y029869D01*
X008463Y029766D01*
X009447Y029714D02*
X009499Y029714D01*
X009602Y029818D01*
X009757Y029818D01*
X009602Y029818D02*
X009499Y029921D01*
X009447Y029921D01*
X010530Y029869D02*
X010581Y029921D01*
X010685Y029921D01*
X010736Y029869D01*
X010736Y029714D01*
X010840Y029714D02*
X010530Y029714D01*
X010530Y029869D01*
X011514Y029869D02*
X011566Y029921D01*
X011617Y029921D01*
X011669Y029869D01*
X011669Y029714D01*
X011824Y029714D02*
X011514Y029714D01*
X011514Y029869D01*
X011669Y029869D02*
X011721Y029921D01*
X011772Y029921D01*
X011824Y029869D01*
X011824Y029714D01*
X011082Y028745D02*
X010876Y028745D01*
X010979Y028745D02*
X010979Y028435D01*
X010751Y028435D02*
X010751Y028745D01*
X010544Y028745D02*
X010751Y028435D01*
X010544Y028435D02*
X010544Y028745D01*
X010419Y028745D02*
X010419Y028487D01*
X010368Y028435D01*
X010264Y028435D01*
X010213Y028487D01*
X010213Y028745D01*
X010088Y028694D02*
X010036Y028745D01*
X009933Y028745D01*
X009881Y028694D01*
X009881Y028487D01*
X009933Y028435D01*
X010036Y028435D01*
X010088Y028487D01*
X010088Y028694D01*
X009756Y028745D02*
X009756Y028435D01*
X009550Y028435D02*
X009550Y028745D01*
X009653Y028642D01*
X009756Y028745D01*
X010316Y028205D02*
X010213Y028102D01*
X010316Y028205D02*
X010316Y027895D01*
X010213Y027895D02*
X010419Y027895D01*
X011456Y026409D02*
X011611Y026409D01*
X011663Y026358D01*
X011663Y026254D01*
X011611Y026203D01*
X011456Y026203D01*
X011560Y026203D02*
X011663Y026099D01*
X011788Y026099D02*
X011995Y026099D01*
X011891Y026099D02*
X011891Y026409D01*
X011788Y026306D01*
X011456Y026409D02*
X011456Y026099D01*
X015402Y026428D02*
X015402Y026738D01*
X015557Y026738D01*
X015609Y026686D01*
X015609Y026583D01*
X015557Y026531D01*
X015402Y026531D01*
X015505Y026531D02*
X015609Y026428D01*
X015734Y026428D02*
X015940Y026634D01*
X015940Y026686D01*
X015889Y026738D01*
X015785Y026738D01*
X015734Y026686D01*
X015734Y026428D02*
X015940Y026428D01*
X014097Y022495D02*
X013890Y022185D01*
X013765Y022185D02*
X013662Y022288D01*
X013713Y022288D02*
X013558Y022288D01*
X013558Y022185D02*
X013558Y022495D01*
X013713Y022495D01*
X013765Y022444D01*
X013765Y022340D01*
X013713Y022288D01*
X013890Y022495D02*
X014097Y022185D01*
X014066Y022019D02*
X014117Y021968D01*
X014117Y021864D01*
X014066Y021812D01*
X013911Y021812D01*
X013911Y021709D02*
X013911Y022019D01*
X014066Y022019D01*
X014242Y022019D02*
X014242Y021709D01*
X014449Y021709D01*
X014574Y021709D02*
X014574Y022019D01*
X014729Y022019D01*
X014780Y021968D01*
X014780Y021864D01*
X014729Y021812D01*
X014574Y021812D01*
X014677Y021812D02*
X014780Y021709D01*
X014449Y022019D02*
X014242Y022019D01*
X014242Y021864D02*
X014346Y021864D01*
X013786Y021709D02*
X013579Y021709D01*
X013579Y022019D01*
X013786Y022019D01*
X013683Y021864D02*
X013579Y021864D01*
X013455Y021709D02*
X013248Y021709D01*
X013248Y022019D01*
X013455Y022019D01*
X013351Y021864D02*
X013248Y021864D01*
X013123Y021812D02*
X013123Y021761D01*
X013071Y021709D01*
X012916Y021709D01*
X012916Y022019D01*
X013071Y022019D01*
X013123Y021968D01*
X013123Y021916D01*
X013071Y021864D01*
X012916Y021864D01*
X013071Y021864D02*
X013123Y021812D01*
X011172Y020555D02*
X011172Y020245D01*
X011275Y020245D02*
X011068Y020245D01*
X010944Y020245D02*
X010944Y020555D01*
X011068Y020452D02*
X011172Y020555D01*
X010944Y020245D02*
X010737Y020555D01*
X010737Y020245D01*
X010619Y020245D02*
X010516Y020245D01*
X010567Y020245D02*
X010567Y020555D01*
X010516Y020555D02*
X010619Y020555D01*
X010391Y020452D02*
X010288Y020555D01*
X010184Y020452D01*
X010184Y020245D01*
X010184Y020400D02*
X010391Y020400D01*
X010391Y020452D02*
X010391Y020245D01*
X010288Y020015D02*
X010184Y019912D01*
X010184Y019705D01*
X010184Y019860D02*
X010391Y019860D01*
X010391Y019912D02*
X010391Y019705D01*
X010516Y019705D02*
X010619Y019705D01*
X010567Y019705D02*
X010567Y020015D01*
X010516Y020015D02*
X010619Y020015D01*
X010737Y020015D02*
X010944Y019705D01*
X010944Y020015D01*
X011068Y019964D02*
X011120Y020015D01*
X011223Y020015D01*
X011275Y019964D01*
X011275Y019912D01*
X011068Y019705D01*
X011275Y019705D01*
X011172Y019475D02*
X011172Y019165D01*
X011275Y019165D02*
X011068Y019165D01*
X010944Y019165D02*
X010944Y019475D01*
X011068Y019372D02*
X011172Y019475D01*
X010944Y019165D02*
X010737Y019475D01*
X010737Y019165D01*
X010619Y019165D02*
X010516Y019165D01*
X010567Y019165D02*
X010567Y019475D01*
X010516Y019475D02*
X010619Y019475D01*
X010391Y019424D02*
X010391Y019372D01*
X010339Y019320D01*
X010184Y019320D01*
X010184Y019165D02*
X010184Y019475D01*
X010339Y019475D01*
X010391Y019424D01*
X010339Y019320D02*
X010391Y019268D01*
X010391Y019217D01*
X010339Y019165D01*
X010184Y019165D01*
X010184Y018935D02*
X010339Y018935D01*
X010391Y018884D01*
X010391Y018832D01*
X010339Y018780D01*
X010184Y018780D01*
X010184Y018625D02*
X010339Y018625D01*
X010391Y018677D01*
X010391Y018728D01*
X010339Y018780D01*
X010184Y018625D02*
X010184Y018935D01*
X010516Y018935D02*
X010619Y018935D01*
X010567Y018935D02*
X010567Y018625D01*
X010516Y018625D02*
X010619Y018625D01*
X010737Y018625D02*
X010737Y018935D01*
X010944Y018625D01*
X010944Y018935D01*
X011068Y018884D02*
X011120Y018935D01*
X011223Y018935D01*
X011275Y018884D01*
X011275Y018832D01*
X011068Y018625D01*
X011275Y018625D01*
X011179Y018395D02*
X011179Y018344D01*
X011282Y018240D01*
X011282Y018085D01*
X011282Y018240D02*
X011386Y018344D01*
X011386Y018395D01*
X011054Y018344D02*
X011054Y018292D01*
X011002Y018240D01*
X010847Y018240D01*
X010847Y018085D02*
X010847Y018395D01*
X011002Y018395D01*
X011054Y018344D01*
X011002Y018240D02*
X011054Y018188D01*
X011054Y018137D01*
X011002Y018085D01*
X010847Y018085D01*
X010619Y018085D02*
X010619Y018395D01*
X010516Y018395D02*
X010723Y018395D01*
X010391Y018344D02*
X010339Y018395D01*
X010236Y018395D01*
X010184Y018344D01*
X010184Y018292D01*
X010236Y018240D01*
X010339Y018240D01*
X010391Y018188D01*
X010391Y018137D01*
X010339Y018085D01*
X010236Y018085D01*
X010184Y018137D01*
X009728Y018137D02*
X009676Y018085D01*
X009573Y018085D01*
X009521Y018137D01*
X009397Y018085D02*
X009190Y018085D01*
X009293Y018085D02*
X009293Y018395D01*
X009190Y018292D01*
X009065Y018344D02*
X009013Y018395D01*
X008858Y018395D01*
X008858Y018085D01*
X009013Y018085D01*
X009065Y018137D01*
X009065Y018344D01*
X009065Y018625D02*
X009065Y018832D01*
X008962Y018935D01*
X008858Y018832D01*
X008858Y018625D01*
X008858Y018780D02*
X009065Y018780D01*
X009190Y018780D02*
X009293Y018832D01*
X009345Y018832D01*
X009397Y018780D01*
X009397Y018677D01*
X009345Y018625D01*
X009242Y018625D01*
X009190Y018677D01*
X009190Y018780D02*
X009190Y018935D01*
X009397Y018935D01*
X009345Y019165D02*
X009345Y019475D01*
X009190Y019320D01*
X009397Y019320D01*
X009065Y019320D02*
X008858Y019320D01*
X008858Y019372D02*
X008962Y019475D01*
X009065Y019372D01*
X009065Y019165D01*
X008858Y019165D02*
X008858Y019372D01*
X008858Y019705D02*
X008858Y019912D01*
X008962Y020015D01*
X009065Y019912D01*
X009065Y019705D01*
X009190Y019705D02*
X009397Y019912D01*
X009397Y019964D01*
X009345Y020015D01*
X009242Y020015D01*
X009190Y019964D01*
X009065Y019860D02*
X008858Y019860D01*
X009190Y019705D02*
X009397Y019705D01*
X009345Y020245D02*
X009242Y020245D01*
X009190Y020297D01*
X009065Y020245D02*
X009065Y020452D01*
X008962Y020555D01*
X008858Y020452D01*
X008858Y020245D01*
X008858Y020400D02*
X009065Y020400D01*
X009190Y020504D02*
X009242Y020555D01*
X009345Y020555D01*
X009397Y020504D01*
X009397Y020452D01*
X009345Y020400D01*
X009397Y020348D01*
X009397Y020297D01*
X009345Y020245D01*
X009345Y020400D02*
X009293Y020400D01*
X010288Y020015D02*
X010391Y019912D01*
X010737Y020015D02*
X010737Y019705D01*
X009676Y018395D02*
X009728Y018344D01*
X009728Y018292D01*
X009676Y018240D01*
X009728Y018188D01*
X009728Y018137D01*
X009676Y018240D02*
X009625Y018240D01*
X009521Y018344D02*
X009573Y018395D01*
X009676Y018395D01*
X009595Y017285D02*
X009750Y017285D01*
X009802Y017234D01*
X009802Y017130D01*
X009750Y017078D01*
X009595Y017078D01*
X009595Y016975D02*
X009595Y017285D01*
X009699Y017078D02*
X009802Y016975D01*
X009927Y016975D02*
X009927Y017027D01*
X010134Y017234D01*
X010134Y017285D01*
X009927Y017285D01*
X011664Y016580D02*
X011716Y016631D01*
X011819Y016631D01*
X011871Y016580D01*
X011871Y016373D01*
X011819Y016321D01*
X011716Y016321D01*
X011664Y016373D01*
X011664Y016580D01*
X011767Y016425D02*
X011871Y016321D01*
X011995Y016373D02*
X012047Y016321D01*
X012150Y016321D01*
X012202Y016373D01*
X012202Y016425D01*
X012150Y016476D01*
X012099Y016476D01*
X012150Y016476D02*
X012202Y016528D01*
X012202Y016580D01*
X012150Y016631D01*
X012047Y016631D01*
X011995Y016580D01*
X013008Y016595D02*
X013008Y016285D01*
X013008Y016388D02*
X013163Y016388D01*
X013215Y016440D01*
X013215Y016544D01*
X013163Y016595D01*
X013008Y016595D01*
X013112Y016388D02*
X013215Y016285D01*
X013340Y016337D02*
X013392Y016285D01*
X013495Y016285D01*
X013547Y016337D01*
X013547Y016544D01*
X013495Y016595D01*
X013392Y016595D01*
X013340Y016544D01*
X013340Y016492D01*
X013392Y016440D01*
X013547Y016440D01*
X014233Y016435D02*
X014337Y016435D01*
X014285Y016435D02*
X014285Y016745D01*
X014233Y016745D02*
X014337Y016745D01*
X014454Y016694D02*
X014454Y016487D01*
X014506Y016435D01*
X014609Y016435D01*
X014661Y016487D01*
X014786Y016487D02*
X014838Y016435D01*
X014941Y016435D01*
X014993Y016487D01*
X014993Y016538D01*
X014941Y016590D01*
X014889Y016590D01*
X014941Y016590D02*
X014993Y016642D01*
X014993Y016694D01*
X014941Y016745D01*
X014838Y016745D01*
X014786Y016694D01*
X014661Y016694D02*
X014609Y016745D01*
X014506Y016745D01*
X014454Y016694D01*
X015875Y016564D02*
X015875Y016357D01*
X015927Y016305D01*
X016030Y016305D01*
X016082Y016357D01*
X016207Y016357D02*
X016207Y016408D01*
X016259Y016460D01*
X016362Y016460D01*
X016414Y016408D01*
X016414Y016357D01*
X016362Y016305D01*
X016259Y016305D01*
X016207Y016357D01*
X016259Y016460D02*
X016207Y016512D01*
X016207Y016564D01*
X016259Y016615D01*
X016362Y016615D01*
X016414Y016564D01*
X016414Y016512D01*
X016362Y016460D01*
X016082Y016564D02*
X016030Y016615D01*
X015927Y016615D01*
X015875Y016564D01*
X020085Y016574D02*
X020085Y016367D01*
X020137Y016315D01*
X020240Y016315D01*
X020292Y016367D01*
X020417Y016367D02*
X020417Y016315D01*
X020417Y016367D02*
X020624Y016574D01*
X020624Y016625D01*
X020417Y016625D01*
X020292Y016574D02*
X020240Y016625D01*
X020137Y016625D01*
X020085Y016574D01*
X024398Y015508D02*
X024398Y015301D01*
X024398Y015405D02*
X024708Y015405D01*
X024657Y015177D02*
X024708Y015125D01*
X024708Y015021D01*
X024657Y014970D01*
X024553Y015021D02*
X024553Y015125D01*
X024605Y015177D01*
X024657Y015177D01*
X024553Y015021D02*
X024501Y014970D01*
X024450Y014970D01*
X024398Y015021D01*
X024398Y015125D01*
X024450Y015177D01*
X024450Y014845D02*
X024553Y014845D01*
X024605Y014793D01*
X024605Y014638D01*
X024708Y014638D02*
X024398Y014638D01*
X024398Y014793D01*
X024450Y014845D01*
X024605Y014742D02*
X024708Y014845D01*
X025982Y014793D02*
X026034Y014845D01*
X026086Y014845D01*
X026137Y014793D01*
X026189Y014845D01*
X026241Y014845D01*
X026293Y014793D01*
X026293Y014690D01*
X026241Y014638D01*
X026137Y014742D02*
X026137Y014793D01*
X025982Y014793D02*
X025982Y014690D01*
X026034Y014638D01*
X025982Y014970D02*
X026189Y014970D01*
X026293Y015073D01*
X026189Y015177D01*
X025982Y015177D01*
X026034Y015301D02*
X025982Y015353D01*
X025982Y015456D01*
X026034Y015508D01*
X026086Y015508D01*
X026137Y015456D01*
X026189Y015508D01*
X026241Y015508D01*
X026293Y015456D01*
X026293Y015353D01*
X026241Y015301D01*
X026137Y015405D02*
X026137Y015456D01*
X026947Y015498D02*
X026947Y015291D01*
X027257Y015291D01*
X027257Y015167D02*
X027153Y015063D01*
X027153Y015115D02*
X027153Y014960D01*
X027257Y014960D02*
X026947Y014960D01*
X026947Y015115D01*
X026998Y015167D01*
X027102Y015167D01*
X027153Y015115D01*
X027102Y015291D02*
X027102Y015395D01*
X027102Y014835D02*
X027102Y014628D01*
X027050Y014628D02*
X026947Y014732D01*
X027050Y014835D01*
X027257Y014835D01*
X027257Y014628D02*
X027050Y014628D01*
X027951Y014650D02*
X028003Y014598D01*
X028209Y014598D01*
X028261Y014650D01*
X028261Y014753D01*
X028209Y014805D01*
X028106Y014805D01*
X028106Y014702D01*
X028003Y014805D02*
X027951Y014753D01*
X027951Y014650D01*
X027951Y014930D02*
X028261Y015137D01*
X027951Y015137D01*
X027951Y015261D02*
X027951Y015416D01*
X028003Y015468D01*
X028209Y015468D01*
X028261Y015416D01*
X028261Y015261D01*
X027951Y015261D01*
X027951Y014930D02*
X028261Y014930D01*
X028755Y014981D02*
X028755Y015085D01*
X028807Y015137D01*
X029014Y014930D01*
X029065Y014981D01*
X029065Y015085D01*
X029014Y015137D01*
X028807Y015137D01*
X028755Y014981D02*
X028807Y014930D01*
X029014Y014930D01*
X029065Y014805D02*
X028858Y014805D01*
X028755Y014702D01*
X028858Y014598D01*
X029065Y014598D01*
X028910Y014598D02*
X028910Y014805D01*
X029569Y014742D02*
X029673Y014845D01*
X029880Y014845D01*
X029880Y014970D02*
X029880Y015177D01*
X029880Y015073D02*
X029569Y015073D01*
X029673Y014970D01*
X029724Y014845D02*
X029724Y014638D01*
X029673Y014638D02*
X029569Y014742D01*
X029673Y014638D02*
X029880Y014638D01*
X030924Y014722D02*
X031027Y014618D01*
X031234Y014618D01*
X031079Y014618D02*
X031079Y014825D01*
X031027Y014825D02*
X031234Y014825D01*
X031234Y014950D02*
X031027Y015157D01*
X030975Y015157D01*
X030924Y015105D01*
X030924Y015001D01*
X030975Y014950D01*
X031027Y014825D02*
X030924Y014722D01*
X031234Y014950D02*
X031234Y015157D01*
X031876Y015125D02*
X031928Y015177D01*
X031980Y015177D01*
X032031Y015125D01*
X032083Y015177D01*
X032135Y015177D01*
X032187Y015125D01*
X032187Y015021D01*
X032135Y014970D01*
X032187Y014845D02*
X031980Y014845D01*
X031876Y014742D01*
X031980Y014638D01*
X032187Y014638D01*
X032031Y014638D02*
X032031Y014845D01*
X031928Y014970D02*
X031876Y015021D01*
X031876Y015125D01*
X032031Y015125D02*
X032031Y015073D01*
X032971Y015125D02*
X033126Y014970D01*
X033126Y015177D01*
X033281Y015125D02*
X032971Y015125D01*
X033074Y014845D02*
X033281Y014845D01*
X033126Y014845D02*
X033126Y014638D01*
X033074Y014638D02*
X032971Y014742D01*
X033074Y014845D01*
X033074Y014638D02*
X033281Y014638D01*
X033945Y014692D02*
X034048Y014588D01*
X034255Y014588D01*
X034100Y014588D02*
X034100Y014795D01*
X034048Y014795D02*
X034255Y014795D01*
X034203Y014920D02*
X034255Y014971D01*
X034255Y015075D01*
X034203Y015127D01*
X034100Y015127D01*
X034048Y015075D01*
X034048Y015023D01*
X034100Y014920D01*
X033945Y014920D01*
X033945Y015127D01*
X034048Y014795D02*
X033945Y014692D01*
X034929Y014743D02*
X034929Y014640D01*
X034981Y014588D01*
X035032Y014588D01*
X035084Y014640D01*
X035084Y014743D01*
X035136Y014795D01*
X035188Y014795D01*
X035239Y014743D01*
X035239Y014640D01*
X035188Y014588D01*
X034981Y014795D02*
X034929Y014743D01*
X034981Y014920D02*
X035188Y014920D01*
X035239Y014971D01*
X035239Y015075D01*
X035188Y015127D01*
X035239Y015251D02*
X034929Y015251D01*
X034981Y015127D02*
X034929Y015075D01*
X034929Y014971D01*
X034981Y014920D01*
X035136Y015251D02*
X034929Y015458D01*
X035084Y015303D02*
X035239Y015458D01*
X036022Y015396D02*
X036022Y015293D01*
X036073Y015241D01*
X036125Y015241D01*
X036177Y015293D01*
X036177Y015396D01*
X036229Y015448D01*
X036280Y015448D01*
X036332Y015396D01*
X036332Y015293D01*
X036280Y015241D01*
X036280Y015117D02*
X036073Y015117D01*
X036022Y015065D01*
X036022Y014961D01*
X036073Y014910D01*
X036280Y014910D01*
X036332Y014961D01*
X036332Y015065D01*
X036280Y015117D01*
X036332Y014785D02*
X036022Y014785D01*
X036125Y014682D01*
X036022Y014578D01*
X036332Y014578D01*
X037016Y014558D02*
X037119Y014662D01*
X037016Y014765D01*
X037326Y014765D01*
X037326Y014890D02*
X037326Y014993D01*
X037326Y014941D02*
X037016Y014941D01*
X037016Y014890D02*
X037016Y014993D01*
X037068Y015111D02*
X037119Y015111D01*
X037171Y015162D01*
X037171Y015266D01*
X037223Y015318D01*
X037274Y015318D01*
X037326Y015266D01*
X037326Y015162D01*
X037274Y015111D01*
X037068Y015111D02*
X037016Y015162D01*
X037016Y015266D01*
X037068Y015318D01*
X037068Y015442D02*
X037274Y015442D01*
X037326Y015494D01*
X037326Y015597D01*
X037274Y015649D01*
X037068Y015649D01*
X037016Y015597D01*
X037016Y015494D01*
X037068Y015442D01*
X036332Y015573D02*
X036332Y015676D01*
X036332Y015624D02*
X036022Y015624D01*
X036022Y015573D02*
X036022Y015676D01*
X036073Y015448D02*
X036022Y015396D01*
X037016Y014558D02*
X037326Y014558D01*
X037990Y014568D02*
X037990Y014723D01*
X038042Y014775D01*
X038145Y014775D01*
X038197Y014723D01*
X038197Y014568D01*
X038300Y014568D02*
X037990Y014568D01*
X038197Y014672D02*
X038300Y014775D01*
X038300Y014900D02*
X037990Y015107D01*
X037990Y014900D02*
X038300Y015107D01*
X038984Y015147D02*
X039295Y014940D01*
X039295Y015147D02*
X038984Y014940D01*
X038984Y014815D02*
X038984Y014608D01*
X038984Y014712D02*
X039295Y014712D01*
X039939Y014713D02*
X039939Y014610D01*
X039990Y014558D01*
X040197Y014558D01*
X040249Y014610D01*
X040249Y014713D01*
X040197Y014765D01*
X040094Y014765D01*
X040094Y014662D01*
X039990Y014765D02*
X039939Y014713D01*
X039939Y014890D02*
X040249Y015097D01*
X039939Y015097D01*
X039939Y015221D02*
X039939Y015376D01*
X039990Y015428D01*
X040197Y015428D01*
X040249Y015376D01*
X040249Y015221D01*
X039939Y015221D01*
X039939Y014890D02*
X040249Y014890D01*
X041046Y014577D02*
X041046Y014526D01*
X041097Y014474D01*
X041201Y014474D01*
X041253Y014422D01*
X041253Y014370D01*
X041201Y014319D01*
X041097Y014319D01*
X041046Y014370D01*
X041046Y014577D02*
X041097Y014629D01*
X041201Y014629D01*
X041253Y014577D01*
X041377Y014629D02*
X041377Y014319D01*
X041481Y014422D01*
X041584Y014319D01*
X041584Y014629D01*
X041709Y014526D02*
X041812Y014629D01*
X041812Y014319D01*
X041709Y014319D02*
X041916Y014319D01*
X038197Y018135D02*
X037990Y018135D01*
X038093Y018135D02*
X038093Y018445D01*
X037990Y018342D01*
X037865Y018394D02*
X037865Y018187D01*
X037813Y018135D01*
X037658Y018135D01*
X037658Y018445D01*
X037813Y018445D01*
X037865Y018394D01*
X039026Y019958D02*
X039078Y019958D01*
X039130Y020010D01*
X039130Y020114D01*
X039181Y020165D01*
X039233Y020165D01*
X039285Y020114D01*
X039285Y020010D01*
X039233Y019958D01*
X039026Y019958D02*
X038974Y020010D01*
X038974Y020114D01*
X039026Y020165D01*
X039026Y020290D02*
X039233Y020290D01*
X039285Y020342D01*
X039285Y020445D01*
X039233Y020497D01*
X039285Y020621D02*
X039285Y020828D01*
X039285Y020621D02*
X038974Y020621D01*
X039026Y020497D02*
X038974Y020445D01*
X038974Y020342D01*
X039026Y020290D01*
X039929Y020290D02*
X039929Y020445D01*
X039980Y020497D01*
X040187Y020497D01*
X040239Y020445D01*
X040239Y020290D01*
X039929Y020290D01*
X039980Y020165D02*
X039929Y020114D01*
X039929Y020010D01*
X039980Y019958D01*
X040032Y019958D01*
X040084Y020010D01*
X040084Y020114D01*
X040136Y020165D01*
X040187Y020165D01*
X040239Y020114D01*
X040239Y020010D01*
X040187Y019958D01*
X040239Y020621D02*
X040032Y020621D01*
X039929Y020725D01*
X040032Y020828D01*
X040239Y020828D01*
X040084Y020828D02*
X040084Y020621D01*
X041106Y021791D02*
X041106Y018838D01*
X042748Y018838D01*
X042748Y021791D01*
X041106Y021791D01*
X041147Y022075D02*
X041250Y022075D01*
X041302Y022127D01*
X041302Y022334D01*
X041250Y022385D01*
X041147Y022385D01*
X041095Y022334D01*
X041095Y022127D01*
X041147Y022075D01*
X041427Y022075D02*
X041427Y022385D01*
X041634Y022075D01*
X041634Y022385D01*
X041680Y023185D02*
X041680Y023340D01*
X041628Y023392D01*
X041525Y023392D01*
X041473Y023340D01*
X041473Y023185D01*
X041783Y023185D01*
X041680Y023288D02*
X041783Y023392D01*
X041783Y023516D02*
X041783Y023723D01*
X041783Y023620D02*
X041473Y023620D01*
X041576Y023516D01*
X041525Y023848D02*
X041473Y023900D01*
X041473Y024003D01*
X041525Y024055D01*
X041732Y023848D01*
X041783Y023900D01*
X041783Y024003D01*
X041732Y024055D01*
X041525Y024055D01*
X041525Y023848D02*
X041732Y023848D01*
X039619Y024155D02*
X039412Y024155D01*
X039515Y024155D02*
X039515Y023845D01*
X039287Y023845D02*
X039287Y024155D01*
X039080Y024155D02*
X039287Y023845D01*
X039080Y023845D02*
X039080Y024155D01*
X038956Y024155D02*
X038956Y023897D01*
X038904Y023845D01*
X038801Y023845D01*
X038749Y023897D01*
X038749Y024155D01*
X038624Y024104D02*
X038573Y024155D01*
X038469Y024155D01*
X038417Y024104D01*
X038417Y023897D01*
X038469Y023845D01*
X038573Y023845D01*
X038624Y023897D01*
X038624Y024104D01*
X038293Y024155D02*
X038293Y023845D01*
X038086Y023845D02*
X038086Y024155D01*
X038189Y024052D01*
X038293Y024155D01*
X038801Y023615D02*
X038749Y023564D01*
X038801Y023615D02*
X038904Y023615D01*
X038956Y023564D01*
X038956Y023512D01*
X038749Y023305D01*
X038956Y023305D01*
X036292Y025222D02*
X036240Y025170D01*
X036033Y025170D01*
X035982Y025222D01*
X035982Y025325D01*
X036033Y025377D01*
X036240Y025377D01*
X036292Y025325D01*
X036292Y025222D01*
X036189Y025273D02*
X036292Y025377D01*
X036292Y025502D02*
X036292Y025708D01*
X036292Y025605D02*
X035982Y025605D01*
X036085Y025502D01*
X033334Y026575D02*
X033127Y026575D01*
X033334Y026782D01*
X033334Y026834D01*
X033282Y026885D01*
X033179Y026885D01*
X033127Y026834D01*
X033002Y026834D02*
X032950Y026885D01*
X032847Y026885D01*
X032795Y026834D01*
X032795Y026627D01*
X032847Y026575D01*
X032950Y026575D01*
X033002Y026627D01*
X032763Y026087D02*
X032814Y026036D01*
X032814Y025984D01*
X032763Y025932D01*
X032814Y025881D01*
X032814Y025829D01*
X032763Y025777D01*
X032659Y025777D01*
X032608Y025829D01*
X032483Y025777D02*
X032379Y025881D01*
X032431Y025881D02*
X032276Y025881D01*
X032276Y025777D02*
X032276Y026087D01*
X032431Y026087D01*
X032483Y026036D01*
X032483Y025932D01*
X032431Y025881D01*
X032608Y026036D02*
X032659Y026087D01*
X032763Y026087D01*
X032763Y025932D02*
X032711Y025932D01*
X032858Y027835D02*
X032858Y028145D01*
X033013Y028145D01*
X033065Y028094D01*
X033065Y027990D01*
X033013Y027938D01*
X032858Y027938D01*
X032962Y027938D02*
X033065Y027835D01*
X033190Y027887D02*
X033242Y027835D01*
X033345Y027835D01*
X033397Y027887D01*
X033397Y027938D01*
X033345Y027990D01*
X033190Y027990D01*
X033190Y027887D01*
X033190Y027990D02*
X033293Y028094D01*
X033397Y028145D01*
X036348Y028635D02*
X036348Y028738D01*
X036348Y028687D02*
X036658Y028687D01*
X036658Y028738D02*
X036658Y028635D01*
X036607Y028856D02*
X036658Y028908D01*
X036658Y029011D01*
X036607Y029063D01*
X036658Y029187D02*
X036658Y029394D01*
X036658Y029291D02*
X036348Y029291D01*
X036451Y029187D01*
X036400Y029063D02*
X036348Y029011D01*
X036348Y028908D01*
X036400Y028856D01*
X036607Y028856D01*
X039658Y030735D02*
X039658Y031045D01*
X039813Y031045D01*
X039865Y030994D01*
X039865Y030890D01*
X039813Y030838D01*
X039658Y030838D01*
X039762Y030838D02*
X039865Y030735D01*
X039990Y030787D02*
X040042Y030735D01*
X040145Y030735D01*
X040197Y030787D01*
X040197Y030890D01*
X040145Y030942D01*
X040093Y030942D01*
X039990Y030890D01*
X039990Y031045D01*
X040197Y031045D01*
X040622Y030655D02*
X040725Y030552D01*
X040725Y030345D01*
X040850Y030397D02*
X041057Y030604D01*
X041057Y030397D01*
X041005Y030345D01*
X040902Y030345D01*
X040850Y030397D01*
X040850Y030604D01*
X040902Y030655D01*
X041005Y030655D01*
X041057Y030604D01*
X040725Y030500D02*
X040518Y030500D01*
X040518Y030552D02*
X040622Y030655D01*
X040518Y030552D02*
X040518Y030345D01*
X041443Y030352D02*
X041443Y030662D01*
X041598Y030662D01*
X041650Y030610D01*
X041650Y030559D01*
X041598Y030507D01*
X041443Y030507D01*
X041443Y030352D02*
X041598Y030352D01*
X041650Y030404D01*
X041650Y030455D01*
X041598Y030507D01*
X041774Y030352D02*
X041774Y030662D01*
X041981Y030352D01*
X041981Y030662D01*
X042106Y030610D02*
X042106Y030404D01*
X042158Y030352D01*
X042261Y030352D01*
X042313Y030404D01*
X042313Y030610D02*
X042261Y030662D01*
X042158Y030662D01*
X042106Y030610D01*
X040145Y031635D02*
X040145Y031945D01*
X039990Y031790D01*
X040197Y031790D01*
X039865Y031790D02*
X039865Y031894D01*
X039813Y031945D01*
X039658Y031945D01*
X039658Y031635D01*
X039658Y031738D02*
X039813Y031738D01*
X039865Y031790D01*
X039762Y031738D02*
X039865Y031635D01*
X036306Y031623D02*
X035996Y031416D01*
X036306Y031416D01*
X036254Y031292D02*
X036151Y031292D01*
X036151Y031188D01*
X036254Y031085D02*
X036306Y031137D01*
X036306Y031240D01*
X036254Y031292D01*
X036048Y031292D02*
X035996Y031240D01*
X035996Y031137D01*
X036048Y031085D01*
X036254Y031085D01*
X036306Y031623D02*
X035996Y031623D01*
X035996Y031748D02*
X035996Y031903D01*
X036048Y031955D01*
X036254Y031955D01*
X036306Y031903D01*
X036306Y031748D01*
X035996Y031748D01*
X032334Y029975D02*
X032127Y029975D01*
X032230Y029975D02*
X032230Y030285D01*
X032127Y030182D01*
X032002Y030234D02*
X031950Y030285D01*
X031847Y030285D01*
X031795Y030234D01*
X031795Y030027D01*
X031847Y029975D01*
X031950Y029975D01*
X032002Y030027D01*
X031572Y031085D02*
X031623Y031137D01*
X031623Y031240D01*
X031572Y031292D01*
X031520Y031292D01*
X031468Y031240D01*
X031468Y031137D01*
X031417Y031085D01*
X031365Y031085D01*
X031313Y031137D01*
X031313Y031240D01*
X031365Y031292D01*
X031313Y031416D02*
X031313Y031572D01*
X031365Y031623D01*
X031572Y031623D01*
X031623Y031572D01*
X031623Y031416D01*
X031313Y031416D01*
X031139Y031468D02*
X031139Y031572D01*
X031087Y031623D01*
X031139Y031748D02*
X031139Y031955D01*
X031313Y031851D02*
X031417Y031955D01*
X031623Y031955D01*
X031468Y031955D02*
X031468Y031748D01*
X031417Y031748D02*
X031313Y031851D01*
X031417Y031748D02*
X031623Y031748D01*
X031139Y031748D02*
X030829Y031748D01*
X030881Y031623D02*
X030829Y031572D01*
X030829Y031468D01*
X030881Y031416D01*
X031087Y031416D01*
X031139Y031468D01*
X031087Y031292D02*
X031139Y031240D01*
X031139Y031137D01*
X031087Y031085D01*
X030984Y031137D02*
X030984Y031240D01*
X031036Y031292D01*
X031087Y031292D01*
X030984Y031137D02*
X030932Y031085D01*
X030881Y031085D01*
X030829Y031137D01*
X030829Y031240D01*
X030881Y031292D01*
X030655Y031240D02*
X030655Y031137D01*
X030603Y031085D01*
X030500Y031188D02*
X030500Y031240D01*
X030552Y031292D01*
X030603Y031292D01*
X030655Y031240D01*
X030500Y031240D02*
X030448Y031292D01*
X030396Y031292D01*
X030345Y031240D01*
X030345Y031137D01*
X030396Y031085D01*
X030345Y031416D02*
X030552Y031416D01*
X030655Y031520D01*
X030552Y031623D01*
X030345Y031623D01*
X030396Y031748D02*
X030345Y031800D01*
X030345Y031903D01*
X030396Y031955D01*
X030448Y031955D01*
X030500Y031903D01*
X030552Y031955D01*
X030603Y031955D01*
X030655Y031903D01*
X030655Y031800D01*
X030603Y031748D01*
X030500Y031851D02*
X030500Y031903D01*
X027493Y025001D02*
X027493Y024691D01*
X027390Y024691D02*
X027597Y024691D01*
X027390Y024897D02*
X027493Y025001D01*
X027265Y024949D02*
X027265Y024897D01*
X027213Y024846D01*
X027058Y024846D01*
X027058Y025001D02*
X027213Y025001D01*
X027265Y024949D01*
X027213Y024846D02*
X027265Y024794D01*
X027265Y024742D01*
X027213Y024691D01*
X027058Y024691D01*
X027058Y025001D01*
X032971Y020767D02*
X033022Y020818D01*
X033074Y020818D01*
X033281Y020611D01*
X033281Y020818D01*
X032971Y020767D02*
X032971Y020663D01*
X033022Y020611D01*
X032971Y020383D02*
X033281Y020383D01*
X033281Y020280D02*
X033281Y020487D01*
X033074Y020280D02*
X032971Y020383D01*
X033022Y020155D02*
X032971Y020104D01*
X032971Y019948D01*
X033281Y019948D01*
X033281Y020104D01*
X033229Y020155D01*
X033022Y020155D01*
X032297Y020094D02*
X032245Y020145D01*
X032038Y020145D01*
X031986Y020094D01*
X031986Y019938D01*
X032297Y019938D01*
X032297Y020094D01*
X032297Y020270D02*
X032297Y020477D01*
X032297Y020373D02*
X031986Y020373D01*
X032090Y020270D01*
X032038Y020601D02*
X031986Y020653D01*
X031986Y020757D01*
X032038Y020808D01*
X032090Y020808D01*
X032141Y020757D01*
X032193Y020808D01*
X032245Y020808D01*
X032297Y020757D01*
X032297Y020653D01*
X032245Y020601D01*
X032141Y020705D02*
X032141Y020757D01*
X031314Y020757D02*
X031314Y020601D01*
X031004Y020601D01*
X031004Y020757D01*
X031055Y020808D01*
X031107Y020808D01*
X031159Y020757D01*
X031159Y020601D01*
X031210Y020477D02*
X031262Y020477D01*
X031314Y020425D01*
X031314Y020322D01*
X031262Y020270D01*
X031159Y020322D02*
X031159Y020425D01*
X031210Y020477D01*
X031055Y020477D02*
X031004Y020425D01*
X031004Y020322D01*
X031055Y020270D01*
X031107Y020270D01*
X031159Y020322D01*
X031262Y020145D02*
X031004Y020145D01*
X031004Y019938D02*
X031262Y019938D01*
X031314Y019990D01*
X031314Y020094D01*
X031262Y020145D01*
X031314Y020757D02*
X031262Y020808D01*
X031210Y020808D01*
X031159Y020757D01*
X030130Y020747D02*
X029819Y020747D01*
X029819Y020540D02*
X030130Y020747D01*
X030130Y020540D02*
X029819Y020540D01*
X029819Y020415D02*
X029819Y020208D01*
X030130Y020208D01*
X030130Y020415D01*
X029974Y020312D02*
X029974Y020208D01*
X029195Y020282D02*
X029195Y020385D01*
X029144Y020437D01*
X029144Y020561D02*
X029195Y020613D01*
X029195Y020717D01*
X029144Y020768D01*
X029144Y020561D02*
X028937Y020561D01*
X028885Y020613D01*
X028885Y020717D01*
X028937Y020768D01*
X028937Y020437D02*
X028885Y020385D01*
X028885Y020282D01*
X028937Y020230D01*
X029144Y020230D01*
X029195Y020282D01*
X029092Y020105D02*
X028885Y020105D01*
X028885Y019898D02*
X029092Y019898D01*
X029195Y020002D01*
X029092Y020105D01*
X030167Y016835D02*
X030115Y016784D01*
X030115Y016577D01*
X030167Y016525D01*
X030270Y016525D01*
X030322Y016577D01*
X030447Y016577D02*
X030499Y016525D01*
X030602Y016525D01*
X030654Y016577D01*
X030654Y016680D01*
X030602Y016732D01*
X030550Y016732D01*
X030447Y016680D01*
X030447Y016835D01*
X030654Y016835D01*
X030322Y016784D02*
X030270Y016835D01*
X030167Y016835D01*
X032638Y016905D02*
X032793Y016905D01*
X032845Y016854D01*
X032845Y016750D01*
X032793Y016698D01*
X032638Y016698D01*
X032638Y016595D02*
X032638Y016905D01*
X032742Y016698D02*
X032845Y016595D01*
X032970Y016595D02*
X033177Y016595D01*
X033073Y016595D02*
X033073Y016905D01*
X032970Y016802D01*
X033301Y016854D02*
X033353Y016905D01*
X033456Y016905D01*
X033508Y016854D01*
X033508Y016802D01*
X033301Y016595D01*
X033508Y016595D01*
X033965Y019948D02*
X033965Y020104D01*
X034016Y020155D01*
X034223Y020155D01*
X034275Y020104D01*
X034275Y019948D01*
X033965Y019948D01*
X034068Y020280D02*
X033965Y020383D01*
X034275Y020383D01*
X034275Y020280D02*
X034275Y020487D01*
X034275Y020611D02*
X034275Y020818D01*
X034275Y020715D02*
X033965Y020715D01*
X034068Y020611D01*
X034959Y020633D02*
X034959Y020737D01*
X035011Y020788D01*
X035218Y020581D01*
X035269Y020633D01*
X035269Y020737D01*
X035218Y020788D01*
X035011Y020788D01*
X034959Y020633D02*
X035011Y020581D01*
X035218Y020581D01*
X035269Y020457D02*
X035269Y020250D01*
X035269Y020353D02*
X034959Y020353D01*
X035062Y020250D01*
X035011Y020125D02*
X034959Y020074D01*
X034959Y019918D01*
X035269Y019918D01*
X035269Y020074D01*
X035218Y020125D01*
X035011Y020125D01*
X035933Y020268D02*
X035933Y020424D01*
X035985Y020475D01*
X036192Y020475D01*
X036244Y020424D01*
X036244Y020268D01*
X035933Y020268D01*
X035985Y020600D02*
X036037Y020600D01*
X036088Y020652D01*
X036088Y020807D01*
X035985Y020807D02*
X035933Y020755D01*
X035933Y020652D01*
X035985Y020600D01*
X035985Y020807D02*
X036192Y020807D01*
X036244Y020755D01*
X036244Y020652D01*
X036192Y020600D01*
X036986Y020444D02*
X036986Y020288D01*
X037296Y020288D01*
X037296Y020444D01*
X037244Y020495D01*
X037038Y020495D01*
X036986Y020444D01*
X037141Y020620D02*
X037141Y020775D01*
X037193Y020827D01*
X037244Y020827D01*
X037296Y020775D01*
X037296Y020672D01*
X037244Y020620D01*
X037141Y020620D01*
X037038Y020723D01*
X036986Y020827D01*
X037980Y020837D02*
X037980Y020630D01*
X038135Y020630D01*
X038084Y020733D01*
X038084Y020785D01*
X038135Y020837D01*
X038239Y020837D01*
X038290Y020785D01*
X038290Y020682D01*
X038239Y020630D01*
X038239Y020505D02*
X038032Y020505D01*
X037980Y020454D01*
X037980Y020298D01*
X038290Y020298D01*
X038290Y020454D01*
X038239Y020505D01*
X040728Y018640D02*
X040728Y018381D01*
X040780Y018329D01*
X040883Y018329D01*
X040935Y018381D01*
X040935Y018640D01*
X041060Y018588D02*
X041060Y018536D01*
X041111Y018484D01*
X041215Y018484D01*
X041267Y018433D01*
X041267Y018381D01*
X041215Y018329D01*
X041111Y018329D01*
X041060Y018381D01*
X041060Y018588D02*
X041111Y018640D01*
X041215Y018640D01*
X041267Y018588D01*
X041391Y018640D02*
X041546Y018640D01*
X041598Y018588D01*
X041598Y018536D01*
X041546Y018484D01*
X041391Y018484D01*
X041391Y018329D02*
X041546Y018329D01*
X041598Y018381D01*
X041598Y018433D01*
X041546Y018484D01*
X041391Y018329D02*
X041391Y018640D01*
X025634Y016585D02*
X025530Y016534D01*
X025427Y016430D01*
X025582Y016430D01*
X025634Y016378D01*
X025634Y016327D01*
X025582Y016275D01*
X025479Y016275D01*
X025427Y016327D01*
X025427Y016430D01*
X025302Y016327D02*
X025250Y016275D01*
X025147Y016275D01*
X025095Y016327D01*
X025095Y016534D01*
X025147Y016585D01*
X025250Y016585D01*
X025302Y016534D01*
X010097Y015794D02*
X010097Y015742D01*
X010045Y015690D01*
X009942Y015690D01*
X009890Y015742D01*
X009890Y015794D01*
X009942Y015845D01*
X010045Y015845D01*
X010097Y015794D01*
X010045Y015690D02*
X010097Y015638D01*
X010097Y015587D01*
X010045Y015535D01*
X009942Y015535D01*
X009890Y015587D01*
X009890Y015638D01*
X009942Y015690D01*
X009765Y015690D02*
X009713Y015638D01*
X009558Y015638D01*
X009558Y015535D02*
X009558Y015845D01*
X009713Y015845D01*
X009765Y015794D01*
X009765Y015690D01*
X009662Y015638D02*
X009765Y015535D01*
D11*
X002631Y013275D02*
X002471Y012954D01*
X002311Y013275D01*
X002827Y013195D02*
X002987Y013355D01*
X003147Y013435D01*
X003067Y013195D02*
X002827Y013195D01*
X002827Y013034D01*
X002907Y012954D01*
X003067Y012954D01*
X003147Y013034D01*
X003147Y013114D01*
X003067Y013195D01*
X003342Y013034D02*
X003342Y012954D01*
X003422Y012954D01*
X003422Y013034D01*
X003342Y013034D01*
X003600Y012954D02*
X003921Y013275D01*
X003921Y013355D01*
X003840Y013435D01*
X003680Y013435D01*
X003600Y013355D01*
X003600Y012954D02*
X003921Y012954D01*
X004632Y012954D02*
X004632Y013435D01*
X004872Y013435D01*
X004952Y013355D01*
X004952Y013034D01*
X004872Y012954D01*
X004632Y012954D01*
X005147Y012954D02*
X005467Y012954D01*
X005663Y013034D02*
X005743Y012954D01*
X005903Y012954D01*
X005983Y013034D01*
X006178Y012954D02*
X006499Y013275D01*
X006499Y013355D01*
X006419Y013435D01*
X006258Y013435D01*
X006178Y013355D01*
X005983Y013355D02*
X005903Y013435D01*
X005743Y013435D01*
X005663Y013355D01*
X005663Y013034D01*
X005307Y013195D02*
X005147Y013195D01*
X005147Y013435D02*
X005147Y012954D01*
X005147Y013435D02*
X005467Y013435D01*
X006178Y012954D02*
X006499Y012954D01*
X006694Y013034D02*
X007014Y013355D01*
X007014Y013034D01*
X006934Y012954D01*
X006774Y012954D01*
X006694Y013034D01*
X006694Y013355D01*
X006774Y013435D01*
X006934Y013435D01*
X007014Y013355D01*
X007210Y013275D02*
X007370Y013435D01*
X007370Y012954D01*
X007210Y012954D02*
X007530Y012954D01*
X007725Y013034D02*
X007805Y012954D01*
X007966Y012954D01*
X008046Y013034D01*
X008046Y013355D01*
X007966Y013435D01*
X007805Y013435D01*
X007725Y013355D01*
X007725Y013275D01*
X007805Y013195D01*
X008046Y013195D01*
X011262Y015145D02*
X011262Y015775D01*
X011617Y015775D01*
X012050Y015775D02*
X012404Y015775D01*
X012404Y015145D01*
X014073Y015141D02*
X014111Y015141D01*
X014073Y015141D02*
X014073Y015779D01*
X014111Y015779D01*
X014436Y015263D02*
X014436Y015149D01*
X014436Y015263D02*
X014830Y015263D01*
X014830Y015145D01*
X015156Y015141D02*
X015193Y015141D01*
X015193Y015779D01*
X015156Y015779D01*
X008459Y017962D02*
X008459Y019958D01*
X005208Y019958D01*
X005208Y017962D01*
X008459Y017962D01*
X007718Y019510D02*
X007720Y019541D01*
X007726Y019572D01*
X007736Y019602D01*
X007749Y019630D01*
X007766Y019657D01*
X007786Y019681D01*
X007809Y019703D01*
X007834Y019721D01*
X007862Y019736D01*
X007891Y019748D01*
X007921Y019756D01*
X007952Y019760D01*
X007984Y019760D01*
X008015Y019756D01*
X008045Y019748D01*
X008074Y019736D01*
X008102Y019721D01*
X008127Y019703D01*
X008150Y019681D01*
X008170Y019657D01*
X008187Y019630D01*
X008200Y019602D01*
X008210Y019572D01*
X008216Y019541D01*
X008218Y019510D01*
X008216Y019479D01*
X008210Y019448D01*
X008200Y019418D01*
X008187Y019390D01*
X008170Y019363D01*
X008150Y019339D01*
X008127Y019317D01*
X008102Y019299D01*
X008074Y019284D01*
X008045Y019272D01*
X008015Y019264D01*
X007984Y019260D01*
X007952Y019260D01*
X007921Y019264D01*
X007891Y019272D01*
X007862Y019284D01*
X007834Y019299D01*
X007809Y019317D01*
X007786Y019339D01*
X007766Y019363D01*
X007749Y019390D01*
X007736Y019418D01*
X007726Y019448D01*
X007720Y019479D01*
X007718Y019510D01*
X003292Y018220D02*
X003292Y017703D01*
X002721Y017700D02*
X002540Y017700D01*
X001975Y017703D02*
X001975Y018220D01*
X002352Y018220D01*
X002914Y018220D02*
X003292Y018220D01*
X026833Y025260D02*
X028733Y025260D01*
X028733Y023860D01*
X030133Y023860D01*
X030133Y025260D01*
X030933Y025260D01*
X032033Y026360D01*
X032033Y029360D01*
X030933Y030460D01*
X030133Y030460D01*
X030133Y031860D01*
X028733Y031860D01*
X028733Y030460D01*
X026833Y030460D01*
X034288Y029708D02*
X034288Y028212D01*
X034373Y028610D02*
X034375Y028630D01*
X034381Y028648D01*
X034390Y028666D01*
X034402Y028681D01*
X034417Y028693D01*
X034435Y028702D01*
X034453Y028708D01*
X034473Y028710D01*
X034493Y028708D01*
X034511Y028702D01*
X034529Y028693D01*
X034544Y028681D01*
X034556Y028666D01*
X034565Y028648D01*
X034571Y028630D01*
X034573Y028610D01*
X034571Y028590D01*
X034565Y028572D01*
X034556Y028554D01*
X034544Y028539D01*
X034529Y028527D01*
X034511Y028518D01*
X034493Y028512D01*
X034473Y028510D01*
X034453Y028512D01*
X034435Y028518D01*
X034417Y028527D01*
X034402Y028539D01*
X034390Y028554D01*
X034381Y028572D01*
X034375Y028590D01*
X034373Y028610D01*
X036178Y028212D02*
X036178Y029708D01*
X037194Y030190D02*
X042764Y030190D01*
X042764Y024461D01*
X037194Y024461D01*
X037194Y030190D01*
X035821Y027074D02*
X034246Y027074D01*
X034246Y026917D01*
X034246Y026169D02*
X034246Y024751D01*
X034246Y024003D02*
X034246Y023846D01*
X035821Y023846D01*
X035821Y024003D01*
X035821Y024751D02*
X035821Y026169D01*
X035821Y026917D02*
X035821Y027074D01*
X042794Y024806D02*
X046209Y024806D01*
X046209Y029845D01*
X042804Y029845D01*
X046259Y029254D02*
X051111Y029254D01*
X051111Y025396D01*
X046249Y025396D01*
X038137Y019672D02*
X037326Y019672D01*
X037326Y018648D02*
X038137Y018648D01*
X035867Y018580D02*
X035587Y018300D01*
X035657Y018230D01*
X035797Y018230D01*
X035867Y018300D01*
X035867Y018580D01*
X035797Y018650D01*
X035657Y018650D01*
X035587Y018580D01*
X035587Y018300D01*
X035407Y018230D02*
X035407Y018650D01*
X035267Y018510D01*
X035126Y018650D01*
X035126Y018230D01*
X035126Y017900D02*
X035337Y017900D01*
X035407Y017830D01*
X035407Y017690D01*
X035337Y017620D01*
X035126Y017620D01*
X035126Y017480D02*
X035126Y017900D01*
X034946Y017900D02*
X034666Y017900D01*
X034666Y017480D01*
X034946Y017480D01*
X034806Y017690D02*
X034666Y017690D01*
X034486Y017690D02*
X034346Y017690D01*
X034486Y017690D02*
X034486Y017550D01*
X034416Y017480D01*
X034276Y017480D01*
X034206Y017550D01*
X034206Y017830D01*
X034276Y017900D01*
X034416Y017900D01*
X034486Y017830D01*
X034026Y017830D02*
X033955Y017900D01*
X033815Y017900D01*
X033745Y017830D01*
X033745Y017550D01*
X033815Y017480D01*
X033955Y017480D01*
X034026Y017550D01*
X034026Y017690D01*
X033885Y017690D01*
X033565Y017550D02*
X033565Y017830D01*
X033495Y017900D01*
X033355Y017900D01*
X033285Y017830D01*
X033285Y017550D01*
X033355Y017480D01*
X033495Y017480D01*
X033565Y017550D01*
X033105Y017480D02*
X032825Y017480D01*
X032825Y017900D01*
X032644Y017760D02*
X032644Y017480D01*
X032644Y017690D02*
X032364Y017690D01*
X032364Y017760D02*
X032504Y017900D01*
X032644Y017760D01*
X032364Y017760D02*
X032364Y017480D01*
X032184Y017550D02*
X032184Y017830D01*
X032114Y017900D01*
X031904Y017900D01*
X031904Y017480D01*
X032114Y017480D01*
X032184Y017550D01*
X031724Y017480D02*
X031724Y017760D01*
X031583Y017900D01*
X031443Y017760D01*
X031443Y017480D01*
X031443Y017690D02*
X031724Y017690D01*
X031904Y018230D02*
X032184Y018230D01*
X032364Y018230D02*
X032364Y018510D01*
X032504Y018650D01*
X032644Y018510D01*
X032644Y018230D01*
X032644Y018440D02*
X032364Y018440D01*
X032184Y018650D02*
X031904Y018650D01*
X031904Y018230D01*
X031904Y018440D02*
X032044Y018440D01*
X031724Y018650D02*
X031443Y018650D01*
X031443Y018230D01*
X031443Y018440D02*
X031583Y018440D01*
X032825Y018650D02*
X033105Y018650D01*
X032965Y018650D02*
X032965Y018230D01*
X033285Y018230D02*
X033285Y018650D01*
X033285Y018440D02*
X033565Y018440D01*
X033745Y018440D02*
X033885Y018440D01*
X033745Y018230D02*
X034026Y018230D01*
X034206Y018230D02*
X034206Y018650D01*
X034416Y018650D01*
X034486Y018580D01*
X034486Y018440D01*
X034416Y018370D01*
X034206Y018370D01*
X034346Y018370D02*
X034486Y018230D01*
X034026Y018650D02*
X033745Y018650D01*
X033745Y018230D01*
X033565Y018230D02*
X033565Y018650D01*
X035267Y017620D02*
X035407Y017480D01*
D12*
X028235Y021757D02*
X028235Y021850D01*
X027861Y021850D01*
X027627Y021850D02*
X027627Y021290D01*
X027861Y021290D02*
X027861Y021383D01*
X028235Y021757D01*
X027627Y021570D02*
X027253Y021570D01*
X027253Y021290D02*
X027253Y021850D01*
X024133Y020260D02*
X024133Y017060D01*
X019033Y017060D01*
X019033Y020260D01*
X024133Y020260D01*
X023474Y019024D02*
X023474Y018464D01*
X023240Y018464D02*
X022959Y018464D01*
X022866Y018557D01*
X022866Y018744D01*
X022959Y018838D01*
X023240Y018838D01*
X023474Y018744D02*
X023567Y018838D01*
X023754Y018838D01*
X023847Y018744D01*
X023847Y018464D01*
X023111Y018034D02*
X023111Y017474D01*
X023018Y017474D02*
X023205Y017474D01*
X023423Y017567D02*
X023516Y017474D01*
X023797Y017474D01*
X023797Y017381D02*
X023703Y017287D01*
X023610Y017287D01*
X023797Y017381D02*
X023797Y017848D01*
X023423Y017848D02*
X023423Y017567D01*
X023111Y018034D02*
X023018Y018034D01*
X022784Y017754D02*
X022784Y017474D01*
X022784Y017754D02*
X022690Y017848D01*
X022410Y017848D01*
X022410Y017474D01*
X022176Y017567D02*
X022083Y017474D01*
X021896Y017474D01*
X021802Y017567D01*
X021802Y017941D01*
X021896Y018034D01*
X022083Y018034D01*
X022176Y017941D01*
X022176Y017567D01*
X022126Y018464D02*
X021845Y018464D01*
X021752Y018557D01*
X021845Y018651D01*
X022126Y018651D01*
X022126Y018744D02*
X022126Y018464D01*
X022360Y018464D02*
X022360Y018838D01*
X022546Y018838D02*
X022640Y018838D01*
X022546Y018838D02*
X022360Y018651D01*
X022126Y018744D02*
X022032Y018838D01*
X021845Y018838D01*
X021518Y018744D02*
X021518Y018651D01*
X021144Y018651D01*
X021144Y018744D02*
X021238Y018838D01*
X021424Y018838D01*
X021518Y018744D01*
X021424Y018464D02*
X021238Y018464D01*
X021144Y018557D01*
X021144Y018744D01*
X020910Y018838D02*
X020630Y018838D01*
X020536Y018744D01*
X020630Y018651D01*
X020817Y018651D01*
X020910Y018557D01*
X020817Y018464D01*
X020536Y018464D01*
X020302Y018651D02*
X019929Y018651D01*
X019929Y018744D02*
X020022Y018838D01*
X020209Y018838D01*
X020302Y018744D01*
X020302Y018651D01*
X020209Y018464D02*
X020022Y018464D01*
X019929Y018557D01*
X019929Y018744D01*
X019695Y018744D02*
X019601Y018651D01*
X019321Y018651D01*
X019508Y018651D02*
X019695Y018464D01*
X019695Y018744D02*
X019695Y018931D01*
X019601Y019024D01*
X019321Y019024D01*
X019321Y018464D01*
X019372Y018034D02*
X019372Y017567D01*
X019465Y017474D01*
X019652Y017474D01*
X019745Y017567D01*
X019745Y018034D01*
X019979Y017754D02*
X020073Y017848D01*
X020353Y017848D01*
X020260Y017661D02*
X020073Y017661D01*
X019979Y017754D01*
X019979Y017474D02*
X020260Y017474D01*
X020353Y017567D01*
X020260Y017661D01*
X020587Y017661D02*
X020961Y017661D01*
X020961Y017754D01*
X020867Y017848D01*
X020680Y017848D01*
X020587Y017754D01*
X020587Y017567D01*
X020680Y017474D01*
X020867Y017474D01*
X020840Y019454D02*
X020840Y020014D01*
X021214Y020014D01*
X021027Y019734D02*
X020840Y019734D01*
X021448Y019734D02*
X021448Y019547D01*
X021541Y019454D01*
X021728Y019454D01*
X021822Y019547D01*
X021822Y019734D01*
X021728Y019828D01*
X021541Y019828D01*
X021448Y019734D01*
X022056Y019641D02*
X022243Y019828D01*
X022336Y019828D01*
X022056Y019828D02*
X022056Y019454D01*
X023263Y013860D02*
X023263Y013300D01*
X023263Y013580D02*
X023637Y013580D01*
X023871Y013580D02*
X024058Y013674D01*
X024151Y013674D01*
X024245Y013580D01*
X024245Y013393D01*
X024151Y013300D01*
X023964Y013300D01*
X023871Y013393D01*
X023871Y013580D02*
X023871Y013860D01*
X024245Y013860D01*
X023637Y013860D02*
X023637Y013300D01*
X008133Y020860D02*
X008135Y020880D01*
X008141Y020898D01*
X008150Y020916D01*
X008162Y020931D01*
X008177Y020943D01*
X008195Y020952D01*
X008213Y020958D01*
X008233Y020960D01*
X008253Y020958D01*
X008271Y020952D01*
X008289Y020943D01*
X008304Y020931D01*
X008316Y020916D01*
X008325Y020898D01*
X008331Y020880D01*
X008333Y020860D01*
X008331Y020840D01*
X008325Y020822D01*
X008316Y020804D01*
X008304Y020789D01*
X008289Y020777D01*
X008271Y020768D01*
X008253Y020762D01*
X008233Y020760D01*
X008213Y020762D01*
X008195Y020768D01*
X008177Y020777D01*
X008162Y020789D01*
X008150Y020804D01*
X008141Y020822D01*
X008135Y020840D01*
X008133Y020860D01*
X001935Y018620D02*
X001561Y018620D01*
X001748Y018620D02*
X001748Y019180D01*
X001561Y018994D01*
X001327Y018900D02*
X000953Y018900D01*
X000953Y018620D02*
X000953Y019180D01*
X001327Y019180D02*
X001327Y018620D01*
X001298Y025688D02*
X001391Y025688D01*
X001485Y025782D01*
X001485Y025969D01*
X001578Y026062D01*
X001671Y026062D01*
X001765Y025969D01*
X001765Y025782D01*
X001671Y025688D01*
X001298Y025688D02*
X001204Y025782D01*
X001204Y025969D01*
X001298Y026062D01*
X001298Y026296D02*
X001671Y026296D01*
X001765Y026389D01*
X001765Y026576D01*
X001671Y026670D01*
X001578Y026904D02*
X001578Y027184D01*
X001485Y027277D01*
X001298Y027277D01*
X001204Y027184D01*
X001204Y026904D01*
X001765Y026904D01*
X001578Y027091D02*
X001765Y027277D01*
X001765Y027511D02*
X001204Y027511D01*
X001204Y027885D01*
X001204Y028119D02*
X001765Y028119D01*
X001765Y028493D01*
X001765Y028727D02*
X001204Y028727D01*
X001765Y029101D01*
X001204Y029101D01*
X001204Y028493D02*
X001204Y028119D01*
X001485Y028119D02*
X001485Y028306D01*
X001765Y027885D02*
X001765Y027511D01*
X001485Y027511D02*
X001485Y027698D01*
X001298Y026670D02*
X001204Y026576D01*
X001204Y026389D01*
X001298Y026296D01*
X008325Y031556D02*
X008325Y032116D01*
X008511Y031930D01*
X008698Y032116D01*
X008698Y031556D01*
X008932Y031649D02*
X008932Y032023D01*
X009026Y032116D01*
X009213Y032116D01*
X009306Y032023D01*
X009306Y031649D01*
X009213Y031556D01*
X009026Y031556D01*
X008932Y031649D01*
X009540Y032116D02*
X009914Y032116D01*
X009727Y032116D02*
X009727Y031556D01*
X010148Y031649D02*
X010148Y032023D01*
X010241Y032116D01*
X010428Y032116D01*
X010521Y032023D01*
X010521Y031649D01*
X010428Y031556D01*
X010241Y031556D01*
X010148Y031649D01*
X010756Y031556D02*
X010756Y032116D01*
X011036Y032116D01*
X011129Y032023D01*
X011129Y031836D01*
X011036Y031743D01*
X010756Y031743D01*
X010942Y031743D02*
X011129Y031556D01*
X012523Y031040D02*
X012523Y030480D01*
X012523Y030760D02*
X012897Y030760D01*
X012897Y031040D02*
X012897Y030480D01*
X013131Y030573D02*
X013224Y030480D01*
X013411Y030480D01*
X013505Y030573D01*
X013505Y030667D01*
X013411Y030760D01*
X013318Y030760D01*
X013411Y030760D02*
X013505Y030854D01*
X013505Y030947D01*
X013411Y031040D01*
X013224Y031040D01*
X013131Y030947D01*
X033933Y028560D02*
X033935Y028580D01*
X033941Y028598D01*
X033950Y028616D01*
X033962Y028631D01*
X033977Y028643D01*
X033995Y028652D01*
X034013Y028658D01*
X034033Y028660D01*
X034053Y028658D01*
X034071Y028652D01*
X034089Y028643D01*
X034104Y028631D01*
X034116Y028616D01*
X034125Y028598D01*
X034131Y028580D01*
X034133Y028560D01*
X034131Y028540D01*
X034125Y028522D01*
X034116Y028504D01*
X034104Y028489D01*
X034089Y028477D01*
X034071Y028468D01*
X034053Y028462D01*
X034033Y028460D01*
X034013Y028462D01*
X033995Y028468D01*
X033977Y028477D01*
X033962Y028489D01*
X033950Y028504D01*
X033941Y028522D01*
X033935Y028540D01*
X033933Y028560D01*
D13*
X006323Y027240D03*
X005023Y027670D03*
X004013Y028910D03*
X003983Y029060D03*
X003583Y028970D03*
X006313Y025800D03*
D14*
X006313Y025810D03*
X005543Y025950D03*
X003743Y027420D03*
X004453Y028610D03*
X004453Y028620D03*
X004453Y028630D03*
X005243Y028580D03*
D15*
X004008Y028930D03*
X003978Y029040D03*
X003898Y028700D03*
X003618Y029080D03*
X003998Y027090D03*
X003998Y027080D03*
X003998Y027070D03*
X003998Y027060D03*
X003998Y027050D03*
X003998Y027040D03*
X003998Y027030D03*
X003998Y027020D03*
X003998Y027010D03*
X003998Y027000D03*
X003998Y026990D03*
X003998Y026980D03*
X003998Y026970D03*
X003998Y026960D03*
X003998Y026950D03*
X003998Y026940D03*
X003998Y026930D03*
X003998Y026920D03*
X003998Y026910D03*
X003998Y026900D03*
X003998Y026890D03*
X003998Y026880D03*
X003998Y026870D03*
X003998Y026860D03*
X003998Y026850D03*
X003998Y026840D03*
X003998Y026830D03*
X003998Y026820D03*
X003998Y026810D03*
X003998Y026800D03*
X003998Y026790D03*
X003998Y026780D03*
X003998Y026770D03*
X003998Y026760D03*
X003998Y026750D03*
X003998Y026740D03*
X003998Y026730D03*
X003998Y026720D03*
X003998Y026710D03*
X003998Y026700D03*
X003998Y026690D03*
X003998Y026680D03*
X003998Y026670D03*
X003998Y026660D03*
X003998Y026650D03*
X003998Y026640D03*
X003998Y026630D03*
X003998Y026620D03*
X003998Y026610D03*
X003998Y026600D03*
X003998Y026590D03*
X003998Y026440D03*
X003998Y026430D03*
X003998Y026420D03*
X003998Y026410D03*
X003998Y026400D03*
X003998Y026390D03*
X003998Y026380D03*
X003998Y026370D03*
X003998Y026360D03*
X003998Y026350D03*
X003998Y026340D03*
X003998Y026330D03*
X003998Y026320D03*
X003998Y026310D03*
X003998Y026300D03*
X003998Y026290D03*
X003998Y026280D03*
X003998Y026270D03*
X003998Y026260D03*
X003998Y026250D03*
X003998Y026240D03*
X003998Y026230D03*
X003998Y026220D03*
X003998Y026210D03*
X003998Y026200D03*
X003998Y026190D03*
X003998Y026180D03*
X003998Y026170D03*
X003998Y026160D03*
X003998Y026150D03*
X003998Y026140D03*
X003998Y026130D03*
X003998Y026120D03*
X003998Y026110D03*
X003998Y026100D03*
X003998Y026090D03*
X003998Y026080D03*
X003998Y026070D03*
X003998Y026060D03*
X003998Y026050D03*
X003998Y026040D03*
X003998Y026030D03*
X003998Y026020D03*
X003998Y026010D03*
X003998Y026000D03*
X003998Y025990D03*
X003998Y025980D03*
X003998Y025970D03*
X003998Y025960D03*
X003998Y025950D03*
X003998Y025940D03*
X003068Y025940D03*
X003068Y025950D03*
X003068Y025960D03*
X003068Y025970D03*
X003068Y025980D03*
X003068Y025990D03*
X003068Y026000D03*
X003068Y026010D03*
X003068Y026020D03*
X003068Y026030D03*
X003068Y026040D03*
X003068Y026050D03*
X003068Y026060D03*
X003068Y026070D03*
X003068Y026080D03*
X003068Y026090D03*
X003068Y026100D03*
X003068Y026110D03*
X003068Y026120D03*
X003068Y026130D03*
X003068Y026140D03*
X003068Y026150D03*
X003068Y026160D03*
X003068Y026170D03*
X003068Y026180D03*
X003068Y026190D03*
X003068Y026200D03*
X003068Y026210D03*
X003068Y026220D03*
X003068Y026230D03*
X003068Y026240D03*
X003068Y026250D03*
X003068Y026260D03*
X003068Y026270D03*
X003068Y026280D03*
X003068Y026290D03*
X003068Y026300D03*
X003068Y026310D03*
X003068Y026320D03*
X003068Y026330D03*
X003068Y026340D03*
X003068Y026350D03*
X003068Y026360D03*
X003068Y026370D03*
X003068Y026380D03*
X003068Y026390D03*
X003068Y026400D03*
X003068Y026410D03*
X003068Y026420D03*
X003068Y026430D03*
X003068Y026570D03*
X003068Y026580D03*
X003068Y026590D03*
X003068Y026600D03*
X003068Y026610D03*
X003068Y026620D03*
X003068Y026630D03*
X003068Y026640D03*
X003068Y026650D03*
X003068Y026660D03*
X003068Y026670D03*
X003068Y026680D03*
X003068Y026690D03*
X003068Y026700D03*
X003068Y026710D03*
X003068Y026720D03*
X003068Y026730D03*
X003068Y026740D03*
X003068Y026750D03*
X003068Y026760D03*
X003068Y026770D03*
X003068Y026780D03*
X003068Y026790D03*
X003068Y026800D03*
X003068Y026810D03*
X003068Y026820D03*
X003068Y026830D03*
X003068Y026840D03*
X003068Y026850D03*
X003068Y026860D03*
X003068Y026870D03*
X003068Y026880D03*
X003068Y026890D03*
X003068Y026900D03*
X003068Y026910D03*
X003068Y026920D03*
X003068Y026930D03*
X003068Y026940D03*
X003068Y026950D03*
X003068Y026960D03*
X003068Y026970D03*
X003068Y026980D03*
X003068Y026990D03*
X003068Y027000D03*
X003068Y027010D03*
X003068Y027020D03*
X003068Y027030D03*
X003068Y027040D03*
X003068Y027050D03*
X003068Y027060D03*
X003068Y027070D03*
X003068Y027080D03*
X003068Y027090D03*
X003068Y025930D03*
X003068Y025920D03*
X003068Y025910D03*
X003068Y025900D03*
X003068Y025890D03*
X003068Y025880D03*
X003068Y025870D03*
X003068Y025860D03*
X003068Y025850D03*
X003068Y025840D03*
X003068Y025830D03*
X003068Y025820D03*
X004978Y025950D03*
X004978Y025960D03*
X004978Y025970D03*
X004978Y025980D03*
X004978Y025990D03*
X004978Y026000D03*
X004978Y026010D03*
X004978Y026020D03*
X004978Y026030D03*
X004978Y026040D03*
X004978Y026050D03*
X004978Y026060D03*
X004978Y026070D03*
X004978Y026080D03*
X004978Y026090D03*
X004978Y026100D03*
X004978Y026110D03*
X004978Y026120D03*
X004978Y026130D03*
X004978Y026140D03*
X004978Y026150D03*
X004978Y026160D03*
X004978Y026170D03*
X004978Y026180D03*
X004978Y026190D03*
X004978Y026200D03*
X004978Y026210D03*
X004978Y026220D03*
X004978Y026230D03*
X004978Y026240D03*
X004978Y026250D03*
X004978Y026260D03*
X004978Y026270D03*
X004978Y026280D03*
X004978Y026290D03*
X004978Y026300D03*
X004978Y026310D03*
X004978Y026320D03*
X004978Y026330D03*
X004978Y026340D03*
X004978Y026350D03*
X004978Y026360D03*
X004978Y026370D03*
X004978Y026380D03*
X004978Y026390D03*
X004978Y026400D03*
X004978Y026410D03*
X004978Y026420D03*
X004978Y026430D03*
X004978Y026440D03*
X004978Y026450D03*
X004978Y026460D03*
X004978Y026470D03*
X004978Y026480D03*
X004978Y026490D03*
X004978Y026500D03*
X004978Y026510D03*
X004978Y026520D03*
X004978Y026530D03*
X004978Y026540D03*
X004978Y026550D03*
X004978Y026560D03*
X004978Y026570D03*
X004978Y026580D03*
X004978Y026590D03*
X004978Y026600D03*
X004978Y026610D03*
X004978Y026620D03*
X004978Y026630D03*
X004978Y026640D03*
X004978Y026650D03*
X004978Y026660D03*
X004978Y026670D03*
X004978Y026680D03*
X004978Y026690D03*
X004978Y026700D03*
X004978Y026710D03*
X004978Y026720D03*
X004978Y026730D03*
X004978Y026740D03*
X004978Y026750D03*
X004978Y026760D03*
X004978Y026770D03*
X004978Y026780D03*
X004978Y026790D03*
X004978Y026800D03*
X004978Y026810D03*
X004978Y026820D03*
X004978Y026830D03*
X004978Y026840D03*
X004978Y026850D03*
X004978Y026860D03*
X004978Y026870D03*
X004978Y026880D03*
X004978Y026890D03*
X004978Y026900D03*
X004978Y026910D03*
X004978Y026920D03*
X004978Y026930D03*
X004978Y026940D03*
X004978Y026950D03*
X004978Y026960D03*
X004978Y026970D03*
X004978Y026980D03*
X004978Y026990D03*
X004978Y027000D03*
X004978Y027010D03*
X004978Y027020D03*
X004978Y027030D03*
X004978Y027040D03*
X004978Y027050D03*
X004978Y027060D03*
X004978Y027070D03*
X004978Y027080D03*
X004978Y027090D03*
X005658Y026950D03*
X005658Y026940D03*
X005658Y026930D03*
X005658Y026920D03*
X005658Y026910D03*
X005668Y026880D03*
X005668Y026870D03*
X005668Y026860D03*
X005668Y026850D03*
X005668Y026840D03*
X005668Y026830D03*
X005668Y026820D03*
X005668Y026810D03*
X005668Y026800D03*
X005668Y026790D03*
X005668Y026780D03*
X005668Y026770D03*
X005668Y026760D03*
X005668Y026750D03*
X005668Y026740D03*
X005668Y026730D03*
X005668Y026720D03*
X005668Y026710D03*
X005668Y026700D03*
X005668Y026690D03*
X005668Y026680D03*
X005668Y026670D03*
X005668Y026660D03*
X005668Y026650D03*
X005668Y026640D03*
X005668Y026630D03*
X005668Y026620D03*
X005668Y026610D03*
X005668Y026600D03*
X005668Y026590D03*
X005668Y026580D03*
X005668Y026570D03*
X005668Y026560D03*
X005668Y026550D03*
X005668Y026540D03*
X005668Y026530D03*
X005668Y026520D03*
X005668Y026510D03*
X005668Y026500D03*
X005668Y026490D03*
X005668Y026480D03*
X005668Y026470D03*
X005668Y026460D03*
X005668Y026450D03*
X005668Y026440D03*
X005668Y026430D03*
X005668Y026420D03*
X005668Y026410D03*
X005668Y026400D03*
X005668Y026390D03*
X005668Y026380D03*
X005668Y026370D03*
X005668Y026360D03*
X005668Y026350D03*
X005668Y026340D03*
X005668Y026330D03*
X005668Y026320D03*
X005668Y026310D03*
X005668Y026300D03*
X005668Y026290D03*
X005668Y026280D03*
X005668Y026270D03*
X005668Y026260D03*
X005668Y026250D03*
X005668Y026240D03*
X005668Y026230D03*
X005668Y026220D03*
X005668Y026210D03*
X005668Y026200D03*
X005668Y026190D03*
X005668Y026180D03*
X005668Y026170D03*
X005668Y026160D03*
X005668Y026150D03*
X005658Y026130D03*
X005658Y026120D03*
X005658Y026110D03*
X005658Y026100D03*
X005658Y026090D03*
X006008Y026130D03*
X006008Y026140D03*
X006008Y026150D03*
X006008Y026160D03*
X006008Y026170D03*
X006018Y026110D03*
X006018Y026100D03*
X006018Y026090D03*
X006018Y026080D03*
X006598Y026080D03*
X006598Y026090D03*
X006598Y026100D03*
X006598Y026110D03*
X006608Y026140D03*
X006608Y026150D03*
X006608Y026160D03*
X006608Y026170D03*
X006608Y026180D03*
X006608Y026190D03*
X006608Y026200D03*
X006608Y026210D03*
X006608Y026220D03*
X006608Y026230D03*
X006608Y026240D03*
X006608Y026250D03*
X006608Y026260D03*
X006608Y026270D03*
X006608Y026280D03*
X006598Y026300D03*
X006598Y026310D03*
X006598Y026320D03*
X006598Y026330D03*
X006598Y026340D03*
X006598Y026350D03*
X006598Y026070D03*
X006568Y026710D03*
X006568Y026720D03*
X006578Y026740D03*
X006578Y026750D03*
X006578Y026760D03*
X006578Y026770D03*
X006578Y026780D03*
X006578Y026790D03*
X006578Y026800D03*
X006578Y026810D03*
X006578Y026820D03*
X006578Y026830D03*
X006578Y026840D03*
X006578Y026850D03*
X006578Y026860D03*
X006578Y026870D03*
X006578Y026880D03*
X006578Y026890D03*
X006578Y026900D03*
X006578Y026910D03*
X006578Y026920D03*
X006578Y026930D03*
X006578Y026940D03*
X006578Y026950D03*
X006578Y026960D03*
X006578Y026970D03*
X006048Y026980D03*
X006038Y026950D03*
X006038Y026940D03*
X006038Y026930D03*
X006038Y026920D03*
X006038Y026910D03*
X006028Y026890D03*
X006028Y026880D03*
D16*
X005288Y027100D03*
X004308Y027100D03*
X004308Y027110D03*
X004308Y027120D03*
X004308Y027130D03*
X004308Y027140D03*
X004308Y027150D03*
X004308Y027160D03*
X004308Y027170D03*
X004308Y027180D03*
X004308Y027190D03*
X004308Y027200D03*
X004308Y027210D03*
X004308Y027220D03*
X004308Y027230D03*
X004308Y025930D03*
X004308Y025920D03*
X004308Y025910D03*
X004308Y025900D03*
X004308Y025890D03*
X004308Y025880D03*
X004308Y025870D03*
X004308Y025860D03*
X004308Y025850D03*
X004308Y025840D03*
X004308Y025830D03*
X004308Y025820D03*
X003278Y029500D03*
X006418Y029510D03*
D17*
X003743Y028520D03*
X003743Y027510D03*
X005183Y025820D03*
X006313Y027130D03*
D18*
X006308Y025820D03*
X003058Y027760D03*
X003058Y027770D03*
X003058Y027780D03*
X003058Y027790D03*
X003058Y028240D03*
X003058Y028250D03*
X003058Y028260D03*
X003058Y028270D03*
X003058Y028760D03*
X003058Y028770D03*
X003058Y028780D03*
X003058Y028790D03*
X003058Y028800D03*
X003058Y028950D03*
X003058Y028960D03*
X003058Y028970D03*
X003058Y028980D03*
X003768Y028820D03*
X004418Y028490D03*
X004418Y028480D03*
X005278Y028470D03*
X006638Y028660D03*
X006638Y028670D03*
X006638Y028680D03*
X006638Y029080D03*
X006638Y029090D03*
D19*
X006508Y029430D03*
X005198Y027210D03*
X005198Y025830D03*
X006308Y025910D03*
D20*
X006303Y025830D03*
X006413Y026490D03*
X006613Y028540D03*
X006613Y028550D03*
X006613Y028560D03*
X006613Y029200D03*
X006613Y029210D03*
X005303Y028410D03*
X004393Y028410D03*
X004393Y028420D03*
X004393Y028400D03*
X003743Y028580D03*
X003083Y028590D03*
X003083Y028600D03*
X003083Y028610D03*
X003083Y028390D03*
X003083Y028380D03*
X003083Y027650D03*
X003083Y027640D03*
X003083Y029140D03*
X003083Y029150D03*
X003083Y029160D03*
D21*
X003203Y029440D03*
X003743Y028490D03*
X003743Y027540D03*
X005213Y027200D03*
X005213Y025840D03*
X006493Y029450D03*
D22*
X006588Y029280D03*
X006588Y028470D03*
X005028Y027690D03*
X003108Y028460D03*
X003108Y028470D03*
X003108Y028500D03*
X003108Y028510D03*
X003108Y029240D03*
X003108Y029250D03*
X006308Y025840D03*
D23*
X005228Y025850D03*
X005228Y027190D03*
X004558Y027610D03*
X006478Y028290D03*
X003218Y029450D03*
D24*
X003118Y029270D03*
X006578Y029300D03*
X006578Y028450D03*
X006308Y025850D03*
D25*
X005238Y025860D03*
X005238Y027180D03*
X003748Y028460D03*
D26*
X006558Y028400D03*
X006558Y029350D03*
X006308Y025860D03*
D27*
X005248Y025870D03*
X004268Y026450D03*
X004268Y026460D03*
X004268Y026470D03*
X004268Y026480D03*
X004268Y026490D03*
X004268Y026500D03*
X004268Y026510D03*
X004268Y026520D03*
X004268Y026530D03*
X004268Y026540D03*
X004268Y026550D03*
X004268Y026560D03*
X004268Y026570D03*
X004268Y026580D03*
X003338Y026560D03*
X003338Y026550D03*
X003338Y026540D03*
X003338Y026530D03*
X003338Y026520D03*
X003338Y026510D03*
X003338Y026500D03*
X003338Y026490D03*
X003338Y026480D03*
X003338Y026470D03*
X003338Y026460D03*
X003338Y026450D03*
X003338Y026440D03*
X005248Y027170D03*
X006458Y028270D03*
X003238Y029470D03*
D28*
X006548Y028390D03*
X006308Y025870D03*
D29*
X005253Y025880D03*
X005253Y027160D03*
X003743Y027590D03*
X003743Y028440D03*
D30*
X003743Y028530D03*
X003163Y029370D03*
X003743Y027500D03*
X006313Y027140D03*
X006533Y028360D03*
X006303Y025880D03*
D31*
X005263Y025890D03*
X005263Y027150D03*
X003743Y027600D03*
X003743Y028430D03*
D32*
X003178Y029400D03*
X006518Y029420D03*
X006518Y028340D03*
X006518Y028330D03*
X006308Y025900D03*
X006308Y025890D03*
D33*
X005268Y025900D03*
X005268Y027140D03*
D34*
X005273Y027130D03*
X003743Y027610D03*
X003743Y027620D03*
X003743Y028410D03*
X003743Y028420D03*
X006433Y029500D03*
X005273Y025910D03*
D35*
X005278Y025920D03*
X005278Y027120D03*
X003268Y029490D03*
D36*
X003198Y029430D03*
X006498Y028310D03*
X006308Y025920D03*
D37*
X005283Y025930D03*
X005283Y025940D03*
X005283Y027110D03*
X006423Y028250D03*
X003743Y028390D03*
X003743Y028400D03*
X003743Y027640D03*
X003743Y027630D03*
X003373Y027230D03*
X003373Y027220D03*
X003373Y027210D03*
X003373Y027200D03*
X003373Y027190D03*
X003373Y027180D03*
X003373Y027170D03*
X003373Y027160D03*
X003373Y027150D03*
X003373Y027140D03*
X003373Y027130D03*
X003373Y027120D03*
X003373Y027110D03*
X003373Y027100D03*
D38*
X003743Y027430D03*
X003043Y027890D03*
X003043Y027900D03*
X003043Y027910D03*
X003043Y027920D03*
X003043Y027930D03*
X003043Y027940D03*
X003043Y027950D03*
X003043Y027960D03*
X003043Y027970D03*
X003043Y027980D03*
X003043Y027990D03*
X003043Y028000D03*
X003043Y028010D03*
X003043Y028020D03*
X003043Y028030D03*
X003043Y028040D03*
X003043Y028050D03*
X003043Y028060D03*
X003043Y028070D03*
X003043Y028080D03*
X003043Y028090D03*
X003043Y028100D03*
X003043Y028110D03*
X003043Y028120D03*
X003043Y028130D03*
X003043Y028140D03*
X003743Y028600D03*
X003773Y028840D03*
X004433Y028540D03*
X005263Y028510D03*
X006653Y028770D03*
X006653Y028780D03*
X006653Y028790D03*
X006653Y028800D03*
X006653Y028810D03*
X006653Y028820D03*
X006653Y028830D03*
X006653Y028840D03*
X006653Y028850D03*
X006653Y028860D03*
X006653Y028870D03*
X006653Y028880D03*
X006653Y028890D03*
X006653Y028900D03*
X006653Y028910D03*
X006653Y028920D03*
X006653Y028930D03*
X006653Y028940D03*
X006653Y028950D03*
X006653Y028960D03*
X006653Y028970D03*
X006653Y028980D03*
X006463Y027110D03*
X006373Y026540D03*
X006473Y025930D03*
X006143Y025930D03*
D39*
X006113Y025940D03*
X006313Y027230D03*
X005233Y028630D03*
X004463Y028680D03*
X004463Y028690D03*
D40*
X004468Y028700D03*
X003768Y028870D03*
X005228Y028680D03*
X005228Y028670D03*
X005228Y028660D03*
X005228Y028650D03*
X005228Y028640D03*
X006128Y027100D03*
X006498Y027100D03*
X006478Y026620D03*
X006508Y025940D03*
D41*
X006523Y025950D03*
X006093Y025950D03*
X005583Y025970D03*
X005573Y025960D03*
X005583Y027070D03*
X005573Y027080D03*
X006513Y027090D03*
X004463Y027650D03*
X005223Y028690D03*
X005223Y028700D03*
D42*
X003768Y028880D03*
X006108Y027090D03*
X006508Y026470D03*
X006538Y025960D03*
X006078Y025960D03*
D43*
X006068Y025970D03*
X005608Y025990D03*
X006548Y025970D03*
X006548Y026440D03*
X006538Y026450D03*
X006508Y026630D03*
X006088Y027070D03*
X005608Y027050D03*
X003978Y028990D03*
X003978Y029000D03*
D44*
X003983Y028980D03*
X003983Y028970D03*
X005593Y027060D03*
X006103Y027080D03*
X006523Y027080D03*
X006523Y026460D03*
X005593Y025980D03*
D45*
X005613Y026000D03*
X005623Y026010D03*
X006053Y025990D03*
X006063Y025980D03*
X006553Y025980D03*
X006563Y025990D03*
X006513Y026640D03*
X006543Y027060D03*
X006533Y027070D03*
X006083Y027060D03*
X005623Y027030D03*
X005613Y027040D03*
X003743Y027410D03*
X003743Y028620D03*
X003613Y029000D03*
X003613Y029010D03*
X003613Y029020D03*
X003993Y028960D03*
D46*
X003998Y028950D03*
X003978Y029010D03*
X003768Y028890D03*
X003618Y029030D03*
X003618Y029040D03*
X003618Y029050D03*
X003618Y029060D03*
X005628Y027020D03*
X005628Y027010D03*
X005638Y027000D03*
X006068Y027030D03*
X006068Y027040D03*
X006078Y027050D03*
X006548Y027050D03*
X006558Y027040D03*
X006558Y027030D03*
X006528Y026650D03*
X006558Y026430D03*
X006568Y026410D03*
X006588Y026040D03*
X006578Y026020D03*
X006578Y026010D03*
X006568Y026000D03*
X006048Y026000D03*
X006048Y026010D03*
X006038Y026020D03*
X005638Y026040D03*
X005628Y026030D03*
X005628Y026020D03*
D47*
X005643Y026050D03*
X005643Y026060D03*
X005653Y026070D03*
X005653Y026080D03*
X005663Y026140D03*
X006013Y026120D03*
X006023Y026070D03*
X006023Y026060D03*
X006023Y026050D03*
X006033Y026040D03*
X006033Y026030D03*
X006583Y026030D03*
X006593Y026050D03*
X006593Y026060D03*
X006603Y026120D03*
X006603Y026130D03*
X006603Y026290D03*
X006593Y026360D03*
X006593Y026370D03*
X006583Y026380D03*
X006583Y026390D03*
X006573Y026400D03*
X006563Y026420D03*
X006543Y026660D03*
X006543Y026670D03*
X006553Y026680D03*
X006553Y026690D03*
X006563Y026700D03*
X006573Y026730D03*
X006573Y026980D03*
X006573Y026990D03*
X006573Y027000D03*
X006563Y027010D03*
X006563Y027020D03*
X006063Y027020D03*
X006053Y027010D03*
X006053Y027000D03*
X006053Y026990D03*
X006043Y026970D03*
X006043Y026960D03*
X006033Y026900D03*
X005663Y026900D03*
X005663Y026890D03*
X005653Y026960D03*
X005653Y026970D03*
X005643Y026980D03*
X005643Y026990D03*
X004003Y028940D03*
X003983Y029020D03*
X003983Y029030D03*
X003613Y029070D03*
X003603Y028990D03*
D48*
X003773Y028850D03*
X004443Y028580D03*
X004443Y028570D03*
X005253Y028550D03*
X005253Y028540D03*
X006163Y027110D03*
X006363Y026550D03*
X006473Y026480D03*
D49*
X006408Y026500D03*
X006618Y028570D03*
X006618Y029180D03*
X006618Y029190D03*
X005298Y028420D03*
X004398Y028430D03*
X004398Y028440D03*
X003768Y028780D03*
X003768Y028790D03*
X003078Y028630D03*
X003078Y028620D03*
X003078Y028370D03*
X003078Y028360D03*
X003078Y028350D03*
X003078Y027670D03*
X003078Y027660D03*
X003078Y029120D03*
X003078Y029130D03*
D50*
X003073Y029110D03*
X003073Y029100D03*
X003073Y029090D03*
X003073Y029080D03*
X003073Y028670D03*
X003073Y028660D03*
X003073Y028650D03*
X003073Y028640D03*
X003073Y028340D03*
X003073Y028330D03*
X003073Y027700D03*
X003073Y027690D03*
X003073Y027680D03*
X004403Y028450D03*
X005293Y028440D03*
X005293Y028430D03*
X006623Y028580D03*
X006623Y028590D03*
X006623Y028600D03*
X006623Y029160D03*
X006623Y029170D03*
X006313Y027210D03*
X006403Y026610D03*
X006403Y026510D03*
D51*
X006393Y026520D03*
X006393Y026590D03*
X005283Y028460D03*
X004413Y028470D03*
X003743Y028590D03*
X003063Y028700D03*
X003063Y028710D03*
X003063Y028720D03*
X003063Y028730D03*
X003063Y028740D03*
X003063Y028750D03*
X003063Y028990D03*
X003063Y029000D03*
X003063Y029010D03*
X003063Y029020D03*
X003063Y029030D03*
X003063Y029040D03*
X003063Y029050D03*
X003063Y028290D03*
X003063Y028280D03*
X003063Y027750D03*
X003063Y027740D03*
X003063Y027730D03*
X006633Y028630D03*
X006633Y028640D03*
X006633Y028650D03*
X006633Y029100D03*
X006633Y029110D03*
X006633Y029120D03*
X006633Y029130D03*
D52*
X006643Y029070D03*
X006643Y029060D03*
X006643Y029050D03*
X006643Y029040D03*
X006643Y029030D03*
X006643Y028720D03*
X006643Y028710D03*
X006643Y028700D03*
X006643Y028690D03*
X005273Y028490D03*
X005273Y028480D03*
X004423Y028500D03*
X004423Y028510D03*
X003053Y028230D03*
X003053Y028220D03*
X003053Y028210D03*
X003053Y028200D03*
X003053Y027830D03*
X003053Y027820D03*
X003053Y027810D03*
X003053Y027800D03*
X003053Y028810D03*
X003053Y028820D03*
X003053Y028830D03*
X003053Y028840D03*
X003053Y028850D03*
X003053Y028860D03*
X003053Y028870D03*
X003053Y028880D03*
X003053Y028890D03*
X003053Y028900D03*
X003053Y028910D03*
X003053Y028920D03*
X003053Y028930D03*
X003053Y028940D03*
X006383Y026580D03*
X006383Y026530D03*
D53*
X006368Y026560D03*
X005258Y028520D03*
X005258Y028530D03*
X004438Y028550D03*
X004438Y028560D03*
D54*
X004428Y028530D03*
X004428Y028520D03*
X003768Y028830D03*
X003048Y028190D03*
X003048Y028180D03*
X003048Y028170D03*
X003048Y028160D03*
X003048Y028150D03*
X003048Y027880D03*
X003048Y027870D03*
X003048Y027860D03*
X003048Y027850D03*
X003048Y027840D03*
X004478Y027640D03*
X004998Y027680D03*
X005268Y028500D03*
X006648Y028730D03*
X006648Y028740D03*
X006648Y028750D03*
X006648Y028760D03*
X006648Y028990D03*
X006648Y029000D03*
X006648Y029010D03*
X006648Y029020D03*
X006318Y027220D03*
X006378Y026570D03*
D55*
X006398Y026600D03*
X003748Y027440D03*
X003068Y027710D03*
X003068Y027720D03*
X003068Y028300D03*
X003068Y028310D03*
X003068Y028320D03*
X003068Y028680D03*
X003068Y028690D03*
X003068Y029060D03*
X003068Y029070D03*
X003768Y028810D03*
X003768Y028800D03*
X004408Y028460D03*
X005288Y028450D03*
X006628Y028610D03*
X006628Y028620D03*
X006628Y029140D03*
X006628Y029150D03*
D56*
X005248Y028570D03*
X005248Y028560D03*
X004448Y028590D03*
X004448Y028600D03*
X005538Y027090D03*
D57*
X006313Y027120D03*
X003743Y027520D03*
X003743Y028510D03*
X003183Y029410D03*
D58*
X003153Y029360D03*
X003153Y029350D03*
X006543Y029370D03*
X006543Y029380D03*
X006543Y028380D03*
X006313Y027150D03*
D59*
X006313Y027160D03*
X003743Y027490D03*
X003743Y028540D03*
X003143Y029330D03*
X003143Y029340D03*
X006553Y029360D03*
D60*
X006563Y029340D03*
X006563Y028410D03*
X006313Y027170D03*
X003743Y027480D03*
X003743Y028550D03*
X003133Y029300D03*
X003133Y029310D03*
X003133Y029320D03*
D61*
X003123Y029290D03*
X003123Y029280D03*
X003743Y028560D03*
X003743Y027470D03*
X004503Y027630D03*
X006313Y027180D03*
X006573Y028430D03*
X006573Y028440D03*
X006573Y029310D03*
X006573Y029320D03*
D62*
X006593Y029270D03*
X006593Y029260D03*
X006593Y028490D03*
X006593Y028480D03*
X006313Y027190D03*
X003743Y027460D03*
X003743Y028570D03*
X003103Y028530D03*
X003103Y028520D03*
X003103Y028450D03*
X003103Y029220D03*
X003103Y029230D03*
D63*
X003093Y029200D03*
X003093Y029190D03*
X003093Y029180D03*
X003093Y028560D03*
X003093Y028550D03*
X003093Y028420D03*
X003093Y028410D03*
X003093Y027610D03*
X006313Y027200D03*
X006603Y028510D03*
X006603Y028520D03*
X006603Y029230D03*
X006603Y029240D03*
X006603Y029250D03*
D64*
X006528Y029400D03*
X006528Y029410D03*
X006528Y028350D03*
X005018Y027700D03*
X005178Y027220D03*
X003168Y029380D03*
X003168Y029390D03*
D65*
X003113Y029260D03*
X003113Y028490D03*
X003113Y028480D03*
X005123Y027230D03*
X006583Y028460D03*
X006583Y029290D03*
D66*
X003958Y028660D03*
X003558Y028900D03*
X003738Y027400D03*
D67*
X003748Y027450D03*
X003088Y027620D03*
X003088Y027630D03*
X003088Y028400D03*
X003088Y028570D03*
X003088Y028580D03*
X003768Y028750D03*
X003768Y028760D03*
X003768Y028770D03*
X003088Y029170D03*
X005308Y028400D03*
X006608Y028530D03*
X006608Y029220D03*
D68*
X006503Y029440D03*
X006503Y028320D03*
X003743Y028500D03*
X003743Y027530D03*
X003193Y029420D03*
D69*
X003743Y028480D03*
X005033Y027710D03*
X003743Y027550D03*
D70*
X003743Y027560D03*
X003743Y028470D03*
X003223Y029460D03*
X006473Y029470D03*
X006473Y028280D03*
D71*
X006463Y029480D03*
X003743Y028450D03*
X003743Y027580D03*
X003743Y027570D03*
D72*
X005993Y027610D03*
D73*
X006538Y028370D03*
X006538Y029390D03*
X004518Y027620D03*
D74*
X005033Y028240D03*
X006033Y027620D03*
X004843Y029440D03*
D75*
X006053Y027630D03*
D76*
X006073Y027640D03*
X004993Y028260D03*
D77*
X003743Y028380D03*
X003743Y027650D03*
D78*
X006088Y027650D03*
D79*
X005023Y027730D03*
X003743Y027670D03*
X003743Y027660D03*
X003743Y028360D03*
X003743Y028370D03*
D80*
X004948Y028300D03*
X006108Y027660D03*
X004838Y029380D03*
D81*
X004933Y028310D03*
X006113Y027670D03*
D82*
X003743Y027680D03*
X003743Y027690D03*
X003743Y028340D03*
X003743Y028350D03*
D83*
X006123Y027680D03*
D84*
X006138Y027690D03*
X004898Y028350D03*
X004888Y028360D03*
X004838Y029350D03*
D85*
X003743Y028330D03*
X003743Y028320D03*
X003743Y027710D03*
X003743Y027700D03*
X006383Y028230D03*
X006383Y029520D03*
D86*
X004868Y028390D03*
X004868Y028380D03*
X006148Y027700D03*
D87*
X006158Y027710D03*
X004838Y029330D03*
X004838Y029340D03*
D88*
X003743Y028310D03*
X003743Y028300D03*
X003743Y028290D03*
X003743Y027740D03*
X003743Y027730D03*
X003743Y027720D03*
D89*
X005048Y027720D03*
X006448Y028260D03*
X006448Y029490D03*
X003248Y029480D03*
D90*
X006168Y027760D03*
X006168Y027750D03*
X006168Y027740D03*
X006168Y027730D03*
X006168Y027720D03*
D91*
X004998Y027740D03*
X003748Y027840D03*
X003748Y028190D03*
D92*
X003743Y028270D03*
X003743Y028280D03*
X003743Y027760D03*
X003743Y027750D03*
D93*
X004943Y027750D03*
D94*
X004883Y027760D03*
X004843Y029300D03*
D95*
X003743Y028260D03*
X003743Y028250D03*
X003743Y028240D03*
X003743Y028230D03*
X003743Y027800D03*
X003743Y027790D03*
X003743Y027780D03*
X003743Y027770D03*
D96*
X005533Y027770D03*
X005533Y027780D03*
X005533Y027790D03*
D97*
X005538Y027800D03*
X005538Y027810D03*
X005538Y027820D03*
X005538Y027830D03*
X005538Y028200D03*
X005538Y028210D03*
X005538Y028220D03*
D98*
X003743Y028220D03*
X003743Y028210D03*
X003743Y028200D03*
X003743Y027830D03*
X003743Y027820D03*
X003743Y027810D03*
D99*
X005543Y027840D03*
X005543Y027850D03*
X005543Y027860D03*
X005543Y027870D03*
X005543Y027880D03*
X005543Y028150D03*
X005543Y028160D03*
X005543Y028170D03*
X005543Y028180D03*
X005543Y028190D03*
D100*
X003743Y028180D03*
X003743Y028170D03*
X003743Y028160D03*
X003743Y028150D03*
X003743Y027880D03*
X003743Y027870D03*
X003743Y027860D03*
X003743Y027850D03*
D101*
X003748Y027890D03*
X003748Y028140D03*
X004838Y028770D03*
X004838Y028780D03*
X004838Y028790D03*
X004838Y028800D03*
X004838Y028810D03*
X004838Y028820D03*
X004838Y028830D03*
X004838Y028840D03*
X004838Y028850D03*
X004838Y028860D03*
X004838Y028870D03*
X004838Y028880D03*
X004838Y028890D03*
X004838Y028900D03*
X004838Y028910D03*
X004838Y028920D03*
X004838Y028930D03*
X004838Y028940D03*
X004838Y028950D03*
X004838Y028960D03*
X004838Y028970D03*
X004838Y028980D03*
D102*
X005548Y028140D03*
X005548Y028130D03*
X005548Y028120D03*
X005548Y028110D03*
X005548Y028100D03*
X005548Y028090D03*
X005548Y028080D03*
X005548Y028070D03*
X005548Y028060D03*
X005548Y028050D03*
X005548Y028040D03*
X005548Y028030D03*
X005548Y028020D03*
X005548Y028010D03*
X005548Y028000D03*
X005548Y027990D03*
X005548Y027980D03*
X005548Y027970D03*
X005548Y027960D03*
X005548Y027950D03*
X005548Y027940D03*
X005548Y027930D03*
X005548Y027920D03*
X005548Y027910D03*
X005548Y027900D03*
X005548Y027890D03*
D103*
X004843Y028760D03*
X003743Y028130D03*
X003743Y028120D03*
X003743Y028110D03*
X003743Y028100D03*
X003743Y028090D03*
X003743Y028080D03*
X003743Y028070D03*
X003743Y028060D03*
X003743Y028050D03*
X003743Y028040D03*
X003743Y028030D03*
X003743Y028020D03*
X003743Y028010D03*
X003743Y028000D03*
X003743Y027990D03*
X003743Y027980D03*
X003743Y027970D03*
X003743Y027960D03*
X003743Y027950D03*
X003743Y027940D03*
X003743Y027930D03*
X003743Y027920D03*
X003743Y027910D03*
X003743Y027900D03*
D104*
X005063Y028230D03*
D105*
X006408Y028240D03*
D106*
X005018Y028250D03*
D107*
X004988Y028270D03*
X004838Y029400D03*
X004838Y029410D03*
D108*
X004883Y030180D03*
X004883Y030190D03*
X004883Y030200D03*
X004883Y030210D03*
X004883Y030220D03*
X004883Y030230D03*
X004883Y030240D03*
X004883Y030250D03*
X004883Y030260D03*
X004883Y030270D03*
X004883Y030280D03*
X004883Y030290D03*
X004883Y030300D03*
X004883Y030310D03*
X004883Y030320D03*
X004883Y030330D03*
X004883Y030340D03*
X004883Y030350D03*
X004883Y030360D03*
X004883Y030370D03*
X004883Y030380D03*
X004883Y030390D03*
X004883Y030400D03*
X004883Y030410D03*
X004883Y030420D03*
X004883Y030430D03*
X004883Y030440D03*
X004883Y030450D03*
X004883Y030460D03*
X004883Y030470D03*
X004883Y030480D03*
X004883Y030490D03*
X004883Y030500D03*
X004883Y030510D03*
X004883Y030520D03*
X004883Y030530D03*
X004883Y030540D03*
X004883Y030550D03*
X004883Y030560D03*
X004883Y030570D03*
X004883Y030580D03*
X004883Y030590D03*
X004883Y030600D03*
X004883Y030610D03*
X004883Y030620D03*
X004883Y030630D03*
X004883Y030640D03*
X004883Y030650D03*
X004883Y030660D03*
X004883Y030670D03*
X004883Y030680D03*
X004883Y030690D03*
X004883Y030700D03*
X004883Y030710D03*
X004883Y030720D03*
X004883Y030730D03*
X004883Y030740D03*
X004883Y030750D03*
X004883Y030760D03*
X004883Y030770D03*
X004883Y030780D03*
X004883Y030790D03*
X004883Y030800D03*
X004883Y030810D03*
X004883Y030820D03*
X004883Y030830D03*
X004883Y030840D03*
X004883Y030850D03*
X004883Y030860D03*
X004883Y030870D03*
X004883Y030880D03*
X004883Y030890D03*
X004883Y030900D03*
X004883Y030910D03*
X004883Y030920D03*
X004883Y030930D03*
X004883Y030940D03*
X004883Y030950D03*
X004963Y028280D03*
D109*
X004953Y028290D03*
D110*
X006488Y028300D03*
X006488Y029460D03*
D111*
X004838Y029370D03*
X004928Y028320D03*
D112*
X004908Y028330D03*
X004908Y028340D03*
D113*
X004883Y028370D03*
D114*
X006568Y028420D03*
X006568Y029330D03*
D115*
X006598Y028500D03*
X003768Y028710D03*
X003768Y028720D03*
X003768Y028730D03*
X003768Y028740D03*
X003098Y028540D03*
X003098Y028440D03*
X003098Y028430D03*
X003098Y029210D03*
D116*
X003768Y028860D03*
X003748Y028610D03*
X004458Y028640D03*
X004458Y028650D03*
X004458Y028660D03*
X004458Y028670D03*
X005238Y028620D03*
X005238Y028610D03*
X005238Y028600D03*
X005238Y028590D03*
D117*
X004028Y028850D03*
X003948Y028670D03*
X003588Y028690D03*
X003988Y029080D03*
D118*
X004023Y028830D03*
X003573Y028680D03*
D119*
X003568Y028930D03*
X003568Y028940D03*
X003938Y028680D03*
X004088Y030120D03*
X004088Y030130D03*
X004088Y030130D03*
X004088Y030140D03*
X004088Y030140D03*
X004088Y030150D03*
X004088Y030160D03*
X004088Y030170D03*
X004088Y030180D03*
X004088Y030190D03*
X004088Y030200D03*
X004088Y030210D03*
X004088Y030220D03*
X004088Y030230D03*
X004088Y030240D03*
X004088Y030250D03*
X004088Y030260D03*
X004088Y030270D03*
X004088Y030280D03*
X004088Y030290D03*
X004088Y030300D03*
X004088Y030310D03*
X004088Y030320D03*
X004088Y030330D03*
X004088Y030340D03*
X004088Y030350D03*
X004088Y030360D03*
X004088Y030370D03*
X004088Y030380D03*
X004088Y030390D03*
X004088Y030400D03*
X004088Y030410D03*
X004088Y030420D03*
X004088Y030430D03*
X004088Y030440D03*
X004088Y030450D03*
X004088Y030460D03*
X004088Y030470D03*
X004088Y030480D03*
X004088Y030490D03*
X004088Y030500D03*
X004088Y030510D03*
X004088Y030520D03*
X004088Y030530D03*
X004088Y030540D03*
X004088Y030550D03*
X004088Y030560D03*
X004088Y030570D03*
X004088Y030580D03*
X004088Y030590D03*
X004088Y030600D03*
X004088Y030610D03*
X004088Y030620D03*
X004088Y030630D03*
X004088Y030640D03*
X004088Y030650D03*
X004088Y030660D03*
X004088Y030670D03*
X004088Y030680D03*
X004088Y030690D03*
X004088Y030700D03*
X004088Y030710D03*
X004088Y030720D03*
X004088Y030730D03*
X004088Y030740D03*
X004088Y030750D03*
X004088Y030760D03*
X004088Y030770D03*
X004088Y030780D03*
X004088Y030790D03*
X004088Y030800D03*
X004088Y030810D03*
X004088Y030820D03*
X004088Y030830D03*
X004088Y030840D03*
X004088Y030850D03*
X004088Y030860D03*
X004088Y030870D03*
X004088Y030880D03*
X004088Y030890D03*
X004088Y030900D03*
X004088Y030910D03*
X004088Y030920D03*
X004088Y030930D03*
X004088Y030940D03*
X004088Y030950D03*
X004088Y030960D03*
X004088Y030970D03*
X004088Y030980D03*
X004088Y030990D03*
X004088Y031000D03*
X004088Y031010D03*
X005668Y031010D03*
X005668Y031000D03*
X005668Y030990D03*
X005668Y030980D03*
X005668Y030970D03*
X005668Y030960D03*
X005668Y030950D03*
X005668Y030940D03*
X005668Y030930D03*
X005668Y030920D03*
X005668Y030910D03*
X005668Y030900D03*
X005668Y030890D03*
X005668Y030880D03*
X005668Y030870D03*
X005668Y030860D03*
X005668Y030850D03*
X005668Y030840D03*
X005668Y030830D03*
X005668Y030820D03*
X005668Y030810D03*
X005668Y030800D03*
X005668Y030790D03*
X005668Y030780D03*
X005668Y030770D03*
X005668Y030760D03*
X005668Y030750D03*
X005668Y030740D03*
X005668Y030730D03*
X005668Y030720D03*
X005668Y030710D03*
X005668Y030700D03*
X005668Y030690D03*
X005668Y030680D03*
X005668Y030670D03*
X005668Y030660D03*
X005668Y030650D03*
X005668Y030640D03*
X005668Y030630D03*
X005668Y030620D03*
X005668Y030610D03*
X005668Y030600D03*
X005668Y030590D03*
X005668Y030580D03*
X005668Y030570D03*
X005668Y030560D03*
X005668Y030550D03*
X005668Y030540D03*
X005668Y030530D03*
X005668Y030520D03*
X005668Y030510D03*
X005668Y030500D03*
X005668Y030490D03*
X005668Y030480D03*
X005668Y030470D03*
X005668Y030460D03*
X005668Y030450D03*
X005668Y030440D03*
X005668Y030430D03*
X005668Y030420D03*
X005668Y030410D03*
X005668Y030400D03*
X005668Y030390D03*
X005668Y030380D03*
X005668Y030370D03*
X005668Y030360D03*
X005668Y030350D03*
X005668Y030340D03*
X005668Y030330D03*
X005668Y030320D03*
X005668Y030310D03*
X005668Y030300D03*
X005668Y030290D03*
X005668Y030280D03*
X005668Y030270D03*
X005668Y030260D03*
X005668Y030250D03*
X005668Y030240D03*
X005668Y030230D03*
X005668Y030220D03*
X005668Y030210D03*
X005668Y030200D03*
X005668Y030190D03*
X005668Y030180D03*
X005668Y030170D03*
X005668Y030160D03*
X005668Y030150D03*
X005668Y030140D03*
X005668Y030140D03*
X005668Y030130D03*
X005668Y030130D03*
X005668Y030120D03*
D120*
X003923Y028690D03*
X003613Y028700D03*
X003573Y028960D03*
X003613Y029110D03*
D121*
X004838Y029050D03*
X004838Y029040D03*
X004838Y029030D03*
X004838Y029020D03*
X004838Y029010D03*
X004838Y029000D03*
X004838Y028990D03*
X004838Y028750D03*
X004838Y028740D03*
X004838Y028730D03*
X004838Y028720D03*
X004838Y028710D03*
D122*
X004023Y028840D03*
X003563Y028910D03*
D123*
X003563Y028920D03*
X004023Y028860D03*
D124*
X004023Y028870D03*
X004023Y028880D03*
X003983Y029070D03*
X003613Y029130D03*
D125*
X003618Y029120D03*
X003578Y028950D03*
X004018Y028890D03*
D126*
X004018Y028900D03*
X003768Y028900D03*
D127*
X003593Y028980D03*
X003983Y029050D03*
X004013Y028920D03*
D128*
X004838Y029060D03*
X004838Y029070D03*
D129*
X004838Y029080D03*
X004838Y029090D03*
X004838Y029100D03*
X004838Y029110D03*
D130*
X003618Y029100D03*
X003618Y029090D03*
D131*
X004838Y029120D03*
X004838Y029130D03*
D132*
X004838Y029140D03*
X004838Y029150D03*
X004838Y029160D03*
D133*
X004838Y029170D03*
D134*
X004838Y029180D03*
X004838Y029190D03*
X004838Y029200D03*
D135*
X004838Y029210D03*
D136*
X004838Y029220D03*
X004838Y029230D03*
D137*
X004838Y029240D03*
X004838Y029250D03*
D138*
X004838Y029260D03*
X006218Y030110D03*
D139*
X004843Y029270D03*
D140*
X004838Y029280D03*
X004838Y029290D03*
D141*
X004838Y029310D03*
D142*
X004843Y029320D03*
D143*
X004843Y029360D03*
D144*
X004838Y029390D03*
D145*
X004838Y029420D03*
D146*
X004838Y029430D03*
D147*
X004838Y029450D03*
D148*
X004838Y029460D03*
D149*
X004838Y029470D03*
D150*
X004838Y029480D03*
D151*
X004833Y029490D03*
D152*
X004838Y029500D03*
D153*
X003298Y029510D03*
D154*
X004828Y029510D03*
D155*
X004373Y029520D03*
D156*
X004848Y029530D03*
X004848Y029540D03*
X004848Y029550D03*
X004848Y029560D03*
X004848Y029570D03*
X004848Y029580D03*
X004848Y029590D03*
X004848Y029600D03*
X004848Y029610D03*
X004848Y029620D03*
X004848Y029630D03*
X004848Y029640D03*
X004848Y029650D03*
X004848Y029660D03*
X004848Y029670D03*
X004848Y029680D03*
X004848Y029690D03*
X004848Y029700D03*
X004848Y029710D03*
X004848Y029720D03*
X004848Y029730D03*
X004848Y029740D03*
X004848Y029750D03*
X004848Y029760D03*
X004848Y029770D03*
X004848Y029780D03*
X004848Y029790D03*
X004848Y029800D03*
X004848Y029810D03*
X004848Y029820D03*
X004848Y029830D03*
X004848Y029840D03*
X004848Y029850D03*
X004848Y029860D03*
X004848Y029870D03*
X004848Y029880D03*
X004848Y029890D03*
X004848Y029900D03*
X004848Y029910D03*
X004848Y029920D03*
X004848Y029930D03*
X004848Y029940D03*
X004848Y029950D03*
X004848Y029960D03*
X004848Y029970D03*
X004848Y029980D03*
X004848Y029990D03*
X004848Y030000D03*
X004848Y030010D03*
X004848Y030020D03*
X004848Y030030D03*
X004848Y030040D03*
X004848Y030050D03*
X004848Y030060D03*
X004848Y030070D03*
X004848Y030080D03*
X004848Y030090D03*
X004848Y030100D03*
D157*
X003508Y030110D03*
D158*
X004878Y031020D03*
X004878Y031030D03*
X004878Y031040D03*
X004878Y031050D03*
X004878Y031060D03*
X004878Y031070D03*
X004878Y031080D03*
D159*
X015588Y020510D02*
X015982Y020510D01*
X015785Y020707D02*
X015785Y020313D01*
D160*
X039333Y017560D02*
X039333Y016060D01*
X039133Y016060D01*
X039333Y015460D01*
X039533Y016060D01*
X039433Y016060D01*
X039333Y015860D01*
X039433Y015860D01*
X039333Y015660D01*
X039333Y015460D01*
X039333Y015660D02*
X039333Y015860D01*
X039333Y016060D01*
X039433Y016060D01*
X039233Y015960D02*
X039133Y016060D01*
D161*
X038877Y016404D02*
X038958Y016485D01*
X038958Y016649D01*
X038877Y016731D01*
X038550Y016731D01*
X038468Y016649D01*
X038468Y016485D01*
X038550Y016404D01*
X038877Y016404D01*
X038958Y016919D02*
X038468Y016919D01*
X038958Y017246D01*
X038468Y017246D01*
D162*
X038367Y014144D02*
X037867Y014144D01*
X037617Y013894D01*
X037617Y013394D01*
X037867Y013144D01*
X038367Y013144D01*
X038617Y013394D01*
X038617Y013894D01*
X038367Y014144D01*
X038617Y013894D02*
X038867Y014144D01*
X039367Y014144D01*
X039617Y013894D01*
X039867Y014144D01*
X040367Y014144D01*
X040617Y013894D01*
X040617Y013394D01*
X040367Y013144D01*
X039867Y013144D01*
X039617Y013394D01*
X039367Y013144D01*
X038867Y013144D01*
X038617Y013394D01*
X039617Y013394D02*
X039617Y013894D01*
X037617Y013894D02*
X037367Y014144D01*
X036867Y014144D01*
X036617Y013894D01*
X036617Y013394D01*
X036867Y013144D01*
X037367Y013144D01*
X037617Y013394D01*
X036617Y013394D02*
X036367Y013144D01*
X035867Y013144D01*
X035617Y013394D01*
X035367Y013144D01*
X034867Y013144D01*
X034617Y013394D01*
X034367Y013144D01*
X033867Y013144D01*
X033617Y013394D01*
X033367Y013144D01*
X032867Y013144D01*
X032617Y013394D01*
X032367Y013144D01*
X031867Y013144D01*
X031617Y013394D01*
X031367Y013144D01*
X030867Y013144D01*
X030617Y013394D01*
X030367Y013144D01*
X029867Y013144D01*
X029617Y013394D01*
X029367Y013144D01*
X028867Y013144D01*
X028617Y013394D01*
X028367Y013144D01*
X027867Y013144D01*
X027617Y013394D01*
X027367Y013144D01*
X026867Y013144D01*
X026617Y013394D01*
X026367Y013144D01*
X025867Y013144D01*
X025617Y013394D01*
X025367Y013144D01*
X024867Y013144D01*
X024617Y013394D01*
X024617Y013894D01*
X024867Y014144D01*
X025367Y014144D01*
X025617Y013894D01*
X025867Y014144D01*
X026367Y014144D01*
X026617Y013894D01*
X026617Y013394D01*
X026617Y013894D02*
X026867Y014144D01*
X027367Y014144D01*
X027617Y013894D01*
X027867Y014144D01*
X028367Y014144D01*
X028617Y013894D01*
X028867Y014144D01*
X029367Y014144D01*
X029617Y013894D01*
X029617Y013394D01*
X029617Y013894D02*
X029867Y014144D01*
X030367Y014144D01*
X030617Y013894D01*
X030867Y014144D01*
X031367Y014144D01*
X031617Y013894D01*
X031867Y014144D01*
X032367Y014144D01*
X032617Y013894D01*
X032617Y013394D01*
X032617Y013894D02*
X032867Y014144D01*
X033367Y014144D01*
X033617Y013894D01*
X033867Y014144D01*
X034367Y014144D01*
X034617Y013894D01*
X034867Y014144D01*
X035367Y014144D01*
X035617Y013894D01*
X035617Y013394D01*
X035617Y013894D02*
X035867Y014144D01*
X036367Y014144D01*
X036617Y013894D01*
X034617Y013894D02*
X034617Y013394D01*
X033617Y013394D02*
X033617Y013894D01*
X031617Y013894D02*
X031617Y013394D01*
X030617Y013394D02*
X030617Y013894D01*
X028617Y013894D02*
X028617Y013394D01*
X027617Y013394D02*
X027617Y013894D01*
X025617Y013894D02*
X025617Y013394D01*
X017321Y014158D02*
X017208Y014272D01*
X017265Y014272D02*
X017094Y014272D01*
X017094Y014158D02*
X017094Y014498D01*
X017265Y014498D01*
X017321Y014442D01*
X017321Y014328D01*
X017265Y014272D01*
X016953Y014328D02*
X016896Y014272D01*
X016726Y014272D01*
X016726Y014158D02*
X016726Y014498D01*
X016896Y014498D01*
X016953Y014442D01*
X016953Y014328D01*
X016585Y014328D02*
X016358Y014328D01*
X016358Y014385D02*
X016471Y014498D01*
X016585Y014385D01*
X016585Y014158D01*
X016358Y014158D02*
X016358Y014385D01*
X016216Y014498D02*
X015989Y014498D01*
X016103Y014498D02*
X016103Y014158D01*
X016108Y013785D02*
X016278Y013785D01*
X016221Y013672D02*
X016108Y013672D01*
X016051Y013728D01*
X016108Y013785D01*
X016221Y013672D02*
X016278Y013615D01*
X016221Y013558D01*
X016051Y013558D01*
X015909Y013558D02*
X015909Y013728D01*
X015853Y013785D01*
X015683Y013785D01*
X015683Y013558D01*
X015541Y013672D02*
X015314Y013672D01*
X015314Y013728D02*
X015371Y013785D01*
X015484Y013785D01*
X015541Y013728D01*
X015541Y013672D01*
X015484Y013558D02*
X015371Y013558D01*
X015314Y013615D01*
X015314Y013728D01*
X015173Y013785D02*
X015003Y013785D01*
X014946Y013728D01*
X014946Y013615D01*
X015003Y013558D01*
X015173Y013558D01*
X014814Y013558D02*
X014700Y013558D01*
X014757Y013558D02*
X014757Y013785D01*
X014700Y013785D01*
X014757Y013898D02*
X014757Y013955D01*
X014752Y014158D02*
X014696Y014215D01*
X014696Y014442D01*
X014752Y014385D02*
X014639Y014385D01*
X014885Y014328D02*
X014941Y014385D01*
X015055Y014385D01*
X015111Y014328D01*
X015111Y014158D01*
X015253Y014215D02*
X015253Y014328D01*
X015310Y014385D01*
X015423Y014385D01*
X015480Y014328D01*
X015480Y014272D01*
X015253Y014272D01*
X015253Y014215D02*
X015310Y014158D01*
X015423Y014158D01*
X014885Y014158D02*
X014885Y014498D01*
X014134Y014385D02*
X014077Y014385D01*
X013964Y014272D01*
X013964Y014385D02*
X013964Y014158D01*
X013822Y014272D02*
X013822Y014328D01*
X013766Y014385D01*
X013652Y014385D01*
X013595Y014328D01*
X013595Y014215D01*
X013652Y014158D01*
X013766Y014158D01*
X013822Y014272D02*
X013595Y014272D01*
X013454Y014385D02*
X013284Y014385D01*
X013227Y014328D01*
X013227Y014215D01*
X013284Y014158D01*
X013454Y014158D01*
X013454Y014498D01*
X013086Y014328D02*
X013086Y014158D01*
X013086Y014328D02*
X013029Y014385D01*
X012859Y014385D01*
X012859Y014158D01*
X012717Y014158D02*
X012717Y014385D01*
X012490Y014385D02*
X012490Y014215D01*
X012547Y014158D01*
X012717Y014158D01*
X012779Y013785D02*
X012779Y013615D01*
X012722Y013558D01*
X012665Y013615D01*
X012609Y013558D01*
X012552Y013615D01*
X012552Y013785D01*
X012410Y013785D02*
X012240Y013785D01*
X012184Y013728D01*
X012184Y013615D01*
X012240Y013558D01*
X012410Y013558D01*
X012410Y013898D01*
X012047Y013785D02*
X011990Y013785D01*
X011877Y013672D01*
X011877Y013785D02*
X011877Y013558D01*
X011735Y013558D02*
X011735Y013728D01*
X011678Y013785D01*
X011565Y013785D01*
X011565Y013672D02*
X011735Y013672D01*
X011735Y013558D02*
X011565Y013558D01*
X011508Y013615D01*
X011565Y013672D01*
X011367Y013728D02*
X011140Y013728D01*
X011140Y013558D02*
X011140Y013898D01*
X011367Y013898D02*
X011367Y013558D01*
X011447Y013185D02*
X011617Y013185D01*
X011674Y013128D01*
X011674Y013015D01*
X011617Y012958D01*
X011447Y012958D01*
X011447Y012845D02*
X011447Y013185D01*
X011305Y013128D02*
X011305Y012958D01*
X011135Y012958D01*
X011079Y013015D01*
X011135Y013072D01*
X011305Y013072D01*
X011305Y013128D02*
X011249Y013185D01*
X011135Y013185D01*
X010946Y013185D02*
X010833Y013185D01*
X010890Y013242D02*
X010890Y013015D01*
X010946Y012958D01*
X010706Y012958D02*
X010706Y013015D01*
X010649Y013015D01*
X010649Y012958D01*
X010706Y012958D01*
X010507Y013015D02*
X010451Y012958D01*
X010394Y013015D01*
X010337Y012958D01*
X010281Y013015D01*
X010281Y013185D01*
X010139Y013185D02*
X010139Y013015D01*
X010082Y012958D01*
X010026Y013015D01*
X009969Y012958D01*
X009912Y013015D01*
X009912Y013185D01*
X009771Y013185D02*
X009771Y013015D01*
X009714Y012958D01*
X009657Y013015D01*
X009601Y012958D01*
X009544Y013015D01*
X009544Y013185D01*
X009412Y013298D02*
X009298Y013185D01*
X009298Y013072D01*
X009412Y012958D01*
X009667Y013445D02*
X009667Y013785D01*
X009837Y013785D01*
X009894Y013728D01*
X009894Y013615D01*
X009837Y013558D01*
X009667Y013558D01*
X009525Y013615D02*
X009525Y013842D01*
X009469Y013898D01*
X009355Y013898D01*
X009298Y013842D01*
X009298Y013615D01*
X009355Y013558D01*
X009469Y013558D01*
X009525Y013615D01*
X010035Y013615D02*
X010035Y013728D01*
X010092Y013785D01*
X010205Y013785D01*
X010262Y013728D01*
X010262Y013672D01*
X010035Y013672D01*
X010035Y013615D02*
X010092Y013558D01*
X010205Y013558D01*
X010403Y013558D02*
X010403Y013785D01*
X010574Y013785D01*
X010630Y013728D01*
X010630Y013558D01*
X010507Y013185D02*
X010507Y013015D01*
X010451Y014158D02*
X010337Y014158D01*
X010281Y014215D01*
X010281Y014328D01*
X010337Y014385D01*
X010451Y014385D01*
X010507Y014328D01*
X010507Y014272D01*
X010281Y014272D01*
X010139Y014385D02*
X009969Y014385D01*
X009912Y014328D01*
X009912Y014215D01*
X009969Y014158D01*
X010139Y014158D01*
X009780Y014158D02*
X009667Y014158D01*
X009723Y014158D02*
X009723Y014385D01*
X009667Y014385D01*
X009723Y014498D02*
X009723Y014555D01*
X009298Y014498D02*
X009298Y014158D01*
X009525Y014158D01*
X010649Y014158D02*
X010649Y014385D01*
X010819Y014385D01*
X010876Y014328D01*
X010876Y014158D01*
X011017Y014158D02*
X011187Y014158D01*
X011244Y014215D01*
X011187Y014272D01*
X011074Y014272D01*
X011017Y014328D01*
X011074Y014385D01*
X011244Y014385D01*
X011386Y014328D02*
X011386Y014215D01*
X011442Y014158D01*
X011556Y014158D01*
X011612Y014272D02*
X011386Y014272D01*
X011386Y014328D02*
X011442Y014385D01*
X011556Y014385D01*
X011612Y014328D01*
X011612Y014272D01*
X011754Y014328D02*
X011754Y014215D01*
X011811Y014158D01*
X011981Y014158D01*
X011981Y014498D01*
X011981Y014385D02*
X011811Y014385D01*
X011754Y014328D01*
X012977Y013785D02*
X013090Y013785D01*
X013147Y013728D01*
X013147Y013558D01*
X012977Y013558D01*
X012920Y013615D01*
X012977Y013672D01*
X013147Y013672D01*
X013288Y013672D02*
X013402Y013785D01*
X013459Y013785D01*
X013595Y013728D02*
X013652Y013785D01*
X013766Y013785D01*
X013822Y013728D01*
X013822Y013672D01*
X013595Y013672D01*
X013595Y013728D02*
X013595Y013615D01*
X013652Y013558D01*
X013766Y013558D01*
X013775Y013298D02*
X013718Y013242D01*
X013718Y013015D01*
X013775Y012958D01*
X013888Y012958D01*
X013945Y013015D01*
X013945Y013242D01*
X013888Y013298D01*
X013775Y013298D01*
X013577Y013298D02*
X013350Y012958D01*
X013208Y012958D02*
X013038Y012958D01*
X012982Y013015D01*
X012982Y013128D01*
X013038Y013185D01*
X013208Y013185D01*
X013208Y012901D01*
X013152Y012845D01*
X013095Y012845D01*
X012845Y013185D02*
X012788Y013185D01*
X012675Y013072D01*
X012675Y013185D02*
X012675Y012958D01*
X012533Y013015D02*
X012476Y012958D01*
X012363Y012958D01*
X012306Y013015D01*
X012306Y013128D01*
X012363Y013185D01*
X012476Y013185D01*
X012533Y013128D01*
X012533Y013015D01*
X012179Y013015D02*
X012179Y012958D01*
X012122Y012958D01*
X012122Y013015D01*
X012179Y013015D01*
X011985Y013185D02*
X011929Y013185D01*
X011815Y013072D01*
X011815Y013185D02*
X011815Y012958D01*
X013288Y013558D02*
X013288Y013785D01*
X014087Y013298D02*
X014087Y012958D01*
X014087Y013128D02*
X014313Y013128D01*
X014313Y013298D02*
X014313Y012958D01*
X014455Y012958D02*
X014455Y013298D01*
X014559Y013558D02*
X014332Y013558D01*
X014332Y013898D01*
X014823Y013298D02*
X014937Y013185D01*
X014937Y013072D01*
X014823Y012958D01*
X014682Y012958D02*
X014455Y012958D01*
X016419Y013615D02*
X016419Y013728D01*
X016476Y013785D01*
X016589Y013785D01*
X016646Y013728D01*
X016646Y013672D01*
X016419Y013672D01*
X016419Y013615D02*
X016476Y013558D01*
X016589Y013558D01*
X015130Y019987D02*
X014630Y019987D01*
X014380Y020237D01*
X014380Y020737D01*
X014630Y020987D01*
X015130Y020987D01*
X015380Y020737D01*
X015380Y020237D01*
X015130Y019987D01*
X013432Y020237D02*
X013182Y019987D01*
X012682Y019987D01*
X012432Y020237D01*
X012432Y020737D01*
X012682Y020987D01*
X013182Y020987D01*
X013432Y020737D01*
X013432Y020237D01*
X001916Y020154D02*
X001916Y019654D01*
X001666Y019404D01*
X001166Y019404D01*
X000916Y019654D01*
X000916Y020154D01*
X001166Y020404D01*
X000916Y020654D01*
X000916Y021154D01*
X001166Y021404D01*
X000916Y021654D01*
X000916Y022154D01*
X001166Y022404D01*
X000916Y022654D01*
X000916Y023154D01*
X001166Y023404D01*
X000916Y023654D01*
X000916Y024154D01*
X001166Y024404D01*
X000916Y024654D01*
X000916Y025154D01*
X001166Y025404D01*
X001666Y025404D01*
X001916Y025154D01*
X001916Y024654D01*
X001666Y024404D01*
X001916Y024154D01*
X001916Y023654D01*
X001666Y023404D01*
X001166Y023404D01*
X001666Y023404D02*
X001916Y023154D01*
X001916Y022654D01*
X001666Y022404D01*
X001916Y022154D01*
X001916Y021654D01*
X001666Y021404D01*
X001916Y021154D01*
X001916Y020654D01*
X001666Y020404D01*
X001916Y020154D01*
X001666Y020404D02*
X001166Y020404D01*
X001166Y021404D02*
X001666Y021404D01*
X001666Y022404D02*
X001166Y022404D01*
X001166Y024404D02*
X001666Y024404D01*
X007335Y030270D02*
X007085Y030520D01*
X007085Y031020D01*
X007335Y031270D01*
X007835Y031270D01*
X008085Y031020D01*
X008335Y031270D01*
X008835Y031270D01*
X009085Y031020D01*
X009085Y030520D01*
X008835Y030270D01*
X008335Y030270D01*
X008085Y030520D01*
X007835Y030270D01*
X007335Y030270D01*
X008085Y030520D02*
X008085Y031020D01*
X009085Y031020D02*
X009335Y031270D01*
X009835Y031270D01*
X010085Y031020D01*
X010335Y031270D01*
X010835Y031270D01*
X011085Y031020D01*
X011335Y031270D01*
X011835Y031270D01*
X012085Y031020D01*
X012085Y030520D01*
X011835Y030270D01*
X011335Y030270D01*
X011085Y030520D01*
X010835Y030270D01*
X010335Y030270D01*
X010085Y030520D01*
X009835Y030270D01*
X009335Y030270D01*
X009085Y030520D01*
X010085Y030520D02*
X010085Y031020D01*
X011085Y031020D02*
X011085Y030520D01*
X028585Y021894D02*
X028585Y021394D01*
X028835Y021144D01*
X029335Y021144D01*
X029585Y021394D01*
X029835Y021144D01*
X030335Y021144D01*
X030585Y021394D01*
X030585Y021894D01*
X030335Y022144D01*
X029835Y022144D01*
X029585Y021894D01*
X029585Y021394D01*
X029585Y021894D02*
X029335Y022144D01*
X028835Y022144D01*
X028585Y021894D01*
X030585Y021894D02*
X030835Y022144D01*
X031335Y022144D01*
X031585Y021894D01*
X031835Y022144D01*
X032335Y022144D01*
X032585Y021894D01*
X032835Y022144D01*
X033335Y022144D01*
X033585Y021894D01*
X033585Y021394D01*
X033335Y021144D01*
X032835Y021144D01*
X032585Y021394D01*
X032335Y021144D01*
X031835Y021144D01*
X031585Y021394D01*
X031335Y021144D01*
X030835Y021144D01*
X030585Y021394D01*
X031585Y021394D02*
X031585Y021894D01*
X032585Y021894D02*
X032585Y021394D01*
X033585Y021394D02*
X033835Y021144D01*
X034335Y021144D01*
X034585Y021394D01*
X034835Y021144D01*
X035335Y021144D01*
X035585Y021394D01*
X035835Y021144D01*
X036335Y021144D01*
X036585Y021394D01*
X036585Y021894D01*
X036335Y022144D01*
X035835Y022144D01*
X035585Y021894D01*
X035585Y021394D01*
X035585Y021894D02*
X035335Y022144D01*
X034835Y022144D01*
X034585Y021894D01*
X034585Y021394D01*
X034585Y021894D02*
X034335Y022144D01*
X033835Y022144D01*
X033585Y021894D01*
X036585Y021894D02*
X036835Y022144D01*
X037335Y022144D01*
X037585Y021894D01*
X037835Y022144D01*
X038335Y022144D01*
X038585Y021894D01*
X038835Y022144D01*
X039335Y022144D01*
X039585Y021894D01*
X039835Y022144D01*
X040335Y022144D01*
X040585Y021894D01*
X040585Y021394D01*
X040335Y021144D01*
X039835Y021144D01*
X039585Y021394D01*
X039335Y021144D01*
X038835Y021144D01*
X038585Y021394D01*
X038335Y021144D01*
X037835Y021144D01*
X037585Y021394D01*
X037335Y021144D01*
X036835Y021144D01*
X036585Y021394D01*
X037585Y021394D02*
X037585Y021894D01*
X038585Y021894D02*
X038585Y021394D01*
X039585Y021394D02*
X039585Y021894D01*
X041997Y023542D02*
X041997Y023778D01*
X042470Y023778D02*
X042470Y023542D01*
X035548Y030970D02*
X035048Y030970D01*
X034798Y031220D01*
X034548Y030970D01*
X034048Y030970D01*
X033798Y031220D01*
X033548Y030970D01*
X033048Y030970D01*
X032798Y031220D01*
X032548Y030970D01*
X032048Y030970D01*
X031798Y031220D01*
X031798Y031720D01*
X032048Y031970D01*
X032548Y031970D01*
X032798Y031720D01*
X033048Y031970D01*
X033548Y031970D01*
X033798Y031720D01*
X033798Y031220D01*
X033798Y031720D02*
X034048Y031970D01*
X034548Y031970D01*
X034798Y031720D01*
X035048Y031970D01*
X035548Y031970D01*
X035798Y031720D01*
X035798Y031220D01*
X035548Y030970D01*
X034798Y031220D02*
X034798Y031720D01*
X032798Y031720D02*
X032798Y031220D01*
D163*
X049325Y027325D03*
D164*
X038833Y030660D02*
X038833Y031060D01*
X038833Y031560D02*
X038833Y031960D01*
X033133Y030260D02*
X033133Y029860D01*
X033133Y028860D02*
X033133Y028460D01*
X033133Y027560D02*
X033133Y027160D01*
X034916Y024130D02*
X034918Y024152D01*
X034924Y024173D01*
X034933Y024193D01*
X034946Y024212D01*
X034961Y024227D01*
X034979Y024240D01*
X035000Y024249D01*
X035021Y024255D01*
X035043Y024257D01*
X035065Y024255D01*
X035086Y024249D01*
X035106Y024240D01*
X035125Y024227D01*
X035140Y024212D01*
X035153Y024193D01*
X035162Y024173D01*
X035168Y024152D01*
X035170Y024130D01*
X035168Y024108D01*
X035162Y024087D01*
X035153Y024067D01*
X035140Y024048D01*
X035125Y024033D01*
X035107Y024020D01*
X035086Y024011D01*
X035065Y024005D01*
X035043Y024003D01*
X035021Y024005D01*
X035000Y024011D01*
X034979Y024020D01*
X034961Y024033D01*
X034946Y024048D01*
X034933Y024066D01*
X034924Y024087D01*
X034918Y024108D01*
X034916Y024130D01*
X033293Y016350D02*
X033293Y015950D01*
X030573Y015710D02*
X030173Y015710D01*
X025573Y015470D02*
X025173Y015470D01*
X020573Y015470D02*
X020173Y015470D01*
X016363Y015480D02*
X015963Y015480D01*
X009833Y015260D02*
X009833Y014860D01*
X009833Y016260D02*
X009833Y016660D01*
X004533Y016660D02*
X004533Y016260D01*
X002633Y016260D02*
X002633Y016660D01*
X002633Y015060D02*
X002633Y014660D01*
D165*
X005308Y018060D02*
X008359Y018060D01*
X008359Y019860D01*
X005308Y019860D01*
X005308Y018060D01*
D166*
X037447Y019160D03*
D167*
X041984Y022660D03*
M02*
