G75*
%MOIN*%
%OFA0B0*%
%FSLAX24Y24*%
%IPPOS*%
%LPD*%
%AMOC8*
5,1,8,0,0,1.08239X$1,22.5*
%
%ADD10C,0.0000*%
D10*
X002302Y012660D02*
X040885Y012660D01*
X042302Y014077D01*
X042302Y017699D01*
X042853Y018251D01*
X042853Y019117D01*
X042743Y019227D01*
X042743Y021369D01*
X042853Y021479D01*
X042853Y030377D01*
X040885Y032345D01*
X026711Y032345D01*
X026711Y030082D01*
X027733Y029060D01*
X027733Y026660D01*
X026711Y025660D01*
X026711Y023290D01*
X026416Y023290D02*
X026418Y023324D01*
X026424Y023358D01*
X026434Y023391D01*
X026447Y023422D01*
X026465Y023452D01*
X026485Y023480D01*
X026509Y023505D01*
X026535Y023527D01*
X026563Y023545D01*
X026594Y023561D01*
X026626Y023573D01*
X026660Y023581D01*
X026694Y023585D01*
X026728Y023585D01*
X026762Y023581D01*
X026796Y023573D01*
X026828Y023561D01*
X026858Y023545D01*
X026887Y023527D01*
X026913Y023505D01*
X026937Y023480D01*
X026957Y023452D01*
X026975Y023422D01*
X026988Y023391D01*
X026998Y023358D01*
X027004Y023324D01*
X027006Y023290D01*
X027004Y023256D01*
X026998Y023222D01*
X026988Y023189D01*
X026975Y023158D01*
X026957Y023128D01*
X026937Y023100D01*
X026913Y023075D01*
X026887Y023053D01*
X026859Y023035D01*
X026828Y023019D01*
X026796Y023007D01*
X026762Y022999D01*
X026728Y022995D01*
X026694Y022995D01*
X026660Y022999D01*
X026626Y023007D01*
X026594Y023019D01*
X026563Y023035D01*
X026535Y023053D01*
X026509Y023075D01*
X026485Y023100D01*
X026465Y023128D01*
X026447Y023158D01*
X026434Y023189D01*
X026424Y023222D01*
X026418Y023256D01*
X026416Y023290D01*
X026711Y023290D02*
X016475Y023290D01*
X016180Y023290D02*
X016182Y023324D01*
X016188Y023358D01*
X016198Y023391D01*
X016211Y023422D01*
X016229Y023452D01*
X016249Y023480D01*
X016273Y023505D01*
X016299Y023527D01*
X016327Y023545D01*
X016358Y023561D01*
X016390Y023573D01*
X016424Y023581D01*
X016458Y023585D01*
X016492Y023585D01*
X016526Y023581D01*
X016560Y023573D01*
X016592Y023561D01*
X016622Y023545D01*
X016651Y023527D01*
X016677Y023505D01*
X016701Y023480D01*
X016721Y023452D01*
X016739Y023422D01*
X016752Y023391D01*
X016762Y023358D01*
X016768Y023324D01*
X016770Y023290D01*
X016768Y023256D01*
X016762Y023222D01*
X016752Y023189D01*
X016739Y023158D01*
X016721Y023128D01*
X016701Y023100D01*
X016677Y023075D01*
X016651Y023053D01*
X016623Y023035D01*
X016592Y023019D01*
X016560Y023007D01*
X016526Y022999D01*
X016492Y022995D01*
X016458Y022995D01*
X016424Y022999D01*
X016390Y023007D01*
X016358Y023019D01*
X016327Y023035D01*
X016299Y023053D01*
X016273Y023075D01*
X016249Y023100D01*
X016229Y023128D01*
X016211Y023158D01*
X016198Y023189D01*
X016188Y023222D01*
X016182Y023256D01*
X016180Y023290D01*
X016475Y023290D02*
X016475Y032345D01*
X002302Y032345D01*
X000333Y030377D01*
X000333Y014629D01*
X002302Y012660D01*
X009290Y023684D02*
X009292Y023718D01*
X009298Y023752D01*
X009308Y023785D01*
X009321Y023816D01*
X009339Y023846D01*
X009359Y023874D01*
X009383Y023899D01*
X009409Y023921D01*
X009437Y023939D01*
X009468Y023955D01*
X009500Y023967D01*
X009534Y023975D01*
X009568Y023979D01*
X009602Y023979D01*
X009636Y023975D01*
X009670Y023967D01*
X009702Y023955D01*
X009732Y023939D01*
X009761Y023921D01*
X009787Y023899D01*
X009811Y023874D01*
X009831Y023846D01*
X009849Y023816D01*
X009862Y023785D01*
X009872Y023752D01*
X009878Y023718D01*
X009880Y023684D01*
X009878Y023650D01*
X009872Y023616D01*
X009862Y023583D01*
X009849Y023552D01*
X009831Y023522D01*
X009811Y023494D01*
X009787Y023469D01*
X009761Y023447D01*
X009733Y023429D01*
X009702Y023413D01*
X009670Y023401D01*
X009636Y023393D01*
X009602Y023389D01*
X009568Y023389D01*
X009534Y023393D01*
X009500Y023401D01*
X009468Y023413D01*
X009437Y023429D01*
X009409Y023447D01*
X009383Y023469D01*
X009359Y023494D01*
X009339Y023522D01*
X009321Y023552D01*
X009308Y023583D01*
X009298Y023616D01*
X009292Y023650D01*
X009290Y023684D01*
X012971Y024471D02*
X012973Y024494D01*
X012979Y024517D01*
X012989Y024538D01*
X013002Y024558D01*
X013018Y024575D01*
X013037Y024589D01*
X013058Y024599D01*
X013080Y024606D01*
X013103Y024609D01*
X013127Y024608D01*
X013149Y024603D01*
X013171Y024594D01*
X013191Y024582D01*
X013209Y024566D01*
X013223Y024548D01*
X013235Y024528D01*
X013243Y024506D01*
X013247Y024483D01*
X013247Y024459D01*
X013243Y024436D01*
X013235Y024414D01*
X013223Y024394D01*
X013209Y024376D01*
X013191Y024360D01*
X013171Y024348D01*
X013149Y024339D01*
X013127Y024334D01*
X013103Y024333D01*
X013080Y024336D01*
X013058Y024343D01*
X013037Y024353D01*
X013018Y024367D01*
X013002Y024384D01*
X012989Y024404D01*
X012979Y024425D01*
X012973Y024448D01*
X012971Y024471D01*
X007853Y028408D02*
X007855Y028455D01*
X007861Y028501D01*
X007871Y028547D01*
X007884Y028592D01*
X007902Y028635D01*
X007923Y028677D01*
X007947Y028717D01*
X007975Y028754D01*
X008006Y028789D01*
X008040Y028822D01*
X008076Y028851D01*
X008115Y028877D01*
X008156Y028900D01*
X008199Y028919D01*
X008243Y028935D01*
X008288Y028947D01*
X008334Y028955D01*
X008381Y028959D01*
X008427Y028959D01*
X008474Y028955D01*
X008520Y028947D01*
X008565Y028935D01*
X008609Y028919D01*
X008652Y028900D01*
X008693Y028877D01*
X008732Y028851D01*
X008768Y028822D01*
X008802Y028789D01*
X008833Y028754D01*
X008861Y028717D01*
X008885Y028677D01*
X008906Y028635D01*
X008924Y028592D01*
X008937Y028547D01*
X008947Y028501D01*
X008953Y028455D01*
X008955Y028408D01*
X008953Y028361D01*
X008947Y028315D01*
X008937Y028269D01*
X008924Y028224D01*
X008906Y028181D01*
X008885Y028139D01*
X008861Y028099D01*
X008833Y028062D01*
X008802Y028027D01*
X008768Y027994D01*
X008732Y027965D01*
X008693Y027939D01*
X008652Y027916D01*
X008609Y027897D01*
X008565Y027881D01*
X008520Y027869D01*
X008474Y027861D01*
X008427Y027857D01*
X008381Y027857D01*
X008334Y027861D01*
X008288Y027869D01*
X008243Y027881D01*
X008199Y027897D01*
X008156Y027916D01*
X008115Y027939D01*
X008076Y027965D01*
X008040Y027994D01*
X008006Y028027D01*
X007975Y028062D01*
X007947Y028099D01*
X007923Y028139D01*
X007902Y028181D01*
X007884Y028224D01*
X007871Y028269D01*
X007861Y028315D01*
X007855Y028361D01*
X007853Y028408D01*
X021298Y020928D02*
X021300Y020962D01*
X021306Y020996D01*
X021316Y021029D01*
X021329Y021060D01*
X021347Y021090D01*
X021367Y021118D01*
X021391Y021143D01*
X021417Y021165D01*
X021445Y021183D01*
X021476Y021199D01*
X021508Y021211D01*
X021542Y021219D01*
X021576Y021223D01*
X021610Y021223D01*
X021644Y021219D01*
X021678Y021211D01*
X021710Y021199D01*
X021740Y021183D01*
X021769Y021165D01*
X021795Y021143D01*
X021819Y021118D01*
X021839Y021090D01*
X021857Y021060D01*
X021870Y021029D01*
X021880Y020996D01*
X021886Y020962D01*
X021888Y020928D01*
X021886Y020894D01*
X021880Y020860D01*
X021870Y020827D01*
X021857Y020796D01*
X021839Y020766D01*
X021819Y020738D01*
X021795Y020713D01*
X021769Y020691D01*
X021741Y020673D01*
X021710Y020657D01*
X021678Y020645D01*
X021644Y020637D01*
X021610Y020633D01*
X021576Y020633D01*
X021542Y020637D01*
X021508Y020645D01*
X021476Y020657D01*
X021445Y020673D01*
X021417Y020691D01*
X021391Y020713D01*
X021367Y020738D01*
X021347Y020766D01*
X021329Y020796D01*
X021316Y020827D01*
X021306Y020860D01*
X021300Y020894D01*
X021298Y020928D01*
X024979Y021715D02*
X024981Y021738D01*
X024987Y021761D01*
X024997Y021782D01*
X025010Y021802D01*
X025026Y021819D01*
X025045Y021833D01*
X025066Y021843D01*
X025088Y021850D01*
X025111Y021853D01*
X025135Y021852D01*
X025157Y021847D01*
X025179Y021838D01*
X025199Y021826D01*
X025217Y021810D01*
X025231Y021792D01*
X025243Y021772D01*
X025251Y021750D01*
X025255Y021727D01*
X025255Y021703D01*
X025251Y021680D01*
X025243Y021658D01*
X025231Y021638D01*
X025217Y021620D01*
X025199Y021604D01*
X025179Y021592D01*
X025157Y021583D01*
X025135Y021578D01*
X025111Y021577D01*
X025088Y021580D01*
X025066Y021587D01*
X025045Y021597D01*
X025026Y021611D01*
X025010Y021628D01*
X024997Y021648D01*
X024987Y021669D01*
X024981Y021692D01*
X024979Y021715D01*
X033306Y023684D02*
X033308Y023718D01*
X033314Y023752D01*
X033324Y023785D01*
X033337Y023816D01*
X033355Y023846D01*
X033375Y023874D01*
X033399Y023899D01*
X033425Y023921D01*
X033453Y023939D01*
X033484Y023955D01*
X033516Y023967D01*
X033550Y023975D01*
X033584Y023979D01*
X033618Y023979D01*
X033652Y023975D01*
X033686Y023967D01*
X033718Y023955D01*
X033748Y023939D01*
X033777Y023921D01*
X033803Y023899D01*
X033827Y023874D01*
X033847Y023846D01*
X033865Y023816D01*
X033878Y023785D01*
X033888Y023752D01*
X033894Y023718D01*
X033896Y023684D01*
X033894Y023650D01*
X033888Y023616D01*
X033878Y023583D01*
X033865Y023552D01*
X033847Y023522D01*
X033827Y023494D01*
X033803Y023469D01*
X033777Y023447D01*
X033749Y023429D01*
X033718Y023413D01*
X033686Y023401D01*
X033652Y023393D01*
X033618Y023389D01*
X033584Y023389D01*
X033550Y023393D01*
X033516Y023401D01*
X033484Y023413D01*
X033453Y023429D01*
X033425Y023447D01*
X033399Y023469D01*
X033375Y023494D01*
X033355Y023522D01*
X033337Y023552D01*
X033324Y023583D01*
X033314Y023616D01*
X033308Y023650D01*
X033306Y023684D01*
X036987Y024471D02*
X036989Y024494D01*
X036995Y024517D01*
X037005Y024538D01*
X037018Y024558D01*
X037034Y024575D01*
X037053Y024589D01*
X037074Y024599D01*
X037096Y024606D01*
X037119Y024609D01*
X037143Y024608D01*
X037165Y024603D01*
X037187Y024594D01*
X037207Y024582D01*
X037225Y024566D01*
X037239Y024548D01*
X037251Y024528D01*
X037259Y024506D01*
X037263Y024483D01*
X037263Y024459D01*
X037259Y024436D01*
X037251Y024414D01*
X037239Y024394D01*
X037225Y024376D01*
X037207Y024360D01*
X037187Y024348D01*
X037165Y024339D01*
X037143Y024334D01*
X037119Y024333D01*
X037096Y024336D01*
X037074Y024343D01*
X037053Y024353D01*
X037034Y024367D01*
X037018Y024384D01*
X037005Y024404D01*
X036995Y024425D01*
X036989Y024448D01*
X036987Y024471D01*
X039940Y023290D02*
X039942Y023337D01*
X039948Y023383D01*
X039958Y023429D01*
X039971Y023474D01*
X039989Y023517D01*
X040010Y023559D01*
X040034Y023599D01*
X040062Y023636D01*
X040093Y023671D01*
X040127Y023704D01*
X040163Y023733D01*
X040202Y023759D01*
X040243Y023782D01*
X040286Y023801D01*
X040330Y023817D01*
X040375Y023829D01*
X040421Y023837D01*
X040468Y023841D01*
X040514Y023841D01*
X040561Y023837D01*
X040607Y023829D01*
X040652Y023817D01*
X040696Y023801D01*
X040739Y023782D01*
X040780Y023759D01*
X040819Y023733D01*
X040855Y023704D01*
X040889Y023671D01*
X040920Y023636D01*
X040948Y023599D01*
X040972Y023559D01*
X040993Y023517D01*
X041011Y023474D01*
X041024Y023429D01*
X041034Y023383D01*
X041040Y023337D01*
X041042Y023290D01*
X041040Y023243D01*
X041034Y023197D01*
X041024Y023151D01*
X041011Y023106D01*
X040993Y023063D01*
X040972Y023021D01*
X040948Y022981D01*
X040920Y022944D01*
X040889Y022909D01*
X040855Y022876D01*
X040819Y022847D01*
X040780Y022821D01*
X040739Y022798D01*
X040696Y022779D01*
X040652Y022763D01*
X040607Y022751D01*
X040561Y022743D01*
X040514Y022739D01*
X040468Y022739D01*
X040421Y022743D01*
X040375Y022751D01*
X040330Y022763D01*
X040286Y022779D01*
X040243Y022798D01*
X040202Y022821D01*
X040163Y022847D01*
X040127Y022876D01*
X040093Y022909D01*
X040062Y022944D01*
X040034Y022981D01*
X040010Y023021D01*
X039989Y023063D01*
X039971Y023106D01*
X039958Y023151D01*
X039948Y023197D01*
X039942Y023243D01*
X039940Y023290D01*
X041345Y017069D02*
X041347Y017095D01*
X041353Y017121D01*
X041363Y017146D01*
X041376Y017169D01*
X041392Y017189D01*
X041412Y017207D01*
X041434Y017222D01*
X041457Y017234D01*
X041483Y017242D01*
X041509Y017246D01*
X041535Y017246D01*
X041561Y017242D01*
X041587Y017234D01*
X041611Y017222D01*
X041632Y017207D01*
X041652Y017189D01*
X041668Y017169D01*
X041681Y017146D01*
X041691Y017121D01*
X041697Y017095D01*
X041699Y017069D01*
X041697Y017043D01*
X041691Y017017D01*
X041681Y016992D01*
X041668Y016969D01*
X041652Y016949D01*
X041632Y016931D01*
X041610Y016916D01*
X041587Y016904D01*
X041561Y016896D01*
X041535Y016892D01*
X041509Y016892D01*
X041483Y016896D01*
X041457Y016904D01*
X041433Y016916D01*
X041412Y016931D01*
X041392Y016949D01*
X041376Y016969D01*
X041363Y016992D01*
X041353Y017017D01*
X041347Y017043D01*
X041345Y017069D01*
X041345Y015888D02*
X041347Y015914D01*
X041353Y015940D01*
X041363Y015965D01*
X041376Y015988D01*
X041392Y016008D01*
X041412Y016026D01*
X041434Y016041D01*
X041457Y016053D01*
X041483Y016061D01*
X041509Y016065D01*
X041535Y016065D01*
X041561Y016061D01*
X041587Y016053D01*
X041611Y016041D01*
X041632Y016026D01*
X041652Y016008D01*
X041668Y015988D01*
X041681Y015965D01*
X041691Y015940D01*
X041697Y015914D01*
X041699Y015888D01*
X041697Y015862D01*
X041691Y015836D01*
X041681Y015811D01*
X041668Y015788D01*
X041652Y015768D01*
X041632Y015750D01*
X041610Y015735D01*
X041587Y015723D01*
X041561Y015715D01*
X041535Y015711D01*
X041509Y015711D01*
X041483Y015715D01*
X041457Y015723D01*
X041433Y015735D01*
X041412Y015750D01*
X041392Y015768D01*
X041376Y015788D01*
X041363Y015811D01*
X041353Y015836D01*
X041347Y015862D01*
X041345Y015888D01*
M02*
