<?xml version="1.0" encoding="utf-8"?>
<!-- Generator: Adobe Illustrator 25.2.1, SVG Export Plug-In . SVG Version: 6.00 Build 0)  -->
<!DOCTYPE svg PUBLIC "-//W3C//DTD SVG 1.1//EN" "http://www.w3.org/Graphics/SVG/1.1/DTD/svg11.dtd" [
	<!ENTITY ns_extend "http://ns.adobe.com/Extensibility/1.0/">
	<!ENTITY ns_ai "http://ns.adobe.com/AdobeIllustrator/10.0/">
	<!ENTITY ns_graphs "http://ns.adobe.com/Graphs/1.0/">
	<!ENTITY ns_vars "http://ns.adobe.com/Variables/1.0/">
	<!ENTITY ns_imrep "http://ns.adobe.com/ImageReplacement/1.0/">
	<!ENTITY ns_sfw "http://ns.adobe.com/SaveForWeb/1.0/">
	<!ENTITY ns_custom "http://ns.adobe.com/GenericCustomNamespace/1.0/">
	<!ENTITY ns_adobe_xpath "http://ns.adobe.com/XPath/1.0/">
]>
<svg version="1.1" id="Layer_1" xmlns:x="&ns_extend;" xmlns:i="&ns_ai;" xmlns:graph="&ns_graphs;"
	 xmlns="http://www.w3.org/2000/svg" xmlns:xlink="http://www.w3.org/1999/xlink" x="0px" y="0px" viewBox="0 0 300 75.1"
	 style="enable-background:new 0 0 300 75.1;" xml:space="preserve">
<style type="text/css">
	.st0{fill:#FFFFFF;}
	.st1{fill:none;stroke:#2FB6DF;stroke-width:3.59;stroke-linecap:round;stroke-miterlimit:10;}
	.st2{fill:none;stroke:#D6AACD;stroke-width:3.59;stroke-linecap:round;stroke-miterlimit:10;}
	.st3{fill:none;stroke:#B5B5B6;stroke-width:3.59;stroke-linecap:round;stroke-miterlimit:10;}
	.st4{fill:none;stroke:#EA6A3F;stroke-width:3.59;stroke-linecap:round;stroke-miterlimit:10;}
	.st5{fill:none;stroke:#FBD026;stroke-width:3.59;stroke-linecap:round;stroke-miterlimit:10;}
	.st6{fill:#2FB6DF;}
	.st7{fill:none;stroke:#D15527;stroke-width:3.59;stroke-linecap:round;stroke-miterlimit:10;}
	.st8{fill:none;}
</style>
<metadata>
	<sfw  xmlns="&ns_sfw;">
		<slices></slices>
		<sliceSourceBounds  bottomLeftOrigin="true" height="75" width="232.4" x="0" y="0.1"></sliceSourceBounds>
	</sfw>
</metadata>
<g>
	<g id="Layer_1_1_">
		<circle class="st0" cx="37.5" cy="37.5" r="33.8"/>
		<line class="st1" x1="48.3" y1="9.5" x2="56.6" y2="59.2"/>
		<line class="st1" x1="27.7" y1="20.5" x2="56.6" y2="59.2"/>
		<line class="st2" x1="8.6" y1="40" x2="27.7" y2="20.5"/>
		<line class="st3" x1="8.6" y1="40" x2="56.6" y2="59.2"/>
		<line class="st1" x1="56.6" y1="59.2" x2="61.9" y2="44.4"/>
		<line class="st4" x1="27.7" y1="20.5" x2="61.9" y2="44.4"/>
		<line class="st3" x1="8.6" y1="40" x2="61.9" y2="44.4"/>
		<line class="st5" x1="48.3" y1="9.5" x2="61.9" y2="44.4"/>
		<path class="st6" d="M40.5,28.5"/>
		<path class="st7" d="M41.9,29.7"/>
		<path class="st6" d="M28.1,30.2"/>
		<path class="st6" d="M28.1,30.2"/>
		<circle class="st8" cx="37.5" cy="37.5" r="37.5"/>
	</g>
</g>
<g>
	<path class="st0" d="M99.8,46.5c0.1-0.8-0.2-1.6-0.8-2.2l-5.8-5.9c-1.2-1.2-1.8-3-1.7-4.7c0.1-1.7,1-3.3,2.4-4.4
		c1.4-1,3.2-1.4,4.9-1.1c1.7,0.4,3.2,1.4,4,2.9c0.5,0.8,0.2,1.9-0.6,2.4c-0.8,0.5-1.9,0.2-2.3-0.6c-0.4-0.6-1-1.1-1.7-1.3
		c-0.8-0.1-1.5,0-2.1,0.5c-0.6,0.4-1,1.1-1,1.9c-0.1,0.7,0.2,1.4,0.7,2l5.7,5.9c1.3,1.3,1.9,3.1,1.8,4.8c-0.1,1.8-1,3.4-2.4,4.5
		c-1.4,1.1-3.2,1.5-5,1.2c-1.8-0.4-3.3-1.5-4.1-3c-0.5-0.8-0.2-1.9,0.6-2.4c0.8-0.5,1.9-0.2,2.4,0.6c0.4,0.7,1,1.2,1.8,1.3
		c0.8,0.1,1.6,0,2.2-0.5C99.3,48,99.7,47.3,99.8,46.5z"/>
	<path class="st0" d="M106.1,50.8V29.2c0-0.9,0.7-1.6,1.6-1.6s1.6,0.7,1.6,1.6v5.7h2c2.9,0,5.2,2.3,5.2,5.2v10.7
		c0,0.9-0.7,1.6-1.6,1.6s-1.6-0.7-1.6-1.6V40.1c0-1.1-0.9-2-2-2h-2v12.6c0,0.9-0.7,1.6-1.6,1.6S106.1,51.7,106.1,50.8z"/>
	<path class="st0" d="M119.9,47.1V36.4c0-0.9,0.7-1.6,1.6-1.6s1.6,0.7,1.6,1.6v10.7c0,1.1,0.9,2,2,2h2V36.4c0-0.9,0.7-1.6,1.6-1.6
		s1.6,0.7,1.6,1.6v14.3c0,0.9-0.7,1.6-1.6,1.6h-3.6C122.2,52.3,119.9,49.9,119.9,47.1z"/>
	<path class="st0" d="M132.7,36.5c0-0.9,0.7-1.6,1.6-1.6h1.3v-5.7c0-0.9,0.7-1.6,1.6-1.6s1.6,0.7,1.6,1.6v5.7h2
		c0.9,0,1.6,0.7,1.6,1.6c0,0.9-0.7,1.6-1.6,1.6h-2v9c0,1.1,0.9,2,2,2c0.9,0,1.6,0.7,1.6,1.6c0,0.9-0.7,1.6-1.6,1.6
		c-2.9,0-5.2-2.3-5.2-5.2v-9h-1.3C133.4,38.2,132.7,37.4,132.7,36.5z"/>
	<path class="st0" d="M143.4,36.5c0-0.9,0.7-1.6,1.6-1.6h1.3v-5.7c0-0.9,0.7-1.6,1.6-1.6c0.9,0,1.6,0.7,1.6,1.6v5.7h2
		c0.9,0,1.6,0.7,1.6,1.6c0,0.9-0.7,1.6-1.6,1.6h-2v9c0,1.1,0.9,2,2,2c0.9,0,1.6,0.7,1.6,1.6c0,0.9-0.7,1.6-1.6,1.6
		c-2.9,0-5.2-2.3-5.2-5.2v-9H145C144.1,38.2,143.4,37.4,143.4,36.5z"/>
	<path class="st0" d="M155.5,48.3V29.2c0-0.9,0.8-1.6,1.6-1.6c0.9,0,1.6,0.7,1.6,1.6v19.1c0,0.4,0.3,0.9,0.6,1.1
		c0.8,0.5,1,1.4,0.6,2.2c-0.4,0.8-1.4,1-2.2,0.6C156.4,51.4,155.5,49.9,155.5,48.3z"/>
	<path class="st0" d="M162.4,47.2V40c0-2.9,2.3-5.2,5.2-5.2c2.9,0,5.2,2.3,5.2,5.2v3.6c0,0.9-0.7,1.6-1.6,1.6h-5.6v2
		c0,0.8,0.5,1.5,1.2,1.8c0.8,0.3,1.6,0.1,2.2-0.4c0.6-0.6,1.7-0.6,2.3,0c0.6,0.6,0.6,1.7,0,2.3c-1.5,1.5-3.7,1.9-5.7,1.1
		C163.6,51.2,162.4,49.3,162.4,47.2z M165.6,40v2c1.2,0,2.8,0,4,0c0-1,0-2,0-2c0-1.1-0.9-2-2-2C166.5,38,165.6,38.9,165.6,40z"/>
	<path class="st0" d="M182,28.3c3.3,0,6,2.7,6,6v12c0,3.3-2.7,6-6,6h-4.3c-1,0-1.7-0.8-1.7-1.7V30.1c0-0.9,0.8-1.7,1.7-1.7H182z
		 M182,31.8h-2.6v17.1h2.6c1.4,0,2.6-1.2,2.6-2.6v-12C184.6,32.9,183.4,31.8,182,31.8z"/>
	<path class="st0" d="M191.5,50.8V36.5c0-0.9,0.7-1.6,1.6-1.6h3.6c0.9,0,1.8,0.3,2.6,0.7c0.8,0.5,1,1.4,0.6,2.2
		c-0.5,0.8-1.4,1-2.2,0.6c-0.3-0.1-0.6-0.3-1-0.3h-2v12.6c0,0.9-0.7,1.6-1.6,1.6C192.2,52.4,191.5,51.7,191.5,50.8z"/>
	<path class="st0" d="M201.9,31c0-1.1,0.9-2,2-2c1.1,0,2,0.9,2,2s-0.9,2-2,2C202.8,33,201.9,32.1,201.9,31z M203.9,52.4
		c-0.9,0-1.6-0.7-1.6-1.6V36.4c0-0.9,0.7-1.6,1.6-1.6c0.9,0,1.6,0.7,1.6,1.6v14.4C205.5,51.7,204.8,52.4,203.9,52.4z"/>
	<path class="st0" d="M208.3,36.9c-0.3-0.9,0.2-1.8,1.1-2c0.9-0.3,1.8,0.2,2,1.1c0,0,1.5,5,2.8,9.2c1.3-4.2,2.8-9.2,2.8-9.2
		c0.3-0.9,1.2-1.3,2-1.1c0.9,0.3,1.3,1.2,1.1,2l-4.3,14.4c-0.2,0.7-0.8,1.2-1.5,1.2s-1.3-0.5-1.5-1.2L208.3,36.9z"/>
	<path class="st0" d="M222,47.2V40c0-2.9,2.3-5.2,5.2-5.2c2.9,0,5.2,2.3,5.2,5.2v3.6c0,0.9-0.7,1.6-1.6,1.6h-5.6v2
		c0,0.8,0.5,1.5,1.2,1.8c0.8,0.3,1.6,0.1,2.2-0.4c0.6-0.6,1.7-0.6,2.3,0c0.6,0.6,0.6,1.7,0,2.3c-1.5,1.5-3.7,1.9-5.7,1.1
		C223.2,51.2,222,49.3,222,47.2z M225.2,40v2c1.2,0,2.8,0,4,0c0-1,0-2,0-2c0-1.1-0.9-2-2-2C226.1,38,225.2,38.9,225.2,40z"/>
</g>
</svg>
