%TF.GenerationSoftware,KiCad,Pcbnew,9.0.0*%
%TF.CreationDate,2025-04-22T12:37:31+01:00*%
%TF.ProjectId,FED3_v7.3,46454433-5f76-4372-9e33-2e6b69636164,rev?*%
%TF.SameCoordinates,Original*%
%TF.FileFunction,Legend,Top*%
%TF.FilePolarity,Positive*%
%FSLAX46Y46*%
G04 Gerber Fmt 4.6, Leading zero omitted, Abs format (unit mm)*
G04 Created by KiCad (PCBNEW 9.0.0) date 2025-04-22 12:37:31*
%MOMM*%
%LPD*%
G01*
G04 APERTURE LIST*
%ADD10C,0.254000*%
%ADD11C,0.010000*%
%ADD12C,0.200000*%
%ADD13C,0.300000*%
%ADD14C,0.137160*%
%ADD15C,0.251460*%
%ADD16C,0.289560*%
%ADD17C,0.213360*%
%ADD18C,0.171450*%
%ADD19C,0.150000*%
%ADD20C,0.100000*%
%ADD21C,0.120000*%
%ADD22C,0.152400*%
%ADD23C,0.203200*%
%ADD24C,0.000000*%
%TA.AperFunction,Profile*%
%ADD25C,0.250000*%
%TD*%
G04 APERTURE END LIST*
D10*
X114821100Y-109175600D02*
G75*
G02*
X114313100Y-109175600I-254000J0D01*
G01*
X114313100Y-109175600D02*
G75*
G02*
X114821100Y-109175600I254000J0D01*
G01*
X154953100Y-110699600D02*
X154953100Y-118827600D01*
X141999100Y-110699600D02*
X154953100Y-110699600D01*
X141999100Y-118827600D02*
X141999100Y-110699600D01*
X154953100Y-118827600D02*
X141999100Y-118827600D01*
D11*
X87487760Y-74351613D02*
X87487787Y-74351642D01*
D12*
X126968006Y-108088409D02*
X127110863Y-108136028D01*
X127110863Y-108136028D02*
X127158482Y-108183647D01*
X127158482Y-108183647D02*
X127206101Y-108278885D01*
X127206101Y-108278885D02*
X127206101Y-108421742D01*
X127206101Y-108421742D02*
X127158482Y-108516980D01*
X127158482Y-108516980D02*
X127110863Y-108564600D01*
X127110863Y-108564600D02*
X127015625Y-108612219D01*
X127015625Y-108612219D02*
X126634673Y-108612219D01*
X126634673Y-108612219D02*
X126634673Y-107612219D01*
X126634673Y-107612219D02*
X126968006Y-107612219D01*
X126968006Y-107612219D02*
X127063244Y-107659838D01*
X127063244Y-107659838D02*
X127110863Y-107707457D01*
X127110863Y-107707457D02*
X127158482Y-107802695D01*
X127158482Y-107802695D02*
X127158482Y-107897933D01*
X127158482Y-107897933D02*
X127110863Y-107993171D01*
X127110863Y-107993171D02*
X127063244Y-108040790D01*
X127063244Y-108040790D02*
X126968006Y-108088409D01*
X126968006Y-108088409D02*
X126634673Y-108088409D01*
X127634673Y-108088409D02*
X127968006Y-108088409D01*
X128110863Y-108612219D02*
X127634673Y-108612219D01*
X127634673Y-108612219D02*
X127634673Y-107612219D01*
X127634673Y-107612219D02*
X128110863Y-107612219D01*
X128539435Y-108088409D02*
X128872768Y-108088409D01*
X129015625Y-108612219D02*
X128539435Y-108612219D01*
X128539435Y-108612219D02*
X128539435Y-107612219D01*
X128539435Y-107612219D02*
X129015625Y-107612219D01*
X129444197Y-108612219D02*
X129444197Y-107612219D01*
X129444197Y-107612219D02*
X129825149Y-107612219D01*
X129825149Y-107612219D02*
X129920387Y-107659838D01*
X129920387Y-107659838D02*
X129968006Y-107707457D01*
X129968006Y-107707457D02*
X130015625Y-107802695D01*
X130015625Y-107802695D02*
X130015625Y-107945552D01*
X130015625Y-107945552D02*
X129968006Y-108040790D01*
X129968006Y-108040790D02*
X129920387Y-108088409D01*
X129920387Y-108088409D02*
X129825149Y-108136028D01*
X129825149Y-108136028D02*
X129444197Y-108136028D01*
X130444197Y-108088409D02*
X130777530Y-108088409D01*
X130920387Y-108612219D02*
X130444197Y-108612219D01*
X130444197Y-108612219D02*
X130444197Y-107612219D01*
X130444197Y-107612219D02*
X130920387Y-107612219D01*
X131920387Y-108612219D02*
X131587054Y-108136028D01*
X131348959Y-108612219D02*
X131348959Y-107612219D01*
X131348959Y-107612219D02*
X131729911Y-107612219D01*
X131729911Y-107612219D02*
X131825149Y-107659838D01*
X131825149Y-107659838D02*
X131872768Y-107707457D01*
X131872768Y-107707457D02*
X131920387Y-107802695D01*
X131920387Y-107802695D02*
X131920387Y-107945552D01*
X131920387Y-107945552D02*
X131872768Y-108040790D01*
X131872768Y-108040790D02*
X131825149Y-108088409D01*
X131825149Y-108088409D02*
X131729911Y-108136028D01*
X131729911Y-108136028D02*
X131348959Y-108136028D01*
X172703600Y-83227945D02*
X172741695Y-83085088D01*
X172741695Y-83085088D02*
X172741695Y-82846993D01*
X172741695Y-82846993D02*
X172703600Y-82751755D01*
X172703600Y-82751755D02*
X172665504Y-82704136D01*
X172665504Y-82704136D02*
X172589314Y-82656517D01*
X172589314Y-82656517D02*
X172513123Y-82656517D01*
X172513123Y-82656517D02*
X172436933Y-82704136D01*
X172436933Y-82704136D02*
X172398838Y-82751755D01*
X172398838Y-82751755D02*
X172360742Y-82846993D01*
X172360742Y-82846993D02*
X172322647Y-83037469D01*
X172322647Y-83037469D02*
X172284552Y-83132707D01*
X172284552Y-83132707D02*
X172246457Y-83180326D01*
X172246457Y-83180326D02*
X172170266Y-83227945D01*
X172170266Y-83227945D02*
X172094076Y-83227945D01*
X172094076Y-83227945D02*
X172017885Y-83180326D01*
X172017885Y-83180326D02*
X171979790Y-83132707D01*
X171979790Y-83132707D02*
X171941695Y-83037469D01*
X171941695Y-83037469D02*
X171941695Y-82799374D01*
X171941695Y-82799374D02*
X171979790Y-82656517D01*
X172665504Y-81656517D02*
X172703600Y-81704136D01*
X172703600Y-81704136D02*
X172741695Y-81846993D01*
X172741695Y-81846993D02*
X172741695Y-81942231D01*
X172741695Y-81942231D02*
X172703600Y-82085088D01*
X172703600Y-82085088D02*
X172627409Y-82180326D01*
X172627409Y-82180326D02*
X172551219Y-82227945D01*
X172551219Y-82227945D02*
X172398838Y-82275564D01*
X172398838Y-82275564D02*
X172284552Y-82275564D01*
X172284552Y-82275564D02*
X172132171Y-82227945D01*
X172132171Y-82227945D02*
X172055980Y-82180326D01*
X172055980Y-82180326D02*
X171979790Y-82085088D01*
X171979790Y-82085088D02*
X171941695Y-81942231D01*
X171941695Y-81942231D02*
X171941695Y-81846993D01*
X171941695Y-81846993D02*
X171979790Y-81704136D01*
X171979790Y-81704136D02*
X172017885Y-81656517D01*
X172741695Y-80751755D02*
X172741695Y-81227945D01*
X172741695Y-81227945D02*
X171941695Y-81227945D01*
X118091028Y-86174374D02*
X118567219Y-86174374D01*
X117567219Y-86507707D02*
X118091028Y-86174374D01*
X118091028Y-86174374D02*
X117567219Y-85841041D01*
X123068409Y-86174374D02*
X123116028Y-86031517D01*
X123116028Y-86031517D02*
X123163647Y-85983898D01*
X123163647Y-85983898D02*
X123258885Y-85936279D01*
X123258885Y-85936279D02*
X123401742Y-85936279D01*
X123401742Y-85936279D02*
X123496980Y-85983898D01*
X123496980Y-85983898D02*
X123544600Y-86031517D01*
X123544600Y-86031517D02*
X123592219Y-86126755D01*
X123592219Y-86126755D02*
X123592219Y-86507707D01*
X123592219Y-86507707D02*
X122592219Y-86507707D01*
X122592219Y-86507707D02*
X122592219Y-86174374D01*
X122592219Y-86174374D02*
X122639838Y-86079136D01*
X122639838Y-86079136D02*
X122687457Y-86031517D01*
X122687457Y-86031517D02*
X122782695Y-85983898D01*
X122782695Y-85983898D02*
X122877933Y-85983898D01*
X122877933Y-85983898D02*
X122973171Y-86031517D01*
X122973171Y-86031517D02*
X123020790Y-86079136D01*
X123020790Y-86079136D02*
X123068409Y-86174374D01*
X123068409Y-86174374D02*
X123068409Y-86507707D01*
X99569673Y-99342219D02*
X99569673Y-98342219D01*
X99569673Y-98342219D02*
X99807768Y-98342219D01*
X99807768Y-98342219D02*
X99950625Y-98389838D01*
X99950625Y-98389838D02*
X100045863Y-98485076D01*
X100045863Y-98485076D02*
X100093482Y-98580314D01*
X100093482Y-98580314D02*
X100141101Y-98770790D01*
X100141101Y-98770790D02*
X100141101Y-98913647D01*
X100141101Y-98913647D02*
X100093482Y-99104123D01*
X100093482Y-99104123D02*
X100045863Y-99199361D01*
X100045863Y-99199361D02*
X99950625Y-99294600D01*
X99950625Y-99294600D02*
X99807768Y-99342219D01*
X99807768Y-99342219D02*
X99569673Y-99342219D01*
X101093482Y-99342219D02*
X100522054Y-99342219D01*
X100807768Y-99342219D02*
X100807768Y-98342219D01*
X100807768Y-98342219D02*
X100712530Y-98485076D01*
X100712530Y-98485076D02*
X100617292Y-98580314D01*
X100617292Y-98580314D02*
X100522054Y-98627933D01*
X101712530Y-98342219D02*
X101807768Y-98342219D01*
X101807768Y-98342219D02*
X101903006Y-98389838D01*
X101903006Y-98389838D02*
X101950625Y-98437457D01*
X101950625Y-98437457D02*
X101998244Y-98532695D01*
X101998244Y-98532695D02*
X102045863Y-98723171D01*
X102045863Y-98723171D02*
X102045863Y-98961266D01*
X102045863Y-98961266D02*
X101998244Y-99151742D01*
X101998244Y-99151742D02*
X101950625Y-99246980D01*
X101950625Y-99246980D02*
X101903006Y-99294600D01*
X101903006Y-99294600D02*
X101807768Y-99342219D01*
X101807768Y-99342219D02*
X101712530Y-99342219D01*
X101712530Y-99342219D02*
X101617292Y-99294600D01*
X101617292Y-99294600D02*
X101569673Y-99246980D01*
X101569673Y-99246980D02*
X101522054Y-99151742D01*
X101522054Y-99151742D02*
X101474435Y-98961266D01*
X101474435Y-98961266D02*
X101474435Y-98723171D01*
X101474435Y-98723171D02*
X101522054Y-98532695D01*
X101522054Y-98532695D02*
X101569673Y-98437457D01*
X101569673Y-98437457D02*
X101617292Y-98389838D01*
X101617292Y-98389838D02*
X101712530Y-98342219D01*
D13*
X199110828Y-125759774D02*
X199110828Y-125474060D01*
X199110828Y-125474060D02*
X199182257Y-125331203D01*
X199182257Y-125331203D02*
X199325114Y-125188346D01*
X199325114Y-125188346D02*
X199610828Y-125116917D01*
X199610828Y-125116917D02*
X200110828Y-125116917D01*
X200110828Y-125116917D02*
X200396542Y-125188346D01*
X200396542Y-125188346D02*
X200539400Y-125331203D01*
X200539400Y-125331203D02*
X200610828Y-125474060D01*
X200610828Y-125474060D02*
X200610828Y-125759774D01*
X200610828Y-125759774D02*
X200539400Y-125902632D01*
X200539400Y-125902632D02*
X200396542Y-126045489D01*
X200396542Y-126045489D02*
X200110828Y-126116917D01*
X200110828Y-126116917D02*
X199610828Y-126116917D01*
X199610828Y-126116917D02*
X199325114Y-126045489D01*
X199325114Y-126045489D02*
X199182257Y-125902632D01*
X199182257Y-125902632D02*
X199110828Y-125759774D01*
X200610828Y-124474060D02*
X199110828Y-124474060D01*
X199110828Y-124474060D02*
X200610828Y-123616917D01*
X200610828Y-123616917D02*
X199110828Y-123616917D01*
D14*
X116333716Y-107802170D02*
X116714669Y-107802170D01*
X116257526Y-108030742D02*
X116524193Y-107230742D01*
X116524193Y-107230742D02*
X116790859Y-108030742D01*
X116981335Y-107230742D02*
X117476573Y-107230742D01*
X117476573Y-107230742D02*
X117209907Y-107535504D01*
X117209907Y-107535504D02*
X117324192Y-107535504D01*
X117324192Y-107535504D02*
X117400383Y-107573599D01*
X117400383Y-107573599D02*
X117438478Y-107611694D01*
X117438478Y-107611694D02*
X117476573Y-107687885D01*
X117476573Y-107687885D02*
X117476573Y-107878361D01*
X117476573Y-107878361D02*
X117438478Y-107954551D01*
X117438478Y-107954551D02*
X117400383Y-107992647D01*
X117400383Y-107992647D02*
X117324192Y-108030742D01*
X117324192Y-108030742D02*
X117095621Y-108030742D01*
X117095621Y-108030742D02*
X117019430Y-107992647D01*
X117019430Y-107992647D02*
X116981335Y-107954551D01*
X119000383Y-107802170D02*
X119381336Y-107802170D01*
X118924193Y-108030742D02*
X119190860Y-107230742D01*
X119190860Y-107230742D02*
X119457526Y-108030742D01*
X119724193Y-108030742D02*
X119724193Y-107230742D01*
X120105145Y-108030742D02*
X120105145Y-107230742D01*
X120105145Y-107230742D02*
X120562288Y-108030742D01*
X120562288Y-108030742D02*
X120562288Y-107230742D01*
X121362287Y-108030742D02*
X120905144Y-108030742D01*
X121133716Y-108030742D02*
X121133716Y-107230742D01*
X121133716Y-107230742D02*
X121057525Y-107345027D01*
X121057525Y-107345027D02*
X120981335Y-107421218D01*
X120981335Y-107421218D02*
X120905144Y-107459313D01*
X116333716Y-109090125D02*
X116714669Y-109090125D01*
X116257526Y-109318697D02*
X116524193Y-108518697D01*
X116524193Y-108518697D02*
X116790859Y-109318697D01*
X117019430Y-108594887D02*
X117057526Y-108556792D01*
X117057526Y-108556792D02*
X117133716Y-108518697D01*
X117133716Y-108518697D02*
X117324192Y-108518697D01*
X117324192Y-108518697D02*
X117400383Y-108556792D01*
X117400383Y-108556792D02*
X117438478Y-108594887D01*
X117438478Y-108594887D02*
X117476573Y-108671078D01*
X117476573Y-108671078D02*
X117476573Y-108747268D01*
X117476573Y-108747268D02*
X117438478Y-108861554D01*
X117438478Y-108861554D02*
X116981335Y-109318697D01*
X116981335Y-109318697D02*
X117476573Y-109318697D01*
X119000383Y-109090125D02*
X119381336Y-109090125D01*
X118924193Y-109318697D02*
X119190860Y-108518697D01*
X119190860Y-108518697D02*
X119457526Y-109318697D01*
X119724193Y-109318697D02*
X119724193Y-108518697D01*
X120105145Y-109318697D02*
X120105145Y-108518697D01*
X120105145Y-108518697D02*
X120562288Y-109318697D01*
X120562288Y-109318697D02*
X120562288Y-108518697D01*
X120905144Y-108594887D02*
X120943240Y-108556792D01*
X120943240Y-108556792D02*
X121019430Y-108518697D01*
X121019430Y-108518697D02*
X121209906Y-108518697D01*
X121209906Y-108518697D02*
X121286097Y-108556792D01*
X121286097Y-108556792D02*
X121324192Y-108594887D01*
X121324192Y-108594887D02*
X121362287Y-108671078D01*
X121362287Y-108671078D02*
X121362287Y-108747268D01*
X121362287Y-108747268D02*
X121324192Y-108861554D01*
X121324192Y-108861554D02*
X120867049Y-109318697D01*
X120867049Y-109318697D02*
X121362287Y-109318697D01*
X116333716Y-110378080D02*
X116714669Y-110378080D01*
X116257526Y-110606652D02*
X116524193Y-109806652D01*
X116524193Y-109806652D02*
X116790859Y-110606652D01*
X117400383Y-110073318D02*
X117400383Y-110606652D01*
X117209907Y-109768557D02*
X117019430Y-110339985D01*
X117019430Y-110339985D02*
X117514669Y-110339985D01*
X119305145Y-110187604D02*
X119419431Y-110225699D01*
X119419431Y-110225699D02*
X119457526Y-110263795D01*
X119457526Y-110263795D02*
X119495622Y-110339985D01*
X119495622Y-110339985D02*
X119495622Y-110454271D01*
X119495622Y-110454271D02*
X119457526Y-110530461D01*
X119457526Y-110530461D02*
X119419431Y-110568557D01*
X119419431Y-110568557D02*
X119343241Y-110606652D01*
X119343241Y-110606652D02*
X119038479Y-110606652D01*
X119038479Y-110606652D02*
X119038479Y-109806652D01*
X119038479Y-109806652D02*
X119305145Y-109806652D01*
X119305145Y-109806652D02*
X119381336Y-109844747D01*
X119381336Y-109844747D02*
X119419431Y-109882842D01*
X119419431Y-109882842D02*
X119457526Y-109959033D01*
X119457526Y-109959033D02*
X119457526Y-110035223D01*
X119457526Y-110035223D02*
X119419431Y-110111414D01*
X119419431Y-110111414D02*
X119381336Y-110149509D01*
X119381336Y-110149509D02*
X119305145Y-110187604D01*
X119305145Y-110187604D02*
X119038479Y-110187604D01*
X119838479Y-110606652D02*
X119838479Y-109806652D01*
X120219431Y-110606652D02*
X120219431Y-109806652D01*
X120219431Y-109806652D02*
X120676574Y-110606652D01*
X120676574Y-110606652D02*
X120676574Y-109806652D01*
X121476573Y-110606652D02*
X121019430Y-110606652D01*
X121248002Y-110606652D02*
X121248002Y-109806652D01*
X121248002Y-109806652D02*
X121171811Y-109920937D01*
X121171811Y-109920937D02*
X121095621Y-109997128D01*
X121095621Y-109997128D02*
X121019430Y-110035223D01*
X116333716Y-111666035D02*
X116714669Y-111666035D01*
X116257526Y-111894607D02*
X116524193Y-111094607D01*
X116524193Y-111094607D02*
X116790859Y-111894607D01*
X117438478Y-111094607D02*
X117057526Y-111094607D01*
X117057526Y-111094607D02*
X117019430Y-111475559D01*
X117019430Y-111475559D02*
X117057526Y-111437464D01*
X117057526Y-111437464D02*
X117133716Y-111399369D01*
X117133716Y-111399369D02*
X117324192Y-111399369D01*
X117324192Y-111399369D02*
X117400383Y-111437464D01*
X117400383Y-111437464D02*
X117438478Y-111475559D01*
X117438478Y-111475559D02*
X117476573Y-111551750D01*
X117476573Y-111551750D02*
X117476573Y-111742226D01*
X117476573Y-111742226D02*
X117438478Y-111818416D01*
X117438478Y-111818416D02*
X117400383Y-111856512D01*
X117400383Y-111856512D02*
X117324192Y-111894607D01*
X117324192Y-111894607D02*
X117133716Y-111894607D01*
X117133716Y-111894607D02*
X117057526Y-111856512D01*
X117057526Y-111856512D02*
X117019430Y-111818416D01*
X119305145Y-111475559D02*
X119419431Y-111513654D01*
X119419431Y-111513654D02*
X119457526Y-111551750D01*
X119457526Y-111551750D02*
X119495622Y-111627940D01*
X119495622Y-111627940D02*
X119495622Y-111742226D01*
X119495622Y-111742226D02*
X119457526Y-111818416D01*
X119457526Y-111818416D02*
X119419431Y-111856512D01*
X119419431Y-111856512D02*
X119343241Y-111894607D01*
X119343241Y-111894607D02*
X119038479Y-111894607D01*
X119038479Y-111894607D02*
X119038479Y-111094607D01*
X119038479Y-111094607D02*
X119305145Y-111094607D01*
X119305145Y-111094607D02*
X119381336Y-111132702D01*
X119381336Y-111132702D02*
X119419431Y-111170797D01*
X119419431Y-111170797D02*
X119457526Y-111246988D01*
X119457526Y-111246988D02*
X119457526Y-111323178D01*
X119457526Y-111323178D02*
X119419431Y-111399369D01*
X119419431Y-111399369D02*
X119381336Y-111437464D01*
X119381336Y-111437464D02*
X119305145Y-111475559D01*
X119305145Y-111475559D02*
X119038479Y-111475559D01*
X119838479Y-111894607D02*
X119838479Y-111094607D01*
X120219431Y-111894607D02*
X120219431Y-111094607D01*
X120219431Y-111094607D02*
X120676574Y-111894607D01*
X120676574Y-111894607D02*
X120676574Y-111094607D01*
X121019430Y-111170797D02*
X121057526Y-111132702D01*
X121057526Y-111132702D02*
X121133716Y-111094607D01*
X121133716Y-111094607D02*
X121324192Y-111094607D01*
X121324192Y-111094607D02*
X121400383Y-111132702D01*
X121400383Y-111132702D02*
X121438478Y-111170797D01*
X121438478Y-111170797D02*
X121476573Y-111246988D01*
X121476573Y-111246988D02*
X121476573Y-111323178D01*
X121476573Y-111323178D02*
X121438478Y-111437464D01*
X121438478Y-111437464D02*
X120981335Y-111894607D01*
X120981335Y-111894607D02*
X121476573Y-111894607D01*
X116371812Y-113182562D02*
X116371812Y-112382562D01*
X116371812Y-112382562D02*
X116562288Y-112382562D01*
X116562288Y-112382562D02*
X116676574Y-112420657D01*
X116676574Y-112420657D02*
X116752764Y-112496847D01*
X116752764Y-112496847D02*
X116790859Y-112573038D01*
X116790859Y-112573038D02*
X116828955Y-112725419D01*
X116828955Y-112725419D02*
X116828955Y-112839705D01*
X116828955Y-112839705D02*
X116790859Y-112992086D01*
X116790859Y-112992086D02*
X116752764Y-113068276D01*
X116752764Y-113068276D02*
X116676574Y-113144467D01*
X116676574Y-113144467D02*
X116562288Y-113182562D01*
X116562288Y-113182562D02*
X116371812Y-113182562D01*
X117590859Y-113182562D02*
X117133716Y-113182562D01*
X117362288Y-113182562D02*
X117362288Y-112382562D01*
X117362288Y-112382562D02*
X117286097Y-112496847D01*
X117286097Y-112496847D02*
X117209907Y-112573038D01*
X117209907Y-112573038D02*
X117133716Y-112611133D01*
X117857526Y-112382562D02*
X118352764Y-112382562D01*
X118352764Y-112382562D02*
X118086098Y-112687324D01*
X118086098Y-112687324D02*
X118200383Y-112687324D01*
X118200383Y-112687324D02*
X118276574Y-112725419D01*
X118276574Y-112725419D02*
X118314669Y-112763514D01*
X118314669Y-112763514D02*
X118352764Y-112839705D01*
X118352764Y-112839705D02*
X118352764Y-113030181D01*
X118352764Y-113030181D02*
X118314669Y-113106371D01*
X118314669Y-113106371D02*
X118276574Y-113144467D01*
X118276574Y-113144467D02*
X118200383Y-113182562D01*
X118200383Y-113182562D02*
X117971812Y-113182562D01*
X117971812Y-113182562D02*
X117895621Y-113144467D01*
X117895621Y-113144467D02*
X117857526Y-113106371D01*
X119267050Y-113144467D02*
X119381336Y-113182562D01*
X119381336Y-113182562D02*
X119571812Y-113182562D01*
X119571812Y-113182562D02*
X119648003Y-113144467D01*
X119648003Y-113144467D02*
X119686098Y-113106371D01*
X119686098Y-113106371D02*
X119724193Y-113030181D01*
X119724193Y-113030181D02*
X119724193Y-112953990D01*
X119724193Y-112953990D02*
X119686098Y-112877800D01*
X119686098Y-112877800D02*
X119648003Y-112839705D01*
X119648003Y-112839705D02*
X119571812Y-112801609D01*
X119571812Y-112801609D02*
X119419431Y-112763514D01*
X119419431Y-112763514D02*
X119343241Y-112725419D01*
X119343241Y-112725419D02*
X119305146Y-112687324D01*
X119305146Y-112687324D02*
X119267050Y-112611133D01*
X119267050Y-112611133D02*
X119267050Y-112534943D01*
X119267050Y-112534943D02*
X119305146Y-112458752D01*
X119305146Y-112458752D02*
X119343241Y-112420657D01*
X119343241Y-112420657D02*
X119419431Y-112382562D01*
X119419431Y-112382562D02*
X119609908Y-112382562D01*
X119609908Y-112382562D02*
X119724193Y-112420657D01*
X119952765Y-112382562D02*
X120409908Y-112382562D01*
X120181336Y-113182562D02*
X120181336Y-112382562D01*
X120943241Y-112763514D02*
X121057527Y-112801609D01*
X121057527Y-112801609D02*
X121095622Y-112839705D01*
X121095622Y-112839705D02*
X121133718Y-112915895D01*
X121133718Y-112915895D02*
X121133718Y-113030181D01*
X121133718Y-113030181D02*
X121095622Y-113106371D01*
X121095622Y-113106371D02*
X121057527Y-113144467D01*
X121057527Y-113144467D02*
X120981337Y-113182562D01*
X120981337Y-113182562D02*
X120676575Y-113182562D01*
X120676575Y-113182562D02*
X120676575Y-112382562D01*
X120676575Y-112382562D02*
X120943241Y-112382562D01*
X120943241Y-112382562D02*
X121019432Y-112420657D01*
X121019432Y-112420657D02*
X121057527Y-112458752D01*
X121057527Y-112458752D02*
X121095622Y-112534943D01*
X121095622Y-112534943D02*
X121095622Y-112611133D01*
X121095622Y-112611133D02*
X121057527Y-112687324D01*
X121057527Y-112687324D02*
X121019432Y-112725419D01*
X121019432Y-112725419D02*
X120943241Y-112763514D01*
X120943241Y-112763514D02*
X120676575Y-112763514D01*
X121628956Y-112801609D02*
X121628956Y-113182562D01*
X121362289Y-112382562D02*
X121628956Y-112801609D01*
X121628956Y-112801609D02*
X121895622Y-112382562D01*
D12*
X199618482Y-85914838D02*
X199523244Y-85867219D01*
X199523244Y-85867219D02*
X199380387Y-85867219D01*
X199380387Y-85867219D02*
X199237530Y-85914838D01*
X199237530Y-85914838D02*
X199142292Y-86010076D01*
X199142292Y-86010076D02*
X199094673Y-86105314D01*
X199094673Y-86105314D02*
X199047054Y-86295790D01*
X199047054Y-86295790D02*
X199047054Y-86438647D01*
X199047054Y-86438647D02*
X199094673Y-86629123D01*
X199094673Y-86629123D02*
X199142292Y-86724361D01*
X199142292Y-86724361D02*
X199237530Y-86819600D01*
X199237530Y-86819600D02*
X199380387Y-86867219D01*
X199380387Y-86867219D02*
X199475625Y-86867219D01*
X199475625Y-86867219D02*
X199618482Y-86819600D01*
X199618482Y-86819600D02*
X199666101Y-86771980D01*
X199666101Y-86771980D02*
X199666101Y-86438647D01*
X199666101Y-86438647D02*
X199475625Y-86438647D01*
X200094673Y-86867219D02*
X200094673Y-85867219D01*
X200094673Y-85867219D02*
X200666101Y-86867219D01*
X200666101Y-86867219D02*
X200666101Y-85867219D01*
X201142292Y-86867219D02*
X201142292Y-85867219D01*
X201142292Y-85867219D02*
X201380387Y-85867219D01*
X201380387Y-85867219D02*
X201523244Y-85914838D01*
X201523244Y-85914838D02*
X201618482Y-86010076D01*
X201618482Y-86010076D02*
X201666101Y-86105314D01*
X201666101Y-86105314D02*
X201713720Y-86295790D01*
X201713720Y-86295790D02*
X201713720Y-86438647D01*
X201713720Y-86438647D02*
X201666101Y-86629123D01*
X201666101Y-86629123D02*
X201618482Y-86724361D01*
X201618482Y-86724361D02*
X201523244Y-86819600D01*
X201523244Y-86819600D02*
X201380387Y-86867219D01*
X201380387Y-86867219D02*
X201142292Y-86867219D01*
X100093482Y-106114838D02*
X99998244Y-106067219D01*
X99998244Y-106067219D02*
X99855387Y-106067219D01*
X99855387Y-106067219D02*
X99712530Y-106114838D01*
X99712530Y-106114838D02*
X99617292Y-106210076D01*
X99617292Y-106210076D02*
X99569673Y-106305314D01*
X99569673Y-106305314D02*
X99522054Y-106495790D01*
X99522054Y-106495790D02*
X99522054Y-106638647D01*
X99522054Y-106638647D02*
X99569673Y-106829123D01*
X99569673Y-106829123D02*
X99617292Y-106924361D01*
X99617292Y-106924361D02*
X99712530Y-107019600D01*
X99712530Y-107019600D02*
X99855387Y-107067219D01*
X99855387Y-107067219D02*
X99950625Y-107067219D01*
X99950625Y-107067219D02*
X100093482Y-107019600D01*
X100093482Y-107019600D02*
X100141101Y-106971980D01*
X100141101Y-106971980D02*
X100141101Y-106638647D01*
X100141101Y-106638647D02*
X99950625Y-106638647D01*
X100569673Y-107067219D02*
X100569673Y-106067219D01*
X100569673Y-106067219D02*
X101141101Y-107067219D01*
X101141101Y-107067219D02*
X101141101Y-106067219D01*
X101617292Y-107067219D02*
X101617292Y-106067219D01*
X101617292Y-106067219D02*
X101855387Y-106067219D01*
X101855387Y-106067219D02*
X101998244Y-106114838D01*
X101998244Y-106114838D02*
X102093482Y-106210076D01*
X102093482Y-106210076D02*
X102141101Y-106305314D01*
X102141101Y-106305314D02*
X102188720Y-106495790D01*
X102188720Y-106495790D02*
X102188720Y-106638647D01*
X102188720Y-106638647D02*
X102141101Y-106829123D01*
X102141101Y-106829123D02*
X102093482Y-106924361D01*
X102093482Y-106924361D02*
X101998244Y-107019600D01*
X101998244Y-107019600D02*
X101855387Y-107067219D01*
X101855387Y-107067219D02*
X101617292Y-107067219D01*
D15*
X147766394Y-112380994D02*
X147291414Y-112380994D01*
X147291414Y-113127391D02*
X147291414Y-111702451D01*
X147291414Y-111702451D02*
X147969957Y-111702451D01*
X148716354Y-113127391D02*
X148580645Y-113059537D01*
X148580645Y-113059537D02*
X148512791Y-112991682D01*
X148512791Y-112991682D02*
X148444937Y-112855974D01*
X148444937Y-112855974D02*
X148444937Y-112448848D01*
X148444937Y-112448848D02*
X148512791Y-112313139D01*
X148512791Y-112313139D02*
X148580645Y-112245285D01*
X148580645Y-112245285D02*
X148716354Y-112177431D01*
X148716354Y-112177431D02*
X148919917Y-112177431D01*
X148919917Y-112177431D02*
X149055625Y-112245285D01*
X149055625Y-112245285D02*
X149123480Y-112313139D01*
X149123480Y-112313139D02*
X149191334Y-112448848D01*
X149191334Y-112448848D02*
X149191334Y-112855974D01*
X149191334Y-112855974D02*
X149123480Y-112991682D01*
X149123480Y-112991682D02*
X149055625Y-113059537D01*
X149055625Y-113059537D02*
X148919917Y-113127391D01*
X148919917Y-113127391D02*
X148716354Y-113127391D01*
X149802022Y-113127391D02*
X149802022Y-112177431D01*
X149802022Y-112448848D02*
X149869876Y-112313139D01*
X149869876Y-112313139D02*
X149937731Y-112245285D01*
X149937731Y-112245285D02*
X150073439Y-112177431D01*
X150073439Y-112177431D02*
X150209148Y-112177431D01*
X144950441Y-115421465D02*
X144475461Y-114742922D01*
X144136190Y-115421465D02*
X144136190Y-113996525D01*
X144136190Y-113996525D02*
X144679024Y-113996525D01*
X144679024Y-113996525D02*
X144814733Y-114064379D01*
X144814733Y-114064379D02*
X144882587Y-114132233D01*
X144882587Y-114132233D02*
X144950441Y-114267942D01*
X144950441Y-114267942D02*
X144950441Y-114471505D01*
X144950441Y-114471505D02*
X144882587Y-114607213D01*
X144882587Y-114607213D02*
X144814733Y-114675068D01*
X144814733Y-114675068D02*
X144679024Y-114742922D01*
X144679024Y-114742922D02*
X144136190Y-114742922D01*
X146103964Y-115353611D02*
X145968256Y-115421465D01*
X145968256Y-115421465D02*
X145696839Y-115421465D01*
X145696839Y-115421465D02*
X145561130Y-115353611D01*
X145561130Y-115353611D02*
X145493276Y-115217902D01*
X145493276Y-115217902D02*
X145493276Y-114675068D01*
X145493276Y-114675068D02*
X145561130Y-114539359D01*
X145561130Y-114539359D02*
X145696839Y-114471505D01*
X145696839Y-114471505D02*
X145968256Y-114471505D01*
X145968256Y-114471505D02*
X146103964Y-114539359D01*
X146103964Y-114539359D02*
X146171819Y-114675068D01*
X146171819Y-114675068D02*
X146171819Y-114810776D01*
X146171819Y-114810776D02*
X145493276Y-114946485D01*
X146714653Y-115353611D02*
X146850361Y-115421465D01*
X146850361Y-115421465D02*
X147121778Y-115421465D01*
X147121778Y-115421465D02*
X147257487Y-115353611D01*
X147257487Y-115353611D02*
X147325341Y-115217902D01*
X147325341Y-115217902D02*
X147325341Y-115150048D01*
X147325341Y-115150048D02*
X147257487Y-115014339D01*
X147257487Y-115014339D02*
X147121778Y-114946485D01*
X147121778Y-114946485D02*
X146918216Y-114946485D01*
X146918216Y-114946485D02*
X146782507Y-114878631D01*
X146782507Y-114878631D02*
X146714653Y-114742922D01*
X146714653Y-114742922D02*
X146714653Y-114675068D01*
X146714653Y-114675068D02*
X146782507Y-114539359D01*
X146782507Y-114539359D02*
X146918216Y-114471505D01*
X146918216Y-114471505D02*
X147121778Y-114471505D01*
X147121778Y-114471505D02*
X147257487Y-114539359D01*
X148478864Y-115353611D02*
X148343156Y-115421465D01*
X148343156Y-115421465D02*
X148071739Y-115421465D01*
X148071739Y-115421465D02*
X147936030Y-115353611D01*
X147936030Y-115353611D02*
X147868176Y-115217902D01*
X147868176Y-115217902D02*
X147868176Y-114675068D01*
X147868176Y-114675068D02*
X147936030Y-114539359D01*
X147936030Y-114539359D02*
X148071739Y-114471505D01*
X148071739Y-114471505D02*
X148343156Y-114471505D01*
X148343156Y-114471505D02*
X148478864Y-114539359D01*
X148478864Y-114539359D02*
X148546719Y-114675068D01*
X148546719Y-114675068D02*
X148546719Y-114810776D01*
X148546719Y-114810776D02*
X147868176Y-114946485D01*
X149768096Y-115421465D02*
X149768096Y-114675068D01*
X149768096Y-114675068D02*
X149700241Y-114539359D01*
X149700241Y-114539359D02*
X149564533Y-114471505D01*
X149564533Y-114471505D02*
X149293116Y-114471505D01*
X149293116Y-114471505D02*
X149157407Y-114539359D01*
X149768096Y-115353611D02*
X149632387Y-115421465D01*
X149632387Y-115421465D02*
X149293116Y-115421465D01*
X149293116Y-115421465D02*
X149157407Y-115353611D01*
X149157407Y-115353611D02*
X149089553Y-115217902D01*
X149089553Y-115217902D02*
X149089553Y-115082193D01*
X149089553Y-115082193D02*
X149157407Y-114946485D01*
X149157407Y-114946485D02*
X149293116Y-114878631D01*
X149293116Y-114878631D02*
X149632387Y-114878631D01*
X149632387Y-114878631D02*
X149768096Y-114810776D01*
X150446638Y-115421465D02*
X150446638Y-114471505D01*
X150446638Y-114742922D02*
X150514492Y-114607213D01*
X150514492Y-114607213D02*
X150582347Y-114539359D01*
X150582347Y-114539359D02*
X150718055Y-114471505D01*
X150718055Y-114471505D02*
X150853764Y-114471505D01*
X151939433Y-115353611D02*
X151803724Y-115421465D01*
X151803724Y-115421465D02*
X151532307Y-115421465D01*
X151532307Y-115421465D02*
X151396598Y-115353611D01*
X151396598Y-115353611D02*
X151328744Y-115285756D01*
X151328744Y-115285756D02*
X151260890Y-115150048D01*
X151260890Y-115150048D02*
X151260890Y-114742922D01*
X151260890Y-114742922D02*
X151328744Y-114607213D01*
X151328744Y-114607213D02*
X151396598Y-114539359D01*
X151396598Y-114539359D02*
X151532307Y-114471505D01*
X151532307Y-114471505D02*
X151803724Y-114471505D01*
X151803724Y-114471505D02*
X151939433Y-114539359D01*
X152550121Y-115421465D02*
X152550121Y-113996525D01*
X153160810Y-115421465D02*
X153160810Y-114675068D01*
X153160810Y-114675068D02*
X153092955Y-114539359D01*
X153092955Y-114539359D02*
X152957247Y-114471505D01*
X152957247Y-114471505D02*
X152753684Y-114471505D01*
X152753684Y-114471505D02*
X152617975Y-114539359D01*
X152617975Y-114539359D02*
X152550121Y-114607213D01*
X144204044Y-116290599D02*
X144204044Y-117444122D01*
X144204044Y-117444122D02*
X144271898Y-117579830D01*
X144271898Y-117579830D02*
X144339753Y-117647685D01*
X144339753Y-117647685D02*
X144475461Y-117715539D01*
X144475461Y-117715539D02*
X144746878Y-117715539D01*
X144746878Y-117715539D02*
X144882587Y-117647685D01*
X144882587Y-117647685D02*
X144950441Y-117579830D01*
X144950441Y-117579830D02*
X145018295Y-117444122D01*
X145018295Y-117444122D02*
X145018295Y-116290599D01*
X145628984Y-117647685D02*
X145764692Y-117715539D01*
X145764692Y-117715539D02*
X146036109Y-117715539D01*
X146036109Y-117715539D02*
X146171818Y-117647685D01*
X146171818Y-117647685D02*
X146239672Y-117511976D01*
X146239672Y-117511976D02*
X146239672Y-117444122D01*
X146239672Y-117444122D02*
X146171818Y-117308413D01*
X146171818Y-117308413D02*
X146036109Y-117240559D01*
X146036109Y-117240559D02*
X145832547Y-117240559D01*
X145832547Y-117240559D02*
X145696838Y-117172705D01*
X145696838Y-117172705D02*
X145628984Y-117036996D01*
X145628984Y-117036996D02*
X145628984Y-116969142D01*
X145628984Y-116969142D02*
X145696838Y-116833433D01*
X145696838Y-116833433D02*
X145832547Y-116765579D01*
X145832547Y-116765579D02*
X146036109Y-116765579D01*
X146036109Y-116765579D02*
X146171818Y-116833433D01*
X147393195Y-117647685D02*
X147257487Y-117715539D01*
X147257487Y-117715539D02*
X146986070Y-117715539D01*
X146986070Y-117715539D02*
X146850361Y-117647685D01*
X146850361Y-117647685D02*
X146782507Y-117511976D01*
X146782507Y-117511976D02*
X146782507Y-116969142D01*
X146782507Y-116969142D02*
X146850361Y-116833433D01*
X146850361Y-116833433D02*
X146986070Y-116765579D01*
X146986070Y-116765579D02*
X147257487Y-116765579D01*
X147257487Y-116765579D02*
X147393195Y-116833433D01*
X147393195Y-116833433D02*
X147461050Y-116969142D01*
X147461050Y-116969142D02*
X147461050Y-117104850D01*
X147461050Y-117104850D02*
X146782507Y-117240559D01*
X149428824Y-116290599D02*
X149700241Y-116290599D01*
X149700241Y-116290599D02*
X149835950Y-116358453D01*
X149835950Y-116358453D02*
X149971658Y-116494162D01*
X149971658Y-116494162D02*
X150039513Y-116765579D01*
X150039513Y-116765579D02*
X150039513Y-117240559D01*
X150039513Y-117240559D02*
X149971658Y-117511976D01*
X149971658Y-117511976D02*
X149835950Y-117647685D01*
X149835950Y-117647685D02*
X149700241Y-117715539D01*
X149700241Y-117715539D02*
X149428824Y-117715539D01*
X149428824Y-117715539D02*
X149293116Y-117647685D01*
X149293116Y-117647685D02*
X149157407Y-117511976D01*
X149157407Y-117511976D02*
X149089553Y-117240559D01*
X149089553Y-117240559D02*
X149089553Y-116765579D01*
X149089553Y-116765579D02*
X149157407Y-116494162D01*
X149157407Y-116494162D02*
X149293116Y-116358453D01*
X149293116Y-116358453D02*
X149428824Y-116290599D01*
X150650201Y-116765579D02*
X150650201Y-117715539D01*
X150650201Y-116901287D02*
X150718055Y-116833433D01*
X150718055Y-116833433D02*
X150853764Y-116765579D01*
X150853764Y-116765579D02*
X151057327Y-116765579D01*
X151057327Y-116765579D02*
X151193035Y-116833433D01*
X151193035Y-116833433D02*
X151260890Y-116969142D01*
X151260890Y-116969142D02*
X151260890Y-117715539D01*
X152142995Y-117715539D02*
X152007286Y-117647685D01*
X152007286Y-117647685D02*
X151939432Y-117511976D01*
X151939432Y-117511976D02*
X151939432Y-116290599D01*
X152550120Y-116765579D02*
X152889392Y-117715539D01*
X153228663Y-116765579D02*
X152889392Y-117715539D01*
X152889392Y-117715539D02*
X152753683Y-118054810D01*
X152753683Y-118054810D02*
X152685829Y-118122665D01*
X152685829Y-118122665D02*
X152550120Y-118190519D01*
D12*
X112489838Y-88031517D02*
X112442219Y-88126755D01*
X112442219Y-88126755D02*
X112442219Y-88269612D01*
X112442219Y-88269612D02*
X112489838Y-88412469D01*
X112489838Y-88412469D02*
X112585076Y-88507707D01*
X112585076Y-88507707D02*
X112680314Y-88555326D01*
X112680314Y-88555326D02*
X112870790Y-88602945D01*
X112870790Y-88602945D02*
X113013647Y-88602945D01*
X113013647Y-88602945D02*
X113204123Y-88555326D01*
X113204123Y-88555326D02*
X113299361Y-88507707D01*
X113299361Y-88507707D02*
X113394600Y-88412469D01*
X113394600Y-88412469D02*
X113442219Y-88269612D01*
X113442219Y-88269612D02*
X113442219Y-88174374D01*
X113442219Y-88174374D02*
X113394600Y-88031517D01*
X113394600Y-88031517D02*
X113346980Y-87983898D01*
X113346980Y-87983898D02*
X113013647Y-87983898D01*
X113013647Y-87983898D02*
X113013647Y-88174374D01*
X113442219Y-87555326D02*
X112442219Y-87555326D01*
X112442219Y-87555326D02*
X113442219Y-86983898D01*
X113442219Y-86983898D02*
X112442219Y-86983898D01*
X113442219Y-86507707D02*
X112442219Y-86507707D01*
X112442219Y-86507707D02*
X112442219Y-86269612D01*
X112442219Y-86269612D02*
X112489838Y-86126755D01*
X112489838Y-86126755D02*
X112585076Y-86031517D01*
X112585076Y-86031517D02*
X112680314Y-85983898D01*
X112680314Y-85983898D02*
X112870790Y-85936279D01*
X112870790Y-85936279D02*
X113013647Y-85936279D01*
X113013647Y-85936279D02*
X113204123Y-85983898D01*
X113204123Y-85983898D02*
X113299361Y-86031517D01*
X113299361Y-86031517D02*
X113394600Y-86126755D01*
X113394600Y-86126755D02*
X113442219Y-86269612D01*
X113442219Y-86269612D02*
X113442219Y-86507707D01*
X191022054Y-86681504D02*
X191498244Y-86681504D01*
X190926816Y-86967219D02*
X191260149Y-85967219D01*
X191260149Y-85967219D02*
X191593482Y-86967219D01*
X192117292Y-85967219D02*
X192212530Y-85967219D01*
X192212530Y-85967219D02*
X192307768Y-86014838D01*
X192307768Y-86014838D02*
X192355387Y-86062457D01*
X192355387Y-86062457D02*
X192403006Y-86157695D01*
X192403006Y-86157695D02*
X192450625Y-86348171D01*
X192450625Y-86348171D02*
X192450625Y-86586266D01*
X192450625Y-86586266D02*
X192403006Y-86776742D01*
X192403006Y-86776742D02*
X192355387Y-86871980D01*
X192355387Y-86871980D02*
X192307768Y-86919600D01*
X192307768Y-86919600D02*
X192212530Y-86967219D01*
X192212530Y-86967219D02*
X192117292Y-86967219D01*
X192117292Y-86967219D02*
X192022054Y-86919600D01*
X192022054Y-86919600D02*
X191974435Y-86871980D01*
X191974435Y-86871980D02*
X191926816Y-86776742D01*
X191926816Y-86776742D02*
X191879197Y-86586266D01*
X191879197Y-86586266D02*
X191879197Y-86348171D01*
X191879197Y-86348171D02*
X191926816Y-86157695D01*
X191926816Y-86157695D02*
X191974435Y-86062457D01*
X191974435Y-86062457D02*
X192022054Y-86014838D01*
X192022054Y-86014838D02*
X192117292Y-85967219D01*
X114892219Y-86364850D02*
X114892219Y-86174374D01*
X114892219Y-86174374D02*
X114939838Y-86079136D01*
X114939838Y-86079136D02*
X115035076Y-85983898D01*
X115035076Y-85983898D02*
X115225552Y-85936279D01*
X115225552Y-85936279D02*
X115558885Y-85936279D01*
X115558885Y-85936279D02*
X115749361Y-85983898D01*
X115749361Y-85983898D02*
X115844600Y-86079136D01*
X115844600Y-86079136D02*
X115892219Y-86174374D01*
X115892219Y-86174374D02*
X115892219Y-86364850D01*
X115892219Y-86364850D02*
X115844600Y-86460088D01*
X115844600Y-86460088D02*
X115749361Y-86555326D01*
X115749361Y-86555326D02*
X115558885Y-86602945D01*
X115558885Y-86602945D02*
X115225552Y-86602945D01*
X115225552Y-86602945D02*
X115035076Y-86555326D01*
X115035076Y-86555326D02*
X114939838Y-86460088D01*
X114939838Y-86460088D02*
X114892219Y-86364850D01*
X170711695Y-83275564D02*
X170711695Y-82656517D01*
X170711695Y-82656517D02*
X171016457Y-82989850D01*
X171016457Y-82989850D02*
X171016457Y-82846993D01*
X171016457Y-82846993D02*
X171054552Y-82751755D01*
X171054552Y-82751755D02*
X171092647Y-82704136D01*
X171092647Y-82704136D02*
X171168838Y-82656517D01*
X171168838Y-82656517D02*
X171359314Y-82656517D01*
X171359314Y-82656517D02*
X171435504Y-82704136D01*
X171435504Y-82704136D02*
X171473600Y-82751755D01*
X171473600Y-82751755D02*
X171511695Y-82846993D01*
X171511695Y-82846993D02*
X171511695Y-83132707D01*
X171511695Y-83132707D02*
X171473600Y-83227945D01*
X171473600Y-83227945D02*
X171435504Y-83275564D01*
X170711695Y-82370802D02*
X171511695Y-82037469D01*
X171511695Y-82037469D02*
X170711695Y-81704136D01*
X170711695Y-81466040D02*
X170711695Y-80846993D01*
X170711695Y-80846993D02*
X171016457Y-81180326D01*
X171016457Y-81180326D02*
X171016457Y-81037469D01*
X171016457Y-81037469D02*
X171054552Y-80942231D01*
X171054552Y-80942231D02*
X171092647Y-80894612D01*
X171092647Y-80894612D02*
X171168838Y-80846993D01*
X171168838Y-80846993D02*
X171359314Y-80846993D01*
X171359314Y-80846993D02*
X171435504Y-80894612D01*
X171435504Y-80894612D02*
X171473600Y-80942231D01*
X171473600Y-80942231D02*
X171511695Y-81037469D01*
X171511695Y-81037469D02*
X171511695Y-81323183D01*
X171511695Y-81323183D02*
X171473600Y-81418421D01*
X171473600Y-81418421D02*
X171435504Y-81466040D01*
X128516101Y-107092219D02*
X128182768Y-106616028D01*
X127944673Y-107092219D02*
X127944673Y-106092219D01*
X127944673Y-106092219D02*
X128325625Y-106092219D01*
X128325625Y-106092219D02*
X128420863Y-106139838D01*
X128420863Y-106139838D02*
X128468482Y-106187457D01*
X128468482Y-106187457D02*
X128516101Y-106282695D01*
X128516101Y-106282695D02*
X128516101Y-106425552D01*
X128516101Y-106425552D02*
X128468482Y-106520790D01*
X128468482Y-106520790D02*
X128420863Y-106568409D01*
X128420863Y-106568409D02*
X128325625Y-106616028D01*
X128325625Y-106616028D02*
X127944673Y-106616028D01*
X128849435Y-106092219D02*
X129516101Y-107092219D01*
X129516101Y-106092219D02*
X128849435Y-107092219D01*
X121017219Y-86507707D02*
X120017219Y-86507707D01*
X120017219Y-86507707D02*
X120017219Y-86126755D01*
X120017219Y-86126755D02*
X120064838Y-86031517D01*
X120064838Y-86031517D02*
X120112457Y-85983898D01*
X120112457Y-85983898D02*
X120207695Y-85936279D01*
X120207695Y-85936279D02*
X120350552Y-85936279D01*
X120350552Y-85936279D02*
X120445790Y-85983898D01*
X120445790Y-85983898D02*
X120493409Y-86031517D01*
X120493409Y-86031517D02*
X120541028Y-86126755D01*
X120541028Y-86126755D02*
X120541028Y-86507707D01*
X99569673Y-104392219D02*
X99569673Y-103392219D01*
X99569673Y-103392219D02*
X99807768Y-103392219D01*
X99807768Y-103392219D02*
X99950625Y-103439838D01*
X99950625Y-103439838D02*
X100045863Y-103535076D01*
X100045863Y-103535076D02*
X100093482Y-103630314D01*
X100093482Y-103630314D02*
X100141101Y-103820790D01*
X100141101Y-103820790D02*
X100141101Y-103963647D01*
X100141101Y-103963647D02*
X100093482Y-104154123D01*
X100093482Y-104154123D02*
X100045863Y-104249361D01*
X100045863Y-104249361D02*
X99950625Y-104344600D01*
X99950625Y-104344600D02*
X99807768Y-104392219D01*
X99807768Y-104392219D02*
X99569673Y-104392219D01*
X101093482Y-104392219D02*
X100522054Y-104392219D01*
X100807768Y-104392219D02*
X100807768Y-103392219D01*
X100807768Y-103392219D02*
X100712530Y-103535076D01*
X100712530Y-103535076D02*
X100617292Y-103630314D01*
X100617292Y-103630314D02*
X100522054Y-103677933D01*
X101474435Y-103487457D02*
X101522054Y-103439838D01*
X101522054Y-103439838D02*
X101617292Y-103392219D01*
X101617292Y-103392219D02*
X101855387Y-103392219D01*
X101855387Y-103392219D02*
X101950625Y-103439838D01*
X101950625Y-103439838D02*
X101998244Y-103487457D01*
X101998244Y-103487457D02*
X102045863Y-103582695D01*
X102045863Y-103582695D02*
X102045863Y-103677933D01*
X102045863Y-103677933D02*
X101998244Y-103820790D01*
X101998244Y-103820790D02*
X101426816Y-104392219D01*
X101426816Y-104392219D02*
X102045863Y-104392219D01*
X99474435Y-111117219D02*
X100093482Y-111117219D01*
X100093482Y-111117219D02*
X99760149Y-111498171D01*
X99760149Y-111498171D02*
X99903006Y-111498171D01*
X99903006Y-111498171D02*
X99998244Y-111545790D01*
X99998244Y-111545790D02*
X100045863Y-111593409D01*
X100045863Y-111593409D02*
X100093482Y-111688647D01*
X100093482Y-111688647D02*
X100093482Y-111926742D01*
X100093482Y-111926742D02*
X100045863Y-112021980D01*
X100045863Y-112021980D02*
X99998244Y-112069600D01*
X99998244Y-112069600D02*
X99903006Y-112117219D01*
X99903006Y-112117219D02*
X99617292Y-112117219D01*
X99617292Y-112117219D02*
X99522054Y-112069600D01*
X99522054Y-112069600D02*
X99474435Y-112021980D01*
X100379197Y-111117219D02*
X100712530Y-112117219D01*
X100712530Y-112117219D02*
X101045863Y-111117219D01*
X101283959Y-111117219D02*
X101903006Y-111117219D01*
X101903006Y-111117219D02*
X101569673Y-111498171D01*
X101569673Y-111498171D02*
X101712530Y-111498171D01*
X101712530Y-111498171D02*
X101807768Y-111545790D01*
X101807768Y-111545790D02*
X101855387Y-111593409D01*
X101855387Y-111593409D02*
X101903006Y-111688647D01*
X101903006Y-111688647D02*
X101903006Y-111926742D01*
X101903006Y-111926742D02*
X101855387Y-112021980D01*
X101855387Y-112021980D02*
X101807768Y-112069600D01*
X101807768Y-112069600D02*
X101712530Y-112117219D01*
X101712530Y-112117219D02*
X101426816Y-112117219D01*
X101426816Y-112117219D02*
X101331578Y-112069600D01*
X101331578Y-112069600D02*
X101283959Y-112021980D01*
D13*
X199110828Y-117779774D02*
X199110828Y-117494060D01*
X199110828Y-117494060D02*
X199182257Y-117351203D01*
X199182257Y-117351203D02*
X199325114Y-117208346D01*
X199325114Y-117208346D02*
X199610828Y-117136917D01*
X199610828Y-117136917D02*
X200110828Y-117136917D01*
X200110828Y-117136917D02*
X200396542Y-117208346D01*
X200396542Y-117208346D02*
X200539400Y-117351203D01*
X200539400Y-117351203D02*
X200610828Y-117494060D01*
X200610828Y-117494060D02*
X200610828Y-117779774D01*
X200610828Y-117779774D02*
X200539400Y-117922632D01*
X200539400Y-117922632D02*
X200396542Y-118065489D01*
X200396542Y-118065489D02*
X200110828Y-118136917D01*
X200110828Y-118136917D02*
X199610828Y-118136917D01*
X199610828Y-118136917D02*
X199325114Y-118065489D01*
X199325114Y-118065489D02*
X199182257Y-117922632D01*
X199182257Y-117922632D02*
X199110828Y-117779774D01*
X199825114Y-115994060D02*
X199825114Y-116494060D01*
X200610828Y-116494060D02*
X199110828Y-116494060D01*
X199110828Y-116494060D02*
X199110828Y-115779774D01*
X199825114Y-114708346D02*
X199825114Y-115208346D01*
X200610828Y-115208346D02*
X199110828Y-115208346D01*
X199110828Y-115208346D02*
X199110828Y-114494060D01*
D12*
X173933600Y-83227945D02*
X173971695Y-83085088D01*
X173971695Y-83085088D02*
X173971695Y-82846993D01*
X173971695Y-82846993D02*
X173933600Y-82751755D01*
X173933600Y-82751755D02*
X173895504Y-82704136D01*
X173895504Y-82704136D02*
X173819314Y-82656517D01*
X173819314Y-82656517D02*
X173743123Y-82656517D01*
X173743123Y-82656517D02*
X173666933Y-82704136D01*
X173666933Y-82704136D02*
X173628838Y-82751755D01*
X173628838Y-82751755D02*
X173590742Y-82846993D01*
X173590742Y-82846993D02*
X173552647Y-83037469D01*
X173552647Y-83037469D02*
X173514552Y-83132707D01*
X173514552Y-83132707D02*
X173476457Y-83180326D01*
X173476457Y-83180326D02*
X173400266Y-83227945D01*
X173400266Y-83227945D02*
X173324076Y-83227945D01*
X173324076Y-83227945D02*
X173247885Y-83180326D01*
X173247885Y-83180326D02*
X173209790Y-83132707D01*
X173209790Y-83132707D02*
X173171695Y-83037469D01*
X173171695Y-83037469D02*
X173171695Y-82799374D01*
X173171695Y-82799374D02*
X173209790Y-82656517D01*
X173971695Y-82227945D02*
X173171695Y-82227945D01*
X173171695Y-82227945D02*
X173171695Y-81989850D01*
X173171695Y-81989850D02*
X173209790Y-81846993D01*
X173209790Y-81846993D02*
X173285980Y-81751755D01*
X173285980Y-81751755D02*
X173362171Y-81704136D01*
X173362171Y-81704136D02*
X173514552Y-81656517D01*
X173514552Y-81656517D02*
X173628838Y-81656517D01*
X173628838Y-81656517D02*
X173781219Y-81704136D01*
X173781219Y-81704136D02*
X173857409Y-81751755D01*
X173857409Y-81751755D02*
X173933600Y-81846993D01*
X173933600Y-81846993D02*
X173971695Y-81989850D01*
X173971695Y-81989850D02*
X173971695Y-82227945D01*
X173743123Y-81275564D02*
X173743123Y-80799374D01*
X173971695Y-81370802D02*
X173171695Y-81037469D01*
X173171695Y-81037469D02*
X173971695Y-80704136D01*
D16*
X111281176Y-96255864D02*
X111359311Y-96334000D01*
X111359311Y-96334000D02*
X111281176Y-96412135D01*
X111281176Y-96412135D02*
X111203040Y-96334000D01*
X111203040Y-96334000D02*
X111281176Y-96255864D01*
X111281176Y-96255864D02*
X111281176Y-96412135D01*
X112922015Y-96412135D02*
X111984392Y-96412135D01*
X112453204Y-96412135D02*
X112453204Y-94771295D01*
X112453204Y-94771295D02*
X112296933Y-95005700D01*
X112296933Y-95005700D02*
X112140663Y-95161971D01*
X112140663Y-95161971D02*
X111984392Y-95240106D01*
D12*
X185014838Y-82881517D02*
X184967219Y-82976755D01*
X184967219Y-82976755D02*
X184967219Y-83119612D01*
X184967219Y-83119612D02*
X185014838Y-83262469D01*
X185014838Y-83262469D02*
X185110076Y-83357707D01*
X185110076Y-83357707D02*
X185205314Y-83405326D01*
X185205314Y-83405326D02*
X185395790Y-83452945D01*
X185395790Y-83452945D02*
X185538647Y-83452945D01*
X185538647Y-83452945D02*
X185729123Y-83405326D01*
X185729123Y-83405326D02*
X185824361Y-83357707D01*
X185824361Y-83357707D02*
X185919600Y-83262469D01*
X185919600Y-83262469D02*
X185967219Y-83119612D01*
X185967219Y-83119612D02*
X185967219Y-83024374D01*
X185967219Y-83024374D02*
X185919600Y-82881517D01*
X185919600Y-82881517D02*
X185871980Y-82833898D01*
X185871980Y-82833898D02*
X185538647Y-82833898D01*
X185538647Y-82833898D02*
X185538647Y-83024374D01*
X185967219Y-82405326D02*
X184967219Y-82405326D01*
X184967219Y-82405326D02*
X185967219Y-81833898D01*
X185967219Y-81833898D02*
X184967219Y-81833898D01*
X185967219Y-81357707D02*
X184967219Y-81357707D01*
X184967219Y-81357707D02*
X184967219Y-81119612D01*
X184967219Y-81119612D02*
X185014838Y-80976755D01*
X185014838Y-80976755D02*
X185110076Y-80881517D01*
X185110076Y-80881517D02*
X185205314Y-80833898D01*
X185205314Y-80833898D02*
X185395790Y-80786279D01*
X185395790Y-80786279D02*
X185538647Y-80786279D01*
X185538647Y-80786279D02*
X185729123Y-80833898D01*
X185729123Y-80833898D02*
X185824361Y-80881517D01*
X185824361Y-80881517D02*
X185919600Y-80976755D01*
X185919600Y-80976755D02*
X185967219Y-81119612D01*
X185967219Y-81119612D02*
X185967219Y-81357707D01*
D17*
X100413088Y-127884915D02*
X100700954Y-128690942D01*
X100700954Y-128690942D02*
X100988821Y-127884915D01*
X101334261Y-127481902D02*
X102140287Y-127481902D01*
X102140287Y-127481902D02*
X101622127Y-128690942D01*
X102600874Y-128575795D02*
X102658448Y-128633369D01*
X102658448Y-128633369D02*
X102600874Y-128690942D01*
X102600874Y-128690942D02*
X102543301Y-128633369D01*
X102543301Y-128633369D02*
X102600874Y-128575795D01*
X102600874Y-128575795D02*
X102600874Y-128690942D01*
X103061461Y-127481902D02*
X103809914Y-127481902D01*
X103809914Y-127481902D02*
X103406901Y-127942489D01*
X103406901Y-127942489D02*
X103579621Y-127942489D01*
X103579621Y-127942489D02*
X103694767Y-128000062D01*
X103694767Y-128000062D02*
X103752341Y-128057635D01*
X103752341Y-128057635D02*
X103809914Y-128172782D01*
X103809914Y-128172782D02*
X103809914Y-128460649D01*
X103809914Y-128460649D02*
X103752341Y-128575795D01*
X103752341Y-128575795D02*
X103694767Y-128633369D01*
X103694767Y-128633369D02*
X103579621Y-128690942D01*
X103579621Y-128690942D02*
X103234181Y-128690942D01*
X103234181Y-128690942D02*
X103119034Y-128633369D01*
X103119034Y-128633369D02*
X103061461Y-128575795D01*
D12*
X99569673Y-101967219D02*
X99569673Y-100967219D01*
X99569673Y-100967219D02*
X99807768Y-100967219D01*
X99807768Y-100967219D02*
X99950625Y-101014838D01*
X99950625Y-101014838D02*
X100045863Y-101110076D01*
X100045863Y-101110076D02*
X100093482Y-101205314D01*
X100093482Y-101205314D02*
X100141101Y-101395790D01*
X100141101Y-101395790D02*
X100141101Y-101538647D01*
X100141101Y-101538647D02*
X100093482Y-101729123D01*
X100093482Y-101729123D02*
X100045863Y-101824361D01*
X100045863Y-101824361D02*
X99950625Y-101919600D01*
X99950625Y-101919600D02*
X99807768Y-101967219D01*
X99807768Y-101967219D02*
X99569673Y-101967219D01*
X101093482Y-101967219D02*
X100522054Y-101967219D01*
X100807768Y-101967219D02*
X100807768Y-100967219D01*
X100807768Y-100967219D02*
X100712530Y-101110076D01*
X100712530Y-101110076D02*
X100617292Y-101205314D01*
X100617292Y-101205314D02*
X100522054Y-101252933D01*
X102045863Y-101967219D02*
X101474435Y-101967219D01*
X101760149Y-101967219D02*
X101760149Y-100967219D01*
X101760149Y-100967219D02*
X101664911Y-101110076D01*
X101664911Y-101110076D02*
X101569673Y-101205314D01*
X101569673Y-101205314D02*
X101474435Y-101252933D01*
X176266667Y-127979600D02*
X176409524Y-128027219D01*
X176409524Y-128027219D02*
X176647619Y-128027219D01*
X176647619Y-128027219D02*
X176742857Y-127979600D01*
X176742857Y-127979600D02*
X176790476Y-127931980D01*
X176790476Y-127931980D02*
X176838095Y-127836742D01*
X176838095Y-127836742D02*
X176838095Y-127741504D01*
X176838095Y-127741504D02*
X176790476Y-127646266D01*
X176790476Y-127646266D02*
X176742857Y-127598647D01*
X176742857Y-127598647D02*
X176647619Y-127551028D01*
X176647619Y-127551028D02*
X176457143Y-127503409D01*
X176457143Y-127503409D02*
X176361905Y-127455790D01*
X176361905Y-127455790D02*
X176314286Y-127408171D01*
X176314286Y-127408171D02*
X176266667Y-127312933D01*
X176266667Y-127312933D02*
X176266667Y-127217695D01*
X176266667Y-127217695D02*
X176314286Y-127122457D01*
X176314286Y-127122457D02*
X176361905Y-127074838D01*
X176361905Y-127074838D02*
X176457143Y-127027219D01*
X176457143Y-127027219D02*
X176695238Y-127027219D01*
X176695238Y-127027219D02*
X176838095Y-127074838D01*
X177171429Y-127027219D02*
X177409524Y-128027219D01*
X177409524Y-128027219D02*
X177600000Y-127312933D01*
X177600000Y-127312933D02*
X177790476Y-128027219D01*
X177790476Y-128027219D02*
X178028572Y-127027219D01*
X178361905Y-127122457D02*
X178409524Y-127074838D01*
X178409524Y-127074838D02*
X178504762Y-127027219D01*
X178504762Y-127027219D02*
X178742857Y-127027219D01*
X178742857Y-127027219D02*
X178838095Y-127074838D01*
X178838095Y-127074838D02*
X178885714Y-127122457D01*
X178885714Y-127122457D02*
X178933333Y-127217695D01*
X178933333Y-127217695D02*
X178933333Y-127312933D01*
X178933333Y-127312933D02*
X178885714Y-127455790D01*
X178885714Y-127455790D02*
X178314286Y-128027219D01*
X178314286Y-128027219D02*
X178933333Y-128027219D01*
X165182142Y-127777219D02*
X164848809Y-127301028D01*
X164610714Y-127777219D02*
X164610714Y-126777219D01*
X164610714Y-126777219D02*
X164991666Y-126777219D01*
X164991666Y-126777219D02*
X165086904Y-126824838D01*
X165086904Y-126824838D02*
X165134523Y-126872457D01*
X165134523Y-126872457D02*
X165182142Y-126967695D01*
X165182142Y-126967695D02*
X165182142Y-127110552D01*
X165182142Y-127110552D02*
X165134523Y-127205790D01*
X165134523Y-127205790D02*
X165086904Y-127253409D01*
X165086904Y-127253409D02*
X164991666Y-127301028D01*
X164991666Y-127301028D02*
X164610714Y-127301028D01*
X166134523Y-127777219D02*
X165563095Y-127777219D01*
X165848809Y-127777219D02*
X165848809Y-126777219D01*
X165848809Y-126777219D02*
X165753571Y-126920076D01*
X165753571Y-126920076D02*
X165658333Y-127015314D01*
X165658333Y-127015314D02*
X165563095Y-127062933D01*
X166991666Y-126777219D02*
X166801190Y-126777219D01*
X166801190Y-126777219D02*
X166705952Y-126824838D01*
X166705952Y-126824838D02*
X166658333Y-126872457D01*
X166658333Y-126872457D02*
X166563095Y-127015314D01*
X166563095Y-127015314D02*
X166515476Y-127205790D01*
X166515476Y-127205790D02*
X166515476Y-127586742D01*
X166515476Y-127586742D02*
X166563095Y-127681980D01*
X166563095Y-127681980D02*
X166610714Y-127729600D01*
X166610714Y-127729600D02*
X166705952Y-127777219D01*
X166705952Y-127777219D02*
X166896428Y-127777219D01*
X166896428Y-127777219D02*
X166991666Y-127729600D01*
X166991666Y-127729600D02*
X167039285Y-127681980D01*
X167039285Y-127681980D02*
X167086904Y-127586742D01*
X167086904Y-127586742D02*
X167086904Y-127348647D01*
X167086904Y-127348647D02*
X167039285Y-127253409D01*
X167039285Y-127253409D02*
X166991666Y-127205790D01*
X166991666Y-127205790D02*
X166896428Y-127158171D01*
X166896428Y-127158171D02*
X166705952Y-127158171D01*
X166705952Y-127158171D02*
X166610714Y-127205790D01*
X166610714Y-127205790D02*
X166563095Y-127253409D01*
X166563095Y-127253409D02*
X166515476Y-127348647D01*
D18*
X97999543Y-96639346D02*
X98071207Y-96424354D01*
X98071207Y-96424354D02*
X98071207Y-96066032D01*
X98071207Y-96066032D02*
X97999543Y-95922704D01*
X97999543Y-95922704D02*
X97927878Y-95851039D01*
X97927878Y-95851039D02*
X97784550Y-95779375D01*
X97784550Y-95779375D02*
X97641221Y-95779375D01*
X97641221Y-95779375D02*
X97497893Y-95851039D01*
X97497893Y-95851039D02*
X97426228Y-95922704D01*
X97426228Y-95922704D02*
X97354564Y-96066032D01*
X97354564Y-96066032D02*
X97282900Y-96352689D01*
X97282900Y-96352689D02*
X97211235Y-96496018D01*
X97211235Y-96496018D02*
X97139571Y-96567682D01*
X97139571Y-96567682D02*
X96996243Y-96639346D01*
X96996243Y-96639346D02*
X96852914Y-96639346D01*
X96852914Y-96639346D02*
X96709585Y-96567682D01*
X96709585Y-96567682D02*
X96637921Y-96496018D01*
X96637921Y-96496018D02*
X96566257Y-96352689D01*
X96566257Y-96352689D02*
X96566257Y-95994368D01*
X96566257Y-95994368D02*
X96637921Y-95779375D01*
X97927878Y-94274425D02*
X97999543Y-94346089D01*
X97999543Y-94346089D02*
X98071207Y-94561082D01*
X98071207Y-94561082D02*
X98071207Y-94704410D01*
X98071207Y-94704410D02*
X97999543Y-94919403D01*
X97999543Y-94919403D02*
X97856214Y-95062732D01*
X97856214Y-95062732D02*
X97712885Y-95134396D01*
X97712885Y-95134396D02*
X97426228Y-95206060D01*
X97426228Y-95206060D02*
X97211235Y-95206060D01*
X97211235Y-95206060D02*
X96924578Y-95134396D01*
X96924578Y-95134396D02*
X96781250Y-95062732D01*
X96781250Y-95062732D02*
X96637921Y-94919403D01*
X96637921Y-94919403D02*
X96566257Y-94704410D01*
X96566257Y-94704410D02*
X96566257Y-94561082D01*
X96566257Y-94561082D02*
X96637921Y-94346089D01*
X96637921Y-94346089D02*
X96709585Y-94274425D01*
X98071207Y-92769475D02*
X97354564Y-93271125D01*
X98071207Y-93629446D02*
X96566257Y-93629446D01*
X96566257Y-93629446D02*
X96566257Y-93056132D01*
X96566257Y-93056132D02*
X96637921Y-92912803D01*
X96637921Y-92912803D02*
X96709585Y-92841139D01*
X96709585Y-92841139D02*
X96852914Y-92769475D01*
X96852914Y-92769475D02*
X97067907Y-92769475D01*
X97067907Y-92769475D02*
X97211235Y-92841139D01*
X97211235Y-92841139D02*
X97282900Y-92912803D01*
X97282900Y-92912803D02*
X97354564Y-93056132D01*
X97354564Y-93056132D02*
X97354564Y-93629446D01*
X97282900Y-92124496D02*
X97282900Y-91622846D01*
X98071207Y-91407853D02*
X98071207Y-92124496D01*
X98071207Y-92124496D02*
X96566257Y-92124496D01*
X96566257Y-92124496D02*
X96566257Y-91407853D01*
X97282900Y-90762875D02*
X97282900Y-90261225D01*
X98071207Y-90046232D02*
X98071207Y-90762875D01*
X98071207Y-90762875D02*
X96566257Y-90762875D01*
X96566257Y-90762875D02*
X96566257Y-90046232D01*
X98071207Y-89401254D02*
X96566257Y-89401254D01*
X96566257Y-89401254D02*
X98071207Y-88541283D01*
X98071207Y-88541283D02*
X96566257Y-88541283D01*
X96566257Y-87537983D02*
X96566257Y-87394654D01*
X96566257Y-87394654D02*
X96637921Y-87251326D01*
X96637921Y-87251326D02*
X96709585Y-87179662D01*
X96709585Y-87179662D02*
X96852914Y-87107997D01*
X96852914Y-87107997D02*
X97139571Y-87036333D01*
X97139571Y-87036333D02*
X97497893Y-87036333D01*
X97497893Y-87036333D02*
X97784550Y-87107997D01*
X97784550Y-87107997D02*
X97927878Y-87179662D01*
X97927878Y-87179662D02*
X97999543Y-87251326D01*
X97999543Y-87251326D02*
X98071207Y-87394654D01*
X98071207Y-87394654D02*
X98071207Y-87537983D01*
X98071207Y-87537983D02*
X97999543Y-87681312D01*
X97999543Y-87681312D02*
X97927878Y-87752976D01*
X97927878Y-87752976D02*
X97784550Y-87824640D01*
X97784550Y-87824640D02*
X97497893Y-87896304D01*
X97497893Y-87896304D02*
X97139571Y-87896304D01*
X97139571Y-87896304D02*
X96852914Y-87824640D01*
X96852914Y-87824640D02*
X96709585Y-87752976D01*
X96709585Y-87752976D02*
X96637921Y-87681312D01*
X96637921Y-87681312D02*
X96566257Y-87537983D01*
D12*
X165972142Y-113471980D02*
X165924523Y-113519600D01*
X165924523Y-113519600D02*
X165781666Y-113567219D01*
X165781666Y-113567219D02*
X165686428Y-113567219D01*
X165686428Y-113567219D02*
X165543571Y-113519600D01*
X165543571Y-113519600D02*
X165448333Y-113424361D01*
X165448333Y-113424361D02*
X165400714Y-113329123D01*
X165400714Y-113329123D02*
X165353095Y-113138647D01*
X165353095Y-113138647D02*
X165353095Y-112995790D01*
X165353095Y-112995790D02*
X165400714Y-112805314D01*
X165400714Y-112805314D02*
X165448333Y-112710076D01*
X165448333Y-112710076D02*
X165543571Y-112614838D01*
X165543571Y-112614838D02*
X165686428Y-112567219D01*
X165686428Y-112567219D02*
X165781666Y-112567219D01*
X165781666Y-112567219D02*
X165924523Y-112614838D01*
X165924523Y-112614838D02*
X165972142Y-112662457D01*
X166924523Y-113567219D02*
X166353095Y-113567219D01*
X166638809Y-113567219D02*
X166638809Y-112567219D01*
X166638809Y-112567219D02*
X166543571Y-112710076D01*
X166543571Y-112710076D02*
X166448333Y-112805314D01*
X166448333Y-112805314D02*
X166353095Y-112852933D01*
X167495952Y-112995790D02*
X167400714Y-112948171D01*
X167400714Y-112948171D02*
X167353095Y-112900552D01*
X167353095Y-112900552D02*
X167305476Y-112805314D01*
X167305476Y-112805314D02*
X167305476Y-112757695D01*
X167305476Y-112757695D02*
X167353095Y-112662457D01*
X167353095Y-112662457D02*
X167400714Y-112614838D01*
X167400714Y-112614838D02*
X167495952Y-112567219D01*
X167495952Y-112567219D02*
X167686428Y-112567219D01*
X167686428Y-112567219D02*
X167781666Y-112614838D01*
X167781666Y-112614838D02*
X167829285Y-112662457D01*
X167829285Y-112662457D02*
X167876904Y-112757695D01*
X167876904Y-112757695D02*
X167876904Y-112805314D01*
X167876904Y-112805314D02*
X167829285Y-112900552D01*
X167829285Y-112900552D02*
X167781666Y-112948171D01*
X167781666Y-112948171D02*
X167686428Y-112995790D01*
X167686428Y-112995790D02*
X167495952Y-112995790D01*
X167495952Y-112995790D02*
X167400714Y-113043409D01*
X167400714Y-113043409D02*
X167353095Y-113091028D01*
X167353095Y-113091028D02*
X167305476Y-113186266D01*
X167305476Y-113186266D02*
X167305476Y-113376742D01*
X167305476Y-113376742D02*
X167353095Y-113471980D01*
X167353095Y-113471980D02*
X167400714Y-113519600D01*
X167400714Y-113519600D02*
X167495952Y-113567219D01*
X167495952Y-113567219D02*
X167686428Y-113567219D01*
X167686428Y-113567219D02*
X167781666Y-113519600D01*
X167781666Y-113519600D02*
X167829285Y-113471980D01*
X167829285Y-113471980D02*
X167876904Y-113376742D01*
X167876904Y-113376742D02*
X167876904Y-113186266D01*
X167876904Y-113186266D02*
X167829285Y-113091028D01*
X167829285Y-113091028D02*
X167781666Y-113043409D01*
X167781666Y-113043409D02*
X167686428Y-112995790D01*
X167132142Y-107581980D02*
X167084523Y-107629600D01*
X167084523Y-107629600D02*
X166941666Y-107677219D01*
X166941666Y-107677219D02*
X166846428Y-107677219D01*
X166846428Y-107677219D02*
X166703571Y-107629600D01*
X166703571Y-107629600D02*
X166608333Y-107534361D01*
X166608333Y-107534361D02*
X166560714Y-107439123D01*
X166560714Y-107439123D02*
X166513095Y-107248647D01*
X166513095Y-107248647D02*
X166513095Y-107105790D01*
X166513095Y-107105790D02*
X166560714Y-106915314D01*
X166560714Y-106915314D02*
X166608333Y-106820076D01*
X166608333Y-106820076D02*
X166703571Y-106724838D01*
X166703571Y-106724838D02*
X166846428Y-106677219D01*
X166846428Y-106677219D02*
X166941666Y-106677219D01*
X166941666Y-106677219D02*
X167084523Y-106724838D01*
X167084523Y-106724838D02*
X167132142Y-106772457D01*
X168084523Y-107677219D02*
X167513095Y-107677219D01*
X167798809Y-107677219D02*
X167798809Y-106677219D01*
X167798809Y-106677219D02*
X167703571Y-106820076D01*
X167703571Y-106820076D02*
X167608333Y-106915314D01*
X167608333Y-106915314D02*
X167513095Y-106962933D01*
X168417857Y-106677219D02*
X169084523Y-106677219D01*
X169084523Y-106677219D02*
X168655952Y-107677219D01*
X162482142Y-122677219D02*
X162148809Y-122201028D01*
X161910714Y-122677219D02*
X161910714Y-121677219D01*
X161910714Y-121677219D02*
X162291666Y-121677219D01*
X162291666Y-121677219D02*
X162386904Y-121724838D01*
X162386904Y-121724838D02*
X162434523Y-121772457D01*
X162434523Y-121772457D02*
X162482142Y-121867695D01*
X162482142Y-121867695D02*
X162482142Y-122010552D01*
X162482142Y-122010552D02*
X162434523Y-122105790D01*
X162434523Y-122105790D02*
X162386904Y-122153409D01*
X162386904Y-122153409D02*
X162291666Y-122201028D01*
X162291666Y-122201028D02*
X161910714Y-122201028D01*
X163434523Y-122677219D02*
X162863095Y-122677219D01*
X163148809Y-122677219D02*
X163148809Y-121677219D01*
X163148809Y-121677219D02*
X163053571Y-121820076D01*
X163053571Y-121820076D02*
X162958333Y-121915314D01*
X162958333Y-121915314D02*
X162863095Y-121962933D01*
X164053571Y-121677219D02*
X164148809Y-121677219D01*
X164148809Y-121677219D02*
X164244047Y-121724838D01*
X164244047Y-121724838D02*
X164291666Y-121772457D01*
X164291666Y-121772457D02*
X164339285Y-121867695D01*
X164339285Y-121867695D02*
X164386904Y-122058171D01*
X164386904Y-122058171D02*
X164386904Y-122296266D01*
X164386904Y-122296266D02*
X164339285Y-122486742D01*
X164339285Y-122486742D02*
X164291666Y-122581980D01*
X164291666Y-122581980D02*
X164244047Y-122629600D01*
X164244047Y-122629600D02*
X164148809Y-122677219D01*
X164148809Y-122677219D02*
X164053571Y-122677219D01*
X164053571Y-122677219D02*
X163958333Y-122629600D01*
X163958333Y-122629600D02*
X163910714Y-122581980D01*
X163910714Y-122581980D02*
X163863095Y-122486742D01*
X163863095Y-122486742D02*
X163815476Y-122296266D01*
X163815476Y-122296266D02*
X163815476Y-122058171D01*
X163815476Y-122058171D02*
X163863095Y-121867695D01*
X163863095Y-121867695D02*
X163910714Y-121772457D01*
X163910714Y-121772457D02*
X163958333Y-121724838D01*
X163958333Y-121724838D02*
X164053571Y-121677219D01*
X163365476Y-106352219D02*
X164032142Y-107352219D01*
X164032142Y-106352219D02*
X163365476Y-107352219D01*
X164365476Y-106447457D02*
X164413095Y-106399838D01*
X164413095Y-106399838D02*
X164508333Y-106352219D01*
X164508333Y-106352219D02*
X164746428Y-106352219D01*
X164746428Y-106352219D02*
X164841666Y-106399838D01*
X164841666Y-106399838D02*
X164889285Y-106447457D01*
X164889285Y-106447457D02*
X164936904Y-106542695D01*
X164936904Y-106542695D02*
X164936904Y-106637933D01*
X164936904Y-106637933D02*
X164889285Y-106780790D01*
X164889285Y-106780790D02*
X164317857Y-107352219D01*
X164317857Y-107352219D02*
X164936904Y-107352219D01*
X179233333Y-90102219D02*
X178900000Y-89626028D01*
X178661905Y-90102219D02*
X178661905Y-89102219D01*
X178661905Y-89102219D02*
X179042857Y-89102219D01*
X179042857Y-89102219D02*
X179138095Y-89149838D01*
X179138095Y-89149838D02*
X179185714Y-89197457D01*
X179185714Y-89197457D02*
X179233333Y-89292695D01*
X179233333Y-89292695D02*
X179233333Y-89435552D01*
X179233333Y-89435552D02*
X179185714Y-89530790D01*
X179185714Y-89530790D02*
X179138095Y-89578409D01*
X179138095Y-89578409D02*
X179042857Y-89626028D01*
X179042857Y-89626028D02*
X178661905Y-89626028D01*
X180090476Y-89102219D02*
X179900000Y-89102219D01*
X179900000Y-89102219D02*
X179804762Y-89149838D01*
X179804762Y-89149838D02*
X179757143Y-89197457D01*
X179757143Y-89197457D02*
X179661905Y-89340314D01*
X179661905Y-89340314D02*
X179614286Y-89530790D01*
X179614286Y-89530790D02*
X179614286Y-89911742D01*
X179614286Y-89911742D02*
X179661905Y-90006980D01*
X179661905Y-90006980D02*
X179709524Y-90054600D01*
X179709524Y-90054600D02*
X179804762Y-90102219D01*
X179804762Y-90102219D02*
X179995238Y-90102219D01*
X179995238Y-90102219D02*
X180090476Y-90054600D01*
X180090476Y-90054600D02*
X180138095Y-90006980D01*
X180138095Y-90006980D02*
X180185714Y-89911742D01*
X180185714Y-89911742D02*
X180185714Y-89673647D01*
X180185714Y-89673647D02*
X180138095Y-89578409D01*
X180138095Y-89578409D02*
X180090476Y-89530790D01*
X180090476Y-89530790D02*
X179995238Y-89483171D01*
X179995238Y-89483171D02*
X179804762Y-89483171D01*
X179804762Y-89483171D02*
X179709524Y-89530790D01*
X179709524Y-89530790D02*
X179661905Y-89578409D01*
X179661905Y-89578409D02*
X179614286Y-89673647D01*
X170432142Y-119752219D02*
X170098809Y-119276028D01*
X169860714Y-119752219D02*
X169860714Y-118752219D01*
X169860714Y-118752219D02*
X170241666Y-118752219D01*
X170241666Y-118752219D02*
X170336904Y-118799838D01*
X170336904Y-118799838D02*
X170384523Y-118847457D01*
X170384523Y-118847457D02*
X170432142Y-118942695D01*
X170432142Y-118942695D02*
X170432142Y-119085552D01*
X170432142Y-119085552D02*
X170384523Y-119180790D01*
X170384523Y-119180790D02*
X170336904Y-119228409D01*
X170336904Y-119228409D02*
X170241666Y-119276028D01*
X170241666Y-119276028D02*
X169860714Y-119276028D01*
X171384523Y-119752219D02*
X170813095Y-119752219D01*
X171098809Y-119752219D02*
X171098809Y-118752219D01*
X171098809Y-118752219D02*
X171003571Y-118895076D01*
X171003571Y-118895076D02*
X170908333Y-118990314D01*
X170908333Y-118990314D02*
X170813095Y-119037933D01*
X172241666Y-119085552D02*
X172241666Y-119752219D01*
X172003571Y-118704600D02*
X171765476Y-119418885D01*
X171765476Y-119418885D02*
X172384523Y-119418885D01*
X173532142Y-100881980D02*
X173484523Y-100929600D01*
X173484523Y-100929600D02*
X173341666Y-100977219D01*
X173341666Y-100977219D02*
X173246428Y-100977219D01*
X173246428Y-100977219D02*
X173103571Y-100929600D01*
X173103571Y-100929600D02*
X173008333Y-100834361D01*
X173008333Y-100834361D02*
X172960714Y-100739123D01*
X172960714Y-100739123D02*
X172913095Y-100548647D01*
X172913095Y-100548647D02*
X172913095Y-100405790D01*
X172913095Y-100405790D02*
X172960714Y-100215314D01*
X172960714Y-100215314D02*
X173008333Y-100120076D01*
X173008333Y-100120076D02*
X173103571Y-100024838D01*
X173103571Y-100024838D02*
X173246428Y-99977219D01*
X173246428Y-99977219D02*
X173341666Y-99977219D01*
X173341666Y-99977219D02*
X173484523Y-100024838D01*
X173484523Y-100024838D02*
X173532142Y-100072457D01*
X174484523Y-100977219D02*
X173913095Y-100977219D01*
X174198809Y-100977219D02*
X174198809Y-99977219D01*
X174198809Y-99977219D02*
X174103571Y-100120076D01*
X174103571Y-100120076D02*
X174008333Y-100215314D01*
X174008333Y-100215314D02*
X173913095Y-100262933D01*
X175103571Y-99977219D02*
X175198809Y-99977219D01*
X175198809Y-99977219D02*
X175294047Y-100024838D01*
X175294047Y-100024838D02*
X175341666Y-100072457D01*
X175341666Y-100072457D02*
X175389285Y-100167695D01*
X175389285Y-100167695D02*
X175436904Y-100358171D01*
X175436904Y-100358171D02*
X175436904Y-100596266D01*
X175436904Y-100596266D02*
X175389285Y-100786742D01*
X175389285Y-100786742D02*
X175341666Y-100881980D01*
X175341666Y-100881980D02*
X175294047Y-100929600D01*
X175294047Y-100929600D02*
X175198809Y-100977219D01*
X175198809Y-100977219D02*
X175103571Y-100977219D01*
X175103571Y-100977219D02*
X175008333Y-100929600D01*
X175008333Y-100929600D02*
X174960714Y-100881980D01*
X174960714Y-100881980D02*
X174913095Y-100786742D01*
X174913095Y-100786742D02*
X174865476Y-100596266D01*
X174865476Y-100596266D02*
X174865476Y-100358171D01*
X174865476Y-100358171D02*
X174913095Y-100167695D01*
X174913095Y-100167695D02*
X174960714Y-100072457D01*
X174960714Y-100072457D02*
X175008333Y-100024838D01*
X175008333Y-100024838D02*
X175103571Y-99977219D01*
X161782142Y-127727219D02*
X161448809Y-127251028D01*
X161210714Y-127727219D02*
X161210714Y-126727219D01*
X161210714Y-126727219D02*
X161591666Y-126727219D01*
X161591666Y-126727219D02*
X161686904Y-126774838D01*
X161686904Y-126774838D02*
X161734523Y-126822457D01*
X161734523Y-126822457D02*
X161782142Y-126917695D01*
X161782142Y-126917695D02*
X161782142Y-127060552D01*
X161782142Y-127060552D02*
X161734523Y-127155790D01*
X161734523Y-127155790D02*
X161686904Y-127203409D01*
X161686904Y-127203409D02*
X161591666Y-127251028D01*
X161591666Y-127251028D02*
X161210714Y-127251028D01*
X162734523Y-127727219D02*
X162163095Y-127727219D01*
X162448809Y-127727219D02*
X162448809Y-126727219D01*
X162448809Y-126727219D02*
X162353571Y-126870076D01*
X162353571Y-126870076D02*
X162258333Y-126965314D01*
X162258333Y-126965314D02*
X162163095Y-127012933D01*
X163067857Y-126727219D02*
X163734523Y-126727219D01*
X163734523Y-126727219D02*
X163305952Y-127727219D01*
X179233333Y-85756980D02*
X179185714Y-85804600D01*
X179185714Y-85804600D02*
X179042857Y-85852219D01*
X179042857Y-85852219D02*
X178947619Y-85852219D01*
X178947619Y-85852219D02*
X178804762Y-85804600D01*
X178804762Y-85804600D02*
X178709524Y-85709361D01*
X178709524Y-85709361D02*
X178661905Y-85614123D01*
X178661905Y-85614123D02*
X178614286Y-85423647D01*
X178614286Y-85423647D02*
X178614286Y-85280790D01*
X178614286Y-85280790D02*
X178661905Y-85090314D01*
X178661905Y-85090314D02*
X178709524Y-84995076D01*
X178709524Y-84995076D02*
X178804762Y-84899838D01*
X178804762Y-84899838D02*
X178947619Y-84852219D01*
X178947619Y-84852219D02*
X179042857Y-84852219D01*
X179042857Y-84852219D02*
X179185714Y-84899838D01*
X179185714Y-84899838D02*
X179233333Y-84947457D01*
X180185714Y-85852219D02*
X179614286Y-85852219D01*
X179900000Y-85852219D02*
X179900000Y-84852219D01*
X179900000Y-84852219D02*
X179804762Y-84995076D01*
X179804762Y-84995076D02*
X179709524Y-85090314D01*
X179709524Y-85090314D02*
X179614286Y-85137933D01*
X163328006Y-98893409D02*
X163470863Y-98941028D01*
X163470863Y-98941028D02*
X163518482Y-98988647D01*
X163518482Y-98988647D02*
X163566101Y-99083885D01*
X163566101Y-99083885D02*
X163566101Y-99226742D01*
X163566101Y-99226742D02*
X163518482Y-99321980D01*
X163518482Y-99321980D02*
X163470863Y-99369600D01*
X163470863Y-99369600D02*
X163375625Y-99417219D01*
X163375625Y-99417219D02*
X162994673Y-99417219D01*
X162994673Y-99417219D02*
X162994673Y-98417219D01*
X162994673Y-98417219D02*
X163328006Y-98417219D01*
X163328006Y-98417219D02*
X163423244Y-98464838D01*
X163423244Y-98464838D02*
X163470863Y-98512457D01*
X163470863Y-98512457D02*
X163518482Y-98607695D01*
X163518482Y-98607695D02*
X163518482Y-98702933D01*
X163518482Y-98702933D02*
X163470863Y-98798171D01*
X163470863Y-98798171D02*
X163423244Y-98845790D01*
X163423244Y-98845790D02*
X163328006Y-98893409D01*
X163328006Y-98893409D02*
X162994673Y-98893409D01*
X164518482Y-99417219D02*
X163947054Y-99417219D01*
X164232768Y-99417219D02*
X164232768Y-98417219D01*
X164232768Y-98417219D02*
X164137530Y-98560076D01*
X164137530Y-98560076D02*
X164042292Y-98655314D01*
X164042292Y-98655314D02*
X163947054Y-98702933D01*
X195058333Y-112327219D02*
X194582143Y-112327219D01*
X194582143Y-112327219D02*
X194582143Y-111327219D01*
X195344048Y-111422457D02*
X195391667Y-111374838D01*
X195391667Y-111374838D02*
X195486905Y-111327219D01*
X195486905Y-111327219D02*
X195725000Y-111327219D01*
X195725000Y-111327219D02*
X195820238Y-111374838D01*
X195820238Y-111374838D02*
X195867857Y-111422457D01*
X195867857Y-111422457D02*
X195915476Y-111517695D01*
X195915476Y-111517695D02*
X195915476Y-111612933D01*
X195915476Y-111612933D02*
X195867857Y-111755790D01*
X195867857Y-111755790D02*
X195296429Y-112327219D01*
X195296429Y-112327219D02*
X195915476Y-112327219D01*
X190882142Y-110527219D02*
X190548809Y-110051028D01*
X190310714Y-110527219D02*
X190310714Y-109527219D01*
X190310714Y-109527219D02*
X190691666Y-109527219D01*
X190691666Y-109527219D02*
X190786904Y-109574838D01*
X190786904Y-109574838D02*
X190834523Y-109622457D01*
X190834523Y-109622457D02*
X190882142Y-109717695D01*
X190882142Y-109717695D02*
X190882142Y-109860552D01*
X190882142Y-109860552D02*
X190834523Y-109955790D01*
X190834523Y-109955790D02*
X190786904Y-110003409D01*
X190786904Y-110003409D02*
X190691666Y-110051028D01*
X190691666Y-110051028D02*
X190310714Y-110051028D01*
X191834523Y-110527219D02*
X191263095Y-110527219D01*
X191548809Y-110527219D02*
X191548809Y-109527219D01*
X191548809Y-109527219D02*
X191453571Y-109670076D01*
X191453571Y-109670076D02*
X191358333Y-109765314D01*
X191358333Y-109765314D02*
X191263095Y-109812933D01*
X192405952Y-109955790D02*
X192310714Y-109908171D01*
X192310714Y-109908171D02*
X192263095Y-109860552D01*
X192263095Y-109860552D02*
X192215476Y-109765314D01*
X192215476Y-109765314D02*
X192215476Y-109717695D01*
X192215476Y-109717695D02*
X192263095Y-109622457D01*
X192263095Y-109622457D02*
X192310714Y-109574838D01*
X192310714Y-109574838D02*
X192405952Y-109527219D01*
X192405952Y-109527219D02*
X192596428Y-109527219D01*
X192596428Y-109527219D02*
X192691666Y-109574838D01*
X192691666Y-109574838D02*
X192739285Y-109622457D01*
X192739285Y-109622457D02*
X192786904Y-109717695D01*
X192786904Y-109717695D02*
X192786904Y-109765314D01*
X192786904Y-109765314D02*
X192739285Y-109860552D01*
X192739285Y-109860552D02*
X192691666Y-109908171D01*
X192691666Y-109908171D02*
X192596428Y-109955790D01*
X192596428Y-109955790D02*
X192405952Y-109955790D01*
X192405952Y-109955790D02*
X192310714Y-110003409D01*
X192310714Y-110003409D02*
X192263095Y-110051028D01*
X192263095Y-110051028D02*
X192215476Y-110146266D01*
X192215476Y-110146266D02*
X192215476Y-110336742D01*
X192215476Y-110336742D02*
X192263095Y-110431980D01*
X192263095Y-110431980D02*
X192310714Y-110479600D01*
X192310714Y-110479600D02*
X192405952Y-110527219D01*
X192405952Y-110527219D02*
X192596428Y-110527219D01*
X192596428Y-110527219D02*
X192691666Y-110479600D01*
X192691666Y-110479600D02*
X192739285Y-110431980D01*
X192739285Y-110431980D02*
X192786904Y-110336742D01*
X192786904Y-110336742D02*
X192786904Y-110146266D01*
X192786904Y-110146266D02*
X192739285Y-110051028D01*
X192739285Y-110051028D02*
X192691666Y-110003409D01*
X192691666Y-110003409D02*
X192596428Y-109955790D01*
X161773333Y-115272219D02*
X161297143Y-115272219D01*
X161297143Y-115272219D02*
X161297143Y-114272219D01*
X162630476Y-115272219D02*
X162059048Y-115272219D01*
X162344762Y-115272219D02*
X162344762Y-114272219D01*
X162344762Y-114272219D02*
X162249524Y-114415076D01*
X162249524Y-114415076D02*
X162154286Y-114510314D01*
X162154286Y-114510314D02*
X162059048Y-114557933D01*
X190006619Y-81307766D02*
X189530428Y-81641099D01*
X190006619Y-81879194D02*
X189006619Y-81879194D01*
X189006619Y-81879194D02*
X189006619Y-81498242D01*
X189006619Y-81498242D02*
X189054238Y-81403004D01*
X189054238Y-81403004D02*
X189101857Y-81355385D01*
X189101857Y-81355385D02*
X189197095Y-81307766D01*
X189197095Y-81307766D02*
X189339952Y-81307766D01*
X189339952Y-81307766D02*
X189435190Y-81355385D01*
X189435190Y-81355385D02*
X189482809Y-81403004D01*
X189482809Y-81403004D02*
X189530428Y-81498242D01*
X189530428Y-81498242D02*
X189530428Y-81879194D01*
X189006619Y-80403004D02*
X189006619Y-80879194D01*
X189006619Y-80879194D02*
X189482809Y-80926813D01*
X189482809Y-80926813D02*
X189435190Y-80879194D01*
X189435190Y-80879194D02*
X189387571Y-80783956D01*
X189387571Y-80783956D02*
X189387571Y-80545861D01*
X189387571Y-80545861D02*
X189435190Y-80450623D01*
X189435190Y-80450623D02*
X189482809Y-80403004D01*
X189482809Y-80403004D02*
X189578047Y-80355385D01*
X189578047Y-80355385D02*
X189816142Y-80355385D01*
X189816142Y-80355385D02*
X189911380Y-80403004D01*
X189911380Y-80403004D02*
X189959000Y-80450623D01*
X189959000Y-80450623D02*
X190006619Y-80545861D01*
X190006619Y-80545861D02*
X190006619Y-80783956D01*
X190006619Y-80783956D02*
X189959000Y-80879194D01*
X189959000Y-80879194D02*
X189911380Y-80926813D01*
D19*
X132908333Y-123284580D02*
X132860714Y-123332200D01*
X132860714Y-123332200D02*
X132717857Y-123379819D01*
X132717857Y-123379819D02*
X132622619Y-123379819D01*
X132622619Y-123379819D02*
X132479762Y-123332200D01*
X132479762Y-123332200D02*
X132384524Y-123236961D01*
X132384524Y-123236961D02*
X132336905Y-123141723D01*
X132336905Y-123141723D02*
X132289286Y-122951247D01*
X132289286Y-122951247D02*
X132289286Y-122808390D01*
X132289286Y-122808390D02*
X132336905Y-122617914D01*
X132336905Y-122617914D02*
X132384524Y-122522676D01*
X132384524Y-122522676D02*
X132479762Y-122427438D01*
X132479762Y-122427438D02*
X132622619Y-122379819D01*
X132622619Y-122379819D02*
X132717857Y-122379819D01*
X132717857Y-122379819D02*
X132860714Y-122427438D01*
X132860714Y-122427438D02*
X132908333Y-122475057D01*
X133479762Y-122808390D02*
X133384524Y-122760771D01*
X133384524Y-122760771D02*
X133336905Y-122713152D01*
X133336905Y-122713152D02*
X133289286Y-122617914D01*
X133289286Y-122617914D02*
X133289286Y-122570295D01*
X133289286Y-122570295D02*
X133336905Y-122475057D01*
X133336905Y-122475057D02*
X133384524Y-122427438D01*
X133384524Y-122427438D02*
X133479762Y-122379819D01*
X133479762Y-122379819D02*
X133670238Y-122379819D01*
X133670238Y-122379819D02*
X133765476Y-122427438D01*
X133765476Y-122427438D02*
X133813095Y-122475057D01*
X133813095Y-122475057D02*
X133860714Y-122570295D01*
X133860714Y-122570295D02*
X133860714Y-122617914D01*
X133860714Y-122617914D02*
X133813095Y-122713152D01*
X133813095Y-122713152D02*
X133765476Y-122760771D01*
X133765476Y-122760771D02*
X133670238Y-122808390D01*
X133670238Y-122808390D02*
X133479762Y-122808390D01*
X133479762Y-122808390D02*
X133384524Y-122856009D01*
X133384524Y-122856009D02*
X133336905Y-122903628D01*
X133336905Y-122903628D02*
X133289286Y-122998866D01*
X133289286Y-122998866D02*
X133289286Y-123189342D01*
X133289286Y-123189342D02*
X133336905Y-123284580D01*
X133336905Y-123284580D02*
X133384524Y-123332200D01*
X133384524Y-123332200D02*
X133479762Y-123379819D01*
X133479762Y-123379819D02*
X133670238Y-123379819D01*
X133670238Y-123379819D02*
X133765476Y-123332200D01*
X133765476Y-123332200D02*
X133813095Y-123284580D01*
X133813095Y-123284580D02*
X133860714Y-123189342D01*
X133860714Y-123189342D02*
X133860714Y-122998866D01*
X133860714Y-122998866D02*
X133813095Y-122903628D01*
X133813095Y-122903628D02*
X133765476Y-122856009D01*
X133765476Y-122856009D02*
X133670238Y-122808390D01*
D12*
X121161339Y-120012457D02*
X121066101Y-119964838D01*
X121066101Y-119964838D02*
X120970863Y-119869600D01*
X120970863Y-119869600D02*
X120828006Y-119726742D01*
X120828006Y-119726742D02*
X120732768Y-119679123D01*
X120732768Y-119679123D02*
X120637530Y-119679123D01*
X120685149Y-119917219D02*
X120589911Y-119869600D01*
X120589911Y-119869600D02*
X120494673Y-119774361D01*
X120494673Y-119774361D02*
X120447054Y-119583885D01*
X120447054Y-119583885D02*
X120447054Y-119250552D01*
X120447054Y-119250552D02*
X120494673Y-119060076D01*
X120494673Y-119060076D02*
X120589911Y-118964838D01*
X120589911Y-118964838D02*
X120685149Y-118917219D01*
X120685149Y-118917219D02*
X120875625Y-118917219D01*
X120875625Y-118917219D02*
X120970863Y-118964838D01*
X120970863Y-118964838D02*
X121066101Y-119060076D01*
X121066101Y-119060076D02*
X121113720Y-119250552D01*
X121113720Y-119250552D02*
X121113720Y-119583885D01*
X121113720Y-119583885D02*
X121066101Y-119774361D01*
X121066101Y-119774361D02*
X120970863Y-119869600D01*
X120970863Y-119869600D02*
X120875625Y-119917219D01*
X120875625Y-119917219D02*
X120685149Y-119917219D01*
X121494673Y-119012457D02*
X121542292Y-118964838D01*
X121542292Y-118964838D02*
X121637530Y-118917219D01*
X121637530Y-118917219D02*
X121875625Y-118917219D01*
X121875625Y-118917219D02*
X121970863Y-118964838D01*
X121970863Y-118964838D02*
X122018482Y-119012457D01*
X122018482Y-119012457D02*
X122066101Y-119107695D01*
X122066101Y-119107695D02*
X122066101Y-119202933D01*
X122066101Y-119202933D02*
X122018482Y-119345790D01*
X122018482Y-119345790D02*
X121447054Y-119917219D01*
X121447054Y-119917219D02*
X122066101Y-119917219D01*
D20*
X149302419Y-127078333D02*
X150016704Y-127078333D01*
X150016704Y-127078333D02*
X150159561Y-127125952D01*
X150159561Y-127125952D02*
X150254800Y-127221190D01*
X150254800Y-127221190D02*
X150302419Y-127364047D01*
X150302419Y-127364047D02*
X150302419Y-127459285D01*
X150302419Y-126078333D02*
X150302419Y-126649761D01*
X150302419Y-126364047D02*
X149302419Y-126364047D01*
X149302419Y-126364047D02*
X149445276Y-126459285D01*
X149445276Y-126459285D02*
X149540514Y-126554523D01*
X149540514Y-126554523D02*
X149588133Y-126649761D01*
D12*
X159683333Y-122006980D02*
X159635714Y-122054600D01*
X159635714Y-122054600D02*
X159492857Y-122102219D01*
X159492857Y-122102219D02*
X159397619Y-122102219D01*
X159397619Y-122102219D02*
X159254762Y-122054600D01*
X159254762Y-122054600D02*
X159159524Y-121959361D01*
X159159524Y-121959361D02*
X159111905Y-121864123D01*
X159111905Y-121864123D02*
X159064286Y-121673647D01*
X159064286Y-121673647D02*
X159064286Y-121530790D01*
X159064286Y-121530790D02*
X159111905Y-121340314D01*
X159111905Y-121340314D02*
X159159524Y-121245076D01*
X159159524Y-121245076D02*
X159254762Y-121149838D01*
X159254762Y-121149838D02*
X159397619Y-121102219D01*
X159397619Y-121102219D02*
X159492857Y-121102219D01*
X159492857Y-121102219D02*
X159635714Y-121149838D01*
X159635714Y-121149838D02*
X159683333Y-121197457D01*
X160540476Y-121102219D02*
X160350000Y-121102219D01*
X160350000Y-121102219D02*
X160254762Y-121149838D01*
X160254762Y-121149838D02*
X160207143Y-121197457D01*
X160207143Y-121197457D02*
X160111905Y-121340314D01*
X160111905Y-121340314D02*
X160064286Y-121530790D01*
X160064286Y-121530790D02*
X160064286Y-121911742D01*
X160064286Y-121911742D02*
X160111905Y-122006980D01*
X160111905Y-122006980D02*
X160159524Y-122054600D01*
X160159524Y-122054600D02*
X160254762Y-122102219D01*
X160254762Y-122102219D02*
X160445238Y-122102219D01*
X160445238Y-122102219D02*
X160540476Y-122054600D01*
X160540476Y-122054600D02*
X160588095Y-122006980D01*
X160588095Y-122006980D02*
X160635714Y-121911742D01*
X160635714Y-121911742D02*
X160635714Y-121673647D01*
X160635714Y-121673647D02*
X160588095Y-121578409D01*
X160588095Y-121578409D02*
X160540476Y-121530790D01*
X160540476Y-121530790D02*
X160445238Y-121483171D01*
X160445238Y-121483171D02*
X160254762Y-121483171D01*
X160254762Y-121483171D02*
X160159524Y-121530790D01*
X160159524Y-121530790D02*
X160111905Y-121578409D01*
X160111905Y-121578409D02*
X160064286Y-121673647D01*
X102833333Y-117956980D02*
X102785714Y-118004600D01*
X102785714Y-118004600D02*
X102642857Y-118052219D01*
X102642857Y-118052219D02*
X102547619Y-118052219D01*
X102547619Y-118052219D02*
X102404762Y-118004600D01*
X102404762Y-118004600D02*
X102309524Y-117909361D01*
X102309524Y-117909361D02*
X102261905Y-117814123D01*
X102261905Y-117814123D02*
X102214286Y-117623647D01*
X102214286Y-117623647D02*
X102214286Y-117480790D01*
X102214286Y-117480790D02*
X102261905Y-117290314D01*
X102261905Y-117290314D02*
X102309524Y-117195076D01*
X102309524Y-117195076D02*
X102404762Y-117099838D01*
X102404762Y-117099838D02*
X102547619Y-117052219D01*
X102547619Y-117052219D02*
X102642857Y-117052219D01*
X102642857Y-117052219D02*
X102785714Y-117099838D01*
X102785714Y-117099838D02*
X102833333Y-117147457D01*
X103166667Y-117052219D02*
X103785714Y-117052219D01*
X103785714Y-117052219D02*
X103452381Y-117433171D01*
X103452381Y-117433171D02*
X103595238Y-117433171D01*
X103595238Y-117433171D02*
X103690476Y-117480790D01*
X103690476Y-117480790D02*
X103738095Y-117528409D01*
X103738095Y-117528409D02*
X103785714Y-117623647D01*
X103785714Y-117623647D02*
X103785714Y-117861742D01*
X103785714Y-117861742D02*
X103738095Y-117956980D01*
X103738095Y-117956980D02*
X103690476Y-118004600D01*
X103690476Y-118004600D02*
X103595238Y-118052219D01*
X103595238Y-118052219D02*
X103309524Y-118052219D01*
X103309524Y-118052219D02*
X103214286Y-118004600D01*
X103214286Y-118004600D02*
X103166667Y-117956980D01*
X165107142Y-116427219D02*
X164773809Y-115951028D01*
X164535714Y-116427219D02*
X164535714Y-115427219D01*
X164535714Y-115427219D02*
X164916666Y-115427219D01*
X164916666Y-115427219D02*
X165011904Y-115474838D01*
X165011904Y-115474838D02*
X165059523Y-115522457D01*
X165059523Y-115522457D02*
X165107142Y-115617695D01*
X165107142Y-115617695D02*
X165107142Y-115760552D01*
X165107142Y-115760552D02*
X165059523Y-115855790D01*
X165059523Y-115855790D02*
X165011904Y-115903409D01*
X165011904Y-115903409D02*
X164916666Y-115951028D01*
X164916666Y-115951028D02*
X164535714Y-115951028D01*
X166059523Y-116427219D02*
X165488095Y-116427219D01*
X165773809Y-116427219D02*
X165773809Y-115427219D01*
X165773809Y-115427219D02*
X165678571Y-115570076D01*
X165678571Y-115570076D02*
X165583333Y-115665314D01*
X165583333Y-115665314D02*
X165488095Y-115712933D01*
X166440476Y-115522457D02*
X166488095Y-115474838D01*
X166488095Y-115474838D02*
X166583333Y-115427219D01*
X166583333Y-115427219D02*
X166821428Y-115427219D01*
X166821428Y-115427219D02*
X166916666Y-115474838D01*
X166916666Y-115474838D02*
X166964285Y-115522457D01*
X166964285Y-115522457D02*
X167011904Y-115617695D01*
X167011904Y-115617695D02*
X167011904Y-115712933D01*
X167011904Y-115712933D02*
X166964285Y-115855790D01*
X166964285Y-115855790D02*
X166392857Y-116427219D01*
X166392857Y-116427219D02*
X167011904Y-116427219D01*
X104427946Y-113062219D02*
X104427946Y-112062219D01*
X105475564Y-112966980D02*
X105427945Y-113014600D01*
X105427945Y-113014600D02*
X105285088Y-113062219D01*
X105285088Y-113062219D02*
X105189850Y-113062219D01*
X105189850Y-113062219D02*
X105046993Y-113014600D01*
X105046993Y-113014600D02*
X104951755Y-112919361D01*
X104951755Y-112919361D02*
X104904136Y-112824123D01*
X104904136Y-112824123D02*
X104856517Y-112633647D01*
X104856517Y-112633647D02*
X104856517Y-112490790D01*
X104856517Y-112490790D02*
X104904136Y-112300314D01*
X104904136Y-112300314D02*
X104951755Y-112205076D01*
X104951755Y-112205076D02*
X105046993Y-112109838D01*
X105046993Y-112109838D02*
X105189850Y-112062219D01*
X105189850Y-112062219D02*
X105285088Y-112062219D01*
X105285088Y-112062219D02*
X105427945Y-112109838D01*
X105427945Y-112109838D02*
X105475564Y-112157457D01*
X105856517Y-112157457D02*
X105904136Y-112109838D01*
X105904136Y-112109838D02*
X105999374Y-112062219D01*
X105999374Y-112062219D02*
X106237469Y-112062219D01*
X106237469Y-112062219D02*
X106332707Y-112109838D01*
X106332707Y-112109838D02*
X106380326Y-112157457D01*
X106380326Y-112157457D02*
X106427945Y-112252695D01*
X106427945Y-112252695D02*
X106427945Y-112347933D01*
X106427945Y-112347933D02*
X106380326Y-112490790D01*
X106380326Y-112490790D02*
X105808898Y-113062219D01*
X105808898Y-113062219D02*
X106427945Y-113062219D01*
X168200763Y-120060055D02*
X168200763Y-120869578D01*
X168200763Y-120869578D02*
X168248382Y-120964816D01*
X168248382Y-120964816D02*
X168296001Y-121012436D01*
X168296001Y-121012436D02*
X168391239Y-121060055D01*
X168391239Y-121060055D02*
X168581715Y-121060055D01*
X168581715Y-121060055D02*
X168676953Y-121012436D01*
X168676953Y-121012436D02*
X168724572Y-120964816D01*
X168724572Y-120964816D02*
X168772191Y-120869578D01*
X168772191Y-120869578D02*
X168772191Y-120060055D01*
X169153144Y-120060055D02*
X169772191Y-120060055D01*
X169772191Y-120060055D02*
X169438858Y-120441007D01*
X169438858Y-120441007D02*
X169581715Y-120441007D01*
X169581715Y-120441007D02*
X169676953Y-120488626D01*
X169676953Y-120488626D02*
X169724572Y-120536245D01*
X169724572Y-120536245D02*
X169772191Y-120631483D01*
X169772191Y-120631483D02*
X169772191Y-120869578D01*
X169772191Y-120869578D02*
X169724572Y-120964816D01*
X169724572Y-120964816D02*
X169676953Y-121012436D01*
X169676953Y-121012436D02*
X169581715Y-121060055D01*
X169581715Y-121060055D02*
X169296001Y-121060055D01*
X169296001Y-121060055D02*
X169200763Y-121012436D01*
X169200763Y-121012436D02*
X169153144Y-120964816D01*
X180681517Y-102087219D02*
X181348183Y-103087219D01*
X181348183Y-102087219D02*
X180681517Y-103087219D01*
X182252945Y-103087219D02*
X181681517Y-103087219D01*
X181967231Y-103087219D02*
X181967231Y-102087219D01*
X181967231Y-102087219D02*
X181871993Y-102230076D01*
X181871993Y-102230076D02*
X181776755Y-102325314D01*
X181776755Y-102325314D02*
X181681517Y-102372933D01*
X116213333Y-121522219D02*
X115880000Y-121046028D01*
X115641905Y-121522219D02*
X115641905Y-120522219D01*
X115641905Y-120522219D02*
X116022857Y-120522219D01*
X116022857Y-120522219D02*
X116118095Y-120569838D01*
X116118095Y-120569838D02*
X116165714Y-120617457D01*
X116165714Y-120617457D02*
X116213333Y-120712695D01*
X116213333Y-120712695D02*
X116213333Y-120855552D01*
X116213333Y-120855552D02*
X116165714Y-120950790D01*
X116165714Y-120950790D02*
X116118095Y-120998409D01*
X116118095Y-120998409D02*
X116022857Y-121046028D01*
X116022857Y-121046028D02*
X115641905Y-121046028D01*
X116784762Y-120950790D02*
X116689524Y-120903171D01*
X116689524Y-120903171D02*
X116641905Y-120855552D01*
X116641905Y-120855552D02*
X116594286Y-120760314D01*
X116594286Y-120760314D02*
X116594286Y-120712695D01*
X116594286Y-120712695D02*
X116641905Y-120617457D01*
X116641905Y-120617457D02*
X116689524Y-120569838D01*
X116689524Y-120569838D02*
X116784762Y-120522219D01*
X116784762Y-120522219D02*
X116975238Y-120522219D01*
X116975238Y-120522219D02*
X117070476Y-120569838D01*
X117070476Y-120569838D02*
X117118095Y-120617457D01*
X117118095Y-120617457D02*
X117165714Y-120712695D01*
X117165714Y-120712695D02*
X117165714Y-120760314D01*
X117165714Y-120760314D02*
X117118095Y-120855552D01*
X117118095Y-120855552D02*
X117070476Y-120903171D01*
X117070476Y-120903171D02*
X116975238Y-120950790D01*
X116975238Y-120950790D02*
X116784762Y-120950790D01*
X116784762Y-120950790D02*
X116689524Y-120998409D01*
X116689524Y-120998409D02*
X116641905Y-121046028D01*
X116641905Y-121046028D02*
X116594286Y-121141266D01*
X116594286Y-121141266D02*
X116594286Y-121331742D01*
X116594286Y-121331742D02*
X116641905Y-121426980D01*
X116641905Y-121426980D02*
X116689524Y-121474600D01*
X116689524Y-121474600D02*
X116784762Y-121522219D01*
X116784762Y-121522219D02*
X116975238Y-121522219D01*
X116975238Y-121522219D02*
X117070476Y-121474600D01*
X117070476Y-121474600D02*
X117118095Y-121426980D01*
X117118095Y-121426980D02*
X117165714Y-121331742D01*
X117165714Y-121331742D02*
X117165714Y-121141266D01*
X117165714Y-121141266D02*
X117118095Y-121046028D01*
X117118095Y-121046028D02*
X117070476Y-120998409D01*
X117070476Y-120998409D02*
X116975238Y-120950790D01*
X122673810Y-126502219D02*
X122673810Y-125502219D01*
X123721428Y-126406980D02*
X123673809Y-126454600D01*
X123673809Y-126454600D02*
X123530952Y-126502219D01*
X123530952Y-126502219D02*
X123435714Y-126502219D01*
X123435714Y-126502219D02*
X123292857Y-126454600D01*
X123292857Y-126454600D02*
X123197619Y-126359361D01*
X123197619Y-126359361D02*
X123150000Y-126264123D01*
X123150000Y-126264123D02*
X123102381Y-126073647D01*
X123102381Y-126073647D02*
X123102381Y-125930790D01*
X123102381Y-125930790D02*
X123150000Y-125740314D01*
X123150000Y-125740314D02*
X123197619Y-125645076D01*
X123197619Y-125645076D02*
X123292857Y-125549838D01*
X123292857Y-125549838D02*
X123435714Y-125502219D01*
X123435714Y-125502219D02*
X123530952Y-125502219D01*
X123530952Y-125502219D02*
X123673809Y-125549838D01*
X123673809Y-125549838D02*
X123721428Y-125597457D01*
X124673809Y-126502219D02*
X124102381Y-126502219D01*
X124388095Y-126502219D02*
X124388095Y-125502219D01*
X124388095Y-125502219D02*
X124292857Y-125645076D01*
X124292857Y-125645076D02*
X124197619Y-125740314D01*
X124197619Y-125740314D02*
X124102381Y-125787933D01*
X175157142Y-105331980D02*
X175109523Y-105379600D01*
X175109523Y-105379600D02*
X174966666Y-105427219D01*
X174966666Y-105427219D02*
X174871428Y-105427219D01*
X174871428Y-105427219D02*
X174728571Y-105379600D01*
X174728571Y-105379600D02*
X174633333Y-105284361D01*
X174633333Y-105284361D02*
X174585714Y-105189123D01*
X174585714Y-105189123D02*
X174538095Y-104998647D01*
X174538095Y-104998647D02*
X174538095Y-104855790D01*
X174538095Y-104855790D02*
X174585714Y-104665314D01*
X174585714Y-104665314D02*
X174633333Y-104570076D01*
X174633333Y-104570076D02*
X174728571Y-104474838D01*
X174728571Y-104474838D02*
X174871428Y-104427219D01*
X174871428Y-104427219D02*
X174966666Y-104427219D01*
X174966666Y-104427219D02*
X175109523Y-104474838D01*
X175109523Y-104474838D02*
X175157142Y-104522457D01*
X176109523Y-105427219D02*
X175538095Y-105427219D01*
X175823809Y-105427219D02*
X175823809Y-104427219D01*
X175823809Y-104427219D02*
X175728571Y-104570076D01*
X175728571Y-104570076D02*
X175633333Y-104665314D01*
X175633333Y-104665314D02*
X175538095Y-104712933D01*
X176585714Y-105427219D02*
X176776190Y-105427219D01*
X176776190Y-105427219D02*
X176871428Y-105379600D01*
X176871428Y-105379600D02*
X176919047Y-105331980D01*
X176919047Y-105331980D02*
X177014285Y-105189123D01*
X177014285Y-105189123D02*
X177061904Y-104998647D01*
X177061904Y-104998647D02*
X177061904Y-104617695D01*
X177061904Y-104617695D02*
X177014285Y-104522457D01*
X177014285Y-104522457D02*
X176966666Y-104474838D01*
X176966666Y-104474838D02*
X176871428Y-104427219D01*
X176871428Y-104427219D02*
X176680952Y-104427219D01*
X176680952Y-104427219D02*
X176585714Y-104474838D01*
X176585714Y-104474838D02*
X176538095Y-104522457D01*
X176538095Y-104522457D02*
X176490476Y-104617695D01*
X176490476Y-104617695D02*
X176490476Y-104855790D01*
X176490476Y-104855790D02*
X176538095Y-104951028D01*
X176538095Y-104951028D02*
X176585714Y-104998647D01*
X176585714Y-104998647D02*
X176680952Y-105046266D01*
X176680952Y-105046266D02*
X176871428Y-105046266D01*
X176871428Y-105046266D02*
X176966666Y-104998647D01*
X176966666Y-104998647D02*
X177014285Y-104951028D01*
X177014285Y-104951028D02*
X177061904Y-104855790D01*
X181449435Y-113292219D02*
X182116101Y-114292219D01*
X182116101Y-113292219D02*
X181449435Y-114292219D01*
X182925625Y-113625552D02*
X182925625Y-114292219D01*
X182687530Y-113244600D02*
X182449435Y-113958885D01*
X182449435Y-113958885D02*
X183068482Y-113958885D01*
X160442219Y-107642857D02*
X159966028Y-107976190D01*
X160442219Y-108214285D02*
X159442219Y-108214285D01*
X159442219Y-108214285D02*
X159442219Y-107833333D01*
X159442219Y-107833333D02*
X159489838Y-107738095D01*
X159489838Y-107738095D02*
X159537457Y-107690476D01*
X159537457Y-107690476D02*
X159632695Y-107642857D01*
X159632695Y-107642857D02*
X159775552Y-107642857D01*
X159775552Y-107642857D02*
X159870790Y-107690476D01*
X159870790Y-107690476D02*
X159918409Y-107738095D01*
X159918409Y-107738095D02*
X159966028Y-107833333D01*
X159966028Y-107833333D02*
X159966028Y-108214285D01*
X160442219Y-106690476D02*
X160442219Y-107261904D01*
X160442219Y-106976190D02*
X159442219Y-106976190D01*
X159442219Y-106976190D02*
X159585076Y-107071428D01*
X159585076Y-107071428D02*
X159680314Y-107166666D01*
X159680314Y-107166666D02*
X159727933Y-107261904D01*
X159442219Y-105785714D02*
X159442219Y-106261904D01*
X159442219Y-106261904D02*
X159918409Y-106309523D01*
X159918409Y-106309523D02*
X159870790Y-106261904D01*
X159870790Y-106261904D02*
X159823171Y-106166666D01*
X159823171Y-106166666D02*
X159823171Y-105928571D01*
X159823171Y-105928571D02*
X159870790Y-105833333D01*
X159870790Y-105833333D02*
X159918409Y-105785714D01*
X159918409Y-105785714D02*
X160013647Y-105738095D01*
X160013647Y-105738095D02*
X160251742Y-105738095D01*
X160251742Y-105738095D02*
X160346980Y-105785714D01*
X160346980Y-105785714D02*
X160394600Y-105833333D01*
X160394600Y-105833333D02*
X160442219Y-105928571D01*
X160442219Y-105928571D02*
X160442219Y-106166666D01*
X160442219Y-106166666D02*
X160394600Y-106261904D01*
X160394600Y-106261904D02*
X160346980Y-106309523D01*
X190982142Y-106677219D02*
X190648809Y-106201028D01*
X190410714Y-106677219D02*
X190410714Y-105677219D01*
X190410714Y-105677219D02*
X190791666Y-105677219D01*
X190791666Y-105677219D02*
X190886904Y-105724838D01*
X190886904Y-105724838D02*
X190934523Y-105772457D01*
X190934523Y-105772457D02*
X190982142Y-105867695D01*
X190982142Y-105867695D02*
X190982142Y-106010552D01*
X190982142Y-106010552D02*
X190934523Y-106105790D01*
X190934523Y-106105790D02*
X190886904Y-106153409D01*
X190886904Y-106153409D02*
X190791666Y-106201028D01*
X190791666Y-106201028D02*
X190410714Y-106201028D01*
X191934523Y-106677219D02*
X191363095Y-106677219D01*
X191648809Y-106677219D02*
X191648809Y-105677219D01*
X191648809Y-105677219D02*
X191553571Y-105820076D01*
X191553571Y-105820076D02*
X191458333Y-105915314D01*
X191458333Y-105915314D02*
X191363095Y-105962933D01*
X192886904Y-106677219D02*
X192315476Y-106677219D01*
X192601190Y-106677219D02*
X192601190Y-105677219D01*
X192601190Y-105677219D02*
X192505952Y-105820076D01*
X192505952Y-105820076D02*
X192410714Y-105915314D01*
X192410714Y-105915314D02*
X192315476Y-105962933D01*
X159413333Y-115262219D02*
X158937143Y-115262219D01*
X158937143Y-115262219D02*
X158937143Y-114262219D01*
X159937143Y-114262219D02*
X160032381Y-114262219D01*
X160032381Y-114262219D02*
X160127619Y-114309838D01*
X160127619Y-114309838D02*
X160175238Y-114357457D01*
X160175238Y-114357457D02*
X160222857Y-114452695D01*
X160222857Y-114452695D02*
X160270476Y-114643171D01*
X160270476Y-114643171D02*
X160270476Y-114881266D01*
X160270476Y-114881266D02*
X160222857Y-115071742D01*
X160222857Y-115071742D02*
X160175238Y-115166980D01*
X160175238Y-115166980D02*
X160127619Y-115214600D01*
X160127619Y-115214600D02*
X160032381Y-115262219D01*
X160032381Y-115262219D02*
X159937143Y-115262219D01*
X159937143Y-115262219D02*
X159841905Y-115214600D01*
X159841905Y-115214600D02*
X159794286Y-115166980D01*
X159794286Y-115166980D02*
X159746667Y-115071742D01*
X159746667Y-115071742D02*
X159699048Y-114881266D01*
X159699048Y-114881266D02*
X159699048Y-114643171D01*
X159699048Y-114643171D02*
X159746667Y-114452695D01*
X159746667Y-114452695D02*
X159794286Y-114357457D01*
X159794286Y-114357457D02*
X159841905Y-114309838D01*
X159841905Y-114309838D02*
X159937143Y-114262219D01*
X177673810Y-91952219D02*
X177673810Y-90952219D01*
X178721428Y-91856980D02*
X178673809Y-91904600D01*
X178673809Y-91904600D02*
X178530952Y-91952219D01*
X178530952Y-91952219D02*
X178435714Y-91952219D01*
X178435714Y-91952219D02*
X178292857Y-91904600D01*
X178292857Y-91904600D02*
X178197619Y-91809361D01*
X178197619Y-91809361D02*
X178150000Y-91714123D01*
X178150000Y-91714123D02*
X178102381Y-91523647D01*
X178102381Y-91523647D02*
X178102381Y-91380790D01*
X178102381Y-91380790D02*
X178150000Y-91190314D01*
X178150000Y-91190314D02*
X178197619Y-91095076D01*
X178197619Y-91095076D02*
X178292857Y-90999838D01*
X178292857Y-90999838D02*
X178435714Y-90952219D01*
X178435714Y-90952219D02*
X178530952Y-90952219D01*
X178530952Y-90952219D02*
X178673809Y-90999838D01*
X178673809Y-90999838D02*
X178721428Y-91047457D01*
X179578571Y-91285552D02*
X179578571Y-91952219D01*
X179340476Y-90904600D02*
X179102381Y-91618885D01*
X179102381Y-91618885D02*
X179721428Y-91618885D01*
X184756980Y-106642857D02*
X184804600Y-106690476D01*
X184804600Y-106690476D02*
X184852219Y-106833333D01*
X184852219Y-106833333D02*
X184852219Y-106928571D01*
X184852219Y-106928571D02*
X184804600Y-107071428D01*
X184804600Y-107071428D02*
X184709361Y-107166666D01*
X184709361Y-107166666D02*
X184614123Y-107214285D01*
X184614123Y-107214285D02*
X184423647Y-107261904D01*
X184423647Y-107261904D02*
X184280790Y-107261904D01*
X184280790Y-107261904D02*
X184090314Y-107214285D01*
X184090314Y-107214285D02*
X183995076Y-107166666D01*
X183995076Y-107166666D02*
X183899838Y-107071428D01*
X183899838Y-107071428D02*
X183852219Y-106928571D01*
X183852219Y-106928571D02*
X183852219Y-106833333D01*
X183852219Y-106833333D02*
X183899838Y-106690476D01*
X183899838Y-106690476D02*
X183947457Y-106642857D01*
X184852219Y-105690476D02*
X184852219Y-106261904D01*
X184852219Y-105976190D02*
X183852219Y-105976190D01*
X183852219Y-105976190D02*
X183995076Y-106071428D01*
X183995076Y-106071428D02*
X184090314Y-106166666D01*
X184090314Y-106166666D02*
X184137933Y-106261904D01*
X183852219Y-104785714D02*
X183852219Y-105261904D01*
X183852219Y-105261904D02*
X184328409Y-105309523D01*
X184328409Y-105309523D02*
X184280790Y-105261904D01*
X184280790Y-105261904D02*
X184233171Y-105166666D01*
X184233171Y-105166666D02*
X184233171Y-104928571D01*
X184233171Y-104928571D02*
X184280790Y-104833333D01*
X184280790Y-104833333D02*
X184328409Y-104785714D01*
X184328409Y-104785714D02*
X184423647Y-104738095D01*
X184423647Y-104738095D02*
X184661742Y-104738095D01*
X184661742Y-104738095D02*
X184756980Y-104785714D01*
X184756980Y-104785714D02*
X184804600Y-104833333D01*
X184804600Y-104833333D02*
X184852219Y-104928571D01*
X184852219Y-104928571D02*
X184852219Y-105166666D01*
X184852219Y-105166666D02*
X184804600Y-105261904D01*
X184804600Y-105261904D02*
X184756980Y-105309523D01*
X146533333Y-121981980D02*
X146485714Y-122029600D01*
X146485714Y-122029600D02*
X146342857Y-122077219D01*
X146342857Y-122077219D02*
X146247619Y-122077219D01*
X146247619Y-122077219D02*
X146104762Y-122029600D01*
X146104762Y-122029600D02*
X146009524Y-121934361D01*
X146009524Y-121934361D02*
X145961905Y-121839123D01*
X145961905Y-121839123D02*
X145914286Y-121648647D01*
X145914286Y-121648647D02*
X145914286Y-121505790D01*
X145914286Y-121505790D02*
X145961905Y-121315314D01*
X145961905Y-121315314D02*
X146009524Y-121220076D01*
X146009524Y-121220076D02*
X146104762Y-121124838D01*
X146104762Y-121124838D02*
X146247619Y-121077219D01*
X146247619Y-121077219D02*
X146342857Y-121077219D01*
X146342857Y-121077219D02*
X146485714Y-121124838D01*
X146485714Y-121124838D02*
X146533333Y-121172457D01*
X146866667Y-121077219D02*
X147533333Y-121077219D01*
X147533333Y-121077219D02*
X147104762Y-122077219D01*
X113258333Y-127466980D02*
X113210714Y-127514600D01*
X113210714Y-127514600D02*
X113067857Y-127562219D01*
X113067857Y-127562219D02*
X112972619Y-127562219D01*
X112972619Y-127562219D02*
X112829762Y-127514600D01*
X112829762Y-127514600D02*
X112734524Y-127419361D01*
X112734524Y-127419361D02*
X112686905Y-127324123D01*
X112686905Y-127324123D02*
X112639286Y-127133647D01*
X112639286Y-127133647D02*
X112639286Y-126990790D01*
X112639286Y-126990790D02*
X112686905Y-126800314D01*
X112686905Y-126800314D02*
X112734524Y-126705076D01*
X112734524Y-126705076D02*
X112829762Y-126609838D01*
X112829762Y-126609838D02*
X112972619Y-126562219D01*
X112972619Y-126562219D02*
X113067857Y-126562219D01*
X113067857Y-126562219D02*
X113210714Y-126609838D01*
X113210714Y-126609838D02*
X113258333Y-126657457D01*
X114115476Y-126895552D02*
X114115476Y-127562219D01*
X113877381Y-126514600D02*
X113639286Y-127228885D01*
X113639286Y-127228885D02*
X114258333Y-127228885D01*
X168207142Y-104206980D02*
X168159523Y-104254600D01*
X168159523Y-104254600D02*
X168016666Y-104302219D01*
X168016666Y-104302219D02*
X167921428Y-104302219D01*
X167921428Y-104302219D02*
X167778571Y-104254600D01*
X167778571Y-104254600D02*
X167683333Y-104159361D01*
X167683333Y-104159361D02*
X167635714Y-104064123D01*
X167635714Y-104064123D02*
X167588095Y-103873647D01*
X167588095Y-103873647D02*
X167588095Y-103730790D01*
X167588095Y-103730790D02*
X167635714Y-103540314D01*
X167635714Y-103540314D02*
X167683333Y-103445076D01*
X167683333Y-103445076D02*
X167778571Y-103349838D01*
X167778571Y-103349838D02*
X167921428Y-103302219D01*
X167921428Y-103302219D02*
X168016666Y-103302219D01*
X168016666Y-103302219D02*
X168159523Y-103349838D01*
X168159523Y-103349838D02*
X168207142Y-103397457D01*
X169159523Y-104302219D02*
X168588095Y-104302219D01*
X168873809Y-104302219D02*
X168873809Y-103302219D01*
X168873809Y-103302219D02*
X168778571Y-103445076D01*
X168778571Y-103445076D02*
X168683333Y-103540314D01*
X168683333Y-103540314D02*
X168588095Y-103587933D01*
X169540476Y-103397457D02*
X169588095Y-103349838D01*
X169588095Y-103349838D02*
X169683333Y-103302219D01*
X169683333Y-103302219D02*
X169921428Y-103302219D01*
X169921428Y-103302219D02*
X170016666Y-103349838D01*
X170016666Y-103349838D02*
X170064285Y-103397457D01*
X170064285Y-103397457D02*
X170111904Y-103492695D01*
X170111904Y-103492695D02*
X170111904Y-103587933D01*
X170111904Y-103587933D02*
X170064285Y-103730790D01*
X170064285Y-103730790D02*
X169492857Y-104302219D01*
X169492857Y-104302219D02*
X170111904Y-104302219D01*
X162377219Y-107642857D02*
X161901028Y-107976190D01*
X162377219Y-108214285D02*
X161377219Y-108214285D01*
X161377219Y-108214285D02*
X161377219Y-107833333D01*
X161377219Y-107833333D02*
X161424838Y-107738095D01*
X161424838Y-107738095D02*
X161472457Y-107690476D01*
X161472457Y-107690476D02*
X161567695Y-107642857D01*
X161567695Y-107642857D02*
X161710552Y-107642857D01*
X161710552Y-107642857D02*
X161805790Y-107690476D01*
X161805790Y-107690476D02*
X161853409Y-107738095D01*
X161853409Y-107738095D02*
X161901028Y-107833333D01*
X161901028Y-107833333D02*
X161901028Y-108214285D01*
X162377219Y-106690476D02*
X162377219Y-107261904D01*
X162377219Y-106976190D02*
X161377219Y-106976190D01*
X161377219Y-106976190D02*
X161520076Y-107071428D01*
X161520076Y-107071428D02*
X161615314Y-107166666D01*
X161615314Y-107166666D02*
X161662933Y-107261904D01*
X161377219Y-106357142D02*
X161377219Y-105738095D01*
X161377219Y-105738095D02*
X161758171Y-106071428D01*
X161758171Y-106071428D02*
X161758171Y-105928571D01*
X161758171Y-105928571D02*
X161805790Y-105833333D01*
X161805790Y-105833333D02*
X161853409Y-105785714D01*
X161853409Y-105785714D02*
X161948647Y-105738095D01*
X161948647Y-105738095D02*
X162186742Y-105738095D01*
X162186742Y-105738095D02*
X162281980Y-105785714D01*
X162281980Y-105785714D02*
X162329600Y-105833333D01*
X162329600Y-105833333D02*
X162377219Y-105928571D01*
X162377219Y-105928571D02*
X162377219Y-106214285D01*
X162377219Y-106214285D02*
X162329600Y-106309523D01*
X162329600Y-106309523D02*
X162281980Y-106357142D01*
X177034673Y-107292219D02*
X177034673Y-108101742D01*
X177034673Y-108101742D02*
X177082292Y-108196980D01*
X177082292Y-108196980D02*
X177129911Y-108244600D01*
X177129911Y-108244600D02*
X177225149Y-108292219D01*
X177225149Y-108292219D02*
X177415625Y-108292219D01*
X177415625Y-108292219D02*
X177510863Y-108244600D01*
X177510863Y-108244600D02*
X177558482Y-108196980D01*
X177558482Y-108196980D02*
X177606101Y-108101742D01*
X177606101Y-108101742D02*
X177606101Y-107292219D01*
X178606101Y-108292219D02*
X178034673Y-108292219D01*
X178320387Y-108292219D02*
X178320387Y-107292219D01*
X178320387Y-107292219D02*
X178225149Y-107435076D01*
X178225149Y-107435076D02*
X178129911Y-107530314D01*
X178129911Y-107530314D02*
X178034673Y-107577933D01*
X177133333Y-89856980D02*
X177085714Y-89904600D01*
X177085714Y-89904600D02*
X176942857Y-89952219D01*
X176942857Y-89952219D02*
X176847619Y-89952219D01*
X176847619Y-89952219D02*
X176704762Y-89904600D01*
X176704762Y-89904600D02*
X176609524Y-89809361D01*
X176609524Y-89809361D02*
X176561905Y-89714123D01*
X176561905Y-89714123D02*
X176514286Y-89523647D01*
X176514286Y-89523647D02*
X176514286Y-89380790D01*
X176514286Y-89380790D02*
X176561905Y-89190314D01*
X176561905Y-89190314D02*
X176609524Y-89095076D01*
X176609524Y-89095076D02*
X176704762Y-88999838D01*
X176704762Y-88999838D02*
X176847619Y-88952219D01*
X176847619Y-88952219D02*
X176942857Y-88952219D01*
X176942857Y-88952219D02*
X177085714Y-88999838D01*
X177085714Y-88999838D02*
X177133333Y-89047457D01*
X177514286Y-89047457D02*
X177561905Y-88999838D01*
X177561905Y-88999838D02*
X177657143Y-88952219D01*
X177657143Y-88952219D02*
X177895238Y-88952219D01*
X177895238Y-88952219D02*
X177990476Y-88999838D01*
X177990476Y-88999838D02*
X178038095Y-89047457D01*
X178038095Y-89047457D02*
X178085714Y-89142695D01*
X178085714Y-89142695D02*
X178085714Y-89237933D01*
X178085714Y-89237933D02*
X178038095Y-89380790D01*
X178038095Y-89380790D02*
X177466667Y-89952219D01*
X177466667Y-89952219D02*
X178085714Y-89952219D01*
X189682142Y-114077219D02*
X189348809Y-113601028D01*
X189110714Y-114077219D02*
X189110714Y-113077219D01*
X189110714Y-113077219D02*
X189491666Y-113077219D01*
X189491666Y-113077219D02*
X189586904Y-113124838D01*
X189586904Y-113124838D02*
X189634523Y-113172457D01*
X189634523Y-113172457D02*
X189682142Y-113267695D01*
X189682142Y-113267695D02*
X189682142Y-113410552D01*
X189682142Y-113410552D02*
X189634523Y-113505790D01*
X189634523Y-113505790D02*
X189586904Y-113553409D01*
X189586904Y-113553409D02*
X189491666Y-113601028D01*
X189491666Y-113601028D02*
X189110714Y-113601028D01*
X190634523Y-114077219D02*
X190063095Y-114077219D01*
X190348809Y-114077219D02*
X190348809Y-113077219D01*
X190348809Y-113077219D02*
X190253571Y-113220076D01*
X190253571Y-113220076D02*
X190158333Y-113315314D01*
X190158333Y-113315314D02*
X190063095Y-113362933D01*
X191110714Y-114077219D02*
X191301190Y-114077219D01*
X191301190Y-114077219D02*
X191396428Y-114029600D01*
X191396428Y-114029600D02*
X191444047Y-113981980D01*
X191444047Y-113981980D02*
X191539285Y-113839123D01*
X191539285Y-113839123D02*
X191586904Y-113648647D01*
X191586904Y-113648647D02*
X191586904Y-113267695D01*
X191586904Y-113267695D02*
X191539285Y-113172457D01*
X191539285Y-113172457D02*
X191491666Y-113124838D01*
X191491666Y-113124838D02*
X191396428Y-113077219D01*
X191396428Y-113077219D02*
X191205952Y-113077219D01*
X191205952Y-113077219D02*
X191110714Y-113124838D01*
X191110714Y-113124838D02*
X191063095Y-113172457D01*
X191063095Y-113172457D02*
X191015476Y-113267695D01*
X191015476Y-113267695D02*
X191015476Y-113505790D01*
X191015476Y-113505790D02*
X191063095Y-113601028D01*
X191063095Y-113601028D02*
X191110714Y-113648647D01*
X191110714Y-113648647D02*
X191205952Y-113696266D01*
X191205952Y-113696266D02*
X191396428Y-113696266D01*
X191396428Y-113696266D02*
X191491666Y-113648647D01*
X191491666Y-113648647D02*
X191539285Y-113601028D01*
X191539285Y-113601028D02*
X191586904Y-113505790D01*
X184332142Y-113081980D02*
X184284523Y-113129600D01*
X184284523Y-113129600D02*
X184141666Y-113177219D01*
X184141666Y-113177219D02*
X184046428Y-113177219D01*
X184046428Y-113177219D02*
X183903571Y-113129600D01*
X183903571Y-113129600D02*
X183808333Y-113034361D01*
X183808333Y-113034361D02*
X183760714Y-112939123D01*
X183760714Y-112939123D02*
X183713095Y-112748647D01*
X183713095Y-112748647D02*
X183713095Y-112605790D01*
X183713095Y-112605790D02*
X183760714Y-112415314D01*
X183760714Y-112415314D02*
X183808333Y-112320076D01*
X183808333Y-112320076D02*
X183903571Y-112224838D01*
X183903571Y-112224838D02*
X184046428Y-112177219D01*
X184046428Y-112177219D02*
X184141666Y-112177219D01*
X184141666Y-112177219D02*
X184284523Y-112224838D01*
X184284523Y-112224838D02*
X184332142Y-112272457D01*
X185284523Y-113177219D02*
X184713095Y-113177219D01*
X184998809Y-113177219D02*
X184998809Y-112177219D01*
X184998809Y-112177219D02*
X184903571Y-112320076D01*
X184903571Y-112320076D02*
X184808333Y-112415314D01*
X184808333Y-112415314D02*
X184713095Y-112462933D01*
X186141666Y-112510552D02*
X186141666Y-113177219D01*
X185903571Y-112129600D02*
X185665476Y-112843885D01*
X185665476Y-112843885D02*
X186284523Y-112843885D01*
X144649435Y-127567219D02*
X145316101Y-128567219D01*
X145316101Y-127567219D02*
X144649435Y-128567219D01*
X146173244Y-127567219D02*
X145697054Y-127567219D01*
X145697054Y-127567219D02*
X145649435Y-128043409D01*
X145649435Y-128043409D02*
X145697054Y-127995790D01*
X145697054Y-127995790D02*
X145792292Y-127948171D01*
X145792292Y-127948171D02*
X146030387Y-127948171D01*
X146030387Y-127948171D02*
X146125625Y-127995790D01*
X146125625Y-127995790D02*
X146173244Y-128043409D01*
X146173244Y-128043409D02*
X146220863Y-128138647D01*
X146220863Y-128138647D02*
X146220863Y-128376742D01*
X146220863Y-128376742D02*
X146173244Y-128471980D01*
X146173244Y-128471980D02*
X146125625Y-128519600D01*
X146125625Y-128519600D02*
X146030387Y-128567219D01*
X146030387Y-128567219D02*
X145792292Y-128567219D01*
X145792292Y-128567219D02*
X145697054Y-128519600D01*
X145697054Y-128519600D02*
X145649435Y-128471980D01*
X183156980Y-106742857D02*
X183204600Y-106790476D01*
X183204600Y-106790476D02*
X183252219Y-106933333D01*
X183252219Y-106933333D02*
X183252219Y-107028571D01*
X183252219Y-107028571D02*
X183204600Y-107171428D01*
X183204600Y-107171428D02*
X183109361Y-107266666D01*
X183109361Y-107266666D02*
X183014123Y-107314285D01*
X183014123Y-107314285D02*
X182823647Y-107361904D01*
X182823647Y-107361904D02*
X182680790Y-107361904D01*
X182680790Y-107361904D02*
X182490314Y-107314285D01*
X182490314Y-107314285D02*
X182395076Y-107266666D01*
X182395076Y-107266666D02*
X182299838Y-107171428D01*
X182299838Y-107171428D02*
X182252219Y-107028571D01*
X182252219Y-107028571D02*
X182252219Y-106933333D01*
X182252219Y-106933333D02*
X182299838Y-106790476D01*
X182299838Y-106790476D02*
X182347457Y-106742857D01*
X183252219Y-105790476D02*
X183252219Y-106361904D01*
X183252219Y-106076190D02*
X182252219Y-106076190D01*
X182252219Y-106076190D02*
X182395076Y-106171428D01*
X182395076Y-106171428D02*
X182490314Y-106266666D01*
X182490314Y-106266666D02*
X182537933Y-106361904D01*
X182252219Y-105457142D02*
X182252219Y-104838095D01*
X182252219Y-104838095D02*
X182633171Y-105171428D01*
X182633171Y-105171428D02*
X182633171Y-105028571D01*
X182633171Y-105028571D02*
X182680790Y-104933333D01*
X182680790Y-104933333D02*
X182728409Y-104885714D01*
X182728409Y-104885714D02*
X182823647Y-104838095D01*
X182823647Y-104838095D02*
X183061742Y-104838095D01*
X183061742Y-104838095D02*
X183156980Y-104885714D01*
X183156980Y-104885714D02*
X183204600Y-104933333D01*
X183204600Y-104933333D02*
X183252219Y-105028571D01*
X183252219Y-105028571D02*
X183252219Y-105314285D01*
X183252219Y-105314285D02*
X183204600Y-105409523D01*
X183204600Y-105409523D02*
X183156980Y-105457142D01*
X188372619Y-81407766D02*
X187896428Y-81741099D01*
X188372619Y-81979194D02*
X187372619Y-81979194D01*
X187372619Y-81979194D02*
X187372619Y-81598242D01*
X187372619Y-81598242D02*
X187420238Y-81503004D01*
X187420238Y-81503004D02*
X187467857Y-81455385D01*
X187467857Y-81455385D02*
X187563095Y-81407766D01*
X187563095Y-81407766D02*
X187705952Y-81407766D01*
X187705952Y-81407766D02*
X187801190Y-81455385D01*
X187801190Y-81455385D02*
X187848809Y-81503004D01*
X187848809Y-81503004D02*
X187896428Y-81598242D01*
X187896428Y-81598242D02*
X187896428Y-81979194D01*
X187705952Y-80550623D02*
X188372619Y-80550623D01*
X187325000Y-80788718D02*
X188039285Y-81026813D01*
X188039285Y-81026813D02*
X188039285Y-80407766D01*
X193340636Y-107187219D02*
X193340636Y-107996742D01*
X193340636Y-107996742D02*
X193388255Y-108091980D01*
X193388255Y-108091980D02*
X193435874Y-108139600D01*
X193435874Y-108139600D02*
X193531112Y-108187219D01*
X193531112Y-108187219D02*
X193721588Y-108187219D01*
X193721588Y-108187219D02*
X193816826Y-108139600D01*
X193816826Y-108139600D02*
X193864445Y-108091980D01*
X193864445Y-108091980D02*
X193912064Y-107996742D01*
X193912064Y-107996742D02*
X193912064Y-107187219D01*
X194340636Y-108139600D02*
X194483493Y-108187219D01*
X194483493Y-108187219D02*
X194721588Y-108187219D01*
X194721588Y-108187219D02*
X194816826Y-108139600D01*
X194816826Y-108139600D02*
X194864445Y-108091980D01*
X194864445Y-108091980D02*
X194912064Y-107996742D01*
X194912064Y-107996742D02*
X194912064Y-107901504D01*
X194912064Y-107901504D02*
X194864445Y-107806266D01*
X194864445Y-107806266D02*
X194816826Y-107758647D01*
X194816826Y-107758647D02*
X194721588Y-107711028D01*
X194721588Y-107711028D02*
X194531112Y-107663409D01*
X194531112Y-107663409D02*
X194435874Y-107615790D01*
X194435874Y-107615790D02*
X194388255Y-107568171D01*
X194388255Y-107568171D02*
X194340636Y-107472933D01*
X194340636Y-107472933D02*
X194340636Y-107377695D01*
X194340636Y-107377695D02*
X194388255Y-107282457D01*
X194388255Y-107282457D02*
X194435874Y-107234838D01*
X194435874Y-107234838D02*
X194531112Y-107187219D01*
X194531112Y-107187219D02*
X194769207Y-107187219D01*
X194769207Y-107187219D02*
X194912064Y-107234838D01*
X195673969Y-107663409D02*
X195816826Y-107711028D01*
X195816826Y-107711028D02*
X195864445Y-107758647D01*
X195864445Y-107758647D02*
X195912064Y-107853885D01*
X195912064Y-107853885D02*
X195912064Y-107996742D01*
X195912064Y-107996742D02*
X195864445Y-108091980D01*
X195864445Y-108091980D02*
X195816826Y-108139600D01*
X195816826Y-108139600D02*
X195721588Y-108187219D01*
X195721588Y-108187219D02*
X195340636Y-108187219D01*
X195340636Y-108187219D02*
X195340636Y-107187219D01*
X195340636Y-107187219D02*
X195673969Y-107187219D01*
X195673969Y-107187219D02*
X195769207Y-107234838D01*
X195769207Y-107234838D02*
X195816826Y-107282457D01*
X195816826Y-107282457D02*
X195864445Y-107377695D01*
X195864445Y-107377695D02*
X195864445Y-107472933D01*
X195864445Y-107472933D02*
X195816826Y-107568171D01*
X195816826Y-107568171D02*
X195769207Y-107615790D01*
X195769207Y-107615790D02*
X195673969Y-107663409D01*
X195673969Y-107663409D02*
X195340636Y-107663409D01*
X196531112Y-107187219D02*
X196626350Y-107187219D01*
X196626350Y-107187219D02*
X196721588Y-107234838D01*
X196721588Y-107234838D02*
X196769207Y-107282457D01*
X196769207Y-107282457D02*
X196816826Y-107377695D01*
X196816826Y-107377695D02*
X196864445Y-107568171D01*
X196864445Y-107568171D02*
X196864445Y-107806266D01*
X196864445Y-107806266D02*
X196816826Y-107996742D01*
X196816826Y-107996742D02*
X196769207Y-108091980D01*
X196769207Y-108091980D02*
X196721588Y-108139600D01*
X196721588Y-108139600D02*
X196626350Y-108187219D01*
X196626350Y-108187219D02*
X196531112Y-108187219D01*
X196531112Y-108187219D02*
X196435874Y-108139600D01*
X196435874Y-108139600D02*
X196388255Y-108091980D01*
X196388255Y-108091980D02*
X196340636Y-107996742D01*
X196340636Y-107996742D02*
X196293017Y-107806266D01*
X196293017Y-107806266D02*
X196293017Y-107568171D01*
X196293017Y-107568171D02*
X196340636Y-107377695D01*
X196340636Y-107377695D02*
X196388255Y-107282457D01*
X196388255Y-107282457D02*
X196435874Y-107234838D01*
X196435874Y-107234838D02*
X196531112Y-107187219D01*
X116833333Y-119102219D02*
X116500000Y-118626028D01*
X116261905Y-119102219D02*
X116261905Y-118102219D01*
X116261905Y-118102219D02*
X116642857Y-118102219D01*
X116642857Y-118102219D02*
X116738095Y-118149838D01*
X116738095Y-118149838D02*
X116785714Y-118197457D01*
X116785714Y-118197457D02*
X116833333Y-118292695D01*
X116833333Y-118292695D02*
X116833333Y-118435552D01*
X116833333Y-118435552D02*
X116785714Y-118530790D01*
X116785714Y-118530790D02*
X116738095Y-118578409D01*
X116738095Y-118578409D02*
X116642857Y-118626028D01*
X116642857Y-118626028D02*
X116261905Y-118626028D01*
X117309524Y-119102219D02*
X117500000Y-119102219D01*
X117500000Y-119102219D02*
X117595238Y-119054600D01*
X117595238Y-119054600D02*
X117642857Y-119006980D01*
X117642857Y-119006980D02*
X117738095Y-118864123D01*
X117738095Y-118864123D02*
X117785714Y-118673647D01*
X117785714Y-118673647D02*
X117785714Y-118292695D01*
X117785714Y-118292695D02*
X117738095Y-118197457D01*
X117738095Y-118197457D02*
X117690476Y-118149838D01*
X117690476Y-118149838D02*
X117595238Y-118102219D01*
X117595238Y-118102219D02*
X117404762Y-118102219D01*
X117404762Y-118102219D02*
X117309524Y-118149838D01*
X117309524Y-118149838D02*
X117261905Y-118197457D01*
X117261905Y-118197457D02*
X117214286Y-118292695D01*
X117214286Y-118292695D02*
X117214286Y-118530790D01*
X117214286Y-118530790D02*
X117261905Y-118626028D01*
X117261905Y-118626028D02*
X117309524Y-118673647D01*
X117309524Y-118673647D02*
X117404762Y-118721266D01*
X117404762Y-118721266D02*
X117595238Y-118721266D01*
X117595238Y-118721266D02*
X117690476Y-118673647D01*
X117690476Y-118673647D02*
X117738095Y-118626028D01*
X117738095Y-118626028D02*
X117785714Y-118530790D01*
X168977873Y-129465055D02*
X168977873Y-128465055D01*
X168977873Y-128465055D02*
X169215968Y-128465055D01*
X169215968Y-128465055D02*
X169358825Y-128512674D01*
X169358825Y-128512674D02*
X169454063Y-128607912D01*
X169454063Y-128607912D02*
X169501682Y-128703150D01*
X169501682Y-128703150D02*
X169549301Y-128893626D01*
X169549301Y-128893626D02*
X169549301Y-129036483D01*
X169549301Y-129036483D02*
X169501682Y-129226959D01*
X169501682Y-129226959D02*
X169454063Y-129322197D01*
X169454063Y-129322197D02*
X169358825Y-129417436D01*
X169358825Y-129417436D02*
X169215968Y-129465055D01*
X169215968Y-129465055D02*
X168977873Y-129465055D01*
X169930254Y-128560293D02*
X169977873Y-128512674D01*
X169977873Y-128512674D02*
X170073111Y-128465055D01*
X170073111Y-128465055D02*
X170311206Y-128465055D01*
X170311206Y-128465055D02*
X170406444Y-128512674D01*
X170406444Y-128512674D02*
X170454063Y-128560293D01*
X170454063Y-128560293D02*
X170501682Y-128655531D01*
X170501682Y-128655531D02*
X170501682Y-128750769D01*
X170501682Y-128750769D02*
X170454063Y-128893626D01*
X170454063Y-128893626D02*
X169882635Y-129465055D01*
X169882635Y-129465055D02*
X170501682Y-129465055D01*
X130413333Y-103427219D02*
X130080000Y-102951028D01*
X129841905Y-103427219D02*
X129841905Y-102427219D01*
X129841905Y-102427219D02*
X130222857Y-102427219D01*
X130222857Y-102427219D02*
X130318095Y-102474838D01*
X130318095Y-102474838D02*
X130365714Y-102522457D01*
X130365714Y-102522457D02*
X130413333Y-102617695D01*
X130413333Y-102617695D02*
X130413333Y-102760552D01*
X130413333Y-102760552D02*
X130365714Y-102855790D01*
X130365714Y-102855790D02*
X130318095Y-102903409D01*
X130318095Y-102903409D02*
X130222857Y-102951028D01*
X130222857Y-102951028D02*
X129841905Y-102951028D01*
X131365714Y-103427219D02*
X130794286Y-103427219D01*
X131080000Y-103427219D02*
X131080000Y-102427219D01*
X131080000Y-102427219D02*
X130984762Y-102570076D01*
X130984762Y-102570076D02*
X130889524Y-102665314D01*
X130889524Y-102665314D02*
X130794286Y-102712933D01*
X176233333Y-97652219D02*
X175900000Y-97176028D01*
X175661905Y-97652219D02*
X175661905Y-96652219D01*
X175661905Y-96652219D02*
X176042857Y-96652219D01*
X176042857Y-96652219D02*
X176138095Y-96699838D01*
X176138095Y-96699838D02*
X176185714Y-96747457D01*
X176185714Y-96747457D02*
X176233333Y-96842695D01*
X176233333Y-96842695D02*
X176233333Y-96985552D01*
X176233333Y-96985552D02*
X176185714Y-97080790D01*
X176185714Y-97080790D02*
X176138095Y-97128409D01*
X176138095Y-97128409D02*
X176042857Y-97176028D01*
X176042857Y-97176028D02*
X175661905Y-97176028D01*
X176566667Y-96652219D02*
X177185714Y-96652219D01*
X177185714Y-96652219D02*
X176852381Y-97033171D01*
X176852381Y-97033171D02*
X176995238Y-97033171D01*
X176995238Y-97033171D02*
X177090476Y-97080790D01*
X177090476Y-97080790D02*
X177138095Y-97128409D01*
X177138095Y-97128409D02*
X177185714Y-97223647D01*
X177185714Y-97223647D02*
X177185714Y-97461742D01*
X177185714Y-97461742D02*
X177138095Y-97556980D01*
X177138095Y-97556980D02*
X177090476Y-97604600D01*
X177090476Y-97604600D02*
X176995238Y-97652219D01*
X176995238Y-97652219D02*
X176709524Y-97652219D01*
X176709524Y-97652219D02*
X176614286Y-97604600D01*
X176614286Y-97604600D02*
X176566667Y-97556980D01*
X184757142Y-111456980D02*
X184709523Y-111504600D01*
X184709523Y-111504600D02*
X184566666Y-111552219D01*
X184566666Y-111552219D02*
X184471428Y-111552219D01*
X184471428Y-111552219D02*
X184328571Y-111504600D01*
X184328571Y-111504600D02*
X184233333Y-111409361D01*
X184233333Y-111409361D02*
X184185714Y-111314123D01*
X184185714Y-111314123D02*
X184138095Y-111123647D01*
X184138095Y-111123647D02*
X184138095Y-110980790D01*
X184138095Y-110980790D02*
X184185714Y-110790314D01*
X184185714Y-110790314D02*
X184233333Y-110695076D01*
X184233333Y-110695076D02*
X184328571Y-110599838D01*
X184328571Y-110599838D02*
X184471428Y-110552219D01*
X184471428Y-110552219D02*
X184566666Y-110552219D01*
X184566666Y-110552219D02*
X184709523Y-110599838D01*
X184709523Y-110599838D02*
X184757142Y-110647457D01*
X185709523Y-111552219D02*
X185138095Y-111552219D01*
X185423809Y-111552219D02*
X185423809Y-110552219D01*
X185423809Y-110552219D02*
X185328571Y-110695076D01*
X185328571Y-110695076D02*
X185233333Y-110790314D01*
X185233333Y-110790314D02*
X185138095Y-110837933D01*
X186661904Y-111552219D02*
X186090476Y-111552219D01*
X186376190Y-111552219D02*
X186376190Y-110552219D01*
X186376190Y-110552219D02*
X186280952Y-110695076D01*
X186280952Y-110695076D02*
X186185714Y-110790314D01*
X186185714Y-110790314D02*
X186090476Y-110837933D01*
X173357142Y-120202219D02*
X173023809Y-119726028D01*
X172785714Y-120202219D02*
X172785714Y-119202219D01*
X172785714Y-119202219D02*
X173166666Y-119202219D01*
X173166666Y-119202219D02*
X173261904Y-119249838D01*
X173261904Y-119249838D02*
X173309523Y-119297457D01*
X173309523Y-119297457D02*
X173357142Y-119392695D01*
X173357142Y-119392695D02*
X173357142Y-119535552D01*
X173357142Y-119535552D02*
X173309523Y-119630790D01*
X173309523Y-119630790D02*
X173261904Y-119678409D01*
X173261904Y-119678409D02*
X173166666Y-119726028D01*
X173166666Y-119726028D02*
X172785714Y-119726028D01*
X173738095Y-119297457D02*
X173785714Y-119249838D01*
X173785714Y-119249838D02*
X173880952Y-119202219D01*
X173880952Y-119202219D02*
X174119047Y-119202219D01*
X174119047Y-119202219D02*
X174214285Y-119249838D01*
X174214285Y-119249838D02*
X174261904Y-119297457D01*
X174261904Y-119297457D02*
X174309523Y-119392695D01*
X174309523Y-119392695D02*
X174309523Y-119487933D01*
X174309523Y-119487933D02*
X174261904Y-119630790D01*
X174261904Y-119630790D02*
X173690476Y-120202219D01*
X173690476Y-120202219D02*
X174309523Y-120202219D01*
X174928571Y-119202219D02*
X175023809Y-119202219D01*
X175023809Y-119202219D02*
X175119047Y-119249838D01*
X175119047Y-119249838D02*
X175166666Y-119297457D01*
X175166666Y-119297457D02*
X175214285Y-119392695D01*
X175214285Y-119392695D02*
X175261904Y-119583171D01*
X175261904Y-119583171D02*
X175261904Y-119821266D01*
X175261904Y-119821266D02*
X175214285Y-120011742D01*
X175214285Y-120011742D02*
X175166666Y-120106980D01*
X175166666Y-120106980D02*
X175119047Y-120154600D01*
X175119047Y-120154600D02*
X175023809Y-120202219D01*
X175023809Y-120202219D02*
X174928571Y-120202219D01*
X174928571Y-120202219D02*
X174833333Y-120154600D01*
X174833333Y-120154600D02*
X174785714Y-120106980D01*
X174785714Y-120106980D02*
X174738095Y-120011742D01*
X174738095Y-120011742D02*
X174690476Y-119821266D01*
X174690476Y-119821266D02*
X174690476Y-119583171D01*
X174690476Y-119583171D02*
X174738095Y-119392695D01*
X174738095Y-119392695D02*
X174785714Y-119297457D01*
X174785714Y-119297457D02*
X174833333Y-119249838D01*
X174833333Y-119249838D02*
X174928571Y-119202219D01*
X114488720Y-82056028D02*
X114488720Y-80556028D01*
X114488720Y-80556028D02*
X114988720Y-81627457D01*
X114988720Y-81627457D02*
X115488720Y-80556028D01*
X115488720Y-80556028D02*
X115488720Y-82056028D01*
X116488721Y-80556028D02*
X116774435Y-80556028D01*
X116774435Y-80556028D02*
X116917292Y-80627457D01*
X116917292Y-80627457D02*
X117060149Y-80770314D01*
X117060149Y-80770314D02*
X117131578Y-81056028D01*
X117131578Y-81056028D02*
X117131578Y-81556028D01*
X117131578Y-81556028D02*
X117060149Y-81841742D01*
X117060149Y-81841742D02*
X116917292Y-81984600D01*
X116917292Y-81984600D02*
X116774435Y-82056028D01*
X116774435Y-82056028D02*
X116488721Y-82056028D01*
X116488721Y-82056028D02*
X116345864Y-81984600D01*
X116345864Y-81984600D02*
X116203006Y-81841742D01*
X116203006Y-81841742D02*
X116131578Y-81556028D01*
X116131578Y-81556028D02*
X116131578Y-81056028D01*
X116131578Y-81056028D02*
X116203006Y-80770314D01*
X116203006Y-80770314D02*
X116345864Y-80627457D01*
X116345864Y-80627457D02*
X116488721Y-80556028D01*
X117560150Y-80556028D02*
X118417293Y-80556028D01*
X117988721Y-82056028D02*
X117988721Y-80556028D01*
X119203007Y-80556028D02*
X119488721Y-80556028D01*
X119488721Y-80556028D02*
X119631578Y-80627457D01*
X119631578Y-80627457D02*
X119774435Y-80770314D01*
X119774435Y-80770314D02*
X119845864Y-81056028D01*
X119845864Y-81056028D02*
X119845864Y-81556028D01*
X119845864Y-81556028D02*
X119774435Y-81841742D01*
X119774435Y-81841742D02*
X119631578Y-81984600D01*
X119631578Y-81984600D02*
X119488721Y-82056028D01*
X119488721Y-82056028D02*
X119203007Y-82056028D01*
X119203007Y-82056028D02*
X119060150Y-81984600D01*
X119060150Y-81984600D02*
X118917292Y-81841742D01*
X118917292Y-81841742D02*
X118845864Y-81556028D01*
X118845864Y-81556028D02*
X118845864Y-81056028D01*
X118845864Y-81056028D02*
X118917292Y-80770314D01*
X118917292Y-80770314D02*
X119060150Y-80627457D01*
X119060150Y-80627457D02*
X119203007Y-80556028D01*
X121345864Y-82056028D02*
X120845864Y-81341742D01*
X120488721Y-82056028D02*
X120488721Y-80556028D01*
X120488721Y-80556028D02*
X121060150Y-80556028D01*
X121060150Y-80556028D02*
X121203007Y-80627457D01*
X121203007Y-80627457D02*
X121274436Y-80698885D01*
X121274436Y-80698885D02*
X121345864Y-80841742D01*
X121345864Y-80841742D02*
X121345864Y-81056028D01*
X121345864Y-81056028D02*
X121274436Y-81198885D01*
X121274436Y-81198885D02*
X121203007Y-81270314D01*
X121203007Y-81270314D02*
X121060150Y-81341742D01*
X121060150Y-81341742D02*
X120488721Y-81341742D01*
X122274436Y-80556028D02*
X122417293Y-80556028D01*
X122417293Y-80556028D02*
X122560150Y-80627457D01*
X122560150Y-80627457D02*
X122631579Y-80698885D01*
X122631579Y-80698885D02*
X122703007Y-80841742D01*
X122703007Y-80841742D02*
X122774436Y-81127457D01*
X122774436Y-81127457D02*
X122774436Y-81484600D01*
X122774436Y-81484600D02*
X122703007Y-81770314D01*
X122703007Y-81770314D02*
X122631579Y-81913171D01*
X122631579Y-81913171D02*
X122560150Y-81984600D01*
X122560150Y-81984600D02*
X122417293Y-82056028D01*
X122417293Y-82056028D02*
X122274436Y-82056028D01*
X122274436Y-82056028D02*
X122131579Y-81984600D01*
X122131579Y-81984600D02*
X122060150Y-81913171D01*
X122060150Y-81913171D02*
X121988721Y-81770314D01*
X121988721Y-81770314D02*
X121917293Y-81484600D01*
X121917293Y-81484600D02*
X121917293Y-81127457D01*
X121917293Y-81127457D02*
X121988721Y-80841742D01*
X121988721Y-80841742D02*
X122060150Y-80698885D01*
X122060150Y-80698885D02*
X122131579Y-80627457D01*
X122131579Y-80627457D02*
X122274436Y-80556028D01*
X165282142Y-123931980D02*
X165234523Y-123979600D01*
X165234523Y-123979600D02*
X165091666Y-124027219D01*
X165091666Y-124027219D02*
X164996428Y-124027219D01*
X164996428Y-124027219D02*
X164853571Y-123979600D01*
X164853571Y-123979600D02*
X164758333Y-123884361D01*
X164758333Y-123884361D02*
X164710714Y-123789123D01*
X164710714Y-123789123D02*
X164663095Y-123598647D01*
X164663095Y-123598647D02*
X164663095Y-123455790D01*
X164663095Y-123455790D02*
X164710714Y-123265314D01*
X164710714Y-123265314D02*
X164758333Y-123170076D01*
X164758333Y-123170076D02*
X164853571Y-123074838D01*
X164853571Y-123074838D02*
X164996428Y-123027219D01*
X164996428Y-123027219D02*
X165091666Y-123027219D01*
X165091666Y-123027219D02*
X165234523Y-123074838D01*
X165234523Y-123074838D02*
X165282142Y-123122457D01*
X166234523Y-124027219D02*
X165663095Y-124027219D01*
X165948809Y-124027219D02*
X165948809Y-123027219D01*
X165948809Y-123027219D02*
X165853571Y-123170076D01*
X165853571Y-123170076D02*
X165758333Y-123265314D01*
X165758333Y-123265314D02*
X165663095Y-123312933D01*
X167091666Y-123027219D02*
X166901190Y-123027219D01*
X166901190Y-123027219D02*
X166805952Y-123074838D01*
X166805952Y-123074838D02*
X166758333Y-123122457D01*
X166758333Y-123122457D02*
X166663095Y-123265314D01*
X166663095Y-123265314D02*
X166615476Y-123455790D01*
X166615476Y-123455790D02*
X166615476Y-123836742D01*
X166615476Y-123836742D02*
X166663095Y-123931980D01*
X166663095Y-123931980D02*
X166710714Y-123979600D01*
X166710714Y-123979600D02*
X166805952Y-124027219D01*
X166805952Y-124027219D02*
X166996428Y-124027219D01*
X166996428Y-124027219D02*
X167091666Y-123979600D01*
X167091666Y-123979600D02*
X167139285Y-123931980D01*
X167139285Y-123931980D02*
X167186904Y-123836742D01*
X167186904Y-123836742D02*
X167186904Y-123598647D01*
X167186904Y-123598647D02*
X167139285Y-123503409D01*
X167139285Y-123503409D02*
X167091666Y-123455790D01*
X167091666Y-123455790D02*
X166996428Y-123408171D01*
X166996428Y-123408171D02*
X166805952Y-123408171D01*
X166805952Y-123408171D02*
X166710714Y-123455790D01*
X166710714Y-123455790D02*
X166663095Y-123503409D01*
X166663095Y-123503409D02*
X166615476Y-123598647D01*
X173808333Y-126231980D02*
X173760714Y-126279600D01*
X173760714Y-126279600D02*
X173617857Y-126327219D01*
X173617857Y-126327219D02*
X173522619Y-126327219D01*
X173522619Y-126327219D02*
X173379762Y-126279600D01*
X173379762Y-126279600D02*
X173284524Y-126184361D01*
X173284524Y-126184361D02*
X173236905Y-126089123D01*
X173236905Y-126089123D02*
X173189286Y-125898647D01*
X173189286Y-125898647D02*
X173189286Y-125755790D01*
X173189286Y-125755790D02*
X173236905Y-125565314D01*
X173236905Y-125565314D02*
X173284524Y-125470076D01*
X173284524Y-125470076D02*
X173379762Y-125374838D01*
X173379762Y-125374838D02*
X173522619Y-125327219D01*
X173522619Y-125327219D02*
X173617857Y-125327219D01*
X173617857Y-125327219D02*
X173760714Y-125374838D01*
X173760714Y-125374838D02*
X173808333Y-125422457D01*
X174713095Y-125327219D02*
X174236905Y-125327219D01*
X174236905Y-125327219D02*
X174189286Y-125803409D01*
X174189286Y-125803409D02*
X174236905Y-125755790D01*
X174236905Y-125755790D02*
X174332143Y-125708171D01*
X174332143Y-125708171D02*
X174570238Y-125708171D01*
X174570238Y-125708171D02*
X174665476Y-125755790D01*
X174665476Y-125755790D02*
X174713095Y-125803409D01*
X174713095Y-125803409D02*
X174760714Y-125898647D01*
X174760714Y-125898647D02*
X174760714Y-126136742D01*
X174760714Y-126136742D02*
X174713095Y-126231980D01*
X174713095Y-126231980D02*
X174665476Y-126279600D01*
X174665476Y-126279600D02*
X174570238Y-126327219D01*
X174570238Y-126327219D02*
X174332143Y-126327219D01*
X174332143Y-126327219D02*
X174236905Y-126279600D01*
X174236905Y-126279600D02*
X174189286Y-126231980D01*
X152533333Y-110177219D02*
X152200000Y-109701028D01*
X151961905Y-110177219D02*
X151961905Y-109177219D01*
X151961905Y-109177219D02*
X152342857Y-109177219D01*
X152342857Y-109177219D02*
X152438095Y-109224838D01*
X152438095Y-109224838D02*
X152485714Y-109272457D01*
X152485714Y-109272457D02*
X152533333Y-109367695D01*
X152533333Y-109367695D02*
X152533333Y-109510552D01*
X152533333Y-109510552D02*
X152485714Y-109605790D01*
X152485714Y-109605790D02*
X152438095Y-109653409D01*
X152438095Y-109653409D02*
X152342857Y-109701028D01*
X152342857Y-109701028D02*
X151961905Y-109701028D01*
X152914286Y-109272457D02*
X152961905Y-109224838D01*
X152961905Y-109224838D02*
X153057143Y-109177219D01*
X153057143Y-109177219D02*
X153295238Y-109177219D01*
X153295238Y-109177219D02*
X153390476Y-109224838D01*
X153390476Y-109224838D02*
X153438095Y-109272457D01*
X153438095Y-109272457D02*
X153485714Y-109367695D01*
X153485714Y-109367695D02*
X153485714Y-109462933D01*
X153485714Y-109462933D02*
X153438095Y-109605790D01*
X153438095Y-109605790D02*
X152866667Y-110177219D01*
X152866667Y-110177219D02*
X153485714Y-110177219D01*
X111908333Y-99531980D02*
X111860714Y-99579600D01*
X111860714Y-99579600D02*
X111717857Y-99627219D01*
X111717857Y-99627219D02*
X111622619Y-99627219D01*
X111622619Y-99627219D02*
X111479762Y-99579600D01*
X111479762Y-99579600D02*
X111384524Y-99484361D01*
X111384524Y-99484361D02*
X111336905Y-99389123D01*
X111336905Y-99389123D02*
X111289286Y-99198647D01*
X111289286Y-99198647D02*
X111289286Y-99055790D01*
X111289286Y-99055790D02*
X111336905Y-98865314D01*
X111336905Y-98865314D02*
X111384524Y-98770076D01*
X111384524Y-98770076D02*
X111479762Y-98674838D01*
X111479762Y-98674838D02*
X111622619Y-98627219D01*
X111622619Y-98627219D02*
X111717857Y-98627219D01*
X111717857Y-98627219D02*
X111860714Y-98674838D01*
X111860714Y-98674838D02*
X111908333Y-98722457D01*
X112384524Y-99627219D02*
X112575000Y-99627219D01*
X112575000Y-99627219D02*
X112670238Y-99579600D01*
X112670238Y-99579600D02*
X112717857Y-99531980D01*
X112717857Y-99531980D02*
X112813095Y-99389123D01*
X112813095Y-99389123D02*
X112860714Y-99198647D01*
X112860714Y-99198647D02*
X112860714Y-98817695D01*
X112860714Y-98817695D02*
X112813095Y-98722457D01*
X112813095Y-98722457D02*
X112765476Y-98674838D01*
X112765476Y-98674838D02*
X112670238Y-98627219D01*
X112670238Y-98627219D02*
X112479762Y-98627219D01*
X112479762Y-98627219D02*
X112384524Y-98674838D01*
X112384524Y-98674838D02*
X112336905Y-98722457D01*
X112336905Y-98722457D02*
X112289286Y-98817695D01*
X112289286Y-98817695D02*
X112289286Y-99055790D01*
X112289286Y-99055790D02*
X112336905Y-99151028D01*
X112336905Y-99151028D02*
X112384524Y-99198647D01*
X112384524Y-99198647D02*
X112479762Y-99246266D01*
X112479762Y-99246266D02*
X112670238Y-99246266D01*
X112670238Y-99246266D02*
X112765476Y-99198647D01*
X112765476Y-99198647D02*
X112813095Y-99151028D01*
X112813095Y-99151028D02*
X112860714Y-99055790D01*
X116608333Y-125602219D02*
X116275000Y-125126028D01*
X116036905Y-125602219D02*
X116036905Y-124602219D01*
X116036905Y-124602219D02*
X116417857Y-124602219D01*
X116417857Y-124602219D02*
X116513095Y-124649838D01*
X116513095Y-124649838D02*
X116560714Y-124697457D01*
X116560714Y-124697457D02*
X116608333Y-124792695D01*
X116608333Y-124792695D02*
X116608333Y-124935552D01*
X116608333Y-124935552D02*
X116560714Y-125030790D01*
X116560714Y-125030790D02*
X116513095Y-125078409D01*
X116513095Y-125078409D02*
X116417857Y-125126028D01*
X116417857Y-125126028D02*
X116036905Y-125126028D01*
X116941667Y-124602219D02*
X117608333Y-124602219D01*
X117608333Y-124602219D02*
X117179762Y-125602219D01*
X193935088Y-88513409D02*
X194268421Y-88513409D01*
X194411278Y-89037219D02*
X193935088Y-89037219D01*
X193935088Y-89037219D02*
X193935088Y-88037219D01*
X193935088Y-88037219D02*
X194411278Y-88037219D01*
X194744612Y-88037219D02*
X195411278Y-89037219D01*
X195411278Y-88037219D02*
X194744612Y-89037219D01*
X195649374Y-88037219D02*
X196220802Y-88037219D01*
X195935088Y-89037219D02*
X195935088Y-88037219D01*
X196744612Y-88037219D02*
X196839850Y-88037219D01*
X196839850Y-88037219D02*
X196935088Y-88084838D01*
X196935088Y-88084838D02*
X196982707Y-88132457D01*
X196982707Y-88132457D02*
X197030326Y-88227695D01*
X197030326Y-88227695D02*
X197077945Y-88418171D01*
X197077945Y-88418171D02*
X197077945Y-88656266D01*
X197077945Y-88656266D02*
X197030326Y-88846742D01*
X197030326Y-88846742D02*
X196982707Y-88941980D01*
X196982707Y-88941980D02*
X196935088Y-88989600D01*
X196935088Y-88989600D02*
X196839850Y-89037219D01*
X196839850Y-89037219D02*
X196744612Y-89037219D01*
X196744612Y-89037219D02*
X196649374Y-88989600D01*
X196649374Y-88989600D02*
X196601755Y-88941980D01*
X196601755Y-88941980D02*
X196554136Y-88846742D01*
X196554136Y-88846742D02*
X196506517Y-88656266D01*
X196506517Y-88656266D02*
X196506517Y-88418171D01*
X196506517Y-88418171D02*
X196554136Y-88227695D01*
X196554136Y-88227695D02*
X196601755Y-88132457D01*
X196601755Y-88132457D02*
X196649374Y-88084838D01*
X196649374Y-88084838D02*
X196744612Y-88037219D01*
X187638095Y-105352219D02*
X187638095Y-106161742D01*
X187638095Y-106161742D02*
X187685714Y-106256980D01*
X187685714Y-106256980D02*
X187733333Y-106304600D01*
X187733333Y-106304600D02*
X187828571Y-106352219D01*
X187828571Y-106352219D02*
X188019047Y-106352219D01*
X188019047Y-106352219D02*
X188114285Y-106304600D01*
X188114285Y-106304600D02*
X188161904Y-106256980D01*
X188161904Y-106256980D02*
X188209523Y-106161742D01*
X188209523Y-106161742D02*
X188209523Y-105352219D01*
X188638095Y-105447457D02*
X188685714Y-105399838D01*
X188685714Y-105399838D02*
X188780952Y-105352219D01*
X188780952Y-105352219D02*
X189019047Y-105352219D01*
X189019047Y-105352219D02*
X189114285Y-105399838D01*
X189114285Y-105399838D02*
X189161904Y-105447457D01*
X189161904Y-105447457D02*
X189209523Y-105542695D01*
X189209523Y-105542695D02*
X189209523Y-105637933D01*
X189209523Y-105637933D02*
X189161904Y-105780790D01*
X189161904Y-105780790D02*
X188590476Y-106352219D01*
X188590476Y-106352219D02*
X189209523Y-106352219D01*
X164034523Y-119306980D02*
X163986904Y-119354600D01*
X163986904Y-119354600D02*
X163844047Y-119402219D01*
X163844047Y-119402219D02*
X163748809Y-119402219D01*
X163748809Y-119402219D02*
X163605952Y-119354600D01*
X163605952Y-119354600D02*
X163510714Y-119259361D01*
X163510714Y-119259361D02*
X163463095Y-119164123D01*
X163463095Y-119164123D02*
X163415476Y-118973647D01*
X163415476Y-118973647D02*
X163415476Y-118830790D01*
X163415476Y-118830790D02*
X163463095Y-118640314D01*
X163463095Y-118640314D02*
X163510714Y-118545076D01*
X163510714Y-118545076D02*
X163605952Y-118449838D01*
X163605952Y-118449838D02*
X163748809Y-118402219D01*
X163748809Y-118402219D02*
X163844047Y-118402219D01*
X163844047Y-118402219D02*
X163986904Y-118449838D01*
X163986904Y-118449838D02*
X164034523Y-118497457D01*
X164463095Y-119402219D02*
X164463095Y-118402219D01*
X164463095Y-118878409D02*
X165034523Y-118878409D01*
X165034523Y-119402219D02*
X165034523Y-118402219D01*
X166034523Y-118449838D02*
X165939285Y-118402219D01*
X165939285Y-118402219D02*
X165796428Y-118402219D01*
X165796428Y-118402219D02*
X165653571Y-118449838D01*
X165653571Y-118449838D02*
X165558333Y-118545076D01*
X165558333Y-118545076D02*
X165510714Y-118640314D01*
X165510714Y-118640314D02*
X165463095Y-118830790D01*
X165463095Y-118830790D02*
X165463095Y-118973647D01*
X165463095Y-118973647D02*
X165510714Y-119164123D01*
X165510714Y-119164123D02*
X165558333Y-119259361D01*
X165558333Y-119259361D02*
X165653571Y-119354600D01*
X165653571Y-119354600D02*
X165796428Y-119402219D01*
X165796428Y-119402219D02*
X165891666Y-119402219D01*
X165891666Y-119402219D02*
X166034523Y-119354600D01*
X166034523Y-119354600D02*
X166082142Y-119306980D01*
X166082142Y-119306980D02*
X166082142Y-118973647D01*
X166082142Y-118973647D02*
X165891666Y-118973647D01*
X166701190Y-118402219D02*
X166796428Y-118402219D01*
X166796428Y-118402219D02*
X166891666Y-118449838D01*
X166891666Y-118449838D02*
X166939285Y-118497457D01*
X166939285Y-118497457D02*
X166986904Y-118592695D01*
X166986904Y-118592695D02*
X167034523Y-118783171D01*
X167034523Y-118783171D02*
X167034523Y-119021266D01*
X167034523Y-119021266D02*
X166986904Y-119211742D01*
X166986904Y-119211742D02*
X166939285Y-119306980D01*
X166939285Y-119306980D02*
X166891666Y-119354600D01*
X166891666Y-119354600D02*
X166796428Y-119402219D01*
X166796428Y-119402219D02*
X166701190Y-119402219D01*
X166701190Y-119402219D02*
X166605952Y-119354600D01*
X166605952Y-119354600D02*
X166558333Y-119306980D01*
X166558333Y-119306980D02*
X166510714Y-119211742D01*
X166510714Y-119211742D02*
X166463095Y-119021266D01*
X166463095Y-119021266D02*
X166463095Y-118783171D01*
X166463095Y-118783171D02*
X166510714Y-118592695D01*
X166510714Y-118592695D02*
X166558333Y-118497457D01*
X166558333Y-118497457D02*
X166605952Y-118449838D01*
X166605952Y-118449838D02*
X166701190Y-118402219D01*
D20*
%TO.C,SW2*%
X175430000Y-119755000D02*
X175430000Y-124495000D01*
X175430000Y-119755000D02*
X175830000Y-119755000D01*
X175430000Y-124495000D02*
X175830000Y-124495000D01*
X176770000Y-119755000D02*
X178830000Y-119755000D01*
X176770000Y-124495000D02*
X178830000Y-124495000D01*
X180170000Y-119755000D02*
X179770000Y-119755000D01*
X180170000Y-119755000D02*
X180170000Y-124495000D01*
X180170000Y-124495000D02*
X179770000Y-124495000D01*
D21*
%TO.C,R16*%
X165421527Y-125670000D02*
X165728809Y-125670000D01*
X165421527Y-126430000D02*
X165728809Y-126430000D01*
D22*
%TO.C,SCREEN0*%
X95981100Y-99538600D02*
X95981100Y-98268600D01*
X95981100Y-100808600D02*
X96616100Y-100173600D01*
X95981100Y-102078600D02*
X95981100Y-100808600D01*
X95981100Y-103348600D02*
X96616100Y-102713600D01*
X95981100Y-104618600D02*
X95981100Y-103348600D01*
X95981100Y-107158600D02*
X95981100Y-105888600D01*
X95981100Y-108428600D02*
X96616100Y-107793600D01*
X95981100Y-109698600D02*
X95981100Y-108428600D01*
X95981100Y-112238600D02*
X95981100Y-110968600D01*
X96616100Y-97633600D02*
X95981100Y-98268600D01*
X96616100Y-100173600D02*
X95981100Y-99538600D01*
X96616100Y-102713600D02*
X95981100Y-102078600D01*
X96616100Y-105253600D02*
X95981100Y-104618600D01*
X96616100Y-105253600D02*
X95981100Y-105888600D01*
X96616100Y-107793600D02*
X95981100Y-107158600D01*
X96616100Y-110333600D02*
X95981100Y-109698600D01*
X96616100Y-110333600D02*
X95981100Y-110968600D01*
X96616100Y-112873600D02*
X95981100Y-112238600D01*
X97886100Y-97633600D02*
X96616100Y-97633600D01*
X97886100Y-100173600D02*
X96616100Y-100173600D01*
X97886100Y-100173600D02*
X98521100Y-100808600D01*
X97886100Y-102713600D02*
X96616100Y-102713600D01*
X97886100Y-102713600D02*
X98521100Y-103348600D01*
X97886100Y-105253600D02*
X96616100Y-105253600D01*
X97886100Y-107793600D02*
X96616100Y-107793600D01*
X97886100Y-107793600D02*
X98521100Y-108428600D01*
X97886100Y-110333600D02*
X96616100Y-110333600D01*
X97886100Y-112873600D02*
X96616100Y-112873600D01*
X98521100Y-98268600D02*
X97886100Y-97633600D01*
X98521100Y-98268600D02*
X98521100Y-99538600D01*
X98521100Y-99538600D02*
X97886100Y-100173600D01*
X98521100Y-100808600D02*
X98521100Y-102078600D01*
X98521100Y-102078600D02*
X97886100Y-102713600D01*
X98521100Y-103348600D02*
X98521100Y-104618600D01*
X98521100Y-104618600D02*
X97886100Y-105253600D01*
X98521100Y-105888600D02*
X97886100Y-105253600D01*
X98521100Y-105888600D02*
X98521100Y-107158600D01*
X98521100Y-107158600D02*
X97886100Y-107793600D01*
X98521100Y-108428600D02*
X98521100Y-109698600D01*
X98521100Y-109698600D02*
X97886100Y-110333600D01*
X98521100Y-110968600D02*
X97886100Y-110333600D01*
X98521100Y-110968600D02*
X98521100Y-112238600D01*
X98521100Y-112238600D02*
X97886100Y-112873600D01*
D21*
%TO.C,C18*%
X166765000Y-111282164D02*
X166765000Y-111497836D01*
X167485000Y-111282164D02*
X167485000Y-111497836D01*
%TO.C,C17*%
X166755000Y-108882836D02*
X166755000Y-108667164D01*
X167475000Y-108882836D02*
X167475000Y-108667164D01*
%TO.C,R10*%
X165496359Y-121770000D02*
X165803641Y-121770000D01*
X165496359Y-122530000D02*
X165803641Y-122530000D01*
D20*
%TO.C,X2*%
X163935000Y-109135000D02*
X163935000Y-110235000D01*
X165785000Y-107735000D02*
X163985000Y-107735000D01*
X165835000Y-109135000D02*
X165835000Y-110235000D01*
D21*
%TO.C,R6*%
X179366359Y-87920000D02*
X179673641Y-87920000D01*
X179366359Y-88680000D02*
X179673641Y-88680000D01*
%TO.C,R14*%
X171253641Y-120070000D02*
X170946359Y-120070000D01*
X171253641Y-120830000D02*
X170946359Y-120830000D01*
%TO.C,C10*%
X173795500Y-98920236D02*
X173795500Y-98704564D01*
X174515500Y-98920236D02*
X174515500Y-98704564D01*
%TO.C,R17*%
X163531309Y-125670000D02*
X163224027Y-125670000D01*
X163531309Y-126430000D02*
X163224027Y-126430000D01*
%TO.C,C1*%
X179607836Y-86240000D02*
X179392164Y-86240000D01*
X179607836Y-86960000D02*
X179392164Y-86960000D01*
D23*
%TO.C,B1*%
X161811100Y-97999600D02*
X166637100Y-97999600D01*
X166637100Y-81235600D02*
X166637100Y-84791600D01*
X166637100Y-84791600D02*
X161811100Y-84791600D01*
X166637100Y-97999600D02*
X166637100Y-101555600D01*
X166637100Y-101555600D02*
X170193100Y-101555600D01*
X170193100Y-81235600D02*
X166637100Y-81235600D01*
X170193100Y-84791600D02*
X170193100Y-81235600D01*
X170193100Y-97999600D02*
X172225100Y-97999600D01*
X170193100Y-101555600D02*
X170193100Y-97999600D01*
X172225100Y-84791600D02*
X170193100Y-84791600D01*
X172225100Y-97999600D02*
X175019100Y-95205600D01*
X175019100Y-87585600D02*
X172225100Y-84791600D01*
X175019100Y-95205600D02*
X175019100Y-87585600D01*
D20*
%TO.C,L2*%
X193835000Y-114095000D02*
X196120000Y-114095000D01*
X196120000Y-112625000D02*
X193835000Y-112625000D01*
X196120000Y-114095000D02*
X196120000Y-112625000D01*
D21*
%TO.C,R18*%
X192028641Y-110820000D02*
X191721359Y-110820000D01*
X192028641Y-111580000D02*
X191721359Y-111580000D01*
%TO.C,L1*%
X161205000Y-111035000D02*
X161205000Y-113320000D01*
X162675000Y-111035000D02*
X161205000Y-111035000D01*
X162675000Y-113320000D02*
X162675000Y-111035000D01*
%TO.C,R5*%
X189150000Y-83403641D02*
X189150000Y-83096359D01*
X189910000Y-83403641D02*
X189910000Y-83096359D01*
%TO.C,C8*%
X134140000Y-123407836D02*
X134140000Y-123192164D01*
X134860000Y-123407836D02*
X134860000Y-123192164D01*
D23*
%TO.C,Q2*%
X120100000Y-120312500D02*
X121700000Y-120312500D01*
X120100000Y-123212500D02*
X121700000Y-123212500D01*
X121700000Y-120312500D02*
X121700000Y-121212500D01*
X121700000Y-123212500D02*
X121700000Y-122312500D01*
D20*
%TO.C,J1*%
X150845000Y-124145000D02*
X158585000Y-124145000D01*
X150845000Y-126745000D02*
X150845000Y-124145000D01*
X150845000Y-129345000D02*
X150845000Y-128015000D01*
X152175000Y-129345000D02*
X150845000Y-129345000D01*
X153445000Y-126745000D02*
X150845000Y-126745000D01*
X153445000Y-129345000D02*
X153445000Y-126745000D01*
X153445000Y-129345000D02*
X158585000Y-129345000D01*
X158585000Y-129345000D02*
X158585000Y-124145000D01*
D21*
%TO.C,C6*%
X159590000Y-123357836D02*
X159590000Y-123142164D01*
X160310000Y-123357836D02*
X160310000Y-123142164D01*
%TO.C,C3*%
X104240000Y-117092164D02*
X104240000Y-117307836D01*
X104960000Y-117092164D02*
X104960000Y-117307836D01*
%TO.C,R12*%
X167290000Y-116178641D02*
X167290000Y-115871359D01*
X168050000Y-116178641D02*
X168050000Y-115871359D01*
D20*
%TO.C,IC2*%
X106883100Y-111465600D02*
X106883100Y-116537600D01*
X106883100Y-116537600D02*
X115139100Y-116537600D01*
X107137100Y-116287600D02*
X107137100Y-111715600D01*
X107137100Y-116287600D02*
X114885100Y-116287600D01*
X114885100Y-111715600D02*
X107137100Y-111715600D01*
X114885100Y-111715600D02*
X114885100Y-116287600D01*
X115139100Y-111465600D02*
X106883100Y-111465600D01*
X115139100Y-111465600D02*
X115139100Y-116537600D01*
X114529000Y-112604600D02*
G75*
G02*
X113259000Y-112604600I-635000J0D01*
G01*
X113259000Y-112604600D02*
G75*
G02*
X114529000Y-112604600I635000J0D01*
G01*
D21*
%TO.C,U3*%
X169662668Y-121647836D02*
X168862668Y-121647836D01*
X169662668Y-121647836D02*
X170462668Y-121647836D01*
X169662668Y-124767836D02*
X168862668Y-124767836D01*
X169662668Y-124767836D02*
X170462668Y-124767836D01*
X168362668Y-121697836D02*
X168122668Y-121367836D01*
X168602668Y-121367836D01*
X168362668Y-121697836D01*
G36*
X168362668Y-121697836D02*
G01*
X168122668Y-121367836D01*
X168602668Y-121367836D01*
X168362668Y-121697836D01*
G37*
D20*
%TO.C,X1*%
X180639100Y-93391600D02*
X180639100Y-93791600D01*
X180639100Y-95691600D02*
X180639100Y-99291600D01*
X180639100Y-101591600D02*
X180639100Y-101191600D01*
X184639100Y-93391600D02*
X180639100Y-93391600D01*
X184639100Y-93791600D02*
X184639100Y-93391600D01*
X184639100Y-95691600D02*
X184639100Y-99291600D01*
X184639100Y-101191600D02*
X184639100Y-101591600D01*
X184639100Y-101591600D02*
X180639100Y-101591600D01*
X182987787Y-100869800D02*
G75*
G02*
X182341213Y-100869800I-323287J0D01*
G01*
X182341213Y-100869800D02*
G75*
G02*
X182987787Y-100869800I323287J0D01*
G01*
D21*
%TO.C,R8*%
X116246359Y-121920000D02*
X116553641Y-121920000D01*
X116246359Y-122680000D02*
X116553641Y-122680000D01*
%TO.C,IC1*%
X119190000Y-126100000D02*
X119190000Y-125300000D01*
X119190000Y-126100000D02*
X119190000Y-126900000D01*
X122310000Y-126100000D02*
X122310000Y-125300000D01*
X122310000Y-126100000D02*
X122310000Y-126900000D01*
X119240000Y-127400000D02*
X118910000Y-127640000D01*
X118910000Y-127160000D01*
X119240000Y-127400000D01*
G36*
X119240000Y-127400000D02*
G01*
X118910000Y-127640000D01*
X118910000Y-127160000D01*
X119240000Y-127400000D01*
G37*
%TO.C,C19*%
X173535000Y-105697836D02*
X173535000Y-105482164D01*
X174255000Y-105697836D02*
X174255000Y-105482164D01*
D20*
%TO.C,X4*%
X181670000Y-114750000D02*
X195020000Y-114750000D01*
X181670000Y-119800000D02*
X181670000Y-114750000D01*
X181670000Y-125750000D02*
X181670000Y-122050000D01*
X181670000Y-128050000D02*
X181670000Y-128700000D01*
X181670000Y-128700000D02*
X182170000Y-128700000D01*
X182170000Y-128700000D02*
X182170000Y-128950000D01*
X182170000Y-128950000D02*
X194120000Y-128950000D01*
D21*
%TO.C,R15*%
X159700000Y-109673641D02*
X159700000Y-109366359D01*
X160460000Y-109673641D02*
X160460000Y-109366359D01*
%TO.C,R11*%
X191753641Y-106970000D02*
X191446359Y-106970000D01*
X191753641Y-107730000D02*
X191446359Y-107730000D01*
%TO.C,L0*%
X159315000Y-111035000D02*
X159315000Y-113320000D01*
X160785000Y-111035000D02*
X159315000Y-111035000D01*
X160785000Y-113320000D02*
X160785000Y-111035000D01*
D20*
%TO.C,IC4*%
X180587100Y-88601600D02*
X180587100Y-86651600D01*
X180587100Y-88601600D02*
X180587100Y-90551600D01*
X185707100Y-88601600D02*
X185707100Y-86651600D01*
X185707100Y-88601600D02*
X185707100Y-90551600D01*
X180682100Y-91301600D02*
X180352100Y-91541600D01*
X180352100Y-91061600D01*
X180682100Y-91301600D01*
G36*
X180682100Y-91301600D02*
G01*
X180352100Y-91541600D01*
X180352100Y-91061600D01*
X180682100Y-91301600D01*
G37*
D21*
%TO.C,C15*%
X184240000Y-108557836D02*
X184240000Y-108342164D01*
X184960000Y-108557836D02*
X184960000Y-108342164D01*
%TO.C,C7*%
X146340000Y-123407836D02*
X146340000Y-123192164D01*
X147060000Y-123407836D02*
X147060000Y-123192164D01*
D22*
%TO.C,AUX_I2C0*%
X174421100Y-81590600D02*
X174421100Y-82860600D01*
X174421100Y-82860600D02*
X175056100Y-83495600D01*
X175056100Y-80955600D02*
X174421100Y-81590600D01*
X175056100Y-80955600D02*
X176326100Y-80955600D01*
X176326100Y-80955600D02*
X176961100Y-81590600D01*
X176326100Y-83495600D02*
X175056100Y-83495600D01*
X176961100Y-81590600D02*
X176961100Y-82860600D01*
X176961100Y-81590600D02*
X177596100Y-80955600D01*
X176961100Y-82860600D02*
X176326100Y-83495600D01*
X177596100Y-80955600D02*
X178866100Y-80955600D01*
X177596100Y-83495600D02*
X176961100Y-82860600D01*
X178866100Y-80955600D02*
X179501100Y-81590600D01*
X178866100Y-83495600D02*
X177596100Y-83495600D01*
X179501100Y-81590600D02*
X179501100Y-82860600D01*
X179501100Y-81590600D02*
X180136100Y-80955600D01*
X179501100Y-82860600D02*
X178866100Y-83495600D01*
X180136100Y-80955600D02*
X181406100Y-80955600D01*
X180136100Y-83495600D02*
X179501100Y-82860600D01*
X181406100Y-80955600D02*
X182041100Y-81590600D01*
X181406100Y-83495600D02*
X180136100Y-83495600D01*
X182041100Y-81590600D02*
X182041100Y-82860600D01*
X182041100Y-82860600D02*
X181406100Y-83495600D01*
X182041100Y-82860600D02*
X182676100Y-83495600D01*
X182676100Y-80955600D02*
X182041100Y-81590600D01*
X182676100Y-80955600D02*
X183946100Y-80955600D01*
X183946100Y-80955600D02*
X184581100Y-81590600D01*
X183946100Y-83495600D02*
X182676100Y-83495600D01*
X184581100Y-81590600D02*
X184581100Y-82860600D01*
X184581100Y-82860600D02*
X183946100Y-83495600D01*
D21*
%TO.C,C4*%
X113532836Y-125590000D02*
X113317164Y-125590000D01*
X113532836Y-126310000D02*
X113317164Y-126310000D01*
%TO.C,C12*%
X169535000Y-105697836D02*
X169535000Y-105482164D01*
X170255000Y-105697836D02*
X170255000Y-105482164D01*
%TO.C,R13*%
X161560000Y-109673641D02*
X161560000Y-109366359D01*
X162320000Y-109673641D02*
X162320000Y-109366359D01*
D20*
%TO.C,U1*%
X170265000Y-109040000D02*
X170265000Y-109590000D01*
X170265000Y-116240000D02*
X170265000Y-115690000D01*
X170815000Y-109040000D02*
X170265000Y-109040000D01*
X170815000Y-116240000D02*
X170265000Y-116240000D01*
X177465000Y-109040000D02*
X176915000Y-109040000D01*
X177465000Y-109590000D02*
X177465000Y-109040000D01*
X177465000Y-115690000D02*
X177465000Y-116240000D01*
X177465000Y-116240000D02*
X176915000Y-116240000D01*
X170060000Y-108762000D02*
G75*
G02*
X169806000Y-108762000I-127000J0D01*
G01*
X169806000Y-108762000D02*
G75*
G02*
X170060000Y-108762000I127000J0D01*
G01*
D21*
%TO.C,C2*%
X177140000Y-87907836D02*
X177140000Y-87692164D01*
X177860000Y-87907836D02*
X177860000Y-87692164D01*
D20*
%TO.C,R19*%
X191850000Y-113036359D02*
X191850000Y-113343641D01*
X192610000Y-113036359D02*
X192610000Y-113343641D01*
D21*
%TO.C,C14*%
X184992164Y-113490000D02*
X185207836Y-113490000D01*
X184992164Y-114210000D02*
X185207836Y-114210000D01*
D20*
%TO.C,X5*%
X136724300Y-123378900D02*
X136724300Y-129128900D01*
X136724300Y-129128900D02*
X144124300Y-129128900D01*
X139124300Y-123436400D02*
X139124300Y-123936400D01*
X141724300Y-123436400D02*
X141724300Y-123936400D01*
X141724300Y-123936400D02*
X139124300Y-123936400D01*
X144124300Y-123378900D02*
X136724300Y-123378900D01*
X144124300Y-129128900D02*
X144124300Y-123378900D01*
D21*
%TO.C,C13*%
X182440000Y-108607836D02*
X182440000Y-108392164D01*
X183160000Y-108607836D02*
X183160000Y-108392164D01*
%TO.C,R4*%
X187430000Y-83096359D02*
X187430000Y-83403641D01*
X188190000Y-83096359D02*
X188190000Y-83403641D01*
D20*
%TO.C,USB0*%
X198000000Y-113300000D02*
X198000000Y-105800000D01*
X198000000Y-113300000D02*
X202170000Y-113300000D01*
X202170000Y-105800000D02*
X198000000Y-105800000D01*
X202170000Y-113300000D02*
X202170000Y-105800000D01*
D21*
%TO.C,R9*%
X119036359Y-118490000D02*
X119343641Y-118490000D01*
X119036359Y-119250000D02*
X119343641Y-119250000D01*
D20*
%TO.C,D2*%
X171798968Y-126107836D02*
X167938968Y-126107836D01*
X171798968Y-128107836D02*
X167938968Y-128107836D01*
X171798968Y-128107836D02*
X171798968Y-126107836D01*
D21*
%TO.C,R1*%
X128720000Y-102853641D02*
X128720000Y-102546359D01*
X129480000Y-102853641D02*
X129480000Y-102546359D01*
%TO.C,R3*%
X175929100Y-98997241D02*
X175929100Y-98689959D01*
X176689100Y-98997241D02*
X176689100Y-98689959D01*
%TO.C,C11*%
X187957836Y-110840000D02*
X187742164Y-110840000D01*
X187957836Y-111560000D02*
X187742164Y-111560000D01*
D20*
%TO.C,BZ1*%
X132982600Y-110184000D02*
X134334600Y-110184000D01*
X133684600Y-110856000D02*
X133684600Y-109504000D01*
X127604647Y-110180000D02*
G75*
G02*
X125464553Y-110180000I-1070047J0D01*
G01*
X125464553Y-110180000D02*
G75*
G02*
X127604647Y-110180000I1070047J0D01*
G01*
X134747412Y-110180000D02*
G75*
G02*
X123221788Y-110180000I-5762812J0D01*
G01*
X123221788Y-110180000D02*
G75*
G02*
X134747412Y-110180000I5762812J0D01*
G01*
X132504647Y-110180000D02*
G75*
G02*
X130364553Y-110180000I-1070047J0D01*
G01*
X130364553Y-110180000D02*
G75*
G02*
X132504647Y-110180000I1070047J0D01*
G01*
%TO.C,R20*%
X172570000Y-121453641D02*
X172570000Y-121146359D01*
X173330000Y-121453641D02*
X173330000Y-121146359D01*
D22*
%TO.C,MOTOR0*%
X111651100Y-83368600D02*
X111651100Y-84638600D01*
X111651100Y-84638600D02*
X112286100Y-85273600D01*
X112286100Y-82733600D02*
X111651100Y-83368600D01*
X112286100Y-82733600D02*
X113556100Y-82733600D01*
X113556100Y-82733600D02*
X114191100Y-83368600D01*
X113556100Y-85273600D02*
X112286100Y-85273600D01*
X114191100Y-83368600D02*
X114191100Y-84638600D01*
X114191100Y-83368600D02*
X114826100Y-82733600D01*
X114191100Y-84638600D02*
X113556100Y-85273600D01*
X114826100Y-82733600D02*
X116096100Y-82733600D01*
X114826100Y-85273600D02*
X114191100Y-84638600D01*
X116096100Y-82733600D02*
X116731100Y-83368600D01*
X116096100Y-85273600D02*
X114826100Y-85273600D01*
X116731100Y-83368600D02*
X116731100Y-84638600D01*
X116731100Y-83368600D02*
X117366100Y-82733600D01*
X116731100Y-84638600D02*
X116096100Y-85273600D01*
X117366100Y-82733600D02*
X118636100Y-82733600D01*
X117366100Y-85273600D02*
X116731100Y-84638600D01*
X118636100Y-82733600D02*
X119271100Y-83368600D01*
X118636100Y-85273600D02*
X117366100Y-85273600D01*
X119271100Y-83368600D02*
X119271100Y-84638600D01*
X119271100Y-84638600D02*
X118636100Y-85273600D01*
X119271100Y-84638600D02*
X119906100Y-85273600D01*
X119906100Y-82733600D02*
X119271100Y-83368600D01*
X119906100Y-82733600D02*
X121176100Y-82733600D01*
X121176100Y-82733600D02*
X121811100Y-83368600D01*
X121176100Y-85273600D02*
X119906100Y-85273600D01*
X121811100Y-83368600D02*
X121811100Y-84638600D01*
X121811100Y-84638600D02*
X121176100Y-85273600D01*
X121811100Y-84638600D02*
X122446100Y-85273600D01*
X122446100Y-82733600D02*
X121811100Y-83368600D01*
X122446100Y-82733600D02*
X123716100Y-82733600D01*
X123716100Y-82733600D02*
X124351100Y-83368600D01*
X123716100Y-85273600D02*
X122446100Y-85273600D01*
X124351100Y-83368600D02*
X124351100Y-84638600D01*
X124351100Y-84638600D02*
X123716100Y-85273600D01*
D21*
%TO.C,C16*%
X165723004Y-124340000D02*
X165507332Y-124340000D01*
X165723004Y-125060000D02*
X165507332Y-125060000D01*
%TO.C,C5*%
X173140000Y-124092164D02*
X173140000Y-124307836D01*
X173860000Y-124092164D02*
X173860000Y-124307836D01*
%TO.C,R2*%
X153820000Y-109853641D02*
X153820000Y-109546359D01*
X154580000Y-109853641D02*
X154580000Y-109546359D01*
%TO.C,C9*%
X113240000Y-98992164D02*
X113240000Y-99207836D01*
X113960000Y-98992164D02*
X113960000Y-99207836D01*
%TO.C,R7*%
X116553641Y-123520000D02*
X116246359Y-123520000D01*
X116553641Y-124280000D02*
X116246359Y-124280000D01*
D20*
%TO.C,EXT0*%
X188844300Y-89614800D02*
X203344300Y-89614800D01*
X188844300Y-95614800D02*
X188844300Y-89614800D01*
X203344300Y-95614800D02*
X188844300Y-95614800D01*
X203344300Y-95614800D02*
X203344300Y-89614800D01*
D21*
%TO.C,U2*%
X187400000Y-106740000D02*
X186600000Y-106740000D01*
X187400000Y-106740000D02*
X188200000Y-106740000D01*
X187400000Y-109860000D02*
X186600000Y-109860000D01*
X187400000Y-109860000D02*
X188200000Y-109860000D01*
X188940000Y-110140000D02*
X188460000Y-110140000D01*
X188700000Y-109810000D01*
X188940000Y-110140000D01*
G36*
X188940000Y-110140000D02*
G01*
X188460000Y-110140000D01*
X188700000Y-109810000D01*
X188940000Y-110140000D01*
G37*
D20*
%TO.C,CHG0*%
X164440000Y-119740000D02*
X164440000Y-121210000D01*
X164440000Y-121210000D02*
X166725000Y-121210000D01*
X166725000Y-119740000D02*
X164440000Y-119740000D01*
D24*
%TO.C,G\u002A\u002A\u002A*%
G36*
X101213450Y-83499751D02*
G01*
X101197634Y-83515567D01*
X101181819Y-83499751D01*
X101197634Y-83483935D01*
X101213450Y-83499751D01*
G37*
G36*
X101213450Y-84480324D02*
G01*
X101197634Y-84496139D01*
X101181819Y-84480324D01*
X101197634Y-84464508D01*
X101213450Y-84480324D01*
G37*
G36*
X101213450Y-85460897D02*
G01*
X101197634Y-85476712D01*
X101181819Y-85460897D01*
X101197634Y-85445081D01*
X101213450Y-85460897D01*
G37*
G36*
X101213450Y-92388169D02*
G01*
X101197634Y-92403985D01*
X101181819Y-92388169D01*
X101197634Y-92372354D01*
X101213450Y-92388169D01*
G37*
G36*
X101213450Y-93368742D02*
G01*
X101197634Y-93384558D01*
X101181819Y-93368742D01*
X101197634Y-93352926D01*
X101213450Y-93368742D01*
G37*
G36*
X101213450Y-94349315D02*
G01*
X101197634Y-94365131D01*
X101181819Y-94349315D01*
X101197634Y-94333499D01*
X101213450Y-94349315D01*
G37*
G36*
X101213450Y-95361519D02*
G01*
X101197634Y-95377335D01*
X101181819Y-95361519D01*
X101197634Y-95345704D01*
X101213450Y-95361519D01*
G37*
G36*
X101213450Y-96342092D02*
G01*
X101197634Y-96357908D01*
X101181819Y-96342092D01*
X101197634Y-96326276D01*
X101213450Y-96342092D01*
G37*
G36*
X102194023Y-83499751D02*
G01*
X102178207Y-83515567D01*
X102162391Y-83499751D01*
X102178207Y-83483935D01*
X102194023Y-83499751D01*
G37*
G36*
X102194023Y-84480324D02*
G01*
X102178207Y-84496139D01*
X102162391Y-84480324D01*
X102178207Y-84464508D01*
X102194023Y-84480324D01*
G37*
G36*
X102194023Y-85460897D02*
G01*
X102178207Y-85476712D01*
X102162391Y-85460897D01*
X102178207Y-85445081D01*
X102194023Y-85460897D01*
G37*
G36*
X102194023Y-88434247D02*
G01*
X102178207Y-88450062D01*
X102162391Y-88434247D01*
X102178207Y-88418431D01*
X102194023Y-88434247D01*
G37*
G36*
X102194023Y-89414819D02*
G01*
X102178207Y-89430635D01*
X102162391Y-89414819D01*
X102178207Y-89399004D01*
X102194023Y-89414819D01*
G37*
G36*
X102194023Y-92388169D02*
G01*
X102178207Y-92403985D01*
X102162391Y-92388169D01*
X102178207Y-92372354D01*
X102194023Y-92388169D01*
G37*
G36*
X102194023Y-94349315D02*
G01*
X102178207Y-94365131D01*
X102162391Y-94349315D01*
X102178207Y-94333499D01*
X102194023Y-94349315D01*
G37*
G36*
X102194023Y-95361519D02*
G01*
X102178207Y-95377335D01*
X102162391Y-95361519D01*
X102178207Y-95345704D01*
X102194023Y-95361519D01*
G37*
G36*
X102194023Y-96342092D02*
G01*
X102178207Y-96357908D01*
X102162391Y-96342092D01*
X102178207Y-96326276D01*
X102194023Y-96342092D01*
G37*
G36*
X104155168Y-88434247D02*
G01*
X104139353Y-88450062D01*
X104123537Y-88434247D01*
X104139353Y-88418431D01*
X104155168Y-88434247D01*
G37*
G36*
X104155168Y-89414819D02*
G01*
X104139353Y-89430635D01*
X104123537Y-89414819D01*
X104139353Y-89399004D01*
X104155168Y-89414819D01*
G37*
G36*
X104155168Y-92388169D02*
G01*
X104139353Y-92403985D01*
X104123537Y-92388169D01*
X104139353Y-92372354D01*
X104155168Y-92388169D01*
G37*
G36*
X104155168Y-94349315D02*
G01*
X104139353Y-94365131D01*
X104123537Y-94349315D01*
X104139353Y-94333499D01*
X104155168Y-94349315D01*
G37*
G36*
X104155168Y-95361519D02*
G01*
X104139353Y-95377335D01*
X104123537Y-95361519D01*
X104139353Y-95345704D01*
X104155168Y-95361519D01*
G37*
G36*
X105135741Y-92388169D02*
G01*
X105119926Y-92403985D01*
X105104110Y-92388169D01*
X105119926Y-92372354D01*
X105135741Y-92388169D01*
G37*
G36*
X105135741Y-94349315D02*
G01*
X105119926Y-94365131D01*
X105104110Y-94349315D01*
X105119926Y-94333499D01*
X105135741Y-94349315D01*
G37*
G36*
X105135741Y-95361519D02*
G01*
X105119926Y-95377335D01*
X105104110Y-95361519D01*
X105119926Y-95345704D01*
X105135741Y-95361519D01*
G37*
G36*
X106147946Y-89414819D02*
G01*
X106132130Y-89430635D01*
X106116314Y-89414819D01*
X106132130Y-89399004D01*
X106147946Y-89414819D01*
G37*
G36*
X106147946Y-92388169D02*
G01*
X106132130Y-92403985D01*
X106116314Y-92388169D01*
X106132130Y-92372354D01*
X106147946Y-92388169D01*
G37*
G36*
X107128518Y-92388169D02*
G01*
X107112703Y-92403985D01*
X107096887Y-92388169D01*
X107112703Y-92372354D01*
X107128518Y-92388169D01*
G37*
G36*
X107128518Y-94349315D02*
G01*
X107112703Y-94365131D01*
X107096887Y-94349315D01*
X107112703Y-94333499D01*
X107128518Y-94349315D01*
G37*
G36*
X107128518Y-95361519D02*
G01*
X107112703Y-95377335D01*
X107096887Y-95361519D01*
X107112703Y-95345704D01*
X107128518Y-95361519D01*
G37*
G36*
X108109091Y-87453674D02*
G01*
X108093276Y-87469489D01*
X108077460Y-87453674D01*
X108093276Y-87437858D01*
X108109091Y-87453674D01*
G37*
G36*
X108109091Y-88434247D02*
G01*
X108093276Y-88450062D01*
X108077460Y-88434247D01*
X108093276Y-88418431D01*
X108109091Y-88434247D01*
G37*
G36*
X108109091Y-89414819D02*
G01*
X108093276Y-89430635D01*
X108077460Y-89414819D01*
X108093276Y-89399004D01*
X108109091Y-89414819D01*
G37*
G36*
X108109091Y-92388169D02*
G01*
X108093276Y-92403985D01*
X108077460Y-92388169D01*
X108093276Y-92372354D01*
X108109091Y-92388169D01*
G37*
G36*
X108109091Y-96342092D02*
G01*
X108093276Y-96357908D01*
X108077460Y-96342092D01*
X108093276Y-96326276D01*
X108109091Y-96342092D01*
G37*
G36*
X109089664Y-83499751D02*
G01*
X109073848Y-83515567D01*
X109058033Y-83499751D01*
X109073848Y-83483935D01*
X109089664Y-83499751D01*
G37*
G36*
X109089664Y-84480324D02*
G01*
X109073848Y-84496139D01*
X109058033Y-84480324D01*
X109073848Y-84464508D01*
X109089664Y-84480324D01*
G37*
G36*
X109089664Y-85460897D02*
G01*
X109073848Y-85476712D01*
X109058033Y-85460897D01*
X109073848Y-85445081D01*
X109089664Y-85460897D01*
G37*
G36*
X109089664Y-87453674D02*
G01*
X109073848Y-87469489D01*
X109058033Y-87453674D01*
X109073848Y-87437858D01*
X109089664Y-87453674D01*
G37*
G36*
X109089664Y-88434247D02*
G01*
X109073848Y-88450062D01*
X109058033Y-88434247D01*
X109073848Y-88418431D01*
X109089664Y-88434247D01*
G37*
G36*
X109089664Y-89414819D02*
G01*
X109073848Y-89430635D01*
X109058033Y-89414819D01*
X109073848Y-89399004D01*
X109089664Y-89414819D01*
G37*
G36*
X109089664Y-92388169D02*
G01*
X109073848Y-92403985D01*
X109058033Y-92388169D01*
X109073848Y-92372354D01*
X109089664Y-92388169D01*
G37*
G36*
X109089664Y-94349315D02*
G01*
X109073848Y-94365131D01*
X109058033Y-94349315D01*
X109073848Y-94333499D01*
X109089664Y-94349315D01*
G37*
G36*
X109089664Y-95361519D02*
G01*
X109073848Y-95377335D01*
X109058033Y-95361519D01*
X109073848Y-95345704D01*
X109089664Y-95361519D01*
G37*
G36*
X110101868Y-83499751D02*
G01*
X110086053Y-83515567D01*
X110070237Y-83499751D01*
X110086053Y-83483935D01*
X110101868Y-83499751D01*
G37*
G36*
X110101868Y-84480324D02*
G01*
X110086053Y-84496139D01*
X110070237Y-84480324D01*
X110086053Y-84464508D01*
X110101868Y-84480324D01*
G37*
G36*
X110101868Y-85460897D02*
G01*
X110086053Y-85476712D01*
X110070237Y-85460897D01*
X110086053Y-85445081D01*
X110101868Y-85460897D01*
G37*
G36*
X110101868Y-92388169D02*
G01*
X110086053Y-92403985D01*
X110070237Y-92388169D01*
X110086053Y-92372354D01*
X110101868Y-92388169D01*
G37*
G36*
X110101868Y-95361519D02*
G01*
X110086053Y-95377335D01*
X110070237Y-95361519D01*
X110086053Y-95345704D01*
X110101868Y-95361519D01*
G37*
G36*
X111082441Y-83499751D02*
G01*
X111066626Y-83515567D01*
X111050810Y-83499751D01*
X111066626Y-83483935D01*
X111082441Y-83499751D01*
G37*
G36*
X111082441Y-84480324D02*
G01*
X111066626Y-84496139D01*
X111050810Y-84480324D01*
X111066626Y-84464508D01*
X111082441Y-84480324D01*
G37*
G36*
X111082441Y-85460897D02*
G01*
X111066626Y-85476712D01*
X111050810Y-85460897D01*
X111066626Y-85445081D01*
X111082441Y-85460897D01*
G37*
G36*
X111082441Y-86473101D02*
G01*
X111066626Y-86488916D01*
X111050810Y-86473101D01*
X111066626Y-86457285D01*
X111082441Y-86473101D01*
G37*
G36*
X111082441Y-87453674D02*
G01*
X111066626Y-87469489D01*
X111050810Y-87453674D01*
X111066626Y-87437858D01*
X111082441Y-87453674D01*
G37*
G36*
X111082441Y-88434247D02*
G01*
X111066626Y-88450062D01*
X111050810Y-88434247D01*
X111066626Y-88418431D01*
X111082441Y-88434247D01*
G37*
G36*
X111082441Y-89414819D02*
G01*
X111066626Y-89430635D01*
X111050810Y-89414819D01*
X111066626Y-89399004D01*
X111082441Y-89414819D01*
G37*
G36*
X111082441Y-90427024D02*
G01*
X111066626Y-90442839D01*
X111050810Y-90427024D01*
X111066626Y-90411208D01*
X111082441Y-90427024D01*
G37*
G36*
X111082441Y-92388169D02*
G01*
X111066626Y-92403985D01*
X111050810Y-92388169D01*
X111066626Y-92372354D01*
X111082441Y-92388169D01*
G37*
G36*
X111082441Y-93368742D02*
G01*
X111066626Y-93384558D01*
X111050810Y-93368742D01*
X111066626Y-93352926D01*
X111082441Y-93368742D01*
G37*
G36*
X111082441Y-94349315D02*
G01*
X111066626Y-94365131D01*
X111050810Y-94349315D01*
X111066626Y-94333499D01*
X111082441Y-94349315D01*
G37*
G36*
X111082441Y-95361519D02*
G01*
X111066626Y-95377335D01*
X111050810Y-95361519D01*
X111066626Y-95345704D01*
X111082441Y-95361519D01*
G37*
G36*
X111082441Y-96342092D02*
G01*
X111066626Y-96357908D01*
X111050810Y-96342092D01*
X111066626Y-96326276D01*
X111082441Y-96342092D01*
G37*
G36*
X103195683Y-83494479D02*
G01*
X103191341Y-83513284D01*
X103174596Y-83515567D01*
X103148559Y-83503993D01*
X103153508Y-83494479D01*
X103191047Y-83490693D01*
X103195683Y-83494479D01*
G37*
G36*
X103195683Y-84475052D02*
G01*
X103191341Y-84493857D01*
X103174596Y-84496139D01*
X103148559Y-84484566D01*
X103153508Y-84475052D01*
X103191047Y-84471266D01*
X103195683Y-84475052D01*
G37*
G36*
X103195683Y-85455625D02*
G01*
X103191341Y-85474429D01*
X103174596Y-85476712D01*
X103148559Y-85465139D01*
X103153508Y-85455625D01*
X103191047Y-85451839D01*
X103195683Y-85455625D01*
G37*
G36*
X103195683Y-87448402D02*
G01*
X103191341Y-87467207D01*
X103174596Y-87469489D01*
X103148559Y-87457916D01*
X103153508Y-87448402D01*
X103191047Y-87444616D01*
X103195683Y-87448402D01*
G37*
G36*
X103195683Y-88428975D02*
G01*
X103191341Y-88447779D01*
X103174596Y-88450062D01*
X103148559Y-88438489D01*
X103153508Y-88428975D01*
X103191047Y-88425189D01*
X103195683Y-88428975D01*
G37*
G36*
X103195683Y-89409547D02*
G01*
X103191341Y-89428352D01*
X103174596Y-89430635D01*
X103148559Y-89419062D01*
X103153508Y-89409547D01*
X103191047Y-89405762D01*
X103195683Y-89409547D01*
G37*
G36*
X103195683Y-94344043D02*
G01*
X103191341Y-94362848D01*
X103174596Y-94365131D01*
X103148559Y-94353557D01*
X103153508Y-94344043D01*
X103191047Y-94340257D01*
X103195683Y-94344043D01*
G37*
G36*
X103195683Y-95356247D02*
G01*
X103191341Y-95375052D01*
X103174596Y-95377335D01*
X103148559Y-95365762D01*
X103153508Y-95356247D01*
X103191047Y-95352462D01*
X103195683Y-95356247D01*
G37*
G36*
X103195683Y-96336820D02*
G01*
X103191341Y-96355625D01*
X103174596Y-96357908D01*
X103148559Y-96346334D01*
X103153508Y-96336820D01*
X103191047Y-96333035D01*
X103195683Y-96336820D01*
G37*
G36*
X111071897Y-91370693D02*
G01*
X111075683Y-91408232D01*
X111071897Y-91412868D01*
X111053093Y-91408526D01*
X111050810Y-91391781D01*
X111062383Y-91365745D01*
X111071897Y-91370693D01*
G37*
G36*
X107824409Y-84638481D02*
G01*
X107824409Y-85634869D01*
X106037236Y-85634869D01*
X104250063Y-85634869D01*
X104250063Y-84638481D01*
X104250063Y-83642092D01*
X106037236Y-83642092D01*
X107824409Y-83642092D01*
X107824409Y-84638481D01*
G37*
G36*
X102964014Y-88250407D02*
G01*
X103042635Y-88316523D01*
X103077558Y-88428225D01*
X103079701Y-88473586D01*
X103073954Y-88563619D01*
X103049026Y-88613973D01*
X102993394Y-88647767D01*
X102992715Y-88648068D01*
X102892397Y-88703674D01*
X102835030Y-88768775D01*
X102817965Y-88805915D01*
X102774582Y-88851041D01*
X102712899Y-88857580D01*
X102662808Y-88824552D01*
X102656062Y-88811236D01*
X102639301Y-88720029D01*
X102638123Y-88595328D01*
X102650984Y-88464539D01*
X102676341Y-88355067D01*
X102682695Y-88338336D01*
X102721917Y-88264446D01*
X102771986Y-88233941D01*
X102840490Y-88228643D01*
X102964014Y-88250407D01*
G37*
G36*
X103896463Y-88371081D02*
G01*
X103972092Y-88423696D01*
X104014297Y-88520323D01*
X104028545Y-88668274D01*
X104028643Y-88685099D01*
X104016722Y-88829762D01*
X103983804Y-88939967D01*
X103934152Y-89005270D01*
X103892416Y-89018691D01*
X103854816Y-88996113D01*
X103789085Y-88936927D01*
X103707946Y-88852828D01*
X103688606Y-88831373D01*
X103609792Y-88736438D01*
X103551224Y-88653727D01*
X103523467Y-88598479D01*
X103522541Y-88591848D01*
X103540079Y-88531236D01*
X103582819Y-88454416D01*
X103587957Y-88447037D01*
X103645762Y-88384270D01*
X103716517Y-88358619D01*
X103781943Y-88355168D01*
X103896463Y-88371081D01*
G37*
G36*
X105119942Y-91946999D02*
G01*
X105314090Y-91954186D01*
X105505037Y-91965443D01*
X105682514Y-91980296D01*
X105836249Y-91998271D01*
X105955973Y-92018893D01*
X106031414Y-92041687D01*
X106053051Y-92062335D01*
X106022805Y-92069132D01*
X105937602Y-92075240D01*
X105805748Y-92080403D01*
X105635547Y-92084366D01*
X105435304Y-92086872D01*
X105230635Y-92087671D01*
X105010006Y-92086650D01*
X104811740Y-92083775D01*
X104644141Y-92079324D01*
X104515515Y-92073580D01*
X104434166Y-92066821D01*
X104408220Y-92059913D01*
X104429974Y-92019432D01*
X104460666Y-91988742D01*
X104516758Y-91968455D01*
X104621002Y-91954611D01*
X104763128Y-91946737D01*
X104932865Y-91944358D01*
X105119942Y-91946999D01*
G37*
G36*
X105578581Y-93163138D02*
G01*
X105578581Y-93352926D01*
X105380885Y-93355842D01*
X105283166Y-93356864D01*
X105137251Y-93357854D01*
X104958207Y-93358734D01*
X104761100Y-93359429D01*
X104609442Y-93359784D01*
X104035695Y-93360810D01*
X104030603Y-93989496D01*
X104025512Y-94618182D01*
X104691336Y-94618182D01*
X105357161Y-94618182D01*
X105357161Y-94807970D01*
X105357161Y-94997758D01*
X104696528Y-94997758D01*
X104035895Y-94997758D01*
X104030679Y-95614570D01*
X104025464Y-96231382D01*
X104802022Y-96231382D01*
X105578581Y-96231382D01*
X105578581Y-96405355D01*
X105578581Y-96579327D01*
X104613824Y-96579327D01*
X103649066Y-96579327D01*
X103649066Y-94776339D01*
X103649066Y-92973350D01*
X104613824Y-92973350D01*
X105578581Y-92973350D01*
X105578581Y-93163138D01*
G37*
G36*
X103206237Y-93171046D02*
G01*
X103206247Y-93368742D01*
X102450564Y-93362393D01*
X101694881Y-93356044D01*
X101689859Y-94002928D01*
X101684836Y-94649813D01*
X102366453Y-94649813D01*
X103048070Y-94649813D01*
X103048070Y-94839601D01*
X103048070Y-95029390D01*
X102371510Y-95029390D01*
X102136768Y-95030236D01*
X101959125Y-95033015D01*
X101832435Y-95038087D01*
X101750555Y-95045812D01*
X101707340Y-95056549D01*
X101696418Y-95068929D01*
X101696629Y-95110704D01*
X101696421Y-95206317D01*
X101695836Y-95346346D01*
X101694917Y-95521367D01*
X101693706Y-95721958D01*
X101692904Y-95843898D01*
X101687921Y-96579327D01*
X101498132Y-96579327D01*
X101308344Y-96579327D01*
X101308344Y-94776339D01*
X101308344Y-92973350D01*
X102257286Y-92973350D01*
X103206227Y-92973350D01*
X103206237Y-93171046D01*
G37*
G36*
X103391046Y-88804942D02*
G01*
X103496194Y-88824235D01*
X103547446Y-88857363D01*
X103554172Y-88880775D01*
X103579521Y-88919633D01*
X103600976Y-88924533D01*
X103649603Y-88952999D01*
X103698933Y-89026851D01*
X103741293Y-89128769D01*
X103769010Y-89241432D01*
X103775592Y-89318665D01*
X103764657Y-89418051D01*
X103728634Y-89461058D01*
X103662695Y-89449911D01*
X103587676Y-89405252D01*
X103531540Y-89377898D01*
X103449771Y-89361156D01*
X103328652Y-89353086D01*
X103208099Y-89351557D01*
X103065603Y-89354364D01*
X102938151Y-89361882D01*
X102845213Y-89372751D01*
X102818743Y-89378709D01*
X102761393Y-89392289D01*
X102737160Y-89374330D01*
X102731812Y-89310433D01*
X102731756Y-89290707D01*
X102743759Y-89181022D01*
X102774734Y-89076946D01*
X102817133Y-88996426D01*
X102863404Y-88957408D01*
X102872483Y-88956164D01*
X102915460Y-88932110D01*
X102921545Y-88909830D01*
X102951265Y-88852465D01*
X103038782Y-88815251D01*
X103181633Y-88799084D01*
X103227871Y-88798439D01*
X103391046Y-88804942D01*
G37*
G36*
X103402160Y-89497339D02*
G01*
X103482444Y-89510505D01*
X103558830Y-89537114D01*
X103641221Y-89575421D01*
X103869841Y-89722059D01*
X104063144Y-89921127D01*
X104221039Y-90172508D01*
X104343432Y-90476082D01*
X104345974Y-90484139D01*
X104384536Y-90659450D01*
X104406241Y-90871461D01*
X104411122Y-91099046D01*
X104399216Y-91321079D01*
X104370555Y-91516434D01*
X104344123Y-91615675D01*
X104289591Y-91759730D01*
X104227985Y-91894401D01*
X104166122Y-92007339D01*
X104110820Y-92086197D01*
X104068895Y-92118628D01*
X104066315Y-92118847D01*
X104039021Y-92135333D01*
X104042537Y-92147825D01*
X104033864Y-92189143D01*
X103982599Y-92253001D01*
X103900267Y-92329171D01*
X103798391Y-92407424D01*
X103688492Y-92477529D01*
X103644500Y-92501184D01*
X103544473Y-92547767D01*
X103456919Y-92575501D01*
X103358654Y-92588996D01*
X103226497Y-92592861D01*
X103183405Y-92592856D01*
X103042872Y-92590326D01*
X102941530Y-92580057D01*
X102855340Y-92556363D01*
X102760266Y-92513560D01*
X102687540Y-92475585D01*
X102581882Y-92413615D01*
X102500298Y-92355218D01*
X102457754Y-92311358D01*
X102455288Y-92305454D01*
X102416031Y-92251086D01*
X102388794Y-92237295D01*
X102338623Y-92198621D01*
X102274309Y-92113612D01*
X102203350Y-91995382D01*
X102133245Y-91857041D01*
X102071492Y-91711703D01*
X102044178Y-91634681D01*
X102008518Y-91509084D01*
X101986514Y-91384052D01*
X101975452Y-91237916D01*
X101972603Y-91063318D01*
X101995923Y-90711790D01*
X102065007Y-90396883D01*
X102178544Y-90121357D01*
X102335221Y-89887968D01*
X102533728Y-89699474D01*
X102661522Y-89615214D01*
X102753679Y-89565708D01*
X102834335Y-89533922D01*
X102923771Y-89515042D01*
X103042269Y-89504254D01*
X103150934Y-89499037D01*
X103298238Y-89494542D01*
X103402160Y-89497339D01*
G37*
G36*
X106788481Y-92981449D02*
G01*
X107029814Y-92987782D01*
X107217859Y-92994843D01*
X107362589Y-93003527D01*
X107473980Y-93014728D01*
X107562005Y-93029340D01*
X107636639Y-93048257D01*
X107676235Y-93061042D01*
X107842094Y-93134394D01*
X107962473Y-93222292D01*
X108028851Y-93318366D01*
X108031746Y-93326757D01*
X108061025Y-93365513D01*
X108084625Y-93364314D01*
X108103989Y-93363106D01*
X108097647Y-93377485D01*
X108096174Y-93420428D01*
X108105721Y-93429922D01*
X108133743Y-93469041D01*
X108156630Y-93550600D01*
X108174576Y-93677742D01*
X108187776Y-93853609D01*
X108196425Y-94081342D01*
X108200718Y-94364084D01*
X108200850Y-94704977D01*
X108199056Y-94934496D01*
X108195695Y-95240316D01*
X108191682Y-95489998D01*
X108185758Y-95690661D01*
X108176663Y-95849428D01*
X108163138Y-95973417D01*
X108143925Y-96069751D01*
X108117763Y-96145550D01*
X108083394Y-96207936D01*
X108039558Y-96264028D01*
X107984997Y-96320948D01*
X107947390Y-96357681D01*
X107872525Y-96423284D01*
X107793070Y-96474797D01*
X107700480Y-96513851D01*
X107586209Y-96542076D01*
X107441713Y-96561103D01*
X107258446Y-96572563D01*
X107027863Y-96578084D01*
X106785701Y-96579327D01*
X106084683Y-96579327D01*
X106084683Y-96203684D01*
X106462511Y-96203684D01*
X106975167Y-96197317D01*
X107487823Y-96190949D01*
X107605890Y-96074057D01*
X107667416Y-96007338D01*
X107716345Y-95937117D01*
X107754084Y-95855455D01*
X107782036Y-95754413D01*
X107801609Y-95626050D01*
X107814206Y-95462428D01*
X107821234Y-95255608D01*
X107824098Y-94997649D01*
X107824409Y-94839670D01*
X107822654Y-94527402D01*
X107816938Y-94271743D01*
X107806580Y-94066124D01*
X107790901Y-93903975D01*
X107769222Y-93778728D01*
X107740862Y-93683814D01*
X107705142Y-93612664D01*
X107696087Y-93599351D01*
X107653637Y-93530476D01*
X107634687Y-93480582D01*
X107634621Y-93478866D01*
X107614722Y-93460196D01*
X107598191Y-93466602D01*
X107551046Y-93464837D01*
X107527020Y-93444745D01*
X107509812Y-93425132D01*
X107487160Y-93410395D01*
X107449783Y-93399326D01*
X107388404Y-93390721D01*
X107293742Y-93383372D01*
X107156517Y-93376074D01*
X106967450Y-93367620D01*
X106916848Y-93365437D01*
X106467943Y-93346103D01*
X106465227Y-94774893D01*
X106462511Y-96203684D01*
X106084683Y-96203684D01*
X106084683Y-94772259D01*
X106084683Y-92965191D01*
X106788481Y-92981449D01*
G37*
G36*
X109868031Y-92962605D02*
G01*
X110036480Y-93006163D01*
X110087726Y-93028835D01*
X110236458Y-93126712D01*
X110357631Y-93247656D01*
X110436407Y-93375865D01*
X110449876Y-93414530D01*
X110461575Y-93488079D01*
X110471304Y-93609054D01*
X110478149Y-93761629D01*
X110481195Y-93929976D01*
X110481269Y-93957481D01*
X110481445Y-94388063D01*
X110383922Y-94511030D01*
X110311736Y-94592416D01*
X110242148Y-94655810D01*
X110217858Y-94672416D01*
X110179620Y-94700839D01*
X110186428Y-94711955D01*
X110250882Y-94738784D01*
X110330900Y-94806066D01*
X110411803Y-94898686D01*
X110478916Y-95001530D01*
X110491271Y-95025908D01*
X110520068Y-95093842D01*
X110539686Y-95164004D01*
X110551818Y-95250395D01*
X110558157Y-95367016D01*
X110560395Y-95527869D01*
X110560523Y-95598755D01*
X110559571Y-95775680D01*
X110555508Y-95903141D01*
X110546525Y-95994923D01*
X110530812Y-96064811D01*
X110506559Y-96126591D01*
X110485783Y-96168119D01*
X110390067Y-96326091D01*
X110285861Y-96440622D01*
X110160991Y-96518431D01*
X110003287Y-96566236D01*
X109800576Y-96590757D01*
X109711891Y-96595266D01*
X109559671Y-96598142D01*
X109416779Y-96595861D01*
X109304381Y-96588978D01*
X109263637Y-96583509D01*
X109108451Y-96537800D01*
X108975316Y-96467806D01*
X108878085Y-96382777D01*
X108831196Y-96294759D01*
X108798141Y-96232337D01*
X108781605Y-96215681D01*
X108753088Y-96165404D01*
X108724413Y-96071200D01*
X108699711Y-95952261D01*
X108683117Y-95827778D01*
X108678456Y-95736778D01*
X108678456Y-95630386D01*
X108867025Y-95630386D01*
X109055594Y-95630386D01*
X109089525Y-95764819D01*
X109123773Y-95880647D01*
X109169850Y-95990679D01*
X109230304Y-96107310D01*
X109286998Y-96154793D01*
X109388041Y-96191205D01*
X109515014Y-96213371D01*
X109649497Y-96218116D01*
X109773073Y-96202266D01*
X109776425Y-96201438D01*
X109911549Y-96155113D01*
X110007406Y-96086018D01*
X110085340Y-95976920D01*
X110108760Y-95933141D01*
X110139772Y-95861499D01*
X110157263Y-95785247D01*
X110163462Y-95685993D01*
X110160600Y-95545343D01*
X110159366Y-95515817D01*
X110148978Y-95358045D01*
X110132729Y-95251716D01*
X110108401Y-95185116D01*
X110092577Y-95163125D01*
X110051066Y-95103818D01*
X110038606Y-95066438D01*
X110014018Y-95031558D01*
X110001557Y-95029390D01*
X109950954Y-95009828D01*
X109907478Y-94977778D01*
X109833158Y-94942282D01*
X109704729Y-94917564D01*
X109628212Y-94910265D01*
X109405978Y-94894364D01*
X109405978Y-94713332D01*
X109405978Y-94532300D01*
X109595573Y-94512483D01*
X109772482Y-94485558D01*
X109898149Y-94443906D01*
X109983991Y-94381509D01*
X110041425Y-94292350D01*
X110049522Y-94273258D01*
X110091865Y-94099816D01*
X110097538Y-93898151D01*
X110066379Y-93691705D01*
X110053859Y-93645582D01*
X109981313Y-93497502D01*
X109870551Y-93394701D01*
X109730815Y-93340628D01*
X109571347Y-93338731D01*
X109401390Y-93392458D01*
X109390162Y-93397976D01*
X109309369Y-93440825D01*
X109262691Y-93470084D01*
X109258309Y-93478463D01*
X109260607Y-93502419D01*
X109233974Y-93560881D01*
X109221425Y-93582254D01*
X109170926Y-93688181D01*
X109136718Y-93801184D01*
X109136247Y-93803674D01*
X109114255Y-93922291D01*
X108907872Y-93922291D01*
X108701489Y-93922291D01*
X108721777Y-93774274D01*
X108774499Y-93522193D01*
X108858542Y-93321829D01*
X108977726Y-93167925D01*
X109135871Y-93055225D01*
X109290368Y-92992026D01*
X109472294Y-92954489D01*
X109672409Y-92945032D01*
X109868031Y-92962605D01*
G37*
G36*
X108109091Y-84543586D02*
G01*
X108109091Y-85761395D01*
X109485056Y-85761395D01*
X110861022Y-85761395D01*
X110861022Y-88924533D01*
X110861022Y-92087671D01*
X108820797Y-92087671D01*
X108467949Y-92087272D01*
X108134432Y-92086122D01*
X107825519Y-92084287D01*
X107546483Y-92081838D01*
X107302597Y-92078841D01*
X107099135Y-92075366D01*
X106941368Y-92071481D01*
X106834571Y-92067254D01*
X106784016Y-92062754D01*
X106780573Y-92061214D01*
X106808706Y-92044996D01*
X106881994Y-92019787D01*
X106983773Y-91990026D01*
X107097377Y-91960156D01*
X107206143Y-91934616D01*
X107293405Y-91917848D01*
X107334122Y-91913699D01*
X107378915Y-91893359D01*
X107421109Y-91858344D01*
X107488933Y-91814639D01*
X107538613Y-91802989D01*
X107600263Y-91777397D01*
X107638220Y-91733000D01*
X107661123Y-91686253D01*
X107649670Y-91681854D01*
X107595221Y-91715728D01*
X107511824Y-91751726D01*
X107369405Y-91790333D01*
X107172107Y-91830675D01*
X106924074Y-91871880D01*
X106708489Y-91902656D01*
X106538770Y-91916568D01*
X106341379Y-91918708D01*
X106133086Y-91910305D01*
X105930663Y-91892589D01*
X105750880Y-91866790D01*
X105610507Y-91834137D01*
X105568251Y-91819058D01*
X105457100Y-91786218D01*
X105342709Y-91771424D01*
X105336307Y-91771357D01*
X105256695Y-91768155D01*
X105132634Y-91759489D01*
X104982560Y-91746769D01*
X104857317Y-91734737D01*
X104496107Y-91698117D01*
X104516566Y-91521225D01*
X104539563Y-91311953D01*
X104553518Y-91150304D01*
X104558478Y-91021297D01*
X104554493Y-90909949D01*
X104541610Y-90801279D01*
X104519877Y-90680305D01*
X104519285Y-90677318D01*
X104486877Y-90533736D01*
X104449350Y-90397003D01*
X104413628Y-90291754D01*
X104405653Y-90272945D01*
X104360140Y-90138926D01*
X104352728Y-90066332D01*
X105289756Y-90066332D01*
X105958058Y-90061354D01*
X106626360Y-90056375D01*
X106619227Y-89699449D01*
X106612095Y-89342522D01*
X105958255Y-89337651D01*
X105304414Y-89332781D01*
X105297085Y-89699556D01*
X105289756Y-90066332D01*
X104352728Y-90066332D01*
X104348014Y-90020160D01*
X104369881Y-89931947D01*
X104391148Y-89906148D01*
X104430871Y-89854408D01*
X104485884Y-89758161D01*
X104548941Y-89632011D01*
X104612793Y-89490562D01*
X104670195Y-89348420D01*
X104677056Y-89329969D01*
X104702457Y-89244804D01*
X104717077Y-89148366D01*
X104722241Y-89024323D01*
X104719274Y-88856341D01*
X104718118Y-88823867D01*
X104715934Y-88780327D01*
X107140424Y-88780327D01*
X107145403Y-89059296D01*
X107154426Y-89123025D01*
X107203526Y-89335867D01*
X107274687Y-89539855D01*
X107360632Y-89717741D01*
X107454085Y-89852274D01*
X107468671Y-89868030D01*
X107525958Y-89936182D01*
X107554154Y-89988421D01*
X107553790Y-90002834D01*
X107561133Y-90029294D01*
X107577399Y-90032631D01*
X107629951Y-90054048D01*
X107697442Y-90103906D01*
X107758412Y-90163360D01*
X107791403Y-90213565D01*
X107792777Y-90221769D01*
X107809597Y-90244136D01*
X107818736Y-90240741D01*
X107859668Y-90245553D01*
X107929798Y-90277247D01*
X107953169Y-90290769D01*
X108023751Y-90324279D01*
X108135702Y-90367597D01*
X108269303Y-90414079D01*
X108404839Y-90457076D01*
X108522592Y-90489943D01*
X108583784Y-90503347D01*
X108619364Y-90496692D01*
X108701418Y-90476556D01*
X108815511Y-90446561D01*
X108881814Y-90428518D01*
X109008048Y-90396168D01*
X109111237Y-90374159D01*
X109176352Y-90365485D01*
X109189997Y-90367122D01*
X109214829Y-90360158D01*
X109216190Y-90350624D01*
X109241048Y-90315279D01*
X109298770Y-90276171D01*
X109364072Y-90246701D01*
X109411674Y-90240269D01*
X109417783Y-90243769D01*
X109435893Y-90239050D01*
X109437609Y-90225174D01*
X109461256Y-90177752D01*
X109517906Y-90117263D01*
X109586125Y-90062871D01*
X109644477Y-90033738D01*
X109652988Y-90032631D01*
X109680087Y-90015349D01*
X109676421Y-90002550D01*
X109681897Y-89960538D01*
X109710735Y-89921181D01*
X109820379Y-89780918D01*
X109921108Y-89596035D01*
X110005862Y-89385147D01*
X110067582Y-89166871D01*
X110099208Y-88959823D01*
X110101868Y-88889810D01*
X110091964Y-88774967D01*
X110064994Y-88631802D01*
X110025078Y-88472811D01*
X109976333Y-88310493D01*
X109922876Y-88157342D01*
X109868826Y-88025856D01*
X109818299Y-87928532D01*
X109775415Y-87877866D01*
X109767210Y-87874165D01*
X109729917Y-87847290D01*
X109665509Y-87785979D01*
X109590883Y-87706725D01*
X109511904Y-87624478D01*
X109444015Y-87563638D01*
X109403623Y-87538169D01*
X109341355Y-87509523D01*
X109311084Y-87487890D01*
X109257645Y-87455482D01*
X109166312Y-87411249D01*
X109073848Y-87371764D01*
X108886761Y-87318582D01*
X108677560Y-87295216D01*
X108462121Y-87300149D01*
X108256321Y-87331868D01*
X108076036Y-87388857D01*
X107937141Y-87469601D01*
X107923179Y-87481561D01*
X107860505Y-87524395D01*
X107826043Y-87538169D01*
X107775684Y-87567734D01*
X107712768Y-87626405D01*
X107704613Y-87635554D01*
X107645069Y-87693240D01*
X107597104Y-87721857D01*
X107591862Y-87722540D01*
X107548453Y-87747355D01*
X107523504Y-87781401D01*
X107487576Y-87842427D01*
X107432527Y-87929237D01*
X107404724Y-87971462D01*
X107274273Y-88217141D01*
X107184777Y-88493186D01*
X107140424Y-88780327D01*
X104715934Y-88780327D01*
X104709591Y-88653877D01*
X104694957Y-88522487D01*
X104668643Y-88408914D01*
X104625072Y-88292381D01*
X104558668Y-88152108D01*
X104514663Y-88065605D01*
X104482957Y-87987659D01*
X104471482Y-87931172D01*
X104447463Y-87887323D01*
X104424035Y-87880697D01*
X104379271Y-87855206D01*
X104372051Y-87783266D01*
X104372842Y-87777895D01*
X104350964Y-87756729D01*
X104330713Y-87754172D01*
X104274603Y-87730007D01*
X104259542Y-87712247D01*
X104209160Y-87665283D01*
X104178892Y-87649977D01*
X104132033Y-87609145D01*
X104123537Y-87579325D01*
X104107365Y-87546366D01*
X104087107Y-87551534D01*
X104040959Y-87549073D01*
X104015936Y-87527009D01*
X103967543Y-87492897D01*
X103873740Y-87449275D01*
X103750579Y-87401606D01*
X103614116Y-87355355D01*
X103480405Y-87315986D01*
X103365499Y-87288963D01*
X103289315Y-87279701D01*
X103193184Y-87291708D01*
X103075260Y-87322235D01*
X103016439Y-87342964D01*
X102914165Y-87378912D01*
X102827681Y-87401831D01*
X102793848Y-87406227D01*
X102720117Y-87426372D01*
X102676401Y-87454217D01*
X102539154Y-87569614D01*
X102443764Y-87641294D01*
X102387954Y-87670869D01*
X102372547Y-87669102D01*
X102355432Y-87676216D01*
X102352180Y-87701453D01*
X102328165Y-87746655D01*
X102302866Y-87754172D01*
X102269281Y-87768311D01*
X102271446Y-87783125D01*
X102264887Y-87823854D01*
X102225881Y-87887498D01*
X102214500Y-87901743D01*
X102120751Y-88034845D01*
X102040450Y-88197112D01*
X101969196Y-88399392D01*
X101902590Y-88652528D01*
X101893141Y-88693726D01*
X101870442Y-88798943D01*
X101859292Y-88878888D01*
X101860875Y-88952947D01*
X101876375Y-89040505D01*
X101906976Y-89160949D01*
X101925967Y-89230962D01*
X101970586Y-89379573D01*
X102019985Y-89520226D01*
X102066369Y-89631577D01*
X102086322Y-89670152D01*
X102143159Y-89784477D01*
X102157327Y-89875750D01*
X102129219Y-89967264D01*
X102092445Y-90031631D01*
X102033946Y-90135684D01*
X101983760Y-90242605D01*
X101979580Y-90253051D01*
X101920715Y-90408998D01*
X101880510Y-90534142D01*
X101855364Y-90648500D01*
X101841679Y-90772088D01*
X101835855Y-90924923D01*
X101834530Y-91059651D01*
X101834413Y-91229878D01*
X101837853Y-91354432D01*
X101847753Y-91450900D01*
X101867017Y-91536868D01*
X101898548Y-91629922D01*
X101945249Y-91747649D01*
X101950054Y-91759463D01*
X101999995Y-91884079D01*
X102039380Y-91985953D01*
X102063021Y-92051463D01*
X102067497Y-92067869D01*
X102037631Y-92074555D01*
X101955092Y-92080277D01*
X101830465Y-92084620D01*
X101674337Y-92087171D01*
X101561395Y-92087671D01*
X101055293Y-92087671D01*
X101055293Y-88924533D01*
X101055293Y-85794406D01*
X104153063Y-85794406D01*
X106037229Y-85792282D01*
X107921396Y-85790158D01*
X107918105Y-84670108D01*
X107914814Y-83550059D01*
X106037242Y-83547942D01*
X104159670Y-83545825D01*
X104156367Y-84670116D01*
X104153063Y-85794406D01*
X101055293Y-85794406D01*
X101055293Y-85761395D01*
X102470797Y-85756412D01*
X102764946Y-85755411D01*
X103040158Y-85754542D01*
X103289865Y-85753821D01*
X103507500Y-85753263D01*
X103686493Y-85752885D01*
X103820276Y-85752701D01*
X103902281Y-85752729D01*
X103925841Y-85752897D01*
X103936337Y-85740388D01*
X103944931Y-85698791D01*
X103951782Y-85623277D01*
X103957045Y-85509023D01*
X103960879Y-85351201D01*
X103963441Y-85144985D01*
X103964888Y-84885548D01*
X103965378Y-84568066D01*
X103965380Y-84540072D01*
X103965380Y-83325778D01*
X106037236Y-83325778D01*
X108109091Y-83325778D01*
X108109091Y-84543586D01*
G37*
%TD*%
D25*
X201101100Y-126403600D02*
X201101100Y-117203600D01*
X161501100Y-103003600D02*
X135501100Y-103003600D01*
X161501100Y-80003600D02*
X161501100Y-85751600D01*
X161501100Y-85751600D02*
X164097100Y-88347600D01*
X99501100Y-80003600D02*
X94501100Y-85003600D01*
X202221100Y-107883600D02*
X202501100Y-107603600D01*
X202501100Y-85003600D02*
X197501100Y-80003600D01*
X202221100Y-113323600D02*
X202221100Y-107883600D01*
X202501100Y-107603600D02*
X202501100Y-85003600D01*
X161501100Y-96983600D02*
X161501100Y-103003600D01*
X202501100Y-113603600D02*
X202221100Y-113323600D01*
X135501100Y-103003600D02*
X135501100Y-80003600D01*
X94501100Y-125003600D02*
X99501100Y-130003600D01*
X164097100Y-88347600D02*
X164097100Y-94443600D01*
X197501100Y-130003600D02*
X201101100Y-126403600D01*
X197501100Y-80003600D02*
X161501100Y-80003600D01*
X202501100Y-115803600D02*
X202501100Y-113603600D01*
X94501100Y-85003600D02*
X94501100Y-125003600D01*
X99501100Y-130003600D02*
X197501100Y-130003600D01*
X164097100Y-94443600D02*
X161501100Y-96983600D01*
X201101100Y-117203600D02*
X202501100Y-115803600D01*
X135501100Y-80003600D02*
X99501100Y-80003600D01*
M02*
