%TF.GenerationSoftware,KiCad,Pcbnew,9.0.0*%
%TF.CreationDate,2025-04-22T12:37:28+01:00*%
%TF.ProjectId,FED3_v7.3,46454433-5f76-4372-9e33-2e6b69636164,rev?*%
%TF.SameCoordinates,Original*%
%TF.FileFunction,Drillmap*%
%TF.FilePolarity,Positive*%
%FSLAX45Y45*%
G04 Gerber Fmt 4.5, Leading zero omitted, Abs format (unit mm)*
G04 Created by KiCad (PCBNEW 9.0.0) date 2025-04-22 12:37:28*
%MOMM*%
%LPD*%
G01*
G04 APERTURE LIST*
%ADD10C,0.250000*%
%ADD11C,0.200000*%
%ADD12C,0.100000*%
%ADD13C,0.150000*%
%ADD14C,0.160000*%
%ADD15C,0.290000*%
%ADD16C,0.350000*%
G04 APERTURE END LIST*
D10*
X20110110Y-12640360D02*
X20110110Y-11720360D01*
X16150110Y-10300360D02*
X13550110Y-10300360D01*
X16150110Y-8000360D02*
X16150110Y-8575160D01*
X16150110Y-8575160D02*
X16409710Y-8834760D01*
X9950110Y-8000360D02*
X9450110Y-8500360D01*
X20222110Y-10788360D02*
X20250110Y-10760360D01*
X20250110Y-8500360D02*
X19750110Y-8000360D01*
X20222110Y-11332360D02*
X20222110Y-10788360D01*
X20250110Y-10760360D02*
X20250110Y-8500360D01*
X16150110Y-9698360D02*
X16150110Y-10300360D01*
X20250110Y-11360360D02*
X20222110Y-11332360D01*
X13550110Y-10300360D02*
X13550110Y-8000360D01*
X9450110Y-12500360D02*
X9950110Y-13000360D01*
X16409710Y-8834760D02*
X16409710Y-9444360D01*
X19750110Y-13000360D02*
X20110110Y-12640360D01*
X19750110Y-8000360D02*
X16150110Y-8000360D01*
X20250110Y-11580360D02*
X20250110Y-11360360D01*
X9450110Y-8500360D02*
X9450110Y-12500360D01*
X9950110Y-13000360D02*
X19750110Y-13000360D01*
X16409710Y-9444360D02*
X16150110Y-9698360D01*
X20110110Y-11720360D02*
X20250110Y-11580360D01*
X13550110Y-8000360D02*
X9950110Y-8000360D01*
D11*
D12*
X12660110Y-9965360D02*
X12730110Y-10035360D01*
X12730110Y-9965360D02*
X12660110Y-10035360D01*
X15710110Y-10665360D02*
X15780110Y-10735360D01*
X15780110Y-10665360D02*
X15710110Y-10735360D01*
X18760110Y-9965360D02*
X18830110Y-10035360D01*
X18830110Y-9965360D02*
X18760110Y-10035360D01*
X19990000Y-11955000D02*
G75*
G02*
X19900000Y-11955000I-45000J0D01*
G01*
X19900000Y-11955000D02*
G75*
G02*
X19990000Y-11955000I45000J0D01*
G01*
X19990000Y-12255000D02*
G75*
G02*
X19900000Y-12255000I-45000J0D01*
G01*
X19900000Y-12255000D02*
G75*
G02*
X19990000Y-12255000I45000J0D01*
G01*
D13*
X11800110Y-10125360D02*
X11800110Y-10275360D01*
X11725110Y-10200360D02*
X11875110Y-10200360D01*
X13550110Y-10225360D02*
X13550110Y-10375360D01*
X13475110Y-10300360D02*
X13625110Y-10300360D01*
X14850110Y-10825360D02*
X14850110Y-10975360D01*
X14775110Y-10900360D02*
X14925110Y-10900360D01*
X16150110Y-10225360D02*
X16150110Y-10375360D01*
X16075110Y-10300360D02*
X16225110Y-10300360D01*
X17900110Y-10125360D02*
X17900110Y-10275360D01*
X17825110Y-10200360D02*
X17975110Y-10200360D01*
D14*
X19340999Y-9318049D02*
X19340999Y-9204911D01*
X19227861Y-9204911D01*
X19227861Y-9318049D01*
X19340999Y-9318049D01*
X20040999Y-9318049D02*
X20040999Y-9204911D01*
X19927861Y-9204911D01*
X19927861Y-9318049D01*
X20040999Y-9318049D01*
D15*
X11500110Y-9145360D02*
X11645110Y-9000360D01*
X11500110Y-8855360D01*
X11355110Y-9000360D01*
X11500110Y-9145360D01*
X11850110Y-11745360D02*
X11995110Y-11600360D01*
X11850110Y-11455360D01*
X11705110Y-11600360D01*
X11850110Y-11745360D01*
X19650110Y-10445360D02*
X19795110Y-10300360D01*
X19650110Y-10155360D01*
X19505110Y-10300360D01*
X19650110Y-10445360D01*
D16*
X10303810Y-9904360D02*
X10653810Y-10254360D01*
X10653810Y-9904360D02*
X10303810Y-10254360D01*
X10653810Y-10079360D02*
G75*
G02*
X10303810Y-10079360I-175000J0D01*
G01*
X10303810Y-10079360D02*
G75*
G02*
X10653810Y-10079360I175000J0D01*
G01*
X19079510Y-9904360D02*
X19429510Y-10254360D01*
X19429510Y-9904360D02*
X19079510Y-10254360D01*
X19429510Y-10079360D02*
G75*
G02*
X19079510Y-10079360I-175000J0D01*
G01*
X19079510Y-10079360D02*
G75*
G02*
X19429510Y-10079360I175000J0D01*
G01*
D11*
X9698387Y-13324344D02*
X9698387Y-13124344D01*
X9698387Y-13124344D02*
X9746006Y-13124344D01*
X9746006Y-13124344D02*
X9774577Y-13133868D01*
X9774577Y-13133868D02*
X9793625Y-13152915D01*
X9793625Y-13152915D02*
X9803149Y-13171963D01*
X9803149Y-13171963D02*
X9812673Y-13210058D01*
X9812673Y-13210058D02*
X9812673Y-13238629D01*
X9812673Y-13238629D02*
X9803149Y-13276725D01*
X9803149Y-13276725D02*
X9793625Y-13295772D01*
X9793625Y-13295772D02*
X9774577Y-13314820D01*
X9774577Y-13314820D02*
X9746006Y-13324344D01*
X9746006Y-13324344D02*
X9698387Y-13324344D01*
X9898387Y-13324344D02*
X9898387Y-13191010D01*
X9898387Y-13229106D02*
X9907911Y-13210058D01*
X9907911Y-13210058D02*
X9917434Y-13200534D01*
X9917434Y-13200534D02*
X9936482Y-13191010D01*
X9936482Y-13191010D02*
X9955530Y-13191010D01*
X10022196Y-13324344D02*
X10022196Y-13191010D01*
X10022196Y-13124344D02*
X10012673Y-13133868D01*
X10012673Y-13133868D02*
X10022196Y-13143391D01*
X10022196Y-13143391D02*
X10031720Y-13133868D01*
X10031720Y-13133868D02*
X10022196Y-13124344D01*
X10022196Y-13124344D02*
X10022196Y-13143391D01*
X10146006Y-13324344D02*
X10126958Y-13314820D01*
X10126958Y-13314820D02*
X10117434Y-13295772D01*
X10117434Y-13295772D02*
X10117434Y-13124344D01*
X10250768Y-13324344D02*
X10231720Y-13314820D01*
X10231720Y-13314820D02*
X10222196Y-13295772D01*
X10222196Y-13295772D02*
X10222196Y-13124344D01*
X10479339Y-13324344D02*
X10479339Y-13124344D01*
X10479339Y-13124344D02*
X10546006Y-13267201D01*
X10546006Y-13267201D02*
X10612673Y-13124344D01*
X10612673Y-13124344D02*
X10612673Y-13324344D01*
X10793625Y-13324344D02*
X10793625Y-13219582D01*
X10793625Y-13219582D02*
X10784101Y-13200534D01*
X10784101Y-13200534D02*
X10765054Y-13191010D01*
X10765054Y-13191010D02*
X10726958Y-13191010D01*
X10726958Y-13191010D02*
X10707911Y-13200534D01*
X10793625Y-13314820D02*
X10774577Y-13324344D01*
X10774577Y-13324344D02*
X10726958Y-13324344D01*
X10726958Y-13324344D02*
X10707911Y-13314820D01*
X10707911Y-13314820D02*
X10698387Y-13295772D01*
X10698387Y-13295772D02*
X10698387Y-13276725D01*
X10698387Y-13276725D02*
X10707911Y-13257677D01*
X10707911Y-13257677D02*
X10726958Y-13248153D01*
X10726958Y-13248153D02*
X10774577Y-13248153D01*
X10774577Y-13248153D02*
X10793625Y-13238629D01*
X10888863Y-13191010D02*
X10888863Y-13391010D01*
X10888863Y-13200534D02*
X10907911Y-13191010D01*
X10907911Y-13191010D02*
X10946006Y-13191010D01*
X10946006Y-13191010D02*
X10965054Y-13200534D01*
X10965054Y-13200534D02*
X10974577Y-13210058D01*
X10974577Y-13210058D02*
X10984101Y-13229106D01*
X10984101Y-13229106D02*
X10984101Y-13286248D01*
X10984101Y-13286248D02*
X10974577Y-13305296D01*
X10974577Y-13305296D02*
X10965054Y-13314820D01*
X10965054Y-13314820D02*
X10946006Y-13324344D01*
X10946006Y-13324344D02*
X10907911Y-13324344D01*
X10907911Y-13324344D02*
X10888863Y-13314820D01*
X11069815Y-13305296D02*
X11079339Y-13314820D01*
X11079339Y-13314820D02*
X11069815Y-13324344D01*
X11069815Y-13324344D02*
X11060292Y-13314820D01*
X11060292Y-13314820D02*
X11069815Y-13305296D01*
X11069815Y-13305296D02*
X11069815Y-13324344D01*
X11069815Y-13200534D02*
X11079339Y-13210058D01*
X11079339Y-13210058D02*
X11069815Y-13219582D01*
X11069815Y-13219582D02*
X11060292Y-13210058D01*
X11060292Y-13210058D02*
X11069815Y-13200534D01*
X11069815Y-13200534D02*
X11069815Y-13219582D01*
D12*
X9367610Y-13617860D02*
X9437610Y-13687860D01*
X9437610Y-13617860D02*
X9367610Y-13687860D01*
D11*
X9736482Y-13544344D02*
X9755530Y-13544344D01*
X9755530Y-13544344D02*
X9774577Y-13553868D01*
X9774577Y-13553868D02*
X9784101Y-13563391D01*
X9784101Y-13563391D02*
X9793625Y-13582439D01*
X9793625Y-13582439D02*
X9803149Y-13620534D01*
X9803149Y-13620534D02*
X9803149Y-13668153D01*
X9803149Y-13668153D02*
X9793625Y-13706248D01*
X9793625Y-13706248D02*
X9784101Y-13725296D01*
X9784101Y-13725296D02*
X9774577Y-13734820D01*
X9774577Y-13734820D02*
X9755530Y-13744344D01*
X9755530Y-13744344D02*
X9736482Y-13744344D01*
X9736482Y-13744344D02*
X9717434Y-13734820D01*
X9717434Y-13734820D02*
X9707911Y-13725296D01*
X9707911Y-13725296D02*
X9698387Y-13706248D01*
X9698387Y-13706248D02*
X9688863Y-13668153D01*
X9688863Y-13668153D02*
X9688863Y-13620534D01*
X9688863Y-13620534D02*
X9698387Y-13582439D01*
X9698387Y-13582439D02*
X9707911Y-13563391D01*
X9707911Y-13563391D02*
X9717434Y-13553868D01*
X9717434Y-13553868D02*
X9736482Y-13544344D01*
X9888863Y-13725296D02*
X9898387Y-13734820D01*
X9898387Y-13734820D02*
X9888863Y-13744344D01*
X9888863Y-13744344D02*
X9879339Y-13734820D01*
X9879339Y-13734820D02*
X9888863Y-13725296D01*
X9888863Y-13725296D02*
X9888863Y-13744344D01*
X9965054Y-13544344D02*
X10098387Y-13544344D01*
X10098387Y-13544344D02*
X10012673Y-13744344D01*
X10212673Y-13544344D02*
X10231720Y-13544344D01*
X10231720Y-13544344D02*
X10250768Y-13553868D01*
X10250768Y-13553868D02*
X10260292Y-13563391D01*
X10260292Y-13563391D02*
X10269815Y-13582439D01*
X10269815Y-13582439D02*
X10279339Y-13620534D01*
X10279339Y-13620534D02*
X10279339Y-13668153D01*
X10279339Y-13668153D02*
X10269815Y-13706248D01*
X10269815Y-13706248D02*
X10260292Y-13725296D01*
X10260292Y-13725296D02*
X10250768Y-13734820D01*
X10250768Y-13734820D02*
X10231720Y-13744344D01*
X10231720Y-13744344D02*
X10212673Y-13744344D01*
X10212673Y-13744344D02*
X10193625Y-13734820D01*
X10193625Y-13734820D02*
X10184101Y-13725296D01*
X10184101Y-13725296D02*
X10174577Y-13706248D01*
X10174577Y-13706248D02*
X10165054Y-13668153D01*
X10165054Y-13668153D02*
X10165054Y-13620534D01*
X10165054Y-13620534D02*
X10174577Y-13582439D01*
X10174577Y-13582439D02*
X10184101Y-13563391D01*
X10184101Y-13563391D02*
X10193625Y-13553868D01*
X10193625Y-13553868D02*
X10212673Y-13544344D01*
X10403149Y-13544344D02*
X10422196Y-13544344D01*
X10422196Y-13544344D02*
X10441244Y-13553868D01*
X10441244Y-13553868D02*
X10450768Y-13563391D01*
X10450768Y-13563391D02*
X10460292Y-13582439D01*
X10460292Y-13582439D02*
X10469815Y-13620534D01*
X10469815Y-13620534D02*
X10469815Y-13668153D01*
X10469815Y-13668153D02*
X10460292Y-13706248D01*
X10460292Y-13706248D02*
X10450768Y-13725296D01*
X10450768Y-13725296D02*
X10441244Y-13734820D01*
X10441244Y-13734820D02*
X10422196Y-13744344D01*
X10422196Y-13744344D02*
X10403149Y-13744344D01*
X10403149Y-13744344D02*
X10384101Y-13734820D01*
X10384101Y-13734820D02*
X10374577Y-13725296D01*
X10374577Y-13725296D02*
X10365054Y-13706248D01*
X10365054Y-13706248D02*
X10355530Y-13668153D01*
X10355530Y-13668153D02*
X10355530Y-13620534D01*
X10355530Y-13620534D02*
X10365054Y-13582439D01*
X10365054Y-13582439D02*
X10374577Y-13563391D01*
X10374577Y-13563391D02*
X10384101Y-13553868D01*
X10384101Y-13553868D02*
X10403149Y-13544344D01*
X10555530Y-13744344D02*
X10555530Y-13611010D01*
X10555530Y-13630058D02*
X10565054Y-13620534D01*
X10565054Y-13620534D02*
X10584101Y-13611010D01*
X10584101Y-13611010D02*
X10612673Y-13611010D01*
X10612673Y-13611010D02*
X10631720Y-13620534D01*
X10631720Y-13620534D02*
X10641244Y-13639582D01*
X10641244Y-13639582D02*
X10641244Y-13744344D01*
X10641244Y-13639582D02*
X10650768Y-13620534D01*
X10650768Y-13620534D02*
X10669815Y-13611010D01*
X10669815Y-13611010D02*
X10698387Y-13611010D01*
X10698387Y-13611010D02*
X10717435Y-13620534D01*
X10717435Y-13620534D02*
X10726958Y-13639582D01*
X10726958Y-13639582D02*
X10726958Y-13744344D01*
X10822196Y-13744344D02*
X10822196Y-13611010D01*
X10822196Y-13630058D02*
X10831720Y-13620534D01*
X10831720Y-13620534D02*
X10850768Y-13611010D01*
X10850768Y-13611010D02*
X10879339Y-13611010D01*
X10879339Y-13611010D02*
X10898387Y-13620534D01*
X10898387Y-13620534D02*
X10907911Y-13639582D01*
X10907911Y-13639582D02*
X10907911Y-13744344D01*
X10907911Y-13639582D02*
X10917435Y-13620534D01*
X10917435Y-13620534D02*
X10936482Y-13611010D01*
X10936482Y-13611010D02*
X10965054Y-13611010D01*
X10965054Y-13611010D02*
X10984101Y-13620534D01*
X10984101Y-13620534D02*
X10993625Y-13639582D01*
X10993625Y-13639582D02*
X10993625Y-13744344D01*
X11384101Y-13534820D02*
X11212673Y-13791963D01*
X11641244Y-13544344D02*
X11660292Y-13544344D01*
X11660292Y-13544344D02*
X11679339Y-13553868D01*
X11679339Y-13553868D02*
X11688863Y-13563391D01*
X11688863Y-13563391D02*
X11698387Y-13582439D01*
X11698387Y-13582439D02*
X11707911Y-13620534D01*
X11707911Y-13620534D02*
X11707911Y-13668153D01*
X11707911Y-13668153D02*
X11698387Y-13706248D01*
X11698387Y-13706248D02*
X11688863Y-13725296D01*
X11688863Y-13725296D02*
X11679339Y-13734820D01*
X11679339Y-13734820D02*
X11660292Y-13744344D01*
X11660292Y-13744344D02*
X11641244Y-13744344D01*
X11641244Y-13744344D02*
X11622196Y-13734820D01*
X11622196Y-13734820D02*
X11612673Y-13725296D01*
X11612673Y-13725296D02*
X11603149Y-13706248D01*
X11603149Y-13706248D02*
X11593625Y-13668153D01*
X11593625Y-13668153D02*
X11593625Y-13620534D01*
X11593625Y-13620534D02*
X11603149Y-13582439D01*
X11603149Y-13582439D02*
X11612673Y-13563391D01*
X11612673Y-13563391D02*
X11622196Y-13553868D01*
X11622196Y-13553868D02*
X11641244Y-13544344D01*
X11793625Y-13725296D02*
X11803149Y-13734820D01*
X11803149Y-13734820D02*
X11793625Y-13744344D01*
X11793625Y-13744344D02*
X11784101Y-13734820D01*
X11784101Y-13734820D02*
X11793625Y-13725296D01*
X11793625Y-13725296D02*
X11793625Y-13744344D01*
X11926958Y-13544344D02*
X11946006Y-13544344D01*
X11946006Y-13544344D02*
X11965054Y-13553868D01*
X11965054Y-13553868D02*
X11974577Y-13563391D01*
X11974577Y-13563391D02*
X11984101Y-13582439D01*
X11984101Y-13582439D02*
X11993625Y-13620534D01*
X11993625Y-13620534D02*
X11993625Y-13668153D01*
X11993625Y-13668153D02*
X11984101Y-13706248D01*
X11984101Y-13706248D02*
X11974577Y-13725296D01*
X11974577Y-13725296D02*
X11965054Y-13734820D01*
X11965054Y-13734820D02*
X11946006Y-13744344D01*
X11946006Y-13744344D02*
X11926958Y-13744344D01*
X11926958Y-13744344D02*
X11907911Y-13734820D01*
X11907911Y-13734820D02*
X11898387Y-13725296D01*
X11898387Y-13725296D02*
X11888863Y-13706248D01*
X11888863Y-13706248D02*
X11879339Y-13668153D01*
X11879339Y-13668153D02*
X11879339Y-13620534D01*
X11879339Y-13620534D02*
X11888863Y-13582439D01*
X11888863Y-13582439D02*
X11898387Y-13563391D01*
X11898387Y-13563391D02*
X11907911Y-13553868D01*
X11907911Y-13553868D02*
X11926958Y-13544344D01*
X12069816Y-13563391D02*
X12079339Y-13553868D01*
X12079339Y-13553868D02*
X12098387Y-13544344D01*
X12098387Y-13544344D02*
X12146006Y-13544344D01*
X12146006Y-13544344D02*
X12165054Y-13553868D01*
X12165054Y-13553868D02*
X12174577Y-13563391D01*
X12174577Y-13563391D02*
X12184101Y-13582439D01*
X12184101Y-13582439D02*
X12184101Y-13601487D01*
X12184101Y-13601487D02*
X12174577Y-13630058D01*
X12174577Y-13630058D02*
X12060292Y-13744344D01*
X12060292Y-13744344D02*
X12184101Y-13744344D01*
X12250768Y-13544344D02*
X12384101Y-13544344D01*
X12384101Y-13544344D02*
X12298387Y-13744344D01*
X12546006Y-13544344D02*
X12507911Y-13544344D01*
X12507911Y-13544344D02*
X12488863Y-13553868D01*
X12488863Y-13553868D02*
X12479339Y-13563391D01*
X12479339Y-13563391D02*
X12460292Y-13591963D01*
X12460292Y-13591963D02*
X12450768Y-13630058D01*
X12450768Y-13630058D02*
X12450768Y-13706248D01*
X12450768Y-13706248D02*
X12460292Y-13725296D01*
X12460292Y-13725296D02*
X12469816Y-13734820D01*
X12469816Y-13734820D02*
X12488863Y-13744344D01*
X12488863Y-13744344D02*
X12526958Y-13744344D01*
X12526958Y-13744344D02*
X12546006Y-13734820D01*
X12546006Y-13734820D02*
X12555530Y-13725296D01*
X12555530Y-13725296D02*
X12565054Y-13706248D01*
X12565054Y-13706248D02*
X12565054Y-13658629D01*
X12565054Y-13658629D02*
X12555530Y-13639582D01*
X12555530Y-13639582D02*
X12546006Y-13630058D01*
X12546006Y-13630058D02*
X12526958Y-13620534D01*
X12526958Y-13620534D02*
X12488863Y-13620534D01*
X12488863Y-13620534D02*
X12469816Y-13630058D01*
X12469816Y-13630058D02*
X12460292Y-13639582D01*
X12460292Y-13639582D02*
X12450768Y-13658629D01*
X12641244Y-13544344D02*
X12641244Y-13582439D01*
X12717435Y-13544344D02*
X12717435Y-13582439D01*
X13012673Y-13820534D02*
X13003149Y-13811010D01*
X13003149Y-13811010D02*
X12984101Y-13782439D01*
X12984101Y-13782439D02*
X12974578Y-13763391D01*
X12974578Y-13763391D02*
X12965054Y-13734820D01*
X12965054Y-13734820D02*
X12955530Y-13687201D01*
X12955530Y-13687201D02*
X12955530Y-13649106D01*
X12955530Y-13649106D02*
X12965054Y-13601487D01*
X12965054Y-13601487D02*
X12974578Y-13572915D01*
X12974578Y-13572915D02*
X12984101Y-13553868D01*
X12984101Y-13553868D02*
X13003149Y-13525296D01*
X13003149Y-13525296D02*
X13012673Y-13515772D01*
X13069816Y-13544344D02*
X13193625Y-13544344D01*
X13193625Y-13544344D02*
X13126958Y-13620534D01*
X13126958Y-13620534D02*
X13155530Y-13620534D01*
X13155530Y-13620534D02*
X13174578Y-13630058D01*
X13174578Y-13630058D02*
X13184101Y-13639582D01*
X13184101Y-13639582D02*
X13193625Y-13658629D01*
X13193625Y-13658629D02*
X13193625Y-13706248D01*
X13193625Y-13706248D02*
X13184101Y-13725296D01*
X13184101Y-13725296D02*
X13174578Y-13734820D01*
X13174578Y-13734820D02*
X13155530Y-13744344D01*
X13155530Y-13744344D02*
X13098387Y-13744344D01*
X13098387Y-13744344D02*
X13079339Y-13734820D01*
X13079339Y-13734820D02*
X13069816Y-13725296D01*
X13431720Y-13744344D02*
X13431720Y-13544344D01*
X13517435Y-13744344D02*
X13517435Y-13639582D01*
X13517435Y-13639582D02*
X13507911Y-13620534D01*
X13507911Y-13620534D02*
X13488863Y-13611010D01*
X13488863Y-13611010D02*
X13460292Y-13611010D01*
X13460292Y-13611010D02*
X13441244Y-13620534D01*
X13441244Y-13620534D02*
X13431720Y-13630058D01*
X13641244Y-13744344D02*
X13622197Y-13734820D01*
X13622197Y-13734820D02*
X13612673Y-13725296D01*
X13612673Y-13725296D02*
X13603149Y-13706248D01*
X13603149Y-13706248D02*
X13603149Y-13649106D01*
X13603149Y-13649106D02*
X13612673Y-13630058D01*
X13612673Y-13630058D02*
X13622197Y-13620534D01*
X13622197Y-13620534D02*
X13641244Y-13611010D01*
X13641244Y-13611010D02*
X13669816Y-13611010D01*
X13669816Y-13611010D02*
X13688863Y-13620534D01*
X13688863Y-13620534D02*
X13698387Y-13630058D01*
X13698387Y-13630058D02*
X13707911Y-13649106D01*
X13707911Y-13649106D02*
X13707911Y-13706248D01*
X13707911Y-13706248D02*
X13698387Y-13725296D01*
X13698387Y-13725296D02*
X13688863Y-13734820D01*
X13688863Y-13734820D02*
X13669816Y-13744344D01*
X13669816Y-13744344D02*
X13641244Y-13744344D01*
X13822197Y-13744344D02*
X13803149Y-13734820D01*
X13803149Y-13734820D02*
X13793625Y-13715772D01*
X13793625Y-13715772D02*
X13793625Y-13544344D01*
X13974578Y-13734820D02*
X13955530Y-13744344D01*
X13955530Y-13744344D02*
X13917435Y-13744344D01*
X13917435Y-13744344D02*
X13898387Y-13734820D01*
X13898387Y-13734820D02*
X13888863Y-13715772D01*
X13888863Y-13715772D02*
X13888863Y-13639582D01*
X13888863Y-13639582D02*
X13898387Y-13620534D01*
X13898387Y-13620534D02*
X13917435Y-13611010D01*
X13917435Y-13611010D02*
X13955530Y-13611010D01*
X13955530Y-13611010D02*
X13974578Y-13620534D01*
X13974578Y-13620534D02*
X13984101Y-13639582D01*
X13984101Y-13639582D02*
X13984101Y-13658629D01*
X13984101Y-13658629D02*
X13888863Y-13677677D01*
X14060292Y-13734820D02*
X14079340Y-13744344D01*
X14079340Y-13744344D02*
X14117435Y-13744344D01*
X14117435Y-13744344D02*
X14136482Y-13734820D01*
X14136482Y-13734820D02*
X14146006Y-13715772D01*
X14146006Y-13715772D02*
X14146006Y-13706248D01*
X14146006Y-13706248D02*
X14136482Y-13687201D01*
X14136482Y-13687201D02*
X14117435Y-13677677D01*
X14117435Y-13677677D02*
X14088863Y-13677677D01*
X14088863Y-13677677D02*
X14069816Y-13668153D01*
X14069816Y-13668153D02*
X14060292Y-13649106D01*
X14060292Y-13649106D02*
X14060292Y-13639582D01*
X14060292Y-13639582D02*
X14069816Y-13620534D01*
X14069816Y-13620534D02*
X14088863Y-13611010D01*
X14088863Y-13611010D02*
X14117435Y-13611010D01*
X14117435Y-13611010D02*
X14136482Y-13620534D01*
X14212673Y-13820534D02*
X14222197Y-13811010D01*
X14222197Y-13811010D02*
X14241244Y-13782439D01*
X14241244Y-13782439D02*
X14250768Y-13763391D01*
X14250768Y-13763391D02*
X14260292Y-13734820D01*
X14260292Y-13734820D02*
X14269816Y-13687201D01*
X14269816Y-13687201D02*
X14269816Y-13649106D01*
X14269816Y-13649106D02*
X14260292Y-13601487D01*
X14260292Y-13601487D02*
X14250768Y-13572915D01*
X14250768Y-13572915D02*
X14241244Y-13553868D01*
X14241244Y-13553868D02*
X14222197Y-13525296D01*
X14222197Y-13525296D02*
X14212673Y-13515772D01*
X14574578Y-13820534D02*
X14565054Y-13811010D01*
X14565054Y-13811010D02*
X14546006Y-13782439D01*
X14546006Y-13782439D02*
X14536482Y-13763391D01*
X14536482Y-13763391D02*
X14526959Y-13734820D01*
X14526959Y-13734820D02*
X14517435Y-13687201D01*
X14517435Y-13687201D02*
X14517435Y-13649106D01*
X14517435Y-13649106D02*
X14526959Y-13601487D01*
X14526959Y-13601487D02*
X14536482Y-13572915D01*
X14536482Y-13572915D02*
X14546006Y-13553868D01*
X14546006Y-13553868D02*
X14565054Y-13525296D01*
X14565054Y-13525296D02*
X14574578Y-13515772D01*
X14650768Y-13611010D02*
X14650768Y-13744344D01*
X14650768Y-13630058D02*
X14660292Y-13620534D01*
X14660292Y-13620534D02*
X14679340Y-13611010D01*
X14679340Y-13611010D02*
X14707911Y-13611010D01*
X14707911Y-13611010D02*
X14726959Y-13620534D01*
X14726959Y-13620534D02*
X14736482Y-13639582D01*
X14736482Y-13639582D02*
X14736482Y-13744344D01*
X14860292Y-13744344D02*
X14841244Y-13734820D01*
X14841244Y-13734820D02*
X14831721Y-13725296D01*
X14831721Y-13725296D02*
X14822197Y-13706248D01*
X14822197Y-13706248D02*
X14822197Y-13649106D01*
X14822197Y-13649106D02*
X14831721Y-13630058D01*
X14831721Y-13630058D02*
X14841244Y-13620534D01*
X14841244Y-13620534D02*
X14860292Y-13611010D01*
X14860292Y-13611010D02*
X14888863Y-13611010D01*
X14888863Y-13611010D02*
X14907911Y-13620534D01*
X14907911Y-13620534D02*
X14917435Y-13630058D01*
X14917435Y-13630058D02*
X14926959Y-13649106D01*
X14926959Y-13649106D02*
X14926959Y-13706248D01*
X14926959Y-13706248D02*
X14917435Y-13725296D01*
X14917435Y-13725296D02*
X14907911Y-13734820D01*
X14907911Y-13734820D02*
X14888863Y-13744344D01*
X14888863Y-13744344D02*
X14860292Y-13744344D01*
X14984102Y-13611010D02*
X15060292Y-13611010D01*
X15012673Y-13544344D02*
X15012673Y-13715772D01*
X15012673Y-13715772D02*
X15022197Y-13734820D01*
X15022197Y-13734820D02*
X15041244Y-13744344D01*
X15041244Y-13744344D02*
X15060292Y-13744344D01*
X15279340Y-13611010D02*
X15279340Y-13811010D01*
X15279340Y-13620534D02*
X15298387Y-13611010D01*
X15298387Y-13611010D02*
X15336483Y-13611010D01*
X15336483Y-13611010D02*
X15355530Y-13620534D01*
X15355530Y-13620534D02*
X15365054Y-13630058D01*
X15365054Y-13630058D02*
X15374578Y-13649106D01*
X15374578Y-13649106D02*
X15374578Y-13706248D01*
X15374578Y-13706248D02*
X15365054Y-13725296D01*
X15365054Y-13725296D02*
X15355530Y-13734820D01*
X15355530Y-13734820D02*
X15336483Y-13744344D01*
X15336483Y-13744344D02*
X15298387Y-13744344D01*
X15298387Y-13744344D02*
X15279340Y-13734820D01*
X15488863Y-13744344D02*
X15469816Y-13734820D01*
X15469816Y-13734820D02*
X15460292Y-13715772D01*
X15460292Y-13715772D02*
X15460292Y-13544344D01*
X15650768Y-13744344D02*
X15650768Y-13639582D01*
X15650768Y-13639582D02*
X15641244Y-13620534D01*
X15641244Y-13620534D02*
X15622197Y-13611010D01*
X15622197Y-13611010D02*
X15584102Y-13611010D01*
X15584102Y-13611010D02*
X15565054Y-13620534D01*
X15650768Y-13734820D02*
X15631721Y-13744344D01*
X15631721Y-13744344D02*
X15584102Y-13744344D01*
X15584102Y-13744344D02*
X15565054Y-13734820D01*
X15565054Y-13734820D02*
X15555530Y-13715772D01*
X15555530Y-13715772D02*
X15555530Y-13696725D01*
X15555530Y-13696725D02*
X15565054Y-13677677D01*
X15565054Y-13677677D02*
X15584102Y-13668153D01*
X15584102Y-13668153D02*
X15631721Y-13668153D01*
X15631721Y-13668153D02*
X15650768Y-13658629D01*
X15717435Y-13611010D02*
X15793625Y-13611010D01*
X15746006Y-13544344D02*
X15746006Y-13715772D01*
X15746006Y-13715772D02*
X15755530Y-13734820D01*
X15755530Y-13734820D02*
X15774578Y-13744344D01*
X15774578Y-13744344D02*
X15793625Y-13744344D01*
X15936483Y-13734820D02*
X15917435Y-13744344D01*
X15917435Y-13744344D02*
X15879340Y-13744344D01*
X15879340Y-13744344D02*
X15860292Y-13734820D01*
X15860292Y-13734820D02*
X15850768Y-13715772D01*
X15850768Y-13715772D02*
X15850768Y-13639582D01*
X15850768Y-13639582D02*
X15860292Y-13620534D01*
X15860292Y-13620534D02*
X15879340Y-13611010D01*
X15879340Y-13611010D02*
X15917435Y-13611010D01*
X15917435Y-13611010D02*
X15936483Y-13620534D01*
X15936483Y-13620534D02*
X15946006Y-13639582D01*
X15946006Y-13639582D02*
X15946006Y-13658629D01*
X15946006Y-13658629D02*
X15850768Y-13677677D01*
X16117435Y-13744344D02*
X16117435Y-13544344D01*
X16117435Y-13734820D02*
X16098387Y-13744344D01*
X16098387Y-13744344D02*
X16060292Y-13744344D01*
X16060292Y-13744344D02*
X16041244Y-13734820D01*
X16041244Y-13734820D02*
X16031721Y-13725296D01*
X16031721Y-13725296D02*
X16022197Y-13706248D01*
X16022197Y-13706248D02*
X16022197Y-13649106D01*
X16022197Y-13649106D02*
X16031721Y-13630058D01*
X16031721Y-13630058D02*
X16041244Y-13620534D01*
X16041244Y-13620534D02*
X16060292Y-13611010D01*
X16060292Y-13611010D02*
X16098387Y-13611010D01*
X16098387Y-13611010D02*
X16117435Y-13620534D01*
X16193625Y-13820534D02*
X16203149Y-13811010D01*
X16203149Y-13811010D02*
X16222197Y-13782439D01*
X16222197Y-13782439D02*
X16231721Y-13763391D01*
X16231721Y-13763391D02*
X16241244Y-13734820D01*
X16241244Y-13734820D02*
X16250768Y-13687201D01*
X16250768Y-13687201D02*
X16250768Y-13649106D01*
X16250768Y-13649106D02*
X16241244Y-13601487D01*
X16241244Y-13601487D02*
X16231721Y-13572915D01*
X16231721Y-13572915D02*
X16222197Y-13553868D01*
X16222197Y-13553868D02*
X16203149Y-13525296D01*
X16203149Y-13525296D02*
X16193625Y-13515772D01*
D12*
X9437610Y-13916860D02*
G75*
G02*
X9347610Y-13916860I-45000J0D01*
G01*
X9347610Y-13916860D02*
G75*
G02*
X9437610Y-13916860I45000J0D01*
G01*
D11*
X9736482Y-13808344D02*
X9755530Y-13808344D01*
X9755530Y-13808344D02*
X9774577Y-13817868D01*
X9774577Y-13817868D02*
X9784101Y-13827391D01*
X9784101Y-13827391D02*
X9793625Y-13846439D01*
X9793625Y-13846439D02*
X9803149Y-13884534D01*
X9803149Y-13884534D02*
X9803149Y-13932153D01*
X9803149Y-13932153D02*
X9793625Y-13970248D01*
X9793625Y-13970248D02*
X9784101Y-13989296D01*
X9784101Y-13989296D02*
X9774577Y-13998820D01*
X9774577Y-13998820D02*
X9755530Y-14008344D01*
X9755530Y-14008344D02*
X9736482Y-14008344D01*
X9736482Y-14008344D02*
X9717434Y-13998820D01*
X9717434Y-13998820D02*
X9707911Y-13989296D01*
X9707911Y-13989296D02*
X9698387Y-13970248D01*
X9698387Y-13970248D02*
X9688863Y-13932153D01*
X9688863Y-13932153D02*
X9688863Y-13884534D01*
X9688863Y-13884534D02*
X9698387Y-13846439D01*
X9698387Y-13846439D02*
X9707911Y-13827391D01*
X9707911Y-13827391D02*
X9717434Y-13817868D01*
X9717434Y-13817868D02*
X9736482Y-13808344D01*
X9888863Y-13989296D02*
X9898387Y-13998820D01*
X9898387Y-13998820D02*
X9888863Y-14008344D01*
X9888863Y-14008344D02*
X9879339Y-13998820D01*
X9879339Y-13998820D02*
X9888863Y-13989296D01*
X9888863Y-13989296D02*
X9888863Y-14008344D01*
X9993625Y-14008344D02*
X10031720Y-14008344D01*
X10031720Y-14008344D02*
X10050768Y-13998820D01*
X10050768Y-13998820D02*
X10060292Y-13989296D01*
X10060292Y-13989296D02*
X10079339Y-13960725D01*
X10079339Y-13960725D02*
X10088863Y-13922629D01*
X10088863Y-13922629D02*
X10088863Y-13846439D01*
X10088863Y-13846439D02*
X10079339Y-13827391D01*
X10079339Y-13827391D02*
X10069815Y-13817868D01*
X10069815Y-13817868D02*
X10050768Y-13808344D01*
X10050768Y-13808344D02*
X10012673Y-13808344D01*
X10012673Y-13808344D02*
X9993625Y-13817868D01*
X9993625Y-13817868D02*
X9984101Y-13827391D01*
X9984101Y-13827391D02*
X9974577Y-13846439D01*
X9974577Y-13846439D02*
X9974577Y-13894058D01*
X9974577Y-13894058D02*
X9984101Y-13913106D01*
X9984101Y-13913106D02*
X9993625Y-13922629D01*
X9993625Y-13922629D02*
X10012673Y-13932153D01*
X10012673Y-13932153D02*
X10050768Y-13932153D01*
X10050768Y-13932153D02*
X10069815Y-13922629D01*
X10069815Y-13922629D02*
X10079339Y-13913106D01*
X10079339Y-13913106D02*
X10088863Y-13894058D01*
X10212673Y-13808344D02*
X10231720Y-13808344D01*
X10231720Y-13808344D02*
X10250768Y-13817868D01*
X10250768Y-13817868D02*
X10260292Y-13827391D01*
X10260292Y-13827391D02*
X10269815Y-13846439D01*
X10269815Y-13846439D02*
X10279339Y-13884534D01*
X10279339Y-13884534D02*
X10279339Y-13932153D01*
X10279339Y-13932153D02*
X10269815Y-13970248D01*
X10269815Y-13970248D02*
X10260292Y-13989296D01*
X10260292Y-13989296D02*
X10250768Y-13998820D01*
X10250768Y-13998820D02*
X10231720Y-14008344D01*
X10231720Y-14008344D02*
X10212673Y-14008344D01*
X10212673Y-14008344D02*
X10193625Y-13998820D01*
X10193625Y-13998820D02*
X10184101Y-13989296D01*
X10184101Y-13989296D02*
X10174577Y-13970248D01*
X10174577Y-13970248D02*
X10165054Y-13932153D01*
X10165054Y-13932153D02*
X10165054Y-13884534D01*
X10165054Y-13884534D02*
X10174577Y-13846439D01*
X10174577Y-13846439D02*
X10184101Y-13827391D01*
X10184101Y-13827391D02*
X10193625Y-13817868D01*
X10193625Y-13817868D02*
X10212673Y-13808344D01*
X10403149Y-13808344D02*
X10422196Y-13808344D01*
X10422196Y-13808344D02*
X10441244Y-13817868D01*
X10441244Y-13817868D02*
X10450768Y-13827391D01*
X10450768Y-13827391D02*
X10460292Y-13846439D01*
X10460292Y-13846439D02*
X10469815Y-13884534D01*
X10469815Y-13884534D02*
X10469815Y-13932153D01*
X10469815Y-13932153D02*
X10460292Y-13970248D01*
X10460292Y-13970248D02*
X10450768Y-13989296D01*
X10450768Y-13989296D02*
X10441244Y-13998820D01*
X10441244Y-13998820D02*
X10422196Y-14008344D01*
X10422196Y-14008344D02*
X10403149Y-14008344D01*
X10403149Y-14008344D02*
X10384101Y-13998820D01*
X10384101Y-13998820D02*
X10374577Y-13989296D01*
X10374577Y-13989296D02*
X10365054Y-13970248D01*
X10365054Y-13970248D02*
X10355530Y-13932153D01*
X10355530Y-13932153D02*
X10355530Y-13884534D01*
X10355530Y-13884534D02*
X10365054Y-13846439D01*
X10365054Y-13846439D02*
X10374577Y-13827391D01*
X10374577Y-13827391D02*
X10384101Y-13817868D01*
X10384101Y-13817868D02*
X10403149Y-13808344D01*
X10555530Y-14008344D02*
X10555530Y-13875010D01*
X10555530Y-13894058D02*
X10565054Y-13884534D01*
X10565054Y-13884534D02*
X10584101Y-13875010D01*
X10584101Y-13875010D02*
X10612673Y-13875010D01*
X10612673Y-13875010D02*
X10631720Y-13884534D01*
X10631720Y-13884534D02*
X10641244Y-13903582D01*
X10641244Y-13903582D02*
X10641244Y-14008344D01*
X10641244Y-13903582D02*
X10650768Y-13884534D01*
X10650768Y-13884534D02*
X10669815Y-13875010D01*
X10669815Y-13875010D02*
X10698387Y-13875010D01*
X10698387Y-13875010D02*
X10717435Y-13884534D01*
X10717435Y-13884534D02*
X10726958Y-13903582D01*
X10726958Y-13903582D02*
X10726958Y-14008344D01*
X10822196Y-14008344D02*
X10822196Y-13875010D01*
X10822196Y-13894058D02*
X10831720Y-13884534D01*
X10831720Y-13884534D02*
X10850768Y-13875010D01*
X10850768Y-13875010D02*
X10879339Y-13875010D01*
X10879339Y-13875010D02*
X10898387Y-13884534D01*
X10898387Y-13884534D02*
X10907911Y-13903582D01*
X10907911Y-13903582D02*
X10907911Y-14008344D01*
X10907911Y-13903582D02*
X10917435Y-13884534D01*
X10917435Y-13884534D02*
X10936482Y-13875010D01*
X10936482Y-13875010D02*
X10965054Y-13875010D01*
X10965054Y-13875010D02*
X10984101Y-13884534D01*
X10984101Y-13884534D02*
X10993625Y-13903582D01*
X10993625Y-13903582D02*
X10993625Y-14008344D01*
X11384101Y-13798820D02*
X11212673Y-14055963D01*
X11641244Y-13808344D02*
X11660292Y-13808344D01*
X11660292Y-13808344D02*
X11679339Y-13817868D01*
X11679339Y-13817868D02*
X11688863Y-13827391D01*
X11688863Y-13827391D02*
X11698387Y-13846439D01*
X11698387Y-13846439D02*
X11707911Y-13884534D01*
X11707911Y-13884534D02*
X11707911Y-13932153D01*
X11707911Y-13932153D02*
X11698387Y-13970248D01*
X11698387Y-13970248D02*
X11688863Y-13989296D01*
X11688863Y-13989296D02*
X11679339Y-13998820D01*
X11679339Y-13998820D02*
X11660292Y-14008344D01*
X11660292Y-14008344D02*
X11641244Y-14008344D01*
X11641244Y-14008344D02*
X11622196Y-13998820D01*
X11622196Y-13998820D02*
X11612673Y-13989296D01*
X11612673Y-13989296D02*
X11603149Y-13970248D01*
X11603149Y-13970248D02*
X11593625Y-13932153D01*
X11593625Y-13932153D02*
X11593625Y-13884534D01*
X11593625Y-13884534D02*
X11603149Y-13846439D01*
X11603149Y-13846439D02*
X11612673Y-13827391D01*
X11612673Y-13827391D02*
X11622196Y-13817868D01*
X11622196Y-13817868D02*
X11641244Y-13808344D01*
X11793625Y-13989296D02*
X11803149Y-13998820D01*
X11803149Y-13998820D02*
X11793625Y-14008344D01*
X11793625Y-14008344D02*
X11784101Y-13998820D01*
X11784101Y-13998820D02*
X11793625Y-13989296D01*
X11793625Y-13989296D02*
X11793625Y-14008344D01*
X11926958Y-13808344D02*
X11946006Y-13808344D01*
X11946006Y-13808344D02*
X11965054Y-13817868D01*
X11965054Y-13817868D02*
X11974577Y-13827391D01*
X11974577Y-13827391D02*
X11984101Y-13846439D01*
X11984101Y-13846439D02*
X11993625Y-13884534D01*
X11993625Y-13884534D02*
X11993625Y-13932153D01*
X11993625Y-13932153D02*
X11984101Y-13970248D01*
X11984101Y-13970248D02*
X11974577Y-13989296D01*
X11974577Y-13989296D02*
X11965054Y-13998820D01*
X11965054Y-13998820D02*
X11946006Y-14008344D01*
X11946006Y-14008344D02*
X11926958Y-14008344D01*
X11926958Y-14008344D02*
X11907911Y-13998820D01*
X11907911Y-13998820D02*
X11898387Y-13989296D01*
X11898387Y-13989296D02*
X11888863Y-13970248D01*
X11888863Y-13970248D02*
X11879339Y-13932153D01*
X11879339Y-13932153D02*
X11879339Y-13884534D01*
X11879339Y-13884534D02*
X11888863Y-13846439D01*
X11888863Y-13846439D02*
X11898387Y-13827391D01*
X11898387Y-13827391D02*
X11907911Y-13817868D01*
X11907911Y-13817868D02*
X11926958Y-13808344D01*
X12060292Y-13808344D02*
X12184101Y-13808344D01*
X12184101Y-13808344D02*
X12117435Y-13884534D01*
X12117435Y-13884534D02*
X12146006Y-13884534D01*
X12146006Y-13884534D02*
X12165054Y-13894058D01*
X12165054Y-13894058D02*
X12174577Y-13903582D01*
X12174577Y-13903582D02*
X12184101Y-13922629D01*
X12184101Y-13922629D02*
X12184101Y-13970248D01*
X12184101Y-13970248D02*
X12174577Y-13989296D01*
X12174577Y-13989296D02*
X12165054Y-13998820D01*
X12165054Y-13998820D02*
X12146006Y-14008344D01*
X12146006Y-14008344D02*
X12088863Y-14008344D01*
X12088863Y-14008344D02*
X12069816Y-13998820D01*
X12069816Y-13998820D02*
X12060292Y-13989296D01*
X12365054Y-13808344D02*
X12269816Y-13808344D01*
X12269816Y-13808344D02*
X12260292Y-13903582D01*
X12260292Y-13903582D02*
X12269816Y-13894058D01*
X12269816Y-13894058D02*
X12288863Y-13884534D01*
X12288863Y-13884534D02*
X12336482Y-13884534D01*
X12336482Y-13884534D02*
X12355530Y-13894058D01*
X12355530Y-13894058D02*
X12365054Y-13903582D01*
X12365054Y-13903582D02*
X12374577Y-13922629D01*
X12374577Y-13922629D02*
X12374577Y-13970248D01*
X12374577Y-13970248D02*
X12365054Y-13989296D01*
X12365054Y-13989296D02*
X12355530Y-13998820D01*
X12355530Y-13998820D02*
X12336482Y-14008344D01*
X12336482Y-14008344D02*
X12288863Y-14008344D01*
X12288863Y-14008344D02*
X12269816Y-13998820D01*
X12269816Y-13998820D02*
X12260292Y-13989296D01*
X12546006Y-13875010D02*
X12546006Y-14008344D01*
X12498387Y-13798820D02*
X12450768Y-13941677D01*
X12450768Y-13941677D02*
X12574577Y-13941677D01*
X12641244Y-13808344D02*
X12641244Y-13846439D01*
X12717435Y-13808344D02*
X12717435Y-13846439D01*
X13012673Y-14084534D02*
X13003149Y-14075010D01*
X13003149Y-14075010D02*
X12984101Y-14046439D01*
X12984101Y-14046439D02*
X12974578Y-14027391D01*
X12974578Y-14027391D02*
X12965054Y-13998820D01*
X12965054Y-13998820D02*
X12955530Y-13951201D01*
X12955530Y-13951201D02*
X12955530Y-13913106D01*
X12955530Y-13913106D02*
X12965054Y-13865487D01*
X12965054Y-13865487D02*
X12974578Y-13836915D01*
X12974578Y-13836915D02*
X12984101Y-13817868D01*
X12984101Y-13817868D02*
X13003149Y-13789296D01*
X13003149Y-13789296D02*
X13012673Y-13779772D01*
X13079339Y-13827391D02*
X13088863Y-13817868D01*
X13088863Y-13817868D02*
X13107911Y-13808344D01*
X13107911Y-13808344D02*
X13155530Y-13808344D01*
X13155530Y-13808344D02*
X13174578Y-13817868D01*
X13174578Y-13817868D02*
X13184101Y-13827391D01*
X13184101Y-13827391D02*
X13193625Y-13846439D01*
X13193625Y-13846439D02*
X13193625Y-13865487D01*
X13193625Y-13865487D02*
X13184101Y-13894058D01*
X13184101Y-13894058D02*
X13069816Y-14008344D01*
X13069816Y-14008344D02*
X13193625Y-14008344D01*
X13431720Y-14008344D02*
X13431720Y-13808344D01*
X13517435Y-14008344D02*
X13517435Y-13903582D01*
X13517435Y-13903582D02*
X13507911Y-13884534D01*
X13507911Y-13884534D02*
X13488863Y-13875010D01*
X13488863Y-13875010D02*
X13460292Y-13875010D01*
X13460292Y-13875010D02*
X13441244Y-13884534D01*
X13441244Y-13884534D02*
X13431720Y-13894058D01*
X13641244Y-14008344D02*
X13622197Y-13998820D01*
X13622197Y-13998820D02*
X13612673Y-13989296D01*
X13612673Y-13989296D02*
X13603149Y-13970248D01*
X13603149Y-13970248D02*
X13603149Y-13913106D01*
X13603149Y-13913106D02*
X13612673Y-13894058D01*
X13612673Y-13894058D02*
X13622197Y-13884534D01*
X13622197Y-13884534D02*
X13641244Y-13875010D01*
X13641244Y-13875010D02*
X13669816Y-13875010D01*
X13669816Y-13875010D02*
X13688863Y-13884534D01*
X13688863Y-13884534D02*
X13698387Y-13894058D01*
X13698387Y-13894058D02*
X13707911Y-13913106D01*
X13707911Y-13913106D02*
X13707911Y-13970248D01*
X13707911Y-13970248D02*
X13698387Y-13989296D01*
X13698387Y-13989296D02*
X13688863Y-13998820D01*
X13688863Y-13998820D02*
X13669816Y-14008344D01*
X13669816Y-14008344D02*
X13641244Y-14008344D01*
X13822197Y-14008344D02*
X13803149Y-13998820D01*
X13803149Y-13998820D02*
X13793625Y-13979772D01*
X13793625Y-13979772D02*
X13793625Y-13808344D01*
X13974578Y-13998820D02*
X13955530Y-14008344D01*
X13955530Y-14008344D02*
X13917435Y-14008344D01*
X13917435Y-14008344D02*
X13898387Y-13998820D01*
X13898387Y-13998820D02*
X13888863Y-13979772D01*
X13888863Y-13979772D02*
X13888863Y-13903582D01*
X13888863Y-13903582D02*
X13898387Y-13884534D01*
X13898387Y-13884534D02*
X13917435Y-13875010D01*
X13917435Y-13875010D02*
X13955530Y-13875010D01*
X13955530Y-13875010D02*
X13974578Y-13884534D01*
X13974578Y-13884534D02*
X13984101Y-13903582D01*
X13984101Y-13903582D02*
X13984101Y-13922629D01*
X13984101Y-13922629D02*
X13888863Y-13941677D01*
X14060292Y-13998820D02*
X14079340Y-14008344D01*
X14079340Y-14008344D02*
X14117435Y-14008344D01*
X14117435Y-14008344D02*
X14136482Y-13998820D01*
X14136482Y-13998820D02*
X14146006Y-13979772D01*
X14146006Y-13979772D02*
X14146006Y-13970248D01*
X14146006Y-13970248D02*
X14136482Y-13951201D01*
X14136482Y-13951201D02*
X14117435Y-13941677D01*
X14117435Y-13941677D02*
X14088863Y-13941677D01*
X14088863Y-13941677D02*
X14069816Y-13932153D01*
X14069816Y-13932153D02*
X14060292Y-13913106D01*
X14060292Y-13913106D02*
X14060292Y-13903582D01*
X14060292Y-13903582D02*
X14069816Y-13884534D01*
X14069816Y-13884534D02*
X14088863Y-13875010D01*
X14088863Y-13875010D02*
X14117435Y-13875010D01*
X14117435Y-13875010D02*
X14136482Y-13884534D01*
X14212673Y-14084534D02*
X14222197Y-14075010D01*
X14222197Y-14075010D02*
X14241244Y-14046439D01*
X14241244Y-14046439D02*
X14250768Y-14027391D01*
X14250768Y-14027391D02*
X14260292Y-13998820D01*
X14260292Y-13998820D02*
X14269816Y-13951201D01*
X14269816Y-13951201D02*
X14269816Y-13913106D01*
X14269816Y-13913106D02*
X14260292Y-13865487D01*
X14260292Y-13865487D02*
X14250768Y-13836915D01*
X14250768Y-13836915D02*
X14241244Y-13817868D01*
X14241244Y-13817868D02*
X14222197Y-13789296D01*
X14222197Y-13789296D02*
X14212673Y-13779772D01*
X14574578Y-14084534D02*
X14565054Y-14075010D01*
X14565054Y-14075010D02*
X14546006Y-14046439D01*
X14546006Y-14046439D02*
X14536482Y-14027391D01*
X14536482Y-14027391D02*
X14526959Y-13998820D01*
X14526959Y-13998820D02*
X14517435Y-13951201D01*
X14517435Y-13951201D02*
X14517435Y-13913106D01*
X14517435Y-13913106D02*
X14526959Y-13865487D01*
X14526959Y-13865487D02*
X14536482Y-13836915D01*
X14536482Y-13836915D02*
X14546006Y-13817868D01*
X14546006Y-13817868D02*
X14565054Y-13789296D01*
X14565054Y-13789296D02*
X14574578Y-13779772D01*
X14650768Y-13875010D02*
X14650768Y-14008344D01*
X14650768Y-13894058D02*
X14660292Y-13884534D01*
X14660292Y-13884534D02*
X14679340Y-13875010D01*
X14679340Y-13875010D02*
X14707911Y-13875010D01*
X14707911Y-13875010D02*
X14726959Y-13884534D01*
X14726959Y-13884534D02*
X14736482Y-13903582D01*
X14736482Y-13903582D02*
X14736482Y-14008344D01*
X14860292Y-14008344D02*
X14841244Y-13998820D01*
X14841244Y-13998820D02*
X14831721Y-13989296D01*
X14831721Y-13989296D02*
X14822197Y-13970248D01*
X14822197Y-13970248D02*
X14822197Y-13913106D01*
X14822197Y-13913106D02*
X14831721Y-13894058D01*
X14831721Y-13894058D02*
X14841244Y-13884534D01*
X14841244Y-13884534D02*
X14860292Y-13875010D01*
X14860292Y-13875010D02*
X14888863Y-13875010D01*
X14888863Y-13875010D02*
X14907911Y-13884534D01*
X14907911Y-13884534D02*
X14917435Y-13894058D01*
X14917435Y-13894058D02*
X14926959Y-13913106D01*
X14926959Y-13913106D02*
X14926959Y-13970248D01*
X14926959Y-13970248D02*
X14917435Y-13989296D01*
X14917435Y-13989296D02*
X14907911Y-13998820D01*
X14907911Y-13998820D02*
X14888863Y-14008344D01*
X14888863Y-14008344D02*
X14860292Y-14008344D01*
X14984102Y-13875010D02*
X15060292Y-13875010D01*
X15012673Y-13808344D02*
X15012673Y-13979772D01*
X15012673Y-13979772D02*
X15022197Y-13998820D01*
X15022197Y-13998820D02*
X15041244Y-14008344D01*
X15041244Y-14008344D02*
X15060292Y-14008344D01*
X15279340Y-13875010D02*
X15279340Y-14075010D01*
X15279340Y-13884534D02*
X15298387Y-13875010D01*
X15298387Y-13875010D02*
X15336483Y-13875010D01*
X15336483Y-13875010D02*
X15355530Y-13884534D01*
X15355530Y-13884534D02*
X15365054Y-13894058D01*
X15365054Y-13894058D02*
X15374578Y-13913106D01*
X15374578Y-13913106D02*
X15374578Y-13970248D01*
X15374578Y-13970248D02*
X15365054Y-13989296D01*
X15365054Y-13989296D02*
X15355530Y-13998820D01*
X15355530Y-13998820D02*
X15336483Y-14008344D01*
X15336483Y-14008344D02*
X15298387Y-14008344D01*
X15298387Y-14008344D02*
X15279340Y-13998820D01*
X15488863Y-14008344D02*
X15469816Y-13998820D01*
X15469816Y-13998820D02*
X15460292Y-13979772D01*
X15460292Y-13979772D02*
X15460292Y-13808344D01*
X15650768Y-14008344D02*
X15650768Y-13903582D01*
X15650768Y-13903582D02*
X15641244Y-13884534D01*
X15641244Y-13884534D02*
X15622197Y-13875010D01*
X15622197Y-13875010D02*
X15584102Y-13875010D01*
X15584102Y-13875010D02*
X15565054Y-13884534D01*
X15650768Y-13998820D02*
X15631721Y-14008344D01*
X15631721Y-14008344D02*
X15584102Y-14008344D01*
X15584102Y-14008344D02*
X15565054Y-13998820D01*
X15565054Y-13998820D02*
X15555530Y-13979772D01*
X15555530Y-13979772D02*
X15555530Y-13960725D01*
X15555530Y-13960725D02*
X15565054Y-13941677D01*
X15565054Y-13941677D02*
X15584102Y-13932153D01*
X15584102Y-13932153D02*
X15631721Y-13932153D01*
X15631721Y-13932153D02*
X15650768Y-13922629D01*
X15717435Y-13875010D02*
X15793625Y-13875010D01*
X15746006Y-13808344D02*
X15746006Y-13979772D01*
X15746006Y-13979772D02*
X15755530Y-13998820D01*
X15755530Y-13998820D02*
X15774578Y-14008344D01*
X15774578Y-14008344D02*
X15793625Y-14008344D01*
X15936483Y-13998820D02*
X15917435Y-14008344D01*
X15917435Y-14008344D02*
X15879340Y-14008344D01*
X15879340Y-14008344D02*
X15860292Y-13998820D01*
X15860292Y-13998820D02*
X15850768Y-13979772D01*
X15850768Y-13979772D02*
X15850768Y-13903582D01*
X15850768Y-13903582D02*
X15860292Y-13884534D01*
X15860292Y-13884534D02*
X15879340Y-13875010D01*
X15879340Y-13875010D02*
X15917435Y-13875010D01*
X15917435Y-13875010D02*
X15936483Y-13884534D01*
X15936483Y-13884534D02*
X15946006Y-13903582D01*
X15946006Y-13903582D02*
X15946006Y-13922629D01*
X15946006Y-13922629D02*
X15850768Y-13941677D01*
X16117435Y-14008344D02*
X16117435Y-13808344D01*
X16117435Y-13998820D02*
X16098387Y-14008344D01*
X16098387Y-14008344D02*
X16060292Y-14008344D01*
X16060292Y-14008344D02*
X16041244Y-13998820D01*
X16041244Y-13998820D02*
X16031721Y-13989296D01*
X16031721Y-13989296D02*
X16022197Y-13970248D01*
X16022197Y-13970248D02*
X16022197Y-13913106D01*
X16022197Y-13913106D02*
X16031721Y-13894058D01*
X16031721Y-13894058D02*
X16041244Y-13884534D01*
X16041244Y-13884534D02*
X16060292Y-13875010D01*
X16060292Y-13875010D02*
X16098387Y-13875010D01*
X16098387Y-13875010D02*
X16117435Y-13884534D01*
X16193625Y-14084534D02*
X16203149Y-14075010D01*
X16203149Y-14075010D02*
X16222197Y-14046439D01*
X16222197Y-14046439D02*
X16231721Y-14027391D01*
X16231721Y-14027391D02*
X16241244Y-13998820D01*
X16241244Y-13998820D02*
X16250768Y-13951201D01*
X16250768Y-13951201D02*
X16250768Y-13913106D01*
X16250768Y-13913106D02*
X16241244Y-13865487D01*
X16241244Y-13865487D02*
X16231721Y-13836915D01*
X16231721Y-13836915D02*
X16222197Y-13817868D01*
X16222197Y-13817868D02*
X16203149Y-13789296D01*
X16203149Y-13789296D02*
X16193625Y-13779772D01*
D13*
X9362610Y-14105860D02*
X9362610Y-14255860D01*
X9287610Y-14180860D02*
X9437610Y-14180860D01*
D11*
X9803149Y-14272344D02*
X9688863Y-14272344D01*
X9746006Y-14272344D02*
X9746006Y-14072344D01*
X9746006Y-14072344D02*
X9726958Y-14100915D01*
X9726958Y-14100915D02*
X9707911Y-14119963D01*
X9707911Y-14119963D02*
X9688863Y-14129487D01*
X9888863Y-14253296D02*
X9898387Y-14262820D01*
X9898387Y-14262820D02*
X9888863Y-14272344D01*
X9888863Y-14272344D02*
X9879339Y-14262820D01*
X9879339Y-14262820D02*
X9888863Y-14253296D01*
X9888863Y-14253296D02*
X9888863Y-14272344D01*
X10079339Y-14072344D02*
X9984101Y-14072344D01*
X9984101Y-14072344D02*
X9974577Y-14167582D01*
X9974577Y-14167582D02*
X9984101Y-14158058D01*
X9984101Y-14158058D02*
X10003149Y-14148534D01*
X10003149Y-14148534D02*
X10050768Y-14148534D01*
X10050768Y-14148534D02*
X10069815Y-14158058D01*
X10069815Y-14158058D02*
X10079339Y-14167582D01*
X10079339Y-14167582D02*
X10088863Y-14186629D01*
X10088863Y-14186629D02*
X10088863Y-14234248D01*
X10088863Y-14234248D02*
X10079339Y-14253296D01*
X10079339Y-14253296D02*
X10069815Y-14262820D01*
X10069815Y-14262820D02*
X10050768Y-14272344D01*
X10050768Y-14272344D02*
X10003149Y-14272344D01*
X10003149Y-14272344D02*
X9984101Y-14262820D01*
X9984101Y-14262820D02*
X9974577Y-14253296D01*
X10212673Y-14072344D02*
X10231720Y-14072344D01*
X10231720Y-14072344D02*
X10250768Y-14081868D01*
X10250768Y-14081868D02*
X10260292Y-14091391D01*
X10260292Y-14091391D02*
X10269815Y-14110439D01*
X10269815Y-14110439D02*
X10279339Y-14148534D01*
X10279339Y-14148534D02*
X10279339Y-14196153D01*
X10279339Y-14196153D02*
X10269815Y-14234248D01*
X10269815Y-14234248D02*
X10260292Y-14253296D01*
X10260292Y-14253296D02*
X10250768Y-14262820D01*
X10250768Y-14262820D02*
X10231720Y-14272344D01*
X10231720Y-14272344D02*
X10212673Y-14272344D01*
X10212673Y-14272344D02*
X10193625Y-14262820D01*
X10193625Y-14262820D02*
X10184101Y-14253296D01*
X10184101Y-14253296D02*
X10174577Y-14234248D01*
X10174577Y-14234248D02*
X10165054Y-14196153D01*
X10165054Y-14196153D02*
X10165054Y-14148534D01*
X10165054Y-14148534D02*
X10174577Y-14110439D01*
X10174577Y-14110439D02*
X10184101Y-14091391D01*
X10184101Y-14091391D02*
X10193625Y-14081868D01*
X10193625Y-14081868D02*
X10212673Y-14072344D01*
X10403149Y-14072344D02*
X10422196Y-14072344D01*
X10422196Y-14072344D02*
X10441244Y-14081868D01*
X10441244Y-14081868D02*
X10450768Y-14091391D01*
X10450768Y-14091391D02*
X10460292Y-14110439D01*
X10460292Y-14110439D02*
X10469815Y-14148534D01*
X10469815Y-14148534D02*
X10469815Y-14196153D01*
X10469815Y-14196153D02*
X10460292Y-14234248D01*
X10460292Y-14234248D02*
X10450768Y-14253296D01*
X10450768Y-14253296D02*
X10441244Y-14262820D01*
X10441244Y-14262820D02*
X10422196Y-14272344D01*
X10422196Y-14272344D02*
X10403149Y-14272344D01*
X10403149Y-14272344D02*
X10384101Y-14262820D01*
X10384101Y-14262820D02*
X10374577Y-14253296D01*
X10374577Y-14253296D02*
X10365054Y-14234248D01*
X10365054Y-14234248D02*
X10355530Y-14196153D01*
X10355530Y-14196153D02*
X10355530Y-14148534D01*
X10355530Y-14148534D02*
X10365054Y-14110439D01*
X10365054Y-14110439D02*
X10374577Y-14091391D01*
X10374577Y-14091391D02*
X10384101Y-14081868D01*
X10384101Y-14081868D02*
X10403149Y-14072344D01*
X10555530Y-14272344D02*
X10555530Y-14139010D01*
X10555530Y-14158058D02*
X10565054Y-14148534D01*
X10565054Y-14148534D02*
X10584101Y-14139010D01*
X10584101Y-14139010D02*
X10612673Y-14139010D01*
X10612673Y-14139010D02*
X10631720Y-14148534D01*
X10631720Y-14148534D02*
X10641244Y-14167582D01*
X10641244Y-14167582D02*
X10641244Y-14272344D01*
X10641244Y-14167582D02*
X10650768Y-14148534D01*
X10650768Y-14148534D02*
X10669815Y-14139010D01*
X10669815Y-14139010D02*
X10698387Y-14139010D01*
X10698387Y-14139010D02*
X10717435Y-14148534D01*
X10717435Y-14148534D02*
X10726958Y-14167582D01*
X10726958Y-14167582D02*
X10726958Y-14272344D01*
X10822196Y-14272344D02*
X10822196Y-14139010D01*
X10822196Y-14158058D02*
X10831720Y-14148534D01*
X10831720Y-14148534D02*
X10850768Y-14139010D01*
X10850768Y-14139010D02*
X10879339Y-14139010D01*
X10879339Y-14139010D02*
X10898387Y-14148534D01*
X10898387Y-14148534D02*
X10907911Y-14167582D01*
X10907911Y-14167582D02*
X10907911Y-14272344D01*
X10907911Y-14167582D02*
X10917435Y-14148534D01*
X10917435Y-14148534D02*
X10936482Y-14139010D01*
X10936482Y-14139010D02*
X10965054Y-14139010D01*
X10965054Y-14139010D02*
X10984101Y-14148534D01*
X10984101Y-14148534D02*
X10993625Y-14167582D01*
X10993625Y-14167582D02*
X10993625Y-14272344D01*
X11384101Y-14062820D02*
X11212673Y-14319963D01*
X11641244Y-14072344D02*
X11660292Y-14072344D01*
X11660292Y-14072344D02*
X11679339Y-14081868D01*
X11679339Y-14081868D02*
X11688863Y-14091391D01*
X11688863Y-14091391D02*
X11698387Y-14110439D01*
X11698387Y-14110439D02*
X11707911Y-14148534D01*
X11707911Y-14148534D02*
X11707911Y-14196153D01*
X11707911Y-14196153D02*
X11698387Y-14234248D01*
X11698387Y-14234248D02*
X11688863Y-14253296D01*
X11688863Y-14253296D02*
X11679339Y-14262820D01*
X11679339Y-14262820D02*
X11660292Y-14272344D01*
X11660292Y-14272344D02*
X11641244Y-14272344D01*
X11641244Y-14272344D02*
X11622196Y-14262820D01*
X11622196Y-14262820D02*
X11612673Y-14253296D01*
X11612673Y-14253296D02*
X11603149Y-14234248D01*
X11603149Y-14234248D02*
X11593625Y-14196153D01*
X11593625Y-14196153D02*
X11593625Y-14148534D01*
X11593625Y-14148534D02*
X11603149Y-14110439D01*
X11603149Y-14110439D02*
X11612673Y-14091391D01*
X11612673Y-14091391D02*
X11622196Y-14081868D01*
X11622196Y-14081868D02*
X11641244Y-14072344D01*
X11793625Y-14253296D02*
X11803149Y-14262820D01*
X11803149Y-14262820D02*
X11793625Y-14272344D01*
X11793625Y-14272344D02*
X11784101Y-14262820D01*
X11784101Y-14262820D02*
X11793625Y-14253296D01*
X11793625Y-14253296D02*
X11793625Y-14272344D01*
X11926958Y-14072344D02*
X11946006Y-14072344D01*
X11946006Y-14072344D02*
X11965054Y-14081868D01*
X11965054Y-14081868D02*
X11974577Y-14091391D01*
X11974577Y-14091391D02*
X11984101Y-14110439D01*
X11984101Y-14110439D02*
X11993625Y-14148534D01*
X11993625Y-14148534D02*
X11993625Y-14196153D01*
X11993625Y-14196153D02*
X11984101Y-14234248D01*
X11984101Y-14234248D02*
X11974577Y-14253296D01*
X11974577Y-14253296D02*
X11965054Y-14262820D01*
X11965054Y-14262820D02*
X11946006Y-14272344D01*
X11946006Y-14272344D02*
X11926958Y-14272344D01*
X11926958Y-14272344D02*
X11907911Y-14262820D01*
X11907911Y-14262820D02*
X11898387Y-14253296D01*
X11898387Y-14253296D02*
X11888863Y-14234248D01*
X11888863Y-14234248D02*
X11879339Y-14196153D01*
X11879339Y-14196153D02*
X11879339Y-14148534D01*
X11879339Y-14148534D02*
X11888863Y-14110439D01*
X11888863Y-14110439D02*
X11898387Y-14091391D01*
X11898387Y-14091391D02*
X11907911Y-14081868D01*
X11907911Y-14081868D02*
X11926958Y-14072344D01*
X12174577Y-14072344D02*
X12079339Y-14072344D01*
X12079339Y-14072344D02*
X12069816Y-14167582D01*
X12069816Y-14167582D02*
X12079339Y-14158058D01*
X12079339Y-14158058D02*
X12098387Y-14148534D01*
X12098387Y-14148534D02*
X12146006Y-14148534D01*
X12146006Y-14148534D02*
X12165054Y-14158058D01*
X12165054Y-14158058D02*
X12174577Y-14167582D01*
X12174577Y-14167582D02*
X12184101Y-14186629D01*
X12184101Y-14186629D02*
X12184101Y-14234248D01*
X12184101Y-14234248D02*
X12174577Y-14253296D01*
X12174577Y-14253296D02*
X12165054Y-14262820D01*
X12165054Y-14262820D02*
X12146006Y-14272344D01*
X12146006Y-14272344D02*
X12098387Y-14272344D01*
X12098387Y-14272344D02*
X12079339Y-14262820D01*
X12079339Y-14262820D02*
X12069816Y-14253296D01*
X12279339Y-14272344D02*
X12317435Y-14272344D01*
X12317435Y-14272344D02*
X12336482Y-14262820D01*
X12336482Y-14262820D02*
X12346006Y-14253296D01*
X12346006Y-14253296D02*
X12365054Y-14224725D01*
X12365054Y-14224725D02*
X12374577Y-14186629D01*
X12374577Y-14186629D02*
X12374577Y-14110439D01*
X12374577Y-14110439D02*
X12365054Y-14091391D01*
X12365054Y-14091391D02*
X12355530Y-14081868D01*
X12355530Y-14081868D02*
X12336482Y-14072344D01*
X12336482Y-14072344D02*
X12298387Y-14072344D01*
X12298387Y-14072344D02*
X12279339Y-14081868D01*
X12279339Y-14081868D02*
X12269816Y-14091391D01*
X12269816Y-14091391D02*
X12260292Y-14110439D01*
X12260292Y-14110439D02*
X12260292Y-14158058D01*
X12260292Y-14158058D02*
X12269816Y-14177106D01*
X12269816Y-14177106D02*
X12279339Y-14186629D01*
X12279339Y-14186629D02*
X12298387Y-14196153D01*
X12298387Y-14196153D02*
X12336482Y-14196153D01*
X12336482Y-14196153D02*
X12355530Y-14186629D01*
X12355530Y-14186629D02*
X12365054Y-14177106D01*
X12365054Y-14177106D02*
X12374577Y-14158058D01*
X12565054Y-14272344D02*
X12450768Y-14272344D01*
X12507911Y-14272344D02*
X12507911Y-14072344D01*
X12507911Y-14072344D02*
X12488863Y-14100915D01*
X12488863Y-14100915D02*
X12469816Y-14119963D01*
X12469816Y-14119963D02*
X12450768Y-14129487D01*
X12641244Y-14072344D02*
X12641244Y-14110439D01*
X12717435Y-14072344D02*
X12717435Y-14110439D01*
X13012673Y-14348534D02*
X13003149Y-14339010D01*
X13003149Y-14339010D02*
X12984101Y-14310439D01*
X12984101Y-14310439D02*
X12974578Y-14291391D01*
X12974578Y-14291391D02*
X12965054Y-14262820D01*
X12965054Y-14262820D02*
X12955530Y-14215201D01*
X12955530Y-14215201D02*
X12955530Y-14177106D01*
X12955530Y-14177106D02*
X12965054Y-14129487D01*
X12965054Y-14129487D02*
X12974578Y-14100915D01*
X12974578Y-14100915D02*
X12984101Y-14081868D01*
X12984101Y-14081868D02*
X13003149Y-14053296D01*
X13003149Y-14053296D02*
X13012673Y-14043772D01*
X13184101Y-14072344D02*
X13088863Y-14072344D01*
X13088863Y-14072344D02*
X13079339Y-14167582D01*
X13079339Y-14167582D02*
X13088863Y-14158058D01*
X13088863Y-14158058D02*
X13107911Y-14148534D01*
X13107911Y-14148534D02*
X13155530Y-14148534D01*
X13155530Y-14148534D02*
X13174578Y-14158058D01*
X13174578Y-14158058D02*
X13184101Y-14167582D01*
X13184101Y-14167582D02*
X13193625Y-14186629D01*
X13193625Y-14186629D02*
X13193625Y-14234248D01*
X13193625Y-14234248D02*
X13184101Y-14253296D01*
X13184101Y-14253296D02*
X13174578Y-14262820D01*
X13174578Y-14262820D02*
X13155530Y-14272344D01*
X13155530Y-14272344D02*
X13107911Y-14272344D01*
X13107911Y-14272344D02*
X13088863Y-14262820D01*
X13088863Y-14262820D02*
X13079339Y-14253296D01*
X13431720Y-14272344D02*
X13431720Y-14072344D01*
X13517435Y-14272344D02*
X13517435Y-14167582D01*
X13517435Y-14167582D02*
X13507911Y-14148534D01*
X13507911Y-14148534D02*
X13488863Y-14139010D01*
X13488863Y-14139010D02*
X13460292Y-14139010D01*
X13460292Y-14139010D02*
X13441244Y-14148534D01*
X13441244Y-14148534D02*
X13431720Y-14158058D01*
X13641244Y-14272344D02*
X13622197Y-14262820D01*
X13622197Y-14262820D02*
X13612673Y-14253296D01*
X13612673Y-14253296D02*
X13603149Y-14234248D01*
X13603149Y-14234248D02*
X13603149Y-14177106D01*
X13603149Y-14177106D02*
X13612673Y-14158058D01*
X13612673Y-14158058D02*
X13622197Y-14148534D01*
X13622197Y-14148534D02*
X13641244Y-14139010D01*
X13641244Y-14139010D02*
X13669816Y-14139010D01*
X13669816Y-14139010D02*
X13688863Y-14148534D01*
X13688863Y-14148534D02*
X13698387Y-14158058D01*
X13698387Y-14158058D02*
X13707911Y-14177106D01*
X13707911Y-14177106D02*
X13707911Y-14234248D01*
X13707911Y-14234248D02*
X13698387Y-14253296D01*
X13698387Y-14253296D02*
X13688863Y-14262820D01*
X13688863Y-14262820D02*
X13669816Y-14272344D01*
X13669816Y-14272344D02*
X13641244Y-14272344D01*
X13822197Y-14272344D02*
X13803149Y-14262820D01*
X13803149Y-14262820D02*
X13793625Y-14243772D01*
X13793625Y-14243772D02*
X13793625Y-14072344D01*
X13974578Y-14262820D02*
X13955530Y-14272344D01*
X13955530Y-14272344D02*
X13917435Y-14272344D01*
X13917435Y-14272344D02*
X13898387Y-14262820D01*
X13898387Y-14262820D02*
X13888863Y-14243772D01*
X13888863Y-14243772D02*
X13888863Y-14167582D01*
X13888863Y-14167582D02*
X13898387Y-14148534D01*
X13898387Y-14148534D02*
X13917435Y-14139010D01*
X13917435Y-14139010D02*
X13955530Y-14139010D01*
X13955530Y-14139010D02*
X13974578Y-14148534D01*
X13974578Y-14148534D02*
X13984101Y-14167582D01*
X13984101Y-14167582D02*
X13984101Y-14186629D01*
X13984101Y-14186629D02*
X13888863Y-14205677D01*
X14060292Y-14262820D02*
X14079340Y-14272344D01*
X14079340Y-14272344D02*
X14117435Y-14272344D01*
X14117435Y-14272344D02*
X14136482Y-14262820D01*
X14136482Y-14262820D02*
X14146006Y-14243772D01*
X14146006Y-14243772D02*
X14146006Y-14234248D01*
X14146006Y-14234248D02*
X14136482Y-14215201D01*
X14136482Y-14215201D02*
X14117435Y-14205677D01*
X14117435Y-14205677D02*
X14088863Y-14205677D01*
X14088863Y-14205677D02*
X14069816Y-14196153D01*
X14069816Y-14196153D02*
X14060292Y-14177106D01*
X14060292Y-14177106D02*
X14060292Y-14167582D01*
X14060292Y-14167582D02*
X14069816Y-14148534D01*
X14069816Y-14148534D02*
X14088863Y-14139010D01*
X14088863Y-14139010D02*
X14117435Y-14139010D01*
X14117435Y-14139010D02*
X14136482Y-14148534D01*
X14212673Y-14348534D02*
X14222197Y-14339010D01*
X14222197Y-14339010D02*
X14241244Y-14310439D01*
X14241244Y-14310439D02*
X14250768Y-14291391D01*
X14250768Y-14291391D02*
X14260292Y-14262820D01*
X14260292Y-14262820D02*
X14269816Y-14215201D01*
X14269816Y-14215201D02*
X14269816Y-14177106D01*
X14269816Y-14177106D02*
X14260292Y-14129487D01*
X14260292Y-14129487D02*
X14250768Y-14100915D01*
X14250768Y-14100915D02*
X14241244Y-14081868D01*
X14241244Y-14081868D02*
X14222197Y-14053296D01*
X14222197Y-14053296D02*
X14212673Y-14043772D01*
X14574578Y-14348534D02*
X14565054Y-14339010D01*
X14565054Y-14339010D02*
X14546006Y-14310439D01*
X14546006Y-14310439D02*
X14536482Y-14291391D01*
X14536482Y-14291391D02*
X14526959Y-14262820D01*
X14526959Y-14262820D02*
X14517435Y-14215201D01*
X14517435Y-14215201D02*
X14517435Y-14177106D01*
X14517435Y-14177106D02*
X14526959Y-14129487D01*
X14526959Y-14129487D02*
X14536482Y-14100915D01*
X14536482Y-14100915D02*
X14546006Y-14081868D01*
X14546006Y-14081868D02*
X14565054Y-14053296D01*
X14565054Y-14053296D02*
X14574578Y-14043772D01*
X14650768Y-14139010D02*
X14650768Y-14272344D01*
X14650768Y-14158058D02*
X14660292Y-14148534D01*
X14660292Y-14148534D02*
X14679340Y-14139010D01*
X14679340Y-14139010D02*
X14707911Y-14139010D01*
X14707911Y-14139010D02*
X14726959Y-14148534D01*
X14726959Y-14148534D02*
X14736482Y-14167582D01*
X14736482Y-14167582D02*
X14736482Y-14272344D01*
X14860292Y-14272344D02*
X14841244Y-14262820D01*
X14841244Y-14262820D02*
X14831721Y-14253296D01*
X14831721Y-14253296D02*
X14822197Y-14234248D01*
X14822197Y-14234248D02*
X14822197Y-14177106D01*
X14822197Y-14177106D02*
X14831721Y-14158058D01*
X14831721Y-14158058D02*
X14841244Y-14148534D01*
X14841244Y-14148534D02*
X14860292Y-14139010D01*
X14860292Y-14139010D02*
X14888863Y-14139010D01*
X14888863Y-14139010D02*
X14907911Y-14148534D01*
X14907911Y-14148534D02*
X14917435Y-14158058D01*
X14917435Y-14158058D02*
X14926959Y-14177106D01*
X14926959Y-14177106D02*
X14926959Y-14234248D01*
X14926959Y-14234248D02*
X14917435Y-14253296D01*
X14917435Y-14253296D02*
X14907911Y-14262820D01*
X14907911Y-14262820D02*
X14888863Y-14272344D01*
X14888863Y-14272344D02*
X14860292Y-14272344D01*
X14984102Y-14139010D02*
X15060292Y-14139010D01*
X15012673Y-14072344D02*
X15012673Y-14243772D01*
X15012673Y-14243772D02*
X15022197Y-14262820D01*
X15022197Y-14262820D02*
X15041244Y-14272344D01*
X15041244Y-14272344D02*
X15060292Y-14272344D01*
X15279340Y-14139010D02*
X15279340Y-14339010D01*
X15279340Y-14148534D02*
X15298387Y-14139010D01*
X15298387Y-14139010D02*
X15336483Y-14139010D01*
X15336483Y-14139010D02*
X15355530Y-14148534D01*
X15355530Y-14148534D02*
X15365054Y-14158058D01*
X15365054Y-14158058D02*
X15374578Y-14177106D01*
X15374578Y-14177106D02*
X15374578Y-14234248D01*
X15374578Y-14234248D02*
X15365054Y-14253296D01*
X15365054Y-14253296D02*
X15355530Y-14262820D01*
X15355530Y-14262820D02*
X15336483Y-14272344D01*
X15336483Y-14272344D02*
X15298387Y-14272344D01*
X15298387Y-14272344D02*
X15279340Y-14262820D01*
X15488863Y-14272344D02*
X15469816Y-14262820D01*
X15469816Y-14262820D02*
X15460292Y-14243772D01*
X15460292Y-14243772D02*
X15460292Y-14072344D01*
X15650768Y-14272344D02*
X15650768Y-14167582D01*
X15650768Y-14167582D02*
X15641244Y-14148534D01*
X15641244Y-14148534D02*
X15622197Y-14139010D01*
X15622197Y-14139010D02*
X15584102Y-14139010D01*
X15584102Y-14139010D02*
X15565054Y-14148534D01*
X15650768Y-14262820D02*
X15631721Y-14272344D01*
X15631721Y-14272344D02*
X15584102Y-14272344D01*
X15584102Y-14272344D02*
X15565054Y-14262820D01*
X15565054Y-14262820D02*
X15555530Y-14243772D01*
X15555530Y-14243772D02*
X15555530Y-14224725D01*
X15555530Y-14224725D02*
X15565054Y-14205677D01*
X15565054Y-14205677D02*
X15584102Y-14196153D01*
X15584102Y-14196153D02*
X15631721Y-14196153D01*
X15631721Y-14196153D02*
X15650768Y-14186629D01*
X15717435Y-14139010D02*
X15793625Y-14139010D01*
X15746006Y-14072344D02*
X15746006Y-14243772D01*
X15746006Y-14243772D02*
X15755530Y-14262820D01*
X15755530Y-14262820D02*
X15774578Y-14272344D01*
X15774578Y-14272344D02*
X15793625Y-14272344D01*
X15936483Y-14262820D02*
X15917435Y-14272344D01*
X15917435Y-14272344D02*
X15879340Y-14272344D01*
X15879340Y-14272344D02*
X15860292Y-14262820D01*
X15860292Y-14262820D02*
X15850768Y-14243772D01*
X15850768Y-14243772D02*
X15850768Y-14167582D01*
X15850768Y-14167582D02*
X15860292Y-14148534D01*
X15860292Y-14148534D02*
X15879340Y-14139010D01*
X15879340Y-14139010D02*
X15917435Y-14139010D01*
X15917435Y-14139010D02*
X15936483Y-14148534D01*
X15936483Y-14148534D02*
X15946006Y-14167582D01*
X15946006Y-14167582D02*
X15946006Y-14186629D01*
X15946006Y-14186629D02*
X15850768Y-14205677D01*
X16117435Y-14272344D02*
X16117435Y-14072344D01*
X16117435Y-14262820D02*
X16098387Y-14272344D01*
X16098387Y-14272344D02*
X16060292Y-14272344D01*
X16060292Y-14272344D02*
X16041244Y-14262820D01*
X16041244Y-14262820D02*
X16031721Y-14253296D01*
X16031721Y-14253296D02*
X16022197Y-14234248D01*
X16022197Y-14234248D02*
X16022197Y-14177106D01*
X16022197Y-14177106D02*
X16031721Y-14158058D01*
X16031721Y-14158058D02*
X16041244Y-14148534D01*
X16041244Y-14148534D02*
X16060292Y-14139010D01*
X16060292Y-14139010D02*
X16098387Y-14139010D01*
X16098387Y-14139010D02*
X16117435Y-14148534D01*
X16193625Y-14348534D02*
X16203149Y-14339010D01*
X16203149Y-14339010D02*
X16222197Y-14310439D01*
X16222197Y-14310439D02*
X16231721Y-14291391D01*
X16231721Y-14291391D02*
X16241244Y-14262820D01*
X16241244Y-14262820D02*
X16250768Y-14215201D01*
X16250768Y-14215201D02*
X16250768Y-14177106D01*
X16250768Y-14177106D02*
X16241244Y-14129487D01*
X16241244Y-14129487D02*
X16231721Y-14100915D01*
X16231721Y-14100915D02*
X16222197Y-14081868D01*
X16222197Y-14081868D02*
X16203149Y-14053296D01*
X16203149Y-14053296D02*
X16193625Y-14043772D01*
D14*
X9414179Y-14507429D02*
X9414179Y-14394291D01*
X9301041Y-14394291D01*
X9301041Y-14507429D01*
X9414179Y-14507429D01*
D11*
X9803149Y-14542344D02*
X9688863Y-14542344D01*
X9746006Y-14542344D02*
X9746006Y-14342344D01*
X9746006Y-14342344D02*
X9726958Y-14370915D01*
X9726958Y-14370915D02*
X9707911Y-14389963D01*
X9707911Y-14389963D02*
X9688863Y-14399487D01*
X9888863Y-14523296D02*
X9898387Y-14532820D01*
X9898387Y-14532820D02*
X9888863Y-14542344D01*
X9888863Y-14542344D02*
X9879339Y-14532820D01*
X9879339Y-14532820D02*
X9888863Y-14523296D01*
X9888863Y-14523296D02*
X9888863Y-14542344D01*
X10069815Y-14342344D02*
X10031720Y-14342344D01*
X10031720Y-14342344D02*
X10012673Y-14351868D01*
X10012673Y-14351868D02*
X10003149Y-14361391D01*
X10003149Y-14361391D02*
X9984101Y-14389963D01*
X9984101Y-14389963D02*
X9974577Y-14428058D01*
X9974577Y-14428058D02*
X9974577Y-14504248D01*
X9974577Y-14504248D02*
X9984101Y-14523296D01*
X9984101Y-14523296D02*
X9993625Y-14532820D01*
X9993625Y-14532820D02*
X10012673Y-14542344D01*
X10012673Y-14542344D02*
X10050768Y-14542344D01*
X10050768Y-14542344D02*
X10069815Y-14532820D01*
X10069815Y-14532820D02*
X10079339Y-14523296D01*
X10079339Y-14523296D02*
X10088863Y-14504248D01*
X10088863Y-14504248D02*
X10088863Y-14456629D01*
X10088863Y-14456629D02*
X10079339Y-14437582D01*
X10079339Y-14437582D02*
X10069815Y-14428058D01*
X10069815Y-14428058D02*
X10050768Y-14418534D01*
X10050768Y-14418534D02*
X10012673Y-14418534D01*
X10012673Y-14418534D02*
X9993625Y-14428058D01*
X9993625Y-14428058D02*
X9984101Y-14437582D01*
X9984101Y-14437582D02*
X9974577Y-14456629D01*
X10212673Y-14342344D02*
X10231720Y-14342344D01*
X10231720Y-14342344D02*
X10250768Y-14351868D01*
X10250768Y-14351868D02*
X10260292Y-14361391D01*
X10260292Y-14361391D02*
X10269815Y-14380439D01*
X10269815Y-14380439D02*
X10279339Y-14418534D01*
X10279339Y-14418534D02*
X10279339Y-14466153D01*
X10279339Y-14466153D02*
X10269815Y-14504248D01*
X10269815Y-14504248D02*
X10260292Y-14523296D01*
X10260292Y-14523296D02*
X10250768Y-14532820D01*
X10250768Y-14532820D02*
X10231720Y-14542344D01*
X10231720Y-14542344D02*
X10212673Y-14542344D01*
X10212673Y-14542344D02*
X10193625Y-14532820D01*
X10193625Y-14532820D02*
X10184101Y-14523296D01*
X10184101Y-14523296D02*
X10174577Y-14504248D01*
X10174577Y-14504248D02*
X10165054Y-14466153D01*
X10165054Y-14466153D02*
X10165054Y-14418534D01*
X10165054Y-14418534D02*
X10174577Y-14380439D01*
X10174577Y-14380439D02*
X10184101Y-14361391D01*
X10184101Y-14361391D02*
X10193625Y-14351868D01*
X10193625Y-14351868D02*
X10212673Y-14342344D01*
X10403149Y-14342344D02*
X10422196Y-14342344D01*
X10422196Y-14342344D02*
X10441244Y-14351868D01*
X10441244Y-14351868D02*
X10450768Y-14361391D01*
X10450768Y-14361391D02*
X10460292Y-14380439D01*
X10460292Y-14380439D02*
X10469815Y-14418534D01*
X10469815Y-14418534D02*
X10469815Y-14466153D01*
X10469815Y-14466153D02*
X10460292Y-14504248D01*
X10460292Y-14504248D02*
X10450768Y-14523296D01*
X10450768Y-14523296D02*
X10441244Y-14532820D01*
X10441244Y-14532820D02*
X10422196Y-14542344D01*
X10422196Y-14542344D02*
X10403149Y-14542344D01*
X10403149Y-14542344D02*
X10384101Y-14532820D01*
X10384101Y-14532820D02*
X10374577Y-14523296D01*
X10374577Y-14523296D02*
X10365054Y-14504248D01*
X10365054Y-14504248D02*
X10355530Y-14466153D01*
X10355530Y-14466153D02*
X10355530Y-14418534D01*
X10355530Y-14418534D02*
X10365054Y-14380439D01*
X10365054Y-14380439D02*
X10374577Y-14361391D01*
X10374577Y-14361391D02*
X10384101Y-14351868D01*
X10384101Y-14351868D02*
X10403149Y-14342344D01*
X10555530Y-14542344D02*
X10555530Y-14409010D01*
X10555530Y-14428058D02*
X10565054Y-14418534D01*
X10565054Y-14418534D02*
X10584101Y-14409010D01*
X10584101Y-14409010D02*
X10612673Y-14409010D01*
X10612673Y-14409010D02*
X10631720Y-14418534D01*
X10631720Y-14418534D02*
X10641244Y-14437582D01*
X10641244Y-14437582D02*
X10641244Y-14542344D01*
X10641244Y-14437582D02*
X10650768Y-14418534D01*
X10650768Y-14418534D02*
X10669815Y-14409010D01*
X10669815Y-14409010D02*
X10698387Y-14409010D01*
X10698387Y-14409010D02*
X10717435Y-14418534D01*
X10717435Y-14418534D02*
X10726958Y-14437582D01*
X10726958Y-14437582D02*
X10726958Y-14542344D01*
X10822196Y-14542344D02*
X10822196Y-14409010D01*
X10822196Y-14428058D02*
X10831720Y-14418534D01*
X10831720Y-14418534D02*
X10850768Y-14409010D01*
X10850768Y-14409010D02*
X10879339Y-14409010D01*
X10879339Y-14409010D02*
X10898387Y-14418534D01*
X10898387Y-14418534D02*
X10907911Y-14437582D01*
X10907911Y-14437582D02*
X10907911Y-14542344D01*
X10907911Y-14437582D02*
X10917435Y-14418534D01*
X10917435Y-14418534D02*
X10936482Y-14409010D01*
X10936482Y-14409010D02*
X10965054Y-14409010D01*
X10965054Y-14409010D02*
X10984101Y-14418534D01*
X10984101Y-14418534D02*
X10993625Y-14437582D01*
X10993625Y-14437582D02*
X10993625Y-14542344D01*
X11384101Y-14332820D02*
X11212673Y-14589963D01*
X11641244Y-14342344D02*
X11660292Y-14342344D01*
X11660292Y-14342344D02*
X11679339Y-14351868D01*
X11679339Y-14351868D02*
X11688863Y-14361391D01*
X11688863Y-14361391D02*
X11698387Y-14380439D01*
X11698387Y-14380439D02*
X11707911Y-14418534D01*
X11707911Y-14418534D02*
X11707911Y-14466153D01*
X11707911Y-14466153D02*
X11698387Y-14504248D01*
X11698387Y-14504248D02*
X11688863Y-14523296D01*
X11688863Y-14523296D02*
X11679339Y-14532820D01*
X11679339Y-14532820D02*
X11660292Y-14542344D01*
X11660292Y-14542344D02*
X11641244Y-14542344D01*
X11641244Y-14542344D02*
X11622196Y-14532820D01*
X11622196Y-14532820D02*
X11612673Y-14523296D01*
X11612673Y-14523296D02*
X11603149Y-14504248D01*
X11603149Y-14504248D02*
X11593625Y-14466153D01*
X11593625Y-14466153D02*
X11593625Y-14418534D01*
X11593625Y-14418534D02*
X11603149Y-14380439D01*
X11603149Y-14380439D02*
X11612673Y-14361391D01*
X11612673Y-14361391D02*
X11622196Y-14351868D01*
X11622196Y-14351868D02*
X11641244Y-14342344D01*
X11793625Y-14523296D02*
X11803149Y-14532820D01*
X11803149Y-14532820D02*
X11793625Y-14542344D01*
X11793625Y-14542344D02*
X11784101Y-14532820D01*
X11784101Y-14532820D02*
X11793625Y-14523296D01*
X11793625Y-14523296D02*
X11793625Y-14542344D01*
X11926958Y-14342344D02*
X11946006Y-14342344D01*
X11946006Y-14342344D02*
X11965054Y-14351868D01*
X11965054Y-14351868D02*
X11974577Y-14361391D01*
X11974577Y-14361391D02*
X11984101Y-14380439D01*
X11984101Y-14380439D02*
X11993625Y-14418534D01*
X11993625Y-14418534D02*
X11993625Y-14466153D01*
X11993625Y-14466153D02*
X11984101Y-14504248D01*
X11984101Y-14504248D02*
X11974577Y-14523296D01*
X11974577Y-14523296D02*
X11965054Y-14532820D01*
X11965054Y-14532820D02*
X11946006Y-14542344D01*
X11946006Y-14542344D02*
X11926958Y-14542344D01*
X11926958Y-14542344D02*
X11907911Y-14532820D01*
X11907911Y-14532820D02*
X11898387Y-14523296D01*
X11898387Y-14523296D02*
X11888863Y-14504248D01*
X11888863Y-14504248D02*
X11879339Y-14466153D01*
X11879339Y-14466153D02*
X11879339Y-14418534D01*
X11879339Y-14418534D02*
X11888863Y-14380439D01*
X11888863Y-14380439D02*
X11898387Y-14361391D01*
X11898387Y-14361391D02*
X11907911Y-14351868D01*
X11907911Y-14351868D02*
X11926958Y-14342344D01*
X12165054Y-14342344D02*
X12126958Y-14342344D01*
X12126958Y-14342344D02*
X12107911Y-14351868D01*
X12107911Y-14351868D02*
X12098387Y-14361391D01*
X12098387Y-14361391D02*
X12079339Y-14389963D01*
X12079339Y-14389963D02*
X12069816Y-14428058D01*
X12069816Y-14428058D02*
X12069816Y-14504248D01*
X12069816Y-14504248D02*
X12079339Y-14523296D01*
X12079339Y-14523296D02*
X12088863Y-14532820D01*
X12088863Y-14532820D02*
X12107911Y-14542344D01*
X12107911Y-14542344D02*
X12146006Y-14542344D01*
X12146006Y-14542344D02*
X12165054Y-14532820D01*
X12165054Y-14532820D02*
X12174577Y-14523296D01*
X12174577Y-14523296D02*
X12184101Y-14504248D01*
X12184101Y-14504248D02*
X12184101Y-14456629D01*
X12184101Y-14456629D02*
X12174577Y-14437582D01*
X12174577Y-14437582D02*
X12165054Y-14428058D01*
X12165054Y-14428058D02*
X12146006Y-14418534D01*
X12146006Y-14418534D02*
X12107911Y-14418534D01*
X12107911Y-14418534D02*
X12088863Y-14428058D01*
X12088863Y-14428058D02*
X12079339Y-14437582D01*
X12079339Y-14437582D02*
X12069816Y-14456629D01*
X12250768Y-14342344D02*
X12374577Y-14342344D01*
X12374577Y-14342344D02*
X12307911Y-14418534D01*
X12307911Y-14418534D02*
X12336482Y-14418534D01*
X12336482Y-14418534D02*
X12355530Y-14428058D01*
X12355530Y-14428058D02*
X12365054Y-14437582D01*
X12365054Y-14437582D02*
X12374577Y-14456629D01*
X12374577Y-14456629D02*
X12374577Y-14504248D01*
X12374577Y-14504248D02*
X12365054Y-14523296D01*
X12365054Y-14523296D02*
X12355530Y-14532820D01*
X12355530Y-14532820D02*
X12336482Y-14542344D01*
X12336482Y-14542344D02*
X12279339Y-14542344D01*
X12279339Y-14542344D02*
X12260292Y-14532820D01*
X12260292Y-14532820D02*
X12250768Y-14523296D01*
X12498387Y-14342344D02*
X12517435Y-14342344D01*
X12517435Y-14342344D02*
X12536482Y-14351868D01*
X12536482Y-14351868D02*
X12546006Y-14361391D01*
X12546006Y-14361391D02*
X12555530Y-14380439D01*
X12555530Y-14380439D02*
X12565054Y-14418534D01*
X12565054Y-14418534D02*
X12565054Y-14466153D01*
X12565054Y-14466153D02*
X12555530Y-14504248D01*
X12555530Y-14504248D02*
X12546006Y-14523296D01*
X12546006Y-14523296D02*
X12536482Y-14532820D01*
X12536482Y-14532820D02*
X12517435Y-14542344D01*
X12517435Y-14542344D02*
X12498387Y-14542344D01*
X12498387Y-14542344D02*
X12479339Y-14532820D01*
X12479339Y-14532820D02*
X12469816Y-14523296D01*
X12469816Y-14523296D02*
X12460292Y-14504248D01*
X12460292Y-14504248D02*
X12450768Y-14466153D01*
X12450768Y-14466153D02*
X12450768Y-14418534D01*
X12450768Y-14418534D02*
X12460292Y-14380439D01*
X12460292Y-14380439D02*
X12469816Y-14361391D01*
X12469816Y-14361391D02*
X12479339Y-14351868D01*
X12479339Y-14351868D02*
X12498387Y-14342344D01*
X12641244Y-14342344D02*
X12641244Y-14380439D01*
X12717435Y-14342344D02*
X12717435Y-14380439D01*
X13012673Y-14618534D02*
X13003149Y-14609010D01*
X13003149Y-14609010D02*
X12984101Y-14580439D01*
X12984101Y-14580439D02*
X12974578Y-14561391D01*
X12974578Y-14561391D02*
X12965054Y-14532820D01*
X12965054Y-14532820D02*
X12955530Y-14485201D01*
X12955530Y-14485201D02*
X12955530Y-14447106D01*
X12955530Y-14447106D02*
X12965054Y-14399487D01*
X12965054Y-14399487D02*
X12974578Y-14370915D01*
X12974578Y-14370915D02*
X12984101Y-14351868D01*
X12984101Y-14351868D02*
X13003149Y-14323296D01*
X13003149Y-14323296D02*
X13012673Y-14313772D01*
X13079339Y-14361391D02*
X13088863Y-14351868D01*
X13088863Y-14351868D02*
X13107911Y-14342344D01*
X13107911Y-14342344D02*
X13155530Y-14342344D01*
X13155530Y-14342344D02*
X13174578Y-14351868D01*
X13174578Y-14351868D02*
X13184101Y-14361391D01*
X13184101Y-14361391D02*
X13193625Y-14380439D01*
X13193625Y-14380439D02*
X13193625Y-14399487D01*
X13193625Y-14399487D02*
X13184101Y-14428058D01*
X13184101Y-14428058D02*
X13069816Y-14542344D01*
X13069816Y-14542344D02*
X13193625Y-14542344D01*
X13431720Y-14542344D02*
X13431720Y-14342344D01*
X13517435Y-14542344D02*
X13517435Y-14437582D01*
X13517435Y-14437582D02*
X13507911Y-14418534D01*
X13507911Y-14418534D02*
X13488863Y-14409010D01*
X13488863Y-14409010D02*
X13460292Y-14409010D01*
X13460292Y-14409010D02*
X13441244Y-14418534D01*
X13441244Y-14418534D02*
X13431720Y-14428058D01*
X13641244Y-14542344D02*
X13622197Y-14532820D01*
X13622197Y-14532820D02*
X13612673Y-14523296D01*
X13612673Y-14523296D02*
X13603149Y-14504248D01*
X13603149Y-14504248D02*
X13603149Y-14447106D01*
X13603149Y-14447106D02*
X13612673Y-14428058D01*
X13612673Y-14428058D02*
X13622197Y-14418534D01*
X13622197Y-14418534D02*
X13641244Y-14409010D01*
X13641244Y-14409010D02*
X13669816Y-14409010D01*
X13669816Y-14409010D02*
X13688863Y-14418534D01*
X13688863Y-14418534D02*
X13698387Y-14428058D01*
X13698387Y-14428058D02*
X13707911Y-14447106D01*
X13707911Y-14447106D02*
X13707911Y-14504248D01*
X13707911Y-14504248D02*
X13698387Y-14523296D01*
X13698387Y-14523296D02*
X13688863Y-14532820D01*
X13688863Y-14532820D02*
X13669816Y-14542344D01*
X13669816Y-14542344D02*
X13641244Y-14542344D01*
X13822197Y-14542344D02*
X13803149Y-14532820D01*
X13803149Y-14532820D02*
X13793625Y-14513772D01*
X13793625Y-14513772D02*
X13793625Y-14342344D01*
X13974578Y-14532820D02*
X13955530Y-14542344D01*
X13955530Y-14542344D02*
X13917435Y-14542344D01*
X13917435Y-14542344D02*
X13898387Y-14532820D01*
X13898387Y-14532820D02*
X13888863Y-14513772D01*
X13888863Y-14513772D02*
X13888863Y-14437582D01*
X13888863Y-14437582D02*
X13898387Y-14418534D01*
X13898387Y-14418534D02*
X13917435Y-14409010D01*
X13917435Y-14409010D02*
X13955530Y-14409010D01*
X13955530Y-14409010D02*
X13974578Y-14418534D01*
X13974578Y-14418534D02*
X13984101Y-14437582D01*
X13984101Y-14437582D02*
X13984101Y-14456629D01*
X13984101Y-14456629D02*
X13888863Y-14475677D01*
X14060292Y-14532820D02*
X14079340Y-14542344D01*
X14079340Y-14542344D02*
X14117435Y-14542344D01*
X14117435Y-14542344D02*
X14136482Y-14532820D01*
X14136482Y-14532820D02*
X14146006Y-14513772D01*
X14146006Y-14513772D02*
X14146006Y-14504248D01*
X14146006Y-14504248D02*
X14136482Y-14485201D01*
X14136482Y-14485201D02*
X14117435Y-14475677D01*
X14117435Y-14475677D02*
X14088863Y-14475677D01*
X14088863Y-14475677D02*
X14069816Y-14466153D01*
X14069816Y-14466153D02*
X14060292Y-14447106D01*
X14060292Y-14447106D02*
X14060292Y-14437582D01*
X14060292Y-14437582D02*
X14069816Y-14418534D01*
X14069816Y-14418534D02*
X14088863Y-14409010D01*
X14088863Y-14409010D02*
X14117435Y-14409010D01*
X14117435Y-14409010D02*
X14136482Y-14418534D01*
X14212673Y-14618534D02*
X14222197Y-14609010D01*
X14222197Y-14609010D02*
X14241244Y-14580439D01*
X14241244Y-14580439D02*
X14250768Y-14561391D01*
X14250768Y-14561391D02*
X14260292Y-14532820D01*
X14260292Y-14532820D02*
X14269816Y-14485201D01*
X14269816Y-14485201D02*
X14269816Y-14447106D01*
X14269816Y-14447106D02*
X14260292Y-14399487D01*
X14260292Y-14399487D02*
X14250768Y-14370915D01*
X14250768Y-14370915D02*
X14241244Y-14351868D01*
X14241244Y-14351868D02*
X14222197Y-14323296D01*
X14222197Y-14323296D02*
X14212673Y-14313772D01*
X14574578Y-14618534D02*
X14565054Y-14609010D01*
X14565054Y-14609010D02*
X14546006Y-14580439D01*
X14546006Y-14580439D02*
X14536482Y-14561391D01*
X14536482Y-14561391D02*
X14526959Y-14532820D01*
X14526959Y-14532820D02*
X14517435Y-14485201D01*
X14517435Y-14485201D02*
X14517435Y-14447106D01*
X14517435Y-14447106D02*
X14526959Y-14399487D01*
X14526959Y-14399487D02*
X14536482Y-14370915D01*
X14536482Y-14370915D02*
X14546006Y-14351868D01*
X14546006Y-14351868D02*
X14565054Y-14323296D01*
X14565054Y-14323296D02*
X14574578Y-14313772D01*
X14650768Y-14409010D02*
X14650768Y-14542344D01*
X14650768Y-14428058D02*
X14660292Y-14418534D01*
X14660292Y-14418534D02*
X14679340Y-14409010D01*
X14679340Y-14409010D02*
X14707911Y-14409010D01*
X14707911Y-14409010D02*
X14726959Y-14418534D01*
X14726959Y-14418534D02*
X14736482Y-14437582D01*
X14736482Y-14437582D02*
X14736482Y-14542344D01*
X14860292Y-14542344D02*
X14841244Y-14532820D01*
X14841244Y-14532820D02*
X14831721Y-14523296D01*
X14831721Y-14523296D02*
X14822197Y-14504248D01*
X14822197Y-14504248D02*
X14822197Y-14447106D01*
X14822197Y-14447106D02*
X14831721Y-14428058D01*
X14831721Y-14428058D02*
X14841244Y-14418534D01*
X14841244Y-14418534D02*
X14860292Y-14409010D01*
X14860292Y-14409010D02*
X14888863Y-14409010D01*
X14888863Y-14409010D02*
X14907911Y-14418534D01*
X14907911Y-14418534D02*
X14917435Y-14428058D01*
X14917435Y-14428058D02*
X14926959Y-14447106D01*
X14926959Y-14447106D02*
X14926959Y-14504248D01*
X14926959Y-14504248D02*
X14917435Y-14523296D01*
X14917435Y-14523296D02*
X14907911Y-14532820D01*
X14907911Y-14532820D02*
X14888863Y-14542344D01*
X14888863Y-14542344D02*
X14860292Y-14542344D01*
X14984102Y-14409010D02*
X15060292Y-14409010D01*
X15012673Y-14342344D02*
X15012673Y-14513772D01*
X15012673Y-14513772D02*
X15022197Y-14532820D01*
X15022197Y-14532820D02*
X15041244Y-14542344D01*
X15041244Y-14542344D02*
X15060292Y-14542344D01*
X15279340Y-14409010D02*
X15279340Y-14609010D01*
X15279340Y-14418534D02*
X15298387Y-14409010D01*
X15298387Y-14409010D02*
X15336483Y-14409010D01*
X15336483Y-14409010D02*
X15355530Y-14418534D01*
X15355530Y-14418534D02*
X15365054Y-14428058D01*
X15365054Y-14428058D02*
X15374578Y-14447106D01*
X15374578Y-14447106D02*
X15374578Y-14504248D01*
X15374578Y-14504248D02*
X15365054Y-14523296D01*
X15365054Y-14523296D02*
X15355530Y-14532820D01*
X15355530Y-14532820D02*
X15336483Y-14542344D01*
X15336483Y-14542344D02*
X15298387Y-14542344D01*
X15298387Y-14542344D02*
X15279340Y-14532820D01*
X15488863Y-14542344D02*
X15469816Y-14532820D01*
X15469816Y-14532820D02*
X15460292Y-14513772D01*
X15460292Y-14513772D02*
X15460292Y-14342344D01*
X15650768Y-14542344D02*
X15650768Y-14437582D01*
X15650768Y-14437582D02*
X15641244Y-14418534D01*
X15641244Y-14418534D02*
X15622197Y-14409010D01*
X15622197Y-14409010D02*
X15584102Y-14409010D01*
X15584102Y-14409010D02*
X15565054Y-14418534D01*
X15650768Y-14532820D02*
X15631721Y-14542344D01*
X15631721Y-14542344D02*
X15584102Y-14542344D01*
X15584102Y-14542344D02*
X15565054Y-14532820D01*
X15565054Y-14532820D02*
X15555530Y-14513772D01*
X15555530Y-14513772D02*
X15555530Y-14494725D01*
X15555530Y-14494725D02*
X15565054Y-14475677D01*
X15565054Y-14475677D02*
X15584102Y-14466153D01*
X15584102Y-14466153D02*
X15631721Y-14466153D01*
X15631721Y-14466153D02*
X15650768Y-14456629D01*
X15717435Y-14409010D02*
X15793625Y-14409010D01*
X15746006Y-14342344D02*
X15746006Y-14513772D01*
X15746006Y-14513772D02*
X15755530Y-14532820D01*
X15755530Y-14532820D02*
X15774578Y-14542344D01*
X15774578Y-14542344D02*
X15793625Y-14542344D01*
X15936483Y-14532820D02*
X15917435Y-14542344D01*
X15917435Y-14542344D02*
X15879340Y-14542344D01*
X15879340Y-14542344D02*
X15860292Y-14532820D01*
X15860292Y-14532820D02*
X15850768Y-14513772D01*
X15850768Y-14513772D02*
X15850768Y-14437582D01*
X15850768Y-14437582D02*
X15860292Y-14418534D01*
X15860292Y-14418534D02*
X15879340Y-14409010D01*
X15879340Y-14409010D02*
X15917435Y-14409010D01*
X15917435Y-14409010D02*
X15936483Y-14418534D01*
X15936483Y-14418534D02*
X15946006Y-14437582D01*
X15946006Y-14437582D02*
X15946006Y-14456629D01*
X15946006Y-14456629D02*
X15850768Y-14475677D01*
X16117435Y-14542344D02*
X16117435Y-14342344D01*
X16117435Y-14532820D02*
X16098387Y-14542344D01*
X16098387Y-14542344D02*
X16060292Y-14542344D01*
X16060292Y-14542344D02*
X16041244Y-14532820D01*
X16041244Y-14532820D02*
X16031721Y-14523296D01*
X16031721Y-14523296D02*
X16022197Y-14504248D01*
X16022197Y-14504248D02*
X16022197Y-14447106D01*
X16022197Y-14447106D02*
X16031721Y-14428058D01*
X16031721Y-14428058D02*
X16041244Y-14418534D01*
X16041244Y-14418534D02*
X16060292Y-14409010D01*
X16060292Y-14409010D02*
X16098387Y-14409010D01*
X16098387Y-14409010D02*
X16117435Y-14418534D01*
X16193625Y-14618534D02*
X16203149Y-14609010D01*
X16203149Y-14609010D02*
X16222197Y-14580439D01*
X16222197Y-14580439D02*
X16231721Y-14561391D01*
X16231721Y-14561391D02*
X16241244Y-14532820D01*
X16241244Y-14532820D02*
X16250768Y-14485201D01*
X16250768Y-14485201D02*
X16250768Y-14447106D01*
X16250768Y-14447106D02*
X16241244Y-14399487D01*
X16241244Y-14399487D02*
X16231721Y-14370915D01*
X16231721Y-14370915D02*
X16222197Y-14351868D01*
X16222197Y-14351868D02*
X16203149Y-14323296D01*
X16203149Y-14323296D02*
X16193625Y-14313772D01*
X9337610Y-14830860D02*
X9437610Y-14730860D01*
X9337610Y-14630860D01*
X9237610Y-14730860D01*
X9337610Y-14830860D01*
X9688863Y-14641391D02*
X9698387Y-14631868D01*
X9698387Y-14631868D02*
X9717434Y-14622344D01*
X9717434Y-14622344D02*
X9765054Y-14622344D01*
X9765054Y-14622344D02*
X9784101Y-14631868D01*
X9784101Y-14631868D02*
X9793625Y-14641391D01*
X9793625Y-14641391D02*
X9803149Y-14660439D01*
X9803149Y-14660439D02*
X9803149Y-14679487D01*
X9803149Y-14679487D02*
X9793625Y-14708058D01*
X9793625Y-14708058D02*
X9679339Y-14822344D01*
X9679339Y-14822344D02*
X9803149Y-14822344D01*
X9888863Y-14803296D02*
X9898387Y-14812820D01*
X9898387Y-14812820D02*
X9888863Y-14822344D01*
X9888863Y-14822344D02*
X9879339Y-14812820D01*
X9879339Y-14812820D02*
X9888863Y-14803296D01*
X9888863Y-14803296D02*
X9888863Y-14822344D01*
X9993625Y-14822344D02*
X10031720Y-14822344D01*
X10031720Y-14822344D02*
X10050768Y-14812820D01*
X10050768Y-14812820D02*
X10060292Y-14803296D01*
X10060292Y-14803296D02*
X10079339Y-14774725D01*
X10079339Y-14774725D02*
X10088863Y-14736629D01*
X10088863Y-14736629D02*
X10088863Y-14660439D01*
X10088863Y-14660439D02*
X10079339Y-14641391D01*
X10079339Y-14641391D02*
X10069815Y-14631868D01*
X10069815Y-14631868D02*
X10050768Y-14622344D01*
X10050768Y-14622344D02*
X10012673Y-14622344D01*
X10012673Y-14622344D02*
X9993625Y-14631868D01*
X9993625Y-14631868D02*
X9984101Y-14641391D01*
X9984101Y-14641391D02*
X9974577Y-14660439D01*
X9974577Y-14660439D02*
X9974577Y-14708058D01*
X9974577Y-14708058D02*
X9984101Y-14727106D01*
X9984101Y-14727106D02*
X9993625Y-14736629D01*
X9993625Y-14736629D02*
X10012673Y-14746153D01*
X10012673Y-14746153D02*
X10050768Y-14746153D01*
X10050768Y-14746153D02*
X10069815Y-14736629D01*
X10069815Y-14736629D02*
X10079339Y-14727106D01*
X10079339Y-14727106D02*
X10088863Y-14708058D01*
X10212673Y-14622344D02*
X10231720Y-14622344D01*
X10231720Y-14622344D02*
X10250768Y-14631868D01*
X10250768Y-14631868D02*
X10260292Y-14641391D01*
X10260292Y-14641391D02*
X10269815Y-14660439D01*
X10269815Y-14660439D02*
X10279339Y-14698534D01*
X10279339Y-14698534D02*
X10279339Y-14746153D01*
X10279339Y-14746153D02*
X10269815Y-14784248D01*
X10269815Y-14784248D02*
X10260292Y-14803296D01*
X10260292Y-14803296D02*
X10250768Y-14812820D01*
X10250768Y-14812820D02*
X10231720Y-14822344D01*
X10231720Y-14822344D02*
X10212673Y-14822344D01*
X10212673Y-14822344D02*
X10193625Y-14812820D01*
X10193625Y-14812820D02*
X10184101Y-14803296D01*
X10184101Y-14803296D02*
X10174577Y-14784248D01*
X10174577Y-14784248D02*
X10165054Y-14746153D01*
X10165054Y-14746153D02*
X10165054Y-14698534D01*
X10165054Y-14698534D02*
X10174577Y-14660439D01*
X10174577Y-14660439D02*
X10184101Y-14641391D01*
X10184101Y-14641391D02*
X10193625Y-14631868D01*
X10193625Y-14631868D02*
X10212673Y-14622344D01*
X10403149Y-14622344D02*
X10422196Y-14622344D01*
X10422196Y-14622344D02*
X10441244Y-14631868D01*
X10441244Y-14631868D02*
X10450768Y-14641391D01*
X10450768Y-14641391D02*
X10460292Y-14660439D01*
X10460292Y-14660439D02*
X10469815Y-14698534D01*
X10469815Y-14698534D02*
X10469815Y-14746153D01*
X10469815Y-14746153D02*
X10460292Y-14784248D01*
X10460292Y-14784248D02*
X10450768Y-14803296D01*
X10450768Y-14803296D02*
X10441244Y-14812820D01*
X10441244Y-14812820D02*
X10422196Y-14822344D01*
X10422196Y-14822344D02*
X10403149Y-14822344D01*
X10403149Y-14822344D02*
X10384101Y-14812820D01*
X10384101Y-14812820D02*
X10374577Y-14803296D01*
X10374577Y-14803296D02*
X10365054Y-14784248D01*
X10365054Y-14784248D02*
X10355530Y-14746153D01*
X10355530Y-14746153D02*
X10355530Y-14698534D01*
X10355530Y-14698534D02*
X10365054Y-14660439D01*
X10365054Y-14660439D02*
X10374577Y-14641391D01*
X10374577Y-14641391D02*
X10384101Y-14631868D01*
X10384101Y-14631868D02*
X10403149Y-14622344D01*
X10555530Y-14822344D02*
X10555530Y-14689010D01*
X10555530Y-14708058D02*
X10565054Y-14698534D01*
X10565054Y-14698534D02*
X10584101Y-14689010D01*
X10584101Y-14689010D02*
X10612673Y-14689010D01*
X10612673Y-14689010D02*
X10631720Y-14698534D01*
X10631720Y-14698534D02*
X10641244Y-14717582D01*
X10641244Y-14717582D02*
X10641244Y-14822344D01*
X10641244Y-14717582D02*
X10650768Y-14698534D01*
X10650768Y-14698534D02*
X10669815Y-14689010D01*
X10669815Y-14689010D02*
X10698387Y-14689010D01*
X10698387Y-14689010D02*
X10717435Y-14698534D01*
X10717435Y-14698534D02*
X10726958Y-14717582D01*
X10726958Y-14717582D02*
X10726958Y-14822344D01*
X10822196Y-14822344D02*
X10822196Y-14689010D01*
X10822196Y-14708058D02*
X10831720Y-14698534D01*
X10831720Y-14698534D02*
X10850768Y-14689010D01*
X10850768Y-14689010D02*
X10879339Y-14689010D01*
X10879339Y-14689010D02*
X10898387Y-14698534D01*
X10898387Y-14698534D02*
X10907911Y-14717582D01*
X10907911Y-14717582D02*
X10907911Y-14822344D01*
X10907911Y-14717582D02*
X10917435Y-14698534D01*
X10917435Y-14698534D02*
X10936482Y-14689010D01*
X10936482Y-14689010D02*
X10965054Y-14689010D01*
X10965054Y-14689010D02*
X10984101Y-14698534D01*
X10984101Y-14698534D02*
X10993625Y-14717582D01*
X10993625Y-14717582D02*
X10993625Y-14822344D01*
X11384101Y-14612820D02*
X11212673Y-14869963D01*
X11641244Y-14622344D02*
X11660292Y-14622344D01*
X11660292Y-14622344D02*
X11679339Y-14631868D01*
X11679339Y-14631868D02*
X11688863Y-14641391D01*
X11688863Y-14641391D02*
X11698387Y-14660439D01*
X11698387Y-14660439D02*
X11707911Y-14698534D01*
X11707911Y-14698534D02*
X11707911Y-14746153D01*
X11707911Y-14746153D02*
X11698387Y-14784248D01*
X11698387Y-14784248D02*
X11688863Y-14803296D01*
X11688863Y-14803296D02*
X11679339Y-14812820D01*
X11679339Y-14812820D02*
X11660292Y-14822344D01*
X11660292Y-14822344D02*
X11641244Y-14822344D01*
X11641244Y-14822344D02*
X11622196Y-14812820D01*
X11622196Y-14812820D02*
X11612673Y-14803296D01*
X11612673Y-14803296D02*
X11603149Y-14784248D01*
X11603149Y-14784248D02*
X11593625Y-14746153D01*
X11593625Y-14746153D02*
X11593625Y-14698534D01*
X11593625Y-14698534D02*
X11603149Y-14660439D01*
X11603149Y-14660439D02*
X11612673Y-14641391D01*
X11612673Y-14641391D02*
X11622196Y-14631868D01*
X11622196Y-14631868D02*
X11641244Y-14622344D01*
X11793625Y-14803296D02*
X11803149Y-14812820D01*
X11803149Y-14812820D02*
X11793625Y-14822344D01*
X11793625Y-14822344D02*
X11784101Y-14812820D01*
X11784101Y-14812820D02*
X11793625Y-14803296D01*
X11793625Y-14803296D02*
X11793625Y-14822344D01*
X11993625Y-14822344D02*
X11879339Y-14822344D01*
X11936482Y-14822344D02*
X11936482Y-14622344D01*
X11936482Y-14622344D02*
X11917435Y-14650915D01*
X11917435Y-14650915D02*
X11898387Y-14669963D01*
X11898387Y-14669963D02*
X11879339Y-14679487D01*
X12184101Y-14822344D02*
X12069816Y-14822344D01*
X12126958Y-14822344D02*
X12126958Y-14622344D01*
X12126958Y-14622344D02*
X12107911Y-14650915D01*
X12107911Y-14650915D02*
X12088863Y-14669963D01*
X12088863Y-14669963D02*
X12069816Y-14679487D01*
X12355530Y-14689010D02*
X12355530Y-14822344D01*
X12307911Y-14612820D02*
X12260292Y-14755677D01*
X12260292Y-14755677D02*
X12384101Y-14755677D01*
X12450768Y-14641391D02*
X12460292Y-14631868D01*
X12460292Y-14631868D02*
X12479339Y-14622344D01*
X12479339Y-14622344D02*
X12526958Y-14622344D01*
X12526958Y-14622344D02*
X12546006Y-14631868D01*
X12546006Y-14631868D02*
X12555530Y-14641391D01*
X12555530Y-14641391D02*
X12565054Y-14660439D01*
X12565054Y-14660439D02*
X12565054Y-14679487D01*
X12565054Y-14679487D02*
X12555530Y-14708058D01*
X12555530Y-14708058D02*
X12441244Y-14822344D01*
X12441244Y-14822344D02*
X12565054Y-14822344D01*
X12641244Y-14622344D02*
X12641244Y-14660439D01*
X12717435Y-14622344D02*
X12717435Y-14660439D01*
X13012673Y-14898534D02*
X13003149Y-14889010D01*
X13003149Y-14889010D02*
X12984101Y-14860439D01*
X12984101Y-14860439D02*
X12974578Y-14841391D01*
X12974578Y-14841391D02*
X12965054Y-14812820D01*
X12965054Y-14812820D02*
X12955530Y-14765201D01*
X12955530Y-14765201D02*
X12955530Y-14727106D01*
X12955530Y-14727106D02*
X12965054Y-14679487D01*
X12965054Y-14679487D02*
X12974578Y-14650915D01*
X12974578Y-14650915D02*
X12984101Y-14631868D01*
X12984101Y-14631868D02*
X13003149Y-14603296D01*
X13003149Y-14603296D02*
X13012673Y-14593772D01*
X13069816Y-14622344D02*
X13193625Y-14622344D01*
X13193625Y-14622344D02*
X13126958Y-14698534D01*
X13126958Y-14698534D02*
X13155530Y-14698534D01*
X13155530Y-14698534D02*
X13174578Y-14708058D01*
X13174578Y-14708058D02*
X13184101Y-14717582D01*
X13184101Y-14717582D02*
X13193625Y-14736629D01*
X13193625Y-14736629D02*
X13193625Y-14784248D01*
X13193625Y-14784248D02*
X13184101Y-14803296D01*
X13184101Y-14803296D02*
X13174578Y-14812820D01*
X13174578Y-14812820D02*
X13155530Y-14822344D01*
X13155530Y-14822344D02*
X13098387Y-14822344D01*
X13098387Y-14822344D02*
X13079339Y-14812820D01*
X13079339Y-14812820D02*
X13069816Y-14803296D01*
X13431720Y-14822344D02*
X13431720Y-14622344D01*
X13517435Y-14822344D02*
X13517435Y-14717582D01*
X13517435Y-14717582D02*
X13507911Y-14698534D01*
X13507911Y-14698534D02*
X13488863Y-14689010D01*
X13488863Y-14689010D02*
X13460292Y-14689010D01*
X13460292Y-14689010D02*
X13441244Y-14698534D01*
X13441244Y-14698534D02*
X13431720Y-14708058D01*
X13641244Y-14822344D02*
X13622197Y-14812820D01*
X13622197Y-14812820D02*
X13612673Y-14803296D01*
X13612673Y-14803296D02*
X13603149Y-14784248D01*
X13603149Y-14784248D02*
X13603149Y-14727106D01*
X13603149Y-14727106D02*
X13612673Y-14708058D01*
X13612673Y-14708058D02*
X13622197Y-14698534D01*
X13622197Y-14698534D02*
X13641244Y-14689010D01*
X13641244Y-14689010D02*
X13669816Y-14689010D01*
X13669816Y-14689010D02*
X13688863Y-14698534D01*
X13688863Y-14698534D02*
X13698387Y-14708058D01*
X13698387Y-14708058D02*
X13707911Y-14727106D01*
X13707911Y-14727106D02*
X13707911Y-14784248D01*
X13707911Y-14784248D02*
X13698387Y-14803296D01*
X13698387Y-14803296D02*
X13688863Y-14812820D01*
X13688863Y-14812820D02*
X13669816Y-14822344D01*
X13669816Y-14822344D02*
X13641244Y-14822344D01*
X13822197Y-14822344D02*
X13803149Y-14812820D01*
X13803149Y-14812820D02*
X13793625Y-14793772D01*
X13793625Y-14793772D02*
X13793625Y-14622344D01*
X13974578Y-14812820D02*
X13955530Y-14822344D01*
X13955530Y-14822344D02*
X13917435Y-14822344D01*
X13917435Y-14822344D02*
X13898387Y-14812820D01*
X13898387Y-14812820D02*
X13888863Y-14793772D01*
X13888863Y-14793772D02*
X13888863Y-14717582D01*
X13888863Y-14717582D02*
X13898387Y-14698534D01*
X13898387Y-14698534D02*
X13917435Y-14689010D01*
X13917435Y-14689010D02*
X13955530Y-14689010D01*
X13955530Y-14689010D02*
X13974578Y-14698534D01*
X13974578Y-14698534D02*
X13984101Y-14717582D01*
X13984101Y-14717582D02*
X13984101Y-14736629D01*
X13984101Y-14736629D02*
X13888863Y-14755677D01*
X14060292Y-14812820D02*
X14079340Y-14822344D01*
X14079340Y-14822344D02*
X14117435Y-14822344D01*
X14117435Y-14822344D02*
X14136482Y-14812820D01*
X14136482Y-14812820D02*
X14146006Y-14793772D01*
X14146006Y-14793772D02*
X14146006Y-14784248D01*
X14146006Y-14784248D02*
X14136482Y-14765201D01*
X14136482Y-14765201D02*
X14117435Y-14755677D01*
X14117435Y-14755677D02*
X14088863Y-14755677D01*
X14088863Y-14755677D02*
X14069816Y-14746153D01*
X14069816Y-14746153D02*
X14060292Y-14727106D01*
X14060292Y-14727106D02*
X14060292Y-14717582D01*
X14060292Y-14717582D02*
X14069816Y-14698534D01*
X14069816Y-14698534D02*
X14088863Y-14689010D01*
X14088863Y-14689010D02*
X14117435Y-14689010D01*
X14117435Y-14689010D02*
X14136482Y-14698534D01*
X14212673Y-14898534D02*
X14222197Y-14889010D01*
X14222197Y-14889010D02*
X14241244Y-14860439D01*
X14241244Y-14860439D02*
X14250768Y-14841391D01*
X14250768Y-14841391D02*
X14260292Y-14812820D01*
X14260292Y-14812820D02*
X14269816Y-14765201D01*
X14269816Y-14765201D02*
X14269816Y-14727106D01*
X14269816Y-14727106D02*
X14260292Y-14679487D01*
X14260292Y-14679487D02*
X14250768Y-14650915D01*
X14250768Y-14650915D02*
X14241244Y-14631868D01*
X14241244Y-14631868D02*
X14222197Y-14603296D01*
X14222197Y-14603296D02*
X14212673Y-14593772D01*
X14574578Y-14898534D02*
X14565054Y-14889010D01*
X14565054Y-14889010D02*
X14546006Y-14860439D01*
X14546006Y-14860439D02*
X14536482Y-14841391D01*
X14536482Y-14841391D02*
X14526959Y-14812820D01*
X14526959Y-14812820D02*
X14517435Y-14765201D01*
X14517435Y-14765201D02*
X14517435Y-14727106D01*
X14517435Y-14727106D02*
X14526959Y-14679487D01*
X14526959Y-14679487D02*
X14536482Y-14650915D01*
X14536482Y-14650915D02*
X14546006Y-14631868D01*
X14546006Y-14631868D02*
X14565054Y-14603296D01*
X14565054Y-14603296D02*
X14574578Y-14593772D01*
X14650768Y-14689010D02*
X14650768Y-14822344D01*
X14650768Y-14708058D02*
X14660292Y-14698534D01*
X14660292Y-14698534D02*
X14679340Y-14689010D01*
X14679340Y-14689010D02*
X14707911Y-14689010D01*
X14707911Y-14689010D02*
X14726959Y-14698534D01*
X14726959Y-14698534D02*
X14736482Y-14717582D01*
X14736482Y-14717582D02*
X14736482Y-14822344D01*
X14860292Y-14822344D02*
X14841244Y-14812820D01*
X14841244Y-14812820D02*
X14831721Y-14803296D01*
X14831721Y-14803296D02*
X14822197Y-14784248D01*
X14822197Y-14784248D02*
X14822197Y-14727106D01*
X14822197Y-14727106D02*
X14831721Y-14708058D01*
X14831721Y-14708058D02*
X14841244Y-14698534D01*
X14841244Y-14698534D02*
X14860292Y-14689010D01*
X14860292Y-14689010D02*
X14888863Y-14689010D01*
X14888863Y-14689010D02*
X14907911Y-14698534D01*
X14907911Y-14698534D02*
X14917435Y-14708058D01*
X14917435Y-14708058D02*
X14926959Y-14727106D01*
X14926959Y-14727106D02*
X14926959Y-14784248D01*
X14926959Y-14784248D02*
X14917435Y-14803296D01*
X14917435Y-14803296D02*
X14907911Y-14812820D01*
X14907911Y-14812820D02*
X14888863Y-14822344D01*
X14888863Y-14822344D02*
X14860292Y-14822344D01*
X14984102Y-14689010D02*
X15060292Y-14689010D01*
X15012673Y-14622344D02*
X15012673Y-14793772D01*
X15012673Y-14793772D02*
X15022197Y-14812820D01*
X15022197Y-14812820D02*
X15041244Y-14822344D01*
X15041244Y-14822344D02*
X15060292Y-14822344D01*
X15279340Y-14689010D02*
X15279340Y-14889010D01*
X15279340Y-14698534D02*
X15298387Y-14689010D01*
X15298387Y-14689010D02*
X15336483Y-14689010D01*
X15336483Y-14689010D02*
X15355530Y-14698534D01*
X15355530Y-14698534D02*
X15365054Y-14708058D01*
X15365054Y-14708058D02*
X15374578Y-14727106D01*
X15374578Y-14727106D02*
X15374578Y-14784248D01*
X15374578Y-14784248D02*
X15365054Y-14803296D01*
X15365054Y-14803296D02*
X15355530Y-14812820D01*
X15355530Y-14812820D02*
X15336483Y-14822344D01*
X15336483Y-14822344D02*
X15298387Y-14822344D01*
X15298387Y-14822344D02*
X15279340Y-14812820D01*
X15488863Y-14822344D02*
X15469816Y-14812820D01*
X15469816Y-14812820D02*
X15460292Y-14793772D01*
X15460292Y-14793772D02*
X15460292Y-14622344D01*
X15650768Y-14822344D02*
X15650768Y-14717582D01*
X15650768Y-14717582D02*
X15641244Y-14698534D01*
X15641244Y-14698534D02*
X15622197Y-14689010D01*
X15622197Y-14689010D02*
X15584102Y-14689010D01*
X15584102Y-14689010D02*
X15565054Y-14698534D01*
X15650768Y-14812820D02*
X15631721Y-14822344D01*
X15631721Y-14822344D02*
X15584102Y-14822344D01*
X15584102Y-14822344D02*
X15565054Y-14812820D01*
X15565054Y-14812820D02*
X15555530Y-14793772D01*
X15555530Y-14793772D02*
X15555530Y-14774725D01*
X15555530Y-14774725D02*
X15565054Y-14755677D01*
X15565054Y-14755677D02*
X15584102Y-14746153D01*
X15584102Y-14746153D02*
X15631721Y-14746153D01*
X15631721Y-14746153D02*
X15650768Y-14736629D01*
X15717435Y-14689010D02*
X15793625Y-14689010D01*
X15746006Y-14622344D02*
X15746006Y-14793772D01*
X15746006Y-14793772D02*
X15755530Y-14812820D01*
X15755530Y-14812820D02*
X15774578Y-14822344D01*
X15774578Y-14822344D02*
X15793625Y-14822344D01*
X15936483Y-14812820D02*
X15917435Y-14822344D01*
X15917435Y-14822344D02*
X15879340Y-14822344D01*
X15879340Y-14822344D02*
X15860292Y-14812820D01*
X15860292Y-14812820D02*
X15850768Y-14793772D01*
X15850768Y-14793772D02*
X15850768Y-14717582D01*
X15850768Y-14717582D02*
X15860292Y-14698534D01*
X15860292Y-14698534D02*
X15879340Y-14689010D01*
X15879340Y-14689010D02*
X15917435Y-14689010D01*
X15917435Y-14689010D02*
X15936483Y-14698534D01*
X15936483Y-14698534D02*
X15946006Y-14717582D01*
X15946006Y-14717582D02*
X15946006Y-14736629D01*
X15946006Y-14736629D02*
X15850768Y-14755677D01*
X16117435Y-14822344D02*
X16117435Y-14622344D01*
X16117435Y-14812820D02*
X16098387Y-14822344D01*
X16098387Y-14822344D02*
X16060292Y-14822344D01*
X16060292Y-14822344D02*
X16041244Y-14812820D01*
X16041244Y-14812820D02*
X16031721Y-14803296D01*
X16031721Y-14803296D02*
X16022197Y-14784248D01*
X16022197Y-14784248D02*
X16022197Y-14727106D01*
X16022197Y-14727106D02*
X16031721Y-14708058D01*
X16031721Y-14708058D02*
X16041244Y-14698534D01*
X16041244Y-14698534D02*
X16060292Y-14689010D01*
X16060292Y-14689010D02*
X16098387Y-14689010D01*
X16098387Y-14689010D02*
X16117435Y-14698534D01*
X16193625Y-14898534D02*
X16203149Y-14889010D01*
X16203149Y-14889010D02*
X16222197Y-14860439D01*
X16222197Y-14860439D02*
X16231721Y-14841391D01*
X16231721Y-14841391D02*
X16241244Y-14812820D01*
X16241244Y-14812820D02*
X16250768Y-14765201D01*
X16250768Y-14765201D02*
X16250768Y-14727106D01*
X16250768Y-14727106D02*
X16241244Y-14679487D01*
X16241244Y-14679487D02*
X16231721Y-14650915D01*
X16231721Y-14650915D02*
X16222197Y-14631868D01*
X16222197Y-14631868D02*
X16203149Y-14603296D01*
X16203149Y-14603296D02*
X16193625Y-14593772D01*
X9237610Y-14950860D02*
X9437610Y-15150860D01*
X9437610Y-14950860D02*
X9237610Y-15150860D01*
X9437610Y-15050860D02*
G75*
G02*
X9237610Y-15050860I-100000J0D01*
G01*
X9237610Y-15050860D02*
G75*
G02*
X9437610Y-15050860I100000J0D01*
G01*
X9679339Y-14942344D02*
X9803149Y-14942344D01*
X9803149Y-14942344D02*
X9736482Y-15018534D01*
X9736482Y-15018534D02*
X9765054Y-15018534D01*
X9765054Y-15018534D02*
X9784101Y-15028058D01*
X9784101Y-15028058D02*
X9793625Y-15037582D01*
X9793625Y-15037582D02*
X9803149Y-15056629D01*
X9803149Y-15056629D02*
X9803149Y-15104248D01*
X9803149Y-15104248D02*
X9793625Y-15123296D01*
X9793625Y-15123296D02*
X9784101Y-15132820D01*
X9784101Y-15132820D02*
X9765054Y-15142344D01*
X9765054Y-15142344D02*
X9707911Y-15142344D01*
X9707911Y-15142344D02*
X9688863Y-15132820D01*
X9688863Y-15132820D02*
X9679339Y-15123296D01*
X9888863Y-15123296D02*
X9898387Y-15132820D01*
X9898387Y-15132820D02*
X9888863Y-15142344D01*
X9888863Y-15142344D02*
X9879339Y-15132820D01*
X9879339Y-15132820D02*
X9888863Y-15123296D01*
X9888863Y-15123296D02*
X9888863Y-15142344D01*
X10079339Y-14942344D02*
X9984101Y-14942344D01*
X9984101Y-14942344D02*
X9974577Y-15037582D01*
X9974577Y-15037582D02*
X9984101Y-15028058D01*
X9984101Y-15028058D02*
X10003149Y-15018534D01*
X10003149Y-15018534D02*
X10050768Y-15018534D01*
X10050768Y-15018534D02*
X10069815Y-15028058D01*
X10069815Y-15028058D02*
X10079339Y-15037582D01*
X10079339Y-15037582D02*
X10088863Y-15056629D01*
X10088863Y-15056629D02*
X10088863Y-15104248D01*
X10088863Y-15104248D02*
X10079339Y-15123296D01*
X10079339Y-15123296D02*
X10069815Y-15132820D01*
X10069815Y-15132820D02*
X10050768Y-15142344D01*
X10050768Y-15142344D02*
X10003149Y-15142344D01*
X10003149Y-15142344D02*
X9984101Y-15132820D01*
X9984101Y-15132820D02*
X9974577Y-15123296D01*
X10212673Y-14942344D02*
X10231720Y-14942344D01*
X10231720Y-14942344D02*
X10250768Y-14951868D01*
X10250768Y-14951868D02*
X10260292Y-14961391D01*
X10260292Y-14961391D02*
X10269815Y-14980439D01*
X10269815Y-14980439D02*
X10279339Y-15018534D01*
X10279339Y-15018534D02*
X10279339Y-15066153D01*
X10279339Y-15066153D02*
X10269815Y-15104248D01*
X10269815Y-15104248D02*
X10260292Y-15123296D01*
X10260292Y-15123296D02*
X10250768Y-15132820D01*
X10250768Y-15132820D02*
X10231720Y-15142344D01*
X10231720Y-15142344D02*
X10212673Y-15142344D01*
X10212673Y-15142344D02*
X10193625Y-15132820D01*
X10193625Y-15132820D02*
X10184101Y-15123296D01*
X10184101Y-15123296D02*
X10174577Y-15104248D01*
X10174577Y-15104248D02*
X10165054Y-15066153D01*
X10165054Y-15066153D02*
X10165054Y-15018534D01*
X10165054Y-15018534D02*
X10174577Y-14980439D01*
X10174577Y-14980439D02*
X10184101Y-14961391D01*
X10184101Y-14961391D02*
X10193625Y-14951868D01*
X10193625Y-14951868D02*
X10212673Y-14942344D01*
X10403149Y-14942344D02*
X10422196Y-14942344D01*
X10422196Y-14942344D02*
X10441244Y-14951868D01*
X10441244Y-14951868D02*
X10450768Y-14961391D01*
X10450768Y-14961391D02*
X10460292Y-14980439D01*
X10460292Y-14980439D02*
X10469815Y-15018534D01*
X10469815Y-15018534D02*
X10469815Y-15066153D01*
X10469815Y-15066153D02*
X10460292Y-15104248D01*
X10460292Y-15104248D02*
X10450768Y-15123296D01*
X10450768Y-15123296D02*
X10441244Y-15132820D01*
X10441244Y-15132820D02*
X10422196Y-15142344D01*
X10422196Y-15142344D02*
X10403149Y-15142344D01*
X10403149Y-15142344D02*
X10384101Y-15132820D01*
X10384101Y-15132820D02*
X10374577Y-15123296D01*
X10374577Y-15123296D02*
X10365054Y-15104248D01*
X10365054Y-15104248D02*
X10355530Y-15066153D01*
X10355530Y-15066153D02*
X10355530Y-15018534D01*
X10355530Y-15018534D02*
X10365054Y-14980439D01*
X10365054Y-14980439D02*
X10374577Y-14961391D01*
X10374577Y-14961391D02*
X10384101Y-14951868D01*
X10384101Y-14951868D02*
X10403149Y-14942344D01*
X10555530Y-15142344D02*
X10555530Y-15009010D01*
X10555530Y-15028058D02*
X10565054Y-15018534D01*
X10565054Y-15018534D02*
X10584101Y-15009010D01*
X10584101Y-15009010D02*
X10612673Y-15009010D01*
X10612673Y-15009010D02*
X10631720Y-15018534D01*
X10631720Y-15018534D02*
X10641244Y-15037582D01*
X10641244Y-15037582D02*
X10641244Y-15142344D01*
X10641244Y-15037582D02*
X10650768Y-15018534D01*
X10650768Y-15018534D02*
X10669815Y-15009010D01*
X10669815Y-15009010D02*
X10698387Y-15009010D01*
X10698387Y-15009010D02*
X10717435Y-15018534D01*
X10717435Y-15018534D02*
X10726958Y-15037582D01*
X10726958Y-15037582D02*
X10726958Y-15142344D01*
X10822196Y-15142344D02*
X10822196Y-15009010D01*
X10822196Y-15028058D02*
X10831720Y-15018534D01*
X10831720Y-15018534D02*
X10850768Y-15009010D01*
X10850768Y-15009010D02*
X10879339Y-15009010D01*
X10879339Y-15009010D02*
X10898387Y-15018534D01*
X10898387Y-15018534D02*
X10907911Y-15037582D01*
X10907911Y-15037582D02*
X10907911Y-15142344D01*
X10907911Y-15037582D02*
X10917435Y-15018534D01*
X10917435Y-15018534D02*
X10936482Y-15009010D01*
X10936482Y-15009010D02*
X10965054Y-15009010D01*
X10965054Y-15009010D02*
X10984101Y-15018534D01*
X10984101Y-15018534D02*
X10993625Y-15037582D01*
X10993625Y-15037582D02*
X10993625Y-15142344D01*
X11384101Y-14932820D02*
X11212673Y-15189963D01*
X11641244Y-14942344D02*
X11660292Y-14942344D01*
X11660292Y-14942344D02*
X11679339Y-14951868D01*
X11679339Y-14951868D02*
X11688863Y-14961391D01*
X11688863Y-14961391D02*
X11698387Y-14980439D01*
X11698387Y-14980439D02*
X11707911Y-15018534D01*
X11707911Y-15018534D02*
X11707911Y-15066153D01*
X11707911Y-15066153D02*
X11698387Y-15104248D01*
X11698387Y-15104248D02*
X11688863Y-15123296D01*
X11688863Y-15123296D02*
X11679339Y-15132820D01*
X11679339Y-15132820D02*
X11660292Y-15142344D01*
X11660292Y-15142344D02*
X11641244Y-15142344D01*
X11641244Y-15142344D02*
X11622196Y-15132820D01*
X11622196Y-15132820D02*
X11612673Y-15123296D01*
X11612673Y-15123296D02*
X11603149Y-15104248D01*
X11603149Y-15104248D02*
X11593625Y-15066153D01*
X11593625Y-15066153D02*
X11593625Y-15018534D01*
X11593625Y-15018534D02*
X11603149Y-14980439D01*
X11603149Y-14980439D02*
X11612673Y-14961391D01*
X11612673Y-14961391D02*
X11622196Y-14951868D01*
X11622196Y-14951868D02*
X11641244Y-14942344D01*
X11793625Y-15123296D02*
X11803149Y-15132820D01*
X11803149Y-15132820D02*
X11793625Y-15142344D01*
X11793625Y-15142344D02*
X11784101Y-15132820D01*
X11784101Y-15132820D02*
X11793625Y-15123296D01*
X11793625Y-15123296D02*
X11793625Y-15142344D01*
X11993625Y-15142344D02*
X11879339Y-15142344D01*
X11936482Y-15142344D02*
X11936482Y-14942344D01*
X11936482Y-14942344D02*
X11917435Y-14970915D01*
X11917435Y-14970915D02*
X11898387Y-14989963D01*
X11898387Y-14989963D02*
X11879339Y-14999487D01*
X12060292Y-14942344D02*
X12184101Y-14942344D01*
X12184101Y-14942344D02*
X12117435Y-15018534D01*
X12117435Y-15018534D02*
X12146006Y-15018534D01*
X12146006Y-15018534D02*
X12165054Y-15028058D01*
X12165054Y-15028058D02*
X12174577Y-15037582D01*
X12174577Y-15037582D02*
X12184101Y-15056629D01*
X12184101Y-15056629D02*
X12184101Y-15104248D01*
X12184101Y-15104248D02*
X12174577Y-15123296D01*
X12174577Y-15123296D02*
X12165054Y-15132820D01*
X12165054Y-15132820D02*
X12146006Y-15142344D01*
X12146006Y-15142344D02*
X12088863Y-15142344D01*
X12088863Y-15142344D02*
X12069816Y-15132820D01*
X12069816Y-15132820D02*
X12060292Y-15123296D01*
X12250768Y-14942344D02*
X12384101Y-14942344D01*
X12384101Y-14942344D02*
X12298387Y-15142344D01*
X12488863Y-15028058D02*
X12469816Y-15018534D01*
X12469816Y-15018534D02*
X12460292Y-15009010D01*
X12460292Y-15009010D02*
X12450768Y-14989963D01*
X12450768Y-14989963D02*
X12450768Y-14980439D01*
X12450768Y-14980439D02*
X12460292Y-14961391D01*
X12460292Y-14961391D02*
X12469816Y-14951868D01*
X12469816Y-14951868D02*
X12488863Y-14942344D01*
X12488863Y-14942344D02*
X12526958Y-14942344D01*
X12526958Y-14942344D02*
X12546006Y-14951868D01*
X12546006Y-14951868D02*
X12555530Y-14961391D01*
X12555530Y-14961391D02*
X12565054Y-14980439D01*
X12565054Y-14980439D02*
X12565054Y-14989963D01*
X12565054Y-14989963D02*
X12555530Y-15009010D01*
X12555530Y-15009010D02*
X12546006Y-15018534D01*
X12546006Y-15018534D02*
X12526958Y-15028058D01*
X12526958Y-15028058D02*
X12488863Y-15028058D01*
X12488863Y-15028058D02*
X12469816Y-15037582D01*
X12469816Y-15037582D02*
X12460292Y-15047106D01*
X12460292Y-15047106D02*
X12450768Y-15066153D01*
X12450768Y-15066153D02*
X12450768Y-15104248D01*
X12450768Y-15104248D02*
X12460292Y-15123296D01*
X12460292Y-15123296D02*
X12469816Y-15132820D01*
X12469816Y-15132820D02*
X12488863Y-15142344D01*
X12488863Y-15142344D02*
X12526958Y-15142344D01*
X12526958Y-15142344D02*
X12546006Y-15132820D01*
X12546006Y-15132820D02*
X12555530Y-15123296D01*
X12555530Y-15123296D02*
X12565054Y-15104248D01*
X12565054Y-15104248D02*
X12565054Y-15066153D01*
X12565054Y-15066153D02*
X12555530Y-15047106D01*
X12555530Y-15047106D02*
X12546006Y-15037582D01*
X12546006Y-15037582D02*
X12526958Y-15028058D01*
X12641244Y-14942344D02*
X12641244Y-14980439D01*
X12717435Y-14942344D02*
X12717435Y-14980439D01*
X13012673Y-15218534D02*
X13003149Y-15209010D01*
X13003149Y-15209010D02*
X12984101Y-15180439D01*
X12984101Y-15180439D02*
X12974578Y-15161391D01*
X12974578Y-15161391D02*
X12965054Y-15132820D01*
X12965054Y-15132820D02*
X12955530Y-15085201D01*
X12955530Y-15085201D02*
X12955530Y-15047106D01*
X12955530Y-15047106D02*
X12965054Y-14999487D01*
X12965054Y-14999487D02*
X12974578Y-14970915D01*
X12974578Y-14970915D02*
X12984101Y-14951868D01*
X12984101Y-14951868D02*
X13003149Y-14923296D01*
X13003149Y-14923296D02*
X13012673Y-14913772D01*
X13079339Y-14961391D02*
X13088863Y-14951868D01*
X13088863Y-14951868D02*
X13107911Y-14942344D01*
X13107911Y-14942344D02*
X13155530Y-14942344D01*
X13155530Y-14942344D02*
X13174578Y-14951868D01*
X13174578Y-14951868D02*
X13184101Y-14961391D01*
X13184101Y-14961391D02*
X13193625Y-14980439D01*
X13193625Y-14980439D02*
X13193625Y-14999487D01*
X13193625Y-14999487D02*
X13184101Y-15028058D01*
X13184101Y-15028058D02*
X13069816Y-15142344D01*
X13069816Y-15142344D02*
X13193625Y-15142344D01*
X13431720Y-15142344D02*
X13431720Y-14942344D01*
X13517435Y-15142344D02*
X13517435Y-15037582D01*
X13517435Y-15037582D02*
X13507911Y-15018534D01*
X13507911Y-15018534D02*
X13488863Y-15009010D01*
X13488863Y-15009010D02*
X13460292Y-15009010D01*
X13460292Y-15009010D02*
X13441244Y-15018534D01*
X13441244Y-15018534D02*
X13431720Y-15028058D01*
X13641244Y-15142344D02*
X13622197Y-15132820D01*
X13622197Y-15132820D02*
X13612673Y-15123296D01*
X13612673Y-15123296D02*
X13603149Y-15104248D01*
X13603149Y-15104248D02*
X13603149Y-15047106D01*
X13603149Y-15047106D02*
X13612673Y-15028058D01*
X13612673Y-15028058D02*
X13622197Y-15018534D01*
X13622197Y-15018534D02*
X13641244Y-15009010D01*
X13641244Y-15009010D02*
X13669816Y-15009010D01*
X13669816Y-15009010D02*
X13688863Y-15018534D01*
X13688863Y-15018534D02*
X13698387Y-15028058D01*
X13698387Y-15028058D02*
X13707911Y-15047106D01*
X13707911Y-15047106D02*
X13707911Y-15104248D01*
X13707911Y-15104248D02*
X13698387Y-15123296D01*
X13698387Y-15123296D02*
X13688863Y-15132820D01*
X13688863Y-15132820D02*
X13669816Y-15142344D01*
X13669816Y-15142344D02*
X13641244Y-15142344D01*
X13822197Y-15142344D02*
X13803149Y-15132820D01*
X13803149Y-15132820D02*
X13793625Y-15113772D01*
X13793625Y-15113772D02*
X13793625Y-14942344D01*
X13974578Y-15132820D02*
X13955530Y-15142344D01*
X13955530Y-15142344D02*
X13917435Y-15142344D01*
X13917435Y-15142344D02*
X13898387Y-15132820D01*
X13898387Y-15132820D02*
X13888863Y-15113772D01*
X13888863Y-15113772D02*
X13888863Y-15037582D01*
X13888863Y-15037582D02*
X13898387Y-15018534D01*
X13898387Y-15018534D02*
X13917435Y-15009010D01*
X13917435Y-15009010D02*
X13955530Y-15009010D01*
X13955530Y-15009010D02*
X13974578Y-15018534D01*
X13974578Y-15018534D02*
X13984101Y-15037582D01*
X13984101Y-15037582D02*
X13984101Y-15056629D01*
X13984101Y-15056629D02*
X13888863Y-15075677D01*
X14060292Y-15132820D02*
X14079340Y-15142344D01*
X14079340Y-15142344D02*
X14117435Y-15142344D01*
X14117435Y-15142344D02*
X14136482Y-15132820D01*
X14136482Y-15132820D02*
X14146006Y-15113772D01*
X14146006Y-15113772D02*
X14146006Y-15104248D01*
X14146006Y-15104248D02*
X14136482Y-15085201D01*
X14136482Y-15085201D02*
X14117435Y-15075677D01*
X14117435Y-15075677D02*
X14088863Y-15075677D01*
X14088863Y-15075677D02*
X14069816Y-15066153D01*
X14069816Y-15066153D02*
X14060292Y-15047106D01*
X14060292Y-15047106D02*
X14060292Y-15037582D01*
X14060292Y-15037582D02*
X14069816Y-15018534D01*
X14069816Y-15018534D02*
X14088863Y-15009010D01*
X14088863Y-15009010D02*
X14117435Y-15009010D01*
X14117435Y-15009010D02*
X14136482Y-15018534D01*
X14212673Y-15218534D02*
X14222197Y-15209010D01*
X14222197Y-15209010D02*
X14241244Y-15180439D01*
X14241244Y-15180439D02*
X14250768Y-15161391D01*
X14250768Y-15161391D02*
X14260292Y-15132820D01*
X14260292Y-15132820D02*
X14269816Y-15085201D01*
X14269816Y-15085201D02*
X14269816Y-15047106D01*
X14269816Y-15047106D02*
X14260292Y-14999487D01*
X14260292Y-14999487D02*
X14250768Y-14970915D01*
X14250768Y-14970915D02*
X14241244Y-14951868D01*
X14241244Y-14951868D02*
X14222197Y-14923296D01*
X14222197Y-14923296D02*
X14212673Y-14913772D01*
X14574578Y-15218534D02*
X14565054Y-15209010D01*
X14565054Y-15209010D02*
X14546006Y-15180439D01*
X14546006Y-15180439D02*
X14536482Y-15161391D01*
X14536482Y-15161391D02*
X14526959Y-15132820D01*
X14526959Y-15132820D02*
X14517435Y-15085201D01*
X14517435Y-15085201D02*
X14517435Y-15047106D01*
X14517435Y-15047106D02*
X14526959Y-14999487D01*
X14526959Y-14999487D02*
X14536482Y-14970915D01*
X14536482Y-14970915D02*
X14546006Y-14951868D01*
X14546006Y-14951868D02*
X14565054Y-14923296D01*
X14565054Y-14923296D02*
X14574578Y-14913772D01*
X14650768Y-15009010D02*
X14650768Y-15142344D01*
X14650768Y-15028058D02*
X14660292Y-15018534D01*
X14660292Y-15018534D02*
X14679340Y-15009010D01*
X14679340Y-15009010D02*
X14707911Y-15009010D01*
X14707911Y-15009010D02*
X14726959Y-15018534D01*
X14726959Y-15018534D02*
X14736482Y-15037582D01*
X14736482Y-15037582D02*
X14736482Y-15142344D01*
X14860292Y-15142344D02*
X14841244Y-15132820D01*
X14841244Y-15132820D02*
X14831721Y-15123296D01*
X14831721Y-15123296D02*
X14822197Y-15104248D01*
X14822197Y-15104248D02*
X14822197Y-15047106D01*
X14822197Y-15047106D02*
X14831721Y-15028058D01*
X14831721Y-15028058D02*
X14841244Y-15018534D01*
X14841244Y-15018534D02*
X14860292Y-15009010D01*
X14860292Y-15009010D02*
X14888863Y-15009010D01*
X14888863Y-15009010D02*
X14907911Y-15018534D01*
X14907911Y-15018534D02*
X14917435Y-15028058D01*
X14917435Y-15028058D02*
X14926959Y-15047106D01*
X14926959Y-15047106D02*
X14926959Y-15104248D01*
X14926959Y-15104248D02*
X14917435Y-15123296D01*
X14917435Y-15123296D02*
X14907911Y-15132820D01*
X14907911Y-15132820D02*
X14888863Y-15142344D01*
X14888863Y-15142344D02*
X14860292Y-15142344D01*
X14984102Y-15009010D02*
X15060292Y-15009010D01*
X15012673Y-14942344D02*
X15012673Y-15113772D01*
X15012673Y-15113772D02*
X15022197Y-15132820D01*
X15022197Y-15132820D02*
X15041244Y-15142344D01*
X15041244Y-15142344D02*
X15060292Y-15142344D01*
X15279340Y-15009010D02*
X15279340Y-15209010D01*
X15279340Y-15018534D02*
X15298387Y-15009010D01*
X15298387Y-15009010D02*
X15336483Y-15009010D01*
X15336483Y-15009010D02*
X15355530Y-15018534D01*
X15355530Y-15018534D02*
X15365054Y-15028058D01*
X15365054Y-15028058D02*
X15374578Y-15047106D01*
X15374578Y-15047106D02*
X15374578Y-15104248D01*
X15374578Y-15104248D02*
X15365054Y-15123296D01*
X15365054Y-15123296D02*
X15355530Y-15132820D01*
X15355530Y-15132820D02*
X15336483Y-15142344D01*
X15336483Y-15142344D02*
X15298387Y-15142344D01*
X15298387Y-15142344D02*
X15279340Y-15132820D01*
X15488863Y-15142344D02*
X15469816Y-15132820D01*
X15469816Y-15132820D02*
X15460292Y-15113772D01*
X15460292Y-15113772D02*
X15460292Y-14942344D01*
X15650768Y-15142344D02*
X15650768Y-15037582D01*
X15650768Y-15037582D02*
X15641244Y-15018534D01*
X15641244Y-15018534D02*
X15622197Y-15009010D01*
X15622197Y-15009010D02*
X15584102Y-15009010D01*
X15584102Y-15009010D02*
X15565054Y-15018534D01*
X15650768Y-15132820D02*
X15631721Y-15142344D01*
X15631721Y-15142344D02*
X15584102Y-15142344D01*
X15584102Y-15142344D02*
X15565054Y-15132820D01*
X15565054Y-15132820D02*
X15555530Y-15113772D01*
X15555530Y-15113772D02*
X15555530Y-15094725D01*
X15555530Y-15094725D02*
X15565054Y-15075677D01*
X15565054Y-15075677D02*
X15584102Y-15066153D01*
X15584102Y-15066153D02*
X15631721Y-15066153D01*
X15631721Y-15066153D02*
X15650768Y-15056629D01*
X15717435Y-15009010D02*
X15793625Y-15009010D01*
X15746006Y-14942344D02*
X15746006Y-15113772D01*
X15746006Y-15113772D02*
X15755530Y-15132820D01*
X15755530Y-15132820D02*
X15774578Y-15142344D01*
X15774578Y-15142344D02*
X15793625Y-15142344D01*
X15936483Y-15132820D02*
X15917435Y-15142344D01*
X15917435Y-15142344D02*
X15879340Y-15142344D01*
X15879340Y-15142344D02*
X15860292Y-15132820D01*
X15860292Y-15132820D02*
X15850768Y-15113772D01*
X15850768Y-15113772D02*
X15850768Y-15037582D01*
X15850768Y-15037582D02*
X15860292Y-15018534D01*
X15860292Y-15018534D02*
X15879340Y-15009010D01*
X15879340Y-15009010D02*
X15917435Y-15009010D01*
X15917435Y-15009010D02*
X15936483Y-15018534D01*
X15936483Y-15018534D02*
X15946006Y-15037582D01*
X15946006Y-15037582D02*
X15946006Y-15056629D01*
X15946006Y-15056629D02*
X15850768Y-15075677D01*
X16117435Y-15142344D02*
X16117435Y-14942344D01*
X16117435Y-15132820D02*
X16098387Y-15142344D01*
X16098387Y-15142344D02*
X16060292Y-15142344D01*
X16060292Y-15142344D02*
X16041244Y-15132820D01*
X16041244Y-15132820D02*
X16031721Y-15123296D01*
X16031721Y-15123296D02*
X16022197Y-15104248D01*
X16022197Y-15104248D02*
X16022197Y-15047106D01*
X16022197Y-15047106D02*
X16031721Y-15028058D01*
X16031721Y-15028058D02*
X16041244Y-15018534D01*
X16041244Y-15018534D02*
X16060292Y-15009010D01*
X16060292Y-15009010D02*
X16098387Y-15009010D01*
X16098387Y-15009010D02*
X16117435Y-15018534D01*
X16193625Y-15218534D02*
X16203149Y-15209010D01*
X16203149Y-15209010D02*
X16222197Y-15180439D01*
X16222197Y-15180439D02*
X16231721Y-15161391D01*
X16231721Y-15161391D02*
X16241244Y-15132820D01*
X16241244Y-15132820D02*
X16250768Y-15085201D01*
X16250768Y-15085201D02*
X16250768Y-15047106D01*
X16250768Y-15047106D02*
X16241244Y-14999487D01*
X16241244Y-14999487D02*
X16231721Y-14970915D01*
X16231721Y-14970915D02*
X16222197Y-14951868D01*
X16222197Y-14951868D02*
X16203149Y-14923296D01*
X16203149Y-14923296D02*
X16193625Y-14913772D01*
M02*
