%TF.GenerationSoftware,KiCad,Pcbnew,9.0.0*%
%TF.CreationDate,2025-04-22T12:37:31+01:00*%
%TF.ProjectId,FED3_v7.3,46454433-5f76-4372-9e33-2e6b69636164,rev?*%
%TF.SameCoordinates,Original*%
%TF.FileFunction,Legend,Bot*%
%TF.FilePolarity,Positive*%
%FSLAX46Y46*%
G04 Gerber Fmt 4.6, Leading zero omitted, Abs format (unit mm)*
G04 Created by KiCad (PCBNEW 9.0.0) date 2025-04-22 12:37:31*
%MOMM*%
%LPD*%
G01*
G04 APERTURE LIST*
%ADD10C,0.508000*%
%ADD11C,0.200000*%
%ADD12C,0.142240*%
%ADD13C,0.100000*%
%ADD14C,0.120000*%
%TA.AperFunction,Profile*%
%ADD15C,0.250000*%
%TD*%
G04 APERTURE END LIST*
D10*
X156413600Y-119843600D02*
X157048600Y-120478600D01*
X137363600Y-119843600D02*
X137998600Y-120478600D01*
X169113600Y-119843600D02*
X169748600Y-119843600D01*
X162763600Y-119843600D02*
X163398600Y-120478600D01*
X169113600Y-119843600D02*
X169748600Y-120478600D01*
X162763600Y-119843600D02*
X163398600Y-119843600D01*
X124663600Y-119843600D02*
X125298600Y-120478600D01*
X119291500Y-94735700D02*
X119291500Y-95370700D01*
X180251500Y-94735700D02*
X179616500Y-95370700D01*
X156413600Y-119843600D02*
X156413600Y-120478600D01*
X143713600Y-119843600D02*
X144348600Y-120478600D01*
X131013600Y-119843600D02*
X131013600Y-120478600D01*
X137363600Y-119843600D02*
X137363600Y-120478600D01*
X150063600Y-119843600D02*
X150698600Y-120478600D01*
X180251500Y-94735700D02*
X180251500Y-95370700D01*
X131013600Y-119843600D02*
X131648600Y-120478600D01*
X169113600Y-119843600D02*
X169113600Y-120478600D01*
X119291500Y-94735700D02*
X118656500Y-95370700D01*
X137363600Y-119843600D02*
X137998600Y-119843600D01*
X143713600Y-119843600D02*
X144348600Y-119843600D01*
X156413600Y-119843600D02*
X157048600Y-119843600D01*
X162763600Y-119843600D02*
X162763600Y-120478600D01*
X150063600Y-119843600D02*
X150063600Y-120478600D01*
X124663600Y-119843600D02*
X124663600Y-120478600D01*
X119291500Y-94735700D02*
X118656500Y-94735700D01*
X150063600Y-119843600D02*
X150698600Y-119843600D01*
X131013600Y-119843600D02*
X131648600Y-119843600D01*
X143713600Y-119843600D02*
X143713600Y-120478600D01*
X124663600Y-119843600D02*
X125298600Y-119843600D01*
X180251500Y-94735700D02*
X179616500Y-94735700D01*
D11*
X185905326Y-106692219D02*
X185905326Y-105692219D01*
X185905326Y-105692219D02*
X185667231Y-105692219D01*
X185667231Y-105692219D02*
X185524374Y-105739838D01*
X185524374Y-105739838D02*
X185429136Y-105835076D01*
X185429136Y-105835076D02*
X185381517Y-105930314D01*
X185381517Y-105930314D02*
X185333898Y-106120790D01*
X185333898Y-106120790D02*
X185333898Y-106263647D01*
X185333898Y-106263647D02*
X185381517Y-106454123D01*
X185381517Y-106454123D02*
X185429136Y-106549361D01*
X185429136Y-106549361D02*
X185524374Y-106644600D01*
X185524374Y-106644600D02*
X185667231Y-106692219D01*
X185667231Y-106692219D02*
X185905326Y-106692219D01*
X184476755Y-105692219D02*
X184667231Y-105692219D01*
X184667231Y-105692219D02*
X184762469Y-105739838D01*
X184762469Y-105739838D02*
X184810088Y-105787457D01*
X184810088Y-105787457D02*
X184905326Y-105930314D01*
X184905326Y-105930314D02*
X184952945Y-106120790D01*
X184952945Y-106120790D02*
X184952945Y-106501742D01*
X184952945Y-106501742D02*
X184905326Y-106596980D01*
X184905326Y-106596980D02*
X184857707Y-106644600D01*
X184857707Y-106644600D02*
X184762469Y-106692219D01*
X184762469Y-106692219D02*
X184571993Y-106692219D01*
X184571993Y-106692219D02*
X184476755Y-106644600D01*
X184476755Y-106644600D02*
X184429136Y-106596980D01*
X184429136Y-106596980D02*
X184381517Y-106501742D01*
X184381517Y-106501742D02*
X184381517Y-106263647D01*
X184381517Y-106263647D02*
X184429136Y-106168409D01*
X184429136Y-106168409D02*
X184476755Y-106120790D01*
X184476755Y-106120790D02*
X184571993Y-106073171D01*
X184571993Y-106073171D02*
X184762469Y-106073171D01*
X184762469Y-106073171D02*
X184857707Y-106120790D01*
X184857707Y-106120790D02*
X184905326Y-106168409D01*
X184905326Y-106168409D02*
X184952945Y-106263647D01*
X183191040Y-106692219D02*
X183191040Y-105692219D01*
X183191040Y-105692219D02*
X182810088Y-105692219D01*
X182810088Y-105692219D02*
X182714850Y-105739838D01*
X182714850Y-105739838D02*
X182667231Y-105787457D01*
X182667231Y-105787457D02*
X182619612Y-105882695D01*
X182619612Y-105882695D02*
X182619612Y-106025552D01*
X182619612Y-106025552D02*
X182667231Y-106120790D01*
X182667231Y-106120790D02*
X182714850Y-106168409D01*
X182714850Y-106168409D02*
X182810088Y-106216028D01*
X182810088Y-106216028D02*
X183191040Y-106216028D01*
X182191040Y-106692219D02*
X182191040Y-105692219D01*
X181191041Y-106692219D02*
X181762469Y-106692219D01*
X181476755Y-106692219D02*
X181476755Y-105692219D01*
X181476755Y-105692219D02*
X181571993Y-105835076D01*
X181571993Y-105835076D02*
X181667231Y-105930314D01*
X181667231Y-105930314D02*
X181762469Y-105977933D01*
X143798183Y-112592219D02*
X143226755Y-112592219D01*
X143512469Y-113592219D02*
X143512469Y-112592219D01*
X142988659Y-112592219D02*
X142321993Y-113592219D01*
X142321993Y-112592219D02*
X142988659Y-113592219D01*
X141179135Y-113592219D02*
X141179135Y-112592219D01*
X141179135Y-112592219D02*
X140798183Y-112592219D01*
X140798183Y-112592219D02*
X140702945Y-112639838D01*
X140702945Y-112639838D02*
X140655326Y-112687457D01*
X140655326Y-112687457D02*
X140607707Y-112782695D01*
X140607707Y-112782695D02*
X140607707Y-112925552D01*
X140607707Y-112925552D02*
X140655326Y-113020790D01*
X140655326Y-113020790D02*
X140702945Y-113068409D01*
X140702945Y-113068409D02*
X140798183Y-113116028D01*
X140798183Y-113116028D02*
X141179135Y-113116028D01*
X140179135Y-113592219D02*
X140179135Y-112592219D01*
X139750564Y-112687457D02*
X139702945Y-112639838D01*
X139702945Y-112639838D02*
X139607707Y-112592219D01*
X139607707Y-112592219D02*
X139369612Y-112592219D01*
X139369612Y-112592219D02*
X139274374Y-112639838D01*
X139274374Y-112639838D02*
X139226755Y-112687457D01*
X139226755Y-112687457D02*
X139179136Y-112782695D01*
X139179136Y-112782695D02*
X139179136Y-112877933D01*
X139179136Y-112877933D02*
X139226755Y-113020790D01*
X139226755Y-113020790D02*
X139798183Y-113592219D01*
X139798183Y-113592219D02*
X139179136Y-113592219D01*
X113405326Y-106792219D02*
X113405326Y-105792219D01*
X113405326Y-105792219D02*
X113167231Y-105792219D01*
X113167231Y-105792219D02*
X113024374Y-105839838D01*
X113024374Y-105839838D02*
X112929136Y-105935076D01*
X112929136Y-105935076D02*
X112881517Y-106030314D01*
X112881517Y-106030314D02*
X112833898Y-106220790D01*
X112833898Y-106220790D02*
X112833898Y-106363647D01*
X112833898Y-106363647D02*
X112881517Y-106554123D01*
X112881517Y-106554123D02*
X112929136Y-106649361D01*
X112929136Y-106649361D02*
X113024374Y-106744600D01*
X113024374Y-106744600D02*
X113167231Y-106792219D01*
X113167231Y-106792219D02*
X113405326Y-106792219D01*
X111929136Y-105792219D02*
X112405326Y-105792219D01*
X112405326Y-105792219D02*
X112452945Y-106268409D01*
X112452945Y-106268409D02*
X112405326Y-106220790D01*
X112405326Y-106220790D02*
X112310088Y-106173171D01*
X112310088Y-106173171D02*
X112071993Y-106173171D01*
X112071993Y-106173171D02*
X111976755Y-106220790D01*
X111976755Y-106220790D02*
X111929136Y-106268409D01*
X111929136Y-106268409D02*
X111881517Y-106363647D01*
X111881517Y-106363647D02*
X111881517Y-106601742D01*
X111881517Y-106601742D02*
X111929136Y-106696980D01*
X111929136Y-106696980D02*
X111976755Y-106744600D01*
X111976755Y-106744600D02*
X112071993Y-106792219D01*
X112071993Y-106792219D02*
X112310088Y-106792219D01*
X112310088Y-106792219D02*
X112405326Y-106744600D01*
X112405326Y-106744600D02*
X112452945Y-106696980D01*
X110691040Y-106792219D02*
X110691040Y-105792219D01*
X110691040Y-105792219D02*
X110310088Y-105792219D01*
X110310088Y-105792219D02*
X110214850Y-105839838D01*
X110214850Y-105839838D02*
X110167231Y-105887457D01*
X110167231Y-105887457D02*
X110119612Y-105982695D01*
X110119612Y-105982695D02*
X110119612Y-106125552D01*
X110119612Y-106125552D02*
X110167231Y-106220790D01*
X110167231Y-106220790D02*
X110214850Y-106268409D01*
X110214850Y-106268409D02*
X110310088Y-106316028D01*
X110310088Y-106316028D02*
X110691040Y-106316028D01*
X109691040Y-106792219D02*
X109691040Y-105792219D01*
X109310088Y-105792219D02*
X108691041Y-105792219D01*
X108691041Y-105792219D02*
X109024374Y-106173171D01*
X109024374Y-106173171D02*
X108881517Y-106173171D01*
X108881517Y-106173171D02*
X108786279Y-106220790D01*
X108786279Y-106220790D02*
X108738660Y-106268409D01*
X108738660Y-106268409D02*
X108691041Y-106363647D01*
X108691041Y-106363647D02*
X108691041Y-106601742D01*
X108691041Y-106601742D02*
X108738660Y-106696980D01*
X108738660Y-106696980D02*
X108786279Y-106744600D01*
X108786279Y-106744600D02*
X108881517Y-106792219D01*
X108881517Y-106792219D02*
X109167231Y-106792219D01*
X109167231Y-106792219D02*
X109262469Y-106744600D01*
X109262469Y-106744600D02*
X109310088Y-106696980D01*
D12*
X144630042Y-127773310D02*
X144318468Y-128863817D01*
X144318468Y-128863817D02*
X144006895Y-128084884D01*
X144006895Y-128084884D02*
X143695322Y-128863817D01*
X143695322Y-128863817D02*
X143383748Y-127773310D01*
X142916389Y-127773310D02*
X142604815Y-128863817D01*
X142604815Y-128863817D02*
X142293242Y-128084884D01*
X142293242Y-128084884D02*
X141981669Y-128863817D01*
X141981669Y-128863817D02*
X141670095Y-127773310D01*
X141202736Y-127773310D02*
X140891162Y-128863817D01*
X140891162Y-128863817D02*
X140579589Y-128084884D01*
X140579589Y-128084884D02*
X140268016Y-128863817D01*
X140268016Y-128863817D02*
X139956442Y-127773310D01*
X139333296Y-128708030D02*
X139255403Y-128785924D01*
X139255403Y-128785924D02*
X139333296Y-128863817D01*
X139333296Y-128863817D02*
X139411189Y-128785924D01*
X139411189Y-128785924D02*
X139333296Y-128708030D01*
X139333296Y-128708030D02*
X139333296Y-128863817D01*
X138554363Y-128863817D02*
X138554363Y-127228057D01*
X138398576Y-128240670D02*
X137931216Y-128863817D01*
X137931216Y-127773310D02*
X138554363Y-128396457D01*
X137230176Y-128863817D02*
X137230176Y-127773310D01*
X137230176Y-128084884D02*
X137152283Y-127929097D01*
X137152283Y-127929097D02*
X137074389Y-127851204D01*
X137074389Y-127851204D02*
X136918603Y-127773310D01*
X136918603Y-127773310D02*
X136762816Y-127773310D01*
X135516523Y-128863817D02*
X135516523Y-128006990D01*
X135516523Y-128006990D02*
X135594416Y-127851204D01*
X135594416Y-127851204D02*
X135750203Y-127773310D01*
X135750203Y-127773310D02*
X136061776Y-127773310D01*
X136061776Y-127773310D02*
X136217563Y-127851204D01*
X135516523Y-128785924D02*
X135672310Y-128863817D01*
X135672310Y-128863817D02*
X136061776Y-128863817D01*
X136061776Y-128863817D02*
X136217563Y-128785924D01*
X136217563Y-128785924D02*
X136295456Y-128630137D01*
X136295456Y-128630137D02*
X136295456Y-128474350D01*
X136295456Y-128474350D02*
X136217563Y-128318564D01*
X136217563Y-128318564D02*
X136061776Y-128240670D01*
X136061776Y-128240670D02*
X135672310Y-128240670D01*
X135672310Y-128240670D02*
X135516523Y-128162777D01*
X134893377Y-127773310D02*
X134503910Y-128863817D01*
X134503910Y-128863817D02*
X134114443Y-127773310D01*
X133491297Y-128863817D02*
X133491297Y-127773310D01*
X133491297Y-127228057D02*
X133569190Y-127305950D01*
X133569190Y-127305950D02*
X133491297Y-127383844D01*
X133491297Y-127383844D02*
X133413404Y-127305950D01*
X133413404Y-127305950D02*
X133491297Y-127228057D01*
X133491297Y-127228057D02*
X133491297Y-127383844D01*
X132946044Y-127773310D02*
X132322897Y-127773310D01*
X132712364Y-127228057D02*
X132712364Y-128630137D01*
X132712364Y-128630137D02*
X132634471Y-128785924D01*
X132634471Y-128785924D02*
X132478684Y-128863817D01*
X132478684Y-128863817D02*
X132322897Y-128863817D01*
X131933431Y-127773310D02*
X131076604Y-127773310D01*
X131076604Y-127773310D02*
X131933431Y-128863817D01*
X131933431Y-128863817D02*
X131076604Y-128863817D01*
X130219777Y-128863817D02*
X130375564Y-128785924D01*
X130375564Y-128785924D02*
X130453457Y-128630137D01*
X130453457Y-128630137D02*
X130453457Y-127228057D01*
X128895590Y-128863817D02*
X128895590Y-128006990D01*
X128895590Y-128006990D02*
X128973483Y-127851204D01*
X128973483Y-127851204D02*
X129129270Y-127773310D01*
X129129270Y-127773310D02*
X129440843Y-127773310D01*
X129440843Y-127773310D02*
X129596630Y-127851204D01*
X128895590Y-128785924D02*
X129051377Y-128863817D01*
X129051377Y-128863817D02*
X129440843Y-128863817D01*
X129440843Y-128863817D02*
X129596630Y-128785924D01*
X129596630Y-128785924D02*
X129674523Y-128630137D01*
X129674523Y-128630137D02*
X129674523Y-128474350D01*
X129674523Y-128474350D02*
X129596630Y-128318564D01*
X129596630Y-128318564D02*
X129440843Y-128240670D01*
X129440843Y-128240670D02*
X129051377Y-128240670D01*
X129051377Y-128240670D02*
X128895590Y-128162777D01*
X128116657Y-128863817D02*
X128116657Y-127228057D01*
X128116657Y-127851204D02*
X127960870Y-127773310D01*
X127960870Y-127773310D02*
X127649297Y-127773310D01*
X127649297Y-127773310D02*
X127493510Y-127851204D01*
X127493510Y-127851204D02*
X127415617Y-127929097D01*
X127415617Y-127929097D02*
X127337724Y-128084884D01*
X127337724Y-128084884D02*
X127337724Y-128552244D01*
X127337724Y-128552244D02*
X127415617Y-128708030D01*
X127415617Y-128708030D02*
X127493510Y-128785924D01*
X127493510Y-128785924D02*
X127649297Y-128863817D01*
X127649297Y-128863817D02*
X127960870Y-128863817D01*
X127960870Y-128863817D02*
X128116657Y-128785924D01*
X126636684Y-128708030D02*
X126558791Y-128785924D01*
X126558791Y-128785924D02*
X126636684Y-128863817D01*
X126636684Y-128863817D02*
X126714577Y-128785924D01*
X126714577Y-128785924D02*
X126636684Y-128708030D01*
X126636684Y-128708030D02*
X126636684Y-128863817D01*
X125156711Y-128785924D02*
X125312498Y-128863817D01*
X125312498Y-128863817D02*
X125624071Y-128863817D01*
X125624071Y-128863817D02*
X125779858Y-128785924D01*
X125779858Y-128785924D02*
X125857751Y-128708030D01*
X125857751Y-128708030D02*
X125935644Y-128552244D01*
X125935644Y-128552244D02*
X125935644Y-128084884D01*
X125935644Y-128084884D02*
X125857751Y-127929097D01*
X125857751Y-127929097D02*
X125779858Y-127851204D01*
X125779858Y-127851204D02*
X125624071Y-127773310D01*
X125624071Y-127773310D02*
X125312498Y-127773310D01*
X125312498Y-127773310D02*
X125156711Y-127851204D01*
X124221991Y-128863817D02*
X124377778Y-128785924D01*
X124377778Y-128785924D02*
X124455671Y-128708030D01*
X124455671Y-128708030D02*
X124533564Y-128552244D01*
X124533564Y-128552244D02*
X124533564Y-128084884D01*
X124533564Y-128084884D02*
X124455671Y-127929097D01*
X124455671Y-127929097D02*
X124377778Y-127851204D01*
X124377778Y-127851204D02*
X124221991Y-127773310D01*
X124221991Y-127773310D02*
X123988311Y-127773310D01*
X123988311Y-127773310D02*
X123832524Y-127851204D01*
X123832524Y-127851204D02*
X123754631Y-127929097D01*
X123754631Y-127929097D02*
X123676738Y-128084884D01*
X123676738Y-128084884D02*
X123676738Y-128552244D01*
X123676738Y-128552244D02*
X123754631Y-128708030D01*
X123754631Y-128708030D02*
X123832524Y-128785924D01*
X123832524Y-128785924D02*
X123988311Y-128863817D01*
X123988311Y-128863817D02*
X124221991Y-128863817D01*
X122975698Y-128863817D02*
X122975698Y-127773310D01*
X122975698Y-127929097D02*
X122897805Y-127851204D01*
X122897805Y-127851204D02*
X122742018Y-127773310D01*
X122742018Y-127773310D02*
X122508338Y-127773310D01*
X122508338Y-127773310D02*
X122352551Y-127851204D01*
X122352551Y-127851204D02*
X122274658Y-128006990D01*
X122274658Y-128006990D02*
X122274658Y-128863817D01*
X122274658Y-128006990D02*
X122196765Y-127851204D01*
X122196765Y-127851204D02*
X122040978Y-127773310D01*
X122040978Y-127773310D02*
X121807298Y-127773310D01*
X121807298Y-127773310D02*
X121651511Y-127851204D01*
X121651511Y-127851204D02*
X121573618Y-128006990D01*
X121573618Y-128006990D02*
X121573618Y-128863817D01*
D11*
X179311340Y-93162219D02*
X179787530Y-93162219D01*
X179787530Y-93162219D02*
X179787530Y-92162219D01*
X178978006Y-92638409D02*
X178644673Y-92638409D01*
X178501816Y-93162219D02*
X178978006Y-93162219D01*
X178978006Y-93162219D02*
X178978006Y-92162219D01*
X178978006Y-92162219D02*
X178501816Y-92162219D01*
X178073244Y-93162219D02*
X178073244Y-92162219D01*
X178073244Y-92162219D02*
X177835149Y-92162219D01*
X177835149Y-92162219D02*
X177692292Y-92209838D01*
X177692292Y-92209838D02*
X177597054Y-92305076D01*
X177597054Y-92305076D02*
X177549435Y-92400314D01*
X177549435Y-92400314D02*
X177501816Y-92590790D01*
X177501816Y-92590790D02*
X177501816Y-92733647D01*
X177501816Y-92733647D02*
X177549435Y-92924123D01*
X177549435Y-92924123D02*
X177597054Y-93019361D01*
X177597054Y-93019361D02*
X177692292Y-93114600D01*
X177692292Y-93114600D02*
X177835149Y-93162219D01*
X177835149Y-93162219D02*
X178073244Y-93162219D01*
X176549435Y-93162219D02*
X177120863Y-93162219D01*
X176835149Y-93162219D02*
X176835149Y-92162219D01*
X176835149Y-92162219D02*
X176930387Y-92305076D01*
X176930387Y-92305076D02*
X177025625Y-92400314D01*
X177025625Y-92400314D02*
X177120863Y-92447933D01*
X175930387Y-92162219D02*
X175835149Y-92162219D01*
X175835149Y-92162219D02*
X175739911Y-92209838D01*
X175739911Y-92209838D02*
X175692292Y-92257457D01*
X175692292Y-92257457D02*
X175644673Y-92352695D01*
X175644673Y-92352695D02*
X175597054Y-92543171D01*
X175597054Y-92543171D02*
X175597054Y-92781266D01*
X175597054Y-92781266D02*
X175644673Y-92971742D01*
X175644673Y-92971742D02*
X175692292Y-93066980D01*
X175692292Y-93066980D02*
X175739911Y-93114600D01*
X175739911Y-93114600D02*
X175835149Y-93162219D01*
X175835149Y-93162219D02*
X175930387Y-93162219D01*
X175930387Y-93162219D02*
X176025625Y-93114600D01*
X176025625Y-93114600D02*
X176073244Y-93066980D01*
X176073244Y-93066980D02*
X176120863Y-92971742D01*
X176120863Y-92971742D02*
X176168482Y-92781266D01*
X176168482Y-92781266D02*
X176168482Y-92543171D01*
X176168482Y-92543171D02*
X176120863Y-92352695D01*
X176120863Y-92352695D02*
X176073244Y-92257457D01*
X176073244Y-92257457D02*
X176025625Y-92209838D01*
X176025625Y-92209838D02*
X175930387Y-92162219D01*
X152944359Y-116397719D02*
X153420549Y-116397719D01*
X153420549Y-116397719D02*
X153420549Y-115397719D01*
X152611025Y-115873909D02*
X152277692Y-115873909D01*
X152134835Y-116397719D02*
X152611025Y-116397719D01*
X152611025Y-116397719D02*
X152611025Y-115397719D01*
X152611025Y-115397719D02*
X152134835Y-115397719D01*
X151706263Y-116397719D02*
X151706263Y-115397719D01*
X151706263Y-115397719D02*
X151468168Y-115397719D01*
X151468168Y-115397719D02*
X151325311Y-115445338D01*
X151325311Y-115445338D02*
X151230073Y-115540576D01*
X151230073Y-115540576D02*
X151182454Y-115635814D01*
X151182454Y-115635814D02*
X151134835Y-115826290D01*
X151134835Y-115826290D02*
X151134835Y-115969147D01*
X151134835Y-115969147D02*
X151182454Y-116159623D01*
X151182454Y-116159623D02*
X151230073Y-116254861D01*
X151230073Y-116254861D02*
X151325311Y-116350100D01*
X151325311Y-116350100D02*
X151468168Y-116397719D01*
X151468168Y-116397719D02*
X151706263Y-116397719D01*
X150277692Y-115731052D02*
X150277692Y-116397719D01*
X150515787Y-115350100D02*
X150753882Y-116064385D01*
X150753882Y-116064385D02*
X150134835Y-116064385D01*
X199038720Y-126539600D02*
X198895863Y-126587219D01*
X198895863Y-126587219D02*
X198657768Y-126587219D01*
X198657768Y-126587219D02*
X198562530Y-126539600D01*
X198562530Y-126539600D02*
X198514911Y-126491980D01*
X198514911Y-126491980D02*
X198467292Y-126396742D01*
X198467292Y-126396742D02*
X198467292Y-126301504D01*
X198467292Y-126301504D02*
X198514911Y-126206266D01*
X198514911Y-126206266D02*
X198562530Y-126158647D01*
X198562530Y-126158647D02*
X198657768Y-126111028D01*
X198657768Y-126111028D02*
X198848244Y-126063409D01*
X198848244Y-126063409D02*
X198943482Y-126015790D01*
X198943482Y-126015790D02*
X198991101Y-125968171D01*
X198991101Y-125968171D02*
X199038720Y-125872933D01*
X199038720Y-125872933D02*
X199038720Y-125777695D01*
X199038720Y-125777695D02*
X198991101Y-125682457D01*
X198991101Y-125682457D02*
X198943482Y-125634838D01*
X198943482Y-125634838D02*
X198848244Y-125587219D01*
X198848244Y-125587219D02*
X198610149Y-125587219D01*
X198610149Y-125587219D02*
X198467292Y-125634838D01*
X198133958Y-125587219D02*
X197895863Y-126587219D01*
X197895863Y-126587219D02*
X197705387Y-125872933D01*
X197705387Y-125872933D02*
X197514911Y-126587219D01*
X197514911Y-126587219D02*
X197276816Y-125587219D01*
X196372054Y-126587219D02*
X196943482Y-126587219D01*
X196657768Y-126587219D02*
X196657768Y-125587219D01*
X196657768Y-125587219D02*
X196753006Y-125730076D01*
X196753006Y-125730076D02*
X196848244Y-125825314D01*
X196848244Y-125825314D02*
X196943482Y-125872933D01*
X118258959Y-92962219D02*
X118735149Y-92962219D01*
X118735149Y-92962219D02*
X118735149Y-91962219D01*
X117925625Y-92438409D02*
X117592292Y-92438409D01*
X117449435Y-92962219D02*
X117925625Y-92962219D01*
X117925625Y-92962219D02*
X117925625Y-91962219D01*
X117925625Y-91962219D02*
X117449435Y-91962219D01*
X117020863Y-92962219D02*
X117020863Y-91962219D01*
X117020863Y-91962219D02*
X116782768Y-91962219D01*
X116782768Y-91962219D02*
X116639911Y-92009838D01*
X116639911Y-92009838D02*
X116544673Y-92105076D01*
X116544673Y-92105076D02*
X116497054Y-92200314D01*
X116497054Y-92200314D02*
X116449435Y-92390790D01*
X116449435Y-92390790D02*
X116449435Y-92533647D01*
X116449435Y-92533647D02*
X116497054Y-92724123D01*
X116497054Y-92724123D02*
X116544673Y-92819361D01*
X116544673Y-92819361D02*
X116639911Y-92914600D01*
X116639911Y-92914600D02*
X116782768Y-92962219D01*
X116782768Y-92962219D02*
X117020863Y-92962219D01*
X115973244Y-92962219D02*
X115782768Y-92962219D01*
X115782768Y-92962219D02*
X115687530Y-92914600D01*
X115687530Y-92914600D02*
X115639911Y-92866980D01*
X115639911Y-92866980D02*
X115544673Y-92724123D01*
X115544673Y-92724123D02*
X115497054Y-92533647D01*
X115497054Y-92533647D02*
X115497054Y-92152695D01*
X115497054Y-92152695D02*
X115544673Y-92057457D01*
X115544673Y-92057457D02*
X115592292Y-92009838D01*
X115592292Y-92009838D02*
X115687530Y-91962219D01*
X115687530Y-91962219D02*
X115878006Y-91962219D01*
X115878006Y-91962219D02*
X115973244Y-92009838D01*
X115973244Y-92009838D02*
X116020863Y-92057457D01*
X116020863Y-92057457D02*
X116068482Y-92152695D01*
X116068482Y-92152695D02*
X116068482Y-92390790D01*
X116068482Y-92390790D02*
X116020863Y-92486028D01*
X116020863Y-92486028D02*
X115973244Y-92533647D01*
X115973244Y-92533647D02*
X115878006Y-92581266D01*
X115878006Y-92581266D02*
X115687530Y-92581266D01*
X115687530Y-92581266D02*
X115592292Y-92533647D01*
X115592292Y-92533647D02*
X115544673Y-92486028D01*
X115544673Y-92486028D02*
X115497054Y-92390790D01*
X127544359Y-116270719D02*
X128020549Y-116270719D01*
X128020549Y-116270719D02*
X128020549Y-115270719D01*
X127211025Y-115746909D02*
X126877692Y-115746909D01*
X126734835Y-116270719D02*
X127211025Y-116270719D01*
X127211025Y-116270719D02*
X127211025Y-115270719D01*
X127211025Y-115270719D02*
X126734835Y-115270719D01*
X126306263Y-116270719D02*
X126306263Y-115270719D01*
X126306263Y-115270719D02*
X126068168Y-115270719D01*
X126068168Y-115270719D02*
X125925311Y-115318338D01*
X125925311Y-115318338D02*
X125830073Y-115413576D01*
X125830073Y-115413576D02*
X125782454Y-115508814D01*
X125782454Y-115508814D02*
X125734835Y-115699290D01*
X125734835Y-115699290D02*
X125734835Y-115842147D01*
X125734835Y-115842147D02*
X125782454Y-116032623D01*
X125782454Y-116032623D02*
X125830073Y-116127861D01*
X125830073Y-116127861D02*
X125925311Y-116223100D01*
X125925311Y-116223100D02*
X126068168Y-116270719D01*
X126068168Y-116270719D02*
X126306263Y-116270719D01*
X125163406Y-115699290D02*
X125258644Y-115651671D01*
X125258644Y-115651671D02*
X125306263Y-115604052D01*
X125306263Y-115604052D02*
X125353882Y-115508814D01*
X125353882Y-115508814D02*
X125353882Y-115461195D01*
X125353882Y-115461195D02*
X125306263Y-115365957D01*
X125306263Y-115365957D02*
X125258644Y-115318338D01*
X125258644Y-115318338D02*
X125163406Y-115270719D01*
X125163406Y-115270719D02*
X124972930Y-115270719D01*
X124972930Y-115270719D02*
X124877692Y-115318338D01*
X124877692Y-115318338D02*
X124830073Y-115365957D01*
X124830073Y-115365957D02*
X124782454Y-115461195D01*
X124782454Y-115461195D02*
X124782454Y-115508814D01*
X124782454Y-115508814D02*
X124830073Y-115604052D01*
X124830073Y-115604052D02*
X124877692Y-115651671D01*
X124877692Y-115651671D02*
X124972930Y-115699290D01*
X124972930Y-115699290D02*
X125163406Y-115699290D01*
X125163406Y-115699290D02*
X125258644Y-115746909D01*
X125258644Y-115746909D02*
X125306263Y-115794528D01*
X125306263Y-115794528D02*
X125353882Y-115889766D01*
X125353882Y-115889766D02*
X125353882Y-116080242D01*
X125353882Y-116080242D02*
X125306263Y-116175480D01*
X125306263Y-116175480D02*
X125258644Y-116223100D01*
X125258644Y-116223100D02*
X125163406Y-116270719D01*
X125163406Y-116270719D02*
X124972930Y-116270719D01*
X124972930Y-116270719D02*
X124877692Y-116223100D01*
X124877692Y-116223100D02*
X124830073Y-116175480D01*
X124830073Y-116175480D02*
X124782454Y-116080242D01*
X124782454Y-116080242D02*
X124782454Y-115889766D01*
X124782454Y-115889766D02*
X124830073Y-115794528D01*
X124830073Y-115794528D02*
X124877692Y-115746909D01*
X124877692Y-115746909D02*
X124972930Y-115699290D01*
X159294359Y-116270719D02*
X159770549Y-116270719D01*
X159770549Y-116270719D02*
X159770549Y-115270719D01*
X158961025Y-115746909D02*
X158627692Y-115746909D01*
X158484835Y-116270719D02*
X158961025Y-116270719D01*
X158961025Y-116270719D02*
X158961025Y-115270719D01*
X158961025Y-115270719D02*
X158484835Y-115270719D01*
X158056263Y-116270719D02*
X158056263Y-115270719D01*
X158056263Y-115270719D02*
X157818168Y-115270719D01*
X157818168Y-115270719D02*
X157675311Y-115318338D01*
X157675311Y-115318338D02*
X157580073Y-115413576D01*
X157580073Y-115413576D02*
X157532454Y-115508814D01*
X157532454Y-115508814D02*
X157484835Y-115699290D01*
X157484835Y-115699290D02*
X157484835Y-115842147D01*
X157484835Y-115842147D02*
X157532454Y-116032623D01*
X157532454Y-116032623D02*
X157580073Y-116127861D01*
X157580073Y-116127861D02*
X157675311Y-116223100D01*
X157675311Y-116223100D02*
X157818168Y-116270719D01*
X157818168Y-116270719D02*
X158056263Y-116270719D01*
X157151501Y-115270719D02*
X156532454Y-115270719D01*
X156532454Y-115270719D02*
X156865787Y-115651671D01*
X156865787Y-115651671D02*
X156722930Y-115651671D01*
X156722930Y-115651671D02*
X156627692Y-115699290D01*
X156627692Y-115699290D02*
X156580073Y-115746909D01*
X156580073Y-115746909D02*
X156532454Y-115842147D01*
X156532454Y-115842147D02*
X156532454Y-116080242D01*
X156532454Y-116080242D02*
X156580073Y-116175480D01*
X156580073Y-116175480D02*
X156627692Y-116223100D01*
X156627692Y-116223100D02*
X156722930Y-116270719D01*
X156722930Y-116270719D02*
X157008644Y-116270719D01*
X157008644Y-116270719D02*
X157103882Y-116223100D01*
X157103882Y-116223100D02*
X157151501Y-116175480D01*
X171994359Y-116270719D02*
X172470549Y-116270719D01*
X172470549Y-116270719D02*
X172470549Y-115270719D01*
X171661025Y-115746909D02*
X171327692Y-115746909D01*
X171184835Y-116270719D02*
X171661025Y-116270719D01*
X171661025Y-116270719D02*
X171661025Y-115270719D01*
X171661025Y-115270719D02*
X171184835Y-115270719D01*
X170756263Y-116270719D02*
X170756263Y-115270719D01*
X170756263Y-115270719D02*
X170518168Y-115270719D01*
X170518168Y-115270719D02*
X170375311Y-115318338D01*
X170375311Y-115318338D02*
X170280073Y-115413576D01*
X170280073Y-115413576D02*
X170232454Y-115508814D01*
X170232454Y-115508814D02*
X170184835Y-115699290D01*
X170184835Y-115699290D02*
X170184835Y-115842147D01*
X170184835Y-115842147D02*
X170232454Y-116032623D01*
X170232454Y-116032623D02*
X170280073Y-116127861D01*
X170280073Y-116127861D02*
X170375311Y-116223100D01*
X170375311Y-116223100D02*
X170518168Y-116270719D01*
X170518168Y-116270719D02*
X170756263Y-116270719D01*
X169232454Y-116270719D02*
X169803882Y-116270719D01*
X169518168Y-116270719D02*
X169518168Y-115270719D01*
X169518168Y-115270719D02*
X169613406Y-115413576D01*
X169613406Y-115413576D02*
X169708644Y-115508814D01*
X169708644Y-115508814D02*
X169803882Y-115556433D01*
X165644359Y-116270719D02*
X166120549Y-116270719D01*
X166120549Y-116270719D02*
X166120549Y-115270719D01*
X165311025Y-115746909D02*
X164977692Y-115746909D01*
X164834835Y-116270719D02*
X165311025Y-116270719D01*
X165311025Y-116270719D02*
X165311025Y-115270719D01*
X165311025Y-115270719D02*
X164834835Y-115270719D01*
X164406263Y-116270719D02*
X164406263Y-115270719D01*
X164406263Y-115270719D02*
X164168168Y-115270719D01*
X164168168Y-115270719D02*
X164025311Y-115318338D01*
X164025311Y-115318338D02*
X163930073Y-115413576D01*
X163930073Y-115413576D02*
X163882454Y-115508814D01*
X163882454Y-115508814D02*
X163834835Y-115699290D01*
X163834835Y-115699290D02*
X163834835Y-115842147D01*
X163834835Y-115842147D02*
X163882454Y-116032623D01*
X163882454Y-116032623D02*
X163930073Y-116127861D01*
X163930073Y-116127861D02*
X164025311Y-116223100D01*
X164025311Y-116223100D02*
X164168168Y-116270719D01*
X164168168Y-116270719D02*
X164406263Y-116270719D01*
X163453882Y-115365957D02*
X163406263Y-115318338D01*
X163406263Y-115318338D02*
X163311025Y-115270719D01*
X163311025Y-115270719D02*
X163072930Y-115270719D01*
X163072930Y-115270719D02*
X162977692Y-115318338D01*
X162977692Y-115318338D02*
X162930073Y-115365957D01*
X162930073Y-115365957D02*
X162882454Y-115461195D01*
X162882454Y-115461195D02*
X162882454Y-115556433D01*
X162882454Y-115556433D02*
X162930073Y-115699290D01*
X162930073Y-115699290D02*
X163501501Y-116270719D01*
X163501501Y-116270719D02*
X162882454Y-116270719D01*
X140244359Y-116270719D02*
X140720549Y-116270719D01*
X140720549Y-116270719D02*
X140720549Y-115270719D01*
X139911025Y-115746909D02*
X139577692Y-115746909D01*
X139434835Y-116270719D02*
X139911025Y-116270719D01*
X139911025Y-116270719D02*
X139911025Y-115270719D01*
X139911025Y-115270719D02*
X139434835Y-115270719D01*
X139006263Y-116270719D02*
X139006263Y-115270719D01*
X139006263Y-115270719D02*
X138768168Y-115270719D01*
X138768168Y-115270719D02*
X138625311Y-115318338D01*
X138625311Y-115318338D02*
X138530073Y-115413576D01*
X138530073Y-115413576D02*
X138482454Y-115508814D01*
X138482454Y-115508814D02*
X138434835Y-115699290D01*
X138434835Y-115699290D02*
X138434835Y-115842147D01*
X138434835Y-115842147D02*
X138482454Y-116032623D01*
X138482454Y-116032623D02*
X138530073Y-116127861D01*
X138530073Y-116127861D02*
X138625311Y-116223100D01*
X138625311Y-116223100D02*
X138768168Y-116270719D01*
X138768168Y-116270719D02*
X139006263Y-116270719D01*
X137577692Y-115270719D02*
X137768168Y-115270719D01*
X137768168Y-115270719D02*
X137863406Y-115318338D01*
X137863406Y-115318338D02*
X137911025Y-115365957D01*
X137911025Y-115365957D02*
X138006263Y-115508814D01*
X138006263Y-115508814D02*
X138053882Y-115699290D01*
X138053882Y-115699290D02*
X138053882Y-116080242D01*
X138053882Y-116080242D02*
X138006263Y-116175480D01*
X138006263Y-116175480D02*
X137958644Y-116223100D01*
X137958644Y-116223100D02*
X137863406Y-116270719D01*
X137863406Y-116270719D02*
X137672930Y-116270719D01*
X137672930Y-116270719D02*
X137577692Y-116223100D01*
X137577692Y-116223100D02*
X137530073Y-116175480D01*
X137530073Y-116175480D02*
X137482454Y-116080242D01*
X137482454Y-116080242D02*
X137482454Y-115842147D01*
X137482454Y-115842147D02*
X137530073Y-115746909D01*
X137530073Y-115746909D02*
X137577692Y-115699290D01*
X137577692Y-115699290D02*
X137672930Y-115651671D01*
X137672930Y-115651671D02*
X137863406Y-115651671D01*
X137863406Y-115651671D02*
X137958644Y-115699290D01*
X137958644Y-115699290D02*
X138006263Y-115746909D01*
X138006263Y-115746909D02*
X138053882Y-115842147D01*
X133894359Y-116397719D02*
X134370549Y-116397719D01*
X134370549Y-116397719D02*
X134370549Y-115397719D01*
X133561025Y-115873909D02*
X133227692Y-115873909D01*
X133084835Y-116397719D02*
X133561025Y-116397719D01*
X133561025Y-116397719D02*
X133561025Y-115397719D01*
X133561025Y-115397719D02*
X133084835Y-115397719D01*
X132656263Y-116397719D02*
X132656263Y-115397719D01*
X132656263Y-115397719D02*
X132418168Y-115397719D01*
X132418168Y-115397719D02*
X132275311Y-115445338D01*
X132275311Y-115445338D02*
X132180073Y-115540576D01*
X132180073Y-115540576D02*
X132132454Y-115635814D01*
X132132454Y-115635814D02*
X132084835Y-115826290D01*
X132084835Y-115826290D02*
X132084835Y-115969147D01*
X132084835Y-115969147D02*
X132132454Y-116159623D01*
X132132454Y-116159623D02*
X132180073Y-116254861D01*
X132180073Y-116254861D02*
X132275311Y-116350100D01*
X132275311Y-116350100D02*
X132418168Y-116397719D01*
X132418168Y-116397719D02*
X132656263Y-116397719D01*
X131751501Y-115397719D02*
X131084835Y-115397719D01*
X131084835Y-115397719D02*
X131513406Y-116397719D01*
X146594359Y-116270719D02*
X147070549Y-116270719D01*
X147070549Y-116270719D02*
X147070549Y-115270719D01*
X146261025Y-115746909D02*
X145927692Y-115746909D01*
X145784835Y-116270719D02*
X146261025Y-116270719D01*
X146261025Y-116270719D02*
X146261025Y-115270719D01*
X146261025Y-115270719D02*
X145784835Y-115270719D01*
X145356263Y-116270719D02*
X145356263Y-115270719D01*
X145356263Y-115270719D02*
X145118168Y-115270719D01*
X145118168Y-115270719D02*
X144975311Y-115318338D01*
X144975311Y-115318338D02*
X144880073Y-115413576D01*
X144880073Y-115413576D02*
X144832454Y-115508814D01*
X144832454Y-115508814D02*
X144784835Y-115699290D01*
X144784835Y-115699290D02*
X144784835Y-115842147D01*
X144784835Y-115842147D02*
X144832454Y-116032623D01*
X144832454Y-116032623D02*
X144880073Y-116127861D01*
X144880073Y-116127861D02*
X144975311Y-116223100D01*
X144975311Y-116223100D02*
X145118168Y-116270719D01*
X145118168Y-116270719D02*
X145356263Y-116270719D01*
X143880073Y-115270719D02*
X144356263Y-115270719D01*
X144356263Y-115270719D02*
X144403882Y-115746909D01*
X144403882Y-115746909D02*
X144356263Y-115699290D01*
X144356263Y-115699290D02*
X144261025Y-115651671D01*
X144261025Y-115651671D02*
X144022930Y-115651671D01*
X144022930Y-115651671D02*
X143927692Y-115699290D01*
X143927692Y-115699290D02*
X143880073Y-115746909D01*
X143880073Y-115746909D02*
X143832454Y-115842147D01*
X143832454Y-115842147D02*
X143832454Y-116080242D01*
X143832454Y-116080242D02*
X143880073Y-116175480D01*
X143880073Y-116175480D02*
X143927692Y-116223100D01*
X143927692Y-116223100D02*
X144022930Y-116270719D01*
X144022930Y-116270719D02*
X144261025Y-116270719D01*
X144261025Y-116270719D02*
X144356263Y-116223100D01*
X144356263Y-116223100D02*
X144403882Y-116175480D01*
D13*
%TO.C,LED10*%
X176501100Y-93500400D02*
X180601100Y-93500400D01*
X176501100Y-98500400D02*
X176501100Y-93500400D01*
X180301100Y-93200400D02*
X180601100Y-93500400D01*
X180601100Y-93500400D02*
X181501100Y-93500400D01*
X180601100Y-93500400D02*
X181501100Y-94400400D01*
X180701100Y-92800400D02*
X180301100Y-93200400D01*
X181501100Y-93500400D02*
X180701100Y-92800400D01*
X181501100Y-93500400D02*
X181501100Y-94400400D01*
X181501100Y-94400400D02*
X181501100Y-98500400D01*
X181501100Y-98500400D02*
X176501100Y-98500400D01*
X180721562Y-96000400D02*
G75*
G02*
X177280638Y-96000400I-1720462J0D01*
G01*
X177280638Y-96000400D02*
G75*
G02*
X180721562Y-96000400I1720462J0D01*
G01*
%TO.C,LED4*%
X148501900Y-119566000D02*
X148901900Y-119966000D01*
X148901900Y-119966000D02*
X149201900Y-119666000D01*
X149201900Y-118766000D02*
X148501900Y-119566000D01*
X149201900Y-118766000D02*
X150101900Y-118766000D01*
X149201900Y-119666000D02*
X149201900Y-118766000D01*
X149201900Y-119666000D02*
X150101900Y-118766000D01*
X149201900Y-123766000D02*
X149201900Y-119666000D01*
X150101900Y-118766000D02*
X154201900Y-118766000D01*
X154201900Y-118766000D02*
X154201900Y-123766000D01*
X154201900Y-123766000D02*
X149201900Y-123766000D01*
X153422362Y-121266000D02*
G75*
G02*
X149981438Y-121266000I-1720462J0D01*
G01*
X149981438Y-121266000D02*
G75*
G02*
X153422362Y-121266000I1720462J0D01*
G01*
D14*
%TO.C,SW1*%
X197700000Y-117650000D02*
X197800000Y-117650000D01*
X197700000Y-124500000D02*
X197700000Y-117650000D01*
X197800000Y-124500000D02*
X197700000Y-124500000D01*
X198900000Y-117650000D02*
X200000000Y-117650000D01*
X200000000Y-124500000D02*
X198900000Y-124500000D01*
X201100000Y-117650000D02*
X201150000Y-117650000D01*
X201150000Y-117650000D02*
X201150000Y-124500000D01*
X201150000Y-124500000D02*
X201100000Y-124500000D01*
D13*
%TO.C,LED9*%
X115501100Y-93500400D02*
X119601100Y-93500400D01*
X115501100Y-98500400D02*
X115501100Y-93500400D01*
X119301100Y-93200400D02*
X119601100Y-93500400D01*
X119601100Y-93500400D02*
X120501100Y-93500400D01*
X119601100Y-93500400D02*
X120501100Y-94400400D01*
X119701100Y-92800400D02*
X119301100Y-93200400D01*
X120501100Y-93500400D02*
X119701100Y-92800400D01*
X120501100Y-93500400D02*
X120501100Y-94400400D01*
X120501100Y-94400400D02*
X120501100Y-98500400D01*
X120501100Y-98500400D02*
X115501100Y-98500400D01*
X119721562Y-96000400D02*
G75*
G02*
X116280638Y-96000400I-1720462J0D01*
G01*
X116280638Y-96000400D02*
G75*
G02*
X119721562Y-96000400I1720462J0D01*
G01*
%TO.C,LED8*%
X123101900Y-119566000D02*
X123501900Y-119966000D01*
X123501900Y-119966000D02*
X123801900Y-119666000D01*
X123801900Y-118766000D02*
X123101900Y-119566000D01*
X123801900Y-118766000D02*
X124701900Y-118766000D01*
X123801900Y-119666000D02*
X123801900Y-118766000D01*
X123801900Y-119666000D02*
X124701900Y-118766000D01*
X123801900Y-123766000D02*
X123801900Y-119666000D01*
X124701900Y-118766000D02*
X128801900Y-118766000D01*
X128801900Y-118766000D02*
X128801900Y-123766000D01*
X128801900Y-123766000D02*
X123801900Y-123766000D01*
X128022362Y-121266000D02*
G75*
G02*
X124581438Y-121266000I-1720462J0D01*
G01*
X124581438Y-121266000D02*
G75*
G02*
X128022362Y-121266000I1720462J0D01*
G01*
%TO.C,LED3*%
X154851900Y-119566000D02*
X155251900Y-119966000D01*
X155251900Y-119966000D02*
X155551900Y-119666000D01*
X155551900Y-118766000D02*
X154851900Y-119566000D01*
X155551900Y-118766000D02*
X156451900Y-118766000D01*
X155551900Y-119666000D02*
X155551900Y-118766000D01*
X155551900Y-119666000D02*
X156451900Y-118766000D01*
X155551900Y-123766000D02*
X155551900Y-119666000D01*
X156451900Y-118766000D02*
X160551900Y-118766000D01*
X160551900Y-118766000D02*
X160551900Y-123766000D01*
X160551900Y-123766000D02*
X155551900Y-123766000D01*
X159772362Y-121266000D02*
G75*
G02*
X156331438Y-121266000I-1720462J0D01*
G01*
X156331438Y-121266000D02*
G75*
G02*
X159772362Y-121266000I1720462J0D01*
G01*
%TO.C,LED1*%
X167551900Y-119566000D02*
X167951900Y-119966000D01*
X167951900Y-119966000D02*
X168251900Y-119666000D01*
X168251900Y-118766000D02*
X167551900Y-119566000D01*
X168251900Y-118766000D02*
X169151900Y-118766000D01*
X168251900Y-119666000D02*
X168251900Y-118766000D01*
X168251900Y-119666000D02*
X169151900Y-118766000D01*
X168251900Y-123766000D02*
X168251900Y-119666000D01*
X169151900Y-118766000D02*
X173251900Y-118766000D01*
X173251900Y-118766000D02*
X173251900Y-123766000D01*
X173251900Y-123766000D02*
X168251900Y-123766000D01*
X172472362Y-121266000D02*
G75*
G02*
X169031438Y-121266000I-1720462J0D01*
G01*
X169031438Y-121266000D02*
G75*
G02*
X172472362Y-121266000I1720462J0D01*
G01*
%TO.C,PI3*%
X108501100Y-98903600D02*
X127501100Y-98903600D01*
X108501100Y-105103600D02*
X108501100Y-98903600D01*
X127501100Y-98903600D02*
X127501100Y-98903600D01*
X127501100Y-98903600D02*
X127501100Y-105103600D01*
X127501100Y-105103600D02*
X108501100Y-105103600D01*
%TO.C,PI1*%
X169501100Y-98903600D02*
X188501100Y-98903600D01*
X169501100Y-105103600D02*
X169501100Y-98903600D01*
X188501100Y-98903600D02*
X188501100Y-98903600D01*
X188501100Y-98903600D02*
X188501100Y-105103600D01*
X188501100Y-105103600D02*
X169501100Y-105103600D01*
%TO.C,PI2*%
X139001100Y-105903600D02*
X158001100Y-105903600D01*
X139001100Y-112103600D02*
X139001100Y-105903600D01*
X158001100Y-105903600D02*
X158001100Y-105903600D01*
X158001100Y-105903600D02*
X158001100Y-112103600D01*
X158001100Y-112103600D02*
X139001100Y-112103600D01*
%TO.C,LED2*%
X161201900Y-119566000D02*
X161601900Y-119966000D01*
X161601900Y-119966000D02*
X161901900Y-119666000D01*
X161901900Y-118766000D02*
X161201900Y-119566000D01*
X161901900Y-118766000D02*
X162801900Y-118766000D01*
X161901900Y-119666000D02*
X161901900Y-118766000D01*
X161901900Y-119666000D02*
X162801900Y-118766000D01*
X161901900Y-123766000D02*
X161901900Y-119666000D01*
X162801900Y-118766000D02*
X166901900Y-118766000D01*
X166901900Y-118766000D02*
X166901900Y-123766000D01*
X166901900Y-123766000D02*
X161901900Y-123766000D01*
X166122362Y-121266000D02*
G75*
G02*
X162681438Y-121266000I-1720462J0D01*
G01*
X162681438Y-121266000D02*
G75*
G02*
X166122362Y-121266000I1720462J0D01*
G01*
%TO.C,LED6*%
X135801900Y-119566000D02*
X136201900Y-119966000D01*
X136201900Y-119966000D02*
X136501900Y-119666000D01*
X136501900Y-118766000D02*
X135801900Y-119566000D01*
X136501900Y-118766000D02*
X137401900Y-118766000D01*
X136501900Y-119666000D02*
X136501900Y-118766000D01*
X136501900Y-119666000D02*
X137401900Y-118766000D01*
X136501900Y-123766000D02*
X136501900Y-119666000D01*
X137401900Y-118766000D02*
X141501900Y-118766000D01*
X141501900Y-118766000D02*
X141501900Y-123766000D01*
X141501900Y-123766000D02*
X136501900Y-123766000D01*
X140722362Y-121266000D02*
G75*
G02*
X137281438Y-121266000I-1720462J0D01*
G01*
X137281438Y-121266000D02*
G75*
G02*
X140722362Y-121266000I1720462J0D01*
G01*
%TO.C,LED7*%
X129451900Y-119566000D02*
X129851900Y-119966000D01*
X129851900Y-119966000D02*
X130151900Y-119666000D01*
X130151900Y-118766000D02*
X129451900Y-119566000D01*
X130151900Y-118766000D02*
X131051900Y-118766000D01*
X130151900Y-119666000D02*
X130151900Y-118766000D01*
X130151900Y-119666000D02*
X131051900Y-118766000D01*
X130151900Y-123766000D02*
X130151900Y-119666000D01*
X131051900Y-118766000D02*
X135151900Y-118766000D01*
X135151900Y-118766000D02*
X135151900Y-123766000D01*
X135151900Y-123766000D02*
X130151900Y-123766000D01*
X134372362Y-121266000D02*
G75*
G02*
X130931438Y-121266000I-1720462J0D01*
G01*
X130931438Y-121266000D02*
G75*
G02*
X134372362Y-121266000I1720462J0D01*
G01*
%TO.C,LED5*%
X142151900Y-119566000D02*
X142551900Y-119966000D01*
X142551900Y-119966000D02*
X142851900Y-119666000D01*
X142851900Y-118766000D02*
X142151900Y-119566000D01*
X142851900Y-118766000D02*
X143751900Y-118766000D01*
X142851900Y-119666000D02*
X142851900Y-118766000D01*
X142851900Y-119666000D02*
X143751900Y-118766000D01*
X142851900Y-123766000D02*
X142851900Y-119666000D01*
X143751900Y-118766000D02*
X147851900Y-118766000D01*
X147851900Y-118766000D02*
X147851900Y-123766000D01*
X147851900Y-123766000D02*
X142851900Y-123766000D01*
X147072362Y-121266000D02*
G75*
G02*
X143631438Y-121266000I-1720462J0D01*
G01*
X143631438Y-121266000D02*
G75*
G02*
X147072362Y-121266000I1720462J0D01*
G01*
%TD*%
G36*
X123844939Y-123378085D02*
G01*
X123890694Y-123430889D01*
X123901900Y-123482400D01*
X123901900Y-123608400D01*
X128767700Y-123608400D01*
X128767700Y-123482400D01*
X128787385Y-123415361D01*
X128840189Y-123369606D01*
X128891700Y-123358400D01*
X130027900Y-123358400D01*
X130094939Y-123378085D01*
X130140694Y-123430889D01*
X130151900Y-123482400D01*
X130151900Y-123608400D01*
X135115800Y-123608400D01*
X135115800Y-123482400D01*
X135135485Y-123415361D01*
X135188289Y-123369606D01*
X135239800Y-123358400D01*
X136376000Y-123358400D01*
X136443039Y-123378085D01*
X136488794Y-123430889D01*
X136500000Y-123482400D01*
X136500000Y-123608400D01*
X141515800Y-123608400D01*
X141515800Y-123482400D01*
X141535485Y-123415361D01*
X141588289Y-123369606D01*
X141639800Y-123358400D01*
X142776000Y-123358400D01*
X142843039Y-123378085D01*
X142888794Y-123430889D01*
X142900000Y-123482400D01*
X142900000Y-123608400D01*
X147817700Y-123608400D01*
X147817700Y-123482400D01*
X147837385Y-123415361D01*
X147890189Y-123369606D01*
X147941700Y-123358400D01*
X149077900Y-123358400D01*
X149144939Y-123378085D01*
X149190694Y-123430889D01*
X149201900Y-123482400D01*
X149201900Y-123608400D01*
X154115800Y-123608400D01*
X154115800Y-123482400D01*
X154135485Y-123415361D01*
X154188289Y-123369606D01*
X154239800Y-123358400D01*
X155376000Y-123358400D01*
X155443039Y-123378085D01*
X155488794Y-123430889D01*
X155500000Y-123482400D01*
X155500000Y-123608400D01*
X160507900Y-123608400D01*
X160507900Y-123482400D01*
X160527585Y-123415361D01*
X160580389Y-123369606D01*
X160631900Y-123358400D01*
X161768100Y-123358400D01*
X161835139Y-123378085D01*
X161880894Y-123430889D01*
X161892100Y-123482400D01*
X161892100Y-123608400D01*
X166896200Y-123608400D01*
X166896200Y-123482400D01*
X166915885Y-123415361D01*
X166968689Y-123369606D01*
X167020200Y-123358400D01*
X168156400Y-123358400D01*
X168223439Y-123378085D01*
X168269194Y-123430889D01*
X168280400Y-123482400D01*
X168280400Y-123608400D01*
X173267600Y-123608400D01*
X173267600Y-123482400D01*
X173287285Y-123415361D01*
X173340089Y-123369606D01*
X173391600Y-123358400D01*
X175022100Y-123358400D01*
X175089139Y-123378085D01*
X175134894Y-123430889D01*
X175146100Y-123482400D01*
X175146100Y-125468600D01*
X175126415Y-125535639D01*
X175073611Y-125581394D01*
X175022100Y-125592600D01*
X122041700Y-125592600D01*
X121974661Y-125572915D01*
X121928906Y-125520111D01*
X121917700Y-125468600D01*
X121917700Y-123482400D01*
X121937385Y-123415361D01*
X121990189Y-123369606D01*
X122041700Y-123358400D01*
X123777900Y-123358400D01*
X123844939Y-123378085D01*
G37*
G36*
X168268490Y-116986100D02*
G01*
X168406400Y-116986100D01*
X168473439Y-117005785D01*
X168519194Y-117058589D01*
X168530400Y-117110100D01*
X168530400Y-118846300D01*
X168510715Y-118913339D01*
X168457911Y-118959094D01*
X168406400Y-118970300D01*
X168280400Y-118970300D01*
X168280400Y-123608400D01*
X168406400Y-123608400D01*
X168473439Y-123628085D01*
X168519194Y-123680889D01*
X168530400Y-123732400D01*
X168530400Y-125468600D01*
X168510715Y-125535639D01*
X168457911Y-125581394D01*
X168406400Y-125592600D01*
X166770200Y-125592600D01*
X166703161Y-125572915D01*
X166657406Y-125520111D01*
X166646200Y-125468600D01*
X166646200Y-123732400D01*
X166665885Y-123665361D01*
X166718689Y-123619606D01*
X166770200Y-123608400D01*
X166896200Y-123608400D01*
X166896200Y-118970300D01*
X166770200Y-118970300D01*
X166703161Y-118950615D01*
X166657406Y-118897811D01*
X166646200Y-118846300D01*
X166646200Y-117110100D01*
X166665885Y-117043061D01*
X166718689Y-116997306D01*
X166770200Y-116986100D01*
X166912760Y-116986100D01*
X166937604Y-116972534D01*
X166963962Y-116969700D01*
X168212638Y-116969700D01*
X168268490Y-116986100D01*
G37*
G36*
X175089139Y-116985685D02*
G01*
X175134894Y-117038489D01*
X175146100Y-117090000D01*
X175146100Y-125468600D01*
X175126415Y-125535639D01*
X175073611Y-125581394D01*
X175022100Y-125592600D01*
X173141600Y-125592600D01*
X173074561Y-125572915D01*
X173028806Y-125520111D01*
X173017600Y-125468600D01*
X173017600Y-123732400D01*
X173037285Y-123665361D01*
X173090089Y-123619606D01*
X173141600Y-123608400D01*
X173267600Y-123608400D01*
X173267600Y-118970300D01*
X173141600Y-118970300D01*
X173074561Y-118950615D01*
X173028806Y-118897811D01*
X173017600Y-118846300D01*
X173017600Y-117110100D01*
X173037285Y-117043061D01*
X173090089Y-116997306D01*
X173141600Y-116986100D01*
X173281084Y-116986100D01*
X173312704Y-116968834D01*
X173339062Y-116966000D01*
X175022100Y-116966000D01*
X175089139Y-116985685D01*
G37*
G36*
X155693039Y-117005785D02*
G01*
X155738794Y-117058589D01*
X155750000Y-117110100D01*
X155750000Y-118846300D01*
X155730315Y-118913339D01*
X155677511Y-118959094D01*
X155626000Y-118970300D01*
X155500000Y-118970300D01*
X155500000Y-123608400D01*
X155626000Y-123608400D01*
X155693039Y-123628085D01*
X155738794Y-123680889D01*
X155750000Y-123732400D01*
X155750000Y-125468600D01*
X155730315Y-125535639D01*
X155677511Y-125581394D01*
X155626000Y-125592600D01*
X153989800Y-125592600D01*
X153922761Y-125572915D01*
X153877006Y-125520111D01*
X153865800Y-125468600D01*
X153865800Y-123732400D01*
X153885485Y-123665361D01*
X153938289Y-123619606D01*
X153989800Y-123608400D01*
X154115800Y-123608400D01*
X154115800Y-118970300D01*
X153989800Y-118970300D01*
X153922761Y-118950615D01*
X153877006Y-118897811D01*
X153865800Y-118846300D01*
X153865800Y-117110100D01*
X153885485Y-117043061D01*
X153938289Y-116997306D01*
X153989800Y-116986100D01*
X155626000Y-116986100D01*
X155693039Y-117005785D01*
G37*
G36*
X124094939Y-117005785D02*
G01*
X124140694Y-117058589D01*
X124151900Y-117110100D01*
X124151900Y-118846300D01*
X124132215Y-118913339D01*
X124079411Y-118959094D01*
X124027900Y-118970300D01*
X123901900Y-118970300D01*
X123901900Y-123608400D01*
X124027900Y-123608400D01*
X124094939Y-123628085D01*
X124140694Y-123680889D01*
X124151900Y-123732400D01*
X124151900Y-125468600D01*
X124132215Y-125535639D01*
X124079411Y-125581394D01*
X124027900Y-125592600D01*
X122041700Y-125592600D01*
X121974661Y-125572915D01*
X121928906Y-125520111D01*
X121917700Y-125468600D01*
X121917700Y-117110100D01*
X121937385Y-117043061D01*
X121990189Y-116997306D01*
X122041700Y-116986100D01*
X124027900Y-116986100D01*
X124094939Y-117005785D01*
G37*
G36*
X162085139Y-117005785D02*
G01*
X162130894Y-117058589D01*
X162142100Y-117110100D01*
X162142100Y-118846300D01*
X162122415Y-118913339D01*
X162069611Y-118959094D01*
X162018100Y-118970300D01*
X161892100Y-118970300D01*
X161892100Y-123608400D01*
X162018100Y-123608400D01*
X162085139Y-123628085D01*
X162130894Y-123680889D01*
X162142100Y-123732400D01*
X162142100Y-125468600D01*
X162122415Y-125535639D01*
X162069611Y-125581394D01*
X162018100Y-125592600D01*
X160381900Y-125592600D01*
X160314861Y-125572915D01*
X160269106Y-125520111D01*
X160257900Y-125468600D01*
X160257900Y-123732400D01*
X160277585Y-123665361D01*
X160330389Y-123619606D01*
X160381900Y-123608400D01*
X160507900Y-123608400D01*
X160507900Y-118970300D01*
X160381900Y-118970300D01*
X160314861Y-118950615D01*
X160269106Y-118897811D01*
X160257900Y-118846300D01*
X160257900Y-117110100D01*
X160277585Y-117043061D01*
X160330389Y-116997306D01*
X160381900Y-116986100D01*
X162018100Y-116986100D01*
X162085139Y-117005785D01*
G37*
G36*
X175089139Y-116985685D02*
G01*
X175134894Y-117038489D01*
X175146100Y-117090000D01*
X175146100Y-119096300D01*
X175126415Y-119163339D01*
X175073611Y-119209094D01*
X175022100Y-119220300D01*
X173391600Y-119220300D01*
X173324561Y-119200615D01*
X173278806Y-119147811D01*
X173267600Y-119096300D01*
X173267600Y-118970300D01*
X168280400Y-118970300D01*
X168280400Y-119096300D01*
X168260715Y-119163339D01*
X168207911Y-119209094D01*
X168156400Y-119220300D01*
X167020200Y-119220300D01*
X166953161Y-119200615D01*
X166907406Y-119147811D01*
X166896200Y-119096300D01*
X166896200Y-118970300D01*
X161892100Y-118970300D01*
X161892100Y-119096300D01*
X161872415Y-119163339D01*
X161819611Y-119209094D01*
X161768100Y-119220300D01*
X160631900Y-119220300D01*
X160564861Y-119200615D01*
X160519106Y-119147811D01*
X160507900Y-119096300D01*
X160507900Y-118970300D01*
X155500000Y-118970300D01*
X155500000Y-119096300D01*
X155480315Y-119163339D01*
X155427511Y-119209094D01*
X155376000Y-119220300D01*
X154239800Y-119220300D01*
X154172761Y-119200615D01*
X154127006Y-119147811D01*
X154115800Y-119096300D01*
X154115800Y-118970300D01*
X149201900Y-118970300D01*
X149201900Y-119096300D01*
X149182215Y-119163339D01*
X149129411Y-119209094D01*
X149077900Y-119220300D01*
X147941700Y-119220300D01*
X147874661Y-119200615D01*
X147828906Y-119147811D01*
X147817700Y-119096300D01*
X147817700Y-118970300D01*
X142900000Y-118970300D01*
X142900000Y-119096300D01*
X142880315Y-119163339D01*
X142827511Y-119209094D01*
X142776000Y-119220300D01*
X141639800Y-119220300D01*
X141572761Y-119200615D01*
X141527006Y-119147811D01*
X141515800Y-119096300D01*
X141515800Y-118970300D01*
X136500000Y-118970300D01*
X136500000Y-119096300D01*
X136480315Y-119163339D01*
X136427511Y-119209094D01*
X136376000Y-119220300D01*
X135239800Y-119220300D01*
X135172761Y-119200615D01*
X135127006Y-119147811D01*
X135115800Y-119096300D01*
X135115800Y-118970300D01*
X130151900Y-118970300D01*
X130151900Y-119096300D01*
X130132215Y-119163339D01*
X130079411Y-119209094D01*
X130027900Y-119220300D01*
X128891700Y-119220300D01*
X128824661Y-119200615D01*
X128778906Y-119147811D01*
X128767700Y-119096300D01*
X128767700Y-118970300D01*
X123901900Y-118970300D01*
X123901900Y-119096300D01*
X123882215Y-119163339D01*
X123829411Y-119209094D01*
X123777900Y-119220300D01*
X122041700Y-119220300D01*
X121974661Y-119200615D01*
X121928906Y-119147811D01*
X121917700Y-119096300D01*
X121917700Y-117110100D01*
X121937385Y-117043061D01*
X121990189Y-116997306D01*
X122041700Y-116986100D01*
X166912760Y-116986100D01*
X166937604Y-116972534D01*
X166963962Y-116969700D01*
X168212638Y-116969700D01*
X168268490Y-116986100D01*
X173281084Y-116986100D01*
X173312704Y-116968834D01*
X173339062Y-116966000D01*
X175022100Y-116966000D01*
X175089139Y-116985685D01*
G37*
G36*
X136693039Y-117005785D02*
G01*
X136738794Y-117058589D01*
X136750000Y-117110100D01*
X136750000Y-118846300D01*
X136730315Y-118913339D01*
X136677511Y-118959094D01*
X136626000Y-118970300D01*
X136500000Y-118970300D01*
X136500000Y-123608400D01*
X136626000Y-123608400D01*
X136693039Y-123628085D01*
X136738794Y-123680889D01*
X136750000Y-123732400D01*
X136750000Y-125468600D01*
X136730315Y-125535639D01*
X136677511Y-125581394D01*
X136626000Y-125592600D01*
X134989800Y-125592600D01*
X134922761Y-125572915D01*
X134877006Y-125520111D01*
X134865800Y-125468600D01*
X134865800Y-123732400D01*
X134885485Y-123665361D01*
X134938289Y-123619606D01*
X134989800Y-123608400D01*
X135115800Y-123608400D01*
X135115800Y-118970300D01*
X134989800Y-118970300D01*
X134922761Y-118950615D01*
X134877006Y-118897811D01*
X134865800Y-118846300D01*
X134865800Y-117110100D01*
X134885485Y-117043061D01*
X134938289Y-116997306D01*
X134989800Y-116986100D01*
X136626000Y-116986100D01*
X136693039Y-117005785D01*
G37*
G36*
X143093039Y-117005785D02*
G01*
X143138794Y-117058589D01*
X143150000Y-117110100D01*
X143150000Y-118846300D01*
X143130315Y-118913339D01*
X143077511Y-118959094D01*
X143026000Y-118970300D01*
X142900000Y-118970300D01*
X142900000Y-123608400D01*
X143026000Y-123608400D01*
X143093039Y-123628085D01*
X143138794Y-123680889D01*
X143150000Y-123732400D01*
X143150000Y-125468600D01*
X143130315Y-125535639D01*
X143077511Y-125581394D01*
X143026000Y-125592600D01*
X141389800Y-125592600D01*
X141322761Y-125572915D01*
X141277006Y-125520111D01*
X141265800Y-125468600D01*
X141265800Y-123732400D01*
X141285485Y-123665361D01*
X141338289Y-123619606D01*
X141389800Y-123608400D01*
X141515800Y-123608400D01*
X141515800Y-118970300D01*
X141389800Y-118970300D01*
X141322761Y-118950615D01*
X141277006Y-118897811D01*
X141265800Y-118846300D01*
X141265800Y-117110100D01*
X141285485Y-117043061D01*
X141338289Y-116997306D01*
X141389800Y-116986100D01*
X143026000Y-116986100D01*
X143093039Y-117005785D01*
G37*
G36*
X149394939Y-117005785D02*
G01*
X149440694Y-117058589D01*
X149451900Y-117110100D01*
X149451900Y-118846300D01*
X149432215Y-118913339D01*
X149379411Y-118959094D01*
X149327900Y-118970300D01*
X149201900Y-118970300D01*
X149201900Y-123608400D01*
X149327900Y-123608400D01*
X149394939Y-123628085D01*
X149440694Y-123680889D01*
X149451900Y-123732400D01*
X149451900Y-125468600D01*
X149432215Y-125535639D01*
X149379411Y-125581394D01*
X149327900Y-125592600D01*
X147691700Y-125592600D01*
X147624661Y-125572915D01*
X147578906Y-125520111D01*
X147567700Y-125468600D01*
X147567700Y-123732400D01*
X147587385Y-123665361D01*
X147640189Y-123619606D01*
X147691700Y-123608400D01*
X147817700Y-123608400D01*
X147817700Y-118970300D01*
X147691700Y-118970300D01*
X147624661Y-118950615D01*
X147578906Y-118897811D01*
X147567700Y-118846300D01*
X147567700Y-117110100D01*
X147587385Y-117043061D01*
X147640189Y-116997306D01*
X147691700Y-116986100D01*
X149327900Y-116986100D01*
X149394939Y-117005785D01*
G37*
G36*
X130344939Y-117005785D02*
G01*
X130390694Y-117058589D01*
X130401900Y-117110100D01*
X130401900Y-118846300D01*
X130382215Y-118913339D01*
X130329411Y-118959094D01*
X130277900Y-118970300D01*
X130151900Y-118970300D01*
X130151900Y-123608400D01*
X130277900Y-123608400D01*
X130344939Y-123628085D01*
X130390694Y-123680889D01*
X130401900Y-123732400D01*
X130401900Y-125468600D01*
X130382215Y-125535639D01*
X130329411Y-125581394D01*
X130277900Y-125592600D01*
X128641700Y-125592600D01*
X128574661Y-125572915D01*
X128528906Y-125520111D01*
X128517700Y-125468600D01*
X128517700Y-123732400D01*
X128537385Y-123665361D01*
X128590189Y-123619606D01*
X128641700Y-123608400D01*
X128767700Y-123608400D01*
X128767700Y-118970300D01*
X128641700Y-118970300D01*
X128574661Y-118950615D01*
X128528906Y-118897811D01*
X128517700Y-118846300D01*
X128517700Y-117110100D01*
X128537385Y-117043061D01*
X128590189Y-116997306D01*
X128641700Y-116986100D01*
X130277900Y-116986100D01*
X130344939Y-117005785D01*
G37*
D15*
X201101100Y-126403600D02*
X201101100Y-117203600D01*
X161501100Y-103003600D02*
X135501100Y-103003600D01*
X161501100Y-80003600D02*
X161501100Y-85751600D01*
X161501100Y-85751600D02*
X164097100Y-88347600D01*
X99501100Y-80003600D02*
X94501100Y-85003600D01*
X202221100Y-107883600D02*
X202501100Y-107603600D01*
X202501100Y-85003600D02*
X197501100Y-80003600D01*
X202221100Y-113323600D02*
X202221100Y-107883600D01*
X202501100Y-107603600D02*
X202501100Y-85003600D01*
X161501100Y-96983600D02*
X161501100Y-103003600D01*
X202501100Y-113603600D02*
X202221100Y-113323600D01*
X135501100Y-103003600D02*
X135501100Y-80003600D01*
X94501100Y-125003600D02*
X99501100Y-130003600D01*
X164097100Y-88347600D02*
X164097100Y-94443600D01*
X197501100Y-130003600D02*
X201101100Y-126403600D01*
X197501100Y-80003600D02*
X161501100Y-80003600D01*
X202501100Y-115803600D02*
X202501100Y-113603600D01*
X94501100Y-85003600D02*
X94501100Y-125003600D01*
X99501100Y-130003600D02*
X197501100Y-130003600D01*
X164097100Y-94443600D02*
X161501100Y-96983600D01*
X201101100Y-117203600D02*
X202501100Y-115803600D01*
X135501100Y-80003600D02*
X99501100Y-80003600D01*
M02*
