%TF.GenerationSoftware,KiCad,Pcbnew,9.0.0*%
%TF.CreationDate,2025-04-22T12:37:27+01:00*%
%TF.ProjectId,FED3_v7.3,46454433-5f76-4372-9e33-2e6b69636164,rev?*%
%TF.SameCoordinates,Original*%
%TF.FileFunction,Drillmap*%
%TF.FilePolarity,Positive*%
%FSLAX45Y45*%
G04 Gerber Fmt 4.5, Leading zero omitted, Abs format (unit mm)*
G04 Created by KiCad (PCBNEW 9.0.0) date 2025-04-22 12:37:27*
%MOMM*%
%LPD*%
G01*
G04 APERTURE LIST*
%ADD10C,0.250000*%
%ADD11C,0.200000*%
%ADD12C,0.100000*%
%ADD13C,0.101600*%
%ADD14C,0.150000*%
G04 APERTURE END LIST*
D10*
X20110110Y-12640360D02*
X20110110Y-11720360D01*
X16150110Y-10300360D02*
X13550110Y-10300360D01*
X16150110Y-8000360D02*
X16150110Y-8575160D01*
X16150110Y-8575160D02*
X16409710Y-8834760D01*
X9950110Y-8000360D02*
X9450110Y-8500360D01*
X20222110Y-10788360D02*
X20250110Y-10760360D01*
X20250110Y-8500360D02*
X19750110Y-8000360D01*
X20222110Y-11332360D02*
X20222110Y-10788360D01*
X20250110Y-10760360D02*
X20250110Y-8500360D01*
X16150110Y-9698360D02*
X16150110Y-10300360D01*
X20250110Y-11360360D02*
X20222110Y-11332360D01*
X13550110Y-10300360D02*
X13550110Y-8000360D01*
X9450110Y-12500360D02*
X9950110Y-13000360D01*
X16409710Y-8834760D02*
X16409710Y-9444360D01*
X19750110Y-13000360D02*
X20110110Y-12640360D01*
X19750110Y-8000360D02*
X16150110Y-8000360D01*
X20250110Y-11580360D02*
X20250110Y-11360360D01*
X9450110Y-8500360D02*
X9450110Y-12500360D01*
X9950110Y-13000360D02*
X19750110Y-13000360D01*
X16409710Y-9444360D02*
X16150110Y-9698360D01*
X20110110Y-11720360D02*
X20250110Y-11580360D01*
X13550110Y-8000360D02*
X9950110Y-8000360D01*
D11*
D12*
X9558610Y-9418460D02*
X9579610Y-9439460D01*
X9579610Y-9418460D02*
X9558610Y-9439460D01*
X9560890Y-11711640D02*
X9581890Y-11732640D01*
X9581890Y-11711640D02*
X9560890Y-11732640D01*
X9692000Y-8672000D02*
X9713000Y-8693000D01*
X9713000Y-8672000D02*
X9692000Y-8693000D01*
X9787210Y-12644260D02*
X9808210Y-12665260D01*
X9808210Y-12644260D02*
X9787210Y-12665260D01*
X9814890Y-12194240D02*
X9835890Y-12215240D01*
X9835890Y-12194240D02*
X9814890Y-12215240D01*
X9871030Y-9667380D02*
X9892030Y-9688380D01*
X9892030Y-9667380D02*
X9871030Y-9688380D01*
X9944500Y-10534500D02*
X9965500Y-10555500D01*
X9965500Y-10534500D02*
X9944500Y-10555500D01*
X10015810Y-8148460D02*
X10036810Y-8169460D01*
X10036810Y-8148460D02*
X10015810Y-8169460D01*
X10137000Y-9207000D02*
X10158000Y-9228000D01*
X10158000Y-9207000D02*
X10137000Y-9228000D01*
X10162000Y-11012000D02*
X10183000Y-11033000D01*
X10183000Y-11012000D02*
X10162000Y-11033000D01*
X10362000Y-8812000D02*
X10383000Y-8833000D01*
X10383000Y-8812000D02*
X10362000Y-8833000D01*
X10362000Y-9819500D02*
X10383000Y-9840500D01*
X10383000Y-9819500D02*
X10362000Y-9840500D01*
X10449500Y-11879500D02*
X10470500Y-11900500D01*
X10470500Y-11879500D02*
X10449500Y-11900500D01*
X10454500Y-11589500D02*
X10475500Y-11610500D01*
X10475500Y-11589500D02*
X10454500Y-11610500D01*
X10529500Y-12269500D02*
X10550500Y-12290500D01*
X10550500Y-12269500D02*
X10529500Y-12290500D01*
X10537000Y-8387000D02*
X10558000Y-8408000D01*
X10558000Y-8387000D02*
X10537000Y-8408000D01*
X10749500Y-12869500D02*
X10770500Y-12890500D01*
X10770500Y-12869500D02*
X10749500Y-12890500D01*
X10789500Y-11219500D02*
X10810500Y-11240500D01*
X10810500Y-11219500D02*
X10789500Y-11240500D01*
X10872000Y-9427000D02*
X10893000Y-9448000D01*
X10893000Y-9427000D02*
X10872000Y-9448000D01*
X10874500Y-11869500D02*
X10895500Y-11890500D01*
X10895500Y-11869500D02*
X10874500Y-11890500D01*
X10889500Y-10859500D02*
X10910500Y-10880500D01*
X10910500Y-10859500D02*
X10889500Y-10880500D01*
X10894500Y-12242000D02*
X10915500Y-12263000D01*
X10915500Y-12242000D02*
X10894500Y-12263000D01*
X10954500Y-11912000D02*
X10975500Y-11933000D01*
X10975500Y-11912000D02*
X10954500Y-11933000D01*
X11042000Y-11279500D02*
X11063000Y-11300500D01*
X11063000Y-11279500D02*
X11042000Y-11300500D01*
X11067000Y-11989500D02*
X11088000Y-12010500D01*
X11088000Y-11989500D02*
X11067000Y-12010500D01*
X11149500Y-11877000D02*
X11170500Y-11898000D01*
X11170500Y-11877000D02*
X11149500Y-11898000D01*
X11158810Y-8694560D02*
X11179810Y-8715560D01*
X11179810Y-8694560D02*
X11158810Y-8715560D01*
X11158810Y-9139060D02*
X11179810Y-9160060D01*
X11179810Y-9139060D02*
X11158810Y-9160060D01*
X11169500Y-9779500D02*
X11190500Y-9800500D01*
X11190500Y-9779500D02*
X11169500Y-9800500D01*
X11179500Y-12589500D02*
X11200500Y-12610500D01*
X11200500Y-12589500D02*
X11179500Y-12610500D01*
X11187000Y-11999500D02*
X11208000Y-12020500D01*
X11208000Y-11999500D02*
X11187000Y-12020500D01*
X11197000Y-11487000D02*
X11218000Y-11508000D01*
X11218000Y-11487000D02*
X11197000Y-11508000D01*
X11212000Y-10877000D02*
X11233000Y-10898000D01*
X11233000Y-10877000D02*
X11212000Y-10898000D01*
X11237000Y-12129500D02*
X11258000Y-12150500D01*
X11258000Y-12129500D02*
X11237000Y-12150500D01*
X11257000Y-12314500D02*
X11278000Y-12335500D01*
X11278000Y-12314500D02*
X11257000Y-12335500D01*
X11297000Y-12199500D02*
X11318000Y-12220500D01*
X11318000Y-12199500D02*
X11297000Y-12220500D01*
X11322000Y-8069500D02*
X11343000Y-8090500D01*
X11343000Y-8069500D02*
X11322000Y-8090500D01*
X11379500Y-12889500D02*
X11400500Y-12910500D01*
X11400500Y-12889500D02*
X11379500Y-12910500D01*
X11429500Y-11509500D02*
X11450500Y-11530500D01*
X11450500Y-11509500D02*
X11429500Y-11530500D01*
X11439500Y-9851500D02*
X11460500Y-9872500D01*
X11460500Y-9851500D02*
X11439500Y-9872500D01*
X11444500Y-11194500D02*
X11465500Y-11215500D01*
X11465500Y-11194500D02*
X11444500Y-11215500D01*
X11509500Y-12219500D02*
X11530500Y-12240500D01*
X11530500Y-12219500D02*
X11509500Y-12240500D01*
X11554500Y-12467000D02*
X11575500Y-12488000D01*
X11575500Y-12467000D02*
X11554500Y-12488000D01*
X11584500Y-10299500D02*
X11605500Y-10320500D01*
X11605500Y-10299500D02*
X11584500Y-10320500D01*
X11649500Y-12749500D02*
X11670500Y-12770500D01*
X11670500Y-12749500D02*
X11649500Y-12770500D01*
X11654500Y-10579500D02*
X11675500Y-10600500D01*
X11675500Y-10579500D02*
X11654500Y-10600500D01*
X11659500Y-10344500D02*
X11680500Y-10365500D01*
X11680500Y-10344500D02*
X11659500Y-10365500D01*
X11689500Y-11369500D02*
X11710500Y-11390500D01*
X11710500Y-11369500D02*
X11689500Y-11390500D01*
X11704500Y-11939000D02*
X11725500Y-11960000D01*
X11725500Y-11939000D02*
X11704500Y-11960000D01*
X11719500Y-8649500D02*
X11740500Y-8670500D01*
X11740500Y-8649500D02*
X11719500Y-8670500D01*
X11779500Y-10979500D02*
X11800500Y-11000500D01*
X11800500Y-10979500D02*
X11779500Y-11000500D01*
X11784457Y-11889000D02*
X11805457Y-11910000D01*
X11805457Y-11889000D02*
X11784457Y-11910000D01*
X11847000Y-12594500D02*
X11868000Y-12615500D01*
X11868000Y-12594500D02*
X11847000Y-12615500D01*
X11849500Y-10689500D02*
X11870500Y-10710500D01*
X11870500Y-10689500D02*
X11849500Y-10710500D01*
X11849500Y-11239500D02*
X11870500Y-11260500D01*
X11870500Y-11239500D02*
X11849500Y-11260500D01*
X11929500Y-10829500D02*
X11950500Y-10850500D01*
X11950500Y-10829500D02*
X11929500Y-10850500D01*
X11964500Y-9964500D02*
X11985500Y-9985500D01*
X11985500Y-9964500D02*
X11964500Y-9985500D01*
X11964500Y-10419500D02*
X11985500Y-10440500D01*
X11985500Y-10419500D02*
X11964500Y-10440500D01*
X12004500Y-11372500D02*
X12025500Y-11393500D01*
X12025500Y-11372500D02*
X12004500Y-11393500D01*
X12119500Y-8649500D02*
X12140500Y-8670500D01*
X12140500Y-8649500D02*
X12119500Y-8670500D01*
X12184500Y-12044500D02*
X12205500Y-12065500D01*
X12205500Y-12044500D02*
X12184500Y-12065500D01*
X12189500Y-9864500D02*
X12210500Y-9885500D01*
X12210500Y-9864500D02*
X12189500Y-9885500D01*
X12199500Y-10779500D02*
X12220500Y-10800500D01*
X12220500Y-10779500D02*
X12199500Y-10800500D01*
X12212000Y-11232000D02*
X12233000Y-11253000D01*
X12233000Y-11232000D02*
X12212000Y-11253000D01*
X12279500Y-9759500D02*
X12300500Y-9780500D01*
X12300500Y-9759500D02*
X12279500Y-9780500D01*
X12289500Y-12709500D02*
X12310500Y-12730500D01*
X12310500Y-12709500D02*
X12289500Y-12730500D01*
X12339500Y-12449500D02*
X12360500Y-12470500D01*
X12360500Y-12449500D02*
X12339500Y-12470500D01*
X12419500Y-8629500D02*
X12440500Y-8650500D01*
X12440500Y-8629500D02*
X12419500Y-8650500D01*
X12459500Y-12049500D02*
X12480500Y-12070500D01*
X12480500Y-12049500D02*
X12459500Y-12070500D01*
X12509500Y-12499500D02*
X12530500Y-12520500D01*
X12530500Y-12499500D02*
X12509500Y-12520500D01*
X12614500Y-8079500D02*
X12635500Y-8100500D01*
X12635500Y-8079500D02*
X12614500Y-8100500D01*
X12649500Y-8649500D02*
X12670500Y-8670500D01*
X12670500Y-8649500D02*
X12649500Y-8670500D01*
X12774500Y-11429500D02*
X12795500Y-11450500D01*
X12795500Y-11429500D02*
X12774500Y-11450500D01*
X12797810Y-9472800D02*
X12818810Y-9493800D01*
X12818810Y-9472800D02*
X12797810Y-9493800D01*
X12839500Y-12207000D02*
X12860500Y-12228000D01*
X12860500Y-12207000D02*
X12839500Y-12228000D01*
X12869500Y-12709500D02*
X12890500Y-12730500D01*
X12890500Y-12709500D02*
X12869500Y-12730500D01*
X12907000Y-10087000D02*
X12928000Y-10108000D01*
X12928000Y-10087000D02*
X12907000Y-10108000D01*
X12929500Y-12369500D02*
X12950500Y-12390500D01*
X12950500Y-12369500D02*
X12929500Y-12390500D01*
X13089500Y-9789500D02*
X13110500Y-9810500D01*
X13110500Y-9789500D02*
X13089500Y-9810500D01*
X13092000Y-10679500D02*
X13113000Y-10700500D01*
X13113000Y-10679500D02*
X13092000Y-10700500D01*
X13099500Y-12049500D02*
X13120500Y-12070500D01*
X13120500Y-12049500D02*
X13099500Y-12070500D01*
X13140003Y-11437063D02*
X13161003Y-11458063D01*
X13161003Y-11437063D02*
X13140003Y-11458063D01*
X13209500Y-12489500D02*
X13230500Y-12510500D01*
X13230500Y-12489500D02*
X13209500Y-12510500D01*
X13294500Y-11144500D02*
X13315500Y-11165500D01*
X13315500Y-11144500D02*
X13294500Y-11165500D01*
X13317810Y-8631060D02*
X13338810Y-8652060D01*
X13338810Y-8631060D02*
X13317810Y-8652060D01*
X13364500Y-10294500D02*
X13385500Y-10315500D01*
X13385500Y-10294500D02*
X13364500Y-10315500D01*
X13389500Y-9439500D02*
X13410500Y-9460500D01*
X13410500Y-9439500D02*
X13389500Y-9460500D01*
X13449500Y-8069500D02*
X13470500Y-8090500D01*
X13470500Y-8069500D02*
X13449500Y-8090500D01*
X13452000Y-12134500D02*
X13473000Y-12155500D01*
X13473000Y-12134500D02*
X13452000Y-12155500D01*
X13539500Y-12361100D02*
X13560500Y-12382100D01*
X13560500Y-12361100D02*
X13539500Y-12382100D01*
X13729030Y-10914080D02*
X13750030Y-10935080D01*
X13750030Y-10914080D02*
X13729030Y-10935080D01*
X13729500Y-12049500D02*
X13750500Y-12070500D01*
X13750500Y-12049500D02*
X13729500Y-12070500D01*
X13792000Y-11232000D02*
X13813000Y-11253000D01*
X13813000Y-11232000D02*
X13792000Y-11253000D01*
X13889500Y-12767000D02*
X13910500Y-12788000D01*
X13910500Y-12767000D02*
X13889500Y-12788000D01*
X13929500Y-12369500D02*
X13950500Y-12390500D01*
X13950500Y-12369500D02*
X13929500Y-12390500D01*
X14177000Y-12239500D02*
X14198000Y-12260500D01*
X14198000Y-12239500D02*
X14177000Y-12260500D01*
X14224500Y-11944500D02*
X14245500Y-11965500D01*
X14245500Y-11944500D02*
X14224500Y-11965500D01*
X14359500Y-11214500D02*
X14380500Y-11235500D01*
X14380500Y-11214500D02*
X14359500Y-11235500D01*
X14465630Y-10840420D02*
X14486630Y-10861420D01*
X14486630Y-10840420D02*
X14465630Y-10861420D01*
X14499500Y-12569500D02*
X14520500Y-12590500D01*
X14520500Y-12569500D02*
X14499500Y-12590500D01*
X14519500Y-11939500D02*
X14540500Y-11960500D01*
X14540500Y-11939500D02*
X14519500Y-11960500D01*
X14532000Y-12902000D02*
X14553000Y-12923000D01*
X14553000Y-12902000D02*
X14532000Y-12923000D01*
X14799010Y-12371120D02*
X14820010Y-12392120D01*
X14820010Y-12371120D02*
X14799010Y-12392120D01*
X14822000Y-12237000D02*
X14843000Y-12258000D01*
X14843000Y-12237000D02*
X14822000Y-12258000D01*
X14844500Y-12902000D02*
X14865500Y-12923000D01*
X14865500Y-12902000D02*
X14844500Y-12923000D01*
X14954500Y-12074500D02*
X14975500Y-12095500D01*
X14975500Y-12074500D02*
X14954500Y-12095500D01*
X14977000Y-12554500D02*
X14998000Y-12575500D01*
X14998000Y-12554500D02*
X14977000Y-12575500D01*
X15192000Y-11937000D02*
X15213000Y-11958000D01*
X15213000Y-11937000D02*
X15192000Y-11958000D01*
X15205410Y-12371120D02*
X15226410Y-12392120D01*
X15226410Y-12371120D02*
X15205410Y-12392120D01*
X15259500Y-10859500D02*
X15280500Y-10880500D01*
X15280500Y-10859500D02*
X15259500Y-10880500D01*
X15482000Y-11937000D02*
X15503000Y-11958000D01*
X15503000Y-11937000D02*
X15482000Y-11958000D01*
X15497000Y-12279500D02*
X15518000Y-12300500D01*
X15518000Y-12279500D02*
X15497000Y-12300500D01*
X15762000Y-12177000D02*
X15783000Y-12198000D01*
X15783000Y-12177000D02*
X15762000Y-12198000D01*
X15849000Y-11223000D02*
X15870000Y-11244000D01*
X15870000Y-11223000D02*
X15849000Y-11244000D01*
X15912000Y-10884500D02*
X15933000Y-10905500D01*
X15933000Y-10884500D02*
X15912000Y-10905500D01*
X15995500Y-11609500D02*
X16016500Y-11630500D01*
X16016500Y-11609500D02*
X15995500Y-11630500D01*
X16019500Y-12894500D02*
X16040500Y-12915500D01*
X16040500Y-12894500D02*
X16019500Y-12915500D01*
X16102000Y-12279500D02*
X16123000Y-12300500D01*
X16123000Y-12279500D02*
X16102000Y-12300500D01*
X16109500Y-12374500D02*
X16130500Y-12395500D01*
X16130500Y-12374500D02*
X16109500Y-12395500D01*
X16114500Y-11939500D02*
X16135500Y-11960500D01*
X16135500Y-11939500D02*
X16114500Y-11960500D01*
X16184500Y-12599500D02*
X16205500Y-12620500D01*
X16205500Y-12599500D02*
X16184500Y-12620500D01*
X16187214Y-11564372D02*
X16208214Y-11585372D01*
X16208214Y-11564372D02*
X16187214Y-11585372D01*
X16267000Y-10882000D02*
X16288000Y-10903000D01*
X16288000Y-10882000D02*
X16267000Y-10903000D01*
X16282000Y-12079500D02*
X16303000Y-12100500D01*
X16303000Y-12079500D02*
X16282000Y-12100500D01*
X16329500Y-8119500D02*
X16350500Y-8140500D01*
X16350500Y-8119500D02*
X16329500Y-8140500D01*
X16339500Y-9639500D02*
X16360500Y-9660500D01*
X16360500Y-9639500D02*
X16339500Y-9660500D01*
X16340410Y-10256660D02*
X16361410Y-10277660D01*
X16361410Y-10256660D02*
X16340410Y-10277660D01*
X16364500Y-8614500D02*
X16385500Y-8635500D01*
X16385500Y-8614500D02*
X16364500Y-8635500D01*
X16429500Y-12373660D02*
X16450500Y-12394660D01*
X16450500Y-12373660D02*
X16429500Y-12394660D01*
X16444500Y-12594500D02*
X16465500Y-12615500D01*
X16465500Y-12594500D02*
X16444500Y-12615500D01*
X16524500Y-11437000D02*
X16545500Y-11458000D01*
X16545500Y-11437000D02*
X16524500Y-11458000D01*
X16569500Y-10687000D02*
X16590500Y-10708000D01*
X16590500Y-10687000D02*
X16569500Y-10708000D01*
X16629500Y-11679500D02*
X16650500Y-11700500D01*
X16650500Y-11679500D02*
X16629500Y-11700500D01*
X16652000Y-11472000D02*
X16673000Y-11493000D01*
X16673000Y-11472000D02*
X16652000Y-11493000D01*
X16659500Y-10359500D02*
X16680500Y-10380500D01*
X16680500Y-10359500D02*
X16659500Y-10380500D01*
X16689399Y-11242887D02*
X16710399Y-11263887D01*
X16710399Y-11242887D02*
X16689399Y-11263887D01*
X16724500Y-12312000D02*
X16745500Y-12333000D01*
X16745500Y-12312000D02*
X16724500Y-12333000D01*
X16767000Y-11874500D02*
X16788000Y-11895500D01*
X16788000Y-11874500D02*
X16767000Y-11895500D01*
X16801500Y-11197610D02*
X16822500Y-11218610D01*
X16822500Y-11197610D02*
X16801500Y-11218610D01*
X16809500Y-11367000D02*
X16830500Y-11388000D01*
X16830500Y-11367000D02*
X16809500Y-11388000D01*
X16852014Y-11675046D02*
X16873014Y-11696046D01*
X16873014Y-11675046D02*
X16852014Y-11696046D01*
X16869000Y-11158500D02*
X16890000Y-11179500D01*
X16890000Y-11158500D02*
X16869000Y-11179500D01*
X16884500Y-11342000D02*
X16905500Y-11363000D01*
X16905500Y-11342000D02*
X16884500Y-11363000D01*
X16916500Y-11532000D02*
X16937500Y-11553000D01*
X16937500Y-11532000D02*
X16916500Y-11553000D01*
X16919500Y-11092000D02*
X16940500Y-11113000D01*
X16940500Y-11092000D02*
X16919500Y-11113000D01*
X16925128Y-11699200D02*
X16946128Y-11720200D01*
X16946128Y-11699200D02*
X16925128Y-11720200D01*
X16927000Y-10889500D02*
X16948000Y-10910500D01*
X16948000Y-10889500D02*
X16927000Y-10910500D01*
X16934500Y-12694500D02*
X16955500Y-12715500D01*
X16955500Y-12694500D02*
X16934500Y-12715500D01*
X16944845Y-11995600D02*
X16965845Y-12016600D01*
X16965845Y-11995600D02*
X16944845Y-12016600D01*
X16979500Y-10679500D02*
X17000500Y-10700500D01*
X17000500Y-10679500D02*
X16979500Y-10700500D01*
X17014500Y-11924500D02*
X17035500Y-11945500D01*
X17035500Y-11924500D02*
X17014500Y-11945500D01*
X17019500Y-11689500D02*
X17040500Y-11710500D01*
X17040500Y-11689500D02*
X17019500Y-11710500D01*
X17067000Y-12314500D02*
X17088000Y-12335500D01*
X17088000Y-12314500D02*
X17067000Y-12335500D01*
X17074500Y-10809500D02*
X17095500Y-10830500D01*
X17095500Y-10809500D02*
X17074500Y-10830500D01*
X17115490Y-9830100D02*
X17136490Y-9851100D01*
X17136490Y-9830100D02*
X17115490Y-9851100D01*
X17160750Y-10768250D02*
X17181750Y-10789250D01*
X17181750Y-10768250D02*
X17160750Y-10789250D01*
X17189500Y-12824500D02*
X17210500Y-12845500D01*
X17210500Y-12824500D02*
X17189500Y-12845500D01*
X17251085Y-11720446D02*
X17272085Y-11741446D01*
X17272085Y-11720446D02*
X17251085Y-11741446D01*
X17252000Y-10567000D02*
X17273000Y-10588000D01*
X17273000Y-10567000D02*
X17252000Y-10588000D01*
X17254500Y-10764500D02*
X17275500Y-10785500D01*
X17275500Y-10764500D02*
X17254500Y-10785500D01*
X17269500Y-12594500D02*
X17290500Y-12615500D01*
X17290500Y-12594500D02*
X17269500Y-12615500D01*
X17304500Y-11439500D02*
X17325500Y-11460500D01*
X17325500Y-11439500D02*
X17304500Y-11460500D01*
X17309500Y-11059500D02*
X17330500Y-11080500D01*
X17330500Y-11059500D02*
X17309500Y-11080500D01*
X17329500Y-11719481D02*
X17350500Y-11740481D01*
X17350500Y-11719481D02*
X17329500Y-11740481D01*
X17337000Y-12882000D02*
X17358000Y-12903000D01*
X17358000Y-12882000D02*
X17337000Y-12903000D01*
X17358690Y-8435040D02*
X17379690Y-8456040D01*
X17379690Y-8435040D02*
X17358690Y-8456040D01*
X17369500Y-12179500D02*
X17390500Y-12200500D01*
X17390500Y-12179500D02*
X17369500Y-12200500D01*
X17386788Y-12045432D02*
X17407788Y-12066432D01*
X17407788Y-12045432D02*
X17386788Y-12066432D01*
X17389500Y-9589500D02*
X17410500Y-9610500D01*
X17410500Y-9589500D02*
X17389500Y-9610500D01*
X17404500Y-10317000D02*
X17425500Y-10338000D01*
X17425500Y-10317000D02*
X17404500Y-10338000D01*
X17419500Y-12361100D02*
X17440500Y-12382100D01*
X17440500Y-12361100D02*
X17419500Y-12382100D01*
X17429500Y-12109500D02*
X17450500Y-12130500D01*
X17450500Y-12109500D02*
X17429500Y-12130500D01*
X17452000Y-12674500D02*
X17473000Y-12695500D01*
X17473000Y-12674500D02*
X17452000Y-12695500D01*
X17462000Y-12462000D02*
X17483000Y-12483000D01*
X17483000Y-12462000D02*
X17462000Y-12483000D01*
X17469500Y-10589500D02*
X17490500Y-10610500D01*
X17490500Y-10589500D02*
X17469500Y-10610500D01*
X17482000Y-11447000D02*
X17503000Y-11468000D01*
X17503000Y-11447000D02*
X17482000Y-11468000D01*
X17491110Y-11119582D02*
X17512110Y-11140582D01*
X17512110Y-11119582D02*
X17491110Y-11140582D01*
X17494500Y-12154500D02*
X17515500Y-12175500D01*
X17515500Y-12154500D02*
X17494500Y-12175500D01*
X17499500Y-10779500D02*
X17520500Y-10800500D01*
X17520500Y-10779500D02*
X17499500Y-10800500D01*
X17509500Y-9929500D02*
X17530500Y-9950500D01*
X17530500Y-9929500D02*
X17509500Y-9950500D01*
X17563050Y-9092440D02*
X17584050Y-9113440D01*
X17584050Y-9092440D02*
X17563050Y-9113440D01*
X17659500Y-10189500D02*
X17680500Y-10210500D01*
X17680500Y-10189500D02*
X17659500Y-10210500D01*
X17679890Y-8406640D02*
X17700890Y-8427640D01*
X17700890Y-8406640D02*
X17679890Y-8427640D01*
X17689500Y-11704251D02*
X17710500Y-11725251D01*
X17710500Y-11704251D02*
X17689500Y-11725251D01*
X17694500Y-9572000D02*
X17715500Y-9593000D01*
X17715500Y-9572000D02*
X17694500Y-9593000D01*
X17704500Y-10699500D02*
X17725500Y-10720500D01*
X17725500Y-10699500D02*
X17704500Y-10720500D01*
X17744500Y-11619500D02*
X17765500Y-11640500D01*
X17765500Y-11619500D02*
X17744500Y-11640500D01*
X17769500Y-9039500D02*
X17790500Y-9060500D01*
X17790500Y-9039500D02*
X17769500Y-9060500D01*
X17777000Y-12302000D02*
X17798000Y-12323000D01*
X17798000Y-12302000D02*
X17777000Y-12323000D01*
X17810078Y-11559500D02*
X17831078Y-11580500D01*
X17831078Y-11559500D02*
X17810078Y-11580500D01*
X17859500Y-10392000D02*
X17880500Y-10413000D01*
X17880500Y-10392000D02*
X17859500Y-10413000D01*
X17869500Y-9779500D02*
X17890500Y-9800500D01*
X17890500Y-9779500D02*
X17869500Y-9800500D01*
X17870499Y-11506979D02*
X17891499Y-11527979D01*
X17891499Y-11506979D02*
X17870499Y-11527979D01*
X17882000Y-10709500D02*
X17903000Y-10730500D01*
X17903000Y-10709500D02*
X17882000Y-10730500D01*
X17906926Y-11439141D02*
X17927926Y-11460141D01*
X17927926Y-11439141D02*
X17906926Y-11460141D01*
X17907341Y-11353995D02*
X17928341Y-11374995D01*
X17928341Y-11353995D02*
X17907341Y-11374995D01*
X17919500Y-11022000D02*
X17940500Y-11043000D01*
X17940500Y-11022000D02*
X17919500Y-11043000D01*
X17929500Y-11119500D02*
X17950500Y-11140500D01*
X17950500Y-11119500D02*
X17929500Y-11140500D01*
X17929500Y-12749500D02*
X17950500Y-12770500D01*
X17950500Y-12749500D02*
X17929500Y-12770500D01*
X17964500Y-11667000D02*
X17985500Y-11688000D01*
X17985500Y-11667000D02*
X17964500Y-11688000D01*
X17984690Y-9092440D02*
X18005690Y-9113440D01*
X18005690Y-9092440D02*
X17984690Y-9113440D01*
X18012000Y-10829500D02*
X18033000Y-10850500D01*
X18033000Y-10829500D02*
X18012000Y-10850500D01*
X18089500Y-11329500D02*
X18110500Y-11350500D01*
X18110500Y-11329500D02*
X18089500Y-11350500D01*
X18089500Y-12734500D02*
X18110500Y-12755500D01*
X18110500Y-12734500D02*
X18089500Y-12755500D01*
X18187000Y-11277500D02*
X18208000Y-11298500D01*
X18208000Y-11277500D02*
X18187000Y-11298500D01*
X18217000Y-11529500D02*
X18238000Y-11550500D01*
X18238000Y-11529500D02*
X18217000Y-11550500D01*
X18219500Y-12279500D02*
X18240500Y-12300500D01*
X18240500Y-12279500D02*
X18219500Y-12300500D01*
X18274500Y-11277500D02*
X18295500Y-11298500D01*
X18295500Y-11277500D02*
X18274500Y-11298500D01*
X18296500Y-11589500D02*
X18317500Y-11610500D01*
X18317500Y-11589500D02*
X18296500Y-11610500D01*
X18296500Y-12519500D02*
X18317500Y-12540500D01*
X18317500Y-12519500D02*
X18296500Y-12540500D01*
X18364500Y-8464500D02*
X18385500Y-8485500D01*
X18385500Y-8464500D02*
X18364500Y-8485500D01*
X18364500Y-11859500D02*
X18385500Y-11880500D01*
X18385500Y-11859500D02*
X18364500Y-11880500D01*
X18365460Y-8900460D02*
X18386460Y-8921460D01*
X18386460Y-8900460D02*
X18365460Y-8921460D01*
X18449500Y-11499500D02*
X18470500Y-11520500D01*
X18470500Y-11499500D02*
X18449500Y-11520500D01*
X18452000Y-10427000D02*
X18473000Y-10448000D01*
X18473000Y-10427000D02*
X18452000Y-10448000D01*
X18467000Y-12429500D02*
X18488000Y-12450500D01*
X18488000Y-12429500D02*
X18467000Y-12450500D01*
X18479500Y-8834500D02*
X18500500Y-8855500D01*
X18500500Y-8834500D02*
X18479500Y-8855500D01*
X18486450Y-9303720D02*
X18507450Y-9324720D01*
X18507450Y-9303720D02*
X18486450Y-9324720D01*
X18527500Y-8446500D02*
X18548500Y-8467500D01*
X18548500Y-8446500D02*
X18527500Y-8467500D01*
X18559500Y-11724500D02*
X18580500Y-11745500D01*
X18580500Y-11724500D02*
X18559500Y-11745500D01*
X18559500Y-12724500D02*
X18580500Y-12745500D01*
X18580500Y-12724500D02*
X18559500Y-12745500D01*
X18584500Y-9809500D02*
X18605500Y-9830500D01*
X18605500Y-9809500D02*
X18584500Y-9830500D01*
X18654060Y-8273500D02*
X18675060Y-8294500D01*
X18675060Y-8273500D02*
X18654060Y-8294500D01*
X18658619Y-11109554D02*
X18679619Y-11130554D01*
X18679619Y-11109554D02*
X18658619Y-11130554D01*
X18669500Y-8119500D02*
X18690500Y-8140500D01*
X18690500Y-8119500D02*
X18669500Y-8140500D01*
X18687000Y-10589500D02*
X18708000Y-10610500D01*
X18708000Y-10589500D02*
X18687000Y-10610500D01*
X18714500Y-10819500D02*
X18735500Y-10840500D01*
X18735500Y-10819500D02*
X18714500Y-10840500D01*
X18779500Y-8932000D02*
X18800500Y-8953000D01*
X18800500Y-8932000D02*
X18779500Y-8953000D01*
X18853060Y-8369500D02*
X18874060Y-8390500D01*
X18874060Y-8369500D02*
X18853060Y-8390500D01*
X18876017Y-12089500D02*
X18897017Y-12110500D01*
X18897017Y-12089500D02*
X18876017Y-12110500D01*
X18877000Y-12199500D02*
X18898000Y-12220500D01*
X18898000Y-12199500D02*
X18877000Y-12220500D01*
X18887000Y-12739500D02*
X18908000Y-12760500D01*
X18908000Y-12739500D02*
X18887000Y-12760500D01*
X18919500Y-11289500D02*
X18940500Y-11310500D01*
X18940500Y-11289500D02*
X18919500Y-11310500D01*
X18929500Y-11944500D02*
X18950500Y-11965500D01*
X18950500Y-11944500D02*
X18929500Y-11965500D01*
X18944280Y-8456720D02*
X18965280Y-8477720D01*
X18965280Y-8456720D02*
X18944280Y-8477720D01*
X18952000Y-12309500D02*
X18973000Y-12330500D01*
X18973000Y-12309500D02*
X18952000Y-12330500D01*
X18979500Y-11349500D02*
X19000500Y-11370500D01*
X19000500Y-11349500D02*
X18979500Y-11370500D01*
X18984500Y-11509500D02*
X19005500Y-11530500D01*
X19005500Y-11509500D02*
X18984500Y-11530500D01*
X19009500Y-11199500D02*
X19030500Y-11220500D01*
X19030500Y-11199500D02*
X19009500Y-11220500D01*
X19024500Y-12414500D02*
X19045500Y-12435500D01*
X19045500Y-12414500D02*
X19024500Y-12435500D01*
X19042000Y-12309500D02*
X19063000Y-12330500D01*
X19063000Y-12309500D02*
X19042000Y-12330500D01*
X19059500Y-10804500D02*
X19080500Y-10825500D01*
X19080500Y-10804500D02*
X19059500Y-10825500D01*
X19077000Y-12639500D02*
X19098000Y-12660500D01*
X19098000Y-12639500D02*
X19077000Y-12660500D01*
X19079500Y-12529500D02*
X19100500Y-12550500D01*
X19100500Y-12529500D02*
X19079500Y-12550500D01*
X19089500Y-9709500D02*
X19110500Y-9730500D01*
X19110500Y-9709500D02*
X19089500Y-9730500D01*
X19119500Y-9079500D02*
X19140500Y-9100500D01*
X19140500Y-9079500D02*
X19119500Y-9100500D01*
X19209500Y-10469500D02*
X19230500Y-10490500D01*
X19230500Y-10469500D02*
X19209500Y-10490500D01*
X19212500Y-11196500D02*
X19233500Y-11217500D01*
X19233500Y-11196500D02*
X19212500Y-11217500D01*
X19255500Y-11749500D02*
X19276500Y-11770500D01*
X19276500Y-11749500D02*
X19255500Y-11770500D01*
X19277000Y-11589500D02*
X19298000Y-11610500D01*
X19298000Y-11589500D02*
X19277000Y-11610500D01*
X19312000Y-11112000D02*
X19333000Y-11133000D01*
X19333000Y-11112000D02*
X19312000Y-11133000D01*
X19336402Y-10934266D02*
X19357402Y-10955266D01*
X19357402Y-10934266D02*
X19336402Y-10955266D01*
X19349500Y-12839500D02*
X19370500Y-12860500D01*
X19370500Y-12839500D02*
X19349500Y-12860500D01*
X19423281Y-10926553D02*
X19444281Y-10947553D01*
X19444281Y-10926553D02*
X19423281Y-10947553D01*
X19424500Y-12527000D02*
X19445500Y-12548000D01*
X19445500Y-12527000D02*
X19424500Y-12548000D01*
X19443500Y-11519500D02*
X19464500Y-11540500D01*
X19464500Y-11519500D02*
X19443500Y-11540500D01*
X19622000Y-10884500D02*
X19643000Y-10905500D01*
X19643000Y-10884500D02*
X19622000Y-10905500D01*
X19623500Y-12006500D02*
X19644500Y-12027500D01*
X19644500Y-12006500D02*
X19623500Y-12027500D01*
X19642500Y-11325500D02*
X19663500Y-11346500D01*
X19663500Y-11325500D02*
X19642500Y-11346500D01*
X19692950Y-9042100D02*
X19713950Y-9063100D01*
X19713950Y-9042100D02*
X19692950Y-9063100D01*
X19730500Y-12429500D02*
X19751500Y-12450500D01*
X19751500Y-12429500D02*
X19730500Y-12450500D01*
X19769410Y-8224660D02*
X19790410Y-8245660D01*
X19790410Y-8224660D02*
X19769410Y-8245660D01*
X19832000Y-11522000D02*
X19853000Y-11543000D01*
X19853000Y-11522000D02*
X19832000Y-11543000D01*
X19897000Y-12664500D02*
X19918000Y-12685500D01*
X19918000Y-12664500D02*
X19897000Y-12685500D01*
X20004500Y-9987000D02*
X20025500Y-10008000D01*
X20025500Y-9987000D02*
X20004500Y-10008000D01*
X15520000Y-11220000D02*
G75*
G02*
X15490000Y-11220000I-15000J0D01*
G01*
X15490000Y-11220000D02*
G75*
G02*
X15520000Y-11220000I15000J0D01*
G01*
X15875000Y-11500000D02*
G75*
G02*
X15845000Y-11500000I-15000J0D01*
G01*
X15845000Y-11500000D02*
G75*
G02*
X15875000Y-11500000I15000J0D01*
G01*
X18190000Y-10900500D02*
X18190000Y-10935500D01*
X18172500Y-10918000D02*
X18207500Y-10918000D01*
X18370000Y-10882500D02*
X18370000Y-10917500D01*
X18352500Y-10900000D02*
X18387500Y-10900000D01*
X11062859Y-10098109D02*
X11062859Y-10048611D01*
X11013361Y-10048611D01*
X11013361Y-10098109D01*
X11062859Y-10098109D01*
X11064859Y-10355109D02*
X11064859Y-10305611D01*
X11015361Y-10305611D01*
X11015361Y-10355109D01*
X11064859Y-10355109D01*
X11209859Y-10225109D02*
X11209859Y-10175611D01*
X11160361Y-10175611D01*
X11160361Y-10225109D01*
X11209859Y-10225109D01*
X12584859Y-10101109D02*
X12584859Y-10051611D01*
X12535361Y-10051611D01*
X12535361Y-10101109D01*
X12584859Y-10101109D01*
X12586859Y-10352109D02*
X12586859Y-10302611D01*
X12537361Y-10302611D01*
X12537361Y-10352109D01*
X12586859Y-10352109D01*
X14112859Y-10798109D02*
X14112859Y-10748611D01*
X14063361Y-10748611D01*
X14063361Y-10798109D01*
X14112859Y-10798109D01*
X14114859Y-11055109D02*
X14114859Y-11005611D01*
X14065361Y-11005611D01*
X14065361Y-11055109D01*
X14114859Y-11055109D01*
X14259859Y-10925109D02*
X14259859Y-10875611D01*
X14210361Y-10875611D01*
X14210361Y-10925109D01*
X14259859Y-10925109D01*
X15634859Y-10801109D02*
X15634859Y-10751611D01*
X15585361Y-10751611D01*
X15585361Y-10801109D01*
X15634859Y-10801109D01*
X15636859Y-11052109D02*
X15636859Y-11002611D01*
X15587361Y-11002611D01*
X15587361Y-11052109D01*
X15636859Y-11052109D01*
X17162859Y-10098109D02*
X17162859Y-10048611D01*
X17113361Y-10048611D01*
X17113361Y-10098109D01*
X17162859Y-10098109D01*
X17164859Y-10355109D02*
X17164859Y-10305611D01*
X17115361Y-10305611D01*
X17115361Y-10355109D01*
X17164859Y-10355109D01*
X17309859Y-10225109D02*
X17309859Y-10175611D01*
X17260361Y-10175611D01*
X17260361Y-10225109D01*
X17309859Y-10225109D01*
X18684859Y-10101109D02*
X18684859Y-10051611D01*
X18635361Y-10051611D01*
X18635361Y-10101109D01*
X18684859Y-10101109D01*
X18686859Y-10352109D02*
X18686859Y-10302611D01*
X18637361Y-10302611D01*
X18637361Y-10352109D01*
X18686859Y-10352109D01*
X19790000Y-10755000D02*
X19832500Y-10712500D01*
X19790000Y-10670000D01*
X19747500Y-10712500D01*
X19790000Y-10755000D01*
X19790000Y-11240000D02*
X19832500Y-11197500D01*
X19790000Y-11155000D01*
X19747500Y-11197500D01*
X19790000Y-11240000D01*
X15167500Y-12497500D02*
X15267500Y-12597500D01*
X15267500Y-12497500D02*
X15167500Y-12597500D01*
X15267500Y-12547500D02*
G75*
G02*
X15167500Y-12547500I-50000J0D01*
G01*
X15167500Y-12547500D02*
G75*
G02*
X15267500Y-12547500I50000J0D01*
G01*
X15167500Y-12751500D02*
X15267500Y-12851500D01*
X15267500Y-12751500D02*
X15167500Y-12851500D01*
X15267500Y-12801500D02*
G75*
G02*
X15167500Y-12801500I-50000J0D01*
G01*
X15167500Y-12801500D02*
G75*
G02*
X15267500Y-12801500I50000J0D01*
G01*
X15421500Y-12497500D02*
X15521500Y-12597500D01*
X15521500Y-12497500D02*
X15421500Y-12597500D01*
X15521500Y-12547500D02*
G75*
G02*
X15421500Y-12547500I-50000J0D01*
G01*
X15421500Y-12547500D02*
G75*
G02*
X15521500Y-12547500I50000J0D01*
G01*
X15421500Y-12751500D02*
X15521500Y-12851500D01*
X15521500Y-12751500D02*
X15421500Y-12851500D01*
X15521500Y-12801500D02*
G75*
G02*
X15421500Y-12801500I-50000J0D01*
G01*
X15421500Y-12801500D02*
G75*
G02*
X15521500Y-12801500I50000J0D01*
G01*
X15675500Y-12497500D02*
X15775500Y-12597500D01*
X15775500Y-12497500D02*
X15675500Y-12597500D01*
X15775500Y-12547500D02*
G75*
G02*
X15675500Y-12547500I-50000J0D01*
G01*
X15675500Y-12547500D02*
G75*
G02*
X15775500Y-12547500I50000J0D01*
G01*
X15675500Y-12751500D02*
X15775500Y-12851500D01*
X15775500Y-12751500D02*
X15675500Y-12851500D01*
X15775500Y-12801500D02*
G75*
G02*
X15675500Y-12801500I-50000J0D01*
G01*
X15675500Y-12801500D02*
G75*
G02*
X15775500Y-12801500I50000J0D01*
G01*
D13*
X9674310Y-9839560D02*
X9775910Y-9941160D01*
X9775910Y-9839560D02*
X9674310Y-9941160D01*
X9725110Y-9839560D02*
X9725110Y-9941160D01*
X9674310Y-9890360D02*
X9775910Y-9890360D01*
X9674310Y-10093560D02*
X9775910Y-10195160D01*
X9775910Y-10093560D02*
X9674310Y-10195160D01*
X9725110Y-10093560D02*
X9725110Y-10195160D01*
X9674310Y-10144360D02*
X9775910Y-10144360D01*
X9674310Y-10347560D02*
X9775910Y-10449160D01*
X9775910Y-10347560D02*
X9674310Y-10449160D01*
X9725110Y-10347560D02*
X9725110Y-10449160D01*
X9674310Y-10398360D02*
X9775910Y-10398360D01*
X9674310Y-10601560D02*
X9775910Y-10703160D01*
X9775910Y-10601560D02*
X9674310Y-10703160D01*
X9725110Y-10601560D02*
X9725110Y-10703160D01*
X9674310Y-10652360D02*
X9775910Y-10652360D01*
X9674310Y-10855560D02*
X9775910Y-10957160D01*
X9775910Y-10855560D02*
X9674310Y-10957160D01*
X9725110Y-10855560D02*
X9725110Y-10957160D01*
X9674310Y-10906360D02*
X9775910Y-10906360D01*
X9674310Y-11109560D02*
X9775910Y-11211160D01*
X9775910Y-11109560D02*
X9674310Y-11211160D01*
X9725110Y-11109560D02*
X9725110Y-11211160D01*
X9674310Y-11160360D02*
X9775910Y-11160360D01*
X11241310Y-8349560D02*
X11342910Y-8451160D01*
X11342910Y-8349560D02*
X11241310Y-8451160D01*
X11292110Y-8349560D02*
X11292110Y-8451160D01*
X11241310Y-8400360D02*
X11342910Y-8400360D01*
X11495310Y-8349560D02*
X11596910Y-8451160D01*
X11596910Y-8349560D02*
X11495310Y-8451160D01*
X11546110Y-8349560D02*
X11546110Y-8451160D01*
X11495310Y-8400360D02*
X11596910Y-8400360D01*
X11749310Y-8349560D02*
X11850910Y-8451160D01*
X11850910Y-8349560D02*
X11749310Y-8451160D01*
X11800110Y-8349560D02*
X11800110Y-8451160D01*
X11749310Y-8400360D02*
X11850910Y-8400360D01*
X12003310Y-8349560D02*
X12104910Y-8451160D01*
X12104910Y-8349560D02*
X12003310Y-8451160D01*
X12054110Y-8349560D02*
X12054110Y-8451160D01*
X12003310Y-8400360D02*
X12104910Y-8400360D01*
X12257310Y-8349560D02*
X12358910Y-8451160D01*
X12358910Y-8349560D02*
X12257310Y-8451160D01*
X12308110Y-8349560D02*
X12308110Y-8451160D01*
X12257310Y-8400360D02*
X12358910Y-8400360D01*
X12600200Y-10967200D02*
X12701800Y-11068800D01*
X12701800Y-10967200D02*
X12600200Y-11068800D01*
X12651000Y-10967200D02*
X12651000Y-11068800D01*
X12600200Y-11018000D02*
X12701800Y-11018000D01*
X13095120Y-10967200D02*
X13196720Y-11068800D01*
X13196720Y-10967200D02*
X13095120Y-11068800D01*
X13145920Y-10967200D02*
X13145920Y-11068800D01*
X13095120Y-11018000D02*
X13196720Y-11018000D01*
X13864630Y-12522840D02*
X13966230Y-12624440D01*
X13966230Y-12522840D02*
X13864630Y-12624440D01*
X13915430Y-12522840D02*
X13915430Y-12624440D01*
X13864630Y-12573640D02*
X13966230Y-12573640D01*
X14118630Y-12522840D02*
X14220230Y-12624440D01*
X14220230Y-12522840D02*
X14118630Y-12624440D01*
X14169430Y-12522840D02*
X14169430Y-12624440D01*
X14118630Y-12573640D02*
X14220230Y-12573640D01*
X17518310Y-8171760D02*
X17619910Y-8273360D01*
X17619910Y-8171760D02*
X17518310Y-8273360D01*
X17569110Y-8171760D02*
X17569110Y-8273360D01*
X17518310Y-8222560D02*
X17619910Y-8222560D01*
X17772310Y-8171760D02*
X17873910Y-8273360D01*
X17873910Y-8171760D02*
X17772310Y-8273360D01*
X17823110Y-8171760D02*
X17823110Y-8273360D01*
X17772310Y-8222560D02*
X17873910Y-8222560D01*
X18026310Y-8171760D02*
X18127910Y-8273360D01*
X18127910Y-8171760D02*
X18026310Y-8273360D01*
X18077110Y-8171760D02*
X18077110Y-8273360D01*
X18026310Y-8222560D02*
X18127910Y-8222560D01*
X18280310Y-8171760D02*
X18381910Y-8273360D01*
X18381910Y-8171760D02*
X18280310Y-8273360D01*
X18331110Y-8171760D02*
X18331110Y-8273360D01*
X18280310Y-8222560D02*
X18381910Y-8222560D01*
D14*
X20015000Y-10520000D02*
X20165000Y-10670000D01*
X20165000Y-10520000D02*
X20015000Y-10670000D01*
X20143034Y-10648034D02*
X20143034Y-10541967D01*
X20036967Y-10541967D01*
X20036967Y-10648034D01*
X20143034Y-10648034D01*
X20015000Y-11240000D02*
X20165000Y-11390000D01*
X20165000Y-11240000D02*
X20015000Y-11390000D01*
X20143034Y-11368033D02*
X20143034Y-11261966D01*
X20036967Y-11261966D01*
X20036967Y-11368033D01*
X20143034Y-11368033D01*
D11*
X9698387Y-13324344D02*
X9698387Y-13124344D01*
X9698387Y-13124344D02*
X9746006Y-13124344D01*
X9746006Y-13124344D02*
X9774577Y-13133868D01*
X9774577Y-13133868D02*
X9793625Y-13152915D01*
X9793625Y-13152915D02*
X9803149Y-13171963D01*
X9803149Y-13171963D02*
X9812673Y-13210058D01*
X9812673Y-13210058D02*
X9812673Y-13238629D01*
X9812673Y-13238629D02*
X9803149Y-13276725D01*
X9803149Y-13276725D02*
X9793625Y-13295772D01*
X9793625Y-13295772D02*
X9774577Y-13314820D01*
X9774577Y-13314820D02*
X9746006Y-13324344D01*
X9746006Y-13324344D02*
X9698387Y-13324344D01*
X9898387Y-13324344D02*
X9898387Y-13191010D01*
X9898387Y-13229106D02*
X9907911Y-13210058D01*
X9907911Y-13210058D02*
X9917434Y-13200534D01*
X9917434Y-13200534D02*
X9936482Y-13191010D01*
X9936482Y-13191010D02*
X9955530Y-13191010D01*
X10022196Y-13324344D02*
X10022196Y-13191010D01*
X10022196Y-13124344D02*
X10012673Y-13133868D01*
X10012673Y-13133868D02*
X10022196Y-13143391D01*
X10022196Y-13143391D02*
X10031720Y-13133868D01*
X10031720Y-13133868D02*
X10022196Y-13124344D01*
X10022196Y-13124344D02*
X10022196Y-13143391D01*
X10146006Y-13324344D02*
X10126958Y-13314820D01*
X10126958Y-13314820D02*
X10117434Y-13295772D01*
X10117434Y-13295772D02*
X10117434Y-13124344D01*
X10250768Y-13324344D02*
X10231720Y-13314820D01*
X10231720Y-13314820D02*
X10222196Y-13295772D01*
X10222196Y-13295772D02*
X10222196Y-13124344D01*
X10479339Y-13324344D02*
X10479339Y-13124344D01*
X10479339Y-13124344D02*
X10546006Y-13267201D01*
X10546006Y-13267201D02*
X10612673Y-13124344D01*
X10612673Y-13124344D02*
X10612673Y-13324344D01*
X10793625Y-13324344D02*
X10793625Y-13219582D01*
X10793625Y-13219582D02*
X10784101Y-13200534D01*
X10784101Y-13200534D02*
X10765054Y-13191010D01*
X10765054Y-13191010D02*
X10726958Y-13191010D01*
X10726958Y-13191010D02*
X10707911Y-13200534D01*
X10793625Y-13314820D02*
X10774577Y-13324344D01*
X10774577Y-13324344D02*
X10726958Y-13324344D01*
X10726958Y-13324344D02*
X10707911Y-13314820D01*
X10707911Y-13314820D02*
X10698387Y-13295772D01*
X10698387Y-13295772D02*
X10698387Y-13276725D01*
X10698387Y-13276725D02*
X10707911Y-13257677D01*
X10707911Y-13257677D02*
X10726958Y-13248153D01*
X10726958Y-13248153D02*
X10774577Y-13248153D01*
X10774577Y-13248153D02*
X10793625Y-13238629D01*
X10888863Y-13191010D02*
X10888863Y-13391010D01*
X10888863Y-13200534D02*
X10907911Y-13191010D01*
X10907911Y-13191010D02*
X10946006Y-13191010D01*
X10946006Y-13191010D02*
X10965054Y-13200534D01*
X10965054Y-13200534D02*
X10974577Y-13210058D01*
X10974577Y-13210058D02*
X10984101Y-13229106D01*
X10984101Y-13229106D02*
X10984101Y-13286248D01*
X10984101Y-13286248D02*
X10974577Y-13305296D01*
X10974577Y-13305296D02*
X10965054Y-13314820D01*
X10965054Y-13314820D02*
X10946006Y-13324344D01*
X10946006Y-13324344D02*
X10907911Y-13324344D01*
X10907911Y-13324344D02*
X10888863Y-13314820D01*
X11069815Y-13305296D02*
X11079339Y-13314820D01*
X11079339Y-13314820D02*
X11069815Y-13324344D01*
X11069815Y-13324344D02*
X11060292Y-13314820D01*
X11060292Y-13314820D02*
X11069815Y-13305296D01*
X11069815Y-13305296D02*
X11069815Y-13324344D01*
X11069815Y-13200534D02*
X11079339Y-13210058D01*
X11079339Y-13210058D02*
X11069815Y-13219582D01*
X11069815Y-13219582D02*
X11060292Y-13210058D01*
X11060292Y-13210058D02*
X11069815Y-13200534D01*
X11069815Y-13200534D02*
X11069815Y-13219582D01*
D12*
X9416610Y-13642360D02*
X9437610Y-13663360D01*
X9437610Y-13642360D02*
X9416610Y-13663360D01*
D11*
X9736482Y-13544344D02*
X9755530Y-13544344D01*
X9755530Y-13544344D02*
X9774577Y-13553868D01*
X9774577Y-13553868D02*
X9784101Y-13563391D01*
X9784101Y-13563391D02*
X9793625Y-13582439D01*
X9793625Y-13582439D02*
X9803149Y-13620534D01*
X9803149Y-13620534D02*
X9803149Y-13668153D01*
X9803149Y-13668153D02*
X9793625Y-13706248D01*
X9793625Y-13706248D02*
X9784101Y-13725296D01*
X9784101Y-13725296D02*
X9774577Y-13734820D01*
X9774577Y-13734820D02*
X9755530Y-13744344D01*
X9755530Y-13744344D02*
X9736482Y-13744344D01*
X9736482Y-13744344D02*
X9717434Y-13734820D01*
X9717434Y-13734820D02*
X9707911Y-13725296D01*
X9707911Y-13725296D02*
X9698387Y-13706248D01*
X9698387Y-13706248D02*
X9688863Y-13668153D01*
X9688863Y-13668153D02*
X9688863Y-13620534D01*
X9688863Y-13620534D02*
X9698387Y-13582439D01*
X9698387Y-13582439D02*
X9707911Y-13563391D01*
X9707911Y-13563391D02*
X9717434Y-13553868D01*
X9717434Y-13553868D02*
X9736482Y-13544344D01*
X9888863Y-13725296D02*
X9898387Y-13734820D01*
X9898387Y-13734820D02*
X9888863Y-13744344D01*
X9888863Y-13744344D02*
X9879339Y-13734820D01*
X9879339Y-13734820D02*
X9888863Y-13725296D01*
X9888863Y-13725296D02*
X9888863Y-13744344D01*
X9974577Y-13563391D02*
X9984101Y-13553868D01*
X9984101Y-13553868D02*
X10003149Y-13544344D01*
X10003149Y-13544344D02*
X10050768Y-13544344D01*
X10050768Y-13544344D02*
X10069815Y-13553868D01*
X10069815Y-13553868D02*
X10079339Y-13563391D01*
X10079339Y-13563391D02*
X10088863Y-13582439D01*
X10088863Y-13582439D02*
X10088863Y-13601487D01*
X10088863Y-13601487D02*
X10079339Y-13630058D01*
X10079339Y-13630058D02*
X9965054Y-13744344D01*
X9965054Y-13744344D02*
X10088863Y-13744344D01*
X10279339Y-13744344D02*
X10165054Y-13744344D01*
X10222196Y-13744344D02*
X10222196Y-13544344D01*
X10222196Y-13544344D02*
X10203149Y-13572915D01*
X10203149Y-13572915D02*
X10184101Y-13591963D01*
X10184101Y-13591963D02*
X10165054Y-13601487D01*
X10403149Y-13544344D02*
X10422196Y-13544344D01*
X10422196Y-13544344D02*
X10441244Y-13553868D01*
X10441244Y-13553868D02*
X10450768Y-13563391D01*
X10450768Y-13563391D02*
X10460292Y-13582439D01*
X10460292Y-13582439D02*
X10469815Y-13620534D01*
X10469815Y-13620534D02*
X10469815Y-13668153D01*
X10469815Y-13668153D02*
X10460292Y-13706248D01*
X10460292Y-13706248D02*
X10450768Y-13725296D01*
X10450768Y-13725296D02*
X10441244Y-13734820D01*
X10441244Y-13734820D02*
X10422196Y-13744344D01*
X10422196Y-13744344D02*
X10403149Y-13744344D01*
X10403149Y-13744344D02*
X10384101Y-13734820D01*
X10384101Y-13734820D02*
X10374577Y-13725296D01*
X10374577Y-13725296D02*
X10365054Y-13706248D01*
X10365054Y-13706248D02*
X10355530Y-13668153D01*
X10355530Y-13668153D02*
X10355530Y-13620534D01*
X10355530Y-13620534D02*
X10365054Y-13582439D01*
X10365054Y-13582439D02*
X10374577Y-13563391D01*
X10374577Y-13563391D02*
X10384101Y-13553868D01*
X10384101Y-13553868D02*
X10403149Y-13544344D01*
X10555530Y-13744344D02*
X10555530Y-13611010D01*
X10555530Y-13630058D02*
X10565054Y-13620534D01*
X10565054Y-13620534D02*
X10584101Y-13611010D01*
X10584101Y-13611010D02*
X10612673Y-13611010D01*
X10612673Y-13611010D02*
X10631720Y-13620534D01*
X10631720Y-13620534D02*
X10641244Y-13639582D01*
X10641244Y-13639582D02*
X10641244Y-13744344D01*
X10641244Y-13639582D02*
X10650768Y-13620534D01*
X10650768Y-13620534D02*
X10669815Y-13611010D01*
X10669815Y-13611010D02*
X10698387Y-13611010D01*
X10698387Y-13611010D02*
X10717435Y-13620534D01*
X10717435Y-13620534D02*
X10726958Y-13639582D01*
X10726958Y-13639582D02*
X10726958Y-13744344D01*
X10822196Y-13744344D02*
X10822196Y-13611010D01*
X10822196Y-13630058D02*
X10831720Y-13620534D01*
X10831720Y-13620534D02*
X10850768Y-13611010D01*
X10850768Y-13611010D02*
X10879339Y-13611010D01*
X10879339Y-13611010D02*
X10898387Y-13620534D01*
X10898387Y-13620534D02*
X10907911Y-13639582D01*
X10907911Y-13639582D02*
X10907911Y-13744344D01*
X10907911Y-13639582D02*
X10917435Y-13620534D01*
X10917435Y-13620534D02*
X10936482Y-13611010D01*
X10936482Y-13611010D02*
X10965054Y-13611010D01*
X10965054Y-13611010D02*
X10984101Y-13620534D01*
X10984101Y-13620534D02*
X10993625Y-13639582D01*
X10993625Y-13639582D02*
X10993625Y-13744344D01*
X11384101Y-13534820D02*
X11212673Y-13791963D01*
X11641244Y-13544344D02*
X11660292Y-13544344D01*
X11660292Y-13544344D02*
X11679339Y-13553868D01*
X11679339Y-13553868D02*
X11688863Y-13563391D01*
X11688863Y-13563391D02*
X11698387Y-13582439D01*
X11698387Y-13582439D02*
X11707911Y-13620534D01*
X11707911Y-13620534D02*
X11707911Y-13668153D01*
X11707911Y-13668153D02*
X11698387Y-13706248D01*
X11698387Y-13706248D02*
X11688863Y-13725296D01*
X11688863Y-13725296D02*
X11679339Y-13734820D01*
X11679339Y-13734820D02*
X11660292Y-13744344D01*
X11660292Y-13744344D02*
X11641244Y-13744344D01*
X11641244Y-13744344D02*
X11622196Y-13734820D01*
X11622196Y-13734820D02*
X11612673Y-13725296D01*
X11612673Y-13725296D02*
X11603149Y-13706248D01*
X11603149Y-13706248D02*
X11593625Y-13668153D01*
X11593625Y-13668153D02*
X11593625Y-13620534D01*
X11593625Y-13620534D02*
X11603149Y-13582439D01*
X11603149Y-13582439D02*
X11612673Y-13563391D01*
X11612673Y-13563391D02*
X11622196Y-13553868D01*
X11622196Y-13553868D02*
X11641244Y-13544344D01*
X11793625Y-13725296D02*
X11803149Y-13734820D01*
X11803149Y-13734820D02*
X11793625Y-13744344D01*
X11793625Y-13744344D02*
X11784101Y-13734820D01*
X11784101Y-13734820D02*
X11793625Y-13725296D01*
X11793625Y-13725296D02*
X11793625Y-13744344D01*
X11926958Y-13544344D02*
X11946006Y-13544344D01*
X11946006Y-13544344D02*
X11965054Y-13553868D01*
X11965054Y-13553868D02*
X11974577Y-13563391D01*
X11974577Y-13563391D02*
X11984101Y-13582439D01*
X11984101Y-13582439D02*
X11993625Y-13620534D01*
X11993625Y-13620534D02*
X11993625Y-13668153D01*
X11993625Y-13668153D02*
X11984101Y-13706248D01*
X11984101Y-13706248D02*
X11974577Y-13725296D01*
X11974577Y-13725296D02*
X11965054Y-13734820D01*
X11965054Y-13734820D02*
X11946006Y-13744344D01*
X11946006Y-13744344D02*
X11926958Y-13744344D01*
X11926958Y-13744344D02*
X11907911Y-13734820D01*
X11907911Y-13734820D02*
X11898387Y-13725296D01*
X11898387Y-13725296D02*
X11888863Y-13706248D01*
X11888863Y-13706248D02*
X11879339Y-13668153D01*
X11879339Y-13668153D02*
X11879339Y-13620534D01*
X11879339Y-13620534D02*
X11888863Y-13582439D01*
X11888863Y-13582439D02*
X11898387Y-13563391D01*
X11898387Y-13563391D02*
X11907911Y-13553868D01*
X11907911Y-13553868D02*
X11926958Y-13544344D01*
X12117435Y-13544344D02*
X12136482Y-13544344D01*
X12136482Y-13544344D02*
X12155530Y-13553868D01*
X12155530Y-13553868D02*
X12165054Y-13563391D01*
X12165054Y-13563391D02*
X12174577Y-13582439D01*
X12174577Y-13582439D02*
X12184101Y-13620534D01*
X12184101Y-13620534D02*
X12184101Y-13668153D01*
X12184101Y-13668153D02*
X12174577Y-13706248D01*
X12174577Y-13706248D02*
X12165054Y-13725296D01*
X12165054Y-13725296D02*
X12155530Y-13734820D01*
X12155530Y-13734820D02*
X12136482Y-13744344D01*
X12136482Y-13744344D02*
X12117435Y-13744344D01*
X12117435Y-13744344D02*
X12098387Y-13734820D01*
X12098387Y-13734820D02*
X12088863Y-13725296D01*
X12088863Y-13725296D02*
X12079339Y-13706248D01*
X12079339Y-13706248D02*
X12069816Y-13668153D01*
X12069816Y-13668153D02*
X12069816Y-13620534D01*
X12069816Y-13620534D02*
X12079339Y-13582439D01*
X12079339Y-13582439D02*
X12088863Y-13563391D01*
X12088863Y-13563391D02*
X12098387Y-13553868D01*
X12098387Y-13553868D02*
X12117435Y-13544344D01*
X12298387Y-13630058D02*
X12279339Y-13620534D01*
X12279339Y-13620534D02*
X12269816Y-13611010D01*
X12269816Y-13611010D02*
X12260292Y-13591963D01*
X12260292Y-13591963D02*
X12260292Y-13582439D01*
X12260292Y-13582439D02*
X12269816Y-13563391D01*
X12269816Y-13563391D02*
X12279339Y-13553868D01*
X12279339Y-13553868D02*
X12298387Y-13544344D01*
X12298387Y-13544344D02*
X12336482Y-13544344D01*
X12336482Y-13544344D02*
X12355530Y-13553868D01*
X12355530Y-13553868D02*
X12365054Y-13563391D01*
X12365054Y-13563391D02*
X12374577Y-13582439D01*
X12374577Y-13582439D02*
X12374577Y-13591963D01*
X12374577Y-13591963D02*
X12365054Y-13611010D01*
X12365054Y-13611010D02*
X12355530Y-13620534D01*
X12355530Y-13620534D02*
X12336482Y-13630058D01*
X12336482Y-13630058D02*
X12298387Y-13630058D01*
X12298387Y-13630058D02*
X12279339Y-13639582D01*
X12279339Y-13639582D02*
X12269816Y-13649106D01*
X12269816Y-13649106D02*
X12260292Y-13668153D01*
X12260292Y-13668153D02*
X12260292Y-13706248D01*
X12260292Y-13706248D02*
X12269816Y-13725296D01*
X12269816Y-13725296D02*
X12279339Y-13734820D01*
X12279339Y-13734820D02*
X12298387Y-13744344D01*
X12298387Y-13744344D02*
X12336482Y-13744344D01*
X12336482Y-13744344D02*
X12355530Y-13734820D01*
X12355530Y-13734820D02*
X12365054Y-13725296D01*
X12365054Y-13725296D02*
X12374577Y-13706248D01*
X12374577Y-13706248D02*
X12374577Y-13668153D01*
X12374577Y-13668153D02*
X12365054Y-13649106D01*
X12365054Y-13649106D02*
X12355530Y-13639582D01*
X12355530Y-13639582D02*
X12336482Y-13630058D01*
X12441244Y-13544344D02*
X12565054Y-13544344D01*
X12565054Y-13544344D02*
X12498387Y-13620534D01*
X12498387Y-13620534D02*
X12526958Y-13620534D01*
X12526958Y-13620534D02*
X12546006Y-13630058D01*
X12546006Y-13630058D02*
X12555530Y-13639582D01*
X12555530Y-13639582D02*
X12565054Y-13658629D01*
X12565054Y-13658629D02*
X12565054Y-13706248D01*
X12565054Y-13706248D02*
X12555530Y-13725296D01*
X12555530Y-13725296D02*
X12546006Y-13734820D01*
X12546006Y-13734820D02*
X12526958Y-13744344D01*
X12526958Y-13744344D02*
X12469816Y-13744344D01*
X12469816Y-13744344D02*
X12450768Y-13734820D01*
X12450768Y-13734820D02*
X12441244Y-13725296D01*
X12641244Y-13544344D02*
X12641244Y-13582439D01*
X12717435Y-13544344D02*
X12717435Y-13582439D01*
X13012673Y-13820534D02*
X13003149Y-13811010D01*
X13003149Y-13811010D02*
X12984101Y-13782439D01*
X12984101Y-13782439D02*
X12974578Y-13763391D01*
X12974578Y-13763391D02*
X12965054Y-13734820D01*
X12965054Y-13734820D02*
X12955530Y-13687201D01*
X12955530Y-13687201D02*
X12955530Y-13649106D01*
X12955530Y-13649106D02*
X12965054Y-13601487D01*
X12965054Y-13601487D02*
X12974578Y-13572915D01*
X12974578Y-13572915D02*
X12984101Y-13553868D01*
X12984101Y-13553868D02*
X13003149Y-13525296D01*
X13003149Y-13525296D02*
X13012673Y-13515772D01*
X13079339Y-13563391D02*
X13088863Y-13553868D01*
X13088863Y-13553868D02*
X13107911Y-13544344D01*
X13107911Y-13544344D02*
X13155530Y-13544344D01*
X13155530Y-13544344D02*
X13174578Y-13553868D01*
X13174578Y-13553868D02*
X13184101Y-13563391D01*
X13184101Y-13563391D02*
X13193625Y-13582439D01*
X13193625Y-13582439D02*
X13193625Y-13601487D01*
X13193625Y-13601487D02*
X13184101Y-13630058D01*
X13184101Y-13630058D02*
X13069816Y-13744344D01*
X13069816Y-13744344D02*
X13193625Y-13744344D01*
X13365054Y-13544344D02*
X13326958Y-13544344D01*
X13326958Y-13544344D02*
X13307911Y-13553868D01*
X13307911Y-13553868D02*
X13298387Y-13563391D01*
X13298387Y-13563391D02*
X13279339Y-13591963D01*
X13279339Y-13591963D02*
X13269816Y-13630058D01*
X13269816Y-13630058D02*
X13269816Y-13706248D01*
X13269816Y-13706248D02*
X13279339Y-13725296D01*
X13279339Y-13725296D02*
X13288863Y-13734820D01*
X13288863Y-13734820D02*
X13307911Y-13744344D01*
X13307911Y-13744344D02*
X13346006Y-13744344D01*
X13346006Y-13744344D02*
X13365054Y-13734820D01*
X13365054Y-13734820D02*
X13374578Y-13725296D01*
X13374578Y-13725296D02*
X13384101Y-13706248D01*
X13384101Y-13706248D02*
X13384101Y-13658629D01*
X13384101Y-13658629D02*
X13374578Y-13639582D01*
X13374578Y-13639582D02*
X13365054Y-13630058D01*
X13365054Y-13630058D02*
X13346006Y-13620534D01*
X13346006Y-13620534D02*
X13307911Y-13620534D01*
X13307911Y-13620534D02*
X13288863Y-13630058D01*
X13288863Y-13630058D02*
X13279339Y-13639582D01*
X13279339Y-13639582D02*
X13269816Y-13658629D01*
X13565054Y-13544344D02*
X13469816Y-13544344D01*
X13469816Y-13544344D02*
X13460292Y-13639582D01*
X13460292Y-13639582D02*
X13469816Y-13630058D01*
X13469816Y-13630058D02*
X13488863Y-13620534D01*
X13488863Y-13620534D02*
X13536482Y-13620534D01*
X13536482Y-13620534D02*
X13555530Y-13630058D01*
X13555530Y-13630058D02*
X13565054Y-13639582D01*
X13565054Y-13639582D02*
X13574578Y-13658629D01*
X13574578Y-13658629D02*
X13574578Y-13706248D01*
X13574578Y-13706248D02*
X13565054Y-13725296D01*
X13565054Y-13725296D02*
X13555530Y-13734820D01*
X13555530Y-13734820D02*
X13536482Y-13744344D01*
X13536482Y-13744344D02*
X13488863Y-13744344D01*
X13488863Y-13744344D02*
X13469816Y-13734820D01*
X13469816Y-13734820D02*
X13460292Y-13725296D01*
X13812673Y-13744344D02*
X13812673Y-13544344D01*
X13898387Y-13744344D02*
X13898387Y-13639582D01*
X13898387Y-13639582D02*
X13888863Y-13620534D01*
X13888863Y-13620534D02*
X13869816Y-13611010D01*
X13869816Y-13611010D02*
X13841244Y-13611010D01*
X13841244Y-13611010D02*
X13822197Y-13620534D01*
X13822197Y-13620534D02*
X13812673Y-13630058D01*
X14022197Y-13744344D02*
X14003149Y-13734820D01*
X14003149Y-13734820D02*
X13993625Y-13725296D01*
X13993625Y-13725296D02*
X13984101Y-13706248D01*
X13984101Y-13706248D02*
X13984101Y-13649106D01*
X13984101Y-13649106D02*
X13993625Y-13630058D01*
X13993625Y-13630058D02*
X14003149Y-13620534D01*
X14003149Y-13620534D02*
X14022197Y-13611010D01*
X14022197Y-13611010D02*
X14050768Y-13611010D01*
X14050768Y-13611010D02*
X14069816Y-13620534D01*
X14069816Y-13620534D02*
X14079340Y-13630058D01*
X14079340Y-13630058D02*
X14088863Y-13649106D01*
X14088863Y-13649106D02*
X14088863Y-13706248D01*
X14088863Y-13706248D02*
X14079340Y-13725296D01*
X14079340Y-13725296D02*
X14069816Y-13734820D01*
X14069816Y-13734820D02*
X14050768Y-13744344D01*
X14050768Y-13744344D02*
X14022197Y-13744344D01*
X14203149Y-13744344D02*
X14184101Y-13734820D01*
X14184101Y-13734820D02*
X14174578Y-13715772D01*
X14174578Y-13715772D02*
X14174578Y-13544344D01*
X14355530Y-13734820D02*
X14336482Y-13744344D01*
X14336482Y-13744344D02*
X14298387Y-13744344D01*
X14298387Y-13744344D02*
X14279340Y-13734820D01*
X14279340Y-13734820D02*
X14269816Y-13715772D01*
X14269816Y-13715772D02*
X14269816Y-13639582D01*
X14269816Y-13639582D02*
X14279340Y-13620534D01*
X14279340Y-13620534D02*
X14298387Y-13611010D01*
X14298387Y-13611010D02*
X14336482Y-13611010D01*
X14336482Y-13611010D02*
X14355530Y-13620534D01*
X14355530Y-13620534D02*
X14365054Y-13639582D01*
X14365054Y-13639582D02*
X14365054Y-13658629D01*
X14365054Y-13658629D02*
X14269816Y-13677677D01*
X14441244Y-13734820D02*
X14460292Y-13744344D01*
X14460292Y-13744344D02*
X14498387Y-13744344D01*
X14498387Y-13744344D02*
X14517435Y-13734820D01*
X14517435Y-13734820D02*
X14526959Y-13715772D01*
X14526959Y-13715772D02*
X14526959Y-13706248D01*
X14526959Y-13706248D02*
X14517435Y-13687201D01*
X14517435Y-13687201D02*
X14498387Y-13677677D01*
X14498387Y-13677677D02*
X14469816Y-13677677D01*
X14469816Y-13677677D02*
X14450768Y-13668153D01*
X14450768Y-13668153D02*
X14441244Y-13649106D01*
X14441244Y-13649106D02*
X14441244Y-13639582D01*
X14441244Y-13639582D02*
X14450768Y-13620534D01*
X14450768Y-13620534D02*
X14469816Y-13611010D01*
X14469816Y-13611010D02*
X14498387Y-13611010D01*
X14498387Y-13611010D02*
X14517435Y-13620534D01*
X14593625Y-13820534D02*
X14603149Y-13811010D01*
X14603149Y-13811010D02*
X14622197Y-13782439D01*
X14622197Y-13782439D02*
X14631721Y-13763391D01*
X14631721Y-13763391D02*
X14641244Y-13734820D01*
X14641244Y-13734820D02*
X14650768Y-13687201D01*
X14650768Y-13687201D02*
X14650768Y-13649106D01*
X14650768Y-13649106D02*
X14641244Y-13601487D01*
X14641244Y-13601487D02*
X14631721Y-13572915D01*
X14631721Y-13572915D02*
X14622197Y-13553868D01*
X14622197Y-13553868D02*
X14603149Y-13525296D01*
X14603149Y-13525296D02*
X14593625Y-13515772D01*
D12*
X9437610Y-13916860D02*
G75*
G02*
X9407610Y-13916860I-15000J0D01*
G01*
X9407610Y-13916860D02*
G75*
G02*
X9437610Y-13916860I15000J0D01*
G01*
D11*
X9736482Y-13808344D02*
X9755530Y-13808344D01*
X9755530Y-13808344D02*
X9774577Y-13817868D01*
X9774577Y-13817868D02*
X9784101Y-13827391D01*
X9784101Y-13827391D02*
X9793625Y-13846439D01*
X9793625Y-13846439D02*
X9803149Y-13884534D01*
X9803149Y-13884534D02*
X9803149Y-13932153D01*
X9803149Y-13932153D02*
X9793625Y-13970248D01*
X9793625Y-13970248D02*
X9784101Y-13989296D01*
X9784101Y-13989296D02*
X9774577Y-13998820D01*
X9774577Y-13998820D02*
X9755530Y-14008344D01*
X9755530Y-14008344D02*
X9736482Y-14008344D01*
X9736482Y-14008344D02*
X9717434Y-13998820D01*
X9717434Y-13998820D02*
X9707911Y-13989296D01*
X9707911Y-13989296D02*
X9698387Y-13970248D01*
X9698387Y-13970248D02*
X9688863Y-13932153D01*
X9688863Y-13932153D02*
X9688863Y-13884534D01*
X9688863Y-13884534D02*
X9698387Y-13846439D01*
X9698387Y-13846439D02*
X9707911Y-13827391D01*
X9707911Y-13827391D02*
X9717434Y-13817868D01*
X9717434Y-13817868D02*
X9736482Y-13808344D01*
X9888863Y-13989296D02*
X9898387Y-13998820D01*
X9898387Y-13998820D02*
X9888863Y-14008344D01*
X9888863Y-14008344D02*
X9879339Y-13998820D01*
X9879339Y-13998820D02*
X9888863Y-13989296D01*
X9888863Y-13989296D02*
X9888863Y-14008344D01*
X9965054Y-13808344D02*
X10088863Y-13808344D01*
X10088863Y-13808344D02*
X10022196Y-13884534D01*
X10022196Y-13884534D02*
X10050768Y-13884534D01*
X10050768Y-13884534D02*
X10069815Y-13894058D01*
X10069815Y-13894058D02*
X10079339Y-13903582D01*
X10079339Y-13903582D02*
X10088863Y-13922629D01*
X10088863Y-13922629D02*
X10088863Y-13970248D01*
X10088863Y-13970248D02*
X10079339Y-13989296D01*
X10079339Y-13989296D02*
X10069815Y-13998820D01*
X10069815Y-13998820D02*
X10050768Y-14008344D01*
X10050768Y-14008344D02*
X9993625Y-14008344D01*
X9993625Y-14008344D02*
X9974577Y-13998820D01*
X9974577Y-13998820D02*
X9965054Y-13989296D01*
X10212673Y-13808344D02*
X10231720Y-13808344D01*
X10231720Y-13808344D02*
X10250768Y-13817868D01*
X10250768Y-13817868D02*
X10260292Y-13827391D01*
X10260292Y-13827391D02*
X10269815Y-13846439D01*
X10269815Y-13846439D02*
X10279339Y-13884534D01*
X10279339Y-13884534D02*
X10279339Y-13932153D01*
X10279339Y-13932153D02*
X10269815Y-13970248D01*
X10269815Y-13970248D02*
X10260292Y-13989296D01*
X10260292Y-13989296D02*
X10250768Y-13998820D01*
X10250768Y-13998820D02*
X10231720Y-14008344D01*
X10231720Y-14008344D02*
X10212673Y-14008344D01*
X10212673Y-14008344D02*
X10193625Y-13998820D01*
X10193625Y-13998820D02*
X10184101Y-13989296D01*
X10184101Y-13989296D02*
X10174577Y-13970248D01*
X10174577Y-13970248D02*
X10165054Y-13932153D01*
X10165054Y-13932153D02*
X10165054Y-13884534D01*
X10165054Y-13884534D02*
X10174577Y-13846439D01*
X10174577Y-13846439D02*
X10184101Y-13827391D01*
X10184101Y-13827391D02*
X10193625Y-13817868D01*
X10193625Y-13817868D02*
X10212673Y-13808344D01*
X10403149Y-13808344D02*
X10422196Y-13808344D01*
X10422196Y-13808344D02*
X10441244Y-13817868D01*
X10441244Y-13817868D02*
X10450768Y-13827391D01*
X10450768Y-13827391D02*
X10460292Y-13846439D01*
X10460292Y-13846439D02*
X10469815Y-13884534D01*
X10469815Y-13884534D02*
X10469815Y-13932153D01*
X10469815Y-13932153D02*
X10460292Y-13970248D01*
X10460292Y-13970248D02*
X10450768Y-13989296D01*
X10450768Y-13989296D02*
X10441244Y-13998820D01*
X10441244Y-13998820D02*
X10422196Y-14008344D01*
X10422196Y-14008344D02*
X10403149Y-14008344D01*
X10403149Y-14008344D02*
X10384101Y-13998820D01*
X10384101Y-13998820D02*
X10374577Y-13989296D01*
X10374577Y-13989296D02*
X10365054Y-13970248D01*
X10365054Y-13970248D02*
X10355530Y-13932153D01*
X10355530Y-13932153D02*
X10355530Y-13884534D01*
X10355530Y-13884534D02*
X10365054Y-13846439D01*
X10365054Y-13846439D02*
X10374577Y-13827391D01*
X10374577Y-13827391D02*
X10384101Y-13817868D01*
X10384101Y-13817868D02*
X10403149Y-13808344D01*
X10555530Y-14008344D02*
X10555530Y-13875010D01*
X10555530Y-13894058D02*
X10565054Y-13884534D01*
X10565054Y-13884534D02*
X10584101Y-13875010D01*
X10584101Y-13875010D02*
X10612673Y-13875010D01*
X10612673Y-13875010D02*
X10631720Y-13884534D01*
X10631720Y-13884534D02*
X10641244Y-13903582D01*
X10641244Y-13903582D02*
X10641244Y-14008344D01*
X10641244Y-13903582D02*
X10650768Y-13884534D01*
X10650768Y-13884534D02*
X10669815Y-13875010D01*
X10669815Y-13875010D02*
X10698387Y-13875010D01*
X10698387Y-13875010D02*
X10717435Y-13884534D01*
X10717435Y-13884534D02*
X10726958Y-13903582D01*
X10726958Y-13903582D02*
X10726958Y-14008344D01*
X10822196Y-14008344D02*
X10822196Y-13875010D01*
X10822196Y-13894058D02*
X10831720Y-13884534D01*
X10831720Y-13884534D02*
X10850768Y-13875010D01*
X10850768Y-13875010D02*
X10879339Y-13875010D01*
X10879339Y-13875010D02*
X10898387Y-13884534D01*
X10898387Y-13884534D02*
X10907911Y-13903582D01*
X10907911Y-13903582D02*
X10907911Y-14008344D01*
X10907911Y-13903582D02*
X10917435Y-13884534D01*
X10917435Y-13884534D02*
X10936482Y-13875010D01*
X10936482Y-13875010D02*
X10965054Y-13875010D01*
X10965054Y-13875010D02*
X10984101Y-13884534D01*
X10984101Y-13884534D02*
X10993625Y-13903582D01*
X10993625Y-13903582D02*
X10993625Y-14008344D01*
X11384101Y-13798820D02*
X11212673Y-14055963D01*
X11641244Y-13808344D02*
X11660292Y-13808344D01*
X11660292Y-13808344D02*
X11679339Y-13817868D01*
X11679339Y-13817868D02*
X11688863Y-13827391D01*
X11688863Y-13827391D02*
X11698387Y-13846439D01*
X11698387Y-13846439D02*
X11707911Y-13884534D01*
X11707911Y-13884534D02*
X11707911Y-13932153D01*
X11707911Y-13932153D02*
X11698387Y-13970248D01*
X11698387Y-13970248D02*
X11688863Y-13989296D01*
X11688863Y-13989296D02*
X11679339Y-13998820D01*
X11679339Y-13998820D02*
X11660292Y-14008344D01*
X11660292Y-14008344D02*
X11641244Y-14008344D01*
X11641244Y-14008344D02*
X11622196Y-13998820D01*
X11622196Y-13998820D02*
X11612673Y-13989296D01*
X11612673Y-13989296D02*
X11603149Y-13970248D01*
X11603149Y-13970248D02*
X11593625Y-13932153D01*
X11593625Y-13932153D02*
X11593625Y-13884534D01*
X11593625Y-13884534D02*
X11603149Y-13846439D01*
X11603149Y-13846439D02*
X11612673Y-13827391D01*
X11612673Y-13827391D02*
X11622196Y-13817868D01*
X11622196Y-13817868D02*
X11641244Y-13808344D01*
X11793625Y-13989296D02*
X11803149Y-13998820D01*
X11803149Y-13998820D02*
X11793625Y-14008344D01*
X11793625Y-14008344D02*
X11784101Y-13998820D01*
X11784101Y-13998820D02*
X11793625Y-13989296D01*
X11793625Y-13989296D02*
X11793625Y-14008344D01*
X11926958Y-13808344D02*
X11946006Y-13808344D01*
X11946006Y-13808344D02*
X11965054Y-13817868D01*
X11965054Y-13817868D02*
X11974577Y-13827391D01*
X11974577Y-13827391D02*
X11984101Y-13846439D01*
X11984101Y-13846439D02*
X11993625Y-13884534D01*
X11993625Y-13884534D02*
X11993625Y-13932153D01*
X11993625Y-13932153D02*
X11984101Y-13970248D01*
X11984101Y-13970248D02*
X11974577Y-13989296D01*
X11974577Y-13989296D02*
X11965054Y-13998820D01*
X11965054Y-13998820D02*
X11946006Y-14008344D01*
X11946006Y-14008344D02*
X11926958Y-14008344D01*
X11926958Y-14008344D02*
X11907911Y-13998820D01*
X11907911Y-13998820D02*
X11898387Y-13989296D01*
X11898387Y-13989296D02*
X11888863Y-13970248D01*
X11888863Y-13970248D02*
X11879339Y-13932153D01*
X11879339Y-13932153D02*
X11879339Y-13884534D01*
X11879339Y-13884534D02*
X11888863Y-13846439D01*
X11888863Y-13846439D02*
X11898387Y-13827391D01*
X11898387Y-13827391D02*
X11907911Y-13817868D01*
X11907911Y-13817868D02*
X11926958Y-13808344D01*
X12184101Y-14008344D02*
X12069816Y-14008344D01*
X12126958Y-14008344D02*
X12126958Y-13808344D01*
X12126958Y-13808344D02*
X12107911Y-13836915D01*
X12107911Y-13836915D02*
X12088863Y-13855963D01*
X12088863Y-13855963D02*
X12069816Y-13865487D01*
X12374577Y-14008344D02*
X12260292Y-14008344D01*
X12317435Y-14008344D02*
X12317435Y-13808344D01*
X12317435Y-13808344D02*
X12298387Y-13836915D01*
X12298387Y-13836915D02*
X12279339Y-13855963D01*
X12279339Y-13855963D02*
X12260292Y-13865487D01*
X12488863Y-13894058D02*
X12469816Y-13884534D01*
X12469816Y-13884534D02*
X12460292Y-13875010D01*
X12460292Y-13875010D02*
X12450768Y-13855963D01*
X12450768Y-13855963D02*
X12450768Y-13846439D01*
X12450768Y-13846439D02*
X12460292Y-13827391D01*
X12460292Y-13827391D02*
X12469816Y-13817868D01*
X12469816Y-13817868D02*
X12488863Y-13808344D01*
X12488863Y-13808344D02*
X12526958Y-13808344D01*
X12526958Y-13808344D02*
X12546006Y-13817868D01*
X12546006Y-13817868D02*
X12555530Y-13827391D01*
X12555530Y-13827391D02*
X12565054Y-13846439D01*
X12565054Y-13846439D02*
X12565054Y-13855963D01*
X12565054Y-13855963D02*
X12555530Y-13875010D01*
X12555530Y-13875010D02*
X12546006Y-13884534D01*
X12546006Y-13884534D02*
X12526958Y-13894058D01*
X12526958Y-13894058D02*
X12488863Y-13894058D01*
X12488863Y-13894058D02*
X12469816Y-13903582D01*
X12469816Y-13903582D02*
X12460292Y-13913106D01*
X12460292Y-13913106D02*
X12450768Y-13932153D01*
X12450768Y-13932153D02*
X12450768Y-13970248D01*
X12450768Y-13970248D02*
X12460292Y-13989296D01*
X12460292Y-13989296D02*
X12469816Y-13998820D01*
X12469816Y-13998820D02*
X12488863Y-14008344D01*
X12488863Y-14008344D02*
X12526958Y-14008344D01*
X12526958Y-14008344D02*
X12546006Y-13998820D01*
X12546006Y-13998820D02*
X12555530Y-13989296D01*
X12555530Y-13989296D02*
X12565054Y-13970248D01*
X12565054Y-13970248D02*
X12565054Y-13932153D01*
X12565054Y-13932153D02*
X12555530Y-13913106D01*
X12555530Y-13913106D02*
X12546006Y-13903582D01*
X12546006Y-13903582D02*
X12526958Y-13894058D01*
X12641244Y-13808344D02*
X12641244Y-13846439D01*
X12717435Y-13808344D02*
X12717435Y-13846439D01*
X13012673Y-14084534D02*
X13003149Y-14075010D01*
X13003149Y-14075010D02*
X12984101Y-14046439D01*
X12984101Y-14046439D02*
X12974578Y-14027391D01*
X12974578Y-14027391D02*
X12965054Y-13998820D01*
X12965054Y-13998820D02*
X12955530Y-13951201D01*
X12955530Y-13951201D02*
X12955530Y-13913106D01*
X12955530Y-13913106D02*
X12965054Y-13865487D01*
X12965054Y-13865487D02*
X12974578Y-13836915D01*
X12974578Y-13836915D02*
X12984101Y-13817868D01*
X12984101Y-13817868D02*
X13003149Y-13789296D01*
X13003149Y-13789296D02*
X13012673Y-13779772D01*
X13079339Y-13827391D02*
X13088863Y-13817868D01*
X13088863Y-13817868D02*
X13107911Y-13808344D01*
X13107911Y-13808344D02*
X13155530Y-13808344D01*
X13155530Y-13808344D02*
X13174578Y-13817868D01*
X13174578Y-13817868D02*
X13184101Y-13827391D01*
X13184101Y-13827391D02*
X13193625Y-13846439D01*
X13193625Y-13846439D02*
X13193625Y-13865487D01*
X13193625Y-13865487D02*
X13184101Y-13894058D01*
X13184101Y-13894058D02*
X13069816Y-14008344D01*
X13069816Y-14008344D02*
X13193625Y-14008344D01*
X13431720Y-14008344D02*
X13431720Y-13808344D01*
X13517435Y-14008344D02*
X13517435Y-13903582D01*
X13517435Y-13903582D02*
X13507911Y-13884534D01*
X13507911Y-13884534D02*
X13488863Y-13875010D01*
X13488863Y-13875010D02*
X13460292Y-13875010D01*
X13460292Y-13875010D02*
X13441244Y-13884534D01*
X13441244Y-13884534D02*
X13431720Y-13894058D01*
X13641244Y-14008344D02*
X13622197Y-13998820D01*
X13622197Y-13998820D02*
X13612673Y-13989296D01*
X13612673Y-13989296D02*
X13603149Y-13970248D01*
X13603149Y-13970248D02*
X13603149Y-13913106D01*
X13603149Y-13913106D02*
X13612673Y-13894058D01*
X13612673Y-13894058D02*
X13622197Y-13884534D01*
X13622197Y-13884534D02*
X13641244Y-13875010D01*
X13641244Y-13875010D02*
X13669816Y-13875010D01*
X13669816Y-13875010D02*
X13688863Y-13884534D01*
X13688863Y-13884534D02*
X13698387Y-13894058D01*
X13698387Y-13894058D02*
X13707911Y-13913106D01*
X13707911Y-13913106D02*
X13707911Y-13970248D01*
X13707911Y-13970248D02*
X13698387Y-13989296D01*
X13698387Y-13989296D02*
X13688863Y-13998820D01*
X13688863Y-13998820D02*
X13669816Y-14008344D01*
X13669816Y-14008344D02*
X13641244Y-14008344D01*
X13822197Y-14008344D02*
X13803149Y-13998820D01*
X13803149Y-13998820D02*
X13793625Y-13979772D01*
X13793625Y-13979772D02*
X13793625Y-13808344D01*
X13974578Y-13998820D02*
X13955530Y-14008344D01*
X13955530Y-14008344D02*
X13917435Y-14008344D01*
X13917435Y-14008344D02*
X13898387Y-13998820D01*
X13898387Y-13998820D02*
X13888863Y-13979772D01*
X13888863Y-13979772D02*
X13888863Y-13903582D01*
X13888863Y-13903582D02*
X13898387Y-13884534D01*
X13898387Y-13884534D02*
X13917435Y-13875010D01*
X13917435Y-13875010D02*
X13955530Y-13875010D01*
X13955530Y-13875010D02*
X13974578Y-13884534D01*
X13974578Y-13884534D02*
X13984101Y-13903582D01*
X13984101Y-13903582D02*
X13984101Y-13922629D01*
X13984101Y-13922629D02*
X13888863Y-13941677D01*
X14060292Y-13998820D02*
X14079340Y-14008344D01*
X14079340Y-14008344D02*
X14117435Y-14008344D01*
X14117435Y-14008344D02*
X14136482Y-13998820D01*
X14136482Y-13998820D02*
X14146006Y-13979772D01*
X14146006Y-13979772D02*
X14146006Y-13970248D01*
X14146006Y-13970248D02*
X14136482Y-13951201D01*
X14136482Y-13951201D02*
X14117435Y-13941677D01*
X14117435Y-13941677D02*
X14088863Y-13941677D01*
X14088863Y-13941677D02*
X14069816Y-13932153D01*
X14069816Y-13932153D02*
X14060292Y-13913106D01*
X14060292Y-13913106D02*
X14060292Y-13903582D01*
X14060292Y-13903582D02*
X14069816Y-13884534D01*
X14069816Y-13884534D02*
X14088863Y-13875010D01*
X14088863Y-13875010D02*
X14117435Y-13875010D01*
X14117435Y-13875010D02*
X14136482Y-13884534D01*
X14212673Y-14084534D02*
X14222197Y-14075010D01*
X14222197Y-14075010D02*
X14241244Y-14046439D01*
X14241244Y-14046439D02*
X14250768Y-14027391D01*
X14250768Y-14027391D02*
X14260292Y-13998820D01*
X14260292Y-13998820D02*
X14269816Y-13951201D01*
X14269816Y-13951201D02*
X14269816Y-13913106D01*
X14269816Y-13913106D02*
X14260292Y-13865487D01*
X14260292Y-13865487D02*
X14250768Y-13836915D01*
X14250768Y-13836915D02*
X14241244Y-13817868D01*
X14241244Y-13817868D02*
X14222197Y-13789296D01*
X14222197Y-13789296D02*
X14212673Y-13779772D01*
D12*
X9420110Y-14163360D02*
X9420110Y-14198360D01*
X9402610Y-14180860D02*
X9437610Y-14180860D01*
D11*
X9736482Y-14072344D02*
X9755530Y-14072344D01*
X9755530Y-14072344D02*
X9774577Y-14081868D01*
X9774577Y-14081868D02*
X9784101Y-14091391D01*
X9784101Y-14091391D02*
X9793625Y-14110439D01*
X9793625Y-14110439D02*
X9803149Y-14148534D01*
X9803149Y-14148534D02*
X9803149Y-14196153D01*
X9803149Y-14196153D02*
X9793625Y-14234248D01*
X9793625Y-14234248D02*
X9784101Y-14253296D01*
X9784101Y-14253296D02*
X9774577Y-14262820D01*
X9774577Y-14262820D02*
X9755530Y-14272344D01*
X9755530Y-14272344D02*
X9736482Y-14272344D01*
X9736482Y-14272344D02*
X9717434Y-14262820D01*
X9717434Y-14262820D02*
X9707911Y-14253296D01*
X9707911Y-14253296D02*
X9698387Y-14234248D01*
X9698387Y-14234248D02*
X9688863Y-14196153D01*
X9688863Y-14196153D02*
X9688863Y-14148534D01*
X9688863Y-14148534D02*
X9698387Y-14110439D01*
X9698387Y-14110439D02*
X9707911Y-14091391D01*
X9707911Y-14091391D02*
X9717434Y-14081868D01*
X9717434Y-14081868D02*
X9736482Y-14072344D01*
X9888863Y-14253296D02*
X9898387Y-14262820D01*
X9898387Y-14262820D02*
X9888863Y-14272344D01*
X9888863Y-14272344D02*
X9879339Y-14262820D01*
X9879339Y-14262820D02*
X9888863Y-14253296D01*
X9888863Y-14253296D02*
X9888863Y-14272344D01*
X9965054Y-14072344D02*
X10088863Y-14072344D01*
X10088863Y-14072344D02*
X10022196Y-14148534D01*
X10022196Y-14148534D02*
X10050768Y-14148534D01*
X10050768Y-14148534D02*
X10069815Y-14158058D01*
X10069815Y-14158058D02*
X10079339Y-14167582D01*
X10079339Y-14167582D02*
X10088863Y-14186629D01*
X10088863Y-14186629D02*
X10088863Y-14234248D01*
X10088863Y-14234248D02*
X10079339Y-14253296D01*
X10079339Y-14253296D02*
X10069815Y-14262820D01*
X10069815Y-14262820D02*
X10050768Y-14272344D01*
X10050768Y-14272344D02*
X9993625Y-14272344D01*
X9993625Y-14272344D02*
X9974577Y-14262820D01*
X9974577Y-14262820D02*
X9965054Y-14253296D01*
X10269815Y-14072344D02*
X10174577Y-14072344D01*
X10174577Y-14072344D02*
X10165054Y-14167582D01*
X10165054Y-14167582D02*
X10174577Y-14158058D01*
X10174577Y-14158058D02*
X10193625Y-14148534D01*
X10193625Y-14148534D02*
X10241244Y-14148534D01*
X10241244Y-14148534D02*
X10260292Y-14158058D01*
X10260292Y-14158058D02*
X10269815Y-14167582D01*
X10269815Y-14167582D02*
X10279339Y-14186629D01*
X10279339Y-14186629D02*
X10279339Y-14234248D01*
X10279339Y-14234248D02*
X10269815Y-14253296D01*
X10269815Y-14253296D02*
X10260292Y-14262820D01*
X10260292Y-14262820D02*
X10241244Y-14272344D01*
X10241244Y-14272344D02*
X10193625Y-14272344D01*
X10193625Y-14272344D02*
X10174577Y-14262820D01*
X10174577Y-14262820D02*
X10165054Y-14253296D01*
X10403149Y-14072344D02*
X10422196Y-14072344D01*
X10422196Y-14072344D02*
X10441244Y-14081868D01*
X10441244Y-14081868D02*
X10450768Y-14091391D01*
X10450768Y-14091391D02*
X10460292Y-14110439D01*
X10460292Y-14110439D02*
X10469815Y-14148534D01*
X10469815Y-14148534D02*
X10469815Y-14196153D01*
X10469815Y-14196153D02*
X10460292Y-14234248D01*
X10460292Y-14234248D02*
X10450768Y-14253296D01*
X10450768Y-14253296D02*
X10441244Y-14262820D01*
X10441244Y-14262820D02*
X10422196Y-14272344D01*
X10422196Y-14272344D02*
X10403149Y-14272344D01*
X10403149Y-14272344D02*
X10384101Y-14262820D01*
X10384101Y-14262820D02*
X10374577Y-14253296D01*
X10374577Y-14253296D02*
X10365054Y-14234248D01*
X10365054Y-14234248D02*
X10355530Y-14196153D01*
X10355530Y-14196153D02*
X10355530Y-14148534D01*
X10355530Y-14148534D02*
X10365054Y-14110439D01*
X10365054Y-14110439D02*
X10374577Y-14091391D01*
X10374577Y-14091391D02*
X10384101Y-14081868D01*
X10384101Y-14081868D02*
X10403149Y-14072344D01*
X10555530Y-14272344D02*
X10555530Y-14139010D01*
X10555530Y-14158058D02*
X10565054Y-14148534D01*
X10565054Y-14148534D02*
X10584101Y-14139010D01*
X10584101Y-14139010D02*
X10612673Y-14139010D01*
X10612673Y-14139010D02*
X10631720Y-14148534D01*
X10631720Y-14148534D02*
X10641244Y-14167582D01*
X10641244Y-14167582D02*
X10641244Y-14272344D01*
X10641244Y-14167582D02*
X10650768Y-14148534D01*
X10650768Y-14148534D02*
X10669815Y-14139010D01*
X10669815Y-14139010D02*
X10698387Y-14139010D01*
X10698387Y-14139010D02*
X10717435Y-14148534D01*
X10717435Y-14148534D02*
X10726958Y-14167582D01*
X10726958Y-14167582D02*
X10726958Y-14272344D01*
X10822196Y-14272344D02*
X10822196Y-14139010D01*
X10822196Y-14158058D02*
X10831720Y-14148534D01*
X10831720Y-14148534D02*
X10850768Y-14139010D01*
X10850768Y-14139010D02*
X10879339Y-14139010D01*
X10879339Y-14139010D02*
X10898387Y-14148534D01*
X10898387Y-14148534D02*
X10907911Y-14167582D01*
X10907911Y-14167582D02*
X10907911Y-14272344D01*
X10907911Y-14167582D02*
X10917435Y-14148534D01*
X10917435Y-14148534D02*
X10936482Y-14139010D01*
X10936482Y-14139010D02*
X10965054Y-14139010D01*
X10965054Y-14139010D02*
X10984101Y-14148534D01*
X10984101Y-14148534D02*
X10993625Y-14167582D01*
X10993625Y-14167582D02*
X10993625Y-14272344D01*
X11384101Y-14062820D02*
X11212673Y-14319963D01*
X11641244Y-14072344D02*
X11660292Y-14072344D01*
X11660292Y-14072344D02*
X11679339Y-14081868D01*
X11679339Y-14081868D02*
X11688863Y-14091391D01*
X11688863Y-14091391D02*
X11698387Y-14110439D01*
X11698387Y-14110439D02*
X11707911Y-14148534D01*
X11707911Y-14148534D02*
X11707911Y-14196153D01*
X11707911Y-14196153D02*
X11698387Y-14234248D01*
X11698387Y-14234248D02*
X11688863Y-14253296D01*
X11688863Y-14253296D02*
X11679339Y-14262820D01*
X11679339Y-14262820D02*
X11660292Y-14272344D01*
X11660292Y-14272344D02*
X11641244Y-14272344D01*
X11641244Y-14272344D02*
X11622196Y-14262820D01*
X11622196Y-14262820D02*
X11612673Y-14253296D01*
X11612673Y-14253296D02*
X11603149Y-14234248D01*
X11603149Y-14234248D02*
X11593625Y-14196153D01*
X11593625Y-14196153D02*
X11593625Y-14148534D01*
X11593625Y-14148534D02*
X11603149Y-14110439D01*
X11603149Y-14110439D02*
X11612673Y-14091391D01*
X11612673Y-14091391D02*
X11622196Y-14081868D01*
X11622196Y-14081868D02*
X11641244Y-14072344D01*
X11793625Y-14253296D02*
X11803149Y-14262820D01*
X11803149Y-14262820D02*
X11793625Y-14272344D01*
X11793625Y-14272344D02*
X11784101Y-14262820D01*
X11784101Y-14262820D02*
X11793625Y-14253296D01*
X11793625Y-14253296D02*
X11793625Y-14272344D01*
X11926958Y-14072344D02*
X11946006Y-14072344D01*
X11946006Y-14072344D02*
X11965054Y-14081868D01*
X11965054Y-14081868D02*
X11974577Y-14091391D01*
X11974577Y-14091391D02*
X11984101Y-14110439D01*
X11984101Y-14110439D02*
X11993625Y-14148534D01*
X11993625Y-14148534D02*
X11993625Y-14196153D01*
X11993625Y-14196153D02*
X11984101Y-14234248D01*
X11984101Y-14234248D02*
X11974577Y-14253296D01*
X11974577Y-14253296D02*
X11965054Y-14262820D01*
X11965054Y-14262820D02*
X11946006Y-14272344D01*
X11946006Y-14272344D02*
X11926958Y-14272344D01*
X11926958Y-14272344D02*
X11907911Y-14262820D01*
X11907911Y-14262820D02*
X11898387Y-14253296D01*
X11898387Y-14253296D02*
X11888863Y-14234248D01*
X11888863Y-14234248D02*
X11879339Y-14196153D01*
X11879339Y-14196153D02*
X11879339Y-14148534D01*
X11879339Y-14148534D02*
X11888863Y-14110439D01*
X11888863Y-14110439D02*
X11898387Y-14091391D01*
X11898387Y-14091391D02*
X11907911Y-14081868D01*
X11907911Y-14081868D02*
X11926958Y-14072344D01*
X12184101Y-14272344D02*
X12069816Y-14272344D01*
X12126958Y-14272344D02*
X12126958Y-14072344D01*
X12126958Y-14072344D02*
X12107911Y-14100915D01*
X12107911Y-14100915D02*
X12088863Y-14119963D01*
X12088863Y-14119963D02*
X12069816Y-14129487D01*
X12250768Y-14072344D02*
X12374577Y-14072344D01*
X12374577Y-14072344D02*
X12307911Y-14148534D01*
X12307911Y-14148534D02*
X12336482Y-14148534D01*
X12336482Y-14148534D02*
X12355530Y-14158058D01*
X12355530Y-14158058D02*
X12365054Y-14167582D01*
X12365054Y-14167582D02*
X12374577Y-14186629D01*
X12374577Y-14186629D02*
X12374577Y-14234248D01*
X12374577Y-14234248D02*
X12365054Y-14253296D01*
X12365054Y-14253296D02*
X12355530Y-14262820D01*
X12355530Y-14262820D02*
X12336482Y-14272344D01*
X12336482Y-14272344D02*
X12279339Y-14272344D01*
X12279339Y-14272344D02*
X12260292Y-14262820D01*
X12260292Y-14262820D02*
X12250768Y-14253296D01*
X12488863Y-14158058D02*
X12469816Y-14148534D01*
X12469816Y-14148534D02*
X12460292Y-14139010D01*
X12460292Y-14139010D02*
X12450768Y-14119963D01*
X12450768Y-14119963D02*
X12450768Y-14110439D01*
X12450768Y-14110439D02*
X12460292Y-14091391D01*
X12460292Y-14091391D02*
X12469816Y-14081868D01*
X12469816Y-14081868D02*
X12488863Y-14072344D01*
X12488863Y-14072344D02*
X12526958Y-14072344D01*
X12526958Y-14072344D02*
X12546006Y-14081868D01*
X12546006Y-14081868D02*
X12555530Y-14091391D01*
X12555530Y-14091391D02*
X12565054Y-14110439D01*
X12565054Y-14110439D02*
X12565054Y-14119963D01*
X12565054Y-14119963D02*
X12555530Y-14139010D01*
X12555530Y-14139010D02*
X12546006Y-14148534D01*
X12546006Y-14148534D02*
X12526958Y-14158058D01*
X12526958Y-14158058D02*
X12488863Y-14158058D01*
X12488863Y-14158058D02*
X12469816Y-14167582D01*
X12469816Y-14167582D02*
X12460292Y-14177106D01*
X12460292Y-14177106D02*
X12450768Y-14196153D01*
X12450768Y-14196153D02*
X12450768Y-14234248D01*
X12450768Y-14234248D02*
X12460292Y-14253296D01*
X12460292Y-14253296D02*
X12469816Y-14262820D01*
X12469816Y-14262820D02*
X12488863Y-14272344D01*
X12488863Y-14272344D02*
X12526958Y-14272344D01*
X12526958Y-14272344D02*
X12546006Y-14262820D01*
X12546006Y-14262820D02*
X12555530Y-14253296D01*
X12555530Y-14253296D02*
X12565054Y-14234248D01*
X12565054Y-14234248D02*
X12565054Y-14196153D01*
X12565054Y-14196153D02*
X12555530Y-14177106D01*
X12555530Y-14177106D02*
X12546006Y-14167582D01*
X12546006Y-14167582D02*
X12526958Y-14158058D01*
X12641244Y-14072344D02*
X12641244Y-14110439D01*
X12717435Y-14072344D02*
X12717435Y-14110439D01*
X13012673Y-14348534D02*
X13003149Y-14339010D01*
X13003149Y-14339010D02*
X12984101Y-14310439D01*
X12984101Y-14310439D02*
X12974578Y-14291391D01*
X12974578Y-14291391D02*
X12965054Y-14262820D01*
X12965054Y-14262820D02*
X12955530Y-14215201D01*
X12955530Y-14215201D02*
X12955530Y-14177106D01*
X12955530Y-14177106D02*
X12965054Y-14129487D01*
X12965054Y-14129487D02*
X12974578Y-14100915D01*
X12974578Y-14100915D02*
X12984101Y-14081868D01*
X12984101Y-14081868D02*
X13003149Y-14053296D01*
X13003149Y-14053296D02*
X13012673Y-14043772D01*
X13079339Y-14091391D02*
X13088863Y-14081868D01*
X13088863Y-14081868D02*
X13107911Y-14072344D01*
X13107911Y-14072344D02*
X13155530Y-14072344D01*
X13155530Y-14072344D02*
X13174578Y-14081868D01*
X13174578Y-14081868D02*
X13184101Y-14091391D01*
X13184101Y-14091391D02*
X13193625Y-14110439D01*
X13193625Y-14110439D02*
X13193625Y-14129487D01*
X13193625Y-14129487D02*
X13184101Y-14158058D01*
X13184101Y-14158058D02*
X13069816Y-14272344D01*
X13069816Y-14272344D02*
X13193625Y-14272344D01*
X13431720Y-14272344D02*
X13431720Y-14072344D01*
X13517435Y-14272344D02*
X13517435Y-14167582D01*
X13517435Y-14167582D02*
X13507911Y-14148534D01*
X13507911Y-14148534D02*
X13488863Y-14139010D01*
X13488863Y-14139010D02*
X13460292Y-14139010D01*
X13460292Y-14139010D02*
X13441244Y-14148534D01*
X13441244Y-14148534D02*
X13431720Y-14158058D01*
X13641244Y-14272344D02*
X13622197Y-14262820D01*
X13622197Y-14262820D02*
X13612673Y-14253296D01*
X13612673Y-14253296D02*
X13603149Y-14234248D01*
X13603149Y-14234248D02*
X13603149Y-14177106D01*
X13603149Y-14177106D02*
X13612673Y-14158058D01*
X13612673Y-14158058D02*
X13622197Y-14148534D01*
X13622197Y-14148534D02*
X13641244Y-14139010D01*
X13641244Y-14139010D02*
X13669816Y-14139010D01*
X13669816Y-14139010D02*
X13688863Y-14148534D01*
X13688863Y-14148534D02*
X13698387Y-14158058D01*
X13698387Y-14158058D02*
X13707911Y-14177106D01*
X13707911Y-14177106D02*
X13707911Y-14234248D01*
X13707911Y-14234248D02*
X13698387Y-14253296D01*
X13698387Y-14253296D02*
X13688863Y-14262820D01*
X13688863Y-14262820D02*
X13669816Y-14272344D01*
X13669816Y-14272344D02*
X13641244Y-14272344D01*
X13822197Y-14272344D02*
X13803149Y-14262820D01*
X13803149Y-14262820D02*
X13793625Y-14243772D01*
X13793625Y-14243772D02*
X13793625Y-14072344D01*
X13974578Y-14262820D02*
X13955530Y-14272344D01*
X13955530Y-14272344D02*
X13917435Y-14272344D01*
X13917435Y-14272344D02*
X13898387Y-14262820D01*
X13898387Y-14262820D02*
X13888863Y-14243772D01*
X13888863Y-14243772D02*
X13888863Y-14167582D01*
X13888863Y-14167582D02*
X13898387Y-14148534D01*
X13898387Y-14148534D02*
X13917435Y-14139010D01*
X13917435Y-14139010D02*
X13955530Y-14139010D01*
X13955530Y-14139010D02*
X13974578Y-14148534D01*
X13974578Y-14148534D02*
X13984101Y-14167582D01*
X13984101Y-14167582D02*
X13984101Y-14186629D01*
X13984101Y-14186629D02*
X13888863Y-14205677D01*
X14060292Y-14262820D02*
X14079340Y-14272344D01*
X14079340Y-14272344D02*
X14117435Y-14272344D01*
X14117435Y-14272344D02*
X14136482Y-14262820D01*
X14136482Y-14262820D02*
X14146006Y-14243772D01*
X14146006Y-14243772D02*
X14146006Y-14234248D01*
X14146006Y-14234248D02*
X14136482Y-14215201D01*
X14136482Y-14215201D02*
X14117435Y-14205677D01*
X14117435Y-14205677D02*
X14088863Y-14205677D01*
X14088863Y-14205677D02*
X14069816Y-14196153D01*
X14069816Y-14196153D02*
X14060292Y-14177106D01*
X14060292Y-14177106D02*
X14060292Y-14167582D01*
X14060292Y-14167582D02*
X14069816Y-14148534D01*
X14069816Y-14148534D02*
X14088863Y-14139010D01*
X14088863Y-14139010D02*
X14117435Y-14139010D01*
X14117435Y-14139010D02*
X14136482Y-14148534D01*
X14212673Y-14348534D02*
X14222197Y-14339010D01*
X14222197Y-14339010D02*
X14241244Y-14310439D01*
X14241244Y-14310439D02*
X14250768Y-14291391D01*
X14250768Y-14291391D02*
X14260292Y-14262820D01*
X14260292Y-14262820D02*
X14269816Y-14215201D01*
X14269816Y-14215201D02*
X14269816Y-14177106D01*
X14269816Y-14177106D02*
X14260292Y-14129487D01*
X14260292Y-14129487D02*
X14250768Y-14100915D01*
X14250768Y-14100915D02*
X14241244Y-14081868D01*
X14241244Y-14081868D02*
X14222197Y-14053296D01*
X14222197Y-14053296D02*
X14212673Y-14043772D01*
D12*
X9427359Y-14469609D02*
X9427359Y-14420111D01*
X9377861Y-14420111D01*
X9377861Y-14469609D01*
X9427359Y-14469609D01*
D11*
X9736482Y-14336344D02*
X9755530Y-14336344D01*
X9755530Y-14336344D02*
X9774577Y-14345868D01*
X9774577Y-14345868D02*
X9784101Y-14355391D01*
X9784101Y-14355391D02*
X9793625Y-14374439D01*
X9793625Y-14374439D02*
X9803149Y-14412534D01*
X9803149Y-14412534D02*
X9803149Y-14460153D01*
X9803149Y-14460153D02*
X9793625Y-14498248D01*
X9793625Y-14498248D02*
X9784101Y-14517296D01*
X9784101Y-14517296D02*
X9774577Y-14526820D01*
X9774577Y-14526820D02*
X9755530Y-14536344D01*
X9755530Y-14536344D02*
X9736482Y-14536344D01*
X9736482Y-14536344D02*
X9717434Y-14526820D01*
X9717434Y-14526820D02*
X9707911Y-14517296D01*
X9707911Y-14517296D02*
X9698387Y-14498248D01*
X9698387Y-14498248D02*
X9688863Y-14460153D01*
X9688863Y-14460153D02*
X9688863Y-14412534D01*
X9688863Y-14412534D02*
X9698387Y-14374439D01*
X9698387Y-14374439D02*
X9707911Y-14355391D01*
X9707911Y-14355391D02*
X9717434Y-14345868D01*
X9717434Y-14345868D02*
X9736482Y-14336344D01*
X9888863Y-14517296D02*
X9898387Y-14526820D01*
X9898387Y-14526820D02*
X9888863Y-14536344D01*
X9888863Y-14536344D02*
X9879339Y-14526820D01*
X9879339Y-14526820D02*
X9888863Y-14517296D01*
X9888863Y-14517296D02*
X9888863Y-14536344D01*
X9965054Y-14336344D02*
X10098387Y-14336344D01*
X10098387Y-14336344D02*
X10012673Y-14536344D01*
X10212673Y-14336344D02*
X10231720Y-14336344D01*
X10231720Y-14336344D02*
X10250768Y-14345868D01*
X10250768Y-14345868D02*
X10260292Y-14355391D01*
X10260292Y-14355391D02*
X10269815Y-14374439D01*
X10269815Y-14374439D02*
X10279339Y-14412534D01*
X10279339Y-14412534D02*
X10279339Y-14460153D01*
X10279339Y-14460153D02*
X10269815Y-14498248D01*
X10269815Y-14498248D02*
X10260292Y-14517296D01*
X10260292Y-14517296D02*
X10250768Y-14526820D01*
X10250768Y-14526820D02*
X10231720Y-14536344D01*
X10231720Y-14536344D02*
X10212673Y-14536344D01*
X10212673Y-14536344D02*
X10193625Y-14526820D01*
X10193625Y-14526820D02*
X10184101Y-14517296D01*
X10184101Y-14517296D02*
X10174577Y-14498248D01*
X10174577Y-14498248D02*
X10165054Y-14460153D01*
X10165054Y-14460153D02*
X10165054Y-14412534D01*
X10165054Y-14412534D02*
X10174577Y-14374439D01*
X10174577Y-14374439D02*
X10184101Y-14355391D01*
X10184101Y-14355391D02*
X10193625Y-14345868D01*
X10193625Y-14345868D02*
X10212673Y-14336344D01*
X10403149Y-14336344D02*
X10422196Y-14336344D01*
X10422196Y-14336344D02*
X10441244Y-14345868D01*
X10441244Y-14345868D02*
X10450768Y-14355391D01*
X10450768Y-14355391D02*
X10460292Y-14374439D01*
X10460292Y-14374439D02*
X10469815Y-14412534D01*
X10469815Y-14412534D02*
X10469815Y-14460153D01*
X10469815Y-14460153D02*
X10460292Y-14498248D01*
X10460292Y-14498248D02*
X10450768Y-14517296D01*
X10450768Y-14517296D02*
X10441244Y-14526820D01*
X10441244Y-14526820D02*
X10422196Y-14536344D01*
X10422196Y-14536344D02*
X10403149Y-14536344D01*
X10403149Y-14536344D02*
X10384101Y-14526820D01*
X10384101Y-14526820D02*
X10374577Y-14517296D01*
X10374577Y-14517296D02*
X10365054Y-14498248D01*
X10365054Y-14498248D02*
X10355530Y-14460153D01*
X10355530Y-14460153D02*
X10355530Y-14412534D01*
X10355530Y-14412534D02*
X10365054Y-14374439D01*
X10365054Y-14374439D02*
X10374577Y-14355391D01*
X10374577Y-14355391D02*
X10384101Y-14345868D01*
X10384101Y-14345868D02*
X10403149Y-14336344D01*
X10555530Y-14536344D02*
X10555530Y-14403010D01*
X10555530Y-14422058D02*
X10565054Y-14412534D01*
X10565054Y-14412534D02*
X10584101Y-14403010D01*
X10584101Y-14403010D02*
X10612673Y-14403010D01*
X10612673Y-14403010D02*
X10631720Y-14412534D01*
X10631720Y-14412534D02*
X10641244Y-14431582D01*
X10641244Y-14431582D02*
X10641244Y-14536344D01*
X10641244Y-14431582D02*
X10650768Y-14412534D01*
X10650768Y-14412534D02*
X10669815Y-14403010D01*
X10669815Y-14403010D02*
X10698387Y-14403010D01*
X10698387Y-14403010D02*
X10717435Y-14412534D01*
X10717435Y-14412534D02*
X10726958Y-14431582D01*
X10726958Y-14431582D02*
X10726958Y-14536344D01*
X10822196Y-14536344D02*
X10822196Y-14403010D01*
X10822196Y-14422058D02*
X10831720Y-14412534D01*
X10831720Y-14412534D02*
X10850768Y-14403010D01*
X10850768Y-14403010D02*
X10879339Y-14403010D01*
X10879339Y-14403010D02*
X10898387Y-14412534D01*
X10898387Y-14412534D02*
X10907911Y-14431582D01*
X10907911Y-14431582D02*
X10907911Y-14536344D01*
X10907911Y-14431582D02*
X10917435Y-14412534D01*
X10917435Y-14412534D02*
X10936482Y-14403010D01*
X10936482Y-14403010D02*
X10965054Y-14403010D01*
X10965054Y-14403010D02*
X10984101Y-14412534D01*
X10984101Y-14412534D02*
X10993625Y-14431582D01*
X10993625Y-14431582D02*
X10993625Y-14536344D01*
X11384101Y-14326820D02*
X11212673Y-14583963D01*
X11641244Y-14336344D02*
X11660292Y-14336344D01*
X11660292Y-14336344D02*
X11679339Y-14345868D01*
X11679339Y-14345868D02*
X11688863Y-14355391D01*
X11688863Y-14355391D02*
X11698387Y-14374439D01*
X11698387Y-14374439D02*
X11707911Y-14412534D01*
X11707911Y-14412534D02*
X11707911Y-14460153D01*
X11707911Y-14460153D02*
X11698387Y-14498248D01*
X11698387Y-14498248D02*
X11688863Y-14517296D01*
X11688863Y-14517296D02*
X11679339Y-14526820D01*
X11679339Y-14526820D02*
X11660292Y-14536344D01*
X11660292Y-14536344D02*
X11641244Y-14536344D01*
X11641244Y-14536344D02*
X11622196Y-14526820D01*
X11622196Y-14526820D02*
X11612673Y-14517296D01*
X11612673Y-14517296D02*
X11603149Y-14498248D01*
X11603149Y-14498248D02*
X11593625Y-14460153D01*
X11593625Y-14460153D02*
X11593625Y-14412534D01*
X11593625Y-14412534D02*
X11603149Y-14374439D01*
X11603149Y-14374439D02*
X11612673Y-14355391D01*
X11612673Y-14355391D02*
X11622196Y-14345868D01*
X11622196Y-14345868D02*
X11641244Y-14336344D01*
X11793625Y-14517296D02*
X11803149Y-14526820D01*
X11803149Y-14526820D02*
X11793625Y-14536344D01*
X11793625Y-14536344D02*
X11784101Y-14526820D01*
X11784101Y-14526820D02*
X11793625Y-14517296D01*
X11793625Y-14517296D02*
X11793625Y-14536344D01*
X11926958Y-14336344D02*
X11946006Y-14336344D01*
X11946006Y-14336344D02*
X11965054Y-14345868D01*
X11965054Y-14345868D02*
X11974577Y-14355391D01*
X11974577Y-14355391D02*
X11984101Y-14374439D01*
X11984101Y-14374439D02*
X11993625Y-14412534D01*
X11993625Y-14412534D02*
X11993625Y-14460153D01*
X11993625Y-14460153D02*
X11984101Y-14498248D01*
X11984101Y-14498248D02*
X11974577Y-14517296D01*
X11974577Y-14517296D02*
X11965054Y-14526820D01*
X11965054Y-14526820D02*
X11946006Y-14536344D01*
X11946006Y-14536344D02*
X11926958Y-14536344D01*
X11926958Y-14536344D02*
X11907911Y-14526820D01*
X11907911Y-14526820D02*
X11898387Y-14517296D01*
X11898387Y-14517296D02*
X11888863Y-14498248D01*
X11888863Y-14498248D02*
X11879339Y-14460153D01*
X11879339Y-14460153D02*
X11879339Y-14412534D01*
X11879339Y-14412534D02*
X11888863Y-14374439D01*
X11888863Y-14374439D02*
X11898387Y-14355391D01*
X11898387Y-14355391D02*
X11907911Y-14345868D01*
X11907911Y-14345868D02*
X11926958Y-14336344D01*
X12069816Y-14355391D02*
X12079339Y-14345868D01*
X12079339Y-14345868D02*
X12098387Y-14336344D01*
X12098387Y-14336344D02*
X12146006Y-14336344D01*
X12146006Y-14336344D02*
X12165054Y-14345868D01*
X12165054Y-14345868D02*
X12174577Y-14355391D01*
X12174577Y-14355391D02*
X12184101Y-14374439D01*
X12184101Y-14374439D02*
X12184101Y-14393487D01*
X12184101Y-14393487D02*
X12174577Y-14422058D01*
X12174577Y-14422058D02*
X12060292Y-14536344D01*
X12060292Y-14536344D02*
X12184101Y-14536344D01*
X12250768Y-14336344D02*
X12384101Y-14336344D01*
X12384101Y-14336344D02*
X12298387Y-14536344D01*
X12546006Y-14336344D02*
X12507911Y-14336344D01*
X12507911Y-14336344D02*
X12488863Y-14345868D01*
X12488863Y-14345868D02*
X12479339Y-14355391D01*
X12479339Y-14355391D02*
X12460292Y-14383963D01*
X12460292Y-14383963D02*
X12450768Y-14422058D01*
X12450768Y-14422058D02*
X12450768Y-14498248D01*
X12450768Y-14498248D02*
X12460292Y-14517296D01*
X12460292Y-14517296D02*
X12469816Y-14526820D01*
X12469816Y-14526820D02*
X12488863Y-14536344D01*
X12488863Y-14536344D02*
X12526958Y-14536344D01*
X12526958Y-14536344D02*
X12546006Y-14526820D01*
X12546006Y-14526820D02*
X12555530Y-14517296D01*
X12555530Y-14517296D02*
X12565054Y-14498248D01*
X12565054Y-14498248D02*
X12565054Y-14450629D01*
X12565054Y-14450629D02*
X12555530Y-14431582D01*
X12555530Y-14431582D02*
X12546006Y-14422058D01*
X12546006Y-14422058D02*
X12526958Y-14412534D01*
X12526958Y-14412534D02*
X12488863Y-14412534D01*
X12488863Y-14412534D02*
X12469816Y-14422058D01*
X12469816Y-14422058D02*
X12460292Y-14431582D01*
X12460292Y-14431582D02*
X12450768Y-14450629D01*
X12641244Y-14336344D02*
X12641244Y-14374439D01*
X12717435Y-14336344D02*
X12717435Y-14374439D01*
X13012673Y-14612534D02*
X13003149Y-14603010D01*
X13003149Y-14603010D02*
X12984101Y-14574439D01*
X12984101Y-14574439D02*
X12974578Y-14555391D01*
X12974578Y-14555391D02*
X12965054Y-14526820D01*
X12965054Y-14526820D02*
X12955530Y-14479201D01*
X12955530Y-14479201D02*
X12955530Y-14441106D01*
X12955530Y-14441106D02*
X12965054Y-14393487D01*
X12965054Y-14393487D02*
X12974578Y-14364915D01*
X12974578Y-14364915D02*
X12984101Y-14345868D01*
X12984101Y-14345868D02*
X13003149Y-14317296D01*
X13003149Y-14317296D02*
X13012673Y-14307772D01*
X13193625Y-14536344D02*
X13079339Y-14536344D01*
X13136482Y-14536344D02*
X13136482Y-14336344D01*
X13136482Y-14336344D02*
X13117435Y-14364915D01*
X13117435Y-14364915D02*
X13098387Y-14383963D01*
X13098387Y-14383963D02*
X13079339Y-14393487D01*
X13374578Y-14336344D02*
X13279339Y-14336344D01*
X13279339Y-14336344D02*
X13269816Y-14431582D01*
X13269816Y-14431582D02*
X13279339Y-14422058D01*
X13279339Y-14422058D02*
X13298387Y-14412534D01*
X13298387Y-14412534D02*
X13346006Y-14412534D01*
X13346006Y-14412534D02*
X13365054Y-14422058D01*
X13365054Y-14422058D02*
X13374578Y-14431582D01*
X13374578Y-14431582D02*
X13384101Y-14450629D01*
X13384101Y-14450629D02*
X13384101Y-14498248D01*
X13384101Y-14498248D02*
X13374578Y-14517296D01*
X13374578Y-14517296D02*
X13365054Y-14526820D01*
X13365054Y-14526820D02*
X13346006Y-14536344D01*
X13346006Y-14536344D02*
X13298387Y-14536344D01*
X13298387Y-14536344D02*
X13279339Y-14526820D01*
X13279339Y-14526820D02*
X13269816Y-14517296D01*
X13622197Y-14536344D02*
X13622197Y-14336344D01*
X13707911Y-14536344D02*
X13707911Y-14431582D01*
X13707911Y-14431582D02*
X13698387Y-14412534D01*
X13698387Y-14412534D02*
X13679340Y-14403010D01*
X13679340Y-14403010D02*
X13650768Y-14403010D01*
X13650768Y-14403010D02*
X13631720Y-14412534D01*
X13631720Y-14412534D02*
X13622197Y-14422058D01*
X13831720Y-14536344D02*
X13812673Y-14526820D01*
X13812673Y-14526820D02*
X13803149Y-14517296D01*
X13803149Y-14517296D02*
X13793625Y-14498248D01*
X13793625Y-14498248D02*
X13793625Y-14441106D01*
X13793625Y-14441106D02*
X13803149Y-14422058D01*
X13803149Y-14422058D02*
X13812673Y-14412534D01*
X13812673Y-14412534D02*
X13831720Y-14403010D01*
X13831720Y-14403010D02*
X13860292Y-14403010D01*
X13860292Y-14403010D02*
X13879340Y-14412534D01*
X13879340Y-14412534D02*
X13888863Y-14422058D01*
X13888863Y-14422058D02*
X13898387Y-14441106D01*
X13898387Y-14441106D02*
X13898387Y-14498248D01*
X13898387Y-14498248D02*
X13888863Y-14517296D01*
X13888863Y-14517296D02*
X13879340Y-14526820D01*
X13879340Y-14526820D02*
X13860292Y-14536344D01*
X13860292Y-14536344D02*
X13831720Y-14536344D01*
X14012673Y-14536344D02*
X13993625Y-14526820D01*
X13993625Y-14526820D02*
X13984101Y-14507772D01*
X13984101Y-14507772D02*
X13984101Y-14336344D01*
X14165054Y-14526820D02*
X14146006Y-14536344D01*
X14146006Y-14536344D02*
X14107911Y-14536344D01*
X14107911Y-14536344D02*
X14088863Y-14526820D01*
X14088863Y-14526820D02*
X14079340Y-14507772D01*
X14079340Y-14507772D02*
X14079340Y-14431582D01*
X14079340Y-14431582D02*
X14088863Y-14412534D01*
X14088863Y-14412534D02*
X14107911Y-14403010D01*
X14107911Y-14403010D02*
X14146006Y-14403010D01*
X14146006Y-14403010D02*
X14165054Y-14412534D01*
X14165054Y-14412534D02*
X14174578Y-14431582D01*
X14174578Y-14431582D02*
X14174578Y-14450629D01*
X14174578Y-14450629D02*
X14079340Y-14469677D01*
X14250768Y-14526820D02*
X14269816Y-14536344D01*
X14269816Y-14536344D02*
X14307911Y-14536344D01*
X14307911Y-14536344D02*
X14326959Y-14526820D01*
X14326959Y-14526820D02*
X14336482Y-14507772D01*
X14336482Y-14507772D02*
X14336482Y-14498248D01*
X14336482Y-14498248D02*
X14326959Y-14479201D01*
X14326959Y-14479201D02*
X14307911Y-14469677D01*
X14307911Y-14469677D02*
X14279340Y-14469677D01*
X14279340Y-14469677D02*
X14260292Y-14460153D01*
X14260292Y-14460153D02*
X14250768Y-14441106D01*
X14250768Y-14441106D02*
X14250768Y-14431582D01*
X14250768Y-14431582D02*
X14260292Y-14412534D01*
X14260292Y-14412534D02*
X14279340Y-14403010D01*
X14279340Y-14403010D02*
X14307911Y-14403010D01*
X14307911Y-14403010D02*
X14326959Y-14412534D01*
X14403149Y-14612534D02*
X14412673Y-14603010D01*
X14412673Y-14603010D02*
X14431721Y-14574439D01*
X14431721Y-14574439D02*
X14441244Y-14555391D01*
X14441244Y-14555391D02*
X14450768Y-14526820D01*
X14450768Y-14526820D02*
X14460292Y-14479201D01*
X14460292Y-14479201D02*
X14460292Y-14441106D01*
X14460292Y-14441106D02*
X14450768Y-14393487D01*
X14450768Y-14393487D02*
X14441244Y-14364915D01*
X14441244Y-14364915D02*
X14431721Y-14345868D01*
X14431721Y-14345868D02*
X14412673Y-14317296D01*
X14412673Y-14317296D02*
X14403149Y-14307772D01*
D12*
X9395110Y-14751360D02*
X9437610Y-14708860D01*
X9395110Y-14666360D01*
X9352610Y-14708860D01*
X9395110Y-14751360D01*
D11*
X9736482Y-14600344D02*
X9755530Y-14600344D01*
X9755530Y-14600344D02*
X9774577Y-14609868D01*
X9774577Y-14609868D02*
X9784101Y-14619391D01*
X9784101Y-14619391D02*
X9793625Y-14638439D01*
X9793625Y-14638439D02*
X9803149Y-14676534D01*
X9803149Y-14676534D02*
X9803149Y-14724153D01*
X9803149Y-14724153D02*
X9793625Y-14762248D01*
X9793625Y-14762248D02*
X9784101Y-14781296D01*
X9784101Y-14781296D02*
X9774577Y-14790820D01*
X9774577Y-14790820D02*
X9755530Y-14800344D01*
X9755530Y-14800344D02*
X9736482Y-14800344D01*
X9736482Y-14800344D02*
X9717434Y-14790820D01*
X9717434Y-14790820D02*
X9707911Y-14781296D01*
X9707911Y-14781296D02*
X9698387Y-14762248D01*
X9698387Y-14762248D02*
X9688863Y-14724153D01*
X9688863Y-14724153D02*
X9688863Y-14676534D01*
X9688863Y-14676534D02*
X9698387Y-14638439D01*
X9698387Y-14638439D02*
X9707911Y-14619391D01*
X9707911Y-14619391D02*
X9717434Y-14609868D01*
X9717434Y-14609868D02*
X9736482Y-14600344D01*
X9888863Y-14781296D02*
X9898387Y-14790820D01*
X9898387Y-14790820D02*
X9888863Y-14800344D01*
X9888863Y-14800344D02*
X9879339Y-14790820D01*
X9879339Y-14790820D02*
X9888863Y-14781296D01*
X9888863Y-14781296D02*
X9888863Y-14800344D01*
X10012673Y-14686058D02*
X9993625Y-14676534D01*
X9993625Y-14676534D02*
X9984101Y-14667010D01*
X9984101Y-14667010D02*
X9974577Y-14647963D01*
X9974577Y-14647963D02*
X9974577Y-14638439D01*
X9974577Y-14638439D02*
X9984101Y-14619391D01*
X9984101Y-14619391D02*
X9993625Y-14609868D01*
X9993625Y-14609868D02*
X10012673Y-14600344D01*
X10012673Y-14600344D02*
X10050768Y-14600344D01*
X10050768Y-14600344D02*
X10069815Y-14609868D01*
X10069815Y-14609868D02*
X10079339Y-14619391D01*
X10079339Y-14619391D02*
X10088863Y-14638439D01*
X10088863Y-14638439D02*
X10088863Y-14647963D01*
X10088863Y-14647963D02*
X10079339Y-14667010D01*
X10079339Y-14667010D02*
X10069815Y-14676534D01*
X10069815Y-14676534D02*
X10050768Y-14686058D01*
X10050768Y-14686058D02*
X10012673Y-14686058D01*
X10012673Y-14686058D02*
X9993625Y-14695582D01*
X9993625Y-14695582D02*
X9984101Y-14705106D01*
X9984101Y-14705106D02*
X9974577Y-14724153D01*
X9974577Y-14724153D02*
X9974577Y-14762248D01*
X9974577Y-14762248D02*
X9984101Y-14781296D01*
X9984101Y-14781296D02*
X9993625Y-14790820D01*
X9993625Y-14790820D02*
X10012673Y-14800344D01*
X10012673Y-14800344D02*
X10050768Y-14800344D01*
X10050768Y-14800344D02*
X10069815Y-14790820D01*
X10069815Y-14790820D02*
X10079339Y-14781296D01*
X10079339Y-14781296D02*
X10088863Y-14762248D01*
X10088863Y-14762248D02*
X10088863Y-14724153D01*
X10088863Y-14724153D02*
X10079339Y-14705106D01*
X10079339Y-14705106D02*
X10069815Y-14695582D01*
X10069815Y-14695582D02*
X10050768Y-14686058D01*
X10269815Y-14600344D02*
X10174577Y-14600344D01*
X10174577Y-14600344D02*
X10165054Y-14695582D01*
X10165054Y-14695582D02*
X10174577Y-14686058D01*
X10174577Y-14686058D02*
X10193625Y-14676534D01*
X10193625Y-14676534D02*
X10241244Y-14676534D01*
X10241244Y-14676534D02*
X10260292Y-14686058D01*
X10260292Y-14686058D02*
X10269815Y-14695582D01*
X10269815Y-14695582D02*
X10279339Y-14714629D01*
X10279339Y-14714629D02*
X10279339Y-14762248D01*
X10279339Y-14762248D02*
X10269815Y-14781296D01*
X10269815Y-14781296D02*
X10260292Y-14790820D01*
X10260292Y-14790820D02*
X10241244Y-14800344D01*
X10241244Y-14800344D02*
X10193625Y-14800344D01*
X10193625Y-14800344D02*
X10174577Y-14790820D01*
X10174577Y-14790820D02*
X10165054Y-14781296D01*
X10403149Y-14600344D02*
X10422196Y-14600344D01*
X10422196Y-14600344D02*
X10441244Y-14609868D01*
X10441244Y-14609868D02*
X10450768Y-14619391D01*
X10450768Y-14619391D02*
X10460292Y-14638439D01*
X10460292Y-14638439D02*
X10469815Y-14676534D01*
X10469815Y-14676534D02*
X10469815Y-14724153D01*
X10469815Y-14724153D02*
X10460292Y-14762248D01*
X10460292Y-14762248D02*
X10450768Y-14781296D01*
X10450768Y-14781296D02*
X10441244Y-14790820D01*
X10441244Y-14790820D02*
X10422196Y-14800344D01*
X10422196Y-14800344D02*
X10403149Y-14800344D01*
X10403149Y-14800344D02*
X10384101Y-14790820D01*
X10384101Y-14790820D02*
X10374577Y-14781296D01*
X10374577Y-14781296D02*
X10365054Y-14762248D01*
X10365054Y-14762248D02*
X10355530Y-14724153D01*
X10355530Y-14724153D02*
X10355530Y-14676534D01*
X10355530Y-14676534D02*
X10365054Y-14638439D01*
X10365054Y-14638439D02*
X10374577Y-14619391D01*
X10374577Y-14619391D02*
X10384101Y-14609868D01*
X10384101Y-14609868D02*
X10403149Y-14600344D01*
X10555530Y-14800344D02*
X10555530Y-14667010D01*
X10555530Y-14686058D02*
X10565054Y-14676534D01*
X10565054Y-14676534D02*
X10584101Y-14667010D01*
X10584101Y-14667010D02*
X10612673Y-14667010D01*
X10612673Y-14667010D02*
X10631720Y-14676534D01*
X10631720Y-14676534D02*
X10641244Y-14695582D01*
X10641244Y-14695582D02*
X10641244Y-14800344D01*
X10641244Y-14695582D02*
X10650768Y-14676534D01*
X10650768Y-14676534D02*
X10669815Y-14667010D01*
X10669815Y-14667010D02*
X10698387Y-14667010D01*
X10698387Y-14667010D02*
X10717435Y-14676534D01*
X10717435Y-14676534D02*
X10726958Y-14695582D01*
X10726958Y-14695582D02*
X10726958Y-14800344D01*
X10822196Y-14800344D02*
X10822196Y-14667010D01*
X10822196Y-14686058D02*
X10831720Y-14676534D01*
X10831720Y-14676534D02*
X10850768Y-14667010D01*
X10850768Y-14667010D02*
X10879339Y-14667010D01*
X10879339Y-14667010D02*
X10898387Y-14676534D01*
X10898387Y-14676534D02*
X10907911Y-14695582D01*
X10907911Y-14695582D02*
X10907911Y-14800344D01*
X10907911Y-14695582D02*
X10917435Y-14676534D01*
X10917435Y-14676534D02*
X10936482Y-14667010D01*
X10936482Y-14667010D02*
X10965054Y-14667010D01*
X10965054Y-14667010D02*
X10984101Y-14676534D01*
X10984101Y-14676534D02*
X10993625Y-14695582D01*
X10993625Y-14695582D02*
X10993625Y-14800344D01*
X11384101Y-14590820D02*
X11212673Y-14847963D01*
X11641244Y-14600344D02*
X11660292Y-14600344D01*
X11660292Y-14600344D02*
X11679339Y-14609868D01*
X11679339Y-14609868D02*
X11688863Y-14619391D01*
X11688863Y-14619391D02*
X11698387Y-14638439D01*
X11698387Y-14638439D02*
X11707911Y-14676534D01*
X11707911Y-14676534D02*
X11707911Y-14724153D01*
X11707911Y-14724153D02*
X11698387Y-14762248D01*
X11698387Y-14762248D02*
X11688863Y-14781296D01*
X11688863Y-14781296D02*
X11679339Y-14790820D01*
X11679339Y-14790820D02*
X11660292Y-14800344D01*
X11660292Y-14800344D02*
X11641244Y-14800344D01*
X11641244Y-14800344D02*
X11622196Y-14790820D01*
X11622196Y-14790820D02*
X11612673Y-14781296D01*
X11612673Y-14781296D02*
X11603149Y-14762248D01*
X11603149Y-14762248D02*
X11593625Y-14724153D01*
X11593625Y-14724153D02*
X11593625Y-14676534D01*
X11593625Y-14676534D02*
X11603149Y-14638439D01*
X11603149Y-14638439D02*
X11612673Y-14619391D01*
X11612673Y-14619391D02*
X11622196Y-14609868D01*
X11622196Y-14609868D02*
X11641244Y-14600344D01*
X11793625Y-14781296D02*
X11803149Y-14790820D01*
X11803149Y-14790820D02*
X11793625Y-14800344D01*
X11793625Y-14800344D02*
X11784101Y-14790820D01*
X11784101Y-14790820D02*
X11793625Y-14781296D01*
X11793625Y-14781296D02*
X11793625Y-14800344D01*
X11926958Y-14600344D02*
X11946006Y-14600344D01*
X11946006Y-14600344D02*
X11965054Y-14609868D01*
X11965054Y-14609868D02*
X11974577Y-14619391D01*
X11974577Y-14619391D02*
X11984101Y-14638439D01*
X11984101Y-14638439D02*
X11993625Y-14676534D01*
X11993625Y-14676534D02*
X11993625Y-14724153D01*
X11993625Y-14724153D02*
X11984101Y-14762248D01*
X11984101Y-14762248D02*
X11974577Y-14781296D01*
X11974577Y-14781296D02*
X11965054Y-14790820D01*
X11965054Y-14790820D02*
X11946006Y-14800344D01*
X11946006Y-14800344D02*
X11926958Y-14800344D01*
X11926958Y-14800344D02*
X11907911Y-14790820D01*
X11907911Y-14790820D02*
X11898387Y-14781296D01*
X11898387Y-14781296D02*
X11888863Y-14762248D01*
X11888863Y-14762248D02*
X11879339Y-14724153D01*
X11879339Y-14724153D02*
X11879339Y-14676534D01*
X11879339Y-14676534D02*
X11888863Y-14638439D01*
X11888863Y-14638439D02*
X11898387Y-14619391D01*
X11898387Y-14619391D02*
X11907911Y-14609868D01*
X11907911Y-14609868D02*
X11926958Y-14600344D01*
X12060292Y-14600344D02*
X12184101Y-14600344D01*
X12184101Y-14600344D02*
X12117435Y-14676534D01*
X12117435Y-14676534D02*
X12146006Y-14676534D01*
X12146006Y-14676534D02*
X12165054Y-14686058D01*
X12165054Y-14686058D02*
X12174577Y-14695582D01*
X12174577Y-14695582D02*
X12184101Y-14714629D01*
X12184101Y-14714629D02*
X12184101Y-14762248D01*
X12184101Y-14762248D02*
X12174577Y-14781296D01*
X12174577Y-14781296D02*
X12165054Y-14790820D01*
X12165054Y-14790820D02*
X12146006Y-14800344D01*
X12146006Y-14800344D02*
X12088863Y-14800344D01*
X12088863Y-14800344D02*
X12069816Y-14790820D01*
X12069816Y-14790820D02*
X12060292Y-14781296D01*
X12250768Y-14600344D02*
X12374577Y-14600344D01*
X12374577Y-14600344D02*
X12307911Y-14676534D01*
X12307911Y-14676534D02*
X12336482Y-14676534D01*
X12336482Y-14676534D02*
X12355530Y-14686058D01*
X12355530Y-14686058D02*
X12365054Y-14695582D01*
X12365054Y-14695582D02*
X12374577Y-14714629D01*
X12374577Y-14714629D02*
X12374577Y-14762248D01*
X12374577Y-14762248D02*
X12365054Y-14781296D01*
X12365054Y-14781296D02*
X12355530Y-14790820D01*
X12355530Y-14790820D02*
X12336482Y-14800344D01*
X12336482Y-14800344D02*
X12279339Y-14800344D01*
X12279339Y-14800344D02*
X12260292Y-14790820D01*
X12260292Y-14790820D02*
X12250768Y-14781296D01*
X12555530Y-14600344D02*
X12460292Y-14600344D01*
X12460292Y-14600344D02*
X12450768Y-14695582D01*
X12450768Y-14695582D02*
X12460292Y-14686058D01*
X12460292Y-14686058D02*
X12479339Y-14676534D01*
X12479339Y-14676534D02*
X12526958Y-14676534D01*
X12526958Y-14676534D02*
X12546006Y-14686058D01*
X12546006Y-14686058D02*
X12555530Y-14695582D01*
X12555530Y-14695582D02*
X12565054Y-14714629D01*
X12565054Y-14714629D02*
X12565054Y-14762248D01*
X12565054Y-14762248D02*
X12555530Y-14781296D01*
X12555530Y-14781296D02*
X12546006Y-14790820D01*
X12546006Y-14790820D02*
X12526958Y-14800344D01*
X12526958Y-14800344D02*
X12479339Y-14800344D01*
X12479339Y-14800344D02*
X12460292Y-14790820D01*
X12460292Y-14790820D02*
X12450768Y-14781296D01*
X12641244Y-14600344D02*
X12641244Y-14638439D01*
X12717435Y-14600344D02*
X12717435Y-14638439D01*
X13012673Y-14876534D02*
X13003149Y-14867010D01*
X13003149Y-14867010D02*
X12984101Y-14838439D01*
X12984101Y-14838439D02*
X12974578Y-14819391D01*
X12974578Y-14819391D02*
X12965054Y-14790820D01*
X12965054Y-14790820D02*
X12955530Y-14743201D01*
X12955530Y-14743201D02*
X12955530Y-14705106D01*
X12955530Y-14705106D02*
X12965054Y-14657487D01*
X12965054Y-14657487D02*
X12974578Y-14628915D01*
X12974578Y-14628915D02*
X12984101Y-14609868D01*
X12984101Y-14609868D02*
X13003149Y-14581296D01*
X13003149Y-14581296D02*
X13012673Y-14571772D01*
X13079339Y-14619391D02*
X13088863Y-14609868D01*
X13088863Y-14609868D02*
X13107911Y-14600344D01*
X13107911Y-14600344D02*
X13155530Y-14600344D01*
X13155530Y-14600344D02*
X13174578Y-14609868D01*
X13174578Y-14609868D02*
X13184101Y-14619391D01*
X13184101Y-14619391D02*
X13193625Y-14638439D01*
X13193625Y-14638439D02*
X13193625Y-14657487D01*
X13193625Y-14657487D02*
X13184101Y-14686058D01*
X13184101Y-14686058D02*
X13069816Y-14800344D01*
X13069816Y-14800344D02*
X13193625Y-14800344D01*
X13431720Y-14800344D02*
X13431720Y-14600344D01*
X13517435Y-14800344D02*
X13517435Y-14695582D01*
X13517435Y-14695582D02*
X13507911Y-14676534D01*
X13507911Y-14676534D02*
X13488863Y-14667010D01*
X13488863Y-14667010D02*
X13460292Y-14667010D01*
X13460292Y-14667010D02*
X13441244Y-14676534D01*
X13441244Y-14676534D02*
X13431720Y-14686058D01*
X13641244Y-14800344D02*
X13622197Y-14790820D01*
X13622197Y-14790820D02*
X13612673Y-14781296D01*
X13612673Y-14781296D02*
X13603149Y-14762248D01*
X13603149Y-14762248D02*
X13603149Y-14705106D01*
X13603149Y-14705106D02*
X13612673Y-14686058D01*
X13612673Y-14686058D02*
X13622197Y-14676534D01*
X13622197Y-14676534D02*
X13641244Y-14667010D01*
X13641244Y-14667010D02*
X13669816Y-14667010D01*
X13669816Y-14667010D02*
X13688863Y-14676534D01*
X13688863Y-14676534D02*
X13698387Y-14686058D01*
X13698387Y-14686058D02*
X13707911Y-14705106D01*
X13707911Y-14705106D02*
X13707911Y-14762248D01*
X13707911Y-14762248D02*
X13698387Y-14781296D01*
X13698387Y-14781296D02*
X13688863Y-14790820D01*
X13688863Y-14790820D02*
X13669816Y-14800344D01*
X13669816Y-14800344D02*
X13641244Y-14800344D01*
X13822197Y-14800344D02*
X13803149Y-14790820D01*
X13803149Y-14790820D02*
X13793625Y-14771772D01*
X13793625Y-14771772D02*
X13793625Y-14600344D01*
X13974578Y-14790820D02*
X13955530Y-14800344D01*
X13955530Y-14800344D02*
X13917435Y-14800344D01*
X13917435Y-14800344D02*
X13898387Y-14790820D01*
X13898387Y-14790820D02*
X13888863Y-14771772D01*
X13888863Y-14771772D02*
X13888863Y-14695582D01*
X13888863Y-14695582D02*
X13898387Y-14676534D01*
X13898387Y-14676534D02*
X13917435Y-14667010D01*
X13917435Y-14667010D02*
X13955530Y-14667010D01*
X13955530Y-14667010D02*
X13974578Y-14676534D01*
X13974578Y-14676534D02*
X13984101Y-14695582D01*
X13984101Y-14695582D02*
X13984101Y-14714629D01*
X13984101Y-14714629D02*
X13888863Y-14733677D01*
X14060292Y-14790820D02*
X14079340Y-14800344D01*
X14079340Y-14800344D02*
X14117435Y-14800344D01*
X14117435Y-14800344D02*
X14136482Y-14790820D01*
X14136482Y-14790820D02*
X14146006Y-14771772D01*
X14146006Y-14771772D02*
X14146006Y-14762248D01*
X14146006Y-14762248D02*
X14136482Y-14743201D01*
X14136482Y-14743201D02*
X14117435Y-14733677D01*
X14117435Y-14733677D02*
X14088863Y-14733677D01*
X14088863Y-14733677D02*
X14069816Y-14724153D01*
X14069816Y-14724153D02*
X14060292Y-14705106D01*
X14060292Y-14705106D02*
X14060292Y-14695582D01*
X14060292Y-14695582D02*
X14069816Y-14676534D01*
X14069816Y-14676534D02*
X14088863Y-14667010D01*
X14088863Y-14667010D02*
X14117435Y-14667010D01*
X14117435Y-14667010D02*
X14136482Y-14676534D01*
X14212673Y-14876534D02*
X14222197Y-14867010D01*
X14222197Y-14867010D02*
X14241244Y-14838439D01*
X14241244Y-14838439D02*
X14250768Y-14819391D01*
X14250768Y-14819391D02*
X14260292Y-14790820D01*
X14260292Y-14790820D02*
X14269816Y-14743201D01*
X14269816Y-14743201D02*
X14269816Y-14705106D01*
X14269816Y-14705106D02*
X14260292Y-14657487D01*
X14260292Y-14657487D02*
X14250768Y-14628915D01*
X14250768Y-14628915D02*
X14241244Y-14609868D01*
X14241244Y-14609868D02*
X14222197Y-14581296D01*
X14222197Y-14581296D02*
X14212673Y-14571772D01*
D12*
X9337610Y-14922860D02*
X9437610Y-15022860D01*
X9437610Y-14922860D02*
X9337610Y-15022860D01*
X9437610Y-14972860D02*
G75*
G02*
X9337610Y-14972860I-50000J0D01*
G01*
X9337610Y-14972860D02*
G75*
G02*
X9437610Y-14972860I50000J0D01*
G01*
D11*
X9803149Y-15064344D02*
X9688863Y-15064344D01*
X9746006Y-15064344D02*
X9746006Y-14864344D01*
X9746006Y-14864344D02*
X9726958Y-14892915D01*
X9726958Y-14892915D02*
X9707911Y-14911963D01*
X9707911Y-14911963D02*
X9688863Y-14921487D01*
X9888863Y-15045296D02*
X9898387Y-15054820D01*
X9898387Y-15054820D02*
X9888863Y-15064344D01*
X9888863Y-15064344D02*
X9879339Y-15054820D01*
X9879339Y-15054820D02*
X9888863Y-15045296D01*
X9888863Y-15045296D02*
X9888863Y-15064344D01*
X10022196Y-14864344D02*
X10041244Y-14864344D01*
X10041244Y-14864344D02*
X10060292Y-14873868D01*
X10060292Y-14873868D02*
X10069815Y-14883391D01*
X10069815Y-14883391D02*
X10079339Y-14902439D01*
X10079339Y-14902439D02*
X10088863Y-14940534D01*
X10088863Y-14940534D02*
X10088863Y-14988153D01*
X10088863Y-14988153D02*
X10079339Y-15026248D01*
X10079339Y-15026248D02*
X10069815Y-15045296D01*
X10069815Y-15045296D02*
X10060292Y-15054820D01*
X10060292Y-15054820D02*
X10041244Y-15064344D01*
X10041244Y-15064344D02*
X10022196Y-15064344D01*
X10022196Y-15064344D02*
X10003149Y-15054820D01*
X10003149Y-15054820D02*
X9993625Y-15045296D01*
X9993625Y-15045296D02*
X9984101Y-15026248D01*
X9984101Y-15026248D02*
X9974577Y-14988153D01*
X9974577Y-14988153D02*
X9974577Y-14940534D01*
X9974577Y-14940534D02*
X9984101Y-14902439D01*
X9984101Y-14902439D02*
X9993625Y-14883391D01*
X9993625Y-14883391D02*
X10003149Y-14873868D01*
X10003149Y-14873868D02*
X10022196Y-14864344D01*
X10212673Y-14864344D02*
X10231720Y-14864344D01*
X10231720Y-14864344D02*
X10250768Y-14873868D01*
X10250768Y-14873868D02*
X10260292Y-14883391D01*
X10260292Y-14883391D02*
X10269815Y-14902439D01*
X10269815Y-14902439D02*
X10279339Y-14940534D01*
X10279339Y-14940534D02*
X10279339Y-14988153D01*
X10279339Y-14988153D02*
X10269815Y-15026248D01*
X10269815Y-15026248D02*
X10260292Y-15045296D01*
X10260292Y-15045296D02*
X10250768Y-15054820D01*
X10250768Y-15054820D02*
X10231720Y-15064344D01*
X10231720Y-15064344D02*
X10212673Y-15064344D01*
X10212673Y-15064344D02*
X10193625Y-15054820D01*
X10193625Y-15054820D02*
X10184101Y-15045296D01*
X10184101Y-15045296D02*
X10174577Y-15026248D01*
X10174577Y-15026248D02*
X10165054Y-14988153D01*
X10165054Y-14988153D02*
X10165054Y-14940534D01*
X10165054Y-14940534D02*
X10174577Y-14902439D01*
X10174577Y-14902439D02*
X10184101Y-14883391D01*
X10184101Y-14883391D02*
X10193625Y-14873868D01*
X10193625Y-14873868D02*
X10212673Y-14864344D01*
X10403149Y-14864344D02*
X10422196Y-14864344D01*
X10422196Y-14864344D02*
X10441244Y-14873868D01*
X10441244Y-14873868D02*
X10450768Y-14883391D01*
X10450768Y-14883391D02*
X10460292Y-14902439D01*
X10460292Y-14902439D02*
X10469815Y-14940534D01*
X10469815Y-14940534D02*
X10469815Y-14988153D01*
X10469815Y-14988153D02*
X10460292Y-15026248D01*
X10460292Y-15026248D02*
X10450768Y-15045296D01*
X10450768Y-15045296D02*
X10441244Y-15054820D01*
X10441244Y-15054820D02*
X10422196Y-15064344D01*
X10422196Y-15064344D02*
X10403149Y-15064344D01*
X10403149Y-15064344D02*
X10384101Y-15054820D01*
X10384101Y-15054820D02*
X10374577Y-15045296D01*
X10374577Y-15045296D02*
X10365054Y-15026248D01*
X10365054Y-15026248D02*
X10355530Y-14988153D01*
X10355530Y-14988153D02*
X10355530Y-14940534D01*
X10355530Y-14940534D02*
X10365054Y-14902439D01*
X10365054Y-14902439D02*
X10374577Y-14883391D01*
X10374577Y-14883391D02*
X10384101Y-14873868D01*
X10384101Y-14873868D02*
X10403149Y-14864344D01*
X10555530Y-15064344D02*
X10555530Y-14931010D01*
X10555530Y-14950058D02*
X10565054Y-14940534D01*
X10565054Y-14940534D02*
X10584101Y-14931010D01*
X10584101Y-14931010D02*
X10612673Y-14931010D01*
X10612673Y-14931010D02*
X10631720Y-14940534D01*
X10631720Y-14940534D02*
X10641244Y-14959582D01*
X10641244Y-14959582D02*
X10641244Y-15064344D01*
X10641244Y-14959582D02*
X10650768Y-14940534D01*
X10650768Y-14940534D02*
X10669815Y-14931010D01*
X10669815Y-14931010D02*
X10698387Y-14931010D01*
X10698387Y-14931010D02*
X10717435Y-14940534D01*
X10717435Y-14940534D02*
X10726958Y-14959582D01*
X10726958Y-14959582D02*
X10726958Y-15064344D01*
X10822196Y-15064344D02*
X10822196Y-14931010D01*
X10822196Y-14950058D02*
X10831720Y-14940534D01*
X10831720Y-14940534D02*
X10850768Y-14931010D01*
X10850768Y-14931010D02*
X10879339Y-14931010D01*
X10879339Y-14931010D02*
X10898387Y-14940534D01*
X10898387Y-14940534D02*
X10907911Y-14959582D01*
X10907911Y-14959582D02*
X10907911Y-15064344D01*
X10907911Y-14959582D02*
X10917435Y-14940534D01*
X10917435Y-14940534D02*
X10936482Y-14931010D01*
X10936482Y-14931010D02*
X10965054Y-14931010D01*
X10965054Y-14931010D02*
X10984101Y-14940534D01*
X10984101Y-14940534D02*
X10993625Y-14959582D01*
X10993625Y-14959582D02*
X10993625Y-15064344D01*
X11384101Y-14854820D02*
X11212673Y-15111963D01*
X11641244Y-14864344D02*
X11660292Y-14864344D01*
X11660292Y-14864344D02*
X11679339Y-14873868D01*
X11679339Y-14873868D02*
X11688863Y-14883391D01*
X11688863Y-14883391D02*
X11698387Y-14902439D01*
X11698387Y-14902439D02*
X11707911Y-14940534D01*
X11707911Y-14940534D02*
X11707911Y-14988153D01*
X11707911Y-14988153D02*
X11698387Y-15026248D01*
X11698387Y-15026248D02*
X11688863Y-15045296D01*
X11688863Y-15045296D02*
X11679339Y-15054820D01*
X11679339Y-15054820D02*
X11660292Y-15064344D01*
X11660292Y-15064344D02*
X11641244Y-15064344D01*
X11641244Y-15064344D02*
X11622196Y-15054820D01*
X11622196Y-15054820D02*
X11612673Y-15045296D01*
X11612673Y-15045296D02*
X11603149Y-15026248D01*
X11603149Y-15026248D02*
X11593625Y-14988153D01*
X11593625Y-14988153D02*
X11593625Y-14940534D01*
X11593625Y-14940534D02*
X11603149Y-14902439D01*
X11603149Y-14902439D02*
X11612673Y-14883391D01*
X11612673Y-14883391D02*
X11622196Y-14873868D01*
X11622196Y-14873868D02*
X11641244Y-14864344D01*
X11793625Y-15045296D02*
X11803149Y-15054820D01*
X11803149Y-15054820D02*
X11793625Y-15064344D01*
X11793625Y-15064344D02*
X11784101Y-15054820D01*
X11784101Y-15054820D02*
X11793625Y-15045296D01*
X11793625Y-15045296D02*
X11793625Y-15064344D01*
X11926958Y-14864344D02*
X11946006Y-14864344D01*
X11946006Y-14864344D02*
X11965054Y-14873868D01*
X11965054Y-14873868D02*
X11974577Y-14883391D01*
X11974577Y-14883391D02*
X11984101Y-14902439D01*
X11984101Y-14902439D02*
X11993625Y-14940534D01*
X11993625Y-14940534D02*
X11993625Y-14988153D01*
X11993625Y-14988153D02*
X11984101Y-15026248D01*
X11984101Y-15026248D02*
X11974577Y-15045296D01*
X11974577Y-15045296D02*
X11965054Y-15054820D01*
X11965054Y-15054820D02*
X11946006Y-15064344D01*
X11946006Y-15064344D02*
X11926958Y-15064344D01*
X11926958Y-15064344D02*
X11907911Y-15054820D01*
X11907911Y-15054820D02*
X11898387Y-15045296D01*
X11898387Y-15045296D02*
X11888863Y-15026248D01*
X11888863Y-15026248D02*
X11879339Y-14988153D01*
X11879339Y-14988153D02*
X11879339Y-14940534D01*
X11879339Y-14940534D02*
X11888863Y-14902439D01*
X11888863Y-14902439D02*
X11898387Y-14883391D01*
X11898387Y-14883391D02*
X11907911Y-14873868D01*
X11907911Y-14873868D02*
X11926958Y-14864344D01*
X12060292Y-14864344D02*
X12184101Y-14864344D01*
X12184101Y-14864344D02*
X12117435Y-14940534D01*
X12117435Y-14940534D02*
X12146006Y-14940534D01*
X12146006Y-14940534D02*
X12165054Y-14950058D01*
X12165054Y-14950058D02*
X12174577Y-14959582D01*
X12174577Y-14959582D02*
X12184101Y-14978629D01*
X12184101Y-14978629D02*
X12184101Y-15026248D01*
X12184101Y-15026248D02*
X12174577Y-15045296D01*
X12174577Y-15045296D02*
X12165054Y-15054820D01*
X12165054Y-15054820D02*
X12146006Y-15064344D01*
X12146006Y-15064344D02*
X12088863Y-15064344D01*
X12088863Y-15064344D02*
X12069816Y-15054820D01*
X12069816Y-15054820D02*
X12060292Y-15045296D01*
X12279339Y-15064344D02*
X12317435Y-15064344D01*
X12317435Y-15064344D02*
X12336482Y-15054820D01*
X12336482Y-15054820D02*
X12346006Y-15045296D01*
X12346006Y-15045296D02*
X12365054Y-15016725D01*
X12365054Y-15016725D02*
X12374577Y-14978629D01*
X12374577Y-14978629D02*
X12374577Y-14902439D01*
X12374577Y-14902439D02*
X12365054Y-14883391D01*
X12365054Y-14883391D02*
X12355530Y-14873868D01*
X12355530Y-14873868D02*
X12336482Y-14864344D01*
X12336482Y-14864344D02*
X12298387Y-14864344D01*
X12298387Y-14864344D02*
X12279339Y-14873868D01*
X12279339Y-14873868D02*
X12269816Y-14883391D01*
X12269816Y-14883391D02*
X12260292Y-14902439D01*
X12260292Y-14902439D02*
X12260292Y-14950058D01*
X12260292Y-14950058D02*
X12269816Y-14969106D01*
X12269816Y-14969106D02*
X12279339Y-14978629D01*
X12279339Y-14978629D02*
X12298387Y-14988153D01*
X12298387Y-14988153D02*
X12336482Y-14988153D01*
X12336482Y-14988153D02*
X12355530Y-14978629D01*
X12355530Y-14978629D02*
X12365054Y-14969106D01*
X12365054Y-14969106D02*
X12374577Y-14950058D01*
X12546006Y-14931010D02*
X12546006Y-15064344D01*
X12498387Y-14854820D02*
X12450768Y-14997677D01*
X12450768Y-14997677D02*
X12574577Y-14997677D01*
X12641244Y-14864344D02*
X12641244Y-14902439D01*
X12717435Y-14864344D02*
X12717435Y-14902439D01*
X13012673Y-15140534D02*
X13003149Y-15131010D01*
X13003149Y-15131010D02*
X12984101Y-15102439D01*
X12984101Y-15102439D02*
X12974578Y-15083391D01*
X12974578Y-15083391D02*
X12965054Y-15054820D01*
X12965054Y-15054820D02*
X12955530Y-15007201D01*
X12955530Y-15007201D02*
X12955530Y-14969106D01*
X12955530Y-14969106D02*
X12965054Y-14921487D01*
X12965054Y-14921487D02*
X12974578Y-14892915D01*
X12974578Y-14892915D02*
X12984101Y-14873868D01*
X12984101Y-14873868D02*
X13003149Y-14845296D01*
X13003149Y-14845296D02*
X13012673Y-14835772D01*
X13174578Y-14864344D02*
X13136482Y-14864344D01*
X13136482Y-14864344D02*
X13117435Y-14873868D01*
X13117435Y-14873868D02*
X13107911Y-14883391D01*
X13107911Y-14883391D02*
X13088863Y-14911963D01*
X13088863Y-14911963D02*
X13079339Y-14950058D01*
X13079339Y-14950058D02*
X13079339Y-15026248D01*
X13079339Y-15026248D02*
X13088863Y-15045296D01*
X13088863Y-15045296D02*
X13098387Y-15054820D01*
X13098387Y-15054820D02*
X13117435Y-15064344D01*
X13117435Y-15064344D02*
X13155530Y-15064344D01*
X13155530Y-15064344D02*
X13174578Y-15054820D01*
X13174578Y-15054820D02*
X13184101Y-15045296D01*
X13184101Y-15045296D02*
X13193625Y-15026248D01*
X13193625Y-15026248D02*
X13193625Y-14978629D01*
X13193625Y-14978629D02*
X13184101Y-14959582D01*
X13184101Y-14959582D02*
X13174578Y-14950058D01*
X13174578Y-14950058D02*
X13155530Y-14940534D01*
X13155530Y-14940534D02*
X13117435Y-14940534D01*
X13117435Y-14940534D02*
X13098387Y-14950058D01*
X13098387Y-14950058D02*
X13088863Y-14959582D01*
X13088863Y-14959582D02*
X13079339Y-14978629D01*
X13431720Y-15064344D02*
X13431720Y-14864344D01*
X13517435Y-15064344D02*
X13517435Y-14959582D01*
X13517435Y-14959582D02*
X13507911Y-14940534D01*
X13507911Y-14940534D02*
X13488863Y-14931010D01*
X13488863Y-14931010D02*
X13460292Y-14931010D01*
X13460292Y-14931010D02*
X13441244Y-14940534D01*
X13441244Y-14940534D02*
X13431720Y-14950058D01*
X13641244Y-15064344D02*
X13622197Y-15054820D01*
X13622197Y-15054820D02*
X13612673Y-15045296D01*
X13612673Y-15045296D02*
X13603149Y-15026248D01*
X13603149Y-15026248D02*
X13603149Y-14969106D01*
X13603149Y-14969106D02*
X13612673Y-14950058D01*
X13612673Y-14950058D02*
X13622197Y-14940534D01*
X13622197Y-14940534D02*
X13641244Y-14931010D01*
X13641244Y-14931010D02*
X13669816Y-14931010D01*
X13669816Y-14931010D02*
X13688863Y-14940534D01*
X13688863Y-14940534D02*
X13698387Y-14950058D01*
X13698387Y-14950058D02*
X13707911Y-14969106D01*
X13707911Y-14969106D02*
X13707911Y-15026248D01*
X13707911Y-15026248D02*
X13698387Y-15045296D01*
X13698387Y-15045296D02*
X13688863Y-15054820D01*
X13688863Y-15054820D02*
X13669816Y-15064344D01*
X13669816Y-15064344D02*
X13641244Y-15064344D01*
X13822197Y-15064344D02*
X13803149Y-15054820D01*
X13803149Y-15054820D02*
X13793625Y-15035772D01*
X13793625Y-15035772D02*
X13793625Y-14864344D01*
X13974578Y-15054820D02*
X13955530Y-15064344D01*
X13955530Y-15064344D02*
X13917435Y-15064344D01*
X13917435Y-15064344D02*
X13898387Y-15054820D01*
X13898387Y-15054820D02*
X13888863Y-15035772D01*
X13888863Y-15035772D02*
X13888863Y-14959582D01*
X13888863Y-14959582D02*
X13898387Y-14940534D01*
X13898387Y-14940534D02*
X13917435Y-14931010D01*
X13917435Y-14931010D02*
X13955530Y-14931010D01*
X13955530Y-14931010D02*
X13974578Y-14940534D01*
X13974578Y-14940534D02*
X13984101Y-14959582D01*
X13984101Y-14959582D02*
X13984101Y-14978629D01*
X13984101Y-14978629D02*
X13888863Y-14997677D01*
X14060292Y-15054820D02*
X14079340Y-15064344D01*
X14079340Y-15064344D02*
X14117435Y-15064344D01*
X14117435Y-15064344D02*
X14136482Y-15054820D01*
X14136482Y-15054820D02*
X14146006Y-15035772D01*
X14146006Y-15035772D02*
X14146006Y-15026248D01*
X14146006Y-15026248D02*
X14136482Y-15007201D01*
X14136482Y-15007201D02*
X14117435Y-14997677D01*
X14117435Y-14997677D02*
X14088863Y-14997677D01*
X14088863Y-14997677D02*
X14069816Y-14988153D01*
X14069816Y-14988153D02*
X14060292Y-14969106D01*
X14060292Y-14969106D02*
X14060292Y-14959582D01*
X14060292Y-14959582D02*
X14069816Y-14940534D01*
X14069816Y-14940534D02*
X14088863Y-14931010D01*
X14088863Y-14931010D02*
X14117435Y-14931010D01*
X14117435Y-14931010D02*
X14136482Y-14940534D01*
X14212673Y-15140534D02*
X14222197Y-15131010D01*
X14222197Y-15131010D02*
X14241244Y-15102439D01*
X14241244Y-15102439D02*
X14250768Y-15083391D01*
X14250768Y-15083391D02*
X14260292Y-15054820D01*
X14260292Y-15054820D02*
X14269816Y-15007201D01*
X14269816Y-15007201D02*
X14269816Y-14969106D01*
X14269816Y-14969106D02*
X14260292Y-14921487D01*
X14260292Y-14921487D02*
X14250768Y-14892915D01*
X14250768Y-14892915D02*
X14241244Y-14873868D01*
X14241244Y-14873868D02*
X14222197Y-14845296D01*
X14222197Y-14845296D02*
X14212673Y-14835772D01*
D13*
X9336010Y-15186060D02*
X9437610Y-15287660D01*
X9437610Y-15186060D02*
X9336010Y-15287660D01*
X9386810Y-15186060D02*
X9386810Y-15287660D01*
X9336010Y-15236860D02*
X9437610Y-15236860D01*
D11*
X9803149Y-15328344D02*
X9688863Y-15328344D01*
X9746006Y-15328344D02*
X9746006Y-15128344D01*
X9746006Y-15128344D02*
X9726958Y-15156915D01*
X9726958Y-15156915D02*
X9707911Y-15175963D01*
X9707911Y-15175963D02*
X9688863Y-15185487D01*
X9888863Y-15309296D02*
X9898387Y-15318820D01*
X9898387Y-15318820D02*
X9888863Y-15328344D01*
X9888863Y-15328344D02*
X9879339Y-15318820D01*
X9879339Y-15318820D02*
X9888863Y-15309296D01*
X9888863Y-15309296D02*
X9888863Y-15328344D01*
X10022196Y-15128344D02*
X10041244Y-15128344D01*
X10041244Y-15128344D02*
X10060292Y-15137868D01*
X10060292Y-15137868D02*
X10069815Y-15147391D01*
X10069815Y-15147391D02*
X10079339Y-15166439D01*
X10079339Y-15166439D02*
X10088863Y-15204534D01*
X10088863Y-15204534D02*
X10088863Y-15252153D01*
X10088863Y-15252153D02*
X10079339Y-15290248D01*
X10079339Y-15290248D02*
X10069815Y-15309296D01*
X10069815Y-15309296D02*
X10060292Y-15318820D01*
X10060292Y-15318820D02*
X10041244Y-15328344D01*
X10041244Y-15328344D02*
X10022196Y-15328344D01*
X10022196Y-15328344D02*
X10003149Y-15318820D01*
X10003149Y-15318820D02*
X9993625Y-15309296D01*
X9993625Y-15309296D02*
X9984101Y-15290248D01*
X9984101Y-15290248D02*
X9974577Y-15252153D01*
X9974577Y-15252153D02*
X9974577Y-15204534D01*
X9974577Y-15204534D02*
X9984101Y-15166439D01*
X9984101Y-15166439D02*
X9993625Y-15147391D01*
X9993625Y-15147391D02*
X10003149Y-15137868D01*
X10003149Y-15137868D02*
X10022196Y-15128344D01*
X10279339Y-15328344D02*
X10165054Y-15328344D01*
X10222196Y-15328344D02*
X10222196Y-15128344D01*
X10222196Y-15128344D02*
X10203149Y-15156915D01*
X10203149Y-15156915D02*
X10184101Y-15175963D01*
X10184101Y-15175963D02*
X10165054Y-15185487D01*
X10450768Y-15128344D02*
X10412673Y-15128344D01*
X10412673Y-15128344D02*
X10393625Y-15137868D01*
X10393625Y-15137868D02*
X10384101Y-15147391D01*
X10384101Y-15147391D02*
X10365054Y-15175963D01*
X10365054Y-15175963D02*
X10355530Y-15214058D01*
X10355530Y-15214058D02*
X10355530Y-15290248D01*
X10355530Y-15290248D02*
X10365054Y-15309296D01*
X10365054Y-15309296D02*
X10374577Y-15318820D01*
X10374577Y-15318820D02*
X10393625Y-15328344D01*
X10393625Y-15328344D02*
X10431720Y-15328344D01*
X10431720Y-15328344D02*
X10450768Y-15318820D01*
X10450768Y-15318820D02*
X10460292Y-15309296D01*
X10460292Y-15309296D02*
X10469815Y-15290248D01*
X10469815Y-15290248D02*
X10469815Y-15242629D01*
X10469815Y-15242629D02*
X10460292Y-15223582D01*
X10460292Y-15223582D02*
X10450768Y-15214058D01*
X10450768Y-15214058D02*
X10431720Y-15204534D01*
X10431720Y-15204534D02*
X10393625Y-15204534D01*
X10393625Y-15204534D02*
X10374577Y-15214058D01*
X10374577Y-15214058D02*
X10365054Y-15223582D01*
X10365054Y-15223582D02*
X10355530Y-15242629D01*
X10555530Y-15328344D02*
X10555530Y-15195010D01*
X10555530Y-15214058D02*
X10565054Y-15204534D01*
X10565054Y-15204534D02*
X10584101Y-15195010D01*
X10584101Y-15195010D02*
X10612673Y-15195010D01*
X10612673Y-15195010D02*
X10631720Y-15204534D01*
X10631720Y-15204534D02*
X10641244Y-15223582D01*
X10641244Y-15223582D02*
X10641244Y-15328344D01*
X10641244Y-15223582D02*
X10650768Y-15204534D01*
X10650768Y-15204534D02*
X10669815Y-15195010D01*
X10669815Y-15195010D02*
X10698387Y-15195010D01*
X10698387Y-15195010D02*
X10717435Y-15204534D01*
X10717435Y-15204534D02*
X10726958Y-15223582D01*
X10726958Y-15223582D02*
X10726958Y-15328344D01*
X10822196Y-15328344D02*
X10822196Y-15195010D01*
X10822196Y-15214058D02*
X10831720Y-15204534D01*
X10831720Y-15204534D02*
X10850768Y-15195010D01*
X10850768Y-15195010D02*
X10879339Y-15195010D01*
X10879339Y-15195010D02*
X10898387Y-15204534D01*
X10898387Y-15204534D02*
X10907911Y-15223582D01*
X10907911Y-15223582D02*
X10907911Y-15328344D01*
X10907911Y-15223582D02*
X10917435Y-15204534D01*
X10917435Y-15204534D02*
X10936482Y-15195010D01*
X10936482Y-15195010D02*
X10965054Y-15195010D01*
X10965054Y-15195010D02*
X10984101Y-15204534D01*
X10984101Y-15204534D02*
X10993625Y-15223582D01*
X10993625Y-15223582D02*
X10993625Y-15328344D01*
X11384101Y-15118820D02*
X11212673Y-15375963D01*
X11641244Y-15128344D02*
X11660292Y-15128344D01*
X11660292Y-15128344D02*
X11679339Y-15137868D01*
X11679339Y-15137868D02*
X11688863Y-15147391D01*
X11688863Y-15147391D02*
X11698387Y-15166439D01*
X11698387Y-15166439D02*
X11707911Y-15204534D01*
X11707911Y-15204534D02*
X11707911Y-15252153D01*
X11707911Y-15252153D02*
X11698387Y-15290248D01*
X11698387Y-15290248D02*
X11688863Y-15309296D01*
X11688863Y-15309296D02*
X11679339Y-15318820D01*
X11679339Y-15318820D02*
X11660292Y-15328344D01*
X11660292Y-15328344D02*
X11641244Y-15328344D01*
X11641244Y-15328344D02*
X11622196Y-15318820D01*
X11622196Y-15318820D02*
X11612673Y-15309296D01*
X11612673Y-15309296D02*
X11603149Y-15290248D01*
X11603149Y-15290248D02*
X11593625Y-15252153D01*
X11593625Y-15252153D02*
X11593625Y-15204534D01*
X11593625Y-15204534D02*
X11603149Y-15166439D01*
X11603149Y-15166439D02*
X11612673Y-15147391D01*
X11612673Y-15147391D02*
X11622196Y-15137868D01*
X11622196Y-15137868D02*
X11641244Y-15128344D01*
X11793625Y-15309296D02*
X11803149Y-15318820D01*
X11803149Y-15318820D02*
X11793625Y-15328344D01*
X11793625Y-15328344D02*
X11784101Y-15318820D01*
X11784101Y-15318820D02*
X11793625Y-15309296D01*
X11793625Y-15309296D02*
X11793625Y-15328344D01*
X11926958Y-15128344D02*
X11946006Y-15128344D01*
X11946006Y-15128344D02*
X11965054Y-15137868D01*
X11965054Y-15137868D02*
X11974577Y-15147391D01*
X11974577Y-15147391D02*
X11984101Y-15166439D01*
X11984101Y-15166439D02*
X11993625Y-15204534D01*
X11993625Y-15204534D02*
X11993625Y-15252153D01*
X11993625Y-15252153D02*
X11984101Y-15290248D01*
X11984101Y-15290248D02*
X11974577Y-15309296D01*
X11974577Y-15309296D02*
X11965054Y-15318820D01*
X11965054Y-15318820D02*
X11946006Y-15328344D01*
X11946006Y-15328344D02*
X11926958Y-15328344D01*
X11926958Y-15328344D02*
X11907911Y-15318820D01*
X11907911Y-15318820D02*
X11898387Y-15309296D01*
X11898387Y-15309296D02*
X11888863Y-15290248D01*
X11888863Y-15290248D02*
X11879339Y-15252153D01*
X11879339Y-15252153D02*
X11879339Y-15204534D01*
X11879339Y-15204534D02*
X11888863Y-15166439D01*
X11888863Y-15166439D02*
X11898387Y-15147391D01*
X11898387Y-15147391D02*
X11907911Y-15137868D01*
X11907911Y-15137868D02*
X11926958Y-15128344D01*
X12165054Y-15195010D02*
X12165054Y-15328344D01*
X12117435Y-15118820D02*
X12069816Y-15261677D01*
X12069816Y-15261677D02*
X12193625Y-15261677D01*
X12307911Y-15128344D02*
X12326958Y-15128344D01*
X12326958Y-15128344D02*
X12346006Y-15137868D01*
X12346006Y-15137868D02*
X12355530Y-15147391D01*
X12355530Y-15147391D02*
X12365054Y-15166439D01*
X12365054Y-15166439D02*
X12374577Y-15204534D01*
X12374577Y-15204534D02*
X12374577Y-15252153D01*
X12374577Y-15252153D02*
X12365054Y-15290248D01*
X12365054Y-15290248D02*
X12355530Y-15309296D01*
X12355530Y-15309296D02*
X12346006Y-15318820D01*
X12346006Y-15318820D02*
X12326958Y-15328344D01*
X12326958Y-15328344D02*
X12307911Y-15328344D01*
X12307911Y-15328344D02*
X12288863Y-15318820D01*
X12288863Y-15318820D02*
X12279339Y-15309296D01*
X12279339Y-15309296D02*
X12269816Y-15290248D01*
X12269816Y-15290248D02*
X12260292Y-15252153D01*
X12260292Y-15252153D02*
X12260292Y-15204534D01*
X12260292Y-15204534D02*
X12269816Y-15166439D01*
X12269816Y-15166439D02*
X12279339Y-15147391D01*
X12279339Y-15147391D02*
X12288863Y-15137868D01*
X12288863Y-15137868D02*
X12307911Y-15128344D01*
X12498387Y-15128344D02*
X12517435Y-15128344D01*
X12517435Y-15128344D02*
X12536482Y-15137868D01*
X12536482Y-15137868D02*
X12546006Y-15147391D01*
X12546006Y-15147391D02*
X12555530Y-15166439D01*
X12555530Y-15166439D02*
X12565054Y-15204534D01*
X12565054Y-15204534D02*
X12565054Y-15252153D01*
X12565054Y-15252153D02*
X12555530Y-15290248D01*
X12555530Y-15290248D02*
X12546006Y-15309296D01*
X12546006Y-15309296D02*
X12536482Y-15318820D01*
X12536482Y-15318820D02*
X12517435Y-15328344D01*
X12517435Y-15328344D02*
X12498387Y-15328344D01*
X12498387Y-15328344D02*
X12479339Y-15318820D01*
X12479339Y-15318820D02*
X12469816Y-15309296D01*
X12469816Y-15309296D02*
X12460292Y-15290248D01*
X12460292Y-15290248D02*
X12450768Y-15252153D01*
X12450768Y-15252153D02*
X12450768Y-15204534D01*
X12450768Y-15204534D02*
X12460292Y-15166439D01*
X12460292Y-15166439D02*
X12469816Y-15147391D01*
X12469816Y-15147391D02*
X12479339Y-15137868D01*
X12479339Y-15137868D02*
X12498387Y-15128344D01*
X12641244Y-15128344D02*
X12641244Y-15166439D01*
X12717435Y-15128344D02*
X12717435Y-15166439D01*
X13012673Y-15404534D02*
X13003149Y-15395010D01*
X13003149Y-15395010D02*
X12984101Y-15366439D01*
X12984101Y-15366439D02*
X12974578Y-15347391D01*
X12974578Y-15347391D02*
X12965054Y-15318820D01*
X12965054Y-15318820D02*
X12955530Y-15271201D01*
X12955530Y-15271201D02*
X12955530Y-15233106D01*
X12955530Y-15233106D02*
X12965054Y-15185487D01*
X12965054Y-15185487D02*
X12974578Y-15156915D01*
X12974578Y-15156915D02*
X12984101Y-15137868D01*
X12984101Y-15137868D02*
X13003149Y-15109296D01*
X13003149Y-15109296D02*
X13012673Y-15099772D01*
X13193625Y-15328344D02*
X13079339Y-15328344D01*
X13136482Y-15328344D02*
X13136482Y-15128344D01*
X13136482Y-15128344D02*
X13117435Y-15156915D01*
X13117435Y-15156915D02*
X13098387Y-15175963D01*
X13098387Y-15175963D02*
X13079339Y-15185487D01*
X13288863Y-15328344D02*
X13326958Y-15328344D01*
X13326958Y-15328344D02*
X13346006Y-15318820D01*
X13346006Y-15318820D02*
X13355530Y-15309296D01*
X13355530Y-15309296D02*
X13374578Y-15280725D01*
X13374578Y-15280725D02*
X13384101Y-15242629D01*
X13384101Y-15242629D02*
X13384101Y-15166439D01*
X13384101Y-15166439D02*
X13374578Y-15147391D01*
X13374578Y-15147391D02*
X13365054Y-15137868D01*
X13365054Y-15137868D02*
X13346006Y-15128344D01*
X13346006Y-15128344D02*
X13307911Y-15128344D01*
X13307911Y-15128344D02*
X13288863Y-15137868D01*
X13288863Y-15137868D02*
X13279339Y-15147391D01*
X13279339Y-15147391D02*
X13269816Y-15166439D01*
X13269816Y-15166439D02*
X13269816Y-15214058D01*
X13269816Y-15214058D02*
X13279339Y-15233106D01*
X13279339Y-15233106D02*
X13288863Y-15242629D01*
X13288863Y-15242629D02*
X13307911Y-15252153D01*
X13307911Y-15252153D02*
X13346006Y-15252153D01*
X13346006Y-15252153D02*
X13365054Y-15242629D01*
X13365054Y-15242629D02*
X13374578Y-15233106D01*
X13374578Y-15233106D02*
X13384101Y-15214058D01*
X13622197Y-15328344D02*
X13622197Y-15128344D01*
X13707911Y-15328344D02*
X13707911Y-15223582D01*
X13707911Y-15223582D02*
X13698387Y-15204534D01*
X13698387Y-15204534D02*
X13679340Y-15195010D01*
X13679340Y-15195010D02*
X13650768Y-15195010D01*
X13650768Y-15195010D02*
X13631720Y-15204534D01*
X13631720Y-15204534D02*
X13622197Y-15214058D01*
X13831720Y-15328344D02*
X13812673Y-15318820D01*
X13812673Y-15318820D02*
X13803149Y-15309296D01*
X13803149Y-15309296D02*
X13793625Y-15290248D01*
X13793625Y-15290248D02*
X13793625Y-15233106D01*
X13793625Y-15233106D02*
X13803149Y-15214058D01*
X13803149Y-15214058D02*
X13812673Y-15204534D01*
X13812673Y-15204534D02*
X13831720Y-15195010D01*
X13831720Y-15195010D02*
X13860292Y-15195010D01*
X13860292Y-15195010D02*
X13879340Y-15204534D01*
X13879340Y-15204534D02*
X13888863Y-15214058D01*
X13888863Y-15214058D02*
X13898387Y-15233106D01*
X13898387Y-15233106D02*
X13898387Y-15290248D01*
X13898387Y-15290248D02*
X13888863Y-15309296D01*
X13888863Y-15309296D02*
X13879340Y-15318820D01*
X13879340Y-15318820D02*
X13860292Y-15328344D01*
X13860292Y-15328344D02*
X13831720Y-15328344D01*
X14012673Y-15328344D02*
X13993625Y-15318820D01*
X13993625Y-15318820D02*
X13984101Y-15299772D01*
X13984101Y-15299772D02*
X13984101Y-15128344D01*
X14165054Y-15318820D02*
X14146006Y-15328344D01*
X14146006Y-15328344D02*
X14107911Y-15328344D01*
X14107911Y-15328344D02*
X14088863Y-15318820D01*
X14088863Y-15318820D02*
X14079340Y-15299772D01*
X14079340Y-15299772D02*
X14079340Y-15223582D01*
X14079340Y-15223582D02*
X14088863Y-15204534D01*
X14088863Y-15204534D02*
X14107911Y-15195010D01*
X14107911Y-15195010D02*
X14146006Y-15195010D01*
X14146006Y-15195010D02*
X14165054Y-15204534D01*
X14165054Y-15204534D02*
X14174578Y-15223582D01*
X14174578Y-15223582D02*
X14174578Y-15242629D01*
X14174578Y-15242629D02*
X14079340Y-15261677D01*
X14250768Y-15318820D02*
X14269816Y-15328344D01*
X14269816Y-15328344D02*
X14307911Y-15328344D01*
X14307911Y-15328344D02*
X14326959Y-15318820D01*
X14326959Y-15318820D02*
X14336482Y-15299772D01*
X14336482Y-15299772D02*
X14336482Y-15290248D01*
X14336482Y-15290248D02*
X14326959Y-15271201D01*
X14326959Y-15271201D02*
X14307911Y-15261677D01*
X14307911Y-15261677D02*
X14279340Y-15261677D01*
X14279340Y-15261677D02*
X14260292Y-15252153D01*
X14260292Y-15252153D02*
X14250768Y-15233106D01*
X14250768Y-15233106D02*
X14250768Y-15223582D01*
X14250768Y-15223582D02*
X14260292Y-15204534D01*
X14260292Y-15204534D02*
X14279340Y-15195010D01*
X14279340Y-15195010D02*
X14307911Y-15195010D01*
X14307911Y-15195010D02*
X14326959Y-15204534D01*
X14403149Y-15404534D02*
X14412673Y-15395010D01*
X14412673Y-15395010D02*
X14431721Y-15366439D01*
X14431721Y-15366439D02*
X14441244Y-15347391D01*
X14441244Y-15347391D02*
X14450768Y-15318820D01*
X14450768Y-15318820D02*
X14460292Y-15271201D01*
X14460292Y-15271201D02*
X14460292Y-15233106D01*
X14460292Y-15233106D02*
X14450768Y-15185487D01*
X14450768Y-15185487D02*
X14441244Y-15156915D01*
X14441244Y-15156915D02*
X14431721Y-15137868D01*
X14431721Y-15137868D02*
X14412673Y-15109296D01*
X14412673Y-15109296D02*
X14403149Y-15099772D01*
D14*
X9287610Y-15425860D02*
X9437610Y-15575860D01*
X9437610Y-15425860D02*
X9287610Y-15575860D01*
X9415644Y-15553893D02*
X9415644Y-15447826D01*
X9309577Y-15447826D01*
X9309577Y-15553893D01*
X9415644Y-15553893D01*
D11*
X9803149Y-15592344D02*
X9688863Y-15592344D01*
X9746006Y-15592344D02*
X9746006Y-15392344D01*
X9746006Y-15392344D02*
X9726958Y-15420915D01*
X9726958Y-15420915D02*
X9707911Y-15439963D01*
X9707911Y-15439963D02*
X9688863Y-15449487D01*
X9888863Y-15573296D02*
X9898387Y-15582820D01*
X9898387Y-15582820D02*
X9888863Y-15592344D01*
X9888863Y-15592344D02*
X9879339Y-15582820D01*
X9879339Y-15582820D02*
X9888863Y-15573296D01*
X9888863Y-15573296D02*
X9888863Y-15592344D01*
X10079339Y-15392344D02*
X9984101Y-15392344D01*
X9984101Y-15392344D02*
X9974577Y-15487582D01*
X9974577Y-15487582D02*
X9984101Y-15478058D01*
X9984101Y-15478058D02*
X10003149Y-15468534D01*
X10003149Y-15468534D02*
X10050768Y-15468534D01*
X10050768Y-15468534D02*
X10069815Y-15478058D01*
X10069815Y-15478058D02*
X10079339Y-15487582D01*
X10079339Y-15487582D02*
X10088863Y-15506629D01*
X10088863Y-15506629D02*
X10088863Y-15554248D01*
X10088863Y-15554248D02*
X10079339Y-15573296D01*
X10079339Y-15573296D02*
X10069815Y-15582820D01*
X10069815Y-15582820D02*
X10050768Y-15592344D01*
X10050768Y-15592344D02*
X10003149Y-15592344D01*
X10003149Y-15592344D02*
X9984101Y-15582820D01*
X9984101Y-15582820D02*
X9974577Y-15573296D01*
X10212673Y-15392344D02*
X10231720Y-15392344D01*
X10231720Y-15392344D02*
X10250768Y-15401868D01*
X10250768Y-15401868D02*
X10260292Y-15411391D01*
X10260292Y-15411391D02*
X10269815Y-15430439D01*
X10269815Y-15430439D02*
X10279339Y-15468534D01*
X10279339Y-15468534D02*
X10279339Y-15516153D01*
X10279339Y-15516153D02*
X10269815Y-15554248D01*
X10269815Y-15554248D02*
X10260292Y-15573296D01*
X10260292Y-15573296D02*
X10250768Y-15582820D01*
X10250768Y-15582820D02*
X10231720Y-15592344D01*
X10231720Y-15592344D02*
X10212673Y-15592344D01*
X10212673Y-15592344D02*
X10193625Y-15582820D01*
X10193625Y-15582820D02*
X10184101Y-15573296D01*
X10184101Y-15573296D02*
X10174577Y-15554248D01*
X10174577Y-15554248D02*
X10165054Y-15516153D01*
X10165054Y-15516153D02*
X10165054Y-15468534D01*
X10165054Y-15468534D02*
X10174577Y-15430439D01*
X10174577Y-15430439D02*
X10184101Y-15411391D01*
X10184101Y-15411391D02*
X10193625Y-15401868D01*
X10193625Y-15401868D02*
X10212673Y-15392344D01*
X10403149Y-15392344D02*
X10422196Y-15392344D01*
X10422196Y-15392344D02*
X10441244Y-15401868D01*
X10441244Y-15401868D02*
X10450768Y-15411391D01*
X10450768Y-15411391D02*
X10460292Y-15430439D01*
X10460292Y-15430439D02*
X10469815Y-15468534D01*
X10469815Y-15468534D02*
X10469815Y-15516153D01*
X10469815Y-15516153D02*
X10460292Y-15554248D01*
X10460292Y-15554248D02*
X10450768Y-15573296D01*
X10450768Y-15573296D02*
X10441244Y-15582820D01*
X10441244Y-15582820D02*
X10422196Y-15592344D01*
X10422196Y-15592344D02*
X10403149Y-15592344D01*
X10403149Y-15592344D02*
X10384101Y-15582820D01*
X10384101Y-15582820D02*
X10374577Y-15573296D01*
X10374577Y-15573296D02*
X10365054Y-15554248D01*
X10365054Y-15554248D02*
X10355530Y-15516153D01*
X10355530Y-15516153D02*
X10355530Y-15468534D01*
X10355530Y-15468534D02*
X10365054Y-15430439D01*
X10365054Y-15430439D02*
X10374577Y-15411391D01*
X10374577Y-15411391D02*
X10384101Y-15401868D01*
X10384101Y-15401868D02*
X10403149Y-15392344D01*
X10555530Y-15592344D02*
X10555530Y-15459010D01*
X10555530Y-15478058D02*
X10565054Y-15468534D01*
X10565054Y-15468534D02*
X10584101Y-15459010D01*
X10584101Y-15459010D02*
X10612673Y-15459010D01*
X10612673Y-15459010D02*
X10631720Y-15468534D01*
X10631720Y-15468534D02*
X10641244Y-15487582D01*
X10641244Y-15487582D02*
X10641244Y-15592344D01*
X10641244Y-15487582D02*
X10650768Y-15468534D01*
X10650768Y-15468534D02*
X10669815Y-15459010D01*
X10669815Y-15459010D02*
X10698387Y-15459010D01*
X10698387Y-15459010D02*
X10717435Y-15468534D01*
X10717435Y-15468534D02*
X10726958Y-15487582D01*
X10726958Y-15487582D02*
X10726958Y-15592344D01*
X10822196Y-15592344D02*
X10822196Y-15459010D01*
X10822196Y-15478058D02*
X10831720Y-15468534D01*
X10831720Y-15468534D02*
X10850768Y-15459010D01*
X10850768Y-15459010D02*
X10879339Y-15459010D01*
X10879339Y-15459010D02*
X10898387Y-15468534D01*
X10898387Y-15468534D02*
X10907911Y-15487582D01*
X10907911Y-15487582D02*
X10907911Y-15592344D01*
X10907911Y-15487582D02*
X10917435Y-15468534D01*
X10917435Y-15468534D02*
X10936482Y-15459010D01*
X10936482Y-15459010D02*
X10965054Y-15459010D01*
X10965054Y-15459010D02*
X10984101Y-15468534D01*
X10984101Y-15468534D02*
X10993625Y-15487582D01*
X10993625Y-15487582D02*
X10993625Y-15592344D01*
X11384101Y-15382820D02*
X11212673Y-15639963D01*
X11641244Y-15392344D02*
X11660292Y-15392344D01*
X11660292Y-15392344D02*
X11679339Y-15401868D01*
X11679339Y-15401868D02*
X11688863Y-15411391D01*
X11688863Y-15411391D02*
X11698387Y-15430439D01*
X11698387Y-15430439D02*
X11707911Y-15468534D01*
X11707911Y-15468534D02*
X11707911Y-15516153D01*
X11707911Y-15516153D02*
X11698387Y-15554248D01*
X11698387Y-15554248D02*
X11688863Y-15573296D01*
X11688863Y-15573296D02*
X11679339Y-15582820D01*
X11679339Y-15582820D02*
X11660292Y-15592344D01*
X11660292Y-15592344D02*
X11641244Y-15592344D01*
X11641244Y-15592344D02*
X11622196Y-15582820D01*
X11622196Y-15582820D02*
X11612673Y-15573296D01*
X11612673Y-15573296D02*
X11603149Y-15554248D01*
X11603149Y-15554248D02*
X11593625Y-15516153D01*
X11593625Y-15516153D02*
X11593625Y-15468534D01*
X11593625Y-15468534D02*
X11603149Y-15430439D01*
X11603149Y-15430439D02*
X11612673Y-15411391D01*
X11612673Y-15411391D02*
X11622196Y-15401868D01*
X11622196Y-15401868D02*
X11641244Y-15392344D01*
X11793625Y-15573296D02*
X11803149Y-15582820D01*
X11803149Y-15582820D02*
X11793625Y-15592344D01*
X11793625Y-15592344D02*
X11784101Y-15582820D01*
X11784101Y-15582820D02*
X11793625Y-15573296D01*
X11793625Y-15573296D02*
X11793625Y-15592344D01*
X11926958Y-15392344D02*
X11946006Y-15392344D01*
X11946006Y-15392344D02*
X11965054Y-15401868D01*
X11965054Y-15401868D02*
X11974577Y-15411391D01*
X11974577Y-15411391D02*
X11984101Y-15430439D01*
X11984101Y-15430439D02*
X11993625Y-15468534D01*
X11993625Y-15468534D02*
X11993625Y-15516153D01*
X11993625Y-15516153D02*
X11984101Y-15554248D01*
X11984101Y-15554248D02*
X11974577Y-15573296D01*
X11974577Y-15573296D02*
X11965054Y-15582820D01*
X11965054Y-15582820D02*
X11946006Y-15592344D01*
X11946006Y-15592344D02*
X11926958Y-15592344D01*
X11926958Y-15592344D02*
X11907911Y-15582820D01*
X11907911Y-15582820D02*
X11898387Y-15573296D01*
X11898387Y-15573296D02*
X11888863Y-15554248D01*
X11888863Y-15554248D02*
X11879339Y-15516153D01*
X11879339Y-15516153D02*
X11879339Y-15468534D01*
X11879339Y-15468534D02*
X11888863Y-15430439D01*
X11888863Y-15430439D02*
X11898387Y-15411391D01*
X11898387Y-15411391D02*
X11907911Y-15401868D01*
X11907911Y-15401868D02*
X11926958Y-15392344D01*
X12174577Y-15392344D02*
X12079339Y-15392344D01*
X12079339Y-15392344D02*
X12069816Y-15487582D01*
X12069816Y-15487582D02*
X12079339Y-15478058D01*
X12079339Y-15478058D02*
X12098387Y-15468534D01*
X12098387Y-15468534D02*
X12146006Y-15468534D01*
X12146006Y-15468534D02*
X12165054Y-15478058D01*
X12165054Y-15478058D02*
X12174577Y-15487582D01*
X12174577Y-15487582D02*
X12184101Y-15506629D01*
X12184101Y-15506629D02*
X12184101Y-15554248D01*
X12184101Y-15554248D02*
X12174577Y-15573296D01*
X12174577Y-15573296D02*
X12165054Y-15582820D01*
X12165054Y-15582820D02*
X12146006Y-15592344D01*
X12146006Y-15592344D02*
X12098387Y-15592344D01*
X12098387Y-15592344D02*
X12079339Y-15582820D01*
X12079339Y-15582820D02*
X12069816Y-15573296D01*
X12279339Y-15592344D02*
X12317435Y-15592344D01*
X12317435Y-15592344D02*
X12336482Y-15582820D01*
X12336482Y-15582820D02*
X12346006Y-15573296D01*
X12346006Y-15573296D02*
X12365054Y-15544725D01*
X12365054Y-15544725D02*
X12374577Y-15506629D01*
X12374577Y-15506629D02*
X12374577Y-15430439D01*
X12374577Y-15430439D02*
X12365054Y-15411391D01*
X12365054Y-15411391D02*
X12355530Y-15401868D01*
X12355530Y-15401868D02*
X12336482Y-15392344D01*
X12336482Y-15392344D02*
X12298387Y-15392344D01*
X12298387Y-15392344D02*
X12279339Y-15401868D01*
X12279339Y-15401868D02*
X12269816Y-15411391D01*
X12269816Y-15411391D02*
X12260292Y-15430439D01*
X12260292Y-15430439D02*
X12260292Y-15478058D01*
X12260292Y-15478058D02*
X12269816Y-15497106D01*
X12269816Y-15497106D02*
X12279339Y-15506629D01*
X12279339Y-15506629D02*
X12298387Y-15516153D01*
X12298387Y-15516153D02*
X12336482Y-15516153D01*
X12336482Y-15516153D02*
X12355530Y-15506629D01*
X12355530Y-15506629D02*
X12365054Y-15497106D01*
X12365054Y-15497106D02*
X12374577Y-15478058D01*
X12565054Y-15592344D02*
X12450768Y-15592344D01*
X12507911Y-15592344D02*
X12507911Y-15392344D01*
X12507911Y-15392344D02*
X12488863Y-15420915D01*
X12488863Y-15420915D02*
X12469816Y-15439963D01*
X12469816Y-15439963D02*
X12450768Y-15449487D01*
X12641244Y-15392344D02*
X12641244Y-15430439D01*
X12717435Y-15392344D02*
X12717435Y-15430439D01*
X13012673Y-15668534D02*
X13003149Y-15659010D01*
X13003149Y-15659010D02*
X12984101Y-15630439D01*
X12984101Y-15630439D02*
X12974578Y-15611391D01*
X12974578Y-15611391D02*
X12965054Y-15582820D01*
X12965054Y-15582820D02*
X12955530Y-15535201D01*
X12955530Y-15535201D02*
X12955530Y-15497106D01*
X12955530Y-15497106D02*
X12965054Y-15449487D01*
X12965054Y-15449487D02*
X12974578Y-15420915D01*
X12974578Y-15420915D02*
X12984101Y-15401868D01*
X12984101Y-15401868D02*
X13003149Y-15373296D01*
X13003149Y-15373296D02*
X13012673Y-15363772D01*
X13079339Y-15411391D02*
X13088863Y-15401868D01*
X13088863Y-15401868D02*
X13107911Y-15392344D01*
X13107911Y-15392344D02*
X13155530Y-15392344D01*
X13155530Y-15392344D02*
X13174578Y-15401868D01*
X13174578Y-15401868D02*
X13184101Y-15411391D01*
X13184101Y-15411391D02*
X13193625Y-15430439D01*
X13193625Y-15430439D02*
X13193625Y-15449487D01*
X13193625Y-15449487D02*
X13184101Y-15478058D01*
X13184101Y-15478058D02*
X13069816Y-15592344D01*
X13069816Y-15592344D02*
X13193625Y-15592344D01*
X13431720Y-15592344D02*
X13431720Y-15392344D01*
X13517435Y-15592344D02*
X13517435Y-15487582D01*
X13517435Y-15487582D02*
X13507911Y-15468534D01*
X13507911Y-15468534D02*
X13488863Y-15459010D01*
X13488863Y-15459010D02*
X13460292Y-15459010D01*
X13460292Y-15459010D02*
X13441244Y-15468534D01*
X13441244Y-15468534D02*
X13431720Y-15478058D01*
X13641244Y-15592344D02*
X13622197Y-15582820D01*
X13622197Y-15582820D02*
X13612673Y-15573296D01*
X13612673Y-15573296D02*
X13603149Y-15554248D01*
X13603149Y-15554248D02*
X13603149Y-15497106D01*
X13603149Y-15497106D02*
X13612673Y-15478058D01*
X13612673Y-15478058D02*
X13622197Y-15468534D01*
X13622197Y-15468534D02*
X13641244Y-15459010D01*
X13641244Y-15459010D02*
X13669816Y-15459010D01*
X13669816Y-15459010D02*
X13688863Y-15468534D01*
X13688863Y-15468534D02*
X13698387Y-15478058D01*
X13698387Y-15478058D02*
X13707911Y-15497106D01*
X13707911Y-15497106D02*
X13707911Y-15554248D01*
X13707911Y-15554248D02*
X13698387Y-15573296D01*
X13698387Y-15573296D02*
X13688863Y-15582820D01*
X13688863Y-15582820D02*
X13669816Y-15592344D01*
X13669816Y-15592344D02*
X13641244Y-15592344D01*
X13822197Y-15592344D02*
X13803149Y-15582820D01*
X13803149Y-15582820D02*
X13793625Y-15563772D01*
X13793625Y-15563772D02*
X13793625Y-15392344D01*
X13974578Y-15582820D02*
X13955530Y-15592344D01*
X13955530Y-15592344D02*
X13917435Y-15592344D01*
X13917435Y-15592344D02*
X13898387Y-15582820D01*
X13898387Y-15582820D02*
X13888863Y-15563772D01*
X13888863Y-15563772D02*
X13888863Y-15487582D01*
X13888863Y-15487582D02*
X13898387Y-15468534D01*
X13898387Y-15468534D02*
X13917435Y-15459010D01*
X13917435Y-15459010D02*
X13955530Y-15459010D01*
X13955530Y-15459010D02*
X13974578Y-15468534D01*
X13974578Y-15468534D02*
X13984101Y-15487582D01*
X13984101Y-15487582D02*
X13984101Y-15506629D01*
X13984101Y-15506629D02*
X13888863Y-15525677D01*
X14060292Y-15582820D02*
X14079340Y-15592344D01*
X14079340Y-15592344D02*
X14117435Y-15592344D01*
X14117435Y-15592344D02*
X14136482Y-15582820D01*
X14136482Y-15582820D02*
X14146006Y-15563772D01*
X14146006Y-15563772D02*
X14146006Y-15554248D01*
X14146006Y-15554248D02*
X14136482Y-15535201D01*
X14136482Y-15535201D02*
X14117435Y-15525677D01*
X14117435Y-15525677D02*
X14088863Y-15525677D01*
X14088863Y-15525677D02*
X14069816Y-15516153D01*
X14069816Y-15516153D02*
X14060292Y-15497106D01*
X14060292Y-15497106D02*
X14060292Y-15487582D01*
X14060292Y-15487582D02*
X14069816Y-15468534D01*
X14069816Y-15468534D02*
X14088863Y-15459010D01*
X14088863Y-15459010D02*
X14117435Y-15459010D01*
X14117435Y-15459010D02*
X14136482Y-15468534D01*
X14212673Y-15668534D02*
X14222197Y-15659010D01*
X14222197Y-15659010D02*
X14241244Y-15630439D01*
X14241244Y-15630439D02*
X14250768Y-15611391D01*
X14250768Y-15611391D02*
X14260292Y-15582820D01*
X14260292Y-15582820D02*
X14269816Y-15535201D01*
X14269816Y-15535201D02*
X14269816Y-15497106D01*
X14269816Y-15497106D02*
X14260292Y-15449487D01*
X14260292Y-15449487D02*
X14250768Y-15420915D01*
X14250768Y-15420915D02*
X14241244Y-15401868D01*
X14241244Y-15401868D02*
X14222197Y-15373296D01*
X14222197Y-15373296D02*
X14212673Y-15363772D01*
M02*
