%TF.GenerationSoftware,KiCad,Pcbnew,9.0.0*%
%TF.CreationDate,2025-04-22T12:37:31+01:00*%
%TF.ProjectId,FED3_v7.3,46454433-5f76-4372-9e33-2e6b69636164,rev?*%
%TF.SameCoordinates,Original*%
%TF.FileFunction,Soldermask,Top*%
%TF.FilePolarity,Negative*%
%FSLAX46Y46*%
G04 Gerber Fmt 4.6, Leading zero omitted, Abs format (unit mm)*
G04 Created by KiCad (PCBNEW 9.0.0) date 2025-04-22 12:37:31*
%MOMM*%
%LPD*%
G01*
G04 APERTURE LIST*
G04 Aperture macros list*
%AMRoundRect*
0 Rectangle with rounded corners*
0 $1 Rounding radius*
0 $2 $3 $4 $5 $6 $7 $8 $9 X,Y pos of 4 corners*
0 Add a 4 corners polygon primitive as box body*
4,1,4,$2,$3,$4,$5,$6,$7,$8,$9,$2,$3,0*
0 Add four circle primitives for the rounded corners*
1,1,$1+$1,$2,$3*
1,1,$1+$1,$4,$5*
1,1,$1+$1,$6,$7*
1,1,$1+$1,$8,$9*
0 Add four rect primitives between the rounded corners*
20,1,$1+$1,$2,$3,$4,$5,0*
20,1,$1+$1,$4,$5,$6,$7,0*
20,1,$1+$1,$6,$7,$8,$9,0*
20,1,$1+$1,$8,$9,$2,$3,0*%
%AMFreePoly0*
4,1,17,0.351552,0.797921,0.797921,0.351552,0.812800,0.315631,0.812800,-0.315631,0.797921,-0.351552,0.351552,-0.797921,0.315631,-0.812800,-0.315631,-0.812800,-0.351552,-0.797921,-0.797921,-0.351552,-0.812800,-0.315631,-0.812800,0.315631,-0.797921,0.351552,-0.351552,0.797921,-0.315631,0.812800,0.315631,0.812800,0.351552,0.797921,0.351552,0.797921,$1*%
G04 Aperture macros list end*
%ADD10C,6.282114*%
%ADD11R,1.400000X1.600000*%
%ADD12RoundRect,0.135000X-0.135000X-0.185000X0.135000X-0.185000X0.135000X0.185000X-0.135000X0.185000X0*%
%ADD13O,3.149600X1.625600*%
%ADD14RoundRect,0.140000X-0.170000X0.140000X-0.170000X-0.140000X0.170000X-0.140000X0.170000X0.140000X0*%
%ADD15RoundRect,0.140000X0.170000X-0.140000X0.170000X0.140000X-0.170000X0.140000X-0.170000X-0.140000X0*%
%ADD16R,1.800000X1.000000*%
%ADD17RoundRect,0.135000X0.135000X0.185000X-0.135000X0.185000X-0.135000X-0.185000X0.135000X-0.185000X0*%
%ADD18RoundRect,0.140000X0.140000X0.170000X-0.140000X0.170000X-0.140000X-0.170000X0.140000X-0.170000X0*%
%ADD19RoundRect,0.050800X1.600000X-1.600000X1.600000X1.600000X-1.600000X1.600000X-1.600000X-1.600000X0*%
%ADD20RoundRect,3.225800X0.000010X-0.000010X0.000010X0.000010X-0.000010X0.000010X-0.000010X-0.000010X0*%
%ADD21RoundRect,0.218750X0.218750X0.256250X-0.218750X0.256250X-0.218750X-0.256250X0.218750X-0.256250X0*%
%ADD22RoundRect,0.218750X-0.256250X0.218750X-0.256250X-0.218750X0.256250X-0.218750X0.256250X0.218750X0*%
%ADD23RoundRect,0.135000X0.185000X-0.135000X0.185000X0.135000X-0.185000X0.135000X-0.185000X-0.135000X0*%
%ADD24RoundRect,0.050800X-0.400000X0.350000X-0.400000X-0.350000X0.400000X-0.350000X0.400000X0.350000X0*%
%ADD25R,1.700000X1.700000*%
%ADD26O,1.700000X1.700000*%
%ADD27RoundRect,0.050800X0.200000X0.600000X-0.200000X0.600000X-0.200000X-0.600000X0.200000X-0.600000X0*%
%ADD28RoundRect,0.150000X-0.512500X-0.150000X0.512500X-0.150000X0.512500X0.150000X-0.512500X0.150000X0*%
%ADD29RoundRect,0.050800X-0.950000X0.650000X-0.950000X-0.650000X0.950000X-0.650000X0.950000X0.650000X0*%
%ADD30RoundRect,0.150000X0.150000X-0.512500X0.150000X0.512500X-0.150000X0.512500X-0.150000X-0.512500X0*%
%ADD31RoundRect,0.050800X0.750000X-0.350000X0.750000X0.350000X-0.750000X0.350000X-0.750000X-0.350000X0*%
%ADD32RoundRect,0.050800X0.700000X0.900000X-0.700000X0.900000X-0.700000X-0.900000X0.700000X-0.900000X0*%
%ADD33RoundRect,0.050800X0.950000X-0.700000X0.950000X0.700000X-0.950000X0.700000X-0.950000X-0.700000X0*%
%ADD34C,2.900000*%
%ADD35RoundRect,0.150000X0.150000X-0.725000X0.150000X0.725000X-0.150000X0.725000X-0.150000X-0.725000X0*%
%ADD36C,1.500000*%
%ADD37O,1.625600X3.149600*%
%ADD38C,3.500000*%
%ADD39RoundRect,0.050800X-0.375000X-0.125000X0.375000X-0.125000X0.375000X0.125000X-0.375000X0.125000X0*%
%ADD40RoundRect,0.050800X0.125000X-0.375000X0.125000X0.375000X-0.125000X0.375000X-0.125000X-0.375000X0*%
%ADD41RoundRect,0.050800X0.375000X0.125000X-0.375000X0.125000X-0.375000X-0.125000X0.375000X-0.125000X0*%
%ADD42RoundRect,0.050800X-0.125000X0.375000X-0.125000X-0.375000X0.125000X-0.375000X0.125000X0.375000X0*%
%ADD43RoundRect,0.050800X-2.350000X2.350000X-2.350000X-2.350000X2.350000X-2.350000X2.350000X2.350000X0*%
%ADD44RoundRect,0.135000X-0.185000X0.135000X-0.185000X-0.135000X0.185000X-0.135000X0.185000X0.135000X0*%
%ADD45RoundRect,0.140000X-0.140000X-0.170000X0.140000X-0.170000X0.140000X0.170000X-0.140000X0.170000X0*%
%ADD46C,1.625600*%
%ADD47RoundRect,0.050800X0.675000X0.200000X-0.675000X0.200000X-0.675000X-0.200000X0.675000X-0.200000X0*%
%ADD48RoundRect,0.050800X0.900000X0.900000X-0.900000X0.900000X-0.900000X-0.900000X0.900000X-0.900000X0*%
%ADD49C,2.401600*%
%ADD50C,1.351600*%
%ADD51RoundRect,0.250000X0.300000X0.300000X-0.300000X0.300000X-0.300000X-0.300000X0.300000X-0.300000X0*%
%ADD52FreePoly0,180.000000*%
%ADD53C,1.600000*%
%ADD54RoundRect,0.050800X-1.200000X1.275000X-1.200000X-1.275000X1.200000X-1.275000X1.200000X1.275000X0*%
%ADD55RoundRect,0.050800X-1.450000X1.375000X-1.450000X-1.375000X1.450000X-1.375000X1.450000X1.375000X0*%
%ADD56RoundRect,0.150000X0.512500X0.150000X-0.512500X0.150000X-0.512500X-0.150000X0.512500X-0.150000X0*%
%ADD57RoundRect,0.218750X-0.218750X-0.256250X0.218750X-0.256250X0.218750X0.256250X-0.218750X0.256250X0*%
%ADD58C,0.900000*%
%ADD59C,0.700000*%
%ADD60C,1.309600*%
%TA.AperFunction,Profile*%
%ADD61C,0.250000*%
%TD*%
G04 APERTURE END LIST*
%TO.C,B1*%
D10*
X171556157Y-91395600D02*
G75*
G02*
X165274043Y-91395600I-3141057J0D01*
G01*
X165274043Y-91395600D02*
G75*
G02*
X171556157Y-91395600I3141057J0D01*
G01*
%TD*%
D11*
%TO.C,SW2*%
X179300000Y-118525000D03*
X179300000Y-125725000D03*
X176300000Y-118525000D03*
X176300000Y-125725000D03*
%TD*%
D12*
%TO.C,R16*%
X165065168Y-126050000D03*
X166085168Y-126050000D03*
%TD*%
D13*
%TO.C,SCREEN0*%
X97251100Y-98903600D03*
X97251100Y-101443600D03*
X97251100Y-103983600D03*
X97251100Y-106523600D03*
X97251100Y-109063600D03*
X97251100Y-111603600D03*
%TD*%
D14*
%TO.C,C18*%
X167125000Y-110910000D03*
X167125000Y-111870000D03*
%TD*%
D15*
%TO.C,C17*%
X167115000Y-109255000D03*
X167115000Y-108295000D03*
%TD*%
D12*
%TO.C,R10*%
X165140000Y-122150000D03*
X166160000Y-122150000D03*
%TD*%
D16*
%TO.C,X2*%
X164885000Y-108435000D03*
X164885000Y-110935000D03*
%TD*%
D12*
%TO.C,R6*%
X179010000Y-88300000D03*
X180030000Y-88300000D03*
%TD*%
D17*
%TO.C,R14*%
X171610000Y-120450000D03*
X170590000Y-120450000D03*
%TD*%
D15*
%TO.C,C10*%
X174155500Y-99292400D03*
X174155500Y-98332400D03*
%TD*%
D17*
%TO.C,R17*%
X163887668Y-126050000D03*
X162867668Y-126050000D03*
%TD*%
D18*
%TO.C,C1*%
X179980000Y-86600000D03*
X179020000Y-86600000D03*
%TD*%
D19*
%TO.C,B1*%
X168415100Y-83170200D03*
X168415100Y-99621000D03*
D20*
X168415100Y-91395600D03*
%TD*%
D21*
%TO.C,L2*%
X195422500Y-113360000D03*
X193847500Y-113360000D03*
%TD*%
D17*
%TO.C,R18*%
X192385000Y-111200000D03*
X191365000Y-111200000D03*
%TD*%
D22*
%TO.C,L1*%
X161940000Y-111732500D03*
X161940000Y-113307500D03*
%TD*%
D23*
%TO.C,R5*%
X189530000Y-83760000D03*
X189530000Y-82740000D03*
%TD*%
D15*
%TO.C,C8*%
X134500000Y-123780000D03*
X134500000Y-122820000D03*
%TD*%
D24*
%TO.C,Q2*%
X119700000Y-120812500D03*
X119700000Y-122712500D03*
X122100000Y-121762500D03*
%TD*%
D25*
%TO.C,J1*%
X152175000Y-128015000D03*
D26*
X152175000Y-125475000D03*
X154715000Y-128015000D03*
X154715000Y-125475000D03*
X157255000Y-128015000D03*
X157255000Y-125475000D03*
%TD*%
D15*
%TO.C,C6*%
X159950000Y-123730000D03*
X159950000Y-122770000D03*
%TD*%
D14*
%TO.C,C3*%
X104600000Y-116720000D03*
X104600000Y-117680000D03*
%TD*%
D23*
%TO.C,R12*%
X167670000Y-116535000D03*
X167670000Y-115515000D03*
%TD*%
D27*
%TO.C,IC2*%
X114586100Y-110581600D03*
X113936100Y-110581600D03*
X113286100Y-110581600D03*
X112636100Y-110581600D03*
X111986100Y-110581600D03*
X111336100Y-110581600D03*
X110686100Y-110581600D03*
X110036100Y-110581600D03*
X109386100Y-110581600D03*
X108736100Y-110581600D03*
X108086100Y-110581600D03*
X107436100Y-110581600D03*
X107436100Y-117421600D03*
X108086100Y-117421600D03*
X108736100Y-117421600D03*
X109386100Y-117421600D03*
X110036100Y-117421600D03*
X110686100Y-117421600D03*
X111336100Y-117421600D03*
X111986100Y-117421600D03*
X112636100Y-117421600D03*
X113286100Y-117421600D03*
X113936100Y-117421600D03*
X114586100Y-117421600D03*
%TD*%
D28*
%TO.C,U3*%
X168525168Y-122257836D03*
X168525168Y-123207836D03*
X168525168Y-124157836D03*
X170800168Y-124157836D03*
X170800168Y-122257836D03*
%TD*%
D29*
%TO.C,X1*%
X181039100Y-94741600D03*
X181039100Y-100241600D03*
X184239100Y-100241600D03*
X184239100Y-94741600D03*
%TD*%
D12*
%TO.C,R8*%
X115890000Y-122300000D03*
X116910000Y-122300000D03*
%TD*%
D30*
%TO.C,IC1*%
X119800000Y-127237500D03*
X120750000Y-127237500D03*
X121700000Y-127237500D03*
X121700000Y-124962500D03*
X119800000Y-124962500D03*
%TD*%
D15*
%TO.C,C19*%
X173895000Y-106070000D03*
X173895000Y-105110000D03*
%TD*%
D31*
%TO.C,X4*%
X192410000Y-119900000D03*
X192010000Y-121000000D03*
X192410000Y-122100000D03*
X192810000Y-123200000D03*
X192410000Y-124300000D03*
X192810000Y-125400000D03*
X192410000Y-126500000D03*
X192410000Y-127600000D03*
D32*
X182210000Y-126900000D03*
X182210000Y-120900000D03*
D33*
X195310000Y-128500000D03*
X196210000Y-115300000D03*
%TD*%
D34*
%TO.C,@HOLE1*%
X196501100Y-103003600D03*
%TD*%
D23*
%TO.C,R15*%
X160080000Y-110030000D03*
X160080000Y-109010000D03*
%TD*%
D17*
%TO.C,R11*%
X192110000Y-107350000D03*
X191090000Y-107350000D03*
%TD*%
D22*
%TO.C,L0*%
X160050000Y-111732500D03*
X160050000Y-113307500D03*
%TD*%
D35*
%TO.C,IC4*%
X181242100Y-91176600D03*
X182512100Y-91176600D03*
X183782100Y-91176600D03*
X185052100Y-91176600D03*
X185052100Y-86026600D03*
X183782100Y-86026600D03*
X182512100Y-86026600D03*
X181242100Y-86026600D03*
%TD*%
D15*
%TO.C,C15*%
X184600000Y-108930000D03*
X184600000Y-107970000D03*
%TD*%
%TO.C,C7*%
X146700000Y-123780000D03*
X146700000Y-122820000D03*
%TD*%
D36*
%TO.C,@HOLE2*%
X161501100Y-103003600D03*
%TD*%
D37*
%TO.C,AUX_I2C0*%
X175691100Y-82225600D03*
X178231100Y-82225600D03*
X180771100Y-82225600D03*
X183311100Y-82225600D03*
%TD*%
D18*
%TO.C,C4*%
X113905000Y-125950000D03*
X112945000Y-125950000D03*
%TD*%
D15*
%TO.C,C12*%
X169895000Y-106070000D03*
X169895000Y-105110000D03*
%TD*%
D23*
%TO.C,R13*%
X161940000Y-110030000D03*
X161940000Y-109010000D03*
%TD*%
D38*
%TO.C,@HOLE4*%
X192545100Y-100793600D03*
%TD*%
D39*
%TO.C,U1*%
X170390000Y-109890000D03*
X170390000Y-110390000D03*
X170390000Y-110890000D03*
X170390000Y-111390000D03*
X170390000Y-111890000D03*
X170390000Y-112390000D03*
X170390000Y-112890000D03*
X170390000Y-113390000D03*
X170390000Y-113890000D03*
X170390000Y-114390000D03*
X170390000Y-114890000D03*
X170390000Y-115390000D03*
D40*
X171115000Y-116115000D03*
X171615000Y-116115000D03*
X172115000Y-116115000D03*
X172615000Y-116115000D03*
X173115000Y-116115000D03*
X173615000Y-116115000D03*
X174115000Y-116115000D03*
X174615000Y-116115000D03*
X175115000Y-116115000D03*
X175615000Y-116115000D03*
X176115000Y-116115000D03*
X176615000Y-116115000D03*
D41*
X177340000Y-115390000D03*
X177340000Y-114890000D03*
X177340000Y-114390000D03*
X177340000Y-113890000D03*
X177340000Y-113390000D03*
X177340000Y-112890000D03*
X177340000Y-112390000D03*
X177340000Y-111890000D03*
X177340000Y-111390000D03*
X177340000Y-110890000D03*
X177340000Y-110390000D03*
X177340000Y-109890000D03*
D42*
X176615000Y-109165000D03*
X176115000Y-109165000D03*
X175615000Y-109165000D03*
X175115000Y-109165000D03*
X174615000Y-109165000D03*
X174115000Y-109165000D03*
X173615000Y-109165000D03*
X173115000Y-109165000D03*
X172615000Y-109165000D03*
X172115000Y-109165000D03*
X171615000Y-109165000D03*
X171115000Y-109165000D03*
D43*
X173865000Y-112640000D03*
%TD*%
D36*
%TO.C,@HOLE2*%
X135501100Y-103003600D03*
%TD*%
D15*
%TO.C,C2*%
X177500000Y-88280000D03*
X177500000Y-87320000D03*
%TD*%
D44*
%TO.C,R19*%
X192230000Y-112680000D03*
X192230000Y-113700000D03*
%TD*%
D45*
%TO.C,C14*%
X184620000Y-113850000D03*
X185580000Y-113850000D03*
%TD*%
D46*
%TO.C,X5*%
X141694300Y-125736400D03*
X139154300Y-125736400D03*
%TD*%
D15*
%TO.C,C13*%
X182800000Y-108980000D03*
X182800000Y-108020000D03*
%TD*%
D44*
%TO.C,R4*%
X187810000Y-82740000D03*
X187810000Y-83760000D03*
%TD*%
D47*
%TO.C,USB0*%
X198225000Y-110850000D03*
X198225000Y-110200000D03*
X198225000Y-109550000D03*
X198225000Y-108900000D03*
X198225000Y-108250000D03*
D48*
X200900000Y-110700000D03*
X200900000Y-108400000D03*
D49*
X200900000Y-113150000D03*
X200900000Y-105950000D03*
D50*
X197900000Y-107125000D03*
X197900000Y-111975000D03*
%TD*%
D12*
%TO.C,R9*%
X118680000Y-118870000D03*
X119700000Y-118870000D03*
%TD*%
D34*
%TO.C,@HOLE6*%
X118501100Y-116003600D03*
%TD*%
D51*
%TO.C,D2*%
X170988968Y-127107836D03*
X168188968Y-127107836D03*
%TD*%
D23*
%TO.C,R1*%
X129100000Y-103210000D03*
X129100000Y-102190000D03*
%TD*%
%TO.C,R3*%
X176309100Y-99353600D03*
X176309100Y-98333600D03*
%TD*%
D18*
%TO.C,C11*%
X188330000Y-111200000D03*
X187370000Y-111200000D03*
%TD*%
D38*
%TO.C,@HOLE5*%
X104788100Y-100793600D03*
%TD*%
D52*
%TO.C,BZ1*%
X131459200Y-110180000D03*
X126510000Y-110180000D03*
%TD*%
D23*
%TO.C,R20*%
X172950000Y-121810000D03*
X172950000Y-120790000D03*
%TD*%
D37*
%TO.C,MOTOR0*%
X112921100Y-84003600D03*
X115461100Y-84003600D03*
X118001100Y-84003600D03*
X120541100Y-84003600D03*
X123081100Y-84003600D03*
%TD*%
D18*
%TO.C,C16*%
X166095168Y-124700000D03*
X165135168Y-124700000D03*
%TD*%
D14*
%TO.C,C5*%
X173500000Y-123720000D03*
X173500000Y-124680000D03*
%TD*%
D23*
%TO.C,R2*%
X154200000Y-110210000D03*
X154200000Y-109190000D03*
%TD*%
D14*
%TO.C,C9*%
X113600000Y-98620000D03*
X113600000Y-99580000D03*
%TD*%
D17*
%TO.C,R7*%
X116910000Y-123900000D03*
X115890000Y-123900000D03*
%TD*%
D53*
%TO.C,EXT0*%
X199844300Y-92614800D03*
X192844300Y-92614800D03*
D54*
X199044300Y-96289800D03*
D55*
X191644300Y-89039800D03*
D54*
X200944300Y-88939800D03*
%TD*%
D56*
%TO.C,U2*%
X188537500Y-109250000D03*
X188537500Y-108300000D03*
X188537500Y-107350000D03*
X186262500Y-107350000D03*
X186262500Y-109250000D03*
%TD*%
D34*
%TO.C,@HOLE0*%
X115001100Y-90003600D03*
%TD*%
D57*
%TO.C,CHG0*%
X165137500Y-120475000D03*
X166712500Y-120475000D03*
%TD*%
D58*
%TO.C,SW1*%
X199450000Y-119550000D03*
X199450000Y-122550000D03*
%TD*%
D59*
%TO.C,PI3*%
X126951100Y-100003600D03*
D36*
X118001100Y-102003600D03*
D60*
X125601100Y-100763600D03*
X125621100Y-103273600D03*
X110401100Y-103303600D03*
X111851100Y-102003600D03*
X110381100Y-100733600D03*
%TD*%
D59*
%TO.C,PI1*%
X187951100Y-100003600D03*
D36*
X179001100Y-102003600D03*
D60*
X186601100Y-100763600D03*
X186621100Y-103273600D03*
X171401100Y-103303600D03*
X172851100Y-102003600D03*
X171381100Y-100733600D03*
%TD*%
D59*
%TO.C,PI2*%
X157451100Y-107003600D03*
D36*
X148501100Y-109003600D03*
D60*
X156101100Y-107763600D03*
X156121100Y-110273600D03*
X140901100Y-110303600D03*
X142351100Y-109003600D03*
X140881100Y-107733600D03*
%TD*%
D61*
X201101100Y-126403600D02*
X201101100Y-117203600D01*
X161501100Y-103003600D02*
X135501100Y-103003600D01*
X161501100Y-80003600D02*
X161501100Y-85751600D01*
X161501100Y-85751600D02*
X164097100Y-88347600D01*
X99501100Y-80003600D02*
X94501100Y-85003600D01*
X202221100Y-107883600D02*
X202501100Y-107603600D01*
X202501100Y-85003600D02*
X197501100Y-80003600D01*
X202221100Y-113323600D02*
X202221100Y-107883600D01*
X202501100Y-107603600D02*
X202501100Y-85003600D01*
X161501100Y-96983600D02*
X161501100Y-103003600D01*
X202501100Y-113603600D02*
X202221100Y-113323600D01*
X135501100Y-103003600D02*
X135501100Y-80003600D01*
X94501100Y-125003600D02*
X99501100Y-130003600D01*
X164097100Y-88347600D02*
X164097100Y-94443600D01*
X197501100Y-130003600D02*
X201101100Y-126403600D01*
X197501100Y-80003600D02*
X161501100Y-80003600D01*
X202501100Y-115803600D02*
X202501100Y-113603600D01*
X94501100Y-85003600D02*
X94501100Y-125003600D01*
X99501100Y-130003600D02*
X197501100Y-130003600D01*
X164097100Y-94443600D02*
X161501100Y-96983600D01*
X201101100Y-117203600D02*
X202501100Y-115803600D01*
X135501100Y-80003600D02*
X99501100Y-80003600D01*
M02*
