%TF.GenerationSoftware,KiCad,Pcbnew,9.0.2*%
%TF.CreationDate,2025-07-03T15:48:32+01:00*%
%TF.ProjectId,FED3,46454433-2e6b-4696-9361-645f70636258,rev?*%
%TF.SameCoordinates,Original*%
%TF.FileFunction,Drillmap*%
%TF.FilePolarity,Positive*%
%FSLAX45Y45*%
G04 Gerber Fmt 4.5, Leading zero omitted, Abs format (unit mm)*
G04 Created by KiCad (PCBNEW 9.0.2) date 2025-07-03 15:48:32*
%MOMM*%
%LPD*%
G01*
G04 APERTURE LIST*
%ADD10C,0.250000*%
%ADD11C,0.200000*%
%ADD12C,0.100000*%
%ADD13C,0.101600*%
%ADD14C,0.150000*%
G04 APERTURE END LIST*
D10*
X20110110Y-12640360D02*
X20110110Y-11720360D01*
X16150110Y-10300360D02*
X13550110Y-10300360D01*
X16150110Y-8000360D02*
X16150110Y-8575160D01*
X16150110Y-8575160D02*
X16409710Y-8834760D01*
X9950110Y-8000360D02*
X9450110Y-8500360D01*
X20222110Y-10788360D02*
X20250110Y-10760360D01*
X20250110Y-8500360D02*
X19750110Y-8000360D01*
X20222110Y-11332360D02*
X20222110Y-10788360D01*
X20250110Y-10760360D02*
X20250110Y-8500360D01*
X16150110Y-9698360D02*
X16150110Y-10300360D01*
X20250110Y-11360360D02*
X20222110Y-11332360D01*
X13550110Y-10300360D02*
X13550110Y-8000360D01*
X9450110Y-12500360D02*
X9950110Y-13000360D01*
X16409710Y-8834760D02*
X16409710Y-9444360D01*
X19750110Y-13000360D02*
X20110110Y-12640360D01*
X19750110Y-8000360D02*
X16150110Y-8000360D01*
X20250110Y-11580360D02*
X20250110Y-11360360D01*
X9450110Y-8500360D02*
X9450110Y-12500360D01*
X9950110Y-13000360D02*
X19750110Y-13000360D01*
X16409710Y-9444360D02*
X16150110Y-9698360D01*
X20110110Y-11720360D02*
X20250110Y-11580360D01*
X13550110Y-8000360D02*
X9950110Y-8000360D01*
D11*
D12*
X9558610Y-9418460D02*
X9579610Y-9439460D01*
X9579610Y-9418460D02*
X9558610Y-9439460D01*
X9560890Y-11711640D02*
X9581890Y-11732640D01*
X9581890Y-11711640D02*
X9560890Y-11732640D01*
X9692000Y-8672000D02*
X9713000Y-8693000D01*
X9713000Y-8672000D02*
X9692000Y-8693000D01*
X9787210Y-12644260D02*
X9808210Y-12665260D01*
X9808210Y-12644260D02*
X9787210Y-12665260D01*
X9814890Y-12194240D02*
X9835890Y-12215240D01*
X9835890Y-12194240D02*
X9814890Y-12215240D01*
X9871030Y-9667380D02*
X9892030Y-9688380D01*
X9892030Y-9667380D02*
X9871030Y-9688380D01*
X9944500Y-10534500D02*
X9965500Y-10555500D01*
X9965500Y-10534500D02*
X9944500Y-10555500D01*
X10015810Y-8148460D02*
X10036810Y-8169460D01*
X10036810Y-8148460D02*
X10015810Y-8169460D01*
X10137000Y-9207000D02*
X10158000Y-9228000D01*
X10158000Y-9207000D02*
X10137000Y-9228000D01*
X10162000Y-11012000D02*
X10183000Y-11033000D01*
X10183000Y-11012000D02*
X10162000Y-11033000D01*
X10362000Y-8812000D02*
X10383000Y-8833000D01*
X10383000Y-8812000D02*
X10362000Y-8833000D01*
X10362000Y-9819500D02*
X10383000Y-9840500D01*
X10383000Y-9819500D02*
X10362000Y-9840500D01*
X10449500Y-11879500D02*
X10470500Y-11900500D01*
X10470500Y-11879500D02*
X10449500Y-11900500D01*
X10454500Y-11589500D02*
X10475500Y-11610500D01*
X10475500Y-11589500D02*
X10454500Y-11610500D01*
X10529500Y-12269500D02*
X10550500Y-12290500D01*
X10550500Y-12269500D02*
X10529500Y-12290500D01*
X10537000Y-8387000D02*
X10558000Y-8408000D01*
X10558000Y-8387000D02*
X10537000Y-8408000D01*
X10749500Y-12869500D02*
X10770500Y-12890500D01*
X10770500Y-12869500D02*
X10749500Y-12890500D01*
X10789500Y-11219500D02*
X10810500Y-11240500D01*
X10810500Y-11219500D02*
X10789500Y-11240500D01*
X10872000Y-9427000D02*
X10893000Y-9448000D01*
X10893000Y-9427000D02*
X10872000Y-9448000D01*
X10874500Y-11869500D02*
X10895500Y-11890500D01*
X10895500Y-11869500D02*
X10874500Y-11890500D01*
X10889500Y-10859500D02*
X10910500Y-10880500D01*
X10910500Y-10859500D02*
X10889500Y-10880500D01*
X10894500Y-12242000D02*
X10915500Y-12263000D01*
X10915500Y-12242000D02*
X10894500Y-12263000D01*
X10954500Y-11912000D02*
X10975500Y-11933000D01*
X10975500Y-11912000D02*
X10954500Y-11933000D01*
X11042000Y-11279500D02*
X11063000Y-11300500D01*
X11063000Y-11279500D02*
X11042000Y-11300500D01*
X11067000Y-11989500D02*
X11088000Y-12010500D01*
X11088000Y-11989500D02*
X11067000Y-12010500D01*
X11149500Y-11877000D02*
X11170500Y-11898000D01*
X11170500Y-11877000D02*
X11149500Y-11898000D01*
X11158810Y-8694560D02*
X11179810Y-8715560D01*
X11179810Y-8694560D02*
X11158810Y-8715560D01*
X11158810Y-9139060D02*
X11179810Y-9160060D01*
X11179810Y-9139060D02*
X11158810Y-9160060D01*
X11169500Y-9779500D02*
X11190500Y-9800500D01*
X11190500Y-9779500D02*
X11169500Y-9800500D01*
X11179500Y-12589500D02*
X11200500Y-12610500D01*
X11200500Y-12589500D02*
X11179500Y-12610500D01*
X11187000Y-11999500D02*
X11208000Y-12020500D01*
X11208000Y-11999500D02*
X11187000Y-12020500D01*
X11197000Y-11487000D02*
X11218000Y-11508000D01*
X11218000Y-11487000D02*
X11197000Y-11508000D01*
X11212000Y-10877000D02*
X11233000Y-10898000D01*
X11233000Y-10877000D02*
X11212000Y-10898000D01*
X11237000Y-12129500D02*
X11258000Y-12150500D01*
X11258000Y-12129500D02*
X11237000Y-12150500D01*
X11257000Y-12314500D02*
X11278000Y-12335500D01*
X11278000Y-12314500D02*
X11257000Y-12335500D01*
X11297000Y-12199500D02*
X11318000Y-12220500D01*
X11318000Y-12199500D02*
X11297000Y-12220500D01*
X11322000Y-8069500D02*
X11343000Y-8090500D01*
X11343000Y-8069500D02*
X11322000Y-8090500D01*
X11369500Y-12889500D02*
X11390500Y-12910500D01*
X11390500Y-12889500D02*
X11369500Y-12910500D01*
X11419500Y-10189500D02*
X11440500Y-10210500D01*
X11440500Y-10189500D02*
X11419500Y-10210500D01*
X11429500Y-11509500D02*
X11450500Y-11530500D01*
X11450500Y-11509500D02*
X11429500Y-11530500D01*
X11439500Y-9851500D02*
X11460500Y-9872500D01*
X11460500Y-9851500D02*
X11439500Y-9872500D01*
X11444500Y-11194500D02*
X11465500Y-11215500D01*
X11465500Y-11194500D02*
X11444500Y-11215500D01*
X11494500Y-12299500D02*
X11515500Y-12320500D01*
X11515500Y-12299500D02*
X11494500Y-12320500D01*
X11499500Y-12489500D02*
X11520500Y-12510500D01*
X11520500Y-12489500D02*
X11499500Y-12510500D01*
X11509500Y-12624500D02*
X11530500Y-12645500D01*
X11530500Y-12624500D02*
X11509500Y-12645500D01*
X11584500Y-10299500D02*
X11605500Y-10320500D01*
X11605500Y-10299500D02*
X11584500Y-10320500D01*
X11599500Y-10555000D02*
X11620500Y-10576000D01*
X11620500Y-10555000D02*
X11599500Y-10576000D01*
X11639500Y-11939000D02*
X11660500Y-11960000D01*
X11660500Y-11939000D02*
X11639500Y-11960000D01*
X11659500Y-10344500D02*
X11680500Y-10365500D01*
X11680500Y-10344500D02*
X11659500Y-10365500D01*
X11659500Y-12799500D02*
X11680500Y-12820500D01*
X11680500Y-12799500D02*
X11659500Y-12820500D01*
X11689500Y-11369500D02*
X11710500Y-11390500D01*
X11710500Y-11369500D02*
X11689500Y-11390500D01*
X11694500Y-11859500D02*
X11715500Y-11880500D01*
X11715500Y-11859500D02*
X11694500Y-11880500D01*
X11719500Y-8649500D02*
X11740500Y-8670500D01*
X11740500Y-8649500D02*
X11719500Y-8670500D01*
X11779500Y-10979500D02*
X11800500Y-11000500D01*
X11800500Y-10979500D02*
X11779500Y-11000500D01*
X11849500Y-10689500D02*
X11870500Y-10710500D01*
X11870500Y-10689500D02*
X11849500Y-10710500D01*
X11849500Y-11239500D02*
X11870500Y-11260500D01*
X11870500Y-11239500D02*
X11849500Y-11260500D01*
X11929500Y-10829500D02*
X11950500Y-10850500D01*
X11950500Y-10829500D02*
X11929500Y-10850500D01*
X11964500Y-9964500D02*
X11985500Y-9985500D01*
X11985500Y-9964500D02*
X11964500Y-9985500D01*
X11964500Y-10419500D02*
X11985500Y-10440500D01*
X11985500Y-10419500D02*
X11964500Y-10440500D01*
X12004500Y-11372500D02*
X12025500Y-11393500D01*
X12025500Y-11372500D02*
X12004500Y-11393500D01*
X12069500Y-12713250D02*
X12090500Y-12734250D01*
X12090500Y-12713250D02*
X12069500Y-12734250D01*
X12108875Y-12280125D02*
X12129875Y-12301125D01*
X12129875Y-12280125D02*
X12108875Y-12301125D01*
X12119500Y-8649500D02*
X12140500Y-8670500D01*
X12140500Y-8649500D02*
X12119500Y-8670500D01*
X12149500Y-12589500D02*
X12170500Y-12610500D01*
X12170500Y-12589500D02*
X12149500Y-12610500D01*
X12189500Y-9864500D02*
X12210500Y-9885500D01*
X12210500Y-9864500D02*
X12189500Y-9885500D01*
X12199500Y-10779500D02*
X12220500Y-10800500D01*
X12220500Y-10779500D02*
X12199500Y-10800500D01*
X12212000Y-11232000D02*
X12233000Y-11253000D01*
X12233000Y-11232000D02*
X12212000Y-11253000D01*
X12279500Y-9759500D02*
X12300500Y-9780500D01*
X12300500Y-9759500D02*
X12279500Y-9780500D01*
X12412317Y-12132318D02*
X12433317Y-12153318D01*
X12433317Y-12132318D02*
X12412317Y-12153318D01*
X12419500Y-8629500D02*
X12440500Y-8650500D01*
X12440500Y-8629500D02*
X12419500Y-8650500D01*
X12493676Y-12032485D02*
X12514676Y-12053485D01*
X12514676Y-12032485D02*
X12493676Y-12053485D01*
X12614500Y-8079500D02*
X12635500Y-8100500D01*
X12635500Y-8079500D02*
X12614500Y-8100500D01*
X12639500Y-12689500D02*
X12660500Y-12710500D01*
X12660500Y-12689500D02*
X12639500Y-12710500D01*
X12649500Y-8649500D02*
X12670500Y-8670500D01*
X12670500Y-8649500D02*
X12649500Y-8670500D01*
X12739500Y-12764500D02*
X12760500Y-12785500D01*
X12760500Y-12764500D02*
X12739500Y-12785500D01*
X12797810Y-9472800D02*
X12818810Y-9493800D01*
X12818810Y-9472800D02*
X12797810Y-9493800D01*
X12804500Y-12209500D02*
X12825500Y-12230500D01*
X12825500Y-12209500D02*
X12804500Y-12230500D01*
X12839500Y-12614500D02*
X12860500Y-12635500D01*
X12860500Y-12614500D02*
X12839500Y-12635500D01*
X12907000Y-10087000D02*
X12928000Y-10108000D01*
X12928000Y-10087000D02*
X12907000Y-10108000D01*
X12929500Y-11459500D02*
X12950500Y-11480500D01*
X12950500Y-11459500D02*
X12929500Y-11480500D01*
X12939500Y-12314500D02*
X12960500Y-12335500D01*
X12960500Y-12314500D02*
X12939500Y-12335500D01*
X13061140Y-12544343D02*
X13082140Y-12565343D01*
X13082140Y-12544343D02*
X13061140Y-12565343D01*
X13089500Y-9789500D02*
X13110500Y-9810500D01*
X13110500Y-9789500D02*
X13089500Y-9810500D01*
X13092000Y-10679500D02*
X13113000Y-10700500D01*
X13113000Y-10679500D02*
X13092000Y-10700500D01*
X13140003Y-11437063D02*
X13161003Y-11458063D01*
X13161003Y-11437063D02*
X13140003Y-11458063D01*
X13239500Y-11949500D02*
X13260500Y-11970500D01*
X13260500Y-11949500D02*
X13239500Y-11970500D01*
X13239500Y-12454500D02*
X13260500Y-12475500D01*
X13260500Y-12454500D02*
X13239500Y-12475500D01*
X13294500Y-11144500D02*
X13315500Y-11165500D01*
X13315500Y-11144500D02*
X13294500Y-11165500D01*
X13317810Y-8631060D02*
X13338810Y-8652060D01*
X13338810Y-8631060D02*
X13317810Y-8652060D01*
X13364500Y-10294500D02*
X13385500Y-10315500D01*
X13385500Y-10294500D02*
X13364500Y-10315500D01*
X13389500Y-9439500D02*
X13410500Y-9460500D01*
X13410500Y-9439500D02*
X13389500Y-9460500D01*
X13449500Y-8069500D02*
X13470500Y-8090500D01*
X13470500Y-8069500D02*
X13449500Y-8090500D01*
X13454500Y-12825000D02*
X13475500Y-12846000D01*
X13475500Y-12825000D02*
X13454500Y-12846000D01*
X13514500Y-10599500D02*
X13535500Y-10620500D01*
X13535500Y-10599500D02*
X13514500Y-10620500D01*
X13539500Y-12361100D02*
X13560500Y-12382100D01*
X13560500Y-12361100D02*
X13539500Y-12382100D01*
X13549500Y-11234500D02*
X13570500Y-11255500D01*
X13570500Y-11234500D02*
X13549500Y-11255500D01*
X13599600Y-12764500D02*
X13620600Y-12785500D01*
X13620600Y-12764500D02*
X13599600Y-12785500D01*
X13654500Y-11194500D02*
X13675500Y-11215500D01*
X13675500Y-11194500D02*
X13654500Y-11215500D01*
X13664500Y-12689500D02*
X13685500Y-12710500D01*
X13685500Y-12689500D02*
X13664500Y-12710500D01*
X13729030Y-10914080D02*
X13750030Y-10935080D01*
X13750030Y-10914080D02*
X13729030Y-10935080D01*
X13729500Y-12049500D02*
X13750500Y-12070500D01*
X13750500Y-12049500D02*
X13729500Y-12070500D01*
X13792000Y-11112000D02*
X13813000Y-11133000D01*
X13813000Y-11112000D02*
X13792000Y-11133000D01*
X13929500Y-12369500D02*
X13950500Y-12390500D01*
X13950500Y-12369500D02*
X13929500Y-12390500D01*
X14177000Y-12239500D02*
X14198000Y-12260500D01*
X14198000Y-12239500D02*
X14177000Y-12260500D01*
X14224500Y-11944500D02*
X14245500Y-11965500D01*
X14245500Y-11944500D02*
X14224500Y-11965500D01*
X14294500Y-11129500D02*
X14315500Y-11150500D01*
X14315500Y-11129500D02*
X14294500Y-11150500D01*
X14459500Y-12214500D02*
X14480500Y-12235500D01*
X14480500Y-12214500D02*
X14459500Y-12235500D01*
X14465630Y-10840420D02*
X14486630Y-10861420D01*
X14486630Y-10840420D02*
X14465630Y-10861420D01*
X14499500Y-12569500D02*
X14520500Y-12590500D01*
X14520500Y-12569500D02*
X14499500Y-12590500D01*
X14519500Y-11939500D02*
X14540500Y-11960500D01*
X14540500Y-11939500D02*
X14519500Y-11960500D01*
X14799010Y-12371120D02*
X14820010Y-12392120D01*
X14820010Y-12371120D02*
X14799010Y-12392120D01*
X14844500Y-12902000D02*
X14865500Y-12923000D01*
X14865500Y-12902000D02*
X14844500Y-12923000D01*
X14954500Y-12074500D02*
X14975500Y-12095500D01*
X14975500Y-12074500D02*
X14954500Y-12095500D01*
X14977000Y-12554500D02*
X14998000Y-12575500D01*
X14998000Y-12554500D02*
X14977000Y-12575500D01*
X15192000Y-11937000D02*
X15213000Y-11958000D01*
X15213000Y-11937000D02*
X15192000Y-11958000D01*
X15205410Y-12371120D02*
X15226410Y-12392120D01*
X15226410Y-12371120D02*
X15205410Y-12392120D01*
X15259500Y-10859500D02*
X15280500Y-10880500D01*
X15280500Y-10859500D02*
X15259500Y-10880500D01*
X15482000Y-11937000D02*
X15503000Y-11958000D01*
X15503000Y-11937000D02*
X15482000Y-11958000D01*
X15497000Y-12279500D02*
X15518000Y-12300500D01*
X15518000Y-12279500D02*
X15497000Y-12300500D01*
X15744500Y-12139500D02*
X15765500Y-12160500D01*
X15765500Y-12139500D02*
X15744500Y-12160500D01*
X15844500Y-11154500D02*
X15865500Y-11175500D01*
X15865500Y-11154500D02*
X15844500Y-11175500D01*
X15910500Y-10884250D02*
X15931500Y-10905250D01*
X15931500Y-10884250D02*
X15910500Y-10905250D01*
X15995500Y-11609500D02*
X16016500Y-11630500D01*
X16016500Y-11609500D02*
X15995500Y-11630500D01*
X16019500Y-12894500D02*
X16040500Y-12915500D01*
X16040500Y-12894500D02*
X16019500Y-12915500D01*
X16089500Y-10881750D02*
X16110500Y-10902750D01*
X16110500Y-10881750D02*
X16089500Y-10902750D01*
X16102000Y-12279500D02*
X16123000Y-12300500D01*
X16123000Y-12279500D02*
X16102000Y-12300500D01*
X16109500Y-12374500D02*
X16130500Y-12395500D01*
X16130500Y-12374500D02*
X16109500Y-12395500D01*
X16174500Y-12070000D02*
X16195500Y-12091000D01*
X16195500Y-12070000D02*
X16174500Y-12091000D01*
X16184500Y-12599500D02*
X16205500Y-12620500D01*
X16205500Y-12599500D02*
X16184500Y-12620500D01*
X16187214Y-11564372D02*
X16208214Y-11585372D01*
X16208214Y-11564372D02*
X16187214Y-11585372D01*
X16324500Y-9854500D02*
X16345500Y-9875500D01*
X16345500Y-9854500D02*
X16324500Y-9875500D01*
X16329500Y-8119500D02*
X16350500Y-8140500D01*
X16350500Y-8119500D02*
X16329500Y-8140500D01*
X16339500Y-9639500D02*
X16360500Y-9660500D01*
X16360500Y-9639500D02*
X16339500Y-9660500D01*
X16364500Y-8614500D02*
X16385500Y-8635500D01*
X16385500Y-8614500D02*
X16364500Y-8635500D01*
X16399500Y-12373660D02*
X16420500Y-12394660D01*
X16420500Y-12373660D02*
X16399500Y-12394660D01*
X16439500Y-11939500D02*
X16460500Y-11960500D01*
X16460500Y-11939500D02*
X16439500Y-11960500D01*
X16444500Y-12594500D02*
X16465500Y-12615500D01*
X16465500Y-12594500D02*
X16444500Y-12615500D01*
X16469500Y-9919500D02*
X16490500Y-9940500D01*
X16490500Y-9919500D02*
X16469500Y-9940500D01*
X16469500Y-11424500D02*
X16490500Y-11445500D01*
X16490500Y-11424500D02*
X16469500Y-11445500D01*
X16530000Y-11503872D02*
X16551000Y-11524872D01*
X16551000Y-11503872D02*
X16530000Y-11524872D01*
X16568000Y-10686750D02*
X16589000Y-10707750D01*
X16589000Y-10686750D02*
X16568000Y-10707750D01*
X16619500Y-11154500D02*
X16640500Y-11175500D01*
X16640500Y-11154500D02*
X16619500Y-11175500D01*
X16629500Y-11679500D02*
X16650500Y-11700500D01*
X16650500Y-11679500D02*
X16629500Y-11700500D01*
X16659500Y-10359500D02*
X16680500Y-10380500D01*
X16680500Y-10359500D02*
X16659500Y-10380500D01*
X16699500Y-12224500D02*
X16720500Y-12245500D01*
X16720500Y-12224500D02*
X16699500Y-12245500D01*
X16767000Y-11874500D02*
X16788000Y-11895500D01*
X16788000Y-11874500D02*
X16767000Y-11895500D01*
X16775030Y-11463400D02*
X16796030Y-11484400D01*
X16796030Y-11463400D02*
X16775030Y-11484400D01*
X16790000Y-11124500D02*
X16811000Y-11145500D01*
X16811000Y-11124500D02*
X16790000Y-11145500D01*
X16829482Y-11402900D02*
X16850482Y-11423900D01*
X16850482Y-11402900D02*
X16829482Y-11423900D01*
X16835664Y-11699200D02*
X16856664Y-11720200D01*
X16856664Y-11699200D02*
X16835664Y-11720200D01*
X16879500Y-11158250D02*
X16900500Y-11179250D01*
X16900500Y-11158250D02*
X16879500Y-11179250D01*
X16919500Y-11092000D02*
X16940500Y-11113000D01*
X16940500Y-11092000D02*
X16919500Y-11113000D01*
X16925128Y-11699200D02*
X16946128Y-11720200D01*
X16946128Y-11699200D02*
X16925128Y-11720200D01*
X16925500Y-10889250D02*
X16946500Y-10910250D01*
X16946500Y-10889250D02*
X16925500Y-10910250D01*
X16926000Y-11554000D02*
X16947000Y-11575000D01*
X16947000Y-11554000D02*
X16926000Y-11575000D01*
X16929500Y-12199500D02*
X16950500Y-12220500D01*
X16950500Y-12199500D02*
X16929500Y-12220500D01*
X16934500Y-12694500D02*
X16955500Y-12715500D01*
X16955500Y-12694500D02*
X16934500Y-12715500D01*
X16956030Y-12037970D02*
X16977030Y-12058970D01*
X16977030Y-12037970D02*
X16956030Y-12058970D01*
X16978000Y-10679250D02*
X16999000Y-10700250D01*
X16999000Y-10679250D02*
X16978000Y-10700250D01*
X17014500Y-11924500D02*
X17035500Y-11945500D01*
X17035500Y-11924500D02*
X17014500Y-11945500D01*
X17019500Y-11689500D02*
X17040500Y-11710500D01*
X17040500Y-11689500D02*
X17019500Y-11710500D01*
X17074500Y-10809500D02*
X17095500Y-10830500D01*
X17095500Y-10809500D02*
X17074500Y-10830500D01*
X17115490Y-9830100D02*
X17136490Y-9851100D01*
X17136490Y-9830100D02*
X17115490Y-9851100D01*
X17160750Y-10768250D02*
X17181750Y-10789250D01*
X17181750Y-10768250D02*
X17160750Y-10789250D01*
X17189500Y-12824500D02*
X17210500Y-12845500D01*
X17210500Y-12824500D02*
X17189500Y-12845500D01*
X17251085Y-11720446D02*
X17272085Y-11741446D01*
X17272085Y-11720446D02*
X17251085Y-11741446D01*
X17252000Y-10567000D02*
X17273000Y-10588000D01*
X17273000Y-10567000D02*
X17252000Y-10588000D01*
X17254500Y-10764500D02*
X17275500Y-10785500D01*
X17275500Y-10764500D02*
X17254500Y-10785500D01*
X17289500Y-12114500D02*
X17310500Y-12135500D01*
X17310500Y-12114500D02*
X17289500Y-12135500D01*
X17304500Y-11439500D02*
X17325500Y-11460500D01*
X17325500Y-11439500D02*
X17304500Y-11460500D01*
X17309500Y-11059500D02*
X17330500Y-11080500D01*
X17330500Y-11059500D02*
X17309500Y-11080500D01*
X17324500Y-11859500D02*
X17345500Y-11880500D01*
X17345500Y-11859500D02*
X17324500Y-11880500D01*
X17329500Y-11719481D02*
X17350500Y-11740481D01*
X17350500Y-11719481D02*
X17329500Y-11740481D01*
X17358690Y-8435040D02*
X17379690Y-8456040D01*
X17379690Y-8435040D02*
X17358690Y-8456040D01*
X17386788Y-12045432D02*
X17407788Y-12066432D01*
X17407788Y-12045432D02*
X17386788Y-12066432D01*
X17389500Y-9589500D02*
X17410500Y-9610500D01*
X17410500Y-9589500D02*
X17389500Y-9610500D01*
X17404500Y-10317000D02*
X17425500Y-10338000D01*
X17425500Y-10317000D02*
X17404500Y-10338000D01*
X17419500Y-12361100D02*
X17440500Y-12382100D01*
X17440500Y-12361100D02*
X17419500Y-12382100D01*
X17429500Y-12109500D02*
X17450500Y-12130500D01*
X17450500Y-12109500D02*
X17429500Y-12130500D01*
X17452000Y-12674500D02*
X17473000Y-12695500D01*
X17473000Y-12674500D02*
X17452000Y-12695500D01*
X17469500Y-10589500D02*
X17490500Y-10610500D01*
X17490500Y-10589500D02*
X17469500Y-10610500D01*
X17482000Y-11447000D02*
X17503000Y-11468000D01*
X17503000Y-11447000D02*
X17482000Y-11468000D01*
X17494500Y-12154500D02*
X17515500Y-12175500D01*
X17515500Y-12154500D02*
X17494500Y-12175500D01*
X17499500Y-10779500D02*
X17520500Y-10800500D01*
X17520500Y-10779500D02*
X17499500Y-10800500D01*
X17509500Y-9929500D02*
X17530500Y-9950500D01*
X17530500Y-9929500D02*
X17509500Y-9950500D01*
X17514680Y-11095717D02*
X17535680Y-11116717D01*
X17535680Y-11095717D02*
X17514680Y-11116717D01*
X17563050Y-9092440D02*
X17584050Y-9113440D01*
X17584050Y-9092440D02*
X17563050Y-9113440D01*
X17606700Y-10189860D02*
X17627700Y-10210860D01*
X17627700Y-10189860D02*
X17606700Y-10210860D01*
X17614500Y-12909500D02*
X17635500Y-12930500D01*
X17635500Y-12909500D02*
X17614500Y-12930500D01*
X17679890Y-8406640D02*
X17700890Y-8427640D01*
X17700890Y-8406640D02*
X17679890Y-8427640D01*
X17689500Y-11704251D02*
X17710500Y-11725251D01*
X17710500Y-11704251D02*
X17689500Y-11725251D01*
X17694500Y-9572000D02*
X17715500Y-9593000D01*
X17715500Y-9572000D02*
X17694500Y-9593000D01*
X17704500Y-10699500D02*
X17725500Y-10720500D01*
X17725500Y-10699500D02*
X17704500Y-10720500D01*
X17744500Y-11619500D02*
X17765500Y-11640500D01*
X17765500Y-11619500D02*
X17744500Y-11640500D01*
X17769500Y-9039500D02*
X17790500Y-9060500D01*
X17790500Y-9039500D02*
X17769500Y-9060500D01*
X17777000Y-12302000D02*
X17798000Y-12323000D01*
X17798000Y-12302000D02*
X17777000Y-12323000D01*
X17810078Y-11559500D02*
X17831078Y-11580500D01*
X17831078Y-11559500D02*
X17810078Y-11580500D01*
X17829500Y-10327300D02*
X17850500Y-10348300D01*
X17850500Y-10327300D02*
X17829500Y-10348300D01*
X17839500Y-10459500D02*
X17860500Y-10480500D01*
X17860500Y-10459500D02*
X17839500Y-10480500D01*
X17870499Y-11506979D02*
X17891499Y-11527979D01*
X17891499Y-11506979D02*
X17870499Y-11527979D01*
X17882000Y-10709500D02*
X17903000Y-10730500D01*
X17903000Y-10709500D02*
X17882000Y-10730500D01*
X17898631Y-11095222D02*
X17919631Y-11116222D01*
X17919631Y-11095222D02*
X17898631Y-11116222D01*
X17899545Y-11018227D02*
X17920545Y-11039227D01*
X17920545Y-11018227D02*
X17899545Y-11039227D01*
X17906926Y-11439141D02*
X17927926Y-11460141D01*
X17927926Y-11439141D02*
X17906926Y-11460141D01*
X17907341Y-11353995D02*
X17928341Y-11374995D01*
X17928341Y-11353995D02*
X17907341Y-11374995D01*
X17929500Y-12749500D02*
X17950500Y-12770500D01*
X17950500Y-12749500D02*
X17929500Y-12770500D01*
X17964500Y-11667000D02*
X17985500Y-11688000D01*
X17985500Y-11667000D02*
X17964500Y-11688000D01*
X17984690Y-9092440D02*
X18005690Y-9113440D01*
X18005690Y-9092440D02*
X17984690Y-9113440D01*
X18012000Y-10829500D02*
X18033000Y-10850500D01*
X18033000Y-10829500D02*
X18012000Y-10850500D01*
X18089500Y-11329500D02*
X18110500Y-11350500D01*
X18110500Y-11329500D02*
X18089500Y-11350500D01*
X18089500Y-12734500D02*
X18110500Y-12755500D01*
X18110500Y-12734500D02*
X18089500Y-12755500D01*
X18129500Y-10569500D02*
X18150500Y-10590500D01*
X18150500Y-10569500D02*
X18129500Y-10590500D01*
X18159500Y-10404500D02*
X18180500Y-10425500D01*
X18180500Y-10404500D02*
X18159500Y-10425500D01*
X18214500Y-10979500D02*
X18235500Y-11000500D01*
X18235500Y-10979500D02*
X18214500Y-11000500D01*
X18217000Y-11529500D02*
X18238000Y-11550500D01*
X18238000Y-11529500D02*
X18217000Y-11550500D01*
X18219500Y-12279500D02*
X18240500Y-12300500D01*
X18240500Y-12279500D02*
X18219500Y-12300500D01*
X18269500Y-10704500D02*
X18290500Y-10725500D01*
X18290500Y-10704500D02*
X18269500Y-10725500D01*
X18274500Y-11384500D02*
X18295500Y-11405500D01*
X18295500Y-11384500D02*
X18274500Y-11405500D01*
X18279323Y-11300825D02*
X18300323Y-11321825D01*
X18300323Y-11300825D02*
X18279323Y-11321825D01*
X18289500Y-11224500D02*
X18310500Y-11245500D01*
X18310500Y-11224500D02*
X18289500Y-11245500D01*
X18309500Y-10814500D02*
X18330500Y-10835500D01*
X18330500Y-10814500D02*
X18309500Y-10835500D01*
X18359500Y-11409500D02*
X18380500Y-11430500D01*
X18380500Y-11409500D02*
X18359500Y-11430500D01*
X18365460Y-8900460D02*
X18386460Y-8921460D01*
X18386460Y-8900460D02*
X18365460Y-8921460D01*
X18369500Y-10612500D02*
X18390500Y-10633500D01*
X18390500Y-10612500D02*
X18369500Y-10633500D01*
X18379500Y-10704500D02*
X18400500Y-10725500D01*
X18400500Y-10704500D02*
X18379500Y-10725500D01*
X18452269Y-10943827D02*
X18473269Y-10964827D01*
X18473269Y-10943827D02*
X18452269Y-10964827D01*
X18486450Y-9303720D02*
X18507450Y-9324720D01*
X18507450Y-9303720D02*
X18486450Y-9324720D01*
X18499500Y-11844500D02*
X18520500Y-11865500D01*
X18520500Y-11844500D02*
X18499500Y-11865500D01*
X18514500Y-8924500D02*
X18535500Y-8945500D01*
X18535500Y-8924500D02*
X18514500Y-8945500D01*
X18559500Y-12724500D02*
X18580500Y-12745500D01*
X18580500Y-12724500D02*
X18559500Y-12745500D01*
X18569500Y-10454500D02*
X18590500Y-10475500D01*
X18590500Y-10454500D02*
X18569500Y-10475500D01*
X18584500Y-9809500D02*
X18605500Y-9830500D01*
X18605500Y-9809500D02*
X18584500Y-9830500D01*
X18659500Y-12434500D02*
X18680500Y-12455500D01*
X18680500Y-12434500D02*
X18659500Y-12455500D01*
X18669500Y-8119500D02*
X18690500Y-8140500D01*
X18690500Y-8119500D02*
X18669500Y-8140500D01*
X18704500Y-11224500D02*
X18725500Y-11245500D01*
X18725500Y-11224500D02*
X18704500Y-11245500D01*
X18719500Y-10619500D02*
X18740500Y-10640500D01*
X18740500Y-10619500D02*
X18719500Y-10640500D01*
X18779500Y-8932000D02*
X18800500Y-8953000D01*
X18800500Y-8932000D02*
X18779500Y-8953000D01*
X18876017Y-12089500D02*
X18897017Y-12110500D01*
X18897017Y-12089500D02*
X18876017Y-12110500D01*
X18877000Y-12199500D02*
X18898000Y-12220500D01*
X18898000Y-12199500D02*
X18877000Y-12220500D01*
X18887000Y-12739500D02*
X18908000Y-12760500D01*
X18908000Y-12739500D02*
X18887000Y-12760500D01*
X18889500Y-8759500D02*
X18910500Y-8780500D01*
X18910500Y-8759500D02*
X18889500Y-8780500D01*
X18919500Y-11289500D02*
X18940500Y-11310500D01*
X18940500Y-11289500D02*
X18919500Y-11310500D01*
X18929500Y-11944500D02*
X18950500Y-11965500D01*
X18950500Y-11944500D02*
X18929500Y-11965500D01*
X18949500Y-8689500D02*
X18970500Y-8710500D01*
X18970500Y-8689500D02*
X18949500Y-8710500D01*
X18952000Y-12309500D02*
X18973000Y-12330500D01*
X18973000Y-12309500D02*
X18952000Y-12330500D01*
X18979500Y-11349500D02*
X19000500Y-11370500D01*
X19000500Y-11349500D02*
X18979500Y-11370500D01*
X18984500Y-11509500D02*
X19005500Y-11530500D01*
X19005500Y-11509500D02*
X18984500Y-11530500D01*
X19024500Y-12414500D02*
X19045500Y-12435500D01*
X19045500Y-12414500D02*
X19024500Y-12435500D01*
X19029807Y-11222801D02*
X19050807Y-11243801D01*
X19050807Y-11222801D02*
X19029807Y-11243801D01*
X19042000Y-12309500D02*
X19063000Y-12330500D01*
X19063000Y-12309500D02*
X19042000Y-12330500D01*
X19077000Y-12639500D02*
X19098000Y-12660500D01*
X19098000Y-12639500D02*
X19077000Y-12660500D01*
X19079500Y-12529500D02*
X19100500Y-12550500D01*
X19100500Y-12529500D02*
X19079500Y-12550500D01*
X19089500Y-9709500D02*
X19110500Y-9730500D01*
X19110500Y-9709500D02*
X19089500Y-9730500D01*
X19099500Y-10899500D02*
X19120500Y-10920500D01*
X19120500Y-10899500D02*
X19099500Y-10920500D01*
X19119500Y-9079500D02*
X19140500Y-9100500D01*
X19140500Y-9079500D02*
X19119500Y-9100500D01*
X19206500Y-10594500D02*
X19227500Y-10615500D01*
X19227500Y-10594500D02*
X19206500Y-10615500D01*
X19212500Y-11184000D02*
X19233500Y-11205000D01*
X19233500Y-11184000D02*
X19212500Y-11205000D01*
X19255500Y-11749500D02*
X19276500Y-11770500D01*
X19276500Y-11749500D02*
X19255500Y-11770500D01*
X19349500Y-12839500D02*
X19370500Y-12860500D01*
X19370500Y-12839500D02*
X19349500Y-12860500D01*
X19364500Y-11519500D02*
X19385500Y-11540500D01*
X19385500Y-11519500D02*
X19364500Y-11540500D01*
X19369500Y-12094500D02*
X19390500Y-12115500D01*
X19390500Y-12094500D02*
X19369500Y-12115500D01*
X19399500Y-10689500D02*
X19420500Y-10710500D01*
X19420500Y-10689500D02*
X19399500Y-10710500D01*
X19424500Y-12527000D02*
X19445500Y-12548000D01*
X19445500Y-12527000D02*
X19424500Y-12548000D01*
X19434500Y-10949500D02*
X19455500Y-10970500D01*
X19455500Y-10949500D02*
X19434500Y-10970500D01*
X19519500Y-11009500D02*
X19540500Y-11030500D01*
X19540500Y-11009500D02*
X19519500Y-11030500D01*
X19599500Y-10854500D02*
X19620500Y-10875500D01*
X19620500Y-10854500D02*
X19599500Y-10875500D01*
X19623500Y-12006500D02*
X19644500Y-12027500D01*
X19644500Y-12006500D02*
X19623500Y-12027500D01*
X19642500Y-11325500D02*
X19663500Y-11346500D01*
X19663500Y-11325500D02*
X19642500Y-11346500D01*
X19659500Y-10579500D02*
X19680500Y-10600500D01*
X19680500Y-10579500D02*
X19659500Y-10600500D01*
X19664500Y-11759500D02*
X19685500Y-11780500D01*
X19685500Y-11759500D02*
X19664500Y-11780500D01*
X19692950Y-9042100D02*
X19713950Y-9063100D01*
X19713950Y-9042100D02*
X19692950Y-9063100D01*
X19730500Y-12429500D02*
X19751500Y-12450500D01*
X19751500Y-12429500D02*
X19730500Y-12450500D01*
X19769410Y-8224660D02*
X19790410Y-8245660D01*
X19790410Y-8224660D02*
X19769410Y-8245660D01*
X19897000Y-12664500D02*
X19918000Y-12685500D01*
X19918000Y-12664500D02*
X19897000Y-12685500D01*
X19994500Y-11529500D02*
X20015500Y-11550500D01*
X20015500Y-11529500D02*
X19994500Y-11550500D01*
X20019500Y-9919500D02*
X20040500Y-9940500D01*
X20040500Y-9919500D02*
X20019500Y-9940500D01*
X14700000Y-12735000D02*
G75*
G02*
X14670000Y-12735000I-15000J0D01*
G01*
X14670000Y-12735000D02*
G75*
G02*
X14700000Y-12735000I15000J0D01*
G01*
X15520000Y-11100000D02*
G75*
G02*
X15490000Y-11100000I-15000J0D01*
G01*
X15490000Y-11100000D02*
G75*
G02*
X15520000Y-11100000I15000J0D01*
G01*
X15875000Y-11500000D02*
G75*
G02*
X15845000Y-11500000I-15000J0D01*
G01*
X15845000Y-11500000D02*
G75*
G02*
X15875000Y-11500000I15000J0D01*
G01*
X19230000Y-10410000D02*
G75*
G02*
X19200000Y-10410000I-15000J0D01*
G01*
X19200000Y-10410000D02*
G75*
G02*
X19230000Y-10410000I15000J0D01*
G01*
X19315000Y-10895000D02*
G75*
G02*
X19285000Y-10895000I-15000J0D01*
G01*
X19285000Y-10895000D02*
G75*
G02*
X19315000Y-10895000I15000J0D01*
G01*
X11038110Y-10038360D02*
X11038110Y-10108360D01*
X11003110Y-10073360D02*
X11073110Y-10073360D01*
X11040110Y-10295360D02*
X11040110Y-10365360D01*
X11005110Y-10330360D02*
X11075110Y-10330360D01*
X11185110Y-10165360D02*
X11185110Y-10235360D01*
X11150110Y-10200360D02*
X11220110Y-10200360D01*
X12560110Y-10041360D02*
X12560110Y-10111360D01*
X12525110Y-10076360D02*
X12595110Y-10076360D01*
X12562110Y-10292360D02*
X12562110Y-10362360D01*
X12527110Y-10327360D02*
X12597110Y-10327360D01*
X14088110Y-10738360D02*
X14088110Y-10808360D01*
X14053110Y-10773360D02*
X14123110Y-10773360D01*
X14090110Y-10995360D02*
X14090110Y-11065360D01*
X14055110Y-11030360D02*
X14125110Y-11030360D01*
X14235110Y-10865360D02*
X14235110Y-10935360D01*
X14200110Y-10900360D02*
X14270110Y-10900360D01*
X15610110Y-10741360D02*
X15610110Y-10811360D01*
X15575110Y-10776360D02*
X15645110Y-10776360D01*
X15612110Y-10992360D02*
X15612110Y-11062360D01*
X15577110Y-11027360D02*
X15647110Y-11027360D01*
X17138110Y-10038360D02*
X17138110Y-10108360D01*
X17103110Y-10073360D02*
X17173110Y-10073360D01*
X17140110Y-10295360D02*
X17140110Y-10365360D01*
X17105110Y-10330360D02*
X17175110Y-10330360D01*
X17285110Y-10165360D02*
X17285110Y-10235360D01*
X17250110Y-10200360D02*
X17320110Y-10200360D01*
X18660110Y-10041360D02*
X18660110Y-10111360D01*
X18625110Y-10076360D02*
X18695110Y-10076360D01*
X18662110Y-10292360D02*
X18662110Y-10362360D01*
X18627110Y-10327360D02*
X18697110Y-10327360D01*
X19820052Y-10742552D02*
X19820052Y-10682448D01*
X19759948Y-10682448D01*
X19759948Y-10742552D01*
X19820052Y-10742552D01*
X19820052Y-11227552D02*
X19820052Y-11167448D01*
X19759948Y-11167448D01*
X19759948Y-11227552D01*
X19820052Y-11227552D01*
X9980000Y-11740000D02*
X10030000Y-11690000D01*
X9980000Y-11640000D01*
X9930000Y-11690000D01*
X9980000Y-11740000D01*
X15217500Y-12597500D02*
X15267500Y-12547500D01*
X15217500Y-12497500D01*
X15167500Y-12547500D01*
X15217500Y-12597500D01*
X15217500Y-12851500D02*
X15267500Y-12801500D01*
X15217500Y-12751500D01*
X15167500Y-12801500D01*
X15217500Y-12851500D01*
X15471500Y-12597500D02*
X15521500Y-12547500D01*
X15471500Y-12497500D01*
X15421500Y-12547500D01*
X15471500Y-12597500D01*
X15471500Y-12851500D02*
X15521500Y-12801500D01*
X15471500Y-12751500D01*
X15421500Y-12801500D01*
X15471500Y-12851500D01*
X15725500Y-12597500D02*
X15775500Y-12547500D01*
X15725500Y-12497500D01*
X15675500Y-12547500D01*
X15725500Y-12597500D01*
X15725500Y-12851500D02*
X15775500Y-12801500D01*
X15725500Y-12751500D01*
X15675500Y-12801500D01*
X15725500Y-12851500D01*
D13*
X9674310Y-9839560D02*
X9775910Y-9941160D01*
X9775910Y-9839560D02*
X9674310Y-9941160D01*
X9775910Y-9890360D02*
G75*
G02*
X9674310Y-9890360I-50800J0D01*
G01*
X9674310Y-9890360D02*
G75*
G02*
X9775910Y-9890360I50800J0D01*
G01*
X9674310Y-10093560D02*
X9775910Y-10195160D01*
X9775910Y-10093560D02*
X9674310Y-10195160D01*
X9775910Y-10144360D02*
G75*
G02*
X9674310Y-10144360I-50800J0D01*
G01*
X9674310Y-10144360D02*
G75*
G02*
X9775910Y-10144360I50800J0D01*
G01*
X9674310Y-10347560D02*
X9775910Y-10449160D01*
X9775910Y-10347560D02*
X9674310Y-10449160D01*
X9775910Y-10398360D02*
G75*
G02*
X9674310Y-10398360I-50800J0D01*
G01*
X9674310Y-10398360D02*
G75*
G02*
X9775910Y-10398360I50800J0D01*
G01*
X9674310Y-10601560D02*
X9775910Y-10703160D01*
X9775910Y-10601560D02*
X9674310Y-10703160D01*
X9775910Y-10652360D02*
G75*
G02*
X9674310Y-10652360I-50800J0D01*
G01*
X9674310Y-10652360D02*
G75*
G02*
X9775910Y-10652360I50800J0D01*
G01*
X9674310Y-10855560D02*
X9775910Y-10957160D01*
X9775910Y-10855560D02*
X9674310Y-10957160D01*
X9775910Y-10906360D02*
G75*
G02*
X9674310Y-10906360I-50800J0D01*
G01*
X9674310Y-10906360D02*
G75*
G02*
X9775910Y-10906360I50800J0D01*
G01*
X9674310Y-11109560D02*
X9775910Y-11211160D01*
X9775910Y-11109560D02*
X9674310Y-11211160D01*
X9775910Y-11160360D02*
G75*
G02*
X9674310Y-11160360I-50800J0D01*
G01*
X9674310Y-11160360D02*
G75*
G02*
X9775910Y-11160360I50800J0D01*
G01*
X11241310Y-8349560D02*
X11342910Y-8451160D01*
X11342910Y-8349560D02*
X11241310Y-8451160D01*
X11342910Y-8400360D02*
G75*
G02*
X11241310Y-8400360I-50800J0D01*
G01*
X11241310Y-8400360D02*
G75*
G02*
X11342910Y-8400360I50800J0D01*
G01*
X11495310Y-8349560D02*
X11596910Y-8451160D01*
X11596910Y-8349560D02*
X11495310Y-8451160D01*
X11596910Y-8400360D02*
G75*
G02*
X11495310Y-8400360I-50800J0D01*
G01*
X11495310Y-8400360D02*
G75*
G02*
X11596910Y-8400360I50800J0D01*
G01*
X11749310Y-8349560D02*
X11850910Y-8451160D01*
X11850910Y-8349560D02*
X11749310Y-8451160D01*
X11850910Y-8400360D02*
G75*
G02*
X11749310Y-8400360I-50800J0D01*
G01*
X11749310Y-8400360D02*
G75*
G02*
X11850910Y-8400360I50800J0D01*
G01*
X12003310Y-8349560D02*
X12104910Y-8451160D01*
X12104910Y-8349560D02*
X12003310Y-8451160D01*
X12104910Y-8400360D02*
G75*
G02*
X12003310Y-8400360I-50800J0D01*
G01*
X12003310Y-8400360D02*
G75*
G02*
X12104910Y-8400360I50800J0D01*
G01*
X12257310Y-8349560D02*
X12358910Y-8451160D01*
X12358910Y-8349560D02*
X12257310Y-8451160D01*
X12358910Y-8400360D02*
G75*
G02*
X12257310Y-8400360I-50800J0D01*
G01*
X12257310Y-8400360D02*
G75*
G02*
X12358910Y-8400360I50800J0D01*
G01*
X12600200Y-10967200D02*
X12701800Y-11068800D01*
X12701800Y-10967200D02*
X12600200Y-11068800D01*
X12701800Y-11018000D02*
G75*
G02*
X12600200Y-11018000I-50800J0D01*
G01*
X12600200Y-11018000D02*
G75*
G02*
X12701800Y-11018000I50800J0D01*
G01*
X13095120Y-10967200D02*
X13196720Y-11068800D01*
X13196720Y-10967200D02*
X13095120Y-11068800D01*
X13196720Y-11018000D02*
G75*
G02*
X13095120Y-11018000I-50800J0D01*
G01*
X13095120Y-11018000D02*
G75*
G02*
X13196720Y-11018000I50800J0D01*
G01*
X13864630Y-12522840D02*
X13966230Y-12624440D01*
X13966230Y-12522840D02*
X13864630Y-12624440D01*
X13966230Y-12573640D02*
G75*
G02*
X13864630Y-12573640I-50800J0D01*
G01*
X13864630Y-12573640D02*
G75*
G02*
X13966230Y-12573640I50800J0D01*
G01*
X14118630Y-12522840D02*
X14220230Y-12624440D01*
X14220230Y-12522840D02*
X14118630Y-12624440D01*
X14220230Y-12573640D02*
G75*
G02*
X14118630Y-12573640I-50800J0D01*
G01*
X14118630Y-12573640D02*
G75*
G02*
X14220230Y-12573640I50800J0D01*
G01*
D14*
X20015000Y-10520000D02*
X20165000Y-10670000D01*
X20165000Y-10520000D02*
X20015000Y-10670000D01*
X20090000Y-10520000D02*
X20090000Y-10670000D01*
X20015000Y-10595000D02*
X20165000Y-10595000D01*
X20015000Y-11240000D02*
X20165000Y-11390000D01*
X20165000Y-11240000D02*
X20015000Y-11390000D01*
X20090000Y-11240000D02*
X20090000Y-11390000D01*
X20015000Y-11315000D02*
X20165000Y-11315000D01*
D11*
X9698387Y-13324344D02*
X9698387Y-13124344D01*
X9698387Y-13124344D02*
X9746006Y-13124344D01*
X9746006Y-13124344D02*
X9774577Y-13133868D01*
X9774577Y-13133868D02*
X9793625Y-13152915D01*
X9793625Y-13152915D02*
X9803149Y-13171963D01*
X9803149Y-13171963D02*
X9812673Y-13210058D01*
X9812673Y-13210058D02*
X9812673Y-13238629D01*
X9812673Y-13238629D02*
X9803149Y-13276725D01*
X9803149Y-13276725D02*
X9793625Y-13295772D01*
X9793625Y-13295772D02*
X9774577Y-13314820D01*
X9774577Y-13314820D02*
X9746006Y-13324344D01*
X9746006Y-13324344D02*
X9698387Y-13324344D01*
X9898387Y-13324344D02*
X9898387Y-13191010D01*
X9898387Y-13229106D02*
X9907911Y-13210058D01*
X9907911Y-13210058D02*
X9917434Y-13200534D01*
X9917434Y-13200534D02*
X9936482Y-13191010D01*
X9936482Y-13191010D02*
X9955530Y-13191010D01*
X10022196Y-13324344D02*
X10022196Y-13191010D01*
X10022196Y-13124344D02*
X10012673Y-13133868D01*
X10012673Y-13133868D02*
X10022196Y-13143391D01*
X10022196Y-13143391D02*
X10031720Y-13133868D01*
X10031720Y-13133868D02*
X10022196Y-13124344D01*
X10022196Y-13124344D02*
X10022196Y-13143391D01*
X10146006Y-13324344D02*
X10126958Y-13314820D01*
X10126958Y-13314820D02*
X10117434Y-13295772D01*
X10117434Y-13295772D02*
X10117434Y-13124344D01*
X10250768Y-13324344D02*
X10231720Y-13314820D01*
X10231720Y-13314820D02*
X10222196Y-13295772D01*
X10222196Y-13295772D02*
X10222196Y-13124344D01*
X10479339Y-13324344D02*
X10479339Y-13124344D01*
X10479339Y-13124344D02*
X10546006Y-13267201D01*
X10546006Y-13267201D02*
X10612673Y-13124344D01*
X10612673Y-13124344D02*
X10612673Y-13324344D01*
X10793625Y-13324344D02*
X10793625Y-13219582D01*
X10793625Y-13219582D02*
X10784101Y-13200534D01*
X10784101Y-13200534D02*
X10765054Y-13191010D01*
X10765054Y-13191010D02*
X10726958Y-13191010D01*
X10726958Y-13191010D02*
X10707911Y-13200534D01*
X10793625Y-13314820D02*
X10774577Y-13324344D01*
X10774577Y-13324344D02*
X10726958Y-13324344D01*
X10726958Y-13324344D02*
X10707911Y-13314820D01*
X10707911Y-13314820D02*
X10698387Y-13295772D01*
X10698387Y-13295772D02*
X10698387Y-13276725D01*
X10698387Y-13276725D02*
X10707911Y-13257677D01*
X10707911Y-13257677D02*
X10726958Y-13248153D01*
X10726958Y-13248153D02*
X10774577Y-13248153D01*
X10774577Y-13248153D02*
X10793625Y-13238629D01*
X10888863Y-13191010D02*
X10888863Y-13391010D01*
X10888863Y-13200534D02*
X10907911Y-13191010D01*
X10907911Y-13191010D02*
X10946006Y-13191010D01*
X10946006Y-13191010D02*
X10965054Y-13200534D01*
X10965054Y-13200534D02*
X10974577Y-13210058D01*
X10974577Y-13210058D02*
X10984101Y-13229106D01*
X10984101Y-13229106D02*
X10984101Y-13286248D01*
X10984101Y-13286248D02*
X10974577Y-13305296D01*
X10974577Y-13305296D02*
X10965054Y-13314820D01*
X10965054Y-13314820D02*
X10946006Y-13324344D01*
X10946006Y-13324344D02*
X10907911Y-13324344D01*
X10907911Y-13324344D02*
X10888863Y-13314820D01*
X11069815Y-13305296D02*
X11079339Y-13314820D01*
X11079339Y-13314820D02*
X11069815Y-13324344D01*
X11069815Y-13324344D02*
X11060292Y-13314820D01*
X11060292Y-13314820D02*
X11069815Y-13305296D01*
X11069815Y-13305296D02*
X11069815Y-13324344D01*
X11069815Y-13200534D02*
X11079339Y-13210058D01*
X11079339Y-13210058D02*
X11069815Y-13219582D01*
X11069815Y-13219582D02*
X11060292Y-13210058D01*
X11060292Y-13210058D02*
X11069815Y-13200534D01*
X11069815Y-13200534D02*
X11069815Y-13219582D01*
D12*
X9416610Y-13642360D02*
X9437610Y-13663360D01*
X9437610Y-13642360D02*
X9416610Y-13663360D01*
D11*
X9736482Y-13544344D02*
X9755530Y-13544344D01*
X9755530Y-13544344D02*
X9774577Y-13553868D01*
X9774577Y-13553868D02*
X9784101Y-13563391D01*
X9784101Y-13563391D02*
X9793625Y-13582439D01*
X9793625Y-13582439D02*
X9803149Y-13620534D01*
X9803149Y-13620534D02*
X9803149Y-13668153D01*
X9803149Y-13668153D02*
X9793625Y-13706248D01*
X9793625Y-13706248D02*
X9784101Y-13725296D01*
X9784101Y-13725296D02*
X9774577Y-13734820D01*
X9774577Y-13734820D02*
X9755530Y-13744344D01*
X9755530Y-13744344D02*
X9736482Y-13744344D01*
X9736482Y-13744344D02*
X9717434Y-13734820D01*
X9717434Y-13734820D02*
X9707911Y-13725296D01*
X9707911Y-13725296D02*
X9698387Y-13706248D01*
X9698387Y-13706248D02*
X9688863Y-13668153D01*
X9688863Y-13668153D02*
X9688863Y-13620534D01*
X9688863Y-13620534D02*
X9698387Y-13582439D01*
X9698387Y-13582439D02*
X9707911Y-13563391D01*
X9707911Y-13563391D02*
X9717434Y-13553868D01*
X9717434Y-13553868D02*
X9736482Y-13544344D01*
X9888863Y-13725296D02*
X9898387Y-13734820D01*
X9898387Y-13734820D02*
X9888863Y-13744344D01*
X9888863Y-13744344D02*
X9879339Y-13734820D01*
X9879339Y-13734820D02*
X9888863Y-13725296D01*
X9888863Y-13725296D02*
X9888863Y-13744344D01*
X9974577Y-13563391D02*
X9984101Y-13553868D01*
X9984101Y-13553868D02*
X10003149Y-13544344D01*
X10003149Y-13544344D02*
X10050768Y-13544344D01*
X10050768Y-13544344D02*
X10069815Y-13553868D01*
X10069815Y-13553868D02*
X10079339Y-13563391D01*
X10079339Y-13563391D02*
X10088863Y-13582439D01*
X10088863Y-13582439D02*
X10088863Y-13601487D01*
X10088863Y-13601487D02*
X10079339Y-13630058D01*
X10079339Y-13630058D02*
X9965054Y-13744344D01*
X9965054Y-13744344D02*
X10088863Y-13744344D01*
X10279339Y-13744344D02*
X10165054Y-13744344D01*
X10222196Y-13744344D02*
X10222196Y-13544344D01*
X10222196Y-13544344D02*
X10203149Y-13572915D01*
X10203149Y-13572915D02*
X10184101Y-13591963D01*
X10184101Y-13591963D02*
X10165054Y-13601487D01*
X10403149Y-13544344D02*
X10422196Y-13544344D01*
X10422196Y-13544344D02*
X10441244Y-13553868D01*
X10441244Y-13553868D02*
X10450768Y-13563391D01*
X10450768Y-13563391D02*
X10460292Y-13582439D01*
X10460292Y-13582439D02*
X10469815Y-13620534D01*
X10469815Y-13620534D02*
X10469815Y-13668153D01*
X10469815Y-13668153D02*
X10460292Y-13706248D01*
X10460292Y-13706248D02*
X10450768Y-13725296D01*
X10450768Y-13725296D02*
X10441244Y-13734820D01*
X10441244Y-13734820D02*
X10422196Y-13744344D01*
X10422196Y-13744344D02*
X10403149Y-13744344D01*
X10403149Y-13744344D02*
X10384101Y-13734820D01*
X10384101Y-13734820D02*
X10374577Y-13725296D01*
X10374577Y-13725296D02*
X10365054Y-13706248D01*
X10365054Y-13706248D02*
X10355530Y-13668153D01*
X10355530Y-13668153D02*
X10355530Y-13620534D01*
X10355530Y-13620534D02*
X10365054Y-13582439D01*
X10365054Y-13582439D02*
X10374577Y-13563391D01*
X10374577Y-13563391D02*
X10384101Y-13553868D01*
X10384101Y-13553868D02*
X10403149Y-13544344D01*
X10555530Y-13744344D02*
X10555530Y-13611010D01*
X10555530Y-13630058D02*
X10565054Y-13620534D01*
X10565054Y-13620534D02*
X10584101Y-13611010D01*
X10584101Y-13611010D02*
X10612673Y-13611010D01*
X10612673Y-13611010D02*
X10631720Y-13620534D01*
X10631720Y-13620534D02*
X10641244Y-13639582D01*
X10641244Y-13639582D02*
X10641244Y-13744344D01*
X10641244Y-13639582D02*
X10650768Y-13620534D01*
X10650768Y-13620534D02*
X10669815Y-13611010D01*
X10669815Y-13611010D02*
X10698387Y-13611010D01*
X10698387Y-13611010D02*
X10717435Y-13620534D01*
X10717435Y-13620534D02*
X10726958Y-13639582D01*
X10726958Y-13639582D02*
X10726958Y-13744344D01*
X10822196Y-13744344D02*
X10822196Y-13611010D01*
X10822196Y-13630058D02*
X10831720Y-13620534D01*
X10831720Y-13620534D02*
X10850768Y-13611010D01*
X10850768Y-13611010D02*
X10879339Y-13611010D01*
X10879339Y-13611010D02*
X10898387Y-13620534D01*
X10898387Y-13620534D02*
X10907911Y-13639582D01*
X10907911Y-13639582D02*
X10907911Y-13744344D01*
X10907911Y-13639582D02*
X10917435Y-13620534D01*
X10917435Y-13620534D02*
X10936482Y-13611010D01*
X10936482Y-13611010D02*
X10965054Y-13611010D01*
X10965054Y-13611010D02*
X10984101Y-13620534D01*
X10984101Y-13620534D02*
X10993625Y-13639582D01*
X10993625Y-13639582D02*
X10993625Y-13744344D01*
X11384101Y-13534820D02*
X11212673Y-13791963D01*
X11641244Y-13544344D02*
X11660292Y-13544344D01*
X11660292Y-13544344D02*
X11679339Y-13553868D01*
X11679339Y-13553868D02*
X11688863Y-13563391D01*
X11688863Y-13563391D02*
X11698387Y-13582439D01*
X11698387Y-13582439D02*
X11707911Y-13620534D01*
X11707911Y-13620534D02*
X11707911Y-13668153D01*
X11707911Y-13668153D02*
X11698387Y-13706248D01*
X11698387Y-13706248D02*
X11688863Y-13725296D01*
X11688863Y-13725296D02*
X11679339Y-13734820D01*
X11679339Y-13734820D02*
X11660292Y-13744344D01*
X11660292Y-13744344D02*
X11641244Y-13744344D01*
X11641244Y-13744344D02*
X11622196Y-13734820D01*
X11622196Y-13734820D02*
X11612673Y-13725296D01*
X11612673Y-13725296D02*
X11603149Y-13706248D01*
X11603149Y-13706248D02*
X11593625Y-13668153D01*
X11593625Y-13668153D02*
X11593625Y-13620534D01*
X11593625Y-13620534D02*
X11603149Y-13582439D01*
X11603149Y-13582439D02*
X11612673Y-13563391D01*
X11612673Y-13563391D02*
X11622196Y-13553868D01*
X11622196Y-13553868D02*
X11641244Y-13544344D01*
X11793625Y-13725296D02*
X11803149Y-13734820D01*
X11803149Y-13734820D02*
X11793625Y-13744344D01*
X11793625Y-13744344D02*
X11784101Y-13734820D01*
X11784101Y-13734820D02*
X11793625Y-13725296D01*
X11793625Y-13725296D02*
X11793625Y-13744344D01*
X11926958Y-13544344D02*
X11946006Y-13544344D01*
X11946006Y-13544344D02*
X11965054Y-13553868D01*
X11965054Y-13553868D02*
X11974577Y-13563391D01*
X11974577Y-13563391D02*
X11984101Y-13582439D01*
X11984101Y-13582439D02*
X11993625Y-13620534D01*
X11993625Y-13620534D02*
X11993625Y-13668153D01*
X11993625Y-13668153D02*
X11984101Y-13706248D01*
X11984101Y-13706248D02*
X11974577Y-13725296D01*
X11974577Y-13725296D02*
X11965054Y-13734820D01*
X11965054Y-13734820D02*
X11946006Y-13744344D01*
X11946006Y-13744344D02*
X11926958Y-13744344D01*
X11926958Y-13744344D02*
X11907911Y-13734820D01*
X11907911Y-13734820D02*
X11898387Y-13725296D01*
X11898387Y-13725296D02*
X11888863Y-13706248D01*
X11888863Y-13706248D02*
X11879339Y-13668153D01*
X11879339Y-13668153D02*
X11879339Y-13620534D01*
X11879339Y-13620534D02*
X11888863Y-13582439D01*
X11888863Y-13582439D02*
X11898387Y-13563391D01*
X11898387Y-13563391D02*
X11907911Y-13553868D01*
X11907911Y-13553868D02*
X11926958Y-13544344D01*
X12117435Y-13544344D02*
X12136482Y-13544344D01*
X12136482Y-13544344D02*
X12155530Y-13553868D01*
X12155530Y-13553868D02*
X12165054Y-13563391D01*
X12165054Y-13563391D02*
X12174577Y-13582439D01*
X12174577Y-13582439D02*
X12184101Y-13620534D01*
X12184101Y-13620534D02*
X12184101Y-13668153D01*
X12184101Y-13668153D02*
X12174577Y-13706248D01*
X12174577Y-13706248D02*
X12165054Y-13725296D01*
X12165054Y-13725296D02*
X12155530Y-13734820D01*
X12155530Y-13734820D02*
X12136482Y-13744344D01*
X12136482Y-13744344D02*
X12117435Y-13744344D01*
X12117435Y-13744344D02*
X12098387Y-13734820D01*
X12098387Y-13734820D02*
X12088863Y-13725296D01*
X12088863Y-13725296D02*
X12079339Y-13706248D01*
X12079339Y-13706248D02*
X12069816Y-13668153D01*
X12069816Y-13668153D02*
X12069816Y-13620534D01*
X12069816Y-13620534D02*
X12079339Y-13582439D01*
X12079339Y-13582439D02*
X12088863Y-13563391D01*
X12088863Y-13563391D02*
X12098387Y-13553868D01*
X12098387Y-13553868D02*
X12117435Y-13544344D01*
X12298387Y-13630058D02*
X12279339Y-13620534D01*
X12279339Y-13620534D02*
X12269816Y-13611010D01*
X12269816Y-13611010D02*
X12260292Y-13591963D01*
X12260292Y-13591963D02*
X12260292Y-13582439D01*
X12260292Y-13582439D02*
X12269816Y-13563391D01*
X12269816Y-13563391D02*
X12279339Y-13553868D01*
X12279339Y-13553868D02*
X12298387Y-13544344D01*
X12298387Y-13544344D02*
X12336482Y-13544344D01*
X12336482Y-13544344D02*
X12355530Y-13553868D01*
X12355530Y-13553868D02*
X12365054Y-13563391D01*
X12365054Y-13563391D02*
X12374577Y-13582439D01*
X12374577Y-13582439D02*
X12374577Y-13591963D01*
X12374577Y-13591963D02*
X12365054Y-13611010D01*
X12365054Y-13611010D02*
X12355530Y-13620534D01*
X12355530Y-13620534D02*
X12336482Y-13630058D01*
X12336482Y-13630058D02*
X12298387Y-13630058D01*
X12298387Y-13630058D02*
X12279339Y-13639582D01*
X12279339Y-13639582D02*
X12269816Y-13649106D01*
X12269816Y-13649106D02*
X12260292Y-13668153D01*
X12260292Y-13668153D02*
X12260292Y-13706248D01*
X12260292Y-13706248D02*
X12269816Y-13725296D01*
X12269816Y-13725296D02*
X12279339Y-13734820D01*
X12279339Y-13734820D02*
X12298387Y-13744344D01*
X12298387Y-13744344D02*
X12336482Y-13744344D01*
X12336482Y-13744344D02*
X12355530Y-13734820D01*
X12355530Y-13734820D02*
X12365054Y-13725296D01*
X12365054Y-13725296D02*
X12374577Y-13706248D01*
X12374577Y-13706248D02*
X12374577Y-13668153D01*
X12374577Y-13668153D02*
X12365054Y-13649106D01*
X12365054Y-13649106D02*
X12355530Y-13639582D01*
X12355530Y-13639582D02*
X12336482Y-13630058D01*
X12441244Y-13544344D02*
X12565054Y-13544344D01*
X12565054Y-13544344D02*
X12498387Y-13620534D01*
X12498387Y-13620534D02*
X12526958Y-13620534D01*
X12526958Y-13620534D02*
X12546006Y-13630058D01*
X12546006Y-13630058D02*
X12555530Y-13639582D01*
X12555530Y-13639582D02*
X12565054Y-13658629D01*
X12565054Y-13658629D02*
X12565054Y-13706248D01*
X12565054Y-13706248D02*
X12555530Y-13725296D01*
X12555530Y-13725296D02*
X12546006Y-13734820D01*
X12546006Y-13734820D02*
X12526958Y-13744344D01*
X12526958Y-13744344D02*
X12469816Y-13744344D01*
X12469816Y-13744344D02*
X12450768Y-13734820D01*
X12450768Y-13734820D02*
X12441244Y-13725296D01*
X12641244Y-13544344D02*
X12641244Y-13582439D01*
X12717435Y-13544344D02*
X12717435Y-13582439D01*
X13012673Y-13820534D02*
X13003149Y-13811010D01*
X13003149Y-13811010D02*
X12984101Y-13782439D01*
X12984101Y-13782439D02*
X12974578Y-13763391D01*
X12974578Y-13763391D02*
X12965054Y-13734820D01*
X12965054Y-13734820D02*
X12955530Y-13687201D01*
X12955530Y-13687201D02*
X12955530Y-13649106D01*
X12955530Y-13649106D02*
X12965054Y-13601487D01*
X12965054Y-13601487D02*
X12974578Y-13572915D01*
X12974578Y-13572915D02*
X12984101Y-13553868D01*
X12984101Y-13553868D02*
X13003149Y-13525296D01*
X13003149Y-13525296D02*
X13012673Y-13515772D01*
X13079339Y-13563391D02*
X13088863Y-13553868D01*
X13088863Y-13553868D02*
X13107911Y-13544344D01*
X13107911Y-13544344D02*
X13155530Y-13544344D01*
X13155530Y-13544344D02*
X13174578Y-13553868D01*
X13174578Y-13553868D02*
X13184101Y-13563391D01*
X13184101Y-13563391D02*
X13193625Y-13582439D01*
X13193625Y-13582439D02*
X13193625Y-13601487D01*
X13193625Y-13601487D02*
X13184101Y-13630058D01*
X13184101Y-13630058D02*
X13069816Y-13744344D01*
X13069816Y-13744344D02*
X13193625Y-13744344D01*
X13260292Y-13544344D02*
X13393625Y-13544344D01*
X13393625Y-13544344D02*
X13307911Y-13744344D01*
X13555530Y-13544344D02*
X13517435Y-13544344D01*
X13517435Y-13544344D02*
X13498387Y-13553868D01*
X13498387Y-13553868D02*
X13488863Y-13563391D01*
X13488863Y-13563391D02*
X13469816Y-13591963D01*
X13469816Y-13591963D02*
X13460292Y-13630058D01*
X13460292Y-13630058D02*
X13460292Y-13706248D01*
X13460292Y-13706248D02*
X13469816Y-13725296D01*
X13469816Y-13725296D02*
X13479339Y-13734820D01*
X13479339Y-13734820D02*
X13498387Y-13744344D01*
X13498387Y-13744344D02*
X13536482Y-13744344D01*
X13536482Y-13744344D02*
X13555530Y-13734820D01*
X13555530Y-13734820D02*
X13565054Y-13725296D01*
X13565054Y-13725296D02*
X13574578Y-13706248D01*
X13574578Y-13706248D02*
X13574578Y-13658629D01*
X13574578Y-13658629D02*
X13565054Y-13639582D01*
X13565054Y-13639582D02*
X13555530Y-13630058D01*
X13555530Y-13630058D02*
X13536482Y-13620534D01*
X13536482Y-13620534D02*
X13498387Y-13620534D01*
X13498387Y-13620534D02*
X13479339Y-13630058D01*
X13479339Y-13630058D02*
X13469816Y-13639582D01*
X13469816Y-13639582D02*
X13460292Y-13658629D01*
X13812673Y-13744344D02*
X13812673Y-13544344D01*
X13898387Y-13744344D02*
X13898387Y-13639582D01*
X13898387Y-13639582D02*
X13888863Y-13620534D01*
X13888863Y-13620534D02*
X13869816Y-13611010D01*
X13869816Y-13611010D02*
X13841244Y-13611010D01*
X13841244Y-13611010D02*
X13822197Y-13620534D01*
X13822197Y-13620534D02*
X13812673Y-13630058D01*
X14022197Y-13744344D02*
X14003149Y-13734820D01*
X14003149Y-13734820D02*
X13993625Y-13725296D01*
X13993625Y-13725296D02*
X13984101Y-13706248D01*
X13984101Y-13706248D02*
X13984101Y-13649106D01*
X13984101Y-13649106D02*
X13993625Y-13630058D01*
X13993625Y-13630058D02*
X14003149Y-13620534D01*
X14003149Y-13620534D02*
X14022197Y-13611010D01*
X14022197Y-13611010D02*
X14050768Y-13611010D01*
X14050768Y-13611010D02*
X14069816Y-13620534D01*
X14069816Y-13620534D02*
X14079340Y-13630058D01*
X14079340Y-13630058D02*
X14088863Y-13649106D01*
X14088863Y-13649106D02*
X14088863Y-13706248D01*
X14088863Y-13706248D02*
X14079340Y-13725296D01*
X14079340Y-13725296D02*
X14069816Y-13734820D01*
X14069816Y-13734820D02*
X14050768Y-13744344D01*
X14050768Y-13744344D02*
X14022197Y-13744344D01*
X14203149Y-13744344D02*
X14184101Y-13734820D01*
X14184101Y-13734820D02*
X14174578Y-13715772D01*
X14174578Y-13715772D02*
X14174578Y-13544344D01*
X14355530Y-13734820D02*
X14336482Y-13744344D01*
X14336482Y-13744344D02*
X14298387Y-13744344D01*
X14298387Y-13744344D02*
X14279340Y-13734820D01*
X14279340Y-13734820D02*
X14269816Y-13715772D01*
X14269816Y-13715772D02*
X14269816Y-13639582D01*
X14269816Y-13639582D02*
X14279340Y-13620534D01*
X14279340Y-13620534D02*
X14298387Y-13611010D01*
X14298387Y-13611010D02*
X14336482Y-13611010D01*
X14336482Y-13611010D02*
X14355530Y-13620534D01*
X14355530Y-13620534D02*
X14365054Y-13639582D01*
X14365054Y-13639582D02*
X14365054Y-13658629D01*
X14365054Y-13658629D02*
X14269816Y-13677677D01*
X14441244Y-13734820D02*
X14460292Y-13744344D01*
X14460292Y-13744344D02*
X14498387Y-13744344D01*
X14498387Y-13744344D02*
X14517435Y-13734820D01*
X14517435Y-13734820D02*
X14526959Y-13715772D01*
X14526959Y-13715772D02*
X14526959Y-13706248D01*
X14526959Y-13706248D02*
X14517435Y-13687201D01*
X14517435Y-13687201D02*
X14498387Y-13677677D01*
X14498387Y-13677677D02*
X14469816Y-13677677D01*
X14469816Y-13677677D02*
X14450768Y-13668153D01*
X14450768Y-13668153D02*
X14441244Y-13649106D01*
X14441244Y-13649106D02*
X14441244Y-13639582D01*
X14441244Y-13639582D02*
X14450768Y-13620534D01*
X14450768Y-13620534D02*
X14469816Y-13611010D01*
X14469816Y-13611010D02*
X14498387Y-13611010D01*
X14498387Y-13611010D02*
X14517435Y-13620534D01*
X14593625Y-13820534D02*
X14603149Y-13811010D01*
X14603149Y-13811010D02*
X14622197Y-13782439D01*
X14622197Y-13782439D02*
X14631721Y-13763391D01*
X14631721Y-13763391D02*
X14641244Y-13734820D01*
X14641244Y-13734820D02*
X14650768Y-13687201D01*
X14650768Y-13687201D02*
X14650768Y-13649106D01*
X14650768Y-13649106D02*
X14641244Y-13601487D01*
X14641244Y-13601487D02*
X14631721Y-13572915D01*
X14631721Y-13572915D02*
X14622197Y-13553868D01*
X14622197Y-13553868D02*
X14603149Y-13525296D01*
X14603149Y-13525296D02*
X14593625Y-13515772D01*
D12*
X9437610Y-13916860D02*
G75*
G02*
X9407610Y-13916860I-15000J0D01*
G01*
X9407610Y-13916860D02*
G75*
G02*
X9437610Y-13916860I15000J0D01*
G01*
D11*
X9736482Y-13808344D02*
X9755530Y-13808344D01*
X9755530Y-13808344D02*
X9774577Y-13817868D01*
X9774577Y-13817868D02*
X9784101Y-13827391D01*
X9784101Y-13827391D02*
X9793625Y-13846439D01*
X9793625Y-13846439D02*
X9803149Y-13884534D01*
X9803149Y-13884534D02*
X9803149Y-13932153D01*
X9803149Y-13932153D02*
X9793625Y-13970248D01*
X9793625Y-13970248D02*
X9784101Y-13989296D01*
X9784101Y-13989296D02*
X9774577Y-13998820D01*
X9774577Y-13998820D02*
X9755530Y-14008344D01*
X9755530Y-14008344D02*
X9736482Y-14008344D01*
X9736482Y-14008344D02*
X9717434Y-13998820D01*
X9717434Y-13998820D02*
X9707911Y-13989296D01*
X9707911Y-13989296D02*
X9698387Y-13970248D01*
X9698387Y-13970248D02*
X9688863Y-13932153D01*
X9688863Y-13932153D02*
X9688863Y-13884534D01*
X9688863Y-13884534D02*
X9698387Y-13846439D01*
X9698387Y-13846439D02*
X9707911Y-13827391D01*
X9707911Y-13827391D02*
X9717434Y-13817868D01*
X9717434Y-13817868D02*
X9736482Y-13808344D01*
X9888863Y-13989296D02*
X9898387Y-13998820D01*
X9898387Y-13998820D02*
X9888863Y-14008344D01*
X9888863Y-14008344D02*
X9879339Y-13998820D01*
X9879339Y-13998820D02*
X9888863Y-13989296D01*
X9888863Y-13989296D02*
X9888863Y-14008344D01*
X9965054Y-13808344D02*
X10088863Y-13808344D01*
X10088863Y-13808344D02*
X10022196Y-13884534D01*
X10022196Y-13884534D02*
X10050768Y-13884534D01*
X10050768Y-13884534D02*
X10069815Y-13894058D01*
X10069815Y-13894058D02*
X10079339Y-13903582D01*
X10079339Y-13903582D02*
X10088863Y-13922629D01*
X10088863Y-13922629D02*
X10088863Y-13970248D01*
X10088863Y-13970248D02*
X10079339Y-13989296D01*
X10079339Y-13989296D02*
X10069815Y-13998820D01*
X10069815Y-13998820D02*
X10050768Y-14008344D01*
X10050768Y-14008344D02*
X9993625Y-14008344D01*
X9993625Y-14008344D02*
X9974577Y-13998820D01*
X9974577Y-13998820D02*
X9965054Y-13989296D01*
X10212673Y-13808344D02*
X10231720Y-13808344D01*
X10231720Y-13808344D02*
X10250768Y-13817868D01*
X10250768Y-13817868D02*
X10260292Y-13827391D01*
X10260292Y-13827391D02*
X10269815Y-13846439D01*
X10269815Y-13846439D02*
X10279339Y-13884534D01*
X10279339Y-13884534D02*
X10279339Y-13932153D01*
X10279339Y-13932153D02*
X10269815Y-13970248D01*
X10269815Y-13970248D02*
X10260292Y-13989296D01*
X10260292Y-13989296D02*
X10250768Y-13998820D01*
X10250768Y-13998820D02*
X10231720Y-14008344D01*
X10231720Y-14008344D02*
X10212673Y-14008344D01*
X10212673Y-14008344D02*
X10193625Y-13998820D01*
X10193625Y-13998820D02*
X10184101Y-13989296D01*
X10184101Y-13989296D02*
X10174577Y-13970248D01*
X10174577Y-13970248D02*
X10165054Y-13932153D01*
X10165054Y-13932153D02*
X10165054Y-13884534D01*
X10165054Y-13884534D02*
X10174577Y-13846439D01*
X10174577Y-13846439D02*
X10184101Y-13827391D01*
X10184101Y-13827391D02*
X10193625Y-13817868D01*
X10193625Y-13817868D02*
X10212673Y-13808344D01*
X10403149Y-13808344D02*
X10422196Y-13808344D01*
X10422196Y-13808344D02*
X10441244Y-13817868D01*
X10441244Y-13817868D02*
X10450768Y-13827391D01*
X10450768Y-13827391D02*
X10460292Y-13846439D01*
X10460292Y-13846439D02*
X10469815Y-13884534D01*
X10469815Y-13884534D02*
X10469815Y-13932153D01*
X10469815Y-13932153D02*
X10460292Y-13970248D01*
X10460292Y-13970248D02*
X10450768Y-13989296D01*
X10450768Y-13989296D02*
X10441244Y-13998820D01*
X10441244Y-13998820D02*
X10422196Y-14008344D01*
X10422196Y-14008344D02*
X10403149Y-14008344D01*
X10403149Y-14008344D02*
X10384101Y-13998820D01*
X10384101Y-13998820D02*
X10374577Y-13989296D01*
X10374577Y-13989296D02*
X10365054Y-13970248D01*
X10365054Y-13970248D02*
X10355530Y-13932153D01*
X10355530Y-13932153D02*
X10355530Y-13884534D01*
X10355530Y-13884534D02*
X10365054Y-13846439D01*
X10365054Y-13846439D02*
X10374577Y-13827391D01*
X10374577Y-13827391D02*
X10384101Y-13817868D01*
X10384101Y-13817868D02*
X10403149Y-13808344D01*
X10555530Y-14008344D02*
X10555530Y-13875010D01*
X10555530Y-13894058D02*
X10565054Y-13884534D01*
X10565054Y-13884534D02*
X10584101Y-13875010D01*
X10584101Y-13875010D02*
X10612673Y-13875010D01*
X10612673Y-13875010D02*
X10631720Y-13884534D01*
X10631720Y-13884534D02*
X10641244Y-13903582D01*
X10641244Y-13903582D02*
X10641244Y-14008344D01*
X10641244Y-13903582D02*
X10650768Y-13884534D01*
X10650768Y-13884534D02*
X10669815Y-13875010D01*
X10669815Y-13875010D02*
X10698387Y-13875010D01*
X10698387Y-13875010D02*
X10717435Y-13884534D01*
X10717435Y-13884534D02*
X10726958Y-13903582D01*
X10726958Y-13903582D02*
X10726958Y-14008344D01*
X10822196Y-14008344D02*
X10822196Y-13875010D01*
X10822196Y-13894058D02*
X10831720Y-13884534D01*
X10831720Y-13884534D02*
X10850768Y-13875010D01*
X10850768Y-13875010D02*
X10879339Y-13875010D01*
X10879339Y-13875010D02*
X10898387Y-13884534D01*
X10898387Y-13884534D02*
X10907911Y-13903582D01*
X10907911Y-13903582D02*
X10907911Y-14008344D01*
X10907911Y-13903582D02*
X10917435Y-13884534D01*
X10917435Y-13884534D02*
X10936482Y-13875010D01*
X10936482Y-13875010D02*
X10965054Y-13875010D01*
X10965054Y-13875010D02*
X10984101Y-13884534D01*
X10984101Y-13884534D02*
X10993625Y-13903582D01*
X10993625Y-13903582D02*
X10993625Y-14008344D01*
X11384101Y-13798820D02*
X11212673Y-14055963D01*
X11641244Y-13808344D02*
X11660292Y-13808344D01*
X11660292Y-13808344D02*
X11679339Y-13817868D01*
X11679339Y-13817868D02*
X11688863Y-13827391D01*
X11688863Y-13827391D02*
X11698387Y-13846439D01*
X11698387Y-13846439D02*
X11707911Y-13884534D01*
X11707911Y-13884534D02*
X11707911Y-13932153D01*
X11707911Y-13932153D02*
X11698387Y-13970248D01*
X11698387Y-13970248D02*
X11688863Y-13989296D01*
X11688863Y-13989296D02*
X11679339Y-13998820D01*
X11679339Y-13998820D02*
X11660292Y-14008344D01*
X11660292Y-14008344D02*
X11641244Y-14008344D01*
X11641244Y-14008344D02*
X11622196Y-13998820D01*
X11622196Y-13998820D02*
X11612673Y-13989296D01*
X11612673Y-13989296D02*
X11603149Y-13970248D01*
X11603149Y-13970248D02*
X11593625Y-13932153D01*
X11593625Y-13932153D02*
X11593625Y-13884534D01*
X11593625Y-13884534D02*
X11603149Y-13846439D01*
X11603149Y-13846439D02*
X11612673Y-13827391D01*
X11612673Y-13827391D02*
X11622196Y-13817868D01*
X11622196Y-13817868D02*
X11641244Y-13808344D01*
X11793625Y-13989296D02*
X11803149Y-13998820D01*
X11803149Y-13998820D02*
X11793625Y-14008344D01*
X11793625Y-14008344D02*
X11784101Y-13998820D01*
X11784101Y-13998820D02*
X11793625Y-13989296D01*
X11793625Y-13989296D02*
X11793625Y-14008344D01*
X11926958Y-13808344D02*
X11946006Y-13808344D01*
X11946006Y-13808344D02*
X11965054Y-13817868D01*
X11965054Y-13817868D02*
X11974577Y-13827391D01*
X11974577Y-13827391D02*
X11984101Y-13846439D01*
X11984101Y-13846439D02*
X11993625Y-13884534D01*
X11993625Y-13884534D02*
X11993625Y-13932153D01*
X11993625Y-13932153D02*
X11984101Y-13970248D01*
X11984101Y-13970248D02*
X11974577Y-13989296D01*
X11974577Y-13989296D02*
X11965054Y-13998820D01*
X11965054Y-13998820D02*
X11946006Y-14008344D01*
X11946006Y-14008344D02*
X11926958Y-14008344D01*
X11926958Y-14008344D02*
X11907911Y-13998820D01*
X11907911Y-13998820D02*
X11898387Y-13989296D01*
X11898387Y-13989296D02*
X11888863Y-13970248D01*
X11888863Y-13970248D02*
X11879339Y-13932153D01*
X11879339Y-13932153D02*
X11879339Y-13884534D01*
X11879339Y-13884534D02*
X11888863Y-13846439D01*
X11888863Y-13846439D02*
X11898387Y-13827391D01*
X11898387Y-13827391D02*
X11907911Y-13817868D01*
X11907911Y-13817868D02*
X11926958Y-13808344D01*
X12184101Y-14008344D02*
X12069816Y-14008344D01*
X12126958Y-14008344D02*
X12126958Y-13808344D01*
X12126958Y-13808344D02*
X12107911Y-13836915D01*
X12107911Y-13836915D02*
X12088863Y-13855963D01*
X12088863Y-13855963D02*
X12069816Y-13865487D01*
X12374577Y-14008344D02*
X12260292Y-14008344D01*
X12317435Y-14008344D02*
X12317435Y-13808344D01*
X12317435Y-13808344D02*
X12298387Y-13836915D01*
X12298387Y-13836915D02*
X12279339Y-13855963D01*
X12279339Y-13855963D02*
X12260292Y-13865487D01*
X12488863Y-13894058D02*
X12469816Y-13884534D01*
X12469816Y-13884534D02*
X12460292Y-13875010D01*
X12460292Y-13875010D02*
X12450768Y-13855963D01*
X12450768Y-13855963D02*
X12450768Y-13846439D01*
X12450768Y-13846439D02*
X12460292Y-13827391D01*
X12460292Y-13827391D02*
X12469816Y-13817868D01*
X12469816Y-13817868D02*
X12488863Y-13808344D01*
X12488863Y-13808344D02*
X12526958Y-13808344D01*
X12526958Y-13808344D02*
X12546006Y-13817868D01*
X12546006Y-13817868D02*
X12555530Y-13827391D01*
X12555530Y-13827391D02*
X12565054Y-13846439D01*
X12565054Y-13846439D02*
X12565054Y-13855963D01*
X12565054Y-13855963D02*
X12555530Y-13875010D01*
X12555530Y-13875010D02*
X12546006Y-13884534D01*
X12546006Y-13884534D02*
X12526958Y-13894058D01*
X12526958Y-13894058D02*
X12488863Y-13894058D01*
X12488863Y-13894058D02*
X12469816Y-13903582D01*
X12469816Y-13903582D02*
X12460292Y-13913106D01*
X12460292Y-13913106D02*
X12450768Y-13932153D01*
X12450768Y-13932153D02*
X12450768Y-13970248D01*
X12450768Y-13970248D02*
X12460292Y-13989296D01*
X12460292Y-13989296D02*
X12469816Y-13998820D01*
X12469816Y-13998820D02*
X12488863Y-14008344D01*
X12488863Y-14008344D02*
X12526958Y-14008344D01*
X12526958Y-14008344D02*
X12546006Y-13998820D01*
X12546006Y-13998820D02*
X12555530Y-13989296D01*
X12555530Y-13989296D02*
X12565054Y-13970248D01*
X12565054Y-13970248D02*
X12565054Y-13932153D01*
X12565054Y-13932153D02*
X12555530Y-13913106D01*
X12555530Y-13913106D02*
X12546006Y-13903582D01*
X12546006Y-13903582D02*
X12526958Y-13894058D01*
X12641244Y-13808344D02*
X12641244Y-13846439D01*
X12717435Y-13808344D02*
X12717435Y-13846439D01*
X13012673Y-14084534D02*
X13003149Y-14075010D01*
X13003149Y-14075010D02*
X12984101Y-14046439D01*
X12984101Y-14046439D02*
X12974578Y-14027391D01*
X12974578Y-14027391D02*
X12965054Y-13998820D01*
X12965054Y-13998820D02*
X12955530Y-13951201D01*
X12955530Y-13951201D02*
X12955530Y-13913106D01*
X12955530Y-13913106D02*
X12965054Y-13865487D01*
X12965054Y-13865487D02*
X12974578Y-13836915D01*
X12974578Y-13836915D02*
X12984101Y-13817868D01*
X12984101Y-13817868D02*
X13003149Y-13789296D01*
X13003149Y-13789296D02*
X13012673Y-13779772D01*
X13184101Y-13808344D02*
X13088863Y-13808344D01*
X13088863Y-13808344D02*
X13079339Y-13903582D01*
X13079339Y-13903582D02*
X13088863Y-13894058D01*
X13088863Y-13894058D02*
X13107911Y-13884534D01*
X13107911Y-13884534D02*
X13155530Y-13884534D01*
X13155530Y-13884534D02*
X13174578Y-13894058D01*
X13174578Y-13894058D02*
X13184101Y-13903582D01*
X13184101Y-13903582D02*
X13193625Y-13922629D01*
X13193625Y-13922629D02*
X13193625Y-13970248D01*
X13193625Y-13970248D02*
X13184101Y-13989296D01*
X13184101Y-13989296D02*
X13174578Y-13998820D01*
X13174578Y-13998820D02*
X13155530Y-14008344D01*
X13155530Y-14008344D02*
X13107911Y-14008344D01*
X13107911Y-14008344D02*
X13088863Y-13998820D01*
X13088863Y-13998820D02*
X13079339Y-13989296D01*
X13431720Y-14008344D02*
X13431720Y-13808344D01*
X13517435Y-14008344D02*
X13517435Y-13903582D01*
X13517435Y-13903582D02*
X13507911Y-13884534D01*
X13507911Y-13884534D02*
X13488863Y-13875010D01*
X13488863Y-13875010D02*
X13460292Y-13875010D01*
X13460292Y-13875010D02*
X13441244Y-13884534D01*
X13441244Y-13884534D02*
X13431720Y-13894058D01*
X13641244Y-14008344D02*
X13622197Y-13998820D01*
X13622197Y-13998820D02*
X13612673Y-13989296D01*
X13612673Y-13989296D02*
X13603149Y-13970248D01*
X13603149Y-13970248D02*
X13603149Y-13913106D01*
X13603149Y-13913106D02*
X13612673Y-13894058D01*
X13612673Y-13894058D02*
X13622197Y-13884534D01*
X13622197Y-13884534D02*
X13641244Y-13875010D01*
X13641244Y-13875010D02*
X13669816Y-13875010D01*
X13669816Y-13875010D02*
X13688863Y-13884534D01*
X13688863Y-13884534D02*
X13698387Y-13894058D01*
X13698387Y-13894058D02*
X13707911Y-13913106D01*
X13707911Y-13913106D02*
X13707911Y-13970248D01*
X13707911Y-13970248D02*
X13698387Y-13989296D01*
X13698387Y-13989296D02*
X13688863Y-13998820D01*
X13688863Y-13998820D02*
X13669816Y-14008344D01*
X13669816Y-14008344D02*
X13641244Y-14008344D01*
X13822197Y-14008344D02*
X13803149Y-13998820D01*
X13803149Y-13998820D02*
X13793625Y-13979772D01*
X13793625Y-13979772D02*
X13793625Y-13808344D01*
X13974578Y-13998820D02*
X13955530Y-14008344D01*
X13955530Y-14008344D02*
X13917435Y-14008344D01*
X13917435Y-14008344D02*
X13898387Y-13998820D01*
X13898387Y-13998820D02*
X13888863Y-13979772D01*
X13888863Y-13979772D02*
X13888863Y-13903582D01*
X13888863Y-13903582D02*
X13898387Y-13884534D01*
X13898387Y-13884534D02*
X13917435Y-13875010D01*
X13917435Y-13875010D02*
X13955530Y-13875010D01*
X13955530Y-13875010D02*
X13974578Y-13884534D01*
X13974578Y-13884534D02*
X13984101Y-13903582D01*
X13984101Y-13903582D02*
X13984101Y-13922629D01*
X13984101Y-13922629D02*
X13888863Y-13941677D01*
X14060292Y-13998820D02*
X14079340Y-14008344D01*
X14079340Y-14008344D02*
X14117435Y-14008344D01*
X14117435Y-14008344D02*
X14136482Y-13998820D01*
X14136482Y-13998820D02*
X14146006Y-13979772D01*
X14146006Y-13979772D02*
X14146006Y-13970248D01*
X14146006Y-13970248D02*
X14136482Y-13951201D01*
X14136482Y-13951201D02*
X14117435Y-13941677D01*
X14117435Y-13941677D02*
X14088863Y-13941677D01*
X14088863Y-13941677D02*
X14069816Y-13932153D01*
X14069816Y-13932153D02*
X14060292Y-13913106D01*
X14060292Y-13913106D02*
X14060292Y-13903582D01*
X14060292Y-13903582D02*
X14069816Y-13884534D01*
X14069816Y-13884534D02*
X14088863Y-13875010D01*
X14088863Y-13875010D02*
X14117435Y-13875010D01*
X14117435Y-13875010D02*
X14136482Y-13884534D01*
X14212673Y-14084534D02*
X14222197Y-14075010D01*
X14222197Y-14075010D02*
X14241244Y-14046439D01*
X14241244Y-14046439D02*
X14250768Y-14027391D01*
X14250768Y-14027391D02*
X14260292Y-13998820D01*
X14260292Y-13998820D02*
X14269816Y-13951201D01*
X14269816Y-13951201D02*
X14269816Y-13913106D01*
X14269816Y-13913106D02*
X14260292Y-13865487D01*
X14260292Y-13865487D02*
X14250768Y-13836915D01*
X14250768Y-13836915D02*
X14241244Y-13817868D01*
X14241244Y-13817868D02*
X14222197Y-13789296D01*
X14222197Y-13789296D02*
X14212673Y-13779772D01*
D12*
X9402610Y-14145860D02*
X9402610Y-14215860D01*
X9367610Y-14180860D02*
X9437610Y-14180860D01*
D11*
X9736482Y-14072344D02*
X9755530Y-14072344D01*
X9755530Y-14072344D02*
X9774577Y-14081868D01*
X9774577Y-14081868D02*
X9784101Y-14091391D01*
X9784101Y-14091391D02*
X9793625Y-14110439D01*
X9793625Y-14110439D02*
X9803149Y-14148534D01*
X9803149Y-14148534D02*
X9803149Y-14196153D01*
X9803149Y-14196153D02*
X9793625Y-14234248D01*
X9793625Y-14234248D02*
X9784101Y-14253296D01*
X9784101Y-14253296D02*
X9774577Y-14262820D01*
X9774577Y-14262820D02*
X9755530Y-14272344D01*
X9755530Y-14272344D02*
X9736482Y-14272344D01*
X9736482Y-14272344D02*
X9717434Y-14262820D01*
X9717434Y-14262820D02*
X9707911Y-14253296D01*
X9707911Y-14253296D02*
X9698387Y-14234248D01*
X9698387Y-14234248D02*
X9688863Y-14196153D01*
X9688863Y-14196153D02*
X9688863Y-14148534D01*
X9688863Y-14148534D02*
X9698387Y-14110439D01*
X9698387Y-14110439D02*
X9707911Y-14091391D01*
X9707911Y-14091391D02*
X9717434Y-14081868D01*
X9717434Y-14081868D02*
X9736482Y-14072344D01*
X9888863Y-14253296D02*
X9898387Y-14262820D01*
X9898387Y-14262820D02*
X9888863Y-14272344D01*
X9888863Y-14272344D02*
X9879339Y-14262820D01*
X9879339Y-14262820D02*
X9888863Y-14253296D01*
X9888863Y-14253296D02*
X9888863Y-14272344D01*
X9965054Y-14072344D02*
X10098387Y-14072344D01*
X10098387Y-14072344D02*
X10012673Y-14272344D01*
X10212673Y-14072344D02*
X10231720Y-14072344D01*
X10231720Y-14072344D02*
X10250768Y-14081868D01*
X10250768Y-14081868D02*
X10260292Y-14091391D01*
X10260292Y-14091391D02*
X10269815Y-14110439D01*
X10269815Y-14110439D02*
X10279339Y-14148534D01*
X10279339Y-14148534D02*
X10279339Y-14196153D01*
X10279339Y-14196153D02*
X10269815Y-14234248D01*
X10269815Y-14234248D02*
X10260292Y-14253296D01*
X10260292Y-14253296D02*
X10250768Y-14262820D01*
X10250768Y-14262820D02*
X10231720Y-14272344D01*
X10231720Y-14272344D02*
X10212673Y-14272344D01*
X10212673Y-14272344D02*
X10193625Y-14262820D01*
X10193625Y-14262820D02*
X10184101Y-14253296D01*
X10184101Y-14253296D02*
X10174577Y-14234248D01*
X10174577Y-14234248D02*
X10165054Y-14196153D01*
X10165054Y-14196153D02*
X10165054Y-14148534D01*
X10165054Y-14148534D02*
X10174577Y-14110439D01*
X10174577Y-14110439D02*
X10184101Y-14091391D01*
X10184101Y-14091391D02*
X10193625Y-14081868D01*
X10193625Y-14081868D02*
X10212673Y-14072344D01*
X10403149Y-14072344D02*
X10422196Y-14072344D01*
X10422196Y-14072344D02*
X10441244Y-14081868D01*
X10441244Y-14081868D02*
X10450768Y-14091391D01*
X10450768Y-14091391D02*
X10460292Y-14110439D01*
X10460292Y-14110439D02*
X10469815Y-14148534D01*
X10469815Y-14148534D02*
X10469815Y-14196153D01*
X10469815Y-14196153D02*
X10460292Y-14234248D01*
X10460292Y-14234248D02*
X10450768Y-14253296D01*
X10450768Y-14253296D02*
X10441244Y-14262820D01*
X10441244Y-14262820D02*
X10422196Y-14272344D01*
X10422196Y-14272344D02*
X10403149Y-14272344D01*
X10403149Y-14272344D02*
X10384101Y-14262820D01*
X10384101Y-14262820D02*
X10374577Y-14253296D01*
X10374577Y-14253296D02*
X10365054Y-14234248D01*
X10365054Y-14234248D02*
X10355530Y-14196153D01*
X10355530Y-14196153D02*
X10355530Y-14148534D01*
X10355530Y-14148534D02*
X10365054Y-14110439D01*
X10365054Y-14110439D02*
X10374577Y-14091391D01*
X10374577Y-14091391D02*
X10384101Y-14081868D01*
X10384101Y-14081868D02*
X10403149Y-14072344D01*
X10555530Y-14272344D02*
X10555530Y-14139010D01*
X10555530Y-14158058D02*
X10565054Y-14148534D01*
X10565054Y-14148534D02*
X10584101Y-14139010D01*
X10584101Y-14139010D02*
X10612673Y-14139010D01*
X10612673Y-14139010D02*
X10631720Y-14148534D01*
X10631720Y-14148534D02*
X10641244Y-14167582D01*
X10641244Y-14167582D02*
X10641244Y-14272344D01*
X10641244Y-14167582D02*
X10650768Y-14148534D01*
X10650768Y-14148534D02*
X10669815Y-14139010D01*
X10669815Y-14139010D02*
X10698387Y-14139010D01*
X10698387Y-14139010D02*
X10717435Y-14148534D01*
X10717435Y-14148534D02*
X10726958Y-14167582D01*
X10726958Y-14167582D02*
X10726958Y-14272344D01*
X10822196Y-14272344D02*
X10822196Y-14139010D01*
X10822196Y-14158058D02*
X10831720Y-14148534D01*
X10831720Y-14148534D02*
X10850768Y-14139010D01*
X10850768Y-14139010D02*
X10879339Y-14139010D01*
X10879339Y-14139010D02*
X10898387Y-14148534D01*
X10898387Y-14148534D02*
X10907911Y-14167582D01*
X10907911Y-14167582D02*
X10907911Y-14272344D01*
X10907911Y-14167582D02*
X10917435Y-14148534D01*
X10917435Y-14148534D02*
X10936482Y-14139010D01*
X10936482Y-14139010D02*
X10965054Y-14139010D01*
X10965054Y-14139010D02*
X10984101Y-14148534D01*
X10984101Y-14148534D02*
X10993625Y-14167582D01*
X10993625Y-14167582D02*
X10993625Y-14272344D01*
X11384101Y-14062820D02*
X11212673Y-14319963D01*
X11641244Y-14072344D02*
X11660292Y-14072344D01*
X11660292Y-14072344D02*
X11679339Y-14081868D01*
X11679339Y-14081868D02*
X11688863Y-14091391D01*
X11688863Y-14091391D02*
X11698387Y-14110439D01*
X11698387Y-14110439D02*
X11707911Y-14148534D01*
X11707911Y-14148534D02*
X11707911Y-14196153D01*
X11707911Y-14196153D02*
X11698387Y-14234248D01*
X11698387Y-14234248D02*
X11688863Y-14253296D01*
X11688863Y-14253296D02*
X11679339Y-14262820D01*
X11679339Y-14262820D02*
X11660292Y-14272344D01*
X11660292Y-14272344D02*
X11641244Y-14272344D01*
X11641244Y-14272344D02*
X11622196Y-14262820D01*
X11622196Y-14262820D02*
X11612673Y-14253296D01*
X11612673Y-14253296D02*
X11603149Y-14234248D01*
X11603149Y-14234248D02*
X11593625Y-14196153D01*
X11593625Y-14196153D02*
X11593625Y-14148534D01*
X11593625Y-14148534D02*
X11603149Y-14110439D01*
X11603149Y-14110439D02*
X11612673Y-14091391D01*
X11612673Y-14091391D02*
X11622196Y-14081868D01*
X11622196Y-14081868D02*
X11641244Y-14072344D01*
X11793625Y-14253296D02*
X11803149Y-14262820D01*
X11803149Y-14262820D02*
X11793625Y-14272344D01*
X11793625Y-14272344D02*
X11784101Y-14262820D01*
X11784101Y-14262820D02*
X11793625Y-14253296D01*
X11793625Y-14253296D02*
X11793625Y-14272344D01*
X11926958Y-14072344D02*
X11946006Y-14072344D01*
X11946006Y-14072344D02*
X11965054Y-14081868D01*
X11965054Y-14081868D02*
X11974577Y-14091391D01*
X11974577Y-14091391D02*
X11984101Y-14110439D01*
X11984101Y-14110439D02*
X11993625Y-14148534D01*
X11993625Y-14148534D02*
X11993625Y-14196153D01*
X11993625Y-14196153D02*
X11984101Y-14234248D01*
X11984101Y-14234248D02*
X11974577Y-14253296D01*
X11974577Y-14253296D02*
X11965054Y-14262820D01*
X11965054Y-14262820D02*
X11946006Y-14272344D01*
X11946006Y-14272344D02*
X11926958Y-14272344D01*
X11926958Y-14272344D02*
X11907911Y-14262820D01*
X11907911Y-14262820D02*
X11898387Y-14253296D01*
X11898387Y-14253296D02*
X11888863Y-14234248D01*
X11888863Y-14234248D02*
X11879339Y-14196153D01*
X11879339Y-14196153D02*
X11879339Y-14148534D01*
X11879339Y-14148534D02*
X11888863Y-14110439D01*
X11888863Y-14110439D02*
X11898387Y-14091391D01*
X11898387Y-14091391D02*
X11907911Y-14081868D01*
X11907911Y-14081868D02*
X11926958Y-14072344D01*
X12069816Y-14091391D02*
X12079339Y-14081868D01*
X12079339Y-14081868D02*
X12098387Y-14072344D01*
X12098387Y-14072344D02*
X12146006Y-14072344D01*
X12146006Y-14072344D02*
X12165054Y-14081868D01*
X12165054Y-14081868D02*
X12174577Y-14091391D01*
X12174577Y-14091391D02*
X12184101Y-14110439D01*
X12184101Y-14110439D02*
X12184101Y-14129487D01*
X12184101Y-14129487D02*
X12174577Y-14158058D01*
X12174577Y-14158058D02*
X12060292Y-14272344D01*
X12060292Y-14272344D02*
X12184101Y-14272344D01*
X12250768Y-14072344D02*
X12384101Y-14072344D01*
X12384101Y-14072344D02*
X12298387Y-14272344D01*
X12546006Y-14072344D02*
X12507911Y-14072344D01*
X12507911Y-14072344D02*
X12488863Y-14081868D01*
X12488863Y-14081868D02*
X12479339Y-14091391D01*
X12479339Y-14091391D02*
X12460292Y-14119963D01*
X12460292Y-14119963D02*
X12450768Y-14158058D01*
X12450768Y-14158058D02*
X12450768Y-14234248D01*
X12450768Y-14234248D02*
X12460292Y-14253296D01*
X12460292Y-14253296D02*
X12469816Y-14262820D01*
X12469816Y-14262820D02*
X12488863Y-14272344D01*
X12488863Y-14272344D02*
X12526958Y-14272344D01*
X12526958Y-14272344D02*
X12546006Y-14262820D01*
X12546006Y-14262820D02*
X12555530Y-14253296D01*
X12555530Y-14253296D02*
X12565054Y-14234248D01*
X12565054Y-14234248D02*
X12565054Y-14186629D01*
X12565054Y-14186629D02*
X12555530Y-14167582D01*
X12555530Y-14167582D02*
X12546006Y-14158058D01*
X12546006Y-14158058D02*
X12526958Y-14148534D01*
X12526958Y-14148534D02*
X12488863Y-14148534D01*
X12488863Y-14148534D02*
X12469816Y-14158058D01*
X12469816Y-14158058D02*
X12460292Y-14167582D01*
X12460292Y-14167582D02*
X12450768Y-14186629D01*
X12641244Y-14072344D02*
X12641244Y-14110439D01*
X12717435Y-14072344D02*
X12717435Y-14110439D01*
X13012673Y-14348534D02*
X13003149Y-14339010D01*
X13003149Y-14339010D02*
X12984101Y-14310439D01*
X12984101Y-14310439D02*
X12974578Y-14291391D01*
X12974578Y-14291391D02*
X12965054Y-14262820D01*
X12965054Y-14262820D02*
X12955530Y-14215201D01*
X12955530Y-14215201D02*
X12955530Y-14177106D01*
X12955530Y-14177106D02*
X12965054Y-14129487D01*
X12965054Y-14129487D02*
X12974578Y-14100915D01*
X12974578Y-14100915D02*
X12984101Y-14081868D01*
X12984101Y-14081868D02*
X13003149Y-14053296D01*
X13003149Y-14053296D02*
X13012673Y-14043772D01*
X13193625Y-14272344D02*
X13079339Y-14272344D01*
X13136482Y-14272344D02*
X13136482Y-14072344D01*
X13136482Y-14072344D02*
X13117435Y-14100915D01*
X13117435Y-14100915D02*
X13098387Y-14119963D01*
X13098387Y-14119963D02*
X13079339Y-14129487D01*
X13374578Y-14072344D02*
X13279339Y-14072344D01*
X13279339Y-14072344D02*
X13269816Y-14167582D01*
X13269816Y-14167582D02*
X13279339Y-14158058D01*
X13279339Y-14158058D02*
X13298387Y-14148534D01*
X13298387Y-14148534D02*
X13346006Y-14148534D01*
X13346006Y-14148534D02*
X13365054Y-14158058D01*
X13365054Y-14158058D02*
X13374578Y-14167582D01*
X13374578Y-14167582D02*
X13384101Y-14186629D01*
X13384101Y-14186629D02*
X13384101Y-14234248D01*
X13384101Y-14234248D02*
X13374578Y-14253296D01*
X13374578Y-14253296D02*
X13365054Y-14262820D01*
X13365054Y-14262820D02*
X13346006Y-14272344D01*
X13346006Y-14272344D02*
X13298387Y-14272344D01*
X13298387Y-14272344D02*
X13279339Y-14262820D01*
X13279339Y-14262820D02*
X13269816Y-14253296D01*
X13622197Y-14272344D02*
X13622197Y-14072344D01*
X13707911Y-14272344D02*
X13707911Y-14167582D01*
X13707911Y-14167582D02*
X13698387Y-14148534D01*
X13698387Y-14148534D02*
X13679340Y-14139010D01*
X13679340Y-14139010D02*
X13650768Y-14139010D01*
X13650768Y-14139010D02*
X13631720Y-14148534D01*
X13631720Y-14148534D02*
X13622197Y-14158058D01*
X13831720Y-14272344D02*
X13812673Y-14262820D01*
X13812673Y-14262820D02*
X13803149Y-14253296D01*
X13803149Y-14253296D02*
X13793625Y-14234248D01*
X13793625Y-14234248D02*
X13793625Y-14177106D01*
X13793625Y-14177106D02*
X13803149Y-14158058D01*
X13803149Y-14158058D02*
X13812673Y-14148534D01*
X13812673Y-14148534D02*
X13831720Y-14139010D01*
X13831720Y-14139010D02*
X13860292Y-14139010D01*
X13860292Y-14139010D02*
X13879340Y-14148534D01*
X13879340Y-14148534D02*
X13888863Y-14158058D01*
X13888863Y-14158058D02*
X13898387Y-14177106D01*
X13898387Y-14177106D02*
X13898387Y-14234248D01*
X13898387Y-14234248D02*
X13888863Y-14253296D01*
X13888863Y-14253296D02*
X13879340Y-14262820D01*
X13879340Y-14262820D02*
X13860292Y-14272344D01*
X13860292Y-14272344D02*
X13831720Y-14272344D01*
X14012673Y-14272344D02*
X13993625Y-14262820D01*
X13993625Y-14262820D02*
X13984101Y-14243772D01*
X13984101Y-14243772D02*
X13984101Y-14072344D01*
X14165054Y-14262820D02*
X14146006Y-14272344D01*
X14146006Y-14272344D02*
X14107911Y-14272344D01*
X14107911Y-14272344D02*
X14088863Y-14262820D01*
X14088863Y-14262820D02*
X14079340Y-14243772D01*
X14079340Y-14243772D02*
X14079340Y-14167582D01*
X14079340Y-14167582D02*
X14088863Y-14148534D01*
X14088863Y-14148534D02*
X14107911Y-14139010D01*
X14107911Y-14139010D02*
X14146006Y-14139010D01*
X14146006Y-14139010D02*
X14165054Y-14148534D01*
X14165054Y-14148534D02*
X14174578Y-14167582D01*
X14174578Y-14167582D02*
X14174578Y-14186629D01*
X14174578Y-14186629D02*
X14079340Y-14205677D01*
X14250768Y-14262820D02*
X14269816Y-14272344D01*
X14269816Y-14272344D02*
X14307911Y-14272344D01*
X14307911Y-14272344D02*
X14326959Y-14262820D01*
X14326959Y-14262820D02*
X14336482Y-14243772D01*
X14336482Y-14243772D02*
X14336482Y-14234248D01*
X14336482Y-14234248D02*
X14326959Y-14215201D01*
X14326959Y-14215201D02*
X14307911Y-14205677D01*
X14307911Y-14205677D02*
X14279340Y-14205677D01*
X14279340Y-14205677D02*
X14260292Y-14196153D01*
X14260292Y-14196153D02*
X14250768Y-14177106D01*
X14250768Y-14177106D02*
X14250768Y-14167582D01*
X14250768Y-14167582D02*
X14260292Y-14148534D01*
X14260292Y-14148534D02*
X14279340Y-14139010D01*
X14279340Y-14139010D02*
X14307911Y-14139010D01*
X14307911Y-14139010D02*
X14326959Y-14148534D01*
X14403149Y-14348534D02*
X14412673Y-14339010D01*
X14412673Y-14339010D02*
X14431721Y-14310439D01*
X14431721Y-14310439D02*
X14441244Y-14291391D01*
X14441244Y-14291391D02*
X14450768Y-14262820D01*
X14450768Y-14262820D02*
X14460292Y-14215201D01*
X14460292Y-14215201D02*
X14460292Y-14177106D01*
X14460292Y-14177106D02*
X14450768Y-14129487D01*
X14450768Y-14129487D02*
X14441244Y-14100915D01*
X14441244Y-14100915D02*
X14431721Y-14081868D01*
X14431721Y-14081868D02*
X14412673Y-14053296D01*
X14412673Y-14053296D02*
X14403149Y-14043772D01*
D12*
X9425162Y-14474912D02*
X9425162Y-14414808D01*
X9365058Y-14414808D01*
X9365058Y-14474912D01*
X9425162Y-14474912D01*
D11*
X9736482Y-14336344D02*
X9755530Y-14336344D01*
X9755530Y-14336344D02*
X9774577Y-14345868D01*
X9774577Y-14345868D02*
X9784101Y-14355391D01*
X9784101Y-14355391D02*
X9793625Y-14374439D01*
X9793625Y-14374439D02*
X9803149Y-14412534D01*
X9803149Y-14412534D02*
X9803149Y-14460153D01*
X9803149Y-14460153D02*
X9793625Y-14498248D01*
X9793625Y-14498248D02*
X9784101Y-14517296D01*
X9784101Y-14517296D02*
X9774577Y-14526820D01*
X9774577Y-14526820D02*
X9755530Y-14536344D01*
X9755530Y-14536344D02*
X9736482Y-14536344D01*
X9736482Y-14536344D02*
X9717434Y-14526820D01*
X9717434Y-14526820D02*
X9707911Y-14517296D01*
X9707911Y-14517296D02*
X9698387Y-14498248D01*
X9698387Y-14498248D02*
X9688863Y-14460153D01*
X9688863Y-14460153D02*
X9688863Y-14412534D01*
X9688863Y-14412534D02*
X9698387Y-14374439D01*
X9698387Y-14374439D02*
X9707911Y-14355391D01*
X9707911Y-14355391D02*
X9717434Y-14345868D01*
X9717434Y-14345868D02*
X9736482Y-14336344D01*
X9888863Y-14517296D02*
X9898387Y-14526820D01*
X9898387Y-14526820D02*
X9888863Y-14536344D01*
X9888863Y-14536344D02*
X9879339Y-14526820D01*
X9879339Y-14526820D02*
X9888863Y-14517296D01*
X9888863Y-14517296D02*
X9888863Y-14536344D01*
X10012673Y-14422058D02*
X9993625Y-14412534D01*
X9993625Y-14412534D02*
X9984101Y-14403010D01*
X9984101Y-14403010D02*
X9974577Y-14383963D01*
X9974577Y-14383963D02*
X9974577Y-14374439D01*
X9974577Y-14374439D02*
X9984101Y-14355391D01*
X9984101Y-14355391D02*
X9993625Y-14345868D01*
X9993625Y-14345868D02*
X10012673Y-14336344D01*
X10012673Y-14336344D02*
X10050768Y-14336344D01*
X10050768Y-14336344D02*
X10069815Y-14345868D01*
X10069815Y-14345868D02*
X10079339Y-14355391D01*
X10079339Y-14355391D02*
X10088863Y-14374439D01*
X10088863Y-14374439D02*
X10088863Y-14383963D01*
X10088863Y-14383963D02*
X10079339Y-14403010D01*
X10079339Y-14403010D02*
X10069815Y-14412534D01*
X10069815Y-14412534D02*
X10050768Y-14422058D01*
X10050768Y-14422058D02*
X10012673Y-14422058D01*
X10012673Y-14422058D02*
X9993625Y-14431582D01*
X9993625Y-14431582D02*
X9984101Y-14441106D01*
X9984101Y-14441106D02*
X9974577Y-14460153D01*
X9974577Y-14460153D02*
X9974577Y-14498248D01*
X9974577Y-14498248D02*
X9984101Y-14517296D01*
X9984101Y-14517296D02*
X9993625Y-14526820D01*
X9993625Y-14526820D02*
X10012673Y-14536344D01*
X10012673Y-14536344D02*
X10050768Y-14536344D01*
X10050768Y-14536344D02*
X10069815Y-14526820D01*
X10069815Y-14526820D02*
X10079339Y-14517296D01*
X10079339Y-14517296D02*
X10088863Y-14498248D01*
X10088863Y-14498248D02*
X10088863Y-14460153D01*
X10088863Y-14460153D02*
X10079339Y-14441106D01*
X10079339Y-14441106D02*
X10069815Y-14431582D01*
X10069815Y-14431582D02*
X10050768Y-14422058D01*
X10269815Y-14336344D02*
X10174577Y-14336344D01*
X10174577Y-14336344D02*
X10165054Y-14431582D01*
X10165054Y-14431582D02*
X10174577Y-14422058D01*
X10174577Y-14422058D02*
X10193625Y-14412534D01*
X10193625Y-14412534D02*
X10241244Y-14412534D01*
X10241244Y-14412534D02*
X10260292Y-14422058D01*
X10260292Y-14422058D02*
X10269815Y-14431582D01*
X10269815Y-14431582D02*
X10279339Y-14450629D01*
X10279339Y-14450629D02*
X10279339Y-14498248D01*
X10279339Y-14498248D02*
X10269815Y-14517296D01*
X10269815Y-14517296D02*
X10260292Y-14526820D01*
X10260292Y-14526820D02*
X10241244Y-14536344D01*
X10241244Y-14536344D02*
X10193625Y-14536344D01*
X10193625Y-14536344D02*
X10174577Y-14526820D01*
X10174577Y-14526820D02*
X10165054Y-14517296D01*
X10403149Y-14336344D02*
X10422196Y-14336344D01*
X10422196Y-14336344D02*
X10441244Y-14345868D01*
X10441244Y-14345868D02*
X10450768Y-14355391D01*
X10450768Y-14355391D02*
X10460292Y-14374439D01*
X10460292Y-14374439D02*
X10469815Y-14412534D01*
X10469815Y-14412534D02*
X10469815Y-14460153D01*
X10469815Y-14460153D02*
X10460292Y-14498248D01*
X10460292Y-14498248D02*
X10450768Y-14517296D01*
X10450768Y-14517296D02*
X10441244Y-14526820D01*
X10441244Y-14526820D02*
X10422196Y-14536344D01*
X10422196Y-14536344D02*
X10403149Y-14536344D01*
X10403149Y-14536344D02*
X10384101Y-14526820D01*
X10384101Y-14526820D02*
X10374577Y-14517296D01*
X10374577Y-14517296D02*
X10365054Y-14498248D01*
X10365054Y-14498248D02*
X10355530Y-14460153D01*
X10355530Y-14460153D02*
X10355530Y-14412534D01*
X10355530Y-14412534D02*
X10365054Y-14374439D01*
X10365054Y-14374439D02*
X10374577Y-14355391D01*
X10374577Y-14355391D02*
X10384101Y-14345868D01*
X10384101Y-14345868D02*
X10403149Y-14336344D01*
X10555530Y-14536344D02*
X10555530Y-14403010D01*
X10555530Y-14422058D02*
X10565054Y-14412534D01*
X10565054Y-14412534D02*
X10584101Y-14403010D01*
X10584101Y-14403010D02*
X10612673Y-14403010D01*
X10612673Y-14403010D02*
X10631720Y-14412534D01*
X10631720Y-14412534D02*
X10641244Y-14431582D01*
X10641244Y-14431582D02*
X10641244Y-14536344D01*
X10641244Y-14431582D02*
X10650768Y-14412534D01*
X10650768Y-14412534D02*
X10669815Y-14403010D01*
X10669815Y-14403010D02*
X10698387Y-14403010D01*
X10698387Y-14403010D02*
X10717435Y-14412534D01*
X10717435Y-14412534D02*
X10726958Y-14431582D01*
X10726958Y-14431582D02*
X10726958Y-14536344D01*
X10822196Y-14536344D02*
X10822196Y-14403010D01*
X10822196Y-14422058D02*
X10831720Y-14412534D01*
X10831720Y-14412534D02*
X10850768Y-14403010D01*
X10850768Y-14403010D02*
X10879339Y-14403010D01*
X10879339Y-14403010D02*
X10898387Y-14412534D01*
X10898387Y-14412534D02*
X10907911Y-14431582D01*
X10907911Y-14431582D02*
X10907911Y-14536344D01*
X10907911Y-14431582D02*
X10917435Y-14412534D01*
X10917435Y-14412534D02*
X10936482Y-14403010D01*
X10936482Y-14403010D02*
X10965054Y-14403010D01*
X10965054Y-14403010D02*
X10984101Y-14412534D01*
X10984101Y-14412534D02*
X10993625Y-14431582D01*
X10993625Y-14431582D02*
X10993625Y-14536344D01*
X11384101Y-14326820D02*
X11212673Y-14583963D01*
X11641244Y-14336344D02*
X11660292Y-14336344D01*
X11660292Y-14336344D02*
X11679339Y-14345868D01*
X11679339Y-14345868D02*
X11688863Y-14355391D01*
X11688863Y-14355391D02*
X11698387Y-14374439D01*
X11698387Y-14374439D02*
X11707911Y-14412534D01*
X11707911Y-14412534D02*
X11707911Y-14460153D01*
X11707911Y-14460153D02*
X11698387Y-14498248D01*
X11698387Y-14498248D02*
X11688863Y-14517296D01*
X11688863Y-14517296D02*
X11679339Y-14526820D01*
X11679339Y-14526820D02*
X11660292Y-14536344D01*
X11660292Y-14536344D02*
X11641244Y-14536344D01*
X11641244Y-14536344D02*
X11622196Y-14526820D01*
X11622196Y-14526820D02*
X11612673Y-14517296D01*
X11612673Y-14517296D02*
X11603149Y-14498248D01*
X11603149Y-14498248D02*
X11593625Y-14460153D01*
X11593625Y-14460153D02*
X11593625Y-14412534D01*
X11593625Y-14412534D02*
X11603149Y-14374439D01*
X11603149Y-14374439D02*
X11612673Y-14355391D01*
X11612673Y-14355391D02*
X11622196Y-14345868D01*
X11622196Y-14345868D02*
X11641244Y-14336344D01*
X11793625Y-14517296D02*
X11803149Y-14526820D01*
X11803149Y-14526820D02*
X11793625Y-14536344D01*
X11793625Y-14536344D02*
X11784101Y-14526820D01*
X11784101Y-14526820D02*
X11793625Y-14517296D01*
X11793625Y-14517296D02*
X11793625Y-14536344D01*
X11926958Y-14336344D02*
X11946006Y-14336344D01*
X11946006Y-14336344D02*
X11965054Y-14345868D01*
X11965054Y-14345868D02*
X11974577Y-14355391D01*
X11974577Y-14355391D02*
X11984101Y-14374439D01*
X11984101Y-14374439D02*
X11993625Y-14412534D01*
X11993625Y-14412534D02*
X11993625Y-14460153D01*
X11993625Y-14460153D02*
X11984101Y-14498248D01*
X11984101Y-14498248D02*
X11974577Y-14517296D01*
X11974577Y-14517296D02*
X11965054Y-14526820D01*
X11965054Y-14526820D02*
X11946006Y-14536344D01*
X11946006Y-14536344D02*
X11926958Y-14536344D01*
X11926958Y-14536344D02*
X11907911Y-14526820D01*
X11907911Y-14526820D02*
X11898387Y-14517296D01*
X11898387Y-14517296D02*
X11888863Y-14498248D01*
X11888863Y-14498248D02*
X11879339Y-14460153D01*
X11879339Y-14460153D02*
X11879339Y-14412534D01*
X11879339Y-14412534D02*
X11888863Y-14374439D01*
X11888863Y-14374439D02*
X11898387Y-14355391D01*
X11898387Y-14355391D02*
X11907911Y-14345868D01*
X11907911Y-14345868D02*
X11926958Y-14336344D01*
X12060292Y-14336344D02*
X12184101Y-14336344D01*
X12184101Y-14336344D02*
X12117435Y-14412534D01*
X12117435Y-14412534D02*
X12146006Y-14412534D01*
X12146006Y-14412534D02*
X12165054Y-14422058D01*
X12165054Y-14422058D02*
X12174577Y-14431582D01*
X12174577Y-14431582D02*
X12184101Y-14450629D01*
X12184101Y-14450629D02*
X12184101Y-14498248D01*
X12184101Y-14498248D02*
X12174577Y-14517296D01*
X12174577Y-14517296D02*
X12165054Y-14526820D01*
X12165054Y-14526820D02*
X12146006Y-14536344D01*
X12146006Y-14536344D02*
X12088863Y-14536344D01*
X12088863Y-14536344D02*
X12069816Y-14526820D01*
X12069816Y-14526820D02*
X12060292Y-14517296D01*
X12250768Y-14336344D02*
X12374577Y-14336344D01*
X12374577Y-14336344D02*
X12307911Y-14412534D01*
X12307911Y-14412534D02*
X12336482Y-14412534D01*
X12336482Y-14412534D02*
X12355530Y-14422058D01*
X12355530Y-14422058D02*
X12365054Y-14431582D01*
X12365054Y-14431582D02*
X12374577Y-14450629D01*
X12374577Y-14450629D02*
X12374577Y-14498248D01*
X12374577Y-14498248D02*
X12365054Y-14517296D01*
X12365054Y-14517296D02*
X12355530Y-14526820D01*
X12355530Y-14526820D02*
X12336482Y-14536344D01*
X12336482Y-14536344D02*
X12279339Y-14536344D01*
X12279339Y-14536344D02*
X12260292Y-14526820D01*
X12260292Y-14526820D02*
X12250768Y-14517296D01*
X12555530Y-14336344D02*
X12460292Y-14336344D01*
X12460292Y-14336344D02*
X12450768Y-14431582D01*
X12450768Y-14431582D02*
X12460292Y-14422058D01*
X12460292Y-14422058D02*
X12479339Y-14412534D01*
X12479339Y-14412534D02*
X12526958Y-14412534D01*
X12526958Y-14412534D02*
X12546006Y-14422058D01*
X12546006Y-14422058D02*
X12555530Y-14431582D01*
X12555530Y-14431582D02*
X12565054Y-14450629D01*
X12565054Y-14450629D02*
X12565054Y-14498248D01*
X12565054Y-14498248D02*
X12555530Y-14517296D01*
X12555530Y-14517296D02*
X12546006Y-14526820D01*
X12546006Y-14526820D02*
X12526958Y-14536344D01*
X12526958Y-14536344D02*
X12479339Y-14536344D01*
X12479339Y-14536344D02*
X12460292Y-14526820D01*
X12460292Y-14526820D02*
X12450768Y-14517296D01*
X12641244Y-14336344D02*
X12641244Y-14374439D01*
X12717435Y-14336344D02*
X12717435Y-14374439D01*
X13012673Y-14612534D02*
X13003149Y-14603010D01*
X13003149Y-14603010D02*
X12984101Y-14574439D01*
X12984101Y-14574439D02*
X12974578Y-14555391D01*
X12974578Y-14555391D02*
X12965054Y-14526820D01*
X12965054Y-14526820D02*
X12955530Y-14479201D01*
X12955530Y-14479201D02*
X12955530Y-14441106D01*
X12955530Y-14441106D02*
X12965054Y-14393487D01*
X12965054Y-14393487D02*
X12974578Y-14364915D01*
X12974578Y-14364915D02*
X12984101Y-14345868D01*
X12984101Y-14345868D02*
X13003149Y-14317296D01*
X13003149Y-14317296D02*
X13012673Y-14307772D01*
X13079339Y-14355391D02*
X13088863Y-14345868D01*
X13088863Y-14345868D02*
X13107911Y-14336344D01*
X13107911Y-14336344D02*
X13155530Y-14336344D01*
X13155530Y-14336344D02*
X13174578Y-14345868D01*
X13174578Y-14345868D02*
X13184101Y-14355391D01*
X13184101Y-14355391D02*
X13193625Y-14374439D01*
X13193625Y-14374439D02*
X13193625Y-14393487D01*
X13193625Y-14393487D02*
X13184101Y-14422058D01*
X13184101Y-14422058D02*
X13069816Y-14536344D01*
X13069816Y-14536344D02*
X13193625Y-14536344D01*
X13431720Y-14536344D02*
X13431720Y-14336344D01*
X13517435Y-14536344D02*
X13517435Y-14431582D01*
X13517435Y-14431582D02*
X13507911Y-14412534D01*
X13507911Y-14412534D02*
X13488863Y-14403010D01*
X13488863Y-14403010D02*
X13460292Y-14403010D01*
X13460292Y-14403010D02*
X13441244Y-14412534D01*
X13441244Y-14412534D02*
X13431720Y-14422058D01*
X13641244Y-14536344D02*
X13622197Y-14526820D01*
X13622197Y-14526820D02*
X13612673Y-14517296D01*
X13612673Y-14517296D02*
X13603149Y-14498248D01*
X13603149Y-14498248D02*
X13603149Y-14441106D01*
X13603149Y-14441106D02*
X13612673Y-14422058D01*
X13612673Y-14422058D02*
X13622197Y-14412534D01*
X13622197Y-14412534D02*
X13641244Y-14403010D01*
X13641244Y-14403010D02*
X13669816Y-14403010D01*
X13669816Y-14403010D02*
X13688863Y-14412534D01*
X13688863Y-14412534D02*
X13698387Y-14422058D01*
X13698387Y-14422058D02*
X13707911Y-14441106D01*
X13707911Y-14441106D02*
X13707911Y-14498248D01*
X13707911Y-14498248D02*
X13698387Y-14517296D01*
X13698387Y-14517296D02*
X13688863Y-14526820D01*
X13688863Y-14526820D02*
X13669816Y-14536344D01*
X13669816Y-14536344D02*
X13641244Y-14536344D01*
X13822197Y-14536344D02*
X13803149Y-14526820D01*
X13803149Y-14526820D02*
X13793625Y-14507772D01*
X13793625Y-14507772D02*
X13793625Y-14336344D01*
X13974578Y-14526820D02*
X13955530Y-14536344D01*
X13955530Y-14536344D02*
X13917435Y-14536344D01*
X13917435Y-14536344D02*
X13898387Y-14526820D01*
X13898387Y-14526820D02*
X13888863Y-14507772D01*
X13888863Y-14507772D02*
X13888863Y-14431582D01*
X13888863Y-14431582D02*
X13898387Y-14412534D01*
X13898387Y-14412534D02*
X13917435Y-14403010D01*
X13917435Y-14403010D02*
X13955530Y-14403010D01*
X13955530Y-14403010D02*
X13974578Y-14412534D01*
X13974578Y-14412534D02*
X13984101Y-14431582D01*
X13984101Y-14431582D02*
X13984101Y-14450629D01*
X13984101Y-14450629D02*
X13888863Y-14469677D01*
X14060292Y-14526820D02*
X14079340Y-14536344D01*
X14079340Y-14536344D02*
X14117435Y-14536344D01*
X14117435Y-14536344D02*
X14136482Y-14526820D01*
X14136482Y-14526820D02*
X14146006Y-14507772D01*
X14146006Y-14507772D02*
X14146006Y-14498248D01*
X14146006Y-14498248D02*
X14136482Y-14479201D01*
X14136482Y-14479201D02*
X14117435Y-14469677D01*
X14117435Y-14469677D02*
X14088863Y-14469677D01*
X14088863Y-14469677D02*
X14069816Y-14460153D01*
X14069816Y-14460153D02*
X14060292Y-14441106D01*
X14060292Y-14441106D02*
X14060292Y-14431582D01*
X14060292Y-14431582D02*
X14069816Y-14412534D01*
X14069816Y-14412534D02*
X14088863Y-14403010D01*
X14088863Y-14403010D02*
X14117435Y-14403010D01*
X14117435Y-14403010D02*
X14136482Y-14412534D01*
X14212673Y-14612534D02*
X14222197Y-14603010D01*
X14222197Y-14603010D02*
X14241244Y-14574439D01*
X14241244Y-14574439D02*
X14250768Y-14555391D01*
X14250768Y-14555391D02*
X14260292Y-14526820D01*
X14260292Y-14526820D02*
X14269816Y-14479201D01*
X14269816Y-14479201D02*
X14269816Y-14441106D01*
X14269816Y-14441106D02*
X14260292Y-14393487D01*
X14260292Y-14393487D02*
X14250768Y-14364915D01*
X14250768Y-14364915D02*
X14241244Y-14345868D01*
X14241244Y-14345868D02*
X14222197Y-14317296D01*
X14222197Y-14317296D02*
X14212673Y-14307772D01*
D12*
X9387610Y-14758860D02*
X9437610Y-14708860D01*
X9387610Y-14658860D01*
X9337610Y-14708860D01*
X9387610Y-14758860D01*
D11*
X9803149Y-14800344D02*
X9688863Y-14800344D01*
X9746006Y-14800344D02*
X9746006Y-14600344D01*
X9746006Y-14600344D02*
X9726958Y-14628915D01*
X9726958Y-14628915D02*
X9707911Y-14647963D01*
X9707911Y-14647963D02*
X9688863Y-14657487D01*
X9888863Y-14781296D02*
X9898387Y-14790820D01*
X9898387Y-14790820D02*
X9888863Y-14800344D01*
X9888863Y-14800344D02*
X9879339Y-14790820D01*
X9879339Y-14790820D02*
X9888863Y-14781296D01*
X9888863Y-14781296D02*
X9888863Y-14800344D01*
X10022196Y-14600344D02*
X10041244Y-14600344D01*
X10041244Y-14600344D02*
X10060292Y-14609868D01*
X10060292Y-14609868D02*
X10069815Y-14619391D01*
X10069815Y-14619391D02*
X10079339Y-14638439D01*
X10079339Y-14638439D02*
X10088863Y-14676534D01*
X10088863Y-14676534D02*
X10088863Y-14724153D01*
X10088863Y-14724153D02*
X10079339Y-14762248D01*
X10079339Y-14762248D02*
X10069815Y-14781296D01*
X10069815Y-14781296D02*
X10060292Y-14790820D01*
X10060292Y-14790820D02*
X10041244Y-14800344D01*
X10041244Y-14800344D02*
X10022196Y-14800344D01*
X10022196Y-14800344D02*
X10003149Y-14790820D01*
X10003149Y-14790820D02*
X9993625Y-14781296D01*
X9993625Y-14781296D02*
X9984101Y-14762248D01*
X9984101Y-14762248D02*
X9974577Y-14724153D01*
X9974577Y-14724153D02*
X9974577Y-14676534D01*
X9974577Y-14676534D02*
X9984101Y-14638439D01*
X9984101Y-14638439D02*
X9993625Y-14619391D01*
X9993625Y-14619391D02*
X10003149Y-14609868D01*
X10003149Y-14609868D02*
X10022196Y-14600344D01*
X10212673Y-14600344D02*
X10231720Y-14600344D01*
X10231720Y-14600344D02*
X10250768Y-14609868D01*
X10250768Y-14609868D02*
X10260292Y-14619391D01*
X10260292Y-14619391D02*
X10269815Y-14638439D01*
X10269815Y-14638439D02*
X10279339Y-14676534D01*
X10279339Y-14676534D02*
X10279339Y-14724153D01*
X10279339Y-14724153D02*
X10269815Y-14762248D01*
X10269815Y-14762248D02*
X10260292Y-14781296D01*
X10260292Y-14781296D02*
X10250768Y-14790820D01*
X10250768Y-14790820D02*
X10231720Y-14800344D01*
X10231720Y-14800344D02*
X10212673Y-14800344D01*
X10212673Y-14800344D02*
X10193625Y-14790820D01*
X10193625Y-14790820D02*
X10184101Y-14781296D01*
X10184101Y-14781296D02*
X10174577Y-14762248D01*
X10174577Y-14762248D02*
X10165054Y-14724153D01*
X10165054Y-14724153D02*
X10165054Y-14676534D01*
X10165054Y-14676534D02*
X10174577Y-14638439D01*
X10174577Y-14638439D02*
X10184101Y-14619391D01*
X10184101Y-14619391D02*
X10193625Y-14609868D01*
X10193625Y-14609868D02*
X10212673Y-14600344D01*
X10403149Y-14600344D02*
X10422196Y-14600344D01*
X10422196Y-14600344D02*
X10441244Y-14609868D01*
X10441244Y-14609868D02*
X10450768Y-14619391D01*
X10450768Y-14619391D02*
X10460292Y-14638439D01*
X10460292Y-14638439D02*
X10469815Y-14676534D01*
X10469815Y-14676534D02*
X10469815Y-14724153D01*
X10469815Y-14724153D02*
X10460292Y-14762248D01*
X10460292Y-14762248D02*
X10450768Y-14781296D01*
X10450768Y-14781296D02*
X10441244Y-14790820D01*
X10441244Y-14790820D02*
X10422196Y-14800344D01*
X10422196Y-14800344D02*
X10403149Y-14800344D01*
X10403149Y-14800344D02*
X10384101Y-14790820D01*
X10384101Y-14790820D02*
X10374577Y-14781296D01*
X10374577Y-14781296D02*
X10365054Y-14762248D01*
X10365054Y-14762248D02*
X10355530Y-14724153D01*
X10355530Y-14724153D02*
X10355530Y-14676534D01*
X10355530Y-14676534D02*
X10365054Y-14638439D01*
X10365054Y-14638439D02*
X10374577Y-14619391D01*
X10374577Y-14619391D02*
X10384101Y-14609868D01*
X10384101Y-14609868D02*
X10403149Y-14600344D01*
X10555530Y-14800344D02*
X10555530Y-14667010D01*
X10555530Y-14686058D02*
X10565054Y-14676534D01*
X10565054Y-14676534D02*
X10584101Y-14667010D01*
X10584101Y-14667010D02*
X10612673Y-14667010D01*
X10612673Y-14667010D02*
X10631720Y-14676534D01*
X10631720Y-14676534D02*
X10641244Y-14695582D01*
X10641244Y-14695582D02*
X10641244Y-14800344D01*
X10641244Y-14695582D02*
X10650768Y-14676534D01*
X10650768Y-14676534D02*
X10669815Y-14667010D01*
X10669815Y-14667010D02*
X10698387Y-14667010D01*
X10698387Y-14667010D02*
X10717435Y-14676534D01*
X10717435Y-14676534D02*
X10726958Y-14695582D01*
X10726958Y-14695582D02*
X10726958Y-14800344D01*
X10822196Y-14800344D02*
X10822196Y-14667010D01*
X10822196Y-14686058D02*
X10831720Y-14676534D01*
X10831720Y-14676534D02*
X10850768Y-14667010D01*
X10850768Y-14667010D02*
X10879339Y-14667010D01*
X10879339Y-14667010D02*
X10898387Y-14676534D01*
X10898387Y-14676534D02*
X10907911Y-14695582D01*
X10907911Y-14695582D02*
X10907911Y-14800344D01*
X10907911Y-14695582D02*
X10917435Y-14676534D01*
X10917435Y-14676534D02*
X10936482Y-14667010D01*
X10936482Y-14667010D02*
X10965054Y-14667010D01*
X10965054Y-14667010D02*
X10984101Y-14676534D01*
X10984101Y-14676534D02*
X10993625Y-14695582D01*
X10993625Y-14695582D02*
X10993625Y-14800344D01*
X11384101Y-14590820D02*
X11212673Y-14847963D01*
X11641244Y-14600344D02*
X11660292Y-14600344D01*
X11660292Y-14600344D02*
X11679339Y-14609868D01*
X11679339Y-14609868D02*
X11688863Y-14619391D01*
X11688863Y-14619391D02*
X11698387Y-14638439D01*
X11698387Y-14638439D02*
X11707911Y-14676534D01*
X11707911Y-14676534D02*
X11707911Y-14724153D01*
X11707911Y-14724153D02*
X11698387Y-14762248D01*
X11698387Y-14762248D02*
X11688863Y-14781296D01*
X11688863Y-14781296D02*
X11679339Y-14790820D01*
X11679339Y-14790820D02*
X11660292Y-14800344D01*
X11660292Y-14800344D02*
X11641244Y-14800344D01*
X11641244Y-14800344D02*
X11622196Y-14790820D01*
X11622196Y-14790820D02*
X11612673Y-14781296D01*
X11612673Y-14781296D02*
X11603149Y-14762248D01*
X11603149Y-14762248D02*
X11593625Y-14724153D01*
X11593625Y-14724153D02*
X11593625Y-14676534D01*
X11593625Y-14676534D02*
X11603149Y-14638439D01*
X11603149Y-14638439D02*
X11612673Y-14619391D01*
X11612673Y-14619391D02*
X11622196Y-14609868D01*
X11622196Y-14609868D02*
X11641244Y-14600344D01*
X11793625Y-14781296D02*
X11803149Y-14790820D01*
X11803149Y-14790820D02*
X11793625Y-14800344D01*
X11793625Y-14800344D02*
X11784101Y-14790820D01*
X11784101Y-14790820D02*
X11793625Y-14781296D01*
X11793625Y-14781296D02*
X11793625Y-14800344D01*
X11926958Y-14600344D02*
X11946006Y-14600344D01*
X11946006Y-14600344D02*
X11965054Y-14609868D01*
X11965054Y-14609868D02*
X11974577Y-14619391D01*
X11974577Y-14619391D02*
X11984101Y-14638439D01*
X11984101Y-14638439D02*
X11993625Y-14676534D01*
X11993625Y-14676534D02*
X11993625Y-14724153D01*
X11993625Y-14724153D02*
X11984101Y-14762248D01*
X11984101Y-14762248D02*
X11974577Y-14781296D01*
X11974577Y-14781296D02*
X11965054Y-14790820D01*
X11965054Y-14790820D02*
X11946006Y-14800344D01*
X11946006Y-14800344D02*
X11926958Y-14800344D01*
X11926958Y-14800344D02*
X11907911Y-14790820D01*
X11907911Y-14790820D02*
X11898387Y-14781296D01*
X11898387Y-14781296D02*
X11888863Y-14762248D01*
X11888863Y-14762248D02*
X11879339Y-14724153D01*
X11879339Y-14724153D02*
X11879339Y-14676534D01*
X11879339Y-14676534D02*
X11888863Y-14638439D01*
X11888863Y-14638439D02*
X11898387Y-14619391D01*
X11898387Y-14619391D02*
X11907911Y-14609868D01*
X11907911Y-14609868D02*
X11926958Y-14600344D01*
X12060292Y-14600344D02*
X12184101Y-14600344D01*
X12184101Y-14600344D02*
X12117435Y-14676534D01*
X12117435Y-14676534D02*
X12146006Y-14676534D01*
X12146006Y-14676534D02*
X12165054Y-14686058D01*
X12165054Y-14686058D02*
X12174577Y-14695582D01*
X12174577Y-14695582D02*
X12184101Y-14714629D01*
X12184101Y-14714629D02*
X12184101Y-14762248D01*
X12184101Y-14762248D02*
X12174577Y-14781296D01*
X12174577Y-14781296D02*
X12165054Y-14790820D01*
X12165054Y-14790820D02*
X12146006Y-14800344D01*
X12146006Y-14800344D02*
X12088863Y-14800344D01*
X12088863Y-14800344D02*
X12069816Y-14790820D01*
X12069816Y-14790820D02*
X12060292Y-14781296D01*
X12279339Y-14800344D02*
X12317435Y-14800344D01*
X12317435Y-14800344D02*
X12336482Y-14790820D01*
X12336482Y-14790820D02*
X12346006Y-14781296D01*
X12346006Y-14781296D02*
X12365054Y-14752725D01*
X12365054Y-14752725D02*
X12374577Y-14714629D01*
X12374577Y-14714629D02*
X12374577Y-14638439D01*
X12374577Y-14638439D02*
X12365054Y-14619391D01*
X12365054Y-14619391D02*
X12355530Y-14609868D01*
X12355530Y-14609868D02*
X12336482Y-14600344D01*
X12336482Y-14600344D02*
X12298387Y-14600344D01*
X12298387Y-14600344D02*
X12279339Y-14609868D01*
X12279339Y-14609868D02*
X12269816Y-14619391D01*
X12269816Y-14619391D02*
X12260292Y-14638439D01*
X12260292Y-14638439D02*
X12260292Y-14686058D01*
X12260292Y-14686058D02*
X12269816Y-14705106D01*
X12269816Y-14705106D02*
X12279339Y-14714629D01*
X12279339Y-14714629D02*
X12298387Y-14724153D01*
X12298387Y-14724153D02*
X12336482Y-14724153D01*
X12336482Y-14724153D02*
X12355530Y-14714629D01*
X12355530Y-14714629D02*
X12365054Y-14705106D01*
X12365054Y-14705106D02*
X12374577Y-14686058D01*
X12546006Y-14667010D02*
X12546006Y-14800344D01*
X12498387Y-14590820D02*
X12450768Y-14733677D01*
X12450768Y-14733677D02*
X12574577Y-14733677D01*
X12641244Y-14600344D02*
X12641244Y-14638439D01*
X12717435Y-14600344D02*
X12717435Y-14638439D01*
X13012673Y-14876534D02*
X13003149Y-14867010D01*
X13003149Y-14867010D02*
X12984101Y-14838439D01*
X12984101Y-14838439D02*
X12974578Y-14819391D01*
X12974578Y-14819391D02*
X12965054Y-14790820D01*
X12965054Y-14790820D02*
X12955530Y-14743201D01*
X12955530Y-14743201D02*
X12955530Y-14705106D01*
X12955530Y-14705106D02*
X12965054Y-14657487D01*
X12965054Y-14657487D02*
X12974578Y-14628915D01*
X12974578Y-14628915D02*
X12984101Y-14609868D01*
X12984101Y-14609868D02*
X13003149Y-14581296D01*
X13003149Y-14581296D02*
X13012673Y-14571772D01*
X13069816Y-14600344D02*
X13203149Y-14600344D01*
X13203149Y-14600344D02*
X13117435Y-14800344D01*
X13431720Y-14800344D02*
X13431720Y-14600344D01*
X13517435Y-14800344D02*
X13517435Y-14695582D01*
X13517435Y-14695582D02*
X13507911Y-14676534D01*
X13507911Y-14676534D02*
X13488863Y-14667010D01*
X13488863Y-14667010D02*
X13460292Y-14667010D01*
X13460292Y-14667010D02*
X13441244Y-14676534D01*
X13441244Y-14676534D02*
X13431720Y-14686058D01*
X13641244Y-14800344D02*
X13622197Y-14790820D01*
X13622197Y-14790820D02*
X13612673Y-14781296D01*
X13612673Y-14781296D02*
X13603149Y-14762248D01*
X13603149Y-14762248D02*
X13603149Y-14705106D01*
X13603149Y-14705106D02*
X13612673Y-14686058D01*
X13612673Y-14686058D02*
X13622197Y-14676534D01*
X13622197Y-14676534D02*
X13641244Y-14667010D01*
X13641244Y-14667010D02*
X13669816Y-14667010D01*
X13669816Y-14667010D02*
X13688863Y-14676534D01*
X13688863Y-14676534D02*
X13698387Y-14686058D01*
X13698387Y-14686058D02*
X13707911Y-14705106D01*
X13707911Y-14705106D02*
X13707911Y-14762248D01*
X13707911Y-14762248D02*
X13698387Y-14781296D01*
X13698387Y-14781296D02*
X13688863Y-14790820D01*
X13688863Y-14790820D02*
X13669816Y-14800344D01*
X13669816Y-14800344D02*
X13641244Y-14800344D01*
X13822197Y-14800344D02*
X13803149Y-14790820D01*
X13803149Y-14790820D02*
X13793625Y-14771772D01*
X13793625Y-14771772D02*
X13793625Y-14600344D01*
X13974578Y-14790820D02*
X13955530Y-14800344D01*
X13955530Y-14800344D02*
X13917435Y-14800344D01*
X13917435Y-14800344D02*
X13898387Y-14790820D01*
X13898387Y-14790820D02*
X13888863Y-14771772D01*
X13888863Y-14771772D02*
X13888863Y-14695582D01*
X13888863Y-14695582D02*
X13898387Y-14676534D01*
X13898387Y-14676534D02*
X13917435Y-14667010D01*
X13917435Y-14667010D02*
X13955530Y-14667010D01*
X13955530Y-14667010D02*
X13974578Y-14676534D01*
X13974578Y-14676534D02*
X13984101Y-14695582D01*
X13984101Y-14695582D02*
X13984101Y-14714629D01*
X13984101Y-14714629D02*
X13888863Y-14733677D01*
X14060292Y-14790820D02*
X14079340Y-14800344D01*
X14079340Y-14800344D02*
X14117435Y-14800344D01*
X14117435Y-14800344D02*
X14136482Y-14790820D01*
X14136482Y-14790820D02*
X14146006Y-14771772D01*
X14146006Y-14771772D02*
X14146006Y-14762248D01*
X14146006Y-14762248D02*
X14136482Y-14743201D01*
X14136482Y-14743201D02*
X14117435Y-14733677D01*
X14117435Y-14733677D02*
X14088863Y-14733677D01*
X14088863Y-14733677D02*
X14069816Y-14724153D01*
X14069816Y-14724153D02*
X14060292Y-14705106D01*
X14060292Y-14705106D02*
X14060292Y-14695582D01*
X14060292Y-14695582D02*
X14069816Y-14676534D01*
X14069816Y-14676534D02*
X14088863Y-14667010D01*
X14088863Y-14667010D02*
X14117435Y-14667010D01*
X14117435Y-14667010D02*
X14136482Y-14676534D01*
X14212673Y-14876534D02*
X14222197Y-14867010D01*
X14222197Y-14867010D02*
X14241244Y-14838439D01*
X14241244Y-14838439D02*
X14250768Y-14819391D01*
X14250768Y-14819391D02*
X14260292Y-14790820D01*
X14260292Y-14790820D02*
X14269816Y-14743201D01*
X14269816Y-14743201D02*
X14269816Y-14705106D01*
X14269816Y-14705106D02*
X14260292Y-14657487D01*
X14260292Y-14657487D02*
X14250768Y-14628915D01*
X14250768Y-14628915D02*
X14241244Y-14609868D01*
X14241244Y-14609868D02*
X14222197Y-14581296D01*
X14222197Y-14581296D02*
X14212673Y-14571772D01*
D13*
X9336010Y-14922060D02*
X9437610Y-15023660D01*
X9437610Y-14922060D02*
X9336010Y-15023660D01*
X9437610Y-14972860D02*
G75*
G02*
X9336010Y-14972860I-50800J0D01*
G01*
X9336010Y-14972860D02*
G75*
G02*
X9437610Y-14972860I50800J0D01*
G01*
D11*
X9803149Y-15064344D02*
X9688863Y-15064344D01*
X9746006Y-15064344D02*
X9746006Y-14864344D01*
X9746006Y-14864344D02*
X9726958Y-14892915D01*
X9726958Y-14892915D02*
X9707911Y-14911963D01*
X9707911Y-14911963D02*
X9688863Y-14921487D01*
X9888863Y-15045296D02*
X9898387Y-15054820D01*
X9898387Y-15054820D02*
X9888863Y-15064344D01*
X9888863Y-15064344D02*
X9879339Y-15054820D01*
X9879339Y-15054820D02*
X9888863Y-15045296D01*
X9888863Y-15045296D02*
X9888863Y-15064344D01*
X10022196Y-14864344D02*
X10041244Y-14864344D01*
X10041244Y-14864344D02*
X10060292Y-14873868D01*
X10060292Y-14873868D02*
X10069815Y-14883391D01*
X10069815Y-14883391D02*
X10079339Y-14902439D01*
X10079339Y-14902439D02*
X10088863Y-14940534D01*
X10088863Y-14940534D02*
X10088863Y-14988153D01*
X10088863Y-14988153D02*
X10079339Y-15026248D01*
X10079339Y-15026248D02*
X10069815Y-15045296D01*
X10069815Y-15045296D02*
X10060292Y-15054820D01*
X10060292Y-15054820D02*
X10041244Y-15064344D01*
X10041244Y-15064344D02*
X10022196Y-15064344D01*
X10022196Y-15064344D02*
X10003149Y-15054820D01*
X10003149Y-15054820D02*
X9993625Y-15045296D01*
X9993625Y-15045296D02*
X9984101Y-15026248D01*
X9984101Y-15026248D02*
X9974577Y-14988153D01*
X9974577Y-14988153D02*
X9974577Y-14940534D01*
X9974577Y-14940534D02*
X9984101Y-14902439D01*
X9984101Y-14902439D02*
X9993625Y-14883391D01*
X9993625Y-14883391D02*
X10003149Y-14873868D01*
X10003149Y-14873868D02*
X10022196Y-14864344D01*
X10279339Y-15064344D02*
X10165054Y-15064344D01*
X10222196Y-15064344D02*
X10222196Y-14864344D01*
X10222196Y-14864344D02*
X10203149Y-14892915D01*
X10203149Y-14892915D02*
X10184101Y-14911963D01*
X10184101Y-14911963D02*
X10165054Y-14921487D01*
X10450768Y-14864344D02*
X10412673Y-14864344D01*
X10412673Y-14864344D02*
X10393625Y-14873868D01*
X10393625Y-14873868D02*
X10384101Y-14883391D01*
X10384101Y-14883391D02*
X10365054Y-14911963D01*
X10365054Y-14911963D02*
X10355530Y-14950058D01*
X10355530Y-14950058D02*
X10355530Y-15026248D01*
X10355530Y-15026248D02*
X10365054Y-15045296D01*
X10365054Y-15045296D02*
X10374577Y-15054820D01*
X10374577Y-15054820D02*
X10393625Y-15064344D01*
X10393625Y-15064344D02*
X10431720Y-15064344D01*
X10431720Y-15064344D02*
X10450768Y-15054820D01*
X10450768Y-15054820D02*
X10460292Y-15045296D01*
X10460292Y-15045296D02*
X10469815Y-15026248D01*
X10469815Y-15026248D02*
X10469815Y-14978629D01*
X10469815Y-14978629D02*
X10460292Y-14959582D01*
X10460292Y-14959582D02*
X10450768Y-14950058D01*
X10450768Y-14950058D02*
X10431720Y-14940534D01*
X10431720Y-14940534D02*
X10393625Y-14940534D01*
X10393625Y-14940534D02*
X10374577Y-14950058D01*
X10374577Y-14950058D02*
X10365054Y-14959582D01*
X10365054Y-14959582D02*
X10355530Y-14978629D01*
X10555530Y-15064344D02*
X10555530Y-14931010D01*
X10555530Y-14950058D02*
X10565054Y-14940534D01*
X10565054Y-14940534D02*
X10584101Y-14931010D01*
X10584101Y-14931010D02*
X10612673Y-14931010D01*
X10612673Y-14931010D02*
X10631720Y-14940534D01*
X10631720Y-14940534D02*
X10641244Y-14959582D01*
X10641244Y-14959582D02*
X10641244Y-15064344D01*
X10641244Y-14959582D02*
X10650768Y-14940534D01*
X10650768Y-14940534D02*
X10669815Y-14931010D01*
X10669815Y-14931010D02*
X10698387Y-14931010D01*
X10698387Y-14931010D02*
X10717435Y-14940534D01*
X10717435Y-14940534D02*
X10726958Y-14959582D01*
X10726958Y-14959582D02*
X10726958Y-15064344D01*
X10822196Y-15064344D02*
X10822196Y-14931010D01*
X10822196Y-14950058D02*
X10831720Y-14940534D01*
X10831720Y-14940534D02*
X10850768Y-14931010D01*
X10850768Y-14931010D02*
X10879339Y-14931010D01*
X10879339Y-14931010D02*
X10898387Y-14940534D01*
X10898387Y-14940534D02*
X10907911Y-14959582D01*
X10907911Y-14959582D02*
X10907911Y-15064344D01*
X10907911Y-14959582D02*
X10917435Y-14940534D01*
X10917435Y-14940534D02*
X10936482Y-14931010D01*
X10936482Y-14931010D02*
X10965054Y-14931010D01*
X10965054Y-14931010D02*
X10984101Y-14940534D01*
X10984101Y-14940534D02*
X10993625Y-14959582D01*
X10993625Y-14959582D02*
X10993625Y-15064344D01*
X11384101Y-14854820D02*
X11212673Y-15111963D01*
X11641244Y-14864344D02*
X11660292Y-14864344D01*
X11660292Y-14864344D02*
X11679339Y-14873868D01*
X11679339Y-14873868D02*
X11688863Y-14883391D01*
X11688863Y-14883391D02*
X11698387Y-14902439D01*
X11698387Y-14902439D02*
X11707911Y-14940534D01*
X11707911Y-14940534D02*
X11707911Y-14988153D01*
X11707911Y-14988153D02*
X11698387Y-15026248D01*
X11698387Y-15026248D02*
X11688863Y-15045296D01*
X11688863Y-15045296D02*
X11679339Y-15054820D01*
X11679339Y-15054820D02*
X11660292Y-15064344D01*
X11660292Y-15064344D02*
X11641244Y-15064344D01*
X11641244Y-15064344D02*
X11622196Y-15054820D01*
X11622196Y-15054820D02*
X11612673Y-15045296D01*
X11612673Y-15045296D02*
X11603149Y-15026248D01*
X11603149Y-15026248D02*
X11593625Y-14988153D01*
X11593625Y-14988153D02*
X11593625Y-14940534D01*
X11593625Y-14940534D02*
X11603149Y-14902439D01*
X11603149Y-14902439D02*
X11612673Y-14883391D01*
X11612673Y-14883391D02*
X11622196Y-14873868D01*
X11622196Y-14873868D02*
X11641244Y-14864344D01*
X11793625Y-15045296D02*
X11803149Y-15054820D01*
X11803149Y-15054820D02*
X11793625Y-15064344D01*
X11793625Y-15064344D02*
X11784101Y-15054820D01*
X11784101Y-15054820D02*
X11793625Y-15045296D01*
X11793625Y-15045296D02*
X11793625Y-15064344D01*
X11926958Y-14864344D02*
X11946006Y-14864344D01*
X11946006Y-14864344D02*
X11965054Y-14873868D01*
X11965054Y-14873868D02*
X11974577Y-14883391D01*
X11974577Y-14883391D02*
X11984101Y-14902439D01*
X11984101Y-14902439D02*
X11993625Y-14940534D01*
X11993625Y-14940534D02*
X11993625Y-14988153D01*
X11993625Y-14988153D02*
X11984101Y-15026248D01*
X11984101Y-15026248D02*
X11974577Y-15045296D01*
X11974577Y-15045296D02*
X11965054Y-15054820D01*
X11965054Y-15054820D02*
X11946006Y-15064344D01*
X11946006Y-15064344D02*
X11926958Y-15064344D01*
X11926958Y-15064344D02*
X11907911Y-15054820D01*
X11907911Y-15054820D02*
X11898387Y-15045296D01*
X11898387Y-15045296D02*
X11888863Y-15026248D01*
X11888863Y-15026248D02*
X11879339Y-14988153D01*
X11879339Y-14988153D02*
X11879339Y-14940534D01*
X11879339Y-14940534D02*
X11888863Y-14902439D01*
X11888863Y-14902439D02*
X11898387Y-14883391D01*
X11898387Y-14883391D02*
X11907911Y-14873868D01*
X11907911Y-14873868D02*
X11926958Y-14864344D01*
X12165054Y-14931010D02*
X12165054Y-15064344D01*
X12117435Y-14854820D02*
X12069816Y-14997677D01*
X12069816Y-14997677D02*
X12193625Y-14997677D01*
X12307911Y-14864344D02*
X12326958Y-14864344D01*
X12326958Y-14864344D02*
X12346006Y-14873868D01*
X12346006Y-14873868D02*
X12355530Y-14883391D01*
X12355530Y-14883391D02*
X12365054Y-14902439D01*
X12365054Y-14902439D02*
X12374577Y-14940534D01*
X12374577Y-14940534D02*
X12374577Y-14988153D01*
X12374577Y-14988153D02*
X12365054Y-15026248D01*
X12365054Y-15026248D02*
X12355530Y-15045296D01*
X12355530Y-15045296D02*
X12346006Y-15054820D01*
X12346006Y-15054820D02*
X12326958Y-15064344D01*
X12326958Y-15064344D02*
X12307911Y-15064344D01*
X12307911Y-15064344D02*
X12288863Y-15054820D01*
X12288863Y-15054820D02*
X12279339Y-15045296D01*
X12279339Y-15045296D02*
X12269816Y-15026248D01*
X12269816Y-15026248D02*
X12260292Y-14988153D01*
X12260292Y-14988153D02*
X12260292Y-14940534D01*
X12260292Y-14940534D02*
X12269816Y-14902439D01*
X12269816Y-14902439D02*
X12279339Y-14883391D01*
X12279339Y-14883391D02*
X12288863Y-14873868D01*
X12288863Y-14873868D02*
X12307911Y-14864344D01*
X12498387Y-14864344D02*
X12517435Y-14864344D01*
X12517435Y-14864344D02*
X12536482Y-14873868D01*
X12536482Y-14873868D02*
X12546006Y-14883391D01*
X12546006Y-14883391D02*
X12555530Y-14902439D01*
X12555530Y-14902439D02*
X12565054Y-14940534D01*
X12565054Y-14940534D02*
X12565054Y-14988153D01*
X12565054Y-14988153D02*
X12555530Y-15026248D01*
X12555530Y-15026248D02*
X12546006Y-15045296D01*
X12546006Y-15045296D02*
X12536482Y-15054820D01*
X12536482Y-15054820D02*
X12517435Y-15064344D01*
X12517435Y-15064344D02*
X12498387Y-15064344D01*
X12498387Y-15064344D02*
X12479339Y-15054820D01*
X12479339Y-15054820D02*
X12469816Y-15045296D01*
X12469816Y-15045296D02*
X12460292Y-15026248D01*
X12460292Y-15026248D02*
X12450768Y-14988153D01*
X12450768Y-14988153D02*
X12450768Y-14940534D01*
X12450768Y-14940534D02*
X12460292Y-14902439D01*
X12460292Y-14902439D02*
X12469816Y-14883391D01*
X12469816Y-14883391D02*
X12479339Y-14873868D01*
X12479339Y-14873868D02*
X12498387Y-14864344D01*
X12641244Y-14864344D02*
X12641244Y-14902439D01*
X12717435Y-14864344D02*
X12717435Y-14902439D01*
X13012673Y-15140534D02*
X13003149Y-15131010D01*
X13003149Y-15131010D02*
X12984101Y-15102439D01*
X12984101Y-15102439D02*
X12974578Y-15083391D01*
X12974578Y-15083391D02*
X12965054Y-15054820D01*
X12965054Y-15054820D02*
X12955530Y-15007201D01*
X12955530Y-15007201D02*
X12955530Y-14969106D01*
X12955530Y-14969106D02*
X12965054Y-14921487D01*
X12965054Y-14921487D02*
X12974578Y-14892915D01*
X12974578Y-14892915D02*
X12984101Y-14873868D01*
X12984101Y-14873868D02*
X13003149Y-14845296D01*
X13003149Y-14845296D02*
X13012673Y-14835772D01*
X13193625Y-15064344D02*
X13079339Y-15064344D01*
X13136482Y-15064344D02*
X13136482Y-14864344D01*
X13136482Y-14864344D02*
X13117435Y-14892915D01*
X13117435Y-14892915D02*
X13098387Y-14911963D01*
X13098387Y-14911963D02*
X13079339Y-14921487D01*
X13374578Y-14864344D02*
X13279339Y-14864344D01*
X13279339Y-14864344D02*
X13269816Y-14959582D01*
X13269816Y-14959582D02*
X13279339Y-14950058D01*
X13279339Y-14950058D02*
X13298387Y-14940534D01*
X13298387Y-14940534D02*
X13346006Y-14940534D01*
X13346006Y-14940534D02*
X13365054Y-14950058D01*
X13365054Y-14950058D02*
X13374578Y-14959582D01*
X13374578Y-14959582D02*
X13384101Y-14978629D01*
X13384101Y-14978629D02*
X13384101Y-15026248D01*
X13384101Y-15026248D02*
X13374578Y-15045296D01*
X13374578Y-15045296D02*
X13365054Y-15054820D01*
X13365054Y-15054820D02*
X13346006Y-15064344D01*
X13346006Y-15064344D02*
X13298387Y-15064344D01*
X13298387Y-15064344D02*
X13279339Y-15054820D01*
X13279339Y-15054820D02*
X13269816Y-15045296D01*
X13622197Y-15064344D02*
X13622197Y-14864344D01*
X13707911Y-15064344D02*
X13707911Y-14959582D01*
X13707911Y-14959582D02*
X13698387Y-14940534D01*
X13698387Y-14940534D02*
X13679340Y-14931010D01*
X13679340Y-14931010D02*
X13650768Y-14931010D01*
X13650768Y-14931010D02*
X13631720Y-14940534D01*
X13631720Y-14940534D02*
X13622197Y-14950058D01*
X13831720Y-15064344D02*
X13812673Y-15054820D01*
X13812673Y-15054820D02*
X13803149Y-15045296D01*
X13803149Y-15045296D02*
X13793625Y-15026248D01*
X13793625Y-15026248D02*
X13793625Y-14969106D01*
X13793625Y-14969106D02*
X13803149Y-14950058D01*
X13803149Y-14950058D02*
X13812673Y-14940534D01*
X13812673Y-14940534D02*
X13831720Y-14931010D01*
X13831720Y-14931010D02*
X13860292Y-14931010D01*
X13860292Y-14931010D02*
X13879340Y-14940534D01*
X13879340Y-14940534D02*
X13888863Y-14950058D01*
X13888863Y-14950058D02*
X13898387Y-14969106D01*
X13898387Y-14969106D02*
X13898387Y-15026248D01*
X13898387Y-15026248D02*
X13888863Y-15045296D01*
X13888863Y-15045296D02*
X13879340Y-15054820D01*
X13879340Y-15054820D02*
X13860292Y-15064344D01*
X13860292Y-15064344D02*
X13831720Y-15064344D01*
X14012673Y-15064344D02*
X13993625Y-15054820D01*
X13993625Y-15054820D02*
X13984101Y-15035772D01*
X13984101Y-15035772D02*
X13984101Y-14864344D01*
X14165054Y-15054820D02*
X14146006Y-15064344D01*
X14146006Y-15064344D02*
X14107911Y-15064344D01*
X14107911Y-15064344D02*
X14088863Y-15054820D01*
X14088863Y-15054820D02*
X14079340Y-15035772D01*
X14079340Y-15035772D02*
X14079340Y-14959582D01*
X14079340Y-14959582D02*
X14088863Y-14940534D01*
X14088863Y-14940534D02*
X14107911Y-14931010D01*
X14107911Y-14931010D02*
X14146006Y-14931010D01*
X14146006Y-14931010D02*
X14165054Y-14940534D01*
X14165054Y-14940534D02*
X14174578Y-14959582D01*
X14174578Y-14959582D02*
X14174578Y-14978629D01*
X14174578Y-14978629D02*
X14079340Y-14997677D01*
X14250768Y-15054820D02*
X14269816Y-15064344D01*
X14269816Y-15064344D02*
X14307911Y-15064344D01*
X14307911Y-15064344D02*
X14326959Y-15054820D01*
X14326959Y-15054820D02*
X14336482Y-15035772D01*
X14336482Y-15035772D02*
X14336482Y-15026248D01*
X14336482Y-15026248D02*
X14326959Y-15007201D01*
X14326959Y-15007201D02*
X14307911Y-14997677D01*
X14307911Y-14997677D02*
X14279340Y-14997677D01*
X14279340Y-14997677D02*
X14260292Y-14988153D01*
X14260292Y-14988153D02*
X14250768Y-14969106D01*
X14250768Y-14969106D02*
X14250768Y-14959582D01*
X14250768Y-14959582D02*
X14260292Y-14940534D01*
X14260292Y-14940534D02*
X14279340Y-14931010D01*
X14279340Y-14931010D02*
X14307911Y-14931010D01*
X14307911Y-14931010D02*
X14326959Y-14940534D01*
X14403149Y-15140534D02*
X14412673Y-15131010D01*
X14412673Y-15131010D02*
X14431721Y-15102439D01*
X14431721Y-15102439D02*
X14441244Y-15083391D01*
X14441244Y-15083391D02*
X14450768Y-15054820D01*
X14450768Y-15054820D02*
X14460292Y-15007201D01*
X14460292Y-15007201D02*
X14460292Y-14969106D01*
X14460292Y-14969106D02*
X14450768Y-14921487D01*
X14450768Y-14921487D02*
X14441244Y-14892915D01*
X14441244Y-14892915D02*
X14431721Y-14873868D01*
X14431721Y-14873868D02*
X14412673Y-14845296D01*
X14412673Y-14845296D02*
X14403149Y-14835772D01*
D14*
X9287610Y-15161860D02*
X9437610Y-15311860D01*
X9437610Y-15161860D02*
X9287610Y-15311860D01*
X9362610Y-15161860D02*
X9362610Y-15311860D01*
X9287610Y-15236860D02*
X9437610Y-15236860D01*
D11*
X9803149Y-15328344D02*
X9688863Y-15328344D01*
X9746006Y-15328344D02*
X9746006Y-15128344D01*
X9746006Y-15128344D02*
X9726958Y-15156915D01*
X9726958Y-15156915D02*
X9707911Y-15175963D01*
X9707911Y-15175963D02*
X9688863Y-15185487D01*
X9888863Y-15309296D02*
X9898387Y-15318820D01*
X9898387Y-15318820D02*
X9888863Y-15328344D01*
X9888863Y-15328344D02*
X9879339Y-15318820D01*
X9879339Y-15318820D02*
X9888863Y-15309296D01*
X9888863Y-15309296D02*
X9888863Y-15328344D01*
X10079339Y-15128344D02*
X9984101Y-15128344D01*
X9984101Y-15128344D02*
X9974577Y-15223582D01*
X9974577Y-15223582D02*
X9984101Y-15214058D01*
X9984101Y-15214058D02*
X10003149Y-15204534D01*
X10003149Y-15204534D02*
X10050768Y-15204534D01*
X10050768Y-15204534D02*
X10069815Y-15214058D01*
X10069815Y-15214058D02*
X10079339Y-15223582D01*
X10079339Y-15223582D02*
X10088863Y-15242629D01*
X10088863Y-15242629D02*
X10088863Y-15290248D01*
X10088863Y-15290248D02*
X10079339Y-15309296D01*
X10079339Y-15309296D02*
X10069815Y-15318820D01*
X10069815Y-15318820D02*
X10050768Y-15328344D01*
X10050768Y-15328344D02*
X10003149Y-15328344D01*
X10003149Y-15328344D02*
X9984101Y-15318820D01*
X9984101Y-15318820D02*
X9974577Y-15309296D01*
X10212673Y-15128344D02*
X10231720Y-15128344D01*
X10231720Y-15128344D02*
X10250768Y-15137868D01*
X10250768Y-15137868D02*
X10260292Y-15147391D01*
X10260292Y-15147391D02*
X10269815Y-15166439D01*
X10269815Y-15166439D02*
X10279339Y-15204534D01*
X10279339Y-15204534D02*
X10279339Y-15252153D01*
X10279339Y-15252153D02*
X10269815Y-15290248D01*
X10269815Y-15290248D02*
X10260292Y-15309296D01*
X10260292Y-15309296D02*
X10250768Y-15318820D01*
X10250768Y-15318820D02*
X10231720Y-15328344D01*
X10231720Y-15328344D02*
X10212673Y-15328344D01*
X10212673Y-15328344D02*
X10193625Y-15318820D01*
X10193625Y-15318820D02*
X10184101Y-15309296D01*
X10184101Y-15309296D02*
X10174577Y-15290248D01*
X10174577Y-15290248D02*
X10165054Y-15252153D01*
X10165054Y-15252153D02*
X10165054Y-15204534D01*
X10165054Y-15204534D02*
X10174577Y-15166439D01*
X10174577Y-15166439D02*
X10184101Y-15147391D01*
X10184101Y-15147391D02*
X10193625Y-15137868D01*
X10193625Y-15137868D02*
X10212673Y-15128344D01*
X10403149Y-15128344D02*
X10422196Y-15128344D01*
X10422196Y-15128344D02*
X10441244Y-15137868D01*
X10441244Y-15137868D02*
X10450768Y-15147391D01*
X10450768Y-15147391D02*
X10460292Y-15166439D01*
X10460292Y-15166439D02*
X10469815Y-15204534D01*
X10469815Y-15204534D02*
X10469815Y-15252153D01*
X10469815Y-15252153D02*
X10460292Y-15290248D01*
X10460292Y-15290248D02*
X10450768Y-15309296D01*
X10450768Y-15309296D02*
X10441244Y-15318820D01*
X10441244Y-15318820D02*
X10422196Y-15328344D01*
X10422196Y-15328344D02*
X10403149Y-15328344D01*
X10403149Y-15328344D02*
X10384101Y-15318820D01*
X10384101Y-15318820D02*
X10374577Y-15309296D01*
X10374577Y-15309296D02*
X10365054Y-15290248D01*
X10365054Y-15290248D02*
X10355530Y-15252153D01*
X10355530Y-15252153D02*
X10355530Y-15204534D01*
X10355530Y-15204534D02*
X10365054Y-15166439D01*
X10365054Y-15166439D02*
X10374577Y-15147391D01*
X10374577Y-15147391D02*
X10384101Y-15137868D01*
X10384101Y-15137868D02*
X10403149Y-15128344D01*
X10555530Y-15328344D02*
X10555530Y-15195010D01*
X10555530Y-15214058D02*
X10565054Y-15204534D01*
X10565054Y-15204534D02*
X10584101Y-15195010D01*
X10584101Y-15195010D02*
X10612673Y-15195010D01*
X10612673Y-15195010D02*
X10631720Y-15204534D01*
X10631720Y-15204534D02*
X10641244Y-15223582D01*
X10641244Y-15223582D02*
X10641244Y-15328344D01*
X10641244Y-15223582D02*
X10650768Y-15204534D01*
X10650768Y-15204534D02*
X10669815Y-15195010D01*
X10669815Y-15195010D02*
X10698387Y-15195010D01*
X10698387Y-15195010D02*
X10717435Y-15204534D01*
X10717435Y-15204534D02*
X10726958Y-15223582D01*
X10726958Y-15223582D02*
X10726958Y-15328344D01*
X10822196Y-15328344D02*
X10822196Y-15195010D01*
X10822196Y-15214058D02*
X10831720Y-15204534D01*
X10831720Y-15204534D02*
X10850768Y-15195010D01*
X10850768Y-15195010D02*
X10879339Y-15195010D01*
X10879339Y-15195010D02*
X10898387Y-15204534D01*
X10898387Y-15204534D02*
X10907911Y-15223582D01*
X10907911Y-15223582D02*
X10907911Y-15328344D01*
X10907911Y-15223582D02*
X10917435Y-15204534D01*
X10917435Y-15204534D02*
X10936482Y-15195010D01*
X10936482Y-15195010D02*
X10965054Y-15195010D01*
X10965054Y-15195010D02*
X10984101Y-15204534D01*
X10984101Y-15204534D02*
X10993625Y-15223582D01*
X10993625Y-15223582D02*
X10993625Y-15328344D01*
X11384101Y-15118820D02*
X11212673Y-15375963D01*
X11641244Y-15128344D02*
X11660292Y-15128344D01*
X11660292Y-15128344D02*
X11679339Y-15137868D01*
X11679339Y-15137868D02*
X11688863Y-15147391D01*
X11688863Y-15147391D02*
X11698387Y-15166439D01*
X11698387Y-15166439D02*
X11707911Y-15204534D01*
X11707911Y-15204534D02*
X11707911Y-15252153D01*
X11707911Y-15252153D02*
X11698387Y-15290248D01*
X11698387Y-15290248D02*
X11688863Y-15309296D01*
X11688863Y-15309296D02*
X11679339Y-15318820D01*
X11679339Y-15318820D02*
X11660292Y-15328344D01*
X11660292Y-15328344D02*
X11641244Y-15328344D01*
X11641244Y-15328344D02*
X11622196Y-15318820D01*
X11622196Y-15318820D02*
X11612673Y-15309296D01*
X11612673Y-15309296D02*
X11603149Y-15290248D01*
X11603149Y-15290248D02*
X11593625Y-15252153D01*
X11593625Y-15252153D02*
X11593625Y-15204534D01*
X11593625Y-15204534D02*
X11603149Y-15166439D01*
X11603149Y-15166439D02*
X11612673Y-15147391D01*
X11612673Y-15147391D02*
X11622196Y-15137868D01*
X11622196Y-15137868D02*
X11641244Y-15128344D01*
X11793625Y-15309296D02*
X11803149Y-15318820D01*
X11803149Y-15318820D02*
X11793625Y-15328344D01*
X11793625Y-15328344D02*
X11784101Y-15318820D01*
X11784101Y-15318820D02*
X11793625Y-15309296D01*
X11793625Y-15309296D02*
X11793625Y-15328344D01*
X11926958Y-15128344D02*
X11946006Y-15128344D01*
X11946006Y-15128344D02*
X11965054Y-15137868D01*
X11965054Y-15137868D02*
X11974577Y-15147391D01*
X11974577Y-15147391D02*
X11984101Y-15166439D01*
X11984101Y-15166439D02*
X11993625Y-15204534D01*
X11993625Y-15204534D02*
X11993625Y-15252153D01*
X11993625Y-15252153D02*
X11984101Y-15290248D01*
X11984101Y-15290248D02*
X11974577Y-15309296D01*
X11974577Y-15309296D02*
X11965054Y-15318820D01*
X11965054Y-15318820D02*
X11946006Y-15328344D01*
X11946006Y-15328344D02*
X11926958Y-15328344D01*
X11926958Y-15328344D02*
X11907911Y-15318820D01*
X11907911Y-15318820D02*
X11898387Y-15309296D01*
X11898387Y-15309296D02*
X11888863Y-15290248D01*
X11888863Y-15290248D02*
X11879339Y-15252153D01*
X11879339Y-15252153D02*
X11879339Y-15204534D01*
X11879339Y-15204534D02*
X11888863Y-15166439D01*
X11888863Y-15166439D02*
X11898387Y-15147391D01*
X11898387Y-15147391D02*
X11907911Y-15137868D01*
X11907911Y-15137868D02*
X11926958Y-15128344D01*
X12174577Y-15128344D02*
X12079339Y-15128344D01*
X12079339Y-15128344D02*
X12069816Y-15223582D01*
X12069816Y-15223582D02*
X12079339Y-15214058D01*
X12079339Y-15214058D02*
X12098387Y-15204534D01*
X12098387Y-15204534D02*
X12146006Y-15204534D01*
X12146006Y-15204534D02*
X12165054Y-15214058D01*
X12165054Y-15214058D02*
X12174577Y-15223582D01*
X12174577Y-15223582D02*
X12184101Y-15242629D01*
X12184101Y-15242629D02*
X12184101Y-15290248D01*
X12184101Y-15290248D02*
X12174577Y-15309296D01*
X12174577Y-15309296D02*
X12165054Y-15318820D01*
X12165054Y-15318820D02*
X12146006Y-15328344D01*
X12146006Y-15328344D02*
X12098387Y-15328344D01*
X12098387Y-15328344D02*
X12079339Y-15318820D01*
X12079339Y-15318820D02*
X12069816Y-15309296D01*
X12279339Y-15328344D02*
X12317435Y-15328344D01*
X12317435Y-15328344D02*
X12336482Y-15318820D01*
X12336482Y-15318820D02*
X12346006Y-15309296D01*
X12346006Y-15309296D02*
X12365054Y-15280725D01*
X12365054Y-15280725D02*
X12374577Y-15242629D01*
X12374577Y-15242629D02*
X12374577Y-15166439D01*
X12374577Y-15166439D02*
X12365054Y-15147391D01*
X12365054Y-15147391D02*
X12355530Y-15137868D01*
X12355530Y-15137868D02*
X12336482Y-15128344D01*
X12336482Y-15128344D02*
X12298387Y-15128344D01*
X12298387Y-15128344D02*
X12279339Y-15137868D01*
X12279339Y-15137868D02*
X12269816Y-15147391D01*
X12269816Y-15147391D02*
X12260292Y-15166439D01*
X12260292Y-15166439D02*
X12260292Y-15214058D01*
X12260292Y-15214058D02*
X12269816Y-15233106D01*
X12269816Y-15233106D02*
X12279339Y-15242629D01*
X12279339Y-15242629D02*
X12298387Y-15252153D01*
X12298387Y-15252153D02*
X12336482Y-15252153D01*
X12336482Y-15252153D02*
X12355530Y-15242629D01*
X12355530Y-15242629D02*
X12365054Y-15233106D01*
X12365054Y-15233106D02*
X12374577Y-15214058D01*
X12565054Y-15328344D02*
X12450768Y-15328344D01*
X12507911Y-15328344D02*
X12507911Y-15128344D01*
X12507911Y-15128344D02*
X12488863Y-15156915D01*
X12488863Y-15156915D02*
X12469816Y-15175963D01*
X12469816Y-15175963D02*
X12450768Y-15185487D01*
X12641244Y-15128344D02*
X12641244Y-15166439D01*
X12717435Y-15128344D02*
X12717435Y-15166439D01*
X13012673Y-15404534D02*
X13003149Y-15395010D01*
X13003149Y-15395010D02*
X12984101Y-15366439D01*
X12984101Y-15366439D02*
X12974578Y-15347391D01*
X12974578Y-15347391D02*
X12965054Y-15318820D01*
X12965054Y-15318820D02*
X12955530Y-15271201D01*
X12955530Y-15271201D02*
X12955530Y-15233106D01*
X12955530Y-15233106D02*
X12965054Y-15185487D01*
X12965054Y-15185487D02*
X12974578Y-15156915D01*
X12974578Y-15156915D02*
X12984101Y-15137868D01*
X12984101Y-15137868D02*
X13003149Y-15109296D01*
X13003149Y-15109296D02*
X13012673Y-15099772D01*
X13079339Y-15147391D02*
X13088863Y-15137868D01*
X13088863Y-15137868D02*
X13107911Y-15128344D01*
X13107911Y-15128344D02*
X13155530Y-15128344D01*
X13155530Y-15128344D02*
X13174578Y-15137868D01*
X13174578Y-15137868D02*
X13184101Y-15147391D01*
X13184101Y-15147391D02*
X13193625Y-15166439D01*
X13193625Y-15166439D02*
X13193625Y-15185487D01*
X13193625Y-15185487D02*
X13184101Y-15214058D01*
X13184101Y-15214058D02*
X13069816Y-15328344D01*
X13069816Y-15328344D02*
X13193625Y-15328344D01*
X13431720Y-15328344D02*
X13431720Y-15128344D01*
X13517435Y-15328344D02*
X13517435Y-15223582D01*
X13517435Y-15223582D02*
X13507911Y-15204534D01*
X13507911Y-15204534D02*
X13488863Y-15195010D01*
X13488863Y-15195010D02*
X13460292Y-15195010D01*
X13460292Y-15195010D02*
X13441244Y-15204534D01*
X13441244Y-15204534D02*
X13431720Y-15214058D01*
X13641244Y-15328344D02*
X13622197Y-15318820D01*
X13622197Y-15318820D02*
X13612673Y-15309296D01*
X13612673Y-15309296D02*
X13603149Y-15290248D01*
X13603149Y-15290248D02*
X13603149Y-15233106D01*
X13603149Y-15233106D02*
X13612673Y-15214058D01*
X13612673Y-15214058D02*
X13622197Y-15204534D01*
X13622197Y-15204534D02*
X13641244Y-15195010D01*
X13641244Y-15195010D02*
X13669816Y-15195010D01*
X13669816Y-15195010D02*
X13688863Y-15204534D01*
X13688863Y-15204534D02*
X13698387Y-15214058D01*
X13698387Y-15214058D02*
X13707911Y-15233106D01*
X13707911Y-15233106D02*
X13707911Y-15290248D01*
X13707911Y-15290248D02*
X13698387Y-15309296D01*
X13698387Y-15309296D02*
X13688863Y-15318820D01*
X13688863Y-15318820D02*
X13669816Y-15328344D01*
X13669816Y-15328344D02*
X13641244Y-15328344D01*
X13822197Y-15328344D02*
X13803149Y-15318820D01*
X13803149Y-15318820D02*
X13793625Y-15299772D01*
X13793625Y-15299772D02*
X13793625Y-15128344D01*
X13974578Y-15318820D02*
X13955530Y-15328344D01*
X13955530Y-15328344D02*
X13917435Y-15328344D01*
X13917435Y-15328344D02*
X13898387Y-15318820D01*
X13898387Y-15318820D02*
X13888863Y-15299772D01*
X13888863Y-15299772D02*
X13888863Y-15223582D01*
X13888863Y-15223582D02*
X13898387Y-15204534D01*
X13898387Y-15204534D02*
X13917435Y-15195010D01*
X13917435Y-15195010D02*
X13955530Y-15195010D01*
X13955530Y-15195010D02*
X13974578Y-15204534D01*
X13974578Y-15204534D02*
X13984101Y-15223582D01*
X13984101Y-15223582D02*
X13984101Y-15242629D01*
X13984101Y-15242629D02*
X13888863Y-15261677D01*
X14060292Y-15318820D02*
X14079340Y-15328344D01*
X14079340Y-15328344D02*
X14117435Y-15328344D01*
X14117435Y-15328344D02*
X14136482Y-15318820D01*
X14136482Y-15318820D02*
X14146006Y-15299772D01*
X14146006Y-15299772D02*
X14146006Y-15290248D01*
X14146006Y-15290248D02*
X14136482Y-15271201D01*
X14136482Y-15271201D02*
X14117435Y-15261677D01*
X14117435Y-15261677D02*
X14088863Y-15261677D01*
X14088863Y-15261677D02*
X14069816Y-15252153D01*
X14069816Y-15252153D02*
X14060292Y-15233106D01*
X14060292Y-15233106D02*
X14060292Y-15223582D01*
X14060292Y-15223582D02*
X14069816Y-15204534D01*
X14069816Y-15204534D02*
X14088863Y-15195010D01*
X14088863Y-15195010D02*
X14117435Y-15195010D01*
X14117435Y-15195010D02*
X14136482Y-15204534D01*
X14212673Y-15404534D02*
X14222197Y-15395010D01*
X14222197Y-15395010D02*
X14241244Y-15366439D01*
X14241244Y-15366439D02*
X14250768Y-15347391D01*
X14250768Y-15347391D02*
X14260292Y-15318820D01*
X14260292Y-15318820D02*
X14269816Y-15271201D01*
X14269816Y-15271201D02*
X14269816Y-15233106D01*
X14269816Y-15233106D02*
X14260292Y-15185487D01*
X14260292Y-15185487D02*
X14250768Y-15156915D01*
X14250768Y-15156915D02*
X14241244Y-15137868D01*
X14241244Y-15137868D02*
X14222197Y-15109296D01*
X14222197Y-15109296D02*
X14212673Y-15099772D01*
M02*
