%TF.GenerationSoftware,KiCad,Pcbnew,9.0.2*%
%TF.CreationDate,2025-07-03T15:48:42+01:00*%
%TF.ProjectId,FED3,46454433-2e6b-4696-9361-645f70636258,rev?*%
%TF.SameCoordinates,Original*%
%TF.FileFunction,Soldermask,Top*%
%TF.FilePolarity,Negative*%
%FSLAX46Y46*%
G04 Gerber Fmt 4.6, Leading zero omitted, Abs format (unit mm)*
G04 Created by KiCad (PCBNEW 9.0.2) date 2025-07-03 15:48:42*
%MOMM*%
%LPD*%
G01*
G04 APERTURE LIST*
G04 Aperture macros list*
%AMRoundRect*
0 Rectangle with rounded corners*
0 $1 Rounding radius*
0 $2 $3 $4 $5 $6 $7 $8 $9 X,Y pos of 4 corners*
0 Add a 4 corners polygon primitive as box body*
4,1,4,$2,$3,$4,$5,$6,$7,$8,$9,$2,$3,0*
0 Add four circle primitives for the rounded corners*
1,1,$1+$1,$2,$3*
1,1,$1+$1,$4,$5*
1,1,$1+$1,$6,$7*
1,1,$1+$1,$8,$9*
0 Add four rect primitives between the rounded corners*
20,1,$1+$1,$2,$3,$4,$5,0*
20,1,$1+$1,$4,$5,$6,$7,0*
20,1,$1+$1,$6,$7,$8,$9,0*
20,1,$1+$1,$8,$9,$2,$3,0*%
%AMFreePoly0*
4,1,17,0.351552,0.797921,0.797921,0.351552,0.812800,0.315631,0.812800,-0.315631,0.797921,-0.351552,0.351552,-0.797921,0.315631,-0.812800,-0.315631,-0.812800,-0.351552,-0.797921,-0.797921,-0.351552,-0.812800,-0.315631,-0.812800,0.315631,-0.797921,0.351552,-0.351552,0.797921,-0.315631,0.812800,0.315631,0.812800,0.351552,0.797921,0.351552,0.797921,$1*%
G04 Aperture macros list end*
%ADD10C,3.191057*%
%ADD11C,3.500000*%
%ADD12RoundRect,0.050800X0.750000X-0.350000X0.750000X0.350000X-0.750000X0.350000X-0.750000X-0.350000X0*%
%ADD13RoundRect,0.050800X0.700000X0.900000X-0.700000X0.900000X-0.700000X-0.900000X0.700000X-0.900000X0*%
%ADD14RoundRect,0.050800X0.950000X-0.700000X0.950000X0.700000X-0.950000X0.700000X-0.950000X-0.700000X0*%
%ADD15RoundRect,0.050800X0.200000X0.600000X-0.200000X0.600000X-0.200000X-0.600000X0.200000X-0.600000X0*%
%ADD16R,1.000000X1.000000*%
%ADD17O,3.149600X1.625600*%
%ADD18R,2.000000X2.000000*%
%ADD19R,1.400000X1.600000*%
%ADD20RoundRect,0.135000X-0.135000X-0.185000X0.135000X-0.185000X0.135000X0.185000X-0.135000X0.185000X0*%
%ADD21RoundRect,0.140000X-0.170000X0.140000X-0.170000X-0.140000X0.170000X-0.140000X0.170000X0.140000X0*%
%ADD22RoundRect,0.140000X0.170000X-0.140000X0.170000X0.140000X-0.170000X0.140000X-0.170000X-0.140000X0*%
%ADD23RoundRect,0.135000X-0.185000X0.135000X-0.185000X-0.135000X0.185000X-0.135000X0.185000X0.135000X0*%
%ADD24RoundRect,0.200000X-0.550000X0.200000X-0.550000X-0.200000X0.550000X-0.200000X0.550000X0.200000X0*%
%ADD25RoundRect,0.135000X0.135000X0.185000X-0.135000X0.185000X-0.135000X-0.185000X0.135000X-0.185000X0*%
%ADD26RoundRect,0.140000X0.140000X0.170000X-0.140000X0.170000X-0.140000X-0.170000X0.140000X-0.170000X0*%
%ADD27RoundRect,0.050800X1.600000X-1.600000X1.600000X1.600000X-1.600000X1.600000X-1.600000X-1.600000X0*%
%ADD28RoundRect,3.225800X0.000010X-0.000010X0.000010X0.000010X-0.000010X0.000010X-0.000010X-0.000010X0*%
%ADD29RoundRect,0.218750X0.218750X0.256250X-0.218750X0.256250X-0.218750X-0.256250X0.218750X-0.256250X0*%
%ADD30RoundRect,0.218750X-0.256250X0.218750X-0.256250X-0.218750X0.256250X-0.218750X0.256250X0.218750X0*%
%ADD31RoundRect,0.050800X-0.400000X0.350000X-0.400000X-0.350000X0.400000X-0.350000X0.400000X0.350000X0*%
%ADD32R,1.700000X1.700000*%
%ADD33C,1.700000*%
%ADD34RoundRect,0.135000X0.185000X-0.135000X0.185000X0.135000X-0.185000X0.135000X-0.185000X-0.135000X0*%
%ADD35RoundRect,0.150000X-0.512500X-0.150000X0.512500X-0.150000X0.512500X0.150000X-0.512500X0.150000X0*%
%ADD36RoundRect,0.050800X-0.950000X0.650000X-0.950000X-0.650000X0.950000X-0.650000X0.950000X0.650000X0*%
%ADD37RoundRect,0.150000X0.150000X-0.512500X0.150000X0.512500X-0.150000X0.512500X-0.150000X-0.512500X0*%
%ADD38C,2.900000*%
%ADD39RoundRect,0.150000X0.150000X-0.725000X0.150000X0.725000X-0.150000X0.725000X-0.150000X-0.725000X0*%
%ADD40C,1.500000*%
%ADD41RoundRect,0.150000X0.150000X0.625000X-0.150000X0.625000X-0.150000X-0.625000X0.150000X-0.625000X0*%
%ADD42RoundRect,0.250000X0.350000X0.650000X-0.350000X0.650000X-0.350000X-0.650000X0.350000X-0.650000X0*%
%ADD43RoundRect,0.050800X-0.375000X-0.125000X0.375000X-0.125000X0.375000X0.125000X-0.375000X0.125000X0*%
%ADD44RoundRect,0.050800X0.125000X-0.375000X0.125000X0.375000X-0.125000X0.375000X-0.125000X-0.375000X0*%
%ADD45RoundRect,0.050800X0.375000X0.125000X-0.375000X0.125000X-0.375000X-0.125000X0.375000X-0.125000X0*%
%ADD46RoundRect,0.050800X-0.125000X0.375000X-0.125000X-0.375000X0.125000X-0.375000X0.125000X0.375000X0*%
%ADD47RoundRect,0.050800X-2.350000X2.350000X-2.350000X-2.350000X2.350000X-2.350000X2.350000X2.350000X0*%
%ADD48RoundRect,0.140000X-0.140000X-0.170000X0.140000X-0.170000X0.140000X0.170000X-0.140000X0.170000X0*%
%ADD49O,1.625600X3.149600*%
%ADD50RoundRect,0.050800X-1.200000X1.275000X-1.200000X-1.275000X1.200000X-1.275000X1.200000X1.275000X0*%
%ADD51RoundRect,0.050800X-1.450000X1.375000X-1.450000X-1.375000X1.450000X-1.375000X1.450000X1.375000X0*%
%ADD52C,1.600000*%
%ADD53C,0.900000*%
%ADD54C,0.700000*%
%ADD55C,1.309600*%
%ADD56C,1.625600*%
%ADD57FreePoly0,180.000000*%
%ADD58C,1.351600*%
%ADD59C,2.401600*%
%ADD60RoundRect,0.050800X0.900000X0.900000X-0.900000X0.900000X-0.900000X-0.900000X0.900000X-0.900000X0*%
%ADD61RoundRect,0.050800X0.675000X0.200000X-0.675000X0.200000X-0.675000X-0.200000X0.675000X-0.200000X0*%
%TA.AperFunction,Profile*%
%ADD62C,0.250000*%
%TD*%
G04 APERTURE END LIST*
%TO.C,B1*%
D10*
X170010628Y-91395600D02*
G75*
G02*
X166819572Y-91395600I-1595528J0D01*
G01*
X166819572Y-91395600D02*
G75*
G02*
X170010628Y-91395600I1595528J0D01*
G01*
%TD*%
D11*
%TO.C,*%
X192545100Y-100793600D03*
%TD*%
D12*
%TO.C,X4*%
X192410000Y-119900000D03*
X192010000Y-121000000D03*
X192410000Y-122100000D03*
X192810000Y-123200000D03*
X192410000Y-124300000D03*
X192810000Y-125400000D03*
X192410000Y-126500000D03*
X192410000Y-127600000D03*
D13*
X182210000Y-126900000D03*
X182210000Y-120900000D03*
D14*
X195310000Y-128500000D03*
X196210000Y-115300000D03*
%TD*%
D15*
%TO.C,IC2*%
X114586100Y-110581600D03*
X113936100Y-110581600D03*
X113286100Y-110581600D03*
X112636100Y-110581600D03*
X111986100Y-110581600D03*
X111336100Y-110581600D03*
X110686100Y-110581600D03*
X110036100Y-110581600D03*
X109386100Y-110581600D03*
X108736100Y-110581600D03*
X108086100Y-110581600D03*
X107436100Y-110581600D03*
X107436100Y-117421600D03*
X108086100Y-117421600D03*
X108736100Y-117421600D03*
X109386100Y-117421600D03*
X110036100Y-117421600D03*
X110686100Y-117421600D03*
X111336100Y-117421600D03*
X111986100Y-117421600D03*
X112636100Y-117421600D03*
X113286100Y-117421600D03*
X113936100Y-117421600D03*
X114586100Y-117421600D03*
%TD*%
D16*
%TO.C,TP1*%
X192150000Y-104100000D03*
%TD*%
%TO.C,TP4*%
X193000000Y-108950000D03*
%TD*%
%TO.C,TP2*%
X163200000Y-121266000D03*
%TD*%
%TO.C,TP3*%
X146850000Y-127300000D03*
%TD*%
D17*
%TO.C,SCREEN0*%
X97251100Y-98903600D03*
X97251100Y-101443600D03*
X97251100Y-103983600D03*
X97251100Y-106523600D03*
X97251100Y-109063600D03*
X97251100Y-111603600D03*
%TD*%
D18*
%TO.C,TP5*%
X99800000Y-116900000D03*
%TD*%
D19*
%TO.C,SW2*%
X179300000Y-118525000D03*
X179300000Y-125725000D03*
X176300000Y-118525000D03*
X176300000Y-125725000D03*
%TD*%
D20*
%TO.C,R16*%
X165065168Y-126050000D03*
X166085168Y-126050000D03*
%TD*%
D21*
%TO.C,C18*%
X167110000Y-110907500D03*
X167110000Y-111867500D03*
%TD*%
D22*
%TO.C,C17*%
X167100000Y-109252500D03*
X167100000Y-108292500D03*
%TD*%
D23*
%TO.C,R10*%
X165950000Y-121940000D03*
X165950000Y-122960000D03*
%TD*%
D24*
%TO.C,X2*%
X164870000Y-109347500D03*
X164870000Y-110847500D03*
%TD*%
D20*
%TO.C,R6*%
X179010000Y-88300000D03*
X180030000Y-88300000D03*
%TD*%
D25*
%TO.C,R14*%
X171610000Y-122100000D03*
X170590000Y-122100000D03*
%TD*%
D22*
%TO.C,C10*%
X174155500Y-99292400D03*
X174155500Y-98332400D03*
%TD*%
D25*
%TO.C,R17*%
X163887668Y-126050000D03*
X162867668Y-126050000D03*
%TD*%
D26*
%TO.C,C1*%
X179980000Y-86600000D03*
X179020000Y-86600000D03*
%TD*%
D27*
%TO.C,B1*%
X168415100Y-83170200D03*
X168415100Y-99621000D03*
D28*
X168415100Y-91395600D03*
%TD*%
D29*
%TO.C,L2*%
X195422500Y-113360000D03*
X193847500Y-113360000D03*
%TD*%
D30*
%TO.C,L1*%
X161940000Y-111732500D03*
X161940000Y-113307500D03*
%TD*%
D23*
%TO.C,R5*%
X181900000Y-112690000D03*
X181900000Y-113710000D03*
%TD*%
D22*
%TO.C,C8*%
X134500000Y-123780000D03*
X134500000Y-122820000D03*
%TD*%
D31*
%TO.C,Q2*%
X117650000Y-120812500D03*
X117650000Y-122712500D03*
X120050000Y-121762500D03*
%TD*%
D32*
%TO.C,J1*%
X152175000Y-128015000D03*
D33*
X152175000Y-125475000D03*
X154715000Y-128015000D03*
X154715000Y-125475000D03*
X157255000Y-128015000D03*
X157255000Y-125475000D03*
%TD*%
D22*
%TO.C,C6*%
X159950000Y-123730000D03*
X159950000Y-122770000D03*
%TD*%
D21*
%TO.C,C3*%
X104600000Y-116720000D03*
X104600000Y-117680000D03*
%TD*%
D34*
%TO.C,R12*%
X167670000Y-116535000D03*
X167670000Y-115515000D03*
%TD*%
D35*
%TO.C,U3*%
X168312500Y-123800000D03*
X168312500Y-124750000D03*
X168312500Y-125700000D03*
X170587500Y-125700000D03*
X170587500Y-123800000D03*
%TD*%
D36*
%TO.C,X1*%
X181039100Y-94741600D03*
X181039100Y-100241600D03*
X184239100Y-100241600D03*
X184239100Y-94741600D03*
%TD*%
D20*
%TO.C,R8*%
X115090000Y-122300000D03*
X116110000Y-122300000D03*
%TD*%
D37*
%TO.C,IC1*%
X117750000Y-127237500D03*
X118700000Y-127237500D03*
X119650000Y-127237500D03*
X119650000Y-124962500D03*
X117750000Y-124962500D03*
%TD*%
D22*
%TO.C,C19*%
X173880000Y-106067500D03*
X173880000Y-105107500D03*
%TD*%
D38*
%TO.C,@HOLE1*%
X196501100Y-103003600D03*
%TD*%
D34*
%TO.C,R15*%
X160080000Y-110030000D03*
X160080000Y-109010000D03*
%TD*%
D20*
%TO.C,R11*%
X187390000Y-110400000D03*
X188410000Y-110400000D03*
%TD*%
D30*
%TO.C,L0*%
X160050000Y-111732500D03*
X160050000Y-113307500D03*
%TD*%
D39*
%TO.C,IC4*%
X181242100Y-91176600D03*
X182512100Y-91176600D03*
X183782100Y-91176600D03*
X185052100Y-91176600D03*
X185052100Y-86026600D03*
X183782100Y-86026600D03*
X182512100Y-86026600D03*
X181242100Y-86026600D03*
%TD*%
D22*
%TO.C,C15*%
X184625000Y-106230000D03*
X184625000Y-105270000D03*
%TD*%
%TO.C,C7*%
X146700000Y-123780000D03*
X146700000Y-122820000D03*
%TD*%
D40*
%TO.C,@HOLE2*%
X161501100Y-103003600D03*
%TD*%
D41*
%TO.C,AUX_I2C0*%
X129500000Y-124975000D03*
X128500000Y-124975000D03*
X127500000Y-124975000D03*
X126500000Y-124975000D03*
D42*
X130800000Y-127500000D03*
X125200000Y-127500000D03*
%TD*%
D26*
%TO.C,C4*%
X113905000Y-125950000D03*
X112945000Y-125950000D03*
%TD*%
D22*
%TO.C,C12*%
X169880000Y-106067500D03*
X169880000Y-105107500D03*
%TD*%
D34*
%TO.C,R13*%
X161940000Y-110030000D03*
X161940000Y-109010000D03*
%TD*%
D43*
%TO.C,U1*%
X170375000Y-109887500D03*
X170375000Y-110387500D03*
X170375000Y-110887500D03*
X170375000Y-111387500D03*
X170375000Y-111887500D03*
X170375000Y-112387500D03*
X170375000Y-112887500D03*
X170375000Y-113387500D03*
X170375000Y-113887500D03*
X170375000Y-114387500D03*
X170375000Y-114887500D03*
X170375000Y-115387500D03*
D44*
X171100000Y-116112500D03*
X171600000Y-116112500D03*
X172100000Y-116112500D03*
X172600000Y-116112500D03*
X173100000Y-116112500D03*
X173600000Y-116112500D03*
X174100000Y-116112500D03*
X174600000Y-116112500D03*
X175100000Y-116112500D03*
X175600000Y-116112500D03*
X176100000Y-116112500D03*
X176600000Y-116112500D03*
D45*
X177325000Y-115387500D03*
X177325000Y-114887500D03*
X177325000Y-114387500D03*
X177325000Y-113887500D03*
X177325000Y-113387500D03*
X177325000Y-112887500D03*
X177325000Y-112387500D03*
X177325000Y-111887500D03*
X177325000Y-111387500D03*
X177325000Y-110887500D03*
X177325000Y-110387500D03*
X177325000Y-109887500D03*
D46*
X176600000Y-109162500D03*
X176100000Y-109162500D03*
X175600000Y-109162500D03*
X175100000Y-109162500D03*
X174600000Y-109162500D03*
X174100000Y-109162500D03*
X173600000Y-109162500D03*
X173100000Y-109162500D03*
X172600000Y-109162500D03*
X172100000Y-109162500D03*
X171600000Y-109162500D03*
X171100000Y-109162500D03*
D47*
X173850000Y-112637500D03*
%TD*%
D40*
%TO.C,@HOLE2*%
X135501100Y-103003600D03*
%TD*%
D22*
%TO.C,C2*%
X177500000Y-88280000D03*
X177500000Y-87320000D03*
%TD*%
D23*
%TO.C,R19*%
X192230000Y-112680000D03*
X192230000Y-113700000D03*
%TD*%
D48*
%TO.C,C14*%
X184620000Y-113850000D03*
X185580000Y-113850000D03*
%TD*%
D22*
%TO.C,C13*%
X182825000Y-106280000D03*
X182825000Y-105320000D03*
%TD*%
D23*
%TO.C,R4*%
X181850000Y-110690000D03*
X181850000Y-111710000D03*
%TD*%
D20*
%TO.C,R9*%
X117880000Y-118870000D03*
X118900000Y-118870000D03*
%TD*%
D38*
%TO.C,@HOLE6*%
X118501100Y-116003600D03*
%TD*%
D34*
%TO.C,R1*%
X129100000Y-103210000D03*
X129100000Y-102190000D03*
%TD*%
%TO.C,R3*%
X176309100Y-99353600D03*
X176309100Y-98333600D03*
%TD*%
D26*
%TO.C,C11*%
X185530000Y-110450000D03*
X184570000Y-110450000D03*
%TD*%
D11*
%TO.C,@HOLE5*%
X104788100Y-100793600D03*
%TD*%
D49*
%TO.C,MOTOR0*%
X112921100Y-84003600D03*
X115461100Y-84003600D03*
X118001100Y-84003600D03*
X120541100Y-84003600D03*
X123081100Y-84003600D03*
%TD*%
D26*
%TO.C,C16*%
X166095168Y-124700000D03*
X165135168Y-124700000D03*
%TD*%
D22*
%TO.C,C5*%
X173500000Y-123880000D03*
X173500000Y-122920000D03*
%TD*%
D34*
%TO.C,R2*%
X154200000Y-110210000D03*
X154200000Y-109190000D03*
%TD*%
D21*
%TO.C,C9*%
X113600000Y-98620000D03*
X113600000Y-99580000D03*
%TD*%
D25*
%TO.C,R7*%
X116110000Y-124150000D03*
X115090000Y-124150000D03*
%TD*%
D50*
%TO.C,EXT0*%
X200944300Y-88939800D03*
D51*
X191644300Y-89039800D03*
D50*
X199044300Y-96289800D03*
D52*
X192844300Y-92614800D03*
X199844300Y-92614800D03*
%TD*%
D37*
%TO.C,U2*%
X186350000Y-108437500D03*
X187300000Y-108437500D03*
X188250000Y-108437500D03*
X188250000Y-106162500D03*
X186350000Y-106162500D03*
%TD*%
D38*
%TO.C,@HOLE0*%
X115001100Y-90003600D03*
%TD*%
D30*
%TO.C,CHG0*%
X200850000Y-100612500D03*
X200850000Y-102187500D03*
%TD*%
D53*
%TO.C,SW1*%
X199450000Y-119550000D03*
X199450000Y-122550000D03*
%TD*%
D54*
%TO.C,PI3*%
X126951100Y-100003600D03*
D40*
X118001100Y-102003600D03*
D55*
X125601100Y-100763600D03*
X125621100Y-103273600D03*
X110401100Y-103303600D03*
X111851100Y-102003600D03*
X110381100Y-100733600D03*
%TD*%
D54*
%TO.C,PI1*%
X187951100Y-100003600D03*
D40*
X179001100Y-102003600D03*
D55*
X186601100Y-100763600D03*
X186621100Y-103273600D03*
X171401100Y-103303600D03*
X172851100Y-102003600D03*
X171381100Y-100733600D03*
%TD*%
D54*
%TO.C,PI2*%
X157451100Y-107003600D03*
D40*
X148501100Y-109003600D03*
D55*
X156101100Y-107763600D03*
X156121100Y-110273600D03*
X140901100Y-110303600D03*
X142351100Y-109003600D03*
X140881100Y-107733600D03*
%TD*%
D56*
%TO.C,X5*%
X141694300Y-125736400D03*
X139154300Y-125736400D03*
%TD*%
D57*
%TO.C,BZ1*%
X131459200Y-110180000D03*
X126510000Y-110180000D03*
%TD*%
D58*
%TO.C,USB0*%
X197900000Y-111975000D03*
X197900000Y-107125000D03*
D59*
X200900000Y-105950000D03*
X200900000Y-113150000D03*
D60*
X200900000Y-108400000D03*
X200900000Y-110700000D03*
D61*
X198225000Y-108250000D03*
X198225000Y-108900000D03*
X198225000Y-109550000D03*
X198225000Y-110200000D03*
X198225000Y-110850000D03*
%TD*%
D62*
X201101100Y-126403600D02*
X201101100Y-117203600D01*
X161501100Y-103003600D02*
X135501100Y-103003600D01*
X161501100Y-80003600D02*
X161501100Y-85751600D01*
X161501100Y-85751600D02*
X164097100Y-88347600D01*
X99501100Y-80003600D02*
X94501100Y-85003600D01*
X202221100Y-107883600D02*
X202501100Y-107603600D01*
X202501100Y-85003600D02*
X197501100Y-80003600D01*
X202221100Y-113323600D02*
X202221100Y-107883600D01*
X202501100Y-107603600D02*
X202501100Y-85003600D01*
X161501100Y-96983600D02*
X161501100Y-103003600D01*
X202501100Y-113603600D02*
X202221100Y-113323600D01*
X135501100Y-103003600D02*
X135501100Y-80003600D01*
X94501100Y-125003600D02*
X99501100Y-130003600D01*
X164097100Y-88347600D02*
X164097100Y-94443600D01*
X197501100Y-130003600D02*
X201101100Y-126403600D01*
X197501100Y-80003600D02*
X161501100Y-80003600D01*
X202501100Y-115803600D02*
X202501100Y-113603600D01*
X94501100Y-85003600D02*
X94501100Y-125003600D01*
X99501100Y-130003600D02*
X197501100Y-130003600D01*
X164097100Y-94443600D02*
X161501100Y-96983600D01*
X201101100Y-117203600D02*
X202501100Y-115803600D01*
X135501100Y-80003600D02*
X99501100Y-80003600D01*
M02*
