%TF.GenerationSoftware,KiCad,Pcbnew,9.0.2*%
%TF.CreationDate,2025-07-03T15:48:42+01:00*%
%TF.ProjectId,FED3,46454433-2e6b-4696-9361-645f70636258,rev?*%
%TF.SameCoordinates,Original*%
%TF.FileFunction,Soldermask,Bot*%
%TF.FilePolarity,Negative*%
%FSLAX46Y46*%
G04 Gerber Fmt 4.6, Leading zero omitted, Abs format (unit mm)*
G04 Created by KiCad (PCBNEW 9.0.2) date 2025-07-03 15:48:42*
%MOMM*%
%LPD*%
G01*
G04 APERTURE LIST*
G04 Aperture macros list*
%AMRoundRect*
0 Rectangle with rounded corners*
0 $1 Rounding radius*
0 $2 $3 $4 $5 $6 $7 $8 $9 X,Y pos of 4 corners*
0 Add a 4 corners polygon primitive as box body*
4,1,4,$2,$3,$4,$5,$6,$7,$8,$9,$2,$3,0*
0 Add four circle primitives for the rounded corners*
1,1,$1+$1,$2,$3*
1,1,$1+$1,$4,$5*
1,1,$1+$1,$6,$7*
1,1,$1+$1,$8,$9*
0 Add four rect primitives between the rounded corners*
20,1,$1+$1,$2,$3,$4,$5,0*
20,1,$1+$1,$4,$5,$6,$7,0*
20,1,$1+$1,$6,$7,$8,$9,0*
20,1,$1+$1,$8,$9,$2,$3,0*%
%AMFreePoly0*
4,1,17,0.351552,0.797921,0.797921,0.351552,0.812800,0.315631,0.812800,-0.315631,0.797921,-0.351552,0.351552,-0.797921,0.315631,-0.812800,-0.315631,-0.812800,-0.351552,-0.797921,-0.797921,-0.351552,-0.812800,-0.315631,-0.812800,0.315631,-0.797921,0.351552,-0.351552,0.797921,-0.315631,0.812800,0.315631,0.812800,0.351552,0.797921,0.351552,0.797921,$1*%
G04 Aperture macros list end*
%ADD10C,3.500000*%
%ADD11O,3.149600X1.625600*%
%ADD12R,2.000000X2.000000*%
%ADD13R,1.700000X1.700000*%
%ADD14C,1.700000*%
%ADD15C,2.900000*%
%ADD16C,1.500000*%
%ADD17O,1.625600X3.149600*%
%ADD18C,1.600000*%
%ADD19RoundRect,0.050800X0.750000X0.450000X-0.750000X0.450000X-0.750000X-0.450000X0.750000X-0.450000X0*%
%ADD20RoundRect,0.050800X-0.450000X0.750000X-0.450000X-0.750000X0.450000X-0.750000X0.450000X0.750000X0*%
%ADD21C,0.900000*%
%ADD22RoundRect,0.050800X-0.750000X0.350000X-0.750000X-0.350000X0.750000X-0.350000X0.750000X0.350000X0*%
%ADD23RoundRect,0.050800X0.400000X0.500000X-0.400000X0.500000X-0.400000X-0.500000X0.400000X-0.500000X0*%
%ADD24C,0.700000*%
%ADD25C,1.309600*%
%ADD26C,1.625600*%
%ADD27FreePoly0,180.000000*%
%ADD28C,1.351600*%
%ADD29C,2.401600*%
%TA.AperFunction,Profile*%
%ADD30C,0.250000*%
%TD*%
G04 APERTURE END LIST*
D10*
%TO.C,*%
X192545100Y-100793600D03*
%TD*%
D11*
%TO.C,SCREEN0*%
X97251100Y-98903600D03*
X97251100Y-101443600D03*
X97251100Y-103983600D03*
X97251100Y-106523600D03*
X97251100Y-109063600D03*
X97251100Y-111603600D03*
%TD*%
D12*
%TO.C,TP5*%
X99800000Y-116900000D03*
%TD*%
D13*
%TO.C,J1*%
X152175000Y-128015000D03*
D14*
X152175000Y-125475000D03*
X154715000Y-128015000D03*
X154715000Y-125475000D03*
X157255000Y-128015000D03*
X157255000Y-125475000D03*
%TD*%
D15*
%TO.C,@HOLE1*%
X196501100Y-103003600D03*
%TD*%
D16*
%TO.C,@HOLE2*%
X161501100Y-103003600D03*
%TD*%
%TO.C,@HOLE2*%
X135501100Y-103003600D03*
%TD*%
D15*
%TO.C,@HOLE6*%
X118501100Y-116003600D03*
%TD*%
D10*
%TO.C,@HOLE5*%
X104788100Y-100793600D03*
%TD*%
D17*
%TO.C,MOTOR0*%
X112921100Y-84003600D03*
X115461100Y-84003600D03*
X118001100Y-84003600D03*
X120541100Y-84003600D03*
X123081100Y-84003600D03*
%TD*%
D18*
%TO.C,EXT0*%
X192844300Y-92614800D03*
X199844300Y-92614800D03*
%TD*%
D15*
%TO.C,@HOLE0*%
X115001100Y-90003600D03*
%TD*%
D19*
%TO.C,LED10*%
X176551100Y-97650400D03*
X176551100Y-94350400D03*
X181451100Y-94350400D03*
X181451100Y-97650400D03*
%TD*%
D20*
%TO.C,LED4*%
X153351900Y-123716000D03*
X150051900Y-123716000D03*
X150051900Y-118816000D03*
X153351900Y-118816000D03*
%TD*%
D21*
%TO.C,SW1*%
X199450000Y-119550000D03*
X199450000Y-122550000D03*
D22*
X197200000Y-118800000D03*
X197200000Y-121800000D03*
X197200000Y-123300000D03*
D23*
X198350000Y-117400000D03*
X200550000Y-117400000D03*
X200550000Y-124700000D03*
X198350000Y-124700000D03*
%TD*%
D19*
%TO.C,LED9*%
X115551100Y-97650400D03*
X115551100Y-94350400D03*
X120451100Y-94350400D03*
X120451100Y-97650400D03*
%TD*%
D20*
%TO.C,LED8*%
X127951900Y-123716000D03*
X124651900Y-123716000D03*
X124651900Y-118816000D03*
X127951900Y-118816000D03*
%TD*%
%TO.C,LED3*%
X159701900Y-123716000D03*
X156401900Y-123716000D03*
X156401900Y-118816000D03*
X159701900Y-118816000D03*
%TD*%
%TO.C,LED1*%
X172401900Y-123716000D03*
X169101900Y-123716000D03*
X169101900Y-118816000D03*
X172401900Y-118816000D03*
%TD*%
D24*
%TO.C,PI3*%
X126951100Y-100003600D03*
D16*
X118001100Y-102003600D03*
D25*
X125601100Y-100763600D03*
X125621100Y-103273600D03*
X110401100Y-103303600D03*
X111851100Y-102003600D03*
X110381100Y-100733600D03*
%TD*%
D24*
%TO.C,PI1*%
X187951100Y-100003600D03*
D16*
X179001100Y-102003600D03*
D25*
X186601100Y-100763600D03*
X186621100Y-103273600D03*
X171401100Y-103303600D03*
X172851100Y-102003600D03*
X171381100Y-100733600D03*
%TD*%
D24*
%TO.C,PI2*%
X157451100Y-107003600D03*
D16*
X148501100Y-109003600D03*
D25*
X156101100Y-107763600D03*
X156121100Y-110273600D03*
X140901100Y-110303600D03*
X142351100Y-109003600D03*
X140881100Y-107733600D03*
%TD*%
D20*
%TO.C,LED2*%
X166051900Y-123716000D03*
X162751900Y-123716000D03*
X162751900Y-118816000D03*
X166051900Y-118816000D03*
%TD*%
%TO.C,LED6*%
X140651900Y-123716000D03*
X137351900Y-123716000D03*
X137351900Y-118816000D03*
X140651900Y-118816000D03*
%TD*%
%TO.C,LED7*%
X134301900Y-123716000D03*
X131001900Y-123716000D03*
X131001900Y-118816000D03*
X134301900Y-118816000D03*
%TD*%
%TO.C,LED5*%
X147001900Y-123716000D03*
X143701900Y-123716000D03*
X143701900Y-118816000D03*
X147001900Y-118816000D03*
%TD*%
D26*
%TO.C,X5*%
X141694300Y-125736400D03*
X139154300Y-125736400D03*
%TD*%
D27*
%TO.C,BZ1*%
X131459200Y-110180000D03*
X126510000Y-110180000D03*
%TD*%
D28*
%TO.C,USB0*%
X197900000Y-111975000D03*
X197900000Y-107125000D03*
D29*
X200900000Y-105950000D03*
X200900000Y-113150000D03*
%TD*%
D30*
X201101100Y-126403600D02*
X201101100Y-117203600D01*
X161501100Y-103003600D02*
X135501100Y-103003600D01*
X161501100Y-80003600D02*
X161501100Y-85751600D01*
X161501100Y-85751600D02*
X164097100Y-88347600D01*
X99501100Y-80003600D02*
X94501100Y-85003600D01*
X202221100Y-107883600D02*
X202501100Y-107603600D01*
X202501100Y-85003600D02*
X197501100Y-80003600D01*
X202221100Y-113323600D02*
X202221100Y-107883600D01*
X202501100Y-107603600D02*
X202501100Y-85003600D01*
X161501100Y-96983600D02*
X161501100Y-103003600D01*
X202501100Y-113603600D02*
X202221100Y-113323600D01*
X135501100Y-103003600D02*
X135501100Y-80003600D01*
X94501100Y-125003600D02*
X99501100Y-130003600D01*
X164097100Y-88347600D02*
X164097100Y-94443600D01*
X197501100Y-130003600D02*
X201101100Y-126403600D01*
X197501100Y-80003600D02*
X161501100Y-80003600D01*
X202501100Y-115803600D02*
X202501100Y-113603600D01*
X94501100Y-85003600D02*
X94501100Y-125003600D01*
X99501100Y-130003600D02*
X197501100Y-130003600D01*
X164097100Y-94443600D02*
X161501100Y-96983600D01*
X201101100Y-117203600D02*
X202501100Y-115803600D01*
X135501100Y-80003600D02*
X99501100Y-80003600D01*
M02*
