%TF.GenerationSoftware,KiCad,Pcbnew,9.0.2*%
%TF.CreationDate,2025-07-03T15:48:42+01:00*%
%TF.ProjectId,FED3,46454433-2e6b-4696-9361-645f70636258,rev?*%
%TF.SameCoordinates,Original*%
%TF.FileFunction,Other,User*%
%FSLAX46Y46*%
G04 Gerber Fmt 4.6, Leading zero omitted, Abs format (unit mm)*
G04 Created by KiCad (PCBNEW 9.0.2) date 2025-07-03 15:48:42*
%MOMM*%
%LPD*%
G01*
G04 APERTURE LIST*
%ADD10C,0.050000*%
%TA.AperFunction,Profile*%
%ADD11C,0.250000*%
%TD*%
G04 APERTURE END LIST*
%TO.C,X4*%
D10*
X181320000Y-129400000D02*
X197770000Y-129400000D01*
X197770000Y-114450000D01*
X181320000Y-114450000D01*
X181320000Y-129400000D01*
%TO.C,TP1*%
X191150000Y-105100000D02*
X193150000Y-105100000D01*
X191150000Y-105100000D02*
X191150000Y-103100000D01*
X193150000Y-103100000D02*
X193150000Y-105100000D01*
X193150000Y-103100000D02*
X191150000Y-103100000D01*
%TO.C,TP4*%
X192000000Y-109950000D02*
X194000000Y-109950000D01*
X192000000Y-109950000D02*
X192000000Y-107950000D01*
X194000000Y-107950000D02*
X194000000Y-109950000D01*
X194000000Y-107950000D02*
X192000000Y-107950000D01*
%TO.C,TP2*%
X162200000Y-120266000D02*
X162200000Y-122266000D01*
X162200000Y-120266000D02*
X164200000Y-120266000D01*
X164200000Y-122266000D02*
X162200000Y-122266000D01*
X164200000Y-122266000D02*
X164200000Y-120266000D01*
%TO.C,TP3*%
X145850000Y-128300000D02*
X147850000Y-128300000D01*
X145850000Y-128300000D02*
X145850000Y-126300000D01*
X147850000Y-126300000D02*
X147850000Y-128300000D01*
X147850000Y-126300000D02*
X145850000Y-126300000D01*
%TO.C,TP5*%
X98300000Y-118400000D02*
X101300000Y-118400000D01*
X98300000Y-118400000D02*
X98300000Y-115400000D01*
X101300000Y-115400000D02*
X101300000Y-118400000D01*
X101300000Y-115400000D02*
X98300000Y-115400000D01*
%TO.C,SW2*%
X175300000Y-117475000D02*
X180300000Y-117475000D01*
X175300000Y-126775000D02*
X175300000Y-117475000D01*
X180300000Y-117475000D02*
X180300000Y-126775000D01*
X180300000Y-126775000D02*
X175300000Y-126775000D01*
%TO.C,R16*%
X164645168Y-125580000D02*
X166505168Y-125580000D01*
X164645168Y-126520000D02*
X164645168Y-125580000D01*
X166505168Y-125580000D02*
X166505168Y-126520000D01*
X166505168Y-126520000D02*
X164645168Y-126520000D01*
%TO.C,C18*%
X166650000Y-110477500D02*
X167570000Y-110477500D01*
X166650000Y-112297500D02*
X166650000Y-110477500D01*
X167570000Y-110477500D02*
X167570000Y-112297500D01*
X167570000Y-112297500D02*
X166650000Y-112297500D01*
%TO.C,C17*%
X166640000Y-107862500D02*
X167560000Y-107862500D01*
X166640000Y-109682500D02*
X166640000Y-107862500D01*
X167560000Y-107862500D02*
X167560000Y-109682500D01*
X167560000Y-109682500D02*
X166640000Y-109682500D01*
%TO.C,R10*%
X165480000Y-121520000D02*
X166420000Y-121520000D01*
X165480000Y-123380000D02*
X165480000Y-121520000D01*
X166420000Y-121520000D02*
X166420000Y-123380000D01*
X166420000Y-123380000D02*
X165480000Y-123380000D01*
%TO.C,X2*%
X165970000Y-108597500D02*
X163770000Y-108597500D01*
X163770000Y-111597500D01*
X165970000Y-111597500D01*
X165970000Y-108597500D01*
%TO.C,R6*%
X178590000Y-87830000D02*
X180450000Y-87830000D01*
X178590000Y-88770000D02*
X178590000Y-87830000D01*
X180450000Y-87830000D02*
X180450000Y-88770000D01*
X180450000Y-88770000D02*
X178590000Y-88770000D01*
%TO.C,R14*%
X170170000Y-121630000D02*
X172030000Y-121630000D01*
X170170000Y-122570000D02*
X170170000Y-121630000D01*
X172030000Y-121630000D02*
X172030000Y-122570000D01*
X172030000Y-122570000D02*
X170170000Y-122570000D01*
%TO.C,C10*%
X173695500Y-97902400D02*
X174615500Y-97902400D01*
X173695500Y-99722400D02*
X173695500Y-97902400D01*
X174615500Y-97902400D02*
X174615500Y-99722400D01*
X174615500Y-99722400D02*
X173695500Y-99722400D01*
%TO.C,R17*%
X162447668Y-125580000D02*
X164307668Y-125580000D01*
X162447668Y-126520000D02*
X162447668Y-125580000D01*
X164307668Y-125580000D02*
X164307668Y-126520000D01*
X164307668Y-126520000D02*
X162447668Y-126520000D01*
%TO.C,C1*%
X178590000Y-86140000D02*
X180410000Y-86140000D01*
X178590000Y-87060000D02*
X178590000Y-86140000D01*
X180410000Y-86140000D02*
X180410000Y-87060000D01*
X180410000Y-87060000D02*
X178590000Y-87060000D01*
%TO.C,L2*%
X193155000Y-112630000D02*
X196115000Y-112630000D01*
X193155000Y-114090000D02*
X193155000Y-112630000D01*
X196115000Y-112630000D02*
X196115000Y-114090000D01*
X196115000Y-114090000D02*
X193155000Y-114090000D01*
%TO.C,L1*%
X161210000Y-111040000D02*
X162670000Y-111040000D01*
X161210000Y-114000000D02*
X161210000Y-111040000D01*
X162670000Y-111040000D02*
X162670000Y-114000000D01*
X162670000Y-114000000D02*
X161210000Y-114000000D01*
%TO.C,R5*%
X181430000Y-112270000D02*
X182370000Y-112270000D01*
X181430000Y-114130000D02*
X181430000Y-112270000D01*
X182370000Y-112270000D02*
X182370000Y-114130000D01*
X182370000Y-114130000D02*
X181430000Y-114130000D01*
%TO.C,C8*%
X134040000Y-122390000D02*
X134960000Y-122390000D01*
X134040000Y-124210000D02*
X134040000Y-122390000D01*
X134960000Y-122390000D02*
X134960000Y-124210000D01*
X134960000Y-124210000D02*
X134040000Y-124210000D01*
%TO.C,J1*%
X150405000Y-123695000D02*
X150405000Y-129785000D01*
X150405000Y-129785000D02*
X159025000Y-129785000D01*
X159025000Y-123695000D02*
X150405000Y-123695000D01*
X159025000Y-129785000D02*
X159025000Y-123695000D01*
%TO.C,C6*%
X159490000Y-122340000D02*
X160410000Y-122340000D01*
X159490000Y-124160000D02*
X159490000Y-122340000D01*
X160410000Y-122340000D02*
X160410000Y-124160000D01*
X160410000Y-124160000D02*
X159490000Y-124160000D01*
%TO.C,C3*%
X104140000Y-116290000D02*
X105060000Y-116290000D01*
X104140000Y-118110000D02*
X104140000Y-116290000D01*
X105060000Y-116290000D02*
X105060000Y-118110000D01*
X105060000Y-118110000D02*
X104140000Y-118110000D01*
%TO.C,R12*%
X167200000Y-115095000D02*
X168140000Y-115095000D01*
X167200000Y-116955000D02*
X167200000Y-115095000D01*
X168140000Y-115095000D02*
X168140000Y-116955000D01*
X168140000Y-116955000D02*
X167200000Y-116955000D01*
%TO.C,U3*%
X167400000Y-123250000D02*
X168400000Y-123250000D01*
X167400000Y-126250000D02*
X167400000Y-123250000D01*
X168400000Y-123050000D02*
X170500000Y-123050000D01*
X168400000Y-123250000D02*
X168400000Y-123050000D01*
X168400000Y-126250000D02*
X167400000Y-126250000D01*
X168400000Y-126450000D02*
X168400000Y-126250000D01*
X170500000Y-123050000D02*
X170500000Y-123250000D01*
X170500000Y-123250000D02*
X171500000Y-123250000D01*
X170500000Y-126250000D02*
X170500000Y-126450000D01*
X170500000Y-126450000D02*
X168400000Y-126450000D01*
X171500000Y-123250000D02*
X171500000Y-126250000D01*
X171500000Y-126250000D02*
X170500000Y-126250000D01*
%TO.C,X1*%
X185389100Y-93191600D02*
X179939100Y-93191600D01*
X179939100Y-101841600D01*
X185389100Y-101841600D01*
X185389100Y-93191600D01*
%TO.C,R8*%
X114670000Y-121830000D02*
X116530000Y-121830000D01*
X114670000Y-122770000D02*
X114670000Y-121830000D01*
X116530000Y-121830000D02*
X116530000Y-122770000D01*
X116530000Y-122770000D02*
X114670000Y-122770000D01*
%TO.C,IC1*%
X117000000Y-125050000D02*
X117200000Y-125050000D01*
X117000000Y-127150000D02*
X117000000Y-125050000D01*
X117200000Y-124050000D02*
X120200000Y-124050000D01*
X117200000Y-125050000D02*
X117200000Y-124050000D01*
X117200000Y-127150000D02*
X117000000Y-127150000D01*
X117200000Y-128150000D02*
X117200000Y-127150000D01*
X120200000Y-124050000D02*
X120200000Y-125050000D01*
X120200000Y-125050000D02*
X120400000Y-125050000D01*
X120200000Y-127150000D02*
X120200000Y-128150000D01*
X120200000Y-128150000D02*
X117200000Y-128150000D01*
X120400000Y-125050000D02*
X120400000Y-127150000D01*
X120400000Y-127150000D02*
X120200000Y-127150000D01*
%TO.C,C19*%
X173420000Y-104677500D02*
X174340000Y-104677500D01*
X173420000Y-106497500D02*
X173420000Y-104677500D01*
X174340000Y-104677500D02*
X174340000Y-106497500D01*
X174340000Y-106497500D02*
X173420000Y-106497500D01*
%TO.C,R15*%
X159610000Y-108590000D02*
X160550000Y-108590000D01*
X159610000Y-110450000D02*
X159610000Y-108590000D01*
X160550000Y-108590000D02*
X160550000Y-110450000D01*
X160550000Y-110450000D02*
X159610000Y-110450000D01*
%TO.C,R11*%
X186970000Y-109930000D02*
X188830000Y-109930000D01*
X186970000Y-110870000D02*
X186970000Y-109930000D01*
X188830000Y-109930000D02*
X188830000Y-110870000D01*
X188830000Y-110870000D02*
X186970000Y-110870000D01*
%TO.C,L0*%
X159320000Y-111040000D02*
X160780000Y-111040000D01*
X159320000Y-114000000D02*
X159320000Y-111040000D01*
X160780000Y-111040000D02*
X160780000Y-114000000D01*
X160780000Y-114000000D02*
X159320000Y-114000000D01*
%TO.C,IC4*%
X180447100Y-86401600D02*
X180687100Y-86401600D01*
X180447100Y-90801600D02*
X180447100Y-86401600D01*
X180687100Y-84901600D02*
X185607100Y-84901600D01*
X180687100Y-86401600D02*
X180687100Y-84901600D01*
X180687100Y-90801600D02*
X180447100Y-90801600D01*
X180687100Y-92301600D02*
X180687100Y-90801600D01*
X185607100Y-84901600D02*
X185607100Y-86401600D01*
X185607100Y-86401600D02*
X185847100Y-86401600D01*
X185607100Y-90801600D02*
X185607100Y-92301600D01*
X185607100Y-92301600D02*
X180687100Y-92301600D01*
X185847100Y-86401600D02*
X185847100Y-90801600D01*
X185847100Y-90801600D02*
X185607100Y-90801600D01*
%TO.C,C15*%
X184165000Y-104840000D02*
X185085000Y-104840000D01*
X184165000Y-106660000D02*
X184165000Y-104840000D01*
X185085000Y-104840000D02*
X185085000Y-106660000D01*
X185085000Y-106660000D02*
X184165000Y-106660000D01*
%TO.C,C7*%
X146240000Y-122390000D02*
X147160000Y-122390000D01*
X146240000Y-124210000D02*
X146240000Y-122390000D01*
X147160000Y-122390000D02*
X147160000Y-124210000D01*
X147160000Y-124210000D02*
X146240000Y-124210000D01*
%TO.C,AUX_I2C0*%
X124100000Y-123700000D02*
X124100000Y-128900000D01*
X124100000Y-128900000D02*
X131900000Y-128900000D01*
X131900000Y-123700000D02*
X124100000Y-123700000D01*
X131900000Y-128900000D02*
X131900000Y-123700000D01*
%TO.C,C4*%
X112515000Y-125490000D02*
X114335000Y-125490000D01*
X112515000Y-126410000D02*
X112515000Y-125490000D01*
X114335000Y-125490000D02*
X114335000Y-126410000D01*
X114335000Y-126410000D02*
X112515000Y-126410000D01*
%TO.C,C12*%
X169420000Y-104677500D02*
X170340000Y-104677500D01*
X169420000Y-106497500D02*
X169420000Y-104677500D01*
X170340000Y-104677500D02*
X170340000Y-106497500D01*
X170340000Y-106497500D02*
X169420000Y-106497500D01*
%TO.C,R13*%
X161470000Y-108590000D02*
X162410000Y-108590000D01*
X161470000Y-110450000D02*
X161470000Y-108590000D01*
X162410000Y-108590000D02*
X162410000Y-110450000D01*
X162410000Y-110450000D02*
X161470000Y-110450000D01*
%TO.C,U1*%
X170350000Y-109137500D02*
X177350000Y-109137500D01*
X170350000Y-116137500D02*
X170350000Y-109137500D01*
X177350000Y-109137500D02*
X177350000Y-116137500D01*
X177350000Y-116137500D02*
X170350000Y-116137500D01*
%TO.C,C2*%
X177040000Y-86890000D02*
X177960000Y-86890000D01*
X177040000Y-88710000D02*
X177040000Y-86890000D01*
X177960000Y-86890000D02*
X177960000Y-88710000D01*
X177960000Y-88710000D02*
X177040000Y-88710000D01*
%TO.C,R19*%
X191760000Y-112260000D02*
X192700000Y-112260000D01*
X191760000Y-114120000D02*
X191760000Y-112260000D01*
X192700000Y-112260000D02*
X192700000Y-114120000D01*
X192700000Y-114120000D02*
X191760000Y-114120000D01*
%TO.C,C14*%
X184190000Y-113390000D02*
X186010000Y-113390000D01*
X184190000Y-114310000D02*
X184190000Y-113390000D01*
X186010000Y-113390000D02*
X186010000Y-114310000D01*
X186010000Y-114310000D02*
X184190000Y-114310000D01*
%TO.C,C13*%
X182365000Y-104890000D02*
X183285000Y-104890000D01*
X182365000Y-106710000D02*
X182365000Y-104890000D01*
X183285000Y-104890000D02*
X183285000Y-106710000D01*
X183285000Y-106710000D02*
X182365000Y-106710000D01*
%TO.C,R4*%
X181380000Y-110270000D02*
X182320000Y-110270000D01*
X181380000Y-112130000D02*
X181380000Y-110270000D01*
X182320000Y-110270000D02*
X182320000Y-112130000D01*
X182320000Y-112130000D02*
X181380000Y-112130000D01*
%TO.C,R9*%
X117460000Y-118400000D02*
X119320000Y-118400000D01*
X117460000Y-119340000D02*
X117460000Y-118400000D01*
X119320000Y-118400000D02*
X119320000Y-119340000D01*
X119320000Y-119340000D02*
X117460000Y-119340000D01*
%TO.C,R1*%
X128630000Y-101770000D02*
X129570000Y-101770000D01*
X128630000Y-103630000D02*
X128630000Y-101770000D01*
X129570000Y-101770000D02*
X129570000Y-103630000D01*
X129570000Y-103630000D02*
X128630000Y-103630000D01*
%TO.C,R3*%
X175839100Y-97913600D02*
X176779100Y-97913600D01*
X175839100Y-99773600D02*
X175839100Y-97913600D01*
X176779100Y-97913600D02*
X176779100Y-99773600D01*
X176779100Y-99773600D02*
X175839100Y-99773600D01*
%TO.C,C11*%
X184140000Y-109990000D02*
X185960000Y-109990000D01*
X184140000Y-110910000D02*
X184140000Y-109990000D01*
X185960000Y-109990000D02*
X185960000Y-110910000D01*
X185960000Y-110910000D02*
X184140000Y-110910000D01*
%TO.C,C16*%
X164705168Y-124240000D02*
X166525168Y-124240000D01*
X164705168Y-125160000D02*
X164705168Y-124240000D01*
X166525168Y-124240000D02*
X166525168Y-125160000D01*
X166525168Y-125160000D02*
X164705168Y-125160000D01*
%TO.C,C5*%
X173040000Y-122490000D02*
X173960000Y-122490000D01*
X173040000Y-124310000D02*
X173040000Y-122490000D01*
X173960000Y-122490000D02*
X173960000Y-124310000D01*
X173960000Y-124310000D02*
X173040000Y-124310000D01*
%TO.C,R2*%
X153730000Y-108770000D02*
X154670000Y-108770000D01*
X153730000Y-110630000D02*
X153730000Y-108770000D01*
X154670000Y-108770000D02*
X154670000Y-110630000D01*
X154670000Y-110630000D02*
X153730000Y-110630000D01*
%TO.C,C9*%
X113140000Y-98190000D02*
X114060000Y-98190000D01*
X113140000Y-100010000D02*
X113140000Y-98190000D01*
X114060000Y-98190000D02*
X114060000Y-100010000D01*
X114060000Y-100010000D02*
X113140000Y-100010000D01*
%TO.C,R7*%
X114670000Y-123680000D02*
X116530000Y-123680000D01*
X114670000Y-124620000D02*
X114670000Y-123680000D01*
X116530000Y-123680000D02*
X116530000Y-124620000D01*
X116530000Y-124620000D02*
X114670000Y-124620000D01*
%TO.C,EXT0*%
X203344300Y-95614800D02*
X188794300Y-95614800D01*
X188794300Y-89614800D01*
X203344300Y-89614800D01*
X203344300Y-95614800D01*
%TO.C,U2*%
X185600000Y-106250000D02*
X185800000Y-106250000D01*
X185600000Y-108350000D02*
X185600000Y-106250000D01*
X185800000Y-105250000D02*
X188800000Y-105250000D01*
X185800000Y-106250000D02*
X185800000Y-105250000D01*
X185800000Y-108350000D02*
X185600000Y-108350000D01*
X185800000Y-109350000D02*
X185800000Y-108350000D01*
X188800000Y-105250000D02*
X188800000Y-106250000D01*
X188800000Y-106250000D02*
X189000000Y-106250000D01*
X188800000Y-108350000D02*
X188800000Y-109350000D01*
X188800000Y-109350000D02*
X185800000Y-109350000D01*
X189000000Y-106250000D02*
X189000000Y-108350000D01*
X189000000Y-108350000D02*
X188800000Y-108350000D01*
%TO.C,CHG0*%
X200120000Y-99920000D02*
X201580000Y-99920000D01*
X200120000Y-102880000D02*
X200120000Y-99920000D01*
X201580000Y-99920000D02*
X201580000Y-102880000D01*
X201580000Y-102880000D02*
X200120000Y-102880000D01*
%TO.C,X5*%
X144074300Y-129136400D02*
X136724300Y-129136400D01*
X136724300Y-123386400D01*
X144074300Y-123386400D01*
X144074300Y-129136400D01*
%TO.C,USB0*%
X202150000Y-105750000D02*
X202150000Y-113300000D01*
X202150000Y-114500000D01*
X199625000Y-114500000D01*
X199625000Y-113300000D01*
X197100000Y-113300000D01*
X197100000Y-105750000D01*
X199625000Y-105750000D01*
X199625000Y-104550000D01*
X202150000Y-104550000D01*
X202150000Y-105750000D01*
%TD*%
D11*
X201101100Y-126403600D02*
X201101100Y-117203600D01*
X161501100Y-103003600D02*
X135501100Y-103003600D01*
X161501100Y-80003600D02*
X161501100Y-85751600D01*
X161501100Y-85751600D02*
X164097100Y-88347600D01*
X99501100Y-80003600D02*
X94501100Y-85003600D01*
X202221100Y-107883600D02*
X202501100Y-107603600D01*
X202501100Y-85003600D02*
X197501100Y-80003600D01*
X202221100Y-113323600D02*
X202221100Y-107883600D01*
X202501100Y-107603600D02*
X202501100Y-85003600D01*
X161501100Y-96983600D02*
X161501100Y-103003600D01*
X202501100Y-113603600D02*
X202221100Y-113323600D01*
X135501100Y-103003600D02*
X135501100Y-80003600D01*
X94501100Y-125003600D02*
X99501100Y-130003600D01*
X164097100Y-88347600D02*
X164097100Y-94443600D01*
X197501100Y-130003600D02*
X201101100Y-126403600D01*
X197501100Y-80003600D02*
X161501100Y-80003600D01*
X202501100Y-115803600D02*
X202501100Y-113603600D01*
X94501100Y-85003600D02*
X94501100Y-125003600D01*
X99501100Y-130003600D02*
X197501100Y-130003600D01*
X164097100Y-94443600D02*
X161501100Y-96983600D01*
X201101100Y-117203600D02*
X202501100Y-115803600D01*
X135501100Y-80003600D02*
X99501100Y-80003600D01*
M02*
