%TF.GenerationSoftware,KiCad,Pcbnew,9.0.2*%
%TF.CreationDate,2025-07-03T15:48:42+01:00*%
%TF.ProjectId,FED3,46454433-2e6b-4696-9361-645f70636258,rev?*%
%TF.SameCoordinates,Original*%
%TF.FileFunction,AssemblyDrawing,Bot*%
%FSLAX46Y46*%
G04 Gerber Fmt 4.6, Leading zero omitted, Abs format (unit mm)*
G04 Created by KiCad (PCBNEW 9.0.2) date 2025-07-03 15:48:42*
%MOMM*%
%LPD*%
G01*
G04 APERTURE LIST*
%ADD10C,0.150000*%
%ADD11C,0.175000*%
%ADD12C,0.100000*%
%TA.AperFunction,Profile*%
%ADD13C,0.250000*%
%TD*%
G04 APERTURE END LIST*
D10*
X180054857Y-96506533D02*
X180388190Y-96506533D01*
X180388190Y-96506533D02*
X180388190Y-95806533D01*
X179821523Y-96139866D02*
X179588190Y-96139866D01*
X179488190Y-96506533D02*
X179821523Y-96506533D01*
X179821523Y-96506533D02*
X179821523Y-95806533D01*
X179821523Y-95806533D02*
X179488190Y-95806533D01*
X179188190Y-96506533D02*
X179188190Y-95806533D01*
X179188190Y-95806533D02*
X179021523Y-95806533D01*
X179021523Y-95806533D02*
X178921523Y-95839866D01*
X178921523Y-95839866D02*
X178854857Y-95906533D01*
X178854857Y-95906533D02*
X178821523Y-95973200D01*
X178821523Y-95973200D02*
X178788190Y-96106533D01*
X178788190Y-96106533D02*
X178788190Y-96206533D01*
X178788190Y-96206533D02*
X178821523Y-96339866D01*
X178821523Y-96339866D02*
X178854857Y-96406533D01*
X178854857Y-96406533D02*
X178921523Y-96473200D01*
X178921523Y-96473200D02*
X179021523Y-96506533D01*
X179021523Y-96506533D02*
X179188190Y-96506533D01*
X178121523Y-96506533D02*
X178521523Y-96506533D01*
X178321523Y-96506533D02*
X178321523Y-95806533D01*
X178321523Y-95806533D02*
X178388190Y-95906533D01*
X178388190Y-95906533D02*
X178454857Y-95973200D01*
X178454857Y-95973200D02*
X178521523Y-96006533D01*
X177688190Y-95806533D02*
X177621523Y-95806533D01*
X177621523Y-95806533D02*
X177554856Y-95839866D01*
X177554856Y-95839866D02*
X177521523Y-95873200D01*
X177521523Y-95873200D02*
X177488190Y-95939866D01*
X177488190Y-95939866D02*
X177454856Y-96073200D01*
X177454856Y-96073200D02*
X177454856Y-96239866D01*
X177454856Y-96239866D02*
X177488190Y-96373200D01*
X177488190Y-96373200D02*
X177521523Y-96439866D01*
X177521523Y-96439866D02*
X177554856Y-96473200D01*
X177554856Y-96473200D02*
X177621523Y-96506533D01*
X177621523Y-96506533D02*
X177688190Y-96506533D01*
X177688190Y-96506533D02*
X177754856Y-96473200D01*
X177754856Y-96473200D02*
X177788190Y-96439866D01*
X177788190Y-96439866D02*
X177821523Y-96373200D01*
X177821523Y-96373200D02*
X177854856Y-96239866D01*
X177854856Y-96239866D02*
X177854856Y-96073200D01*
X177854856Y-96073200D02*
X177821523Y-95939866D01*
X177821523Y-95939866D02*
X177788190Y-95873200D01*
X177788190Y-95873200D02*
X177754856Y-95839866D01*
X177754856Y-95839866D02*
X177688190Y-95806533D01*
X152401316Y-121606533D02*
X152734649Y-121606533D01*
X152734649Y-121606533D02*
X152734649Y-120906533D01*
X152167982Y-121239866D02*
X151934649Y-121239866D01*
X151834649Y-121606533D02*
X152167982Y-121606533D01*
X152167982Y-121606533D02*
X152167982Y-120906533D01*
X152167982Y-120906533D02*
X151834649Y-120906533D01*
X151534649Y-121606533D02*
X151534649Y-120906533D01*
X151534649Y-120906533D02*
X151367982Y-120906533D01*
X151367982Y-120906533D02*
X151267982Y-120939866D01*
X151267982Y-120939866D02*
X151201316Y-121006533D01*
X151201316Y-121006533D02*
X151167982Y-121073200D01*
X151167982Y-121073200D02*
X151134649Y-121206533D01*
X151134649Y-121206533D02*
X151134649Y-121306533D01*
X151134649Y-121306533D02*
X151167982Y-121439866D01*
X151167982Y-121439866D02*
X151201316Y-121506533D01*
X151201316Y-121506533D02*
X151267982Y-121573200D01*
X151267982Y-121573200D02*
X151367982Y-121606533D01*
X151367982Y-121606533D02*
X151534649Y-121606533D01*
X150534649Y-121139866D02*
X150534649Y-121606533D01*
X150701316Y-120873200D02*
X150867982Y-121373200D01*
X150867982Y-121373200D02*
X150434649Y-121373200D01*
X200067982Y-121173200D02*
X199967982Y-121206533D01*
X199967982Y-121206533D02*
X199801316Y-121206533D01*
X199801316Y-121206533D02*
X199734649Y-121173200D01*
X199734649Y-121173200D02*
X199701316Y-121139866D01*
X199701316Y-121139866D02*
X199667982Y-121073200D01*
X199667982Y-121073200D02*
X199667982Y-121006533D01*
X199667982Y-121006533D02*
X199701316Y-120939866D01*
X199701316Y-120939866D02*
X199734649Y-120906533D01*
X199734649Y-120906533D02*
X199801316Y-120873200D01*
X199801316Y-120873200D02*
X199934649Y-120839866D01*
X199934649Y-120839866D02*
X200001316Y-120806533D01*
X200001316Y-120806533D02*
X200034649Y-120773200D01*
X200034649Y-120773200D02*
X200067982Y-120706533D01*
X200067982Y-120706533D02*
X200067982Y-120639866D01*
X200067982Y-120639866D02*
X200034649Y-120573200D01*
X200034649Y-120573200D02*
X200001316Y-120539866D01*
X200001316Y-120539866D02*
X199934649Y-120506533D01*
X199934649Y-120506533D02*
X199767982Y-120506533D01*
X199767982Y-120506533D02*
X199667982Y-120539866D01*
X199434649Y-120506533D02*
X199267982Y-121206533D01*
X199267982Y-121206533D02*
X199134649Y-120706533D01*
X199134649Y-120706533D02*
X199001315Y-121206533D01*
X199001315Y-121206533D02*
X198834649Y-120506533D01*
X198201315Y-121206533D02*
X198601315Y-121206533D01*
X198401315Y-121206533D02*
X198401315Y-120506533D01*
X198401315Y-120506533D02*
X198467982Y-120606533D01*
X198467982Y-120606533D02*
X198534649Y-120673200D01*
X198534649Y-120673200D02*
X198601315Y-120706533D01*
X118601316Y-96606533D02*
X118934649Y-96606533D01*
X118934649Y-96606533D02*
X118934649Y-95906533D01*
X118367982Y-96239866D02*
X118134649Y-96239866D01*
X118034649Y-96606533D02*
X118367982Y-96606533D01*
X118367982Y-96606533D02*
X118367982Y-95906533D01*
X118367982Y-95906533D02*
X118034649Y-95906533D01*
X117734649Y-96606533D02*
X117734649Y-95906533D01*
X117734649Y-95906533D02*
X117567982Y-95906533D01*
X117567982Y-95906533D02*
X117467982Y-95939866D01*
X117467982Y-95939866D02*
X117401316Y-96006533D01*
X117401316Y-96006533D02*
X117367982Y-96073200D01*
X117367982Y-96073200D02*
X117334649Y-96206533D01*
X117334649Y-96206533D02*
X117334649Y-96306533D01*
X117334649Y-96306533D02*
X117367982Y-96439866D01*
X117367982Y-96439866D02*
X117401316Y-96506533D01*
X117401316Y-96506533D02*
X117467982Y-96573200D01*
X117467982Y-96573200D02*
X117567982Y-96606533D01*
X117567982Y-96606533D02*
X117734649Y-96606533D01*
X117001316Y-96606533D02*
X116867982Y-96606533D01*
X116867982Y-96606533D02*
X116801316Y-96573200D01*
X116801316Y-96573200D02*
X116767982Y-96539866D01*
X116767982Y-96539866D02*
X116701316Y-96439866D01*
X116701316Y-96439866D02*
X116667982Y-96306533D01*
X116667982Y-96306533D02*
X116667982Y-96039866D01*
X116667982Y-96039866D02*
X116701316Y-95973200D01*
X116701316Y-95973200D02*
X116734649Y-95939866D01*
X116734649Y-95939866D02*
X116801316Y-95906533D01*
X116801316Y-95906533D02*
X116934649Y-95906533D01*
X116934649Y-95906533D02*
X117001316Y-95939866D01*
X117001316Y-95939866D02*
X117034649Y-95973200D01*
X117034649Y-95973200D02*
X117067982Y-96039866D01*
X117067982Y-96039866D02*
X117067982Y-96206533D01*
X117067982Y-96206533D02*
X117034649Y-96273200D01*
X117034649Y-96273200D02*
X117001316Y-96306533D01*
X117001316Y-96306533D02*
X116934649Y-96339866D01*
X116934649Y-96339866D02*
X116801316Y-96339866D01*
X116801316Y-96339866D02*
X116734649Y-96306533D01*
X116734649Y-96306533D02*
X116701316Y-96273200D01*
X116701316Y-96273200D02*
X116667982Y-96206533D01*
X127601316Y-121706533D02*
X127934649Y-121706533D01*
X127934649Y-121706533D02*
X127934649Y-121006533D01*
X127367982Y-121339866D02*
X127134649Y-121339866D01*
X127034649Y-121706533D02*
X127367982Y-121706533D01*
X127367982Y-121706533D02*
X127367982Y-121006533D01*
X127367982Y-121006533D02*
X127034649Y-121006533D01*
X126734649Y-121706533D02*
X126734649Y-121006533D01*
X126734649Y-121006533D02*
X126567982Y-121006533D01*
X126567982Y-121006533D02*
X126467982Y-121039866D01*
X126467982Y-121039866D02*
X126401316Y-121106533D01*
X126401316Y-121106533D02*
X126367982Y-121173200D01*
X126367982Y-121173200D02*
X126334649Y-121306533D01*
X126334649Y-121306533D02*
X126334649Y-121406533D01*
X126334649Y-121406533D02*
X126367982Y-121539866D01*
X126367982Y-121539866D02*
X126401316Y-121606533D01*
X126401316Y-121606533D02*
X126467982Y-121673200D01*
X126467982Y-121673200D02*
X126567982Y-121706533D01*
X126567982Y-121706533D02*
X126734649Y-121706533D01*
X125934649Y-121306533D02*
X126001316Y-121273200D01*
X126001316Y-121273200D02*
X126034649Y-121239866D01*
X126034649Y-121239866D02*
X126067982Y-121173200D01*
X126067982Y-121173200D02*
X126067982Y-121139866D01*
X126067982Y-121139866D02*
X126034649Y-121073200D01*
X126034649Y-121073200D02*
X126001316Y-121039866D01*
X126001316Y-121039866D02*
X125934649Y-121006533D01*
X125934649Y-121006533D02*
X125801316Y-121006533D01*
X125801316Y-121006533D02*
X125734649Y-121039866D01*
X125734649Y-121039866D02*
X125701316Y-121073200D01*
X125701316Y-121073200D02*
X125667982Y-121139866D01*
X125667982Y-121139866D02*
X125667982Y-121173200D01*
X125667982Y-121173200D02*
X125701316Y-121239866D01*
X125701316Y-121239866D02*
X125734649Y-121273200D01*
X125734649Y-121273200D02*
X125801316Y-121306533D01*
X125801316Y-121306533D02*
X125934649Y-121306533D01*
X125934649Y-121306533D02*
X126001316Y-121339866D01*
X126001316Y-121339866D02*
X126034649Y-121373200D01*
X126034649Y-121373200D02*
X126067982Y-121439866D01*
X126067982Y-121439866D02*
X126067982Y-121573200D01*
X126067982Y-121573200D02*
X126034649Y-121639866D01*
X126034649Y-121639866D02*
X126001316Y-121673200D01*
X126001316Y-121673200D02*
X125934649Y-121706533D01*
X125934649Y-121706533D02*
X125801316Y-121706533D01*
X125801316Y-121706533D02*
X125734649Y-121673200D01*
X125734649Y-121673200D02*
X125701316Y-121639866D01*
X125701316Y-121639866D02*
X125667982Y-121573200D01*
X125667982Y-121573200D02*
X125667982Y-121439866D01*
X125667982Y-121439866D02*
X125701316Y-121373200D01*
X125701316Y-121373200D02*
X125734649Y-121339866D01*
X125734649Y-121339866D02*
X125801316Y-121306533D01*
X158701316Y-121706533D02*
X159034649Y-121706533D01*
X159034649Y-121706533D02*
X159034649Y-121006533D01*
X158467982Y-121339866D02*
X158234649Y-121339866D01*
X158134649Y-121706533D02*
X158467982Y-121706533D01*
X158467982Y-121706533D02*
X158467982Y-121006533D01*
X158467982Y-121006533D02*
X158134649Y-121006533D01*
X157834649Y-121706533D02*
X157834649Y-121006533D01*
X157834649Y-121006533D02*
X157667982Y-121006533D01*
X157667982Y-121006533D02*
X157567982Y-121039866D01*
X157567982Y-121039866D02*
X157501316Y-121106533D01*
X157501316Y-121106533D02*
X157467982Y-121173200D01*
X157467982Y-121173200D02*
X157434649Y-121306533D01*
X157434649Y-121306533D02*
X157434649Y-121406533D01*
X157434649Y-121406533D02*
X157467982Y-121539866D01*
X157467982Y-121539866D02*
X157501316Y-121606533D01*
X157501316Y-121606533D02*
X157567982Y-121673200D01*
X157567982Y-121673200D02*
X157667982Y-121706533D01*
X157667982Y-121706533D02*
X157834649Y-121706533D01*
X157201316Y-121006533D02*
X156767982Y-121006533D01*
X156767982Y-121006533D02*
X157001316Y-121273200D01*
X157001316Y-121273200D02*
X156901316Y-121273200D01*
X156901316Y-121273200D02*
X156834649Y-121306533D01*
X156834649Y-121306533D02*
X156801316Y-121339866D01*
X156801316Y-121339866D02*
X156767982Y-121406533D01*
X156767982Y-121406533D02*
X156767982Y-121573200D01*
X156767982Y-121573200D02*
X156801316Y-121639866D01*
X156801316Y-121639866D02*
X156834649Y-121673200D01*
X156834649Y-121673200D02*
X156901316Y-121706533D01*
X156901316Y-121706533D02*
X157101316Y-121706533D01*
X157101316Y-121706533D02*
X157167982Y-121673200D01*
X157167982Y-121673200D02*
X157201316Y-121639866D01*
X171501316Y-121706533D02*
X171834649Y-121706533D01*
X171834649Y-121706533D02*
X171834649Y-121006533D01*
X171267982Y-121339866D02*
X171034649Y-121339866D01*
X170934649Y-121706533D02*
X171267982Y-121706533D01*
X171267982Y-121706533D02*
X171267982Y-121006533D01*
X171267982Y-121006533D02*
X170934649Y-121006533D01*
X170634649Y-121706533D02*
X170634649Y-121006533D01*
X170634649Y-121006533D02*
X170467982Y-121006533D01*
X170467982Y-121006533D02*
X170367982Y-121039866D01*
X170367982Y-121039866D02*
X170301316Y-121106533D01*
X170301316Y-121106533D02*
X170267982Y-121173200D01*
X170267982Y-121173200D02*
X170234649Y-121306533D01*
X170234649Y-121306533D02*
X170234649Y-121406533D01*
X170234649Y-121406533D02*
X170267982Y-121539866D01*
X170267982Y-121539866D02*
X170301316Y-121606533D01*
X170301316Y-121606533D02*
X170367982Y-121673200D01*
X170367982Y-121673200D02*
X170467982Y-121706533D01*
X170467982Y-121706533D02*
X170634649Y-121706533D01*
X169567982Y-121706533D02*
X169967982Y-121706533D01*
X169767982Y-121706533D02*
X169767982Y-121006533D01*
X169767982Y-121006533D02*
X169834649Y-121106533D01*
X169834649Y-121106533D02*
X169901316Y-121173200D01*
X169901316Y-121173200D02*
X169967982Y-121206533D01*
X123263220Y-101069819D02*
X123263220Y-100069819D01*
X123263220Y-100069819D02*
X122882268Y-100069819D01*
X122882268Y-100069819D02*
X122787030Y-100117438D01*
X122787030Y-100117438D02*
X122739411Y-100165057D01*
X122739411Y-100165057D02*
X122691792Y-100260295D01*
X122691792Y-100260295D02*
X122691792Y-100403152D01*
X122691792Y-100403152D02*
X122739411Y-100498390D01*
X122739411Y-100498390D02*
X122787030Y-100546009D01*
X122787030Y-100546009D02*
X122882268Y-100593628D01*
X122882268Y-100593628D02*
X123263220Y-100593628D01*
X122263220Y-101069819D02*
X122263220Y-100069819D01*
X121882268Y-100069819D02*
X121263221Y-100069819D01*
X121263221Y-100069819D02*
X121596554Y-100450771D01*
X121596554Y-100450771D02*
X121453697Y-100450771D01*
X121453697Y-100450771D02*
X121358459Y-100498390D01*
X121358459Y-100498390D02*
X121310840Y-100546009D01*
X121310840Y-100546009D02*
X121263221Y-100641247D01*
X121263221Y-100641247D02*
X121263221Y-100879342D01*
X121263221Y-100879342D02*
X121310840Y-100974580D01*
X121310840Y-100974580D02*
X121358459Y-101022200D01*
X121358459Y-101022200D02*
X121453697Y-101069819D01*
X121453697Y-101069819D02*
X121739411Y-101069819D01*
X121739411Y-101069819D02*
X121834649Y-101022200D01*
X121834649Y-101022200D02*
X121882268Y-100974580D01*
X184563220Y-100569819D02*
X184563220Y-99569819D01*
X184563220Y-99569819D02*
X184182268Y-99569819D01*
X184182268Y-99569819D02*
X184087030Y-99617438D01*
X184087030Y-99617438D02*
X184039411Y-99665057D01*
X184039411Y-99665057D02*
X183991792Y-99760295D01*
X183991792Y-99760295D02*
X183991792Y-99903152D01*
X183991792Y-99903152D02*
X184039411Y-99998390D01*
X184039411Y-99998390D02*
X184087030Y-100046009D01*
X184087030Y-100046009D02*
X184182268Y-100093628D01*
X184182268Y-100093628D02*
X184563220Y-100093628D01*
X183563220Y-100569819D02*
X183563220Y-99569819D01*
X182563221Y-100569819D02*
X183134649Y-100569819D01*
X182848935Y-100569819D02*
X182848935Y-99569819D01*
X182848935Y-99569819D02*
X182944173Y-99712676D01*
X182944173Y-99712676D02*
X183039411Y-99807914D01*
X183039411Y-99807914D02*
X183134649Y-99855533D01*
X152937800Y-108108941D02*
X152937800Y-107108941D01*
X152937800Y-107108941D02*
X152556848Y-107108941D01*
X152556848Y-107108941D02*
X152461610Y-107156560D01*
X152461610Y-107156560D02*
X152413991Y-107204179D01*
X152413991Y-107204179D02*
X152366372Y-107299417D01*
X152366372Y-107299417D02*
X152366372Y-107442274D01*
X152366372Y-107442274D02*
X152413991Y-107537512D01*
X152413991Y-107537512D02*
X152461610Y-107585131D01*
X152461610Y-107585131D02*
X152556848Y-107632750D01*
X152556848Y-107632750D02*
X152937800Y-107632750D01*
X151937800Y-108108941D02*
X151937800Y-107108941D01*
X151509229Y-107204179D02*
X151461610Y-107156560D01*
X151461610Y-107156560D02*
X151366372Y-107108941D01*
X151366372Y-107108941D02*
X151128277Y-107108941D01*
X151128277Y-107108941D02*
X151033039Y-107156560D01*
X151033039Y-107156560D02*
X150985420Y-107204179D01*
X150985420Y-107204179D02*
X150937801Y-107299417D01*
X150937801Y-107299417D02*
X150937801Y-107394655D01*
X150937801Y-107394655D02*
X150985420Y-107537512D01*
X150985420Y-107537512D02*
X151556848Y-108108941D01*
X151556848Y-108108941D02*
X150937801Y-108108941D01*
X165301316Y-121706533D02*
X165634649Y-121706533D01*
X165634649Y-121706533D02*
X165634649Y-121006533D01*
X165067982Y-121339866D02*
X164834649Y-121339866D01*
X164734649Y-121706533D02*
X165067982Y-121706533D01*
X165067982Y-121706533D02*
X165067982Y-121006533D01*
X165067982Y-121006533D02*
X164734649Y-121006533D01*
X164434649Y-121706533D02*
X164434649Y-121006533D01*
X164434649Y-121006533D02*
X164267982Y-121006533D01*
X164267982Y-121006533D02*
X164167982Y-121039866D01*
X164167982Y-121039866D02*
X164101316Y-121106533D01*
X164101316Y-121106533D02*
X164067982Y-121173200D01*
X164067982Y-121173200D02*
X164034649Y-121306533D01*
X164034649Y-121306533D02*
X164034649Y-121406533D01*
X164034649Y-121406533D02*
X164067982Y-121539866D01*
X164067982Y-121539866D02*
X164101316Y-121606533D01*
X164101316Y-121606533D02*
X164167982Y-121673200D01*
X164167982Y-121673200D02*
X164267982Y-121706533D01*
X164267982Y-121706533D02*
X164434649Y-121706533D01*
X163767982Y-121073200D02*
X163734649Y-121039866D01*
X163734649Y-121039866D02*
X163667982Y-121006533D01*
X163667982Y-121006533D02*
X163501316Y-121006533D01*
X163501316Y-121006533D02*
X163434649Y-121039866D01*
X163434649Y-121039866D02*
X163401316Y-121073200D01*
X163401316Y-121073200D02*
X163367982Y-121139866D01*
X163367982Y-121139866D02*
X163367982Y-121206533D01*
X163367982Y-121206533D02*
X163401316Y-121306533D01*
X163401316Y-121306533D02*
X163801316Y-121706533D01*
X163801316Y-121706533D02*
X163367982Y-121706533D01*
X139601316Y-121606533D02*
X139934649Y-121606533D01*
X139934649Y-121606533D02*
X139934649Y-120906533D01*
X139367982Y-121239866D02*
X139134649Y-121239866D01*
X139034649Y-121606533D02*
X139367982Y-121606533D01*
X139367982Y-121606533D02*
X139367982Y-120906533D01*
X139367982Y-120906533D02*
X139034649Y-120906533D01*
X138734649Y-121606533D02*
X138734649Y-120906533D01*
X138734649Y-120906533D02*
X138567982Y-120906533D01*
X138567982Y-120906533D02*
X138467982Y-120939866D01*
X138467982Y-120939866D02*
X138401316Y-121006533D01*
X138401316Y-121006533D02*
X138367982Y-121073200D01*
X138367982Y-121073200D02*
X138334649Y-121206533D01*
X138334649Y-121206533D02*
X138334649Y-121306533D01*
X138334649Y-121306533D02*
X138367982Y-121439866D01*
X138367982Y-121439866D02*
X138401316Y-121506533D01*
X138401316Y-121506533D02*
X138467982Y-121573200D01*
X138467982Y-121573200D02*
X138567982Y-121606533D01*
X138567982Y-121606533D02*
X138734649Y-121606533D01*
X137734649Y-120906533D02*
X137867982Y-120906533D01*
X137867982Y-120906533D02*
X137934649Y-120939866D01*
X137934649Y-120939866D02*
X137967982Y-120973200D01*
X137967982Y-120973200D02*
X138034649Y-121073200D01*
X138034649Y-121073200D02*
X138067982Y-121206533D01*
X138067982Y-121206533D02*
X138067982Y-121473200D01*
X138067982Y-121473200D02*
X138034649Y-121539866D01*
X138034649Y-121539866D02*
X138001316Y-121573200D01*
X138001316Y-121573200D02*
X137934649Y-121606533D01*
X137934649Y-121606533D02*
X137801316Y-121606533D01*
X137801316Y-121606533D02*
X137734649Y-121573200D01*
X137734649Y-121573200D02*
X137701316Y-121539866D01*
X137701316Y-121539866D02*
X137667982Y-121473200D01*
X137667982Y-121473200D02*
X137667982Y-121306533D01*
X137667982Y-121306533D02*
X137701316Y-121239866D01*
X137701316Y-121239866D02*
X137734649Y-121206533D01*
X137734649Y-121206533D02*
X137801316Y-121173200D01*
X137801316Y-121173200D02*
X137934649Y-121173200D01*
X137934649Y-121173200D02*
X138001316Y-121206533D01*
X138001316Y-121206533D02*
X138034649Y-121239866D01*
X138034649Y-121239866D02*
X138067982Y-121306533D01*
D11*
X133384869Y-121705233D02*
X133718202Y-121705233D01*
X133718202Y-121705233D02*
X133718202Y-121005233D01*
X133151535Y-121338566D02*
X132918202Y-121338566D01*
X132818202Y-121705233D02*
X133151535Y-121705233D01*
X133151535Y-121705233D02*
X133151535Y-121005233D01*
X133151535Y-121005233D02*
X132818202Y-121005233D01*
X132518202Y-121705233D02*
X132518202Y-121005233D01*
X132518202Y-121005233D02*
X132351535Y-121005233D01*
X132351535Y-121005233D02*
X132251535Y-121038566D01*
X132251535Y-121038566D02*
X132184869Y-121105233D01*
X132184869Y-121105233D02*
X132151535Y-121171900D01*
X132151535Y-121171900D02*
X132118202Y-121305233D01*
X132118202Y-121305233D02*
X132118202Y-121405233D01*
X132118202Y-121405233D02*
X132151535Y-121538566D01*
X132151535Y-121538566D02*
X132184869Y-121605233D01*
X132184869Y-121605233D02*
X132251535Y-121671900D01*
X132251535Y-121671900D02*
X132351535Y-121705233D01*
X132351535Y-121705233D02*
X132518202Y-121705233D01*
X131884869Y-121005233D02*
X131418202Y-121005233D01*
X131418202Y-121005233D02*
X131718202Y-121705233D01*
D10*
X146001316Y-121606533D02*
X146334649Y-121606533D01*
X146334649Y-121606533D02*
X146334649Y-120906533D01*
X145767982Y-121239866D02*
X145534649Y-121239866D01*
X145434649Y-121606533D02*
X145767982Y-121606533D01*
X145767982Y-121606533D02*
X145767982Y-120906533D01*
X145767982Y-120906533D02*
X145434649Y-120906533D01*
X145134649Y-121606533D02*
X145134649Y-120906533D01*
X145134649Y-120906533D02*
X144967982Y-120906533D01*
X144967982Y-120906533D02*
X144867982Y-120939866D01*
X144867982Y-120939866D02*
X144801316Y-121006533D01*
X144801316Y-121006533D02*
X144767982Y-121073200D01*
X144767982Y-121073200D02*
X144734649Y-121206533D01*
X144734649Y-121206533D02*
X144734649Y-121306533D01*
X144734649Y-121306533D02*
X144767982Y-121439866D01*
X144767982Y-121439866D02*
X144801316Y-121506533D01*
X144801316Y-121506533D02*
X144867982Y-121573200D01*
X144867982Y-121573200D02*
X144967982Y-121606533D01*
X144967982Y-121606533D02*
X145134649Y-121606533D01*
X144101316Y-120906533D02*
X144434649Y-120906533D01*
X144434649Y-120906533D02*
X144467982Y-121239866D01*
X144467982Y-121239866D02*
X144434649Y-121206533D01*
X144434649Y-121206533D02*
X144367982Y-121173200D01*
X144367982Y-121173200D02*
X144201316Y-121173200D01*
X144201316Y-121173200D02*
X144134649Y-121206533D01*
X144134649Y-121206533D02*
X144101316Y-121239866D01*
X144101316Y-121239866D02*
X144067982Y-121306533D01*
X144067982Y-121306533D02*
X144067982Y-121473200D01*
X144067982Y-121473200D02*
X144101316Y-121539866D01*
X144101316Y-121539866D02*
X144134649Y-121573200D01*
X144134649Y-121573200D02*
X144201316Y-121606533D01*
X144201316Y-121606533D02*
X144367982Y-121606533D01*
X144367982Y-121606533D02*
X144434649Y-121573200D01*
X144434649Y-121573200D02*
X144467982Y-121539866D01*
D12*
%TO.C,LED10*%
X176501100Y-93500400D02*
X181501100Y-93500400D01*
X176501100Y-98500400D02*
X176501100Y-93500400D01*
X176501100Y-98500400D02*
X181501100Y-98500400D01*
X180301100Y-93200400D02*
X180701100Y-92800400D01*
X180601100Y-93500400D02*
X180301100Y-93200400D01*
X180701100Y-92800400D02*
X181501100Y-93500400D01*
X181501100Y-93500400D02*
X181501100Y-98500400D01*
X181501100Y-94400400D02*
X180601100Y-93500400D01*
%TO.C,LED4*%
X148501900Y-119566000D02*
X149201900Y-118766000D01*
X148901900Y-119966000D02*
X148501900Y-119566000D01*
X149201900Y-118766000D02*
X154201900Y-118766000D01*
X149201900Y-119666000D02*
X148901900Y-119966000D01*
X149201900Y-123766000D02*
X149201900Y-118766000D01*
X150101900Y-118766000D02*
X149201900Y-119666000D01*
X154201900Y-123766000D02*
X149201900Y-123766000D01*
X154201900Y-123766000D02*
X154201900Y-118766000D01*
%TO.C,SW1*%
X197750000Y-117650000D02*
X201150000Y-117650000D01*
X201150000Y-124450000D01*
X197750000Y-124450000D01*
X197750000Y-117650000D01*
%TO.C,LED9*%
X115501100Y-93500400D02*
X120501100Y-93500400D01*
X115501100Y-98500400D02*
X115501100Y-93500400D01*
X115501100Y-98500400D02*
X120501100Y-98500400D01*
X119301100Y-93200400D02*
X119701100Y-92800400D01*
X119601100Y-93500400D02*
X119301100Y-93200400D01*
X119701100Y-92800400D02*
X120501100Y-93500400D01*
X120501100Y-93500400D02*
X120501100Y-98500400D01*
X120501100Y-94400400D02*
X119601100Y-93500400D01*
%TO.C,LED8*%
X123101900Y-119566000D02*
X123801900Y-118766000D01*
X123501900Y-119966000D02*
X123101900Y-119566000D01*
X123801900Y-118766000D02*
X128801900Y-118766000D01*
X123801900Y-119666000D02*
X123501900Y-119966000D01*
X123801900Y-123766000D02*
X123801900Y-118766000D01*
X124701900Y-118766000D02*
X123801900Y-119666000D01*
X128801900Y-123766000D02*
X123801900Y-123766000D01*
X128801900Y-123766000D02*
X128801900Y-118766000D01*
%TO.C,LED3*%
X154851900Y-119566000D02*
X155551900Y-118766000D01*
X155251900Y-119966000D02*
X154851900Y-119566000D01*
X155551900Y-118766000D02*
X160551900Y-118766000D01*
X155551900Y-119666000D02*
X155251900Y-119966000D01*
X155551900Y-123766000D02*
X155551900Y-118766000D01*
X156451900Y-118766000D02*
X155551900Y-119666000D01*
X160551900Y-123766000D02*
X155551900Y-123766000D01*
X160551900Y-123766000D02*
X160551900Y-118766000D01*
%TO.C,LED1*%
X167551900Y-119566000D02*
X168251900Y-118766000D01*
X167951900Y-119966000D02*
X167551900Y-119566000D01*
X168251900Y-118766000D02*
X173251900Y-118766000D01*
X168251900Y-119666000D02*
X167951900Y-119966000D01*
X168251900Y-123766000D02*
X168251900Y-118766000D01*
X169151900Y-118766000D02*
X168251900Y-119666000D01*
X173251900Y-123766000D02*
X168251900Y-123766000D01*
X173251900Y-123766000D02*
X173251900Y-118766000D01*
%TO.C,PI3*%
X127501100Y-98903600D02*
X108501100Y-98903600D01*
X108501100Y-105103600D01*
X127501100Y-105103600D01*
X127501100Y-98903600D01*
%TO.C,PI1*%
X188501100Y-98903600D02*
X169501100Y-98903600D01*
X169501100Y-105103600D01*
X188501100Y-105103600D01*
X188501100Y-98903600D01*
%TO.C,PI2*%
X158001100Y-105903600D02*
X139001100Y-105903600D01*
X139001100Y-112103600D01*
X158001100Y-112103600D01*
X158001100Y-105903600D01*
%TO.C,LED2*%
X161201900Y-119566000D02*
X161901900Y-118766000D01*
X161601900Y-119966000D02*
X161201900Y-119566000D01*
X161901900Y-118766000D02*
X166901900Y-118766000D01*
X161901900Y-119666000D02*
X161601900Y-119966000D01*
X161901900Y-123766000D02*
X161901900Y-118766000D01*
X162801900Y-118766000D02*
X161901900Y-119666000D01*
X166901900Y-123766000D02*
X161901900Y-123766000D01*
X166901900Y-123766000D02*
X166901900Y-118766000D01*
%TO.C,LED6*%
X135801900Y-119566000D02*
X136501900Y-118766000D01*
X136201900Y-119966000D02*
X135801900Y-119566000D01*
X136501900Y-118766000D02*
X141501900Y-118766000D01*
X136501900Y-119666000D02*
X136201900Y-119966000D01*
X136501900Y-123766000D02*
X136501900Y-118766000D01*
X137401900Y-118766000D02*
X136501900Y-119666000D01*
X141501900Y-123766000D02*
X136501900Y-123766000D01*
X141501900Y-123766000D02*
X141501900Y-118766000D01*
%TO.C,LED7*%
X129451900Y-119566000D02*
X130151900Y-118766000D01*
X129851900Y-119966000D02*
X129451900Y-119566000D01*
X130151900Y-118766000D02*
X135151900Y-118766000D01*
X130151900Y-119666000D02*
X129851900Y-119966000D01*
X130151900Y-123766000D02*
X130151900Y-118766000D01*
X131051900Y-118766000D02*
X130151900Y-119666000D01*
X135151900Y-123766000D02*
X130151900Y-123766000D01*
X135151900Y-123766000D02*
X135151900Y-118766000D01*
%TO.C,LED5*%
X142151900Y-119566000D02*
X142851900Y-118766000D01*
X142551900Y-119966000D02*
X142151900Y-119566000D01*
X142851900Y-118766000D02*
X147851900Y-118766000D01*
X142851900Y-119666000D02*
X142551900Y-119966000D01*
X142851900Y-123766000D02*
X142851900Y-118766000D01*
X143751900Y-118766000D02*
X142851900Y-119666000D01*
X147851900Y-123766000D02*
X142851900Y-123766000D01*
X147851900Y-123766000D02*
X147851900Y-118766000D01*
%TD*%
D13*
X201101100Y-126403600D02*
X201101100Y-117203600D01*
X161501100Y-103003600D02*
X135501100Y-103003600D01*
X161501100Y-80003600D02*
X161501100Y-85751600D01*
X161501100Y-85751600D02*
X164097100Y-88347600D01*
X99501100Y-80003600D02*
X94501100Y-85003600D01*
X202221100Y-107883600D02*
X202501100Y-107603600D01*
X202501100Y-85003600D02*
X197501100Y-80003600D01*
X202221100Y-113323600D02*
X202221100Y-107883600D01*
X202501100Y-107603600D02*
X202501100Y-85003600D01*
X161501100Y-96983600D02*
X161501100Y-103003600D01*
X202501100Y-113603600D02*
X202221100Y-113323600D01*
X135501100Y-103003600D02*
X135501100Y-80003600D01*
X94501100Y-125003600D02*
X99501100Y-130003600D01*
X164097100Y-88347600D02*
X164097100Y-94443600D01*
X197501100Y-130003600D02*
X201101100Y-126403600D01*
X197501100Y-80003600D02*
X161501100Y-80003600D01*
X202501100Y-115803600D02*
X202501100Y-113603600D01*
X94501100Y-85003600D02*
X94501100Y-125003600D01*
X99501100Y-130003600D02*
X197501100Y-130003600D01*
X164097100Y-94443600D02*
X161501100Y-96983600D01*
X201101100Y-117203600D02*
X202501100Y-115803600D01*
X135501100Y-80003600D02*
X99501100Y-80003600D01*
M02*
