%TF.GenerationSoftware,KiCad,Pcbnew,9.0.2*%
%TF.CreationDate,2025-07-03T15:48:42+01:00*%
%TF.ProjectId,FED3,46454433-2e6b-4696-9361-645f70636258,rev?*%
%TF.SameCoordinates,Original*%
%TF.FileFunction,Other,User*%
%FSLAX46Y46*%
G04 Gerber Fmt 4.6, Leading zero omitted, Abs format (unit mm)*
G04 Created by KiCad (PCBNEW 9.0.2) date 2025-07-03 15:48:42*
%MOMM*%
%LPD*%
G01*
G04 APERTURE LIST*
%ADD10C,0.050000*%
%TA.AperFunction,Profile*%
%ADD11C,0.250000*%
%TD*%
G04 APERTURE END LIST*
%TO.C,LED10*%
D10*
X182351100Y-93350400D02*
X175651100Y-93350400D01*
X175651100Y-98600400D01*
X182351100Y-98600400D01*
X182351100Y-93350400D01*
%TO.C,LED4*%
X149051900Y-117916000D02*
X154301900Y-117916000D01*
X154301900Y-124616000D01*
X149051900Y-124616000D01*
X149051900Y-117916000D01*
%TO.C,LED9*%
X121351100Y-93350400D02*
X114651100Y-93350400D01*
X114651100Y-98600400D01*
X121351100Y-98600400D01*
X121351100Y-93350400D01*
%TO.C,LED8*%
X123651900Y-117916000D02*
X128901900Y-117916000D01*
X128901900Y-124616000D01*
X123651900Y-124616000D01*
X123651900Y-117916000D01*
%TO.C,LED3*%
X155401900Y-117916000D02*
X160651900Y-117916000D01*
X160651900Y-124616000D01*
X155401900Y-124616000D01*
X155401900Y-117916000D01*
%TO.C,LED1*%
X168101900Y-117916000D02*
X173351900Y-117916000D01*
X173351900Y-124616000D01*
X168101900Y-124616000D01*
X168101900Y-117916000D01*
%TO.C,PI3*%
X127501100Y-98903600D02*
X108501100Y-98903600D01*
X108501100Y-105103600D01*
X127501100Y-105103600D01*
X127501100Y-98903600D01*
%TO.C,PI1*%
X188501100Y-98903600D02*
X169501100Y-98903600D01*
X169501100Y-105103600D01*
X188501100Y-105103600D01*
X188501100Y-98903600D01*
%TO.C,PI2*%
X158001100Y-105903600D02*
X139001100Y-105903600D01*
X139001100Y-112103600D01*
X158001100Y-112103600D01*
X158001100Y-105903600D01*
%TO.C,LED2*%
X161751900Y-117916000D02*
X167001900Y-117916000D01*
X167001900Y-124616000D01*
X161751900Y-124616000D01*
X161751900Y-117916000D01*
%TO.C,LED6*%
X136351900Y-117916000D02*
X141601900Y-117916000D01*
X141601900Y-124616000D01*
X136351900Y-124616000D01*
X136351900Y-117916000D01*
%TO.C,LED7*%
X130001900Y-117916000D02*
X135251900Y-117916000D01*
X135251900Y-124616000D01*
X130001900Y-124616000D01*
X130001900Y-117916000D01*
%TO.C,LED5*%
X142701900Y-117916000D02*
X147951900Y-117916000D01*
X147951900Y-124616000D01*
X142701900Y-124616000D01*
X142701900Y-117916000D01*
%TD*%
D11*
X201101100Y-126403600D02*
X201101100Y-117203600D01*
X161501100Y-103003600D02*
X135501100Y-103003600D01*
X161501100Y-80003600D02*
X161501100Y-85751600D01*
X161501100Y-85751600D02*
X164097100Y-88347600D01*
X99501100Y-80003600D02*
X94501100Y-85003600D01*
X202221100Y-107883600D02*
X202501100Y-107603600D01*
X202501100Y-85003600D02*
X197501100Y-80003600D01*
X202221100Y-113323600D02*
X202221100Y-107883600D01*
X202501100Y-107603600D02*
X202501100Y-85003600D01*
X161501100Y-96983600D02*
X161501100Y-103003600D01*
X202501100Y-113603600D02*
X202221100Y-113323600D01*
X135501100Y-103003600D02*
X135501100Y-80003600D01*
X94501100Y-125003600D02*
X99501100Y-130003600D01*
X164097100Y-88347600D02*
X164097100Y-94443600D01*
X197501100Y-130003600D02*
X201101100Y-126403600D01*
X197501100Y-80003600D02*
X161501100Y-80003600D01*
X202501100Y-115803600D02*
X202501100Y-113603600D01*
X94501100Y-85003600D02*
X94501100Y-125003600D01*
X99501100Y-130003600D02*
X197501100Y-130003600D01*
X164097100Y-94443600D02*
X161501100Y-96983600D01*
X201101100Y-117203600D02*
X202501100Y-115803600D01*
X135501100Y-80003600D02*
X99501100Y-80003600D01*
M02*
