<?xml version="1.0" encoding="utf-8"?>
<!-- Generator: Adobe Illustrator 24.1.2, SVG Export Plug-In . SVG Version: 6.00 Build 0)  -->
<svg version="1.1" xmlns="http://www.w3.org/2000/svg" xmlns:xlink="http://www.w3.org/1999/xlink" x="0px" y="0px"
	 viewBox="0 0 100 100" style="enable-background:new 0 0 100 100;" xml:space="preserve">
<style type="text/css">
	.st0{display:none;}
	.st1{display:inline;fill-rule:evenodd;clip-rule:evenodd;fill:#B5B5B6;stroke:#000000;stroke-miterlimit:10;}
	.st2{display:inline;fill:none;stroke:#FFFFFF;stroke-miterlimit:10;}
	.st3{display:inline;}
	.st4{fill-rule:evenodd;clip-rule:evenodd;fill:none;stroke:#AF61B5;stroke-miterlimit:10;}
	
		.st5{fill-rule:evenodd;clip-rule:evenodd;fill:#CEACCA;stroke:#000000;stroke-width:0.957;stroke-linejoin:round;stroke-miterlimit:10;}
	.st6{fill-rule:evenodd;clip-rule:evenodd;fill:#FFFFFF;stroke:#000000;stroke-width:0.957;stroke-miterlimit:10;}
	
		.st7{fill-rule:evenodd;clip-rule:evenodd;fill:#DA714A;stroke:#000000;stroke-width:0.957;stroke-linejoin:round;stroke-miterlimit:10;}
	
		.st8{fill-rule:evenodd;clip-rule:evenodd;fill:#0E99C9;stroke:#000000;stroke-width:0.957;stroke-linejoin:round;stroke-miterlimit:10;}
	
		.st9{fill-rule:evenodd;clip-rule:evenodd;fill:#F4D050;stroke:#000000;stroke-width:0.957;stroke-linejoin:round;stroke-miterlimit:10;}
</style>
<g id="Layer_2" class="st0">
	<polygon class="st1" points="48.2,6.8 37.3,18.2 53.9,37.3 73.8,21.2 63.9,11.9 	"/>
</g>
<g id="Layer_1" class="st0">
	<line class="st2" x1="-0.3" y1="50" x2="99.7" y2="50"/>
	<g class="st3">
		<path class="st4" d="M50.8,0l37.7,24v15.6l-1.3,0.8L96,46v15.6l-10.8,6.2V77l-39.9,23L10.2,77.3c-6.9-4.4-8.8-13.4-1.7-17.4
			l7.2-4.1c-1.8-4.1-0.9-8.7,3.6-11.3l0.6-0.4l-6.4-4.1c-6.9-4.4-8.8-13.4-1.7-17.4L50.8,0L50.8,0z M53.7,10.4l14.5,9.9L59.1,26
			l-14.5-9.9L53.7,10.4L53.7,10.4z M81.6,69.8L56,84.5l-4.3-2.7l-6.3,3.4l-34-20.5c-4-2.4-4.3,6.3-0.4,8.8l34.4,22l36.1-20.7
			L81.6,69.8L81.6,69.8z M56.3,71.1l36.1-20.5v8.6L56.2,80L21.8,58c-3.9-2.5-3.6-11.2,0.4-8.8L56.3,71.1L56.3,71.1z M50.7,49.7
			l34.2-20.7v8.4l-34.2,21L14.3,36.1c-3.9-2.4-3.6-11.2,0.4-8.8L50.7,49.7L50.7,49.7z"/>
	</g>
</g>
<g id="Layer_4">
	<path class="st5" d="M85.6,62.3l-6.2,4.1v6.9l4.3,2.1L46.8,98.6c0,0-27.5-16.5-36.6-22.4c-3.3-2.2-4.8-6.7-4.8-8.9
		c-0.1-5,4.4-7.1,4.4-7.1l37-21.6L85.6,62.3z"/>
	<path class="st6" d="M79.4,66.4L46.8,86.2c0,0-24.2-15.2-34.2-21.5c-1-0.6-3.8-0.1-3.7,3c0.1,2.3,1.8,4.3,2.9,5
		c2,1.4,34.8,21.5,34.8,21.5l32.8-21V66.4z"/>
	<path class="st7" d="M95.2,47l-6.2,4.1V58l4.3,2.1L56.3,83.3c0,0-27.5-16.5-36.6-22.4c-3.3-2.2-4.8-6.7-4.8-8.9
		c-0.1-5,4.4-7.1,4.4-7.1l37-21.6L95.2,47z"/>
	<path class="st6" d="M88.9,51.1L56.3,70.9c0,0-24.2-15.2-34.2-21.5c-1-0.6-3.8-0.1-3.7,3c0.1,2.3,1.8,4.3,2.9,5
		c2,1.4,34.8,21.5,34.8,21.5l32.8-21V51.1z"/>
	<path class="st8" d="M89.4,25.9l-6.2,4.1v6.9l4.3,2.1L50.6,62.2c0,0-27.5-16.5-36.6-22.4c-3.3-2.2-4.8-6.7-4.8-8.9
		c-0.1-5,4.4-7.1,4.4-7.1l37-21.6L89.4,25.9z"/>
	<path class="st6" d="M83.2,30.1L50.6,49.9c0,0-24.2-15.2-34.2-21.5c-1-0.6-3.8-0.1-3.7,3c0.1,2.3,1.8,4.3,2.9,5
		c2,1.4,34.8,21.5,34.8,21.5l32.8-21V30.1z"/>
	<polygon class="st9" points="68.6,23.5 53.4,14.8 45.6,18.9 60.6,27.5 	"/>
	<path class="st8" d="M66.5,46.8"/>
</g>
</svg>
