M48
; DRILL file {KiCad 9.0.0} date 2025-04-22T12:37:27+0100
; FORMAT={-:-/ absolute / metric / decimal}
; #@! TF.CreationDate,2025-04-22T12:37:27+01:00
; #@! TF.GenerationSoftware,Kicad,Pcbnew,9.0.0
; #@! TF.FileFunction,Plated,1,4,PTH
FMAT,2
METRIC
; #@! TA.AperFunction,Plated,PTH,ViaDrill
T1C0.210
; #@! TA.AperFunction,Plated,PTH,ViaDrill
T2C0.300
; #@! TA.AperFunction,Plated,PTH,ViaDrill
T3C0.350
; #@! TA.AperFunction,Plated,PTH,ComponentDrill
T4C0.700
; #@! TA.AperFunction,Plated,PTH,ComponentDrill
T5C0.850
; #@! TA.AperFunction,Plated,PTH,ComponentDrill
T6C1.000
; #@! TA.AperFunction,Plated,PTH,ComponentDrill
T7C1.016
; #@! TA.AperFunction,Plated,PTH,ComponentDrill
T8C1.500
%
G90
G05
T1
X95.691Y-94.29
X95.714Y-117.221
X97.025Y-86.825
X97.977Y-126.548
X98.254Y-122.047
X98.815Y-96.779
X99.55Y-105.45
X100.263Y-81.59
X101.475Y-92.175
X101.725Y-110.225
X103.725Y-88.225
X103.725Y-98.3
X104.6Y-118.9
X104.65Y-116.0
X105.4Y-122.8
X105.475Y-83.975
X107.6Y-128.8
X108.0Y-112.3
X108.825Y-94.375
X108.85Y-118.8
X109.0Y-108.7
X109.05Y-122.525
X109.65Y-119.225
X110.525Y-112.9
X110.775Y-120.0
X111.6Y-118.875
X111.693Y-87.051
X111.693Y-91.496
X111.8Y-97.9
X111.9Y-126.0
X111.975Y-120.1
X112.075Y-114.975
X112.225Y-108.875
X112.475Y-121.4
X112.675Y-123.25
X113.075Y-122.1
X113.325Y-80.8
X113.9Y-129.0
X114.4Y-115.2
X114.5Y-98.62
X114.55Y-112.05
X115.2Y-122.3
X115.65Y-124.775
X115.95Y-103.1
X116.6Y-127.6
X116.65Y-105.9
X116.7Y-103.55
X117.0Y-113.8
X117.15Y-119.495
X117.3Y-86.6
X117.9Y-109.9
X117.95Y-118.995
X118.575Y-126.05
X118.6Y-107.0
X118.6Y-112.5
X119.4Y-108.4
X119.75Y-99.75
X119.75Y-104.3
X120.15Y-113.83
X121.3Y-86.6
X121.95Y-120.55
X122.0Y-98.75
X122.1Y-107.9
X122.225Y-112.425
X122.9Y-97.7
X123.0Y-127.2
X123.5Y-124.6
X124.3Y-86.4
X124.7Y-120.6
X125.2Y-125.1
X126.25Y-80.9
X126.6Y-86.6
X127.85Y-114.4
X128.083Y-94.833
X128.5Y-122.175
X128.8Y-127.2
X129.175Y-100.975
X129.4Y-123.8
X131.0Y-98.0
X131.025Y-106.9
X131.1Y-120.6
X131.505Y-114.476
X132.2Y-125.0
X133.05Y-111.55
X133.283Y-86.416
X133.75Y-103.05
X134.0Y-94.5
X134.6Y-80.8
X134.625Y-121.45
X135.5Y-123.716
X137.395Y-109.246
X137.4Y-120.6
X138.025Y-112.425
X139.0Y-127.775
X139.4Y-123.8
X141.875Y-122.5
X142.35Y-119.55
X143.7Y-112.25
X144.761Y-108.509
X145.1Y-125.8
X145.3Y-119.5
X145.425Y-129.125
X148.095Y-123.816
X148.325Y-122.475
X148.55Y-129.125
X149.65Y-120.85
X149.875Y-125.65
X152.025Y-119.475
X152.159Y-123.816
X152.7Y-108.7
X154.925Y-119.475
X155.075Y-122.9
X157.725Y-121.875
X158.595Y-112.335
X159.225Y-108.95
X160.06Y-116.2
X160.3Y-129.05
X161.125Y-122.9
X161.2Y-123.85
X161.25Y-119.5
X161.95Y-126.1
X161.977Y-115.749
X162.775Y-108.925
X162.925Y-120.9
X163.4Y-81.3
X163.5Y-96.5
X163.509Y-102.672
X163.75Y-86.25
X164.4Y-123.842
X164.55Y-126.05
X165.35Y-114.475
X165.8Y-106.975
X166.4Y-116.9
X166.625Y-114.825
X166.7Y-103.7
X166.999Y-112.534
X167.35Y-123.225
X167.775Y-118.85
X168.12Y-112.081
X168.2Y-113.775
X168.625Y-116.855
X168.795Y-111.69
X168.95Y-113.525
X169.27Y-115.425
X169.3Y-111.025
X169.356Y-117.097
X169.375Y-109.0
X169.45Y-127.05
X169.553Y-120.061
X169.9Y-106.9
X170.25Y-119.35
X170.3Y-117.0
X170.775Y-123.25
X170.85Y-108.2
X171.26Y-98.406
X171.713Y-107.787
X172.0Y-128.35
X172.616Y-117.309
X172.625Y-105.775
X172.65Y-107.75
X172.8Y-126.05
X173.15Y-114.5
X173.2Y-110.7
X173.4Y-117.3
X173.475Y-128.925
X173.692Y-84.455
X173.8Y-121.9
X173.973Y-120.559
X174.0Y-96.0
X174.15Y-103.275
X174.3Y-123.716
X174.4Y-121.2
X174.625Y-126.85
X174.725Y-124.725
X174.8Y-106.0
X174.925Y-114.575
X175.016Y-111.301
X175.05Y-121.65
X175.1Y-107.9
X175.2Y-99.4
X175.736Y-91.029
X176.7Y-102.0
X176.904Y-84.171
X177.0Y-117.148
X177.05Y-95.825
X177.15Y-107.1
X177.55Y-116.3
X177.8Y-90.5
X177.875Y-123.125
X178.206Y-115.7
X178.7Y-104.025
X178.8Y-97.9
X178.81Y-115.175
X178.925Y-107.2
X179.174Y-114.496
X179.178Y-113.645
X179.3Y-110.325
X179.4Y-111.3
X179.4Y-127.6
X179.75Y-116.775
X179.952Y-91.029
X180.225Y-108.4
X181.0Y-113.4
X181.0Y-127.45
X181.975Y-112.88
X182.275Y-115.4
X182.3Y-122.9
X182.85Y-112.88
X183.07Y-116.0
X183.07Y-125.3
X183.75Y-84.75
X183.75Y-118.7
X183.76Y-89.11
X184.6Y-115.1
X184.625Y-104.375
X184.775Y-124.4
X184.9Y-88.45
X184.969Y-93.142
X185.38Y-84.57
X185.7Y-117.35
X185.7Y-127.35
X185.95Y-98.2
X186.646Y-82.84
X186.691Y-111.201
X186.8Y-81.3
X186.975Y-106.0
X187.25Y-108.3
X187.9Y-89.425
X188.636Y-83.8
X188.865Y-121.0
X188.875Y-122.1
X188.975Y-127.5
X189.3Y-113.0
X189.4Y-119.55
X189.548Y-84.672
X189.625Y-123.2
X189.9Y-113.6
X189.95Y-115.2
X190.2Y-112.1
X190.35Y-124.25
X190.525Y-123.2
X190.7Y-108.15
X190.875Y-126.5
X190.9Y-125.4
X191.0Y-97.2
X191.3Y-90.9
X192.2Y-104.8
X192.23Y-112.07
X192.66Y-117.6
X192.875Y-116.0
X193.225Y-111.225
X193.469Y-109.448
X193.6Y-128.5
X194.338Y-109.371
X194.35Y-125.375
X194.54Y-115.3
X196.325Y-108.95
X196.34Y-120.17
X196.53Y-113.36
X197.034Y-90.526
X197.41Y-124.4
X197.799Y-82.352
X198.425Y-115.325
X199.075Y-126.75
X200.15Y-99.975
T2
X155.05Y-112.2
X158.6Y-115.0
T3
X181.9Y-109.18
X183.7Y-109.0
T4
X110.381Y-100.734
X110.401Y-103.304
X111.851Y-102.004
X125.601Y-100.764
X125.621Y-103.274
X140.881Y-107.734
X140.901Y-110.304
X142.351Y-109.004
X156.101Y-107.764
X156.121Y-110.274
X171.381Y-100.734
X171.401Y-103.304
X172.851Y-102.004
X186.601Y-100.764
X186.621Y-103.274
T5
X197.9Y-107.125
X197.9Y-111.975
T6
X152.175Y-125.475
X152.175Y-128.015
X154.715Y-125.475
X154.715Y-128.015
X157.255Y-125.475
X157.255Y-128.015
T7
X97.251Y-98.904
X97.251Y-101.444
X97.251Y-103.984
X97.251Y-106.524
X97.251Y-109.064
X97.251Y-111.604
X112.921Y-84.004
X115.461Y-84.004
X118.001Y-84.004
X120.541Y-84.004
X123.081Y-84.004
X126.51Y-110.18
X131.459Y-110.18
X139.154Y-125.736
X141.694Y-125.736
X175.691Y-82.226
X178.231Y-82.226
X180.771Y-82.226
X183.311Y-82.226
T8
X200.9Y-105.95
X200.9Y-113.15
M30
