G75*
%MOIN*%
%OFA0B0*%
%FSLAX24Y24*%
%IPPOS*%
%LPD*%
%AMOC8*
5,1,8,0,0,1.08239X$1,22.5*
%
%ADD10C,0.0476*%
%ADD11C,0.0600*%
%ADD12OC8,0.0600*%
%ADD13C,0.0554*%
%ADD14C,0.1181*%
%ADD15C,0.0906*%
%ADD16C,0.0535*%
%ADD17R,0.0354X0.0591*%
%ADD18C,0.0258*%
%ADD19C,0.0200*%
%ADD20C,0.0160*%
%ADD21C,0.0100*%
%ADD22C,0.0320*%
D10*
X018601Y020416D03*
X019172Y020928D03*
X018593Y021428D03*
X024585Y021416D03*
X024593Y020428D03*
X030609Y023172D03*
X031180Y023684D03*
X030601Y024184D03*
X036593Y024172D03*
X036601Y023184D03*
X012585Y023184D03*
X012577Y024172D03*
X007164Y023684D03*
X006593Y023172D03*
X006585Y024184D03*
D11*
X001716Y023904D02*
X001116Y023904D01*
X001116Y022904D02*
X001716Y022904D01*
X001716Y021904D02*
X001116Y021904D01*
X001116Y020904D02*
X001716Y020904D01*
X001716Y019904D02*
X001116Y019904D01*
X001116Y024904D02*
X001716Y024904D01*
X007585Y030470D02*
X007585Y031070D01*
X008585Y031070D02*
X008585Y030470D01*
X009585Y030470D02*
X009585Y031070D01*
X010585Y031070D02*
X010585Y030470D01*
X011585Y030470D02*
X011585Y031070D01*
X029085Y021944D02*
X029085Y021344D01*
X030085Y021344D02*
X030085Y021944D01*
X031085Y021944D02*
X031085Y021344D01*
X032085Y021344D02*
X032085Y021944D01*
X033085Y021944D02*
X033085Y021344D01*
X034085Y021344D02*
X034085Y021944D01*
X035085Y021944D02*
X035085Y021344D01*
X036085Y021344D02*
X036085Y021944D01*
X037085Y021944D02*
X037085Y021344D01*
X038085Y021344D02*
X038085Y021944D01*
X039085Y021944D02*
X039085Y021344D01*
X040085Y021344D02*
X040085Y021944D01*
X040117Y013944D02*
X040117Y013344D01*
X039117Y013344D02*
X039117Y013944D01*
X038117Y013944D02*
X038117Y013344D01*
X037117Y013344D02*
X037117Y013944D01*
X036117Y013944D02*
X036117Y013344D01*
X035117Y013344D02*
X035117Y013944D01*
X034117Y013944D02*
X034117Y013344D01*
X033117Y013344D02*
X033117Y013944D01*
X032117Y013944D02*
X032117Y013344D01*
X031117Y013344D02*
X031117Y013944D01*
X030117Y013944D02*
X030117Y013344D01*
X029117Y013344D02*
X029117Y013944D01*
X028117Y013944D02*
X028117Y013344D01*
X027117Y013344D02*
X027117Y013944D01*
X026117Y013944D02*
X026117Y013344D01*
X025117Y013344D02*
X025117Y013944D01*
X032298Y031170D02*
X032298Y031770D01*
X033298Y031770D02*
X033298Y031170D01*
X034298Y031170D02*
X034298Y031770D01*
X035298Y031770D02*
X035298Y031170D01*
D12*
X014880Y020487D03*
X012932Y020487D03*
D13*
X037900Y027325D03*
X037900Y028325D03*
D14*
X039900Y029325D03*
X039900Y025325D03*
D15*
X042248Y021732D03*
X042248Y018897D03*
D16*
X041067Y019360D03*
X041067Y021269D03*
D17*
X031003Y017065D03*
X029704Y017065D03*
X028503Y017065D03*
X027204Y017065D03*
X026003Y017065D03*
X024704Y017065D03*
X023503Y017065D03*
X022204Y017065D03*
X021003Y017065D03*
X019704Y017065D03*
X018503Y017065D03*
X017204Y017065D03*
X016003Y017065D03*
X014704Y017065D03*
X013503Y017065D03*
X012204Y017065D03*
X012204Y015135D03*
X013503Y015135D03*
X014704Y015135D03*
X016003Y015135D03*
X017204Y015135D03*
X018503Y015135D03*
X019704Y015135D03*
X021003Y015135D03*
X022204Y015135D03*
X023503Y015135D03*
X024704Y015135D03*
X026003Y015135D03*
X027204Y015135D03*
X028503Y015135D03*
X029704Y015135D03*
X031003Y015135D03*
D18*
X031533Y015060D03*
X031651Y015582D03*
X032594Y014855D03*
X032611Y014222D03*
X031621Y014312D03*
X031601Y013142D03*
X032601Y013142D03*
X033621Y014192D03*
X033621Y015052D03*
X034231Y015582D03*
X034433Y016160D03*
X035471Y016072D03*
X036083Y016274D03*
X035911Y017962D03*
X036055Y019160D03*
X035683Y019674D03*
X034601Y019672D03*
X033601Y019682D03*
X032601Y019712D03*
X031563Y019810D03*
X030533Y019960D03*
X029761Y019672D03*
X029533Y020160D03*
X028163Y019710D03*
X026711Y019353D03*
X026564Y020140D03*
X026151Y020722D03*
X026911Y021082D03*
X026083Y021274D03*
X026783Y022074D03*
X025333Y022553D03*
X027502Y023421D03*
X028283Y021174D03*
X029900Y018669D03*
X030363Y018610D03*
X030705Y018278D03*
X031123Y018168D03*
X030433Y017060D03*
X029133Y017060D03*
X029151Y017682D03*
X028531Y017802D03*
X026581Y017722D03*
X026533Y017060D03*
X025371Y017732D03*
X024641Y017752D03*
X024033Y016960D03*
X023183Y017774D03*
X021433Y016460D03*
X022233Y015860D03*
X023141Y015742D03*
X023671Y015802D03*
X023033Y015096D03*
X023383Y014174D03*
X022971Y013882D03*
X022183Y014174D03*
X021281Y014172D03*
X021433Y015096D03*
X019921Y014102D03*
X018591Y014192D03*
X017933Y015106D03*
X016661Y014712D03*
X016583Y015106D03*
X015691Y014322D03*
X015241Y015422D03*
X014621Y016192D03*
X013991Y016622D03*
X015341Y016972D03*
X015475Y018188D03*
X016112Y018060D03*
X014784Y018448D03*
X014202Y017921D03*
X013617Y018818D03*
X012761Y017752D03*
X011561Y017442D03*
X010811Y017392D03*
X011431Y016902D03*
X011081Y016472D03*
X008873Y017600D03*
X007711Y018792D03*
X006511Y016592D03*
X007633Y015660D03*
X008033Y016160D03*
X008011Y015192D03*
X008911Y015192D03*
X007211Y014492D03*
X006633Y014860D03*
X006233Y014360D03*
X006351Y013832D03*
X004611Y014492D03*
X003611Y015292D03*
X004933Y015860D03*
X004733Y017614D03*
X004211Y018492D03*
X003211Y018892D03*
X002633Y019060D03*
X003733Y019860D03*
X004531Y020792D03*
X006311Y021092D03*
X007311Y021092D03*
X009411Y021992D03*
X010261Y021672D03*
X011081Y021442D03*
X011991Y020842D03*
X011554Y019860D03*
X012271Y022182D03*
X011554Y023093D03*
X010682Y023471D03*
X008872Y024251D03*
X007612Y024471D03*
X005511Y023702D03*
X004542Y024391D03*
X003762Y024311D03*
X004542Y024971D03*
X005402Y025011D03*
X003681Y023252D03*
X005411Y022392D03*
X007303Y022485D03*
X010292Y025691D03*
X009602Y027571D03*
X010502Y029121D03*
X012052Y028881D03*
X014102Y029821D03*
X015602Y029821D03*
X015702Y031821D03*
X014102Y031821D03*
X014102Y027571D03*
X015602Y027571D03*
X013791Y026152D03*
X013325Y025840D03*
X013783Y025474D03*
X014310Y025840D03*
X014900Y025840D03*
X014861Y023882D03*
X015883Y023674D03*
X015481Y023062D03*
X015991Y022252D03*
X016502Y021521D03*
X017221Y020832D03*
X017461Y022272D03*
X018984Y022553D03*
X020121Y021122D03*
X020412Y019353D03*
X021152Y019371D03*
X022802Y019371D03*
X024349Y019353D03*
X023083Y021574D03*
X017483Y017774D03*
X017961Y016132D03*
X017203Y016054D03*
X019133Y015660D03*
X019481Y016202D03*
X024311Y014422D03*
X025633Y014460D03*
X026483Y015086D03*
X026791Y014852D03*
X026533Y015660D03*
X027833Y015660D03*
X028461Y015692D03*
X029133Y015660D03*
X029033Y015086D03*
X029241Y014792D03*
X028633Y014460D03*
X029611Y013022D03*
X026611Y012982D03*
X024283Y013274D03*
X024633Y015710D03*
X033611Y017032D03*
X035631Y014272D03*
X036631Y014292D03*
X035621Y012982D03*
X039911Y016192D03*
X039876Y017674D03*
X039083Y018160D03*
X040247Y019259D03*
X036731Y019992D03*
X037731Y022582D03*
X035001Y023572D03*
X034975Y025204D03*
X033533Y026060D03*
X032475Y026404D03*
X033311Y025292D03*
X031833Y024560D03*
X031033Y024860D03*
X033975Y028004D03*
X034933Y028860D03*
X035975Y028804D03*
X037433Y029960D03*
X038433Y029860D03*
X036633Y030360D03*
X037733Y031160D03*
X036711Y031582D03*
X033775Y030704D03*
X032775Y030704D03*
X031511Y030592D03*
X032811Y029392D03*
X033911Y029392D03*
X035951Y027172D03*
X036811Y026092D03*
X041581Y025232D03*
X041581Y029482D03*
X041002Y031421D03*
X027202Y031821D03*
X014551Y022272D03*
X016283Y019274D03*
X013891Y015092D03*
X013911Y014672D03*
X014258Y014560D03*
X013503Y014380D03*
X012631Y014942D03*
X010433Y013960D03*
X001702Y014021D03*
X001811Y015792D03*
X000811Y017692D03*
X002511Y020592D03*
X002352Y025821D03*
X000802Y026721D03*
X001352Y030071D03*
X003352Y031071D03*
X002602Y031721D03*
X007102Y029571D03*
X007102Y027821D03*
X041271Y013983D03*
D19*
X027833Y014860D02*
X027533Y014560D01*
X026333Y014560D01*
X026133Y014360D01*
X026133Y013661D01*
X026117Y013644D01*
X027833Y014860D02*
X027833Y015660D01*
X026564Y020140D02*
X025314Y020140D01*
X025033Y019860D01*
X011554Y019860D01*
X008873Y017614D02*
X004733Y017614D01*
X003092Y019519D02*
X002633Y019060D01*
X003092Y019519D02*
X003092Y023444D01*
X003502Y023853D01*
X004833Y023853D01*
X006195Y025215D01*
X009826Y025215D01*
X011554Y023487D01*
X011554Y023093D01*
X010963Y022503D02*
X014143Y022503D01*
X014293Y022653D01*
X014343Y022653D01*
X014357Y022653D02*
X013522Y023487D01*
X012932Y023487D01*
X012577Y023841D01*
X012577Y024172D01*
X010963Y022503D02*
X010570Y022896D01*
X008197Y022896D01*
X007933Y023160D01*
X006605Y023160D01*
X006593Y023172D01*
X006633Y023160D02*
X004433Y023160D01*
X003733Y022460D01*
X003733Y019860D01*
X003733Y016160D01*
X004033Y015860D01*
X004933Y015860D01*
X008873Y017600D02*
X008873Y017614D01*
X014357Y022653D02*
X018884Y022653D01*
X018984Y022553D01*
X025333Y022553D01*
X029320Y022553D01*
X036751Y022553D01*
X037144Y022946D01*
X037144Y023388D01*
X036593Y023940D01*
X036593Y024172D01*
X036593Y025500D01*
X036333Y025760D01*
X033833Y025760D01*
X033533Y026060D01*
X031033Y024860D02*
X031033Y028460D01*
X031333Y028760D01*
X034733Y028760D01*
X034933Y028860D01*
X030609Y023172D02*
X029979Y023172D01*
X029940Y023172D02*
X029320Y022553D01*
D20*
X002376Y012840D02*
X000513Y014703D01*
X000513Y030302D01*
X002376Y032165D01*
X016295Y032165D01*
X016295Y023730D01*
X016206Y023693D01*
X016072Y023559D01*
X016000Y023384D01*
X016000Y023195D01*
X016072Y023021D01*
X016200Y022893D01*
X014456Y022893D01*
X013726Y023623D01*
X013658Y023690D01*
X013570Y023727D01*
X013031Y023727D01*
X012849Y023909D01*
X012898Y023958D01*
X012955Y024097D01*
X012955Y024191D01*
X013046Y024153D01*
X013172Y024153D01*
X013289Y024202D01*
X013378Y024291D01*
X013427Y024408D01*
X013427Y024534D01*
X013378Y024651D01*
X013289Y024740D01*
X013172Y024789D01*
X013046Y024789D01*
X012929Y024740D01*
X012840Y024651D01*
X012791Y024534D01*
X012791Y024492D01*
X012653Y024550D01*
X012502Y024550D01*
X012363Y024492D01*
X012257Y024386D01*
X012200Y024247D01*
X012200Y024097D01*
X012257Y023958D01*
X012337Y023878D01*
X012337Y023793D01*
X012374Y023705D01*
X012518Y023561D01*
X012510Y023561D01*
X012371Y023504D01*
X012265Y023398D01*
X012208Y023259D01*
X012208Y023108D01*
X012265Y022970D01*
X012371Y022863D01*
X012510Y022806D01*
X012660Y022806D01*
X012799Y022863D01*
X012906Y022970D01*
X012963Y023108D01*
X012963Y023247D01*
X013423Y023247D01*
X013927Y022743D01*
X011063Y022743D01*
X010706Y023100D01*
X010617Y023136D01*
X008297Y023136D01*
X008069Y023363D01*
X007981Y023400D01*
X007415Y023400D01*
X007484Y023470D01*
X007542Y023608D01*
X007542Y023759D01*
X007484Y023898D01*
X007378Y024004D01*
X007239Y024061D01*
X007089Y024061D01*
X006966Y024011D01*
X006972Y024023D01*
X006993Y024086D01*
X007003Y024151D01*
X007003Y024184D01*
X007003Y024217D01*
X006993Y024281D01*
X006972Y024344D01*
X006943Y024403D01*
X006904Y024456D01*
X006857Y024502D01*
X006804Y024541D01*
X006746Y024571D01*
X006683Y024591D01*
X006618Y024601D01*
X006585Y024601D01*
X006552Y024601D01*
X006487Y024591D01*
X006425Y024571D01*
X006366Y024541D01*
X006313Y024502D01*
X006267Y024456D01*
X006228Y024403D01*
X006198Y024344D01*
X006178Y024281D01*
X006168Y024217D01*
X006168Y024184D01*
X006585Y024184D01*
X006585Y024601D01*
X006585Y024184D01*
X006585Y024184D01*
X006585Y024184D01*
X006168Y024184D01*
X006168Y024151D01*
X006178Y024086D01*
X006198Y024023D01*
X006228Y023965D01*
X006267Y023911D01*
X006313Y023865D01*
X006366Y023826D01*
X006425Y023796D01*
X006487Y023776D01*
X006552Y023766D01*
X006585Y023766D01*
X006585Y024184D01*
X007003Y024184D01*
X006585Y024184D01*
X006585Y024184D01*
X006585Y024184D01*
X006585Y023766D01*
X006618Y023766D01*
X006683Y023776D01*
X006746Y023796D01*
X006804Y023826D01*
X006818Y023837D01*
X006786Y023759D01*
X006786Y023608D01*
X006844Y023470D01*
X006913Y023400D01*
X006899Y023400D01*
X006807Y023492D01*
X006668Y023550D01*
X006518Y023550D01*
X006379Y023492D01*
X006287Y023400D01*
X004386Y023400D01*
X004297Y023363D01*
X004230Y023296D01*
X003530Y022596D01*
X003493Y022508D01*
X003493Y019983D01*
X003464Y019913D01*
X003464Y019807D01*
X003493Y019737D01*
X003493Y016112D01*
X003530Y016024D01*
X003597Y015957D01*
X003897Y015657D01*
X003986Y015620D01*
X004810Y015620D01*
X004880Y015591D01*
X004987Y015591D01*
X005086Y015632D01*
X005161Y015708D01*
X005202Y015807D01*
X005202Y015913D01*
X005161Y016012D01*
X005086Y016088D01*
X004987Y016129D01*
X004880Y016129D01*
X004810Y016100D01*
X004133Y016100D01*
X003973Y016259D01*
X003973Y019737D01*
X004002Y019807D01*
X004002Y019913D01*
X003973Y019983D01*
X003973Y022361D01*
X004533Y022920D01*
X006311Y022920D01*
X006379Y022852D01*
X006518Y022794D01*
X006668Y022794D01*
X006807Y022852D01*
X006876Y022920D01*
X007834Y022920D01*
X007994Y022760D01*
X008061Y022693D01*
X008149Y022656D01*
X010470Y022656D01*
X010760Y022367D01*
X010760Y022367D01*
X010827Y022299D01*
X010916Y022263D01*
X014191Y022263D01*
X014279Y022299D01*
X014347Y022367D01*
X014393Y022413D01*
X018751Y022413D01*
X018756Y022400D01*
X018832Y022325D01*
X018931Y022284D01*
X019038Y022284D01*
X019107Y022313D01*
X025210Y022313D01*
X025280Y022284D01*
X025387Y022284D01*
X025457Y022313D01*
X028831Y022313D01*
X028712Y022193D01*
X028645Y022032D01*
X028645Y021257D01*
X028712Y021095D01*
X028836Y020971D01*
X028998Y020904D01*
X029173Y020904D01*
X029335Y020971D01*
X029458Y021095D01*
X029525Y021257D01*
X029525Y022032D01*
X029458Y022193D01*
X029339Y022313D01*
X029831Y022313D01*
X029712Y022193D01*
X029645Y022032D01*
X029645Y021257D01*
X029712Y021095D01*
X029836Y020971D01*
X029998Y020904D01*
X030173Y020904D01*
X030335Y020971D01*
X030458Y021095D01*
X030525Y021257D01*
X030525Y022032D01*
X030458Y022193D01*
X030339Y022313D01*
X030831Y022313D01*
X030712Y022193D01*
X030645Y022032D01*
X030645Y021257D01*
X030712Y021095D01*
X030836Y020971D01*
X030998Y020904D01*
X031173Y020904D01*
X031335Y020971D01*
X031458Y021095D01*
X031525Y021257D01*
X031525Y022032D01*
X031458Y022193D01*
X031339Y022313D01*
X031831Y022313D01*
X031712Y022193D01*
X031645Y022032D01*
X031645Y021257D01*
X031712Y021095D01*
X031836Y020971D01*
X031998Y020904D01*
X032173Y020904D01*
X032335Y020971D01*
X032458Y021095D01*
X032525Y021257D01*
X032525Y022032D01*
X032458Y022193D01*
X032339Y022313D01*
X032831Y022313D01*
X032712Y022193D01*
X032645Y022032D01*
X032645Y021257D01*
X032712Y021095D01*
X032836Y020971D01*
X032998Y020904D01*
X033173Y020904D01*
X033335Y020971D01*
X033458Y021095D01*
X033525Y021257D01*
X033525Y022032D01*
X033458Y022193D01*
X033339Y022313D01*
X033831Y022313D01*
X033712Y022193D01*
X033645Y022032D01*
X033645Y021257D01*
X033712Y021095D01*
X033836Y020971D01*
X033998Y020904D01*
X034173Y020904D01*
X034335Y020971D01*
X034458Y021095D01*
X034525Y021257D01*
X034525Y022032D01*
X034458Y022193D01*
X034339Y022313D01*
X034831Y022313D01*
X034712Y022193D01*
X034645Y022032D01*
X034645Y021257D01*
X034712Y021095D01*
X034836Y020971D01*
X034998Y020904D01*
X035173Y020904D01*
X035335Y020971D01*
X035458Y021095D01*
X035525Y021257D01*
X035525Y022032D01*
X035458Y022193D01*
X035339Y022313D01*
X035831Y022313D01*
X035712Y022193D01*
X035645Y022032D01*
X035645Y021257D01*
X035712Y021095D01*
X035836Y020971D01*
X035998Y020904D01*
X036173Y020904D01*
X036335Y020971D01*
X036458Y021095D01*
X036525Y021257D01*
X036525Y022032D01*
X036458Y022193D01*
X036339Y022313D01*
X036798Y022313D01*
X036887Y022349D01*
X037348Y022810D01*
X037384Y022898D01*
X037384Y023436D01*
X037348Y023524D01*
X037280Y023592D01*
X036914Y023958D01*
X036971Y024097D01*
X036971Y024191D01*
X037061Y024153D01*
X037188Y024153D01*
X037305Y024202D01*
X037394Y024291D01*
X037442Y024408D01*
X037442Y024534D01*
X037394Y024651D01*
X037305Y024740D01*
X037188Y024789D01*
X037061Y024789D01*
X036945Y024740D01*
X036855Y024651D01*
X036833Y024598D01*
X036833Y025548D01*
X036797Y025636D01*
X036537Y025896D01*
X036523Y025909D01*
X036523Y027681D01*
X038433Y029591D01*
X038487Y029591D01*
X038586Y029632D01*
X038661Y029708D01*
X038702Y029807D01*
X038702Y029913D01*
X038661Y030012D01*
X038586Y030088D01*
X038487Y030129D01*
X038380Y030129D01*
X038281Y030088D01*
X038205Y030012D01*
X038164Y029913D01*
X038164Y029860D01*
X036255Y027950D01*
X036255Y027950D01*
X036143Y027839D01*
X036143Y026000D01*
X033933Y026000D01*
X033790Y026143D01*
X033761Y026212D01*
X033686Y026288D01*
X033587Y026329D01*
X033480Y026329D01*
X033381Y026288D01*
X033305Y026212D01*
X033264Y026113D01*
X033264Y026007D01*
X033305Y025908D01*
X033381Y025832D01*
X033451Y025803D01*
X033697Y025557D01*
X033786Y025520D01*
X036234Y025520D01*
X036353Y025401D01*
X036353Y024466D01*
X036273Y024386D01*
X036215Y024247D01*
X036215Y024097D01*
X036273Y023958D01*
X036363Y023867D01*
X036390Y023804D01*
X036632Y023561D01*
X036526Y023561D01*
X036387Y023504D01*
X036281Y023398D01*
X036261Y023350D01*
X033940Y023350D01*
X034004Y023414D01*
X034076Y023589D01*
X034076Y023778D01*
X034004Y023953D01*
X033870Y024087D01*
X033696Y024159D01*
X033507Y024159D01*
X033332Y024087D01*
X033198Y023953D01*
X033126Y023778D01*
X033126Y023589D01*
X033198Y023414D01*
X033263Y023350D01*
X032512Y023350D01*
X032023Y023839D01*
X032023Y024370D01*
X032061Y024408D01*
X032102Y024507D01*
X032102Y024613D01*
X032061Y024712D01*
X031986Y024788D01*
X031887Y024829D01*
X031780Y024829D01*
X031681Y024788D01*
X031605Y024712D01*
X031564Y024613D01*
X031564Y024507D01*
X031605Y024408D01*
X031643Y024370D01*
X031643Y023681D01*
X031755Y023570D01*
X032355Y022970D01*
X036281Y022970D01*
X036281Y022970D01*
X036387Y022863D01*
X036526Y022806D01*
X036665Y022806D01*
X036651Y022793D01*
X029900Y022793D01*
X030039Y022932D01*
X030315Y022932D01*
X030395Y022852D01*
X030534Y022794D01*
X030684Y022794D01*
X030823Y022852D01*
X030929Y022958D01*
X030987Y023097D01*
X030987Y023247D01*
X030929Y023386D01*
X030823Y023492D01*
X030684Y023550D01*
X030534Y023550D01*
X030395Y023492D01*
X030315Y023412D01*
X029892Y023412D01*
X029804Y023375D01*
X029221Y022793D01*
X025457Y022793D01*
X025387Y022821D01*
X025280Y022821D01*
X025210Y022793D01*
X019107Y022793D01*
X019067Y022809D01*
X019020Y022856D01*
X018932Y022893D01*
X016750Y022893D01*
X016878Y023021D01*
X016915Y023110D01*
X026271Y023110D01*
X026308Y023021D01*
X026442Y022887D01*
X026617Y022815D01*
X026806Y022815D01*
X026981Y022887D01*
X027114Y023021D01*
X027187Y023195D01*
X027187Y023384D01*
X027114Y023559D01*
X026981Y023693D01*
X026891Y023730D01*
X026891Y025584D01*
X027807Y026480D01*
X027808Y026480D01*
X027860Y026532D01*
X027913Y026583D01*
X027913Y026585D01*
X027913Y026659D01*
X027914Y026733D01*
X027913Y026733D01*
X027913Y029135D01*
X027808Y029240D01*
X026891Y030157D01*
X026891Y032165D01*
X032101Y032165D01*
X032049Y032143D01*
X031925Y032019D01*
X031858Y031858D01*
X031858Y031083D01*
X031925Y030921D01*
X032049Y030797D01*
X032210Y030730D01*
X032385Y030730D01*
X032547Y030797D01*
X032671Y030921D01*
X032738Y031083D01*
X032738Y031858D01*
X032671Y032019D01*
X032547Y032143D01*
X032495Y032165D01*
X033101Y032165D01*
X033049Y032143D01*
X032925Y032019D01*
X032858Y031858D01*
X032858Y031083D01*
X032925Y030921D01*
X033049Y030797D01*
X033108Y030773D01*
X033108Y030117D01*
X033343Y029881D01*
X033455Y029770D01*
X037243Y029770D01*
X037281Y029732D01*
X037380Y029691D01*
X037487Y029691D01*
X037586Y029732D01*
X037661Y029808D01*
X037702Y029907D01*
X037702Y030013D01*
X037661Y030112D01*
X037604Y030170D01*
X037612Y030170D01*
X037812Y030370D01*
X037923Y030481D01*
X037923Y030970D01*
X037961Y031008D01*
X038002Y031107D01*
X038002Y031213D01*
X037961Y031312D01*
X037886Y031388D01*
X037787Y031429D01*
X037680Y031429D01*
X037581Y031388D01*
X037505Y031312D01*
X037464Y031213D01*
X037464Y031107D01*
X037505Y031008D01*
X037543Y030970D01*
X037543Y030639D01*
X037455Y030550D01*
X036824Y030550D01*
X036786Y030588D01*
X036687Y030629D01*
X036580Y030629D01*
X036481Y030588D01*
X036443Y030550D01*
X034612Y030550D01*
X034488Y030674D01*
X034488Y030773D01*
X034547Y030797D01*
X034671Y030921D01*
X034738Y031083D01*
X034738Y031858D01*
X034671Y032019D01*
X034547Y032143D01*
X034495Y032165D01*
X035025Y032165D01*
X034985Y032136D01*
X034932Y032083D01*
X034887Y032022D01*
X034853Y031954D01*
X034830Y031883D01*
X034818Y031808D01*
X034818Y031490D01*
X035278Y031490D01*
X035278Y031450D01*
X035318Y031450D01*
X035318Y030690D01*
X035336Y030690D01*
X035410Y030702D01*
X035482Y030725D01*
X035549Y030760D01*
X035611Y030804D01*
X035664Y030858D01*
X035708Y030919D01*
X035743Y030986D01*
X035766Y031058D01*
X035778Y031132D01*
X035778Y031450D01*
X035318Y031450D01*
X035318Y031490D01*
X035778Y031490D01*
X035778Y031808D01*
X035766Y031883D01*
X035743Y031954D01*
X035708Y032022D01*
X035664Y032083D01*
X035611Y032136D01*
X035571Y032165D01*
X040810Y032165D01*
X042673Y030302D01*
X042673Y022145D01*
X042583Y022234D01*
X042366Y022324D01*
X042130Y022324D01*
X041912Y022234D01*
X041745Y022067D01*
X041655Y021850D01*
X041655Y021614D01*
X041745Y021396D01*
X041912Y021229D01*
X042130Y021139D01*
X042366Y021139D01*
X042563Y021221D01*
X042563Y019408D01*
X042366Y019490D01*
X042130Y019490D01*
X041912Y019400D01*
X041745Y019233D01*
X041655Y019015D01*
X041655Y018779D01*
X041745Y018561D01*
X041912Y018394D01*
X042130Y018304D01*
X042366Y018304D01*
X042583Y018394D01*
X042673Y018484D01*
X042673Y018325D01*
X042122Y017774D01*
X042122Y014152D01*
X040810Y012840D01*
X034682Y012840D01*
X034712Y012870D01*
X034712Y012870D01*
X034823Y012981D01*
X034823Y013015D01*
X034868Y012971D01*
X035029Y012904D01*
X035204Y012904D01*
X035366Y012971D01*
X035490Y013095D01*
X035557Y013257D01*
X035557Y014032D01*
X035490Y014193D01*
X035366Y014317D01*
X035204Y014384D01*
X035029Y014384D01*
X034868Y014317D01*
X034823Y014273D01*
X034823Y016039D01*
X034702Y016160D01*
X034702Y016213D01*
X034661Y016312D01*
X034586Y016388D01*
X034487Y016429D01*
X034380Y016429D01*
X034281Y016388D01*
X034205Y016312D01*
X034164Y016213D01*
X034164Y016107D01*
X034205Y016008D01*
X034281Y015932D01*
X034380Y015891D01*
X034434Y015891D01*
X034443Y015881D01*
X034443Y014240D01*
X034366Y014317D01*
X034307Y014342D01*
X034307Y015176D01*
X033863Y015620D01*
X033751Y015731D01*
X032961Y015731D01*
X032253Y016439D01*
X032142Y016550D01*
X021955Y016550D01*
X021655Y016250D01*
X021543Y016139D01*
X021543Y015341D01*
X021487Y015365D01*
X021380Y015365D01*
X021357Y015355D01*
X021320Y015355D01*
X021320Y015489D01*
X021238Y015571D01*
X020768Y015571D01*
X020686Y015489D01*
X020686Y014782D01*
X020768Y014700D01*
X021238Y014700D01*
X021320Y014782D01*
X021320Y014852D01*
X021380Y014827D01*
X021487Y014827D01*
X021543Y014850D01*
X021543Y013943D01*
X021455Y013854D01*
X019196Y013854D01*
X019212Y013870D01*
X019323Y013981D01*
X019323Y015470D01*
X019361Y015508D01*
X019402Y015607D01*
X019402Y015622D01*
X019461Y015563D01*
X019387Y015489D01*
X019387Y014782D01*
X019469Y014700D01*
X019939Y014700D01*
X020021Y014782D01*
X020021Y015489D01*
X019939Y015571D01*
X019873Y015571D01*
X019873Y015689D01*
X019762Y015800D01*
X019112Y016450D01*
X018762Y016450D01*
X018693Y016519D01*
X018693Y016629D01*
X018738Y016629D01*
X018820Y016711D01*
X018820Y017418D01*
X018738Y017500D01*
X018268Y017500D01*
X018186Y017418D01*
X018186Y016711D01*
X018268Y016629D01*
X018313Y016629D01*
X018313Y016362D01*
X018493Y016181D01*
X018605Y016070D01*
X018955Y016070D01*
X019096Y015929D01*
X019080Y015929D01*
X018981Y015888D01*
X018905Y015812D01*
X018864Y015713D01*
X018864Y015607D01*
X018905Y015508D01*
X018943Y015470D01*
X018943Y014139D01*
X018855Y014050D01*
X014448Y014050D01*
X014448Y014370D01*
X014486Y014408D01*
X014527Y014507D01*
X014527Y014613D01*
X014491Y014700D01*
X014939Y014700D01*
X015021Y014782D01*
X015021Y015489D01*
X014939Y015571D01*
X014537Y015571D01*
X013693Y016415D01*
X013693Y016629D01*
X013738Y016629D01*
X013820Y016711D01*
X013820Y017418D01*
X013738Y017500D01*
X013268Y017500D01*
X013186Y017418D01*
X013186Y016711D01*
X013268Y016629D01*
X013313Y016629D01*
X013313Y016258D01*
X014387Y015184D01*
X014387Y014798D01*
X014312Y014829D01*
X014205Y014829D01*
X014106Y014788D01*
X014030Y014712D01*
X013989Y014613D01*
X013989Y014507D01*
X014030Y014408D01*
X014068Y014370D01*
X014068Y014050D01*
X010687Y014050D01*
X010661Y014112D01*
X010586Y014188D01*
X010487Y014229D01*
X010380Y014229D01*
X010281Y014188D01*
X010205Y014112D01*
X010164Y014013D01*
X010164Y013907D01*
X010186Y013854D01*
X007008Y013854D01*
X006502Y014360D01*
X006502Y014413D01*
X006461Y014512D01*
X006386Y014588D01*
X006287Y014629D01*
X006180Y014629D01*
X006081Y014588D01*
X006005Y014512D01*
X005964Y014413D01*
X005964Y014307D01*
X006005Y014208D01*
X006081Y014132D01*
X006180Y014091D01*
X006234Y014091D01*
X006707Y013617D01*
X006445Y013617D01*
X005823Y014239D01*
X005823Y014581D01*
X005912Y014670D01*
X006443Y014670D01*
X006481Y014632D01*
X006580Y014591D01*
X006687Y014591D01*
X006786Y014632D01*
X006861Y014708D01*
X006902Y014807D01*
X006902Y014913D01*
X006861Y015012D01*
X006786Y015088D01*
X006687Y015129D01*
X006580Y015129D01*
X006481Y015088D01*
X006443Y015050D01*
X005792Y015050D01*
X006512Y015770D01*
X007255Y015770D01*
X007364Y015660D01*
X007364Y015607D01*
X007405Y015508D01*
X007481Y015432D01*
X007580Y015391D01*
X007687Y015391D01*
X007786Y015432D01*
X007861Y015508D01*
X007902Y015607D01*
X007902Y015713D01*
X007861Y015812D01*
X007786Y015888D01*
X007687Y015929D01*
X007633Y015929D01*
X007592Y015970D01*
X007843Y015970D01*
X007881Y015932D01*
X007980Y015891D01*
X008087Y015891D01*
X008186Y015932D01*
X008261Y016008D01*
X008302Y016107D01*
X008302Y016213D01*
X008261Y016312D01*
X008186Y016388D01*
X008087Y016429D01*
X007980Y016429D01*
X007881Y016388D01*
X007843Y016350D01*
X006255Y016350D01*
X006143Y016239D01*
X005043Y015139D01*
X005043Y013881D01*
X005155Y013770D01*
X006061Y012864D01*
X023500Y012864D01*
X024683Y014047D01*
X024677Y014032D01*
X024677Y013257D01*
X024744Y013095D01*
X024868Y012971D01*
X025029Y012904D01*
X025204Y012904D01*
X025366Y012971D01*
X025490Y013095D01*
X025557Y013257D01*
X025557Y014032D01*
X025490Y014193D01*
X025413Y014270D01*
X025443Y014270D01*
X025481Y014232D01*
X025580Y014191D01*
X025687Y014191D01*
X025780Y014230D01*
X025744Y014193D01*
X025677Y014032D01*
X025677Y013257D01*
X025744Y013095D01*
X025868Y012971D01*
X026029Y012904D01*
X026204Y012904D01*
X026366Y012971D01*
X026490Y013095D01*
X026557Y013257D01*
X026557Y014032D01*
X026490Y014193D01*
X026398Y014285D01*
X026433Y014320D01*
X026874Y014320D01*
X026868Y014317D01*
X026744Y014193D01*
X026677Y014032D01*
X026677Y013257D01*
X026744Y013095D01*
X026868Y012971D01*
X027029Y012904D01*
X027204Y012904D01*
X027366Y012971D01*
X027490Y013095D01*
X027557Y013257D01*
X027557Y014032D01*
X027490Y014193D01*
X027366Y014317D01*
X027359Y014320D01*
X027581Y014320D01*
X027669Y014357D01*
X027737Y014424D01*
X028037Y014724D01*
X028073Y014812D01*
X028073Y015537D01*
X028102Y015607D01*
X028102Y015713D01*
X028079Y015770D01*
X028888Y015770D01*
X028864Y015713D01*
X028864Y015607D01*
X028905Y015508D01*
X028981Y015432D01*
X029080Y015391D01*
X029179Y015391D01*
X029387Y015184D01*
X029387Y014782D01*
X029469Y014700D01*
X029939Y014700D01*
X030021Y014782D01*
X030021Y015489D01*
X029939Y015571D01*
X029537Y015571D01*
X029402Y015706D01*
X029402Y015713D01*
X029379Y015770D01*
X031755Y015770D01*
X031927Y015598D01*
X031927Y014342D01*
X031868Y014317D01*
X031744Y014193D01*
X031677Y014032D01*
X031677Y013257D01*
X031744Y013095D01*
X031789Y013050D01*
X031445Y013050D01*
X031490Y013095D01*
X031557Y013257D01*
X031557Y014032D01*
X031490Y014193D01*
X031366Y014317D01*
X031204Y014384D01*
X031050Y014384D01*
X030877Y014557D01*
X030877Y014557D01*
X030765Y014669D01*
X028805Y014669D01*
X028786Y014688D01*
X028743Y014705D01*
X028820Y014782D01*
X028820Y014866D01*
X028873Y014866D01*
X028881Y014858D01*
X028980Y014817D01*
X029087Y014817D01*
X029186Y014858D01*
X029261Y014934D01*
X029302Y015032D01*
X029302Y015139D01*
X029261Y015238D01*
X029186Y015314D01*
X029087Y015355D01*
X028980Y015355D01*
X028881Y015314D01*
X028873Y015306D01*
X028820Y015306D01*
X028820Y015489D01*
X028738Y015571D01*
X028268Y015571D01*
X028186Y015489D01*
X028186Y014782D01*
X028268Y014700D01*
X028510Y014700D01*
X028481Y014688D01*
X028405Y014612D01*
X028364Y014513D01*
X028364Y014407D01*
X028393Y014337D01*
X028368Y014355D01*
X028301Y014389D01*
X028229Y014412D01*
X028155Y014424D01*
X028137Y014424D01*
X028137Y013664D01*
X028597Y013664D01*
X028597Y013982D01*
X028585Y014057D01*
X028562Y014129D01*
X028527Y014196D01*
X028510Y014220D01*
X028580Y014191D01*
X028687Y014191D01*
X028780Y014230D01*
X028744Y014193D01*
X028677Y014032D01*
X028677Y013257D01*
X028744Y013095D01*
X028868Y012971D01*
X029029Y012904D01*
X029204Y012904D01*
X029366Y012971D01*
X029490Y013095D01*
X029557Y013257D01*
X029557Y014032D01*
X029490Y014193D01*
X029395Y014289D01*
X029839Y014289D01*
X029744Y014193D01*
X029677Y014032D01*
X029677Y013257D01*
X029744Y013095D01*
X029868Y012971D01*
X030029Y012904D01*
X030204Y012904D01*
X030216Y012909D01*
X030285Y012840D01*
X002376Y012840D01*
X002239Y012977D02*
X005948Y012977D01*
X005789Y013136D02*
X002081Y013136D01*
X001922Y013294D02*
X005631Y013294D01*
X005472Y013453D02*
X001764Y013453D01*
X001605Y013611D02*
X005314Y013611D01*
X005155Y013770D02*
X001447Y013770D01*
X001288Y013928D02*
X005043Y013928D01*
X005043Y014087D02*
X001130Y014087D01*
X000971Y014245D02*
X005043Y014245D01*
X005043Y014404D02*
X000813Y014404D01*
X000654Y014562D02*
X005043Y014562D01*
X005043Y014721D02*
X000513Y014721D01*
X000513Y014879D02*
X005043Y014879D01*
X005043Y015038D02*
X000513Y015038D01*
X000513Y015196D02*
X005101Y015196D01*
X005259Y015355D02*
X000513Y015355D01*
X000513Y015513D02*
X005418Y015513D01*
X005576Y015672D02*
X005125Y015672D01*
X005202Y015830D02*
X005735Y015830D01*
X005893Y015989D02*
X005171Y015989D01*
X006052Y016147D02*
X004086Y016147D01*
X003973Y016306D02*
X006210Y016306D01*
X006414Y015672D02*
X007353Y015672D01*
X007403Y015513D02*
X006255Y015513D01*
X006097Y015355D02*
X011887Y015355D01*
X011887Y015489D02*
X011887Y014782D01*
X011969Y014700D01*
X012439Y014700D01*
X012521Y014782D01*
X012521Y015489D01*
X012439Y015571D01*
X011969Y015571D01*
X011887Y015489D01*
X011911Y015513D02*
X007863Y015513D01*
X007902Y015672D02*
X013899Y015672D01*
X013796Y015513D02*
X014057Y015513D01*
X014216Y015355D02*
X013820Y015355D01*
X013820Y015489D02*
X013738Y015571D01*
X013268Y015571D01*
X013186Y015489D01*
X013186Y014782D01*
X013268Y014700D01*
X013283Y014700D01*
X013283Y014540D01*
X013275Y014532D01*
X013234Y014433D01*
X013234Y014327D01*
X013275Y014228D01*
X013351Y014152D01*
X013450Y014111D01*
X013557Y014111D01*
X013656Y014152D01*
X013731Y014228D01*
X013772Y014327D01*
X013772Y014433D01*
X013731Y014532D01*
X013723Y014541D01*
X013723Y014700D01*
X013738Y014700D01*
X013820Y014782D01*
X013820Y015489D01*
X013820Y015196D02*
X014374Y015196D01*
X014387Y015038D02*
X013820Y015038D01*
X013820Y014879D02*
X014387Y014879D01*
X014527Y014562D02*
X018943Y014562D01*
X018943Y014404D02*
X014482Y014404D01*
X014448Y014245D02*
X018943Y014245D01*
X018891Y014087D02*
X014448Y014087D01*
X014068Y014087D02*
X010672Y014087D01*
X010195Y014087D02*
X006776Y014087D01*
X006617Y014245D02*
X013268Y014245D01*
X013234Y014404D02*
X006502Y014404D01*
X006412Y014562D02*
X013283Y014562D01*
X013247Y014721D02*
X012459Y014721D01*
X012521Y014879D02*
X013186Y014879D01*
X013186Y015038D02*
X012521Y015038D01*
X012521Y015196D02*
X013186Y015196D01*
X013186Y015355D02*
X012521Y015355D01*
X012497Y015513D02*
X013210Y015513D01*
X013503Y015135D02*
X013503Y014440D01*
X013513Y014380D01*
X013503Y014380D01*
X013503Y014380D01*
X013772Y014404D02*
X014035Y014404D01*
X014068Y014245D02*
X013738Y014245D01*
X013723Y014562D02*
X013989Y014562D01*
X014039Y014721D02*
X013758Y014721D01*
X013740Y015830D02*
X007844Y015830D01*
X008242Y015989D02*
X013582Y015989D01*
X013423Y016147D02*
X008302Y016147D01*
X008264Y016306D02*
X013313Y016306D01*
X013313Y016464D02*
X003973Y016464D01*
X003973Y016623D02*
X011921Y016623D01*
X011916Y016625D02*
X011957Y016602D01*
X012003Y016589D01*
X012195Y016589D01*
X012195Y017056D01*
X011847Y017056D01*
X011847Y016746D01*
X011859Y016700D01*
X011883Y016659D01*
X011916Y016625D01*
X011847Y016781D02*
X003973Y016781D01*
X003973Y016940D02*
X011847Y016940D01*
X011847Y017073D02*
X011847Y017384D01*
X011859Y017429D01*
X011883Y017470D01*
X011916Y017504D01*
X011957Y017528D01*
X012003Y017540D01*
X012195Y017540D01*
X012195Y017073D01*
X012195Y017056D01*
X012212Y017056D01*
X012212Y016589D01*
X012405Y016589D01*
X012450Y016602D01*
X012491Y016625D01*
X012525Y016659D01*
X012549Y016700D01*
X012561Y016746D01*
X012561Y017056D01*
X012212Y017056D01*
X012212Y017073D01*
X012195Y017073D01*
X011847Y017073D01*
X011847Y017098D02*
X003973Y017098D01*
X003973Y017257D02*
X011847Y017257D01*
X011855Y017415D02*
X009069Y017415D01*
X009101Y017448D02*
X009142Y017547D01*
X009142Y017653D01*
X009101Y017752D01*
X009026Y017828D01*
X008927Y017869D01*
X008820Y017869D01*
X008783Y017854D01*
X004857Y017854D01*
X004787Y017882D01*
X004680Y017882D01*
X004581Y017842D01*
X004505Y017766D01*
X004464Y017667D01*
X004464Y017560D01*
X004505Y017461D01*
X004581Y017386D01*
X004680Y017345D01*
X004787Y017345D01*
X004857Y017374D01*
X008720Y017374D01*
X008721Y017372D01*
X008820Y017331D01*
X008927Y017331D01*
X009026Y017372D01*
X009101Y017448D01*
X009142Y017574D02*
X029651Y017574D01*
X029655Y017570D02*
X031655Y017570D01*
X031833Y017391D01*
X037459Y017391D01*
X037927Y016924D01*
X037927Y014342D01*
X037868Y014317D01*
X037744Y014193D01*
X037677Y014032D01*
X037677Y013257D01*
X037744Y013095D01*
X037868Y012971D01*
X038029Y012904D01*
X038204Y012904D01*
X038366Y012971D01*
X038490Y013095D01*
X038557Y013257D01*
X038557Y014032D01*
X038490Y014193D01*
X038366Y014317D01*
X038307Y014342D01*
X038307Y017081D01*
X037617Y017771D01*
X031991Y017771D01*
X031923Y017839D01*
X031812Y017950D01*
X031286Y017950D01*
X031351Y018016D01*
X031392Y018115D01*
X031392Y018222D01*
X031351Y018320D01*
X031302Y018370D01*
X038040Y018372D01*
X038427Y017986D01*
X038427Y017398D01*
X038538Y017287D01*
X038927Y016898D01*
X038927Y014342D01*
X038868Y014317D01*
X038744Y014193D01*
X038677Y014032D01*
X038677Y013257D01*
X038744Y013095D01*
X038868Y012971D01*
X039029Y012904D01*
X039204Y012904D01*
X039366Y012971D01*
X039490Y013095D01*
X039557Y013257D01*
X039557Y014032D01*
X039490Y014193D01*
X039366Y014317D01*
X039307Y014342D01*
X039307Y017055D01*
X038807Y017555D01*
X038807Y018143D01*
X038309Y018641D01*
X038309Y018641D01*
X038254Y018697D01*
X038198Y018752D01*
X038198Y018752D01*
X038198Y018752D01*
X038118Y018752D01*
X038040Y018752D01*
X030912Y018750D01*
X030410Y019252D01*
X026961Y019252D01*
X026980Y019299D01*
X026980Y019406D01*
X026939Y019505D01*
X026864Y019581D01*
X026765Y019622D01*
X026658Y019622D01*
X026559Y019581D01*
X026521Y019543D01*
X024539Y019543D01*
X024501Y019581D01*
X024407Y019620D01*
X025081Y019620D01*
X025169Y019657D01*
X025237Y019724D01*
X025237Y019724D01*
X025413Y019900D01*
X026441Y019900D01*
X026510Y019871D01*
X026617Y019871D01*
X026716Y019912D01*
X026792Y019988D01*
X026833Y020087D01*
X026833Y020194D01*
X026792Y020293D01*
X026716Y020368D01*
X026617Y020409D01*
X026510Y020409D01*
X026441Y020380D01*
X025266Y020380D01*
X025178Y020344D01*
X024934Y020100D01*
X024789Y020100D01*
X024807Y020107D01*
X024913Y020214D01*
X024971Y020353D01*
X024971Y020503D01*
X024913Y020642D01*
X024807Y020748D01*
X024668Y020806D01*
X024518Y020806D01*
X024379Y020748D01*
X024273Y020642D01*
X024215Y020503D01*
X024215Y020353D01*
X024273Y020214D01*
X024379Y020107D01*
X024397Y020100D01*
X018819Y020100D01*
X018921Y020202D01*
X018979Y020341D01*
X018979Y020491D01*
X018921Y020630D01*
X018815Y020736D01*
X018676Y020794D01*
X018526Y020794D01*
X018387Y020736D01*
X018281Y020630D01*
X018223Y020491D01*
X018223Y020341D01*
X018281Y020202D01*
X018383Y020100D01*
X015116Y020100D01*
X015320Y020304D01*
X015320Y020669D01*
X015063Y020927D01*
X014698Y020927D01*
X014440Y020669D01*
X014440Y020304D01*
X014645Y020100D01*
X013224Y020100D01*
X013412Y020288D01*
X013412Y020467D01*
X012952Y020467D01*
X012952Y020507D01*
X012912Y020507D01*
X012912Y020967D01*
X012733Y020967D01*
X012452Y020685D01*
X012452Y020507D01*
X012912Y020507D01*
X012912Y020467D01*
X012452Y020467D01*
X012452Y020288D01*
X012640Y020100D01*
X011677Y020100D01*
X011607Y020129D01*
X011500Y020129D01*
X011401Y020088D01*
X011326Y020012D01*
X011285Y019913D01*
X011285Y019807D01*
X011326Y019708D01*
X011401Y019632D01*
X011500Y019591D01*
X011607Y019591D01*
X011677Y019620D01*
X020354Y019620D01*
X020260Y019581D01*
X020184Y019505D01*
X020143Y019406D01*
X020143Y019299D01*
X020184Y019201D01*
X020260Y019125D01*
X020359Y019084D01*
X020412Y019084D01*
X020446Y019050D01*
X013759Y019050D01*
X013670Y019087D01*
X013563Y019087D01*
X013464Y019046D01*
X013389Y018970D01*
X013348Y018872D01*
X013348Y018765D01*
X013389Y018666D01*
X013464Y018590D01*
X013563Y018549D01*
X013670Y018549D01*
X013769Y018590D01*
X013845Y018666D01*
X013846Y018670D01*
X014626Y018670D01*
X014556Y018600D01*
X014515Y018501D01*
X014515Y018394D01*
X014556Y018295D01*
X014632Y018220D01*
X014730Y018179D01*
X014837Y018179D01*
X014936Y018220D01*
X015012Y018295D01*
X015053Y018394D01*
X015053Y018448D01*
X015075Y018470D01*
X015488Y018470D01*
X015475Y018457D01*
X015421Y018457D01*
X015322Y018416D01*
X015247Y018340D01*
X015206Y018242D01*
X015206Y018135D01*
X015247Y018036D01*
X015322Y017960D01*
X015421Y017919D01*
X015528Y017919D01*
X015627Y017960D01*
X015702Y018036D01*
X015743Y018135D01*
X015743Y018188D01*
X015825Y018270D01*
X015942Y018270D01*
X015885Y018212D01*
X015844Y018113D01*
X015844Y018007D01*
X015885Y017908D01*
X015960Y017832D01*
X016059Y017791D01*
X016166Y017791D01*
X016265Y017832D01*
X016340Y017908D01*
X016381Y018007D01*
X016381Y018060D01*
X016391Y018070D01*
X029155Y018070D01*
X029655Y017570D01*
X029695Y017540D02*
X029503Y017540D01*
X029457Y017528D01*
X029416Y017504D01*
X029383Y017470D01*
X029359Y017429D01*
X029347Y017384D01*
X029347Y017227D01*
X029286Y017288D01*
X029187Y017329D01*
X029080Y017329D01*
X028981Y017288D01*
X028948Y017255D01*
X028820Y017255D01*
X028820Y017418D01*
X028738Y017500D01*
X028268Y017500D01*
X028186Y017418D01*
X028186Y016711D01*
X028268Y016629D01*
X028738Y016629D01*
X028820Y016711D01*
X028820Y016875D01*
X028938Y016875D01*
X028981Y016832D01*
X029080Y016791D01*
X029187Y016791D01*
X029286Y016832D01*
X029347Y016893D01*
X029347Y016746D01*
X029359Y016700D01*
X029383Y016659D01*
X029416Y016625D01*
X029457Y016602D01*
X029503Y016589D01*
X029695Y016589D01*
X029695Y017056D01*
X029402Y017056D01*
X029402Y017073D01*
X029695Y017073D01*
X029695Y017056D01*
X029712Y017056D01*
X029712Y016589D01*
X029905Y016589D01*
X029950Y016602D01*
X029991Y016625D01*
X030025Y016659D01*
X030049Y016700D01*
X030061Y016746D01*
X030061Y017056D01*
X029712Y017056D01*
X029712Y017073D01*
X029695Y017073D01*
X029695Y017540D01*
X029712Y017540D02*
X029712Y017073D01*
X030061Y017073D01*
X030061Y017384D01*
X030049Y017429D01*
X030025Y017470D01*
X029991Y017504D01*
X029950Y017528D01*
X029905Y017540D01*
X029712Y017540D01*
X029712Y017415D02*
X029695Y017415D01*
X029695Y017257D02*
X029712Y017257D01*
X029695Y017098D02*
X029712Y017098D01*
X029695Y016940D02*
X029712Y016940D01*
X029695Y016781D02*
X029712Y016781D01*
X029695Y016623D02*
X029712Y016623D01*
X029987Y016623D02*
X037927Y016623D01*
X037927Y016781D02*
X031320Y016781D01*
X031320Y016711D02*
X031320Y017418D01*
X031238Y017500D01*
X030768Y017500D01*
X030686Y017418D01*
X030686Y017250D01*
X030624Y017250D01*
X030586Y017288D01*
X030487Y017329D01*
X030380Y017329D01*
X030281Y017288D01*
X030205Y017212D01*
X030164Y017113D01*
X030164Y017007D01*
X030205Y016908D01*
X030281Y016832D01*
X030380Y016791D01*
X030487Y016791D01*
X030586Y016832D01*
X030624Y016870D01*
X030686Y016870D01*
X030686Y016711D01*
X030768Y016629D01*
X031238Y016629D01*
X031320Y016711D01*
X031320Y016940D02*
X037911Y016940D01*
X037753Y017098D02*
X031320Y017098D01*
X031320Y017257D02*
X037594Y017257D01*
X037815Y017574D02*
X038427Y017574D01*
X038427Y017732D02*
X037656Y017732D01*
X037973Y017415D02*
X038427Y017415D01*
X038568Y017257D02*
X038132Y017257D01*
X038290Y017098D02*
X038727Y017098D01*
X038885Y016940D02*
X038307Y016940D01*
X038307Y016781D02*
X038927Y016781D01*
X038927Y016623D02*
X038307Y016623D01*
X038307Y016464D02*
X038927Y016464D01*
X038927Y016306D02*
X038307Y016306D01*
X038307Y016147D02*
X038927Y016147D01*
X038927Y015989D02*
X038307Y015989D01*
X038307Y015830D02*
X038927Y015830D01*
X038927Y015672D02*
X038307Y015672D01*
X038307Y015513D02*
X038927Y015513D01*
X038927Y015355D02*
X038307Y015355D01*
X038307Y015196D02*
X038927Y015196D01*
X038927Y015038D02*
X038307Y015038D01*
X038307Y014879D02*
X038927Y014879D01*
X038927Y014721D02*
X038307Y014721D01*
X038307Y014562D02*
X038927Y014562D01*
X038927Y014404D02*
X038307Y014404D01*
X038438Y014245D02*
X038795Y014245D01*
X038699Y014087D02*
X038534Y014087D01*
X038557Y013928D02*
X038677Y013928D01*
X038677Y013770D02*
X038557Y013770D01*
X038557Y013611D02*
X038677Y013611D01*
X038677Y013453D02*
X038557Y013453D01*
X038557Y013294D02*
X038677Y013294D01*
X038727Y013136D02*
X038507Y013136D01*
X038372Y012977D02*
X038862Y012977D01*
X039372Y012977D02*
X039806Y012977D01*
X039804Y012978D02*
X039865Y012934D01*
X039933Y012899D01*
X040004Y012876D01*
X040079Y012864D01*
X040097Y012864D01*
X040097Y013624D01*
X040137Y013624D01*
X040137Y013664D01*
X040597Y013664D01*
X040597Y013982D01*
X040585Y014057D01*
X040562Y014129D01*
X040527Y014196D01*
X040483Y014257D01*
X040429Y014310D01*
X040368Y014355D01*
X040301Y014389D01*
X040229Y014412D01*
X040155Y014424D01*
X040137Y014424D01*
X040137Y013664D01*
X040097Y013664D01*
X040097Y013624D01*
X039637Y013624D01*
X039637Y013306D01*
X039649Y013232D01*
X039672Y013160D01*
X039706Y013093D01*
X039751Y013032D01*
X039804Y012978D01*
X039684Y013136D02*
X039507Y013136D01*
X039557Y013294D02*
X039639Y013294D01*
X039637Y013453D02*
X039557Y013453D01*
X039557Y013611D02*
X039637Y013611D01*
X039637Y013664D02*
X040097Y013664D01*
X040097Y014424D01*
X040079Y014424D01*
X040004Y014412D01*
X039933Y014389D01*
X039865Y014355D01*
X039804Y014310D01*
X039751Y014257D01*
X039706Y014196D01*
X039672Y014129D01*
X039649Y014057D01*
X039637Y013982D01*
X039637Y013664D01*
X039637Y013770D02*
X039557Y013770D01*
X039557Y013928D02*
X039637Y013928D01*
X039658Y014087D02*
X039534Y014087D01*
X039438Y014245D02*
X039742Y014245D01*
X039977Y014404D02*
X039307Y014404D01*
X039307Y014562D02*
X042122Y014562D01*
X042122Y014404D02*
X040257Y014404D01*
X040137Y014404D02*
X040097Y014404D01*
X040097Y014245D02*
X040137Y014245D01*
X040137Y014087D02*
X040097Y014087D01*
X040097Y013928D02*
X040137Y013928D01*
X040137Y013770D02*
X040097Y013770D01*
X040137Y013624D02*
X040597Y013624D01*
X040597Y013306D01*
X040585Y013232D01*
X040562Y013160D01*
X040527Y013093D01*
X040483Y013032D01*
X040429Y012978D01*
X040368Y012934D01*
X040301Y012899D01*
X040229Y012876D01*
X040155Y012864D01*
X040137Y012864D01*
X040137Y013624D01*
X040137Y013611D02*
X040097Y013611D01*
X040097Y013453D02*
X040137Y013453D01*
X040137Y013294D02*
X040097Y013294D01*
X040097Y013136D02*
X040137Y013136D01*
X040137Y012977D02*
X040097Y012977D01*
X040428Y012977D02*
X040947Y012977D01*
X041105Y013136D02*
X040549Y013136D01*
X040595Y013294D02*
X041264Y013294D01*
X041422Y013453D02*
X040597Y013453D01*
X040597Y013611D02*
X041581Y013611D01*
X041739Y013770D02*
X040597Y013770D01*
X040597Y013928D02*
X041898Y013928D01*
X042056Y014087D02*
X040575Y014087D01*
X040492Y014245D02*
X042122Y014245D01*
X042122Y014721D02*
X039307Y014721D01*
X039307Y014879D02*
X042122Y014879D01*
X042122Y015038D02*
X039307Y015038D01*
X039307Y015196D02*
X042122Y015196D01*
X042122Y015355D02*
X039307Y015355D01*
X039307Y015513D02*
X042122Y015513D01*
X042122Y015672D02*
X041811Y015672D01*
X041824Y015685D02*
X041879Y015817D01*
X041879Y015959D01*
X041824Y016090D01*
X041724Y016190D01*
X041593Y016245D01*
X041450Y016245D01*
X041319Y016190D01*
X041219Y016090D01*
X041164Y015959D01*
X041164Y015817D01*
X041219Y015685D01*
X041319Y015585D01*
X041450Y015530D01*
X041593Y015530D01*
X041724Y015585D01*
X041824Y015685D01*
X041879Y015830D02*
X042122Y015830D01*
X042122Y015989D02*
X041866Y015989D01*
X041767Y016147D02*
X042122Y016147D01*
X042122Y016306D02*
X039307Y016306D01*
X039307Y016464D02*
X042122Y016464D01*
X042122Y016623D02*
X039307Y016623D01*
X039307Y016781D02*
X041304Y016781D01*
X041319Y016766D02*
X041450Y016711D01*
X041593Y016711D01*
X041724Y016766D01*
X041824Y016866D01*
X041879Y016998D01*
X041879Y017140D01*
X041824Y017271D01*
X041724Y017371D01*
X041593Y017426D01*
X041450Y017426D01*
X041319Y017371D01*
X041219Y017271D01*
X041164Y017140D01*
X041164Y016998D01*
X041219Y016866D01*
X041319Y016766D01*
X041188Y016940D02*
X039307Y016940D01*
X039264Y017098D02*
X041164Y017098D01*
X041213Y017257D02*
X039106Y017257D01*
X038947Y017415D02*
X039799Y017415D01*
X039822Y017406D02*
X039929Y017406D01*
X040028Y017446D01*
X040104Y017522D01*
X040145Y017621D01*
X040145Y017728D01*
X040104Y017827D01*
X040028Y017902D01*
X039929Y017943D01*
X039875Y017943D01*
X039823Y017995D01*
X039823Y020839D01*
X039773Y020889D01*
X039773Y021034D01*
X039836Y020971D01*
X039998Y020904D01*
X040173Y020904D01*
X040335Y020971D01*
X040458Y021095D01*
X040525Y021257D01*
X040525Y022032D01*
X040458Y022193D01*
X040335Y022317D01*
X040173Y022384D01*
X039998Y022384D01*
X039836Y022317D01*
X039773Y022255D01*
X039773Y022689D01*
X039662Y022800D01*
X039623Y022839D01*
X039512Y022950D01*
X038312Y022950D01*
X038123Y023139D01*
X038123Y026966D01*
X038137Y026972D01*
X038254Y027089D01*
X038317Y027242D01*
X042673Y027242D01*
X042673Y027084D02*
X038248Y027084D01*
X038317Y027242D02*
X038317Y027408D01*
X038254Y027562D01*
X038137Y027679D01*
X037983Y027743D01*
X037817Y027743D01*
X037664Y027679D01*
X037547Y027562D01*
X037483Y027408D01*
X037483Y027242D01*
X036523Y027242D01*
X036523Y027084D02*
X037552Y027084D01*
X037547Y027089D02*
X037664Y026972D01*
X037743Y026939D01*
X037743Y022981D01*
X037855Y022870D01*
X038155Y022570D01*
X039355Y022570D01*
X039393Y022531D01*
X039393Y022258D01*
X039335Y022317D01*
X039173Y022384D01*
X038998Y022384D01*
X038836Y022317D01*
X038712Y022193D01*
X038645Y022032D01*
X038645Y021257D01*
X038712Y021095D01*
X038836Y020971D01*
X038998Y020904D01*
X039173Y020904D01*
X039335Y020971D01*
X039393Y021030D01*
X039393Y020731D01*
X039443Y020681D01*
X039443Y017838D01*
X039555Y017727D01*
X039607Y017675D01*
X039607Y017621D01*
X039648Y017522D01*
X039723Y017446D01*
X039822Y017406D01*
X039952Y017415D02*
X041424Y017415D01*
X041619Y017415D02*
X042122Y017415D01*
X042122Y017257D02*
X041830Y017257D01*
X041879Y017098D02*
X042122Y017098D01*
X042122Y016940D02*
X041855Y016940D01*
X041739Y016781D02*
X042122Y016781D01*
X041276Y016147D02*
X039307Y016147D01*
X039307Y015989D02*
X041177Y015989D01*
X041164Y015830D02*
X039307Y015830D01*
X039307Y015672D02*
X041232Y015672D01*
X042122Y017574D02*
X040125Y017574D01*
X040143Y017732D02*
X042122Y017732D01*
X042238Y017891D02*
X040040Y017891D01*
X039823Y018049D02*
X042397Y018049D01*
X042555Y018208D02*
X039823Y018208D01*
X039823Y018366D02*
X041981Y018366D01*
X041782Y018525D02*
X039823Y018525D01*
X039823Y018683D02*
X041695Y018683D01*
X041655Y018842D02*
X039823Y018842D01*
X039823Y019000D02*
X040870Y019000D01*
X040836Y019014D02*
X040986Y018952D01*
X041148Y018952D01*
X041297Y019014D01*
X041412Y019129D01*
X041474Y019279D01*
X041474Y019441D01*
X041412Y019590D01*
X041297Y019705D01*
X041148Y019767D01*
X040986Y019767D01*
X040836Y019705D01*
X040721Y019590D01*
X040659Y019441D01*
X040659Y019279D01*
X040721Y019129D01*
X040836Y019014D01*
X040709Y019159D02*
X039823Y019159D01*
X039823Y019317D02*
X040659Y019317D01*
X040674Y019476D02*
X039823Y019476D01*
X039823Y019634D02*
X040765Y019634D01*
X041368Y019634D02*
X042563Y019634D01*
X042563Y019476D02*
X042400Y019476D01*
X042095Y019476D02*
X041459Y019476D01*
X041474Y019317D02*
X041829Y019317D01*
X041714Y019159D02*
X041424Y019159D01*
X041263Y019000D02*
X041655Y019000D01*
X042515Y018366D02*
X042673Y018366D01*
X042563Y019793D02*
X039823Y019793D01*
X039823Y019951D02*
X042563Y019951D01*
X042563Y020110D02*
X039823Y020110D01*
X039823Y020268D02*
X042563Y020268D01*
X042563Y020427D02*
X039823Y020427D01*
X039823Y020585D02*
X042563Y020585D01*
X042563Y020744D02*
X039823Y020744D01*
X039773Y020902D02*
X040888Y020902D01*
X040836Y020924D02*
X040986Y020862D01*
X041148Y020862D01*
X041297Y020924D01*
X041412Y021038D01*
X041474Y021188D01*
X041474Y021350D01*
X041412Y021500D01*
X041297Y021614D01*
X041148Y021676D01*
X040986Y021676D01*
X040836Y021614D01*
X040721Y021500D01*
X040659Y021350D01*
X040659Y021188D01*
X040721Y021038D01*
X040836Y020924D01*
X040712Y021061D02*
X040424Y021061D01*
X040510Y021219D02*
X040659Y021219D01*
X040671Y021378D02*
X040525Y021378D01*
X040525Y021536D02*
X040757Y021536D01*
X040525Y021695D02*
X041655Y021695D01*
X041656Y021853D02*
X040525Y021853D01*
X040525Y022012D02*
X041722Y022012D01*
X041848Y022170D02*
X040468Y022170D01*
X040307Y022329D02*
X042673Y022329D01*
X042673Y022487D02*
X039773Y022487D01*
X039773Y022329D02*
X039863Y022329D01*
X039773Y022646D02*
X040136Y022646D01*
X040077Y022670D02*
X040345Y022559D01*
X040636Y022559D01*
X040905Y022670D01*
X041111Y022876D01*
X041222Y023144D01*
X041222Y023435D01*
X041111Y023704D01*
X040905Y023910D01*
X040636Y024021D01*
X040345Y024021D01*
X040077Y023910D01*
X039871Y023704D01*
X039760Y023435D01*
X039760Y023144D01*
X039871Y022876D01*
X040077Y022670D01*
X039943Y022804D02*
X039658Y022804D01*
X039835Y022963D02*
X038300Y022963D01*
X038141Y023121D02*
X039769Y023121D01*
X039760Y023280D02*
X038123Y023280D01*
X038123Y023438D02*
X039761Y023438D01*
X039826Y023597D02*
X038123Y023597D01*
X038123Y023755D02*
X039922Y023755D01*
X040086Y023914D02*
X038123Y023914D01*
X038123Y024072D02*
X042673Y024072D01*
X042673Y023914D02*
X040896Y023914D01*
X041060Y023755D02*
X042673Y023755D01*
X042673Y023597D02*
X041155Y023597D01*
X041221Y023438D02*
X042673Y023438D01*
X042673Y023280D02*
X041222Y023280D01*
X041212Y023121D02*
X042673Y023121D01*
X042673Y022963D02*
X041147Y022963D01*
X041039Y022804D02*
X042673Y022804D01*
X042673Y022646D02*
X040846Y022646D01*
X041376Y021536D02*
X041687Y021536D01*
X041764Y021378D02*
X041463Y021378D01*
X041474Y021219D02*
X041936Y021219D01*
X041421Y021061D02*
X042563Y021061D01*
X042559Y021219D02*
X042563Y021219D01*
X042563Y020902D02*
X041245Y020902D01*
X039443Y020585D02*
X038055Y020585D01*
X038020Y020550D02*
X038275Y020806D01*
X038275Y020947D01*
X038335Y020971D01*
X038458Y021095D01*
X038525Y021257D01*
X038525Y022032D01*
X038458Y022193D01*
X038335Y022317D01*
X038173Y022384D01*
X037998Y022384D01*
X037836Y022317D01*
X037712Y022193D01*
X037645Y022032D01*
X037645Y021257D01*
X037712Y021095D01*
X037836Y020971D01*
X037884Y020952D01*
X037756Y020824D01*
X026912Y020824D01*
X026623Y021113D01*
X026623Y021939D01*
X026512Y022050D01*
X026312Y022250D01*
X024855Y022250D01*
X024730Y022126D01*
X010874Y022126D01*
X010560Y022439D01*
X010449Y022550D01*
X007567Y022550D01*
X007531Y022637D01*
X007455Y022713D01*
X007356Y022754D01*
X007249Y022754D01*
X007150Y022713D01*
X007075Y022637D01*
X007034Y022539D01*
X007034Y022432D01*
X007075Y022333D01*
X007150Y022257D01*
X007249Y022216D01*
X007303Y022216D01*
X007349Y022170D01*
X010292Y022170D01*
X010605Y021857D01*
X010716Y021746D01*
X018320Y021746D01*
X018274Y021700D01*
X018236Y021647D01*
X018206Y021588D01*
X018186Y021526D01*
X018175Y021461D01*
X018175Y021428D01*
X018593Y021428D01*
X018593Y021428D01*
X018175Y021428D01*
X018175Y021395D01*
X018186Y021330D01*
X018206Y021267D01*
X018236Y021209D01*
X018274Y021156D01*
X018321Y021109D01*
X018374Y021070D01*
X018433Y021041D01*
X018495Y021020D01*
X018560Y021010D01*
X018593Y021010D01*
X018593Y021428D01*
X019011Y021428D01*
X019011Y021461D01*
X019001Y021526D01*
X018980Y021588D01*
X018951Y021647D01*
X018912Y021700D01*
X018866Y021746D01*
X024394Y021746D01*
X024371Y021736D01*
X024265Y021630D01*
X024208Y021491D01*
X024208Y021341D01*
X024265Y021202D01*
X024371Y021096D01*
X024510Y021038D01*
X024660Y021038D01*
X024799Y021096D01*
X024906Y021202D01*
X024963Y021341D01*
X024963Y021435D01*
X025054Y021397D01*
X025180Y021397D01*
X025297Y021446D01*
X025386Y021535D01*
X025435Y021652D01*
X025435Y021778D01*
X025397Y021870D01*
X026155Y021870D01*
X026243Y021781D01*
X026243Y020955D01*
X026755Y020444D01*
X030049Y020444D01*
X030043Y020439D01*
X029955Y020350D01*
X029724Y020350D01*
X029686Y020388D01*
X029587Y020429D01*
X029480Y020429D01*
X029381Y020388D01*
X029305Y020312D01*
X029264Y020213D01*
X029264Y020107D01*
X029305Y020008D01*
X029381Y019932D01*
X029480Y019891D01*
X029587Y019891D01*
X029686Y019932D01*
X029724Y019970D01*
X030112Y019970D01*
X030312Y020170D01*
X030319Y020170D01*
X030279Y020130D01*
X030233Y020020D01*
X030233Y019600D01*
X030279Y019490D01*
X030363Y019406D01*
X030863Y018906D01*
X030974Y018860D01*
X036114Y018860D01*
X036225Y018906D01*
X036309Y018990D01*
X036355Y019100D01*
X036355Y019220D01*
X036309Y019330D01*
X036225Y019414D01*
X036114Y019460D01*
X031158Y019460D01*
X030833Y019784D01*
X030833Y020020D01*
X030788Y020130D01*
X030748Y020170D01*
X038955Y020170D01*
X039043Y020081D01*
X039043Y018429D01*
X039030Y018429D01*
X038931Y018388D01*
X038855Y018312D01*
X038814Y018213D01*
X038814Y018107D01*
X038855Y018008D01*
X038931Y017932D01*
X039030Y017891D01*
X039137Y017891D01*
X039236Y017932D01*
X039311Y018008D01*
X039352Y018107D01*
X039352Y018160D01*
X039423Y018231D01*
X039423Y020239D01*
X039312Y020350D01*
X039112Y020550D01*
X038020Y020550D01*
X038213Y020744D02*
X039393Y020744D01*
X039393Y020902D02*
X038275Y020902D01*
X038424Y021061D02*
X038747Y021061D01*
X038661Y021219D02*
X038510Y021219D01*
X038525Y021378D02*
X038645Y021378D01*
X038645Y021536D02*
X038525Y021536D01*
X038525Y021695D02*
X038645Y021695D01*
X038645Y021853D02*
X038525Y021853D01*
X038525Y022012D02*
X038645Y022012D01*
X038703Y022170D02*
X038468Y022170D01*
X038307Y022329D02*
X038863Y022329D01*
X039307Y022329D02*
X039393Y022329D01*
X039393Y022487D02*
X037025Y022487D01*
X036998Y022384D02*
X036836Y022317D01*
X036712Y022193D01*
X036645Y022032D01*
X036645Y021257D01*
X036712Y021095D01*
X036836Y020971D01*
X036998Y020904D01*
X037173Y020904D01*
X037335Y020971D01*
X037458Y021095D01*
X037525Y021257D01*
X037525Y022032D01*
X037458Y022193D01*
X037335Y022317D01*
X037173Y022384D01*
X036998Y022384D01*
X036863Y022329D02*
X036837Y022329D01*
X036703Y022170D02*
X036468Y022170D01*
X036525Y022012D02*
X036645Y022012D01*
X036645Y021853D02*
X036525Y021853D01*
X036525Y021695D02*
X036645Y021695D01*
X036645Y021536D02*
X036525Y021536D01*
X036525Y021378D02*
X036645Y021378D01*
X036661Y021219D02*
X036510Y021219D01*
X036424Y021061D02*
X036747Y021061D01*
X037424Y021061D02*
X037747Y021061D01*
X037661Y021219D02*
X037510Y021219D01*
X037525Y021378D02*
X037645Y021378D01*
X037645Y021536D02*
X037525Y021536D01*
X037525Y021695D02*
X037645Y021695D01*
X037645Y021853D02*
X037525Y021853D01*
X037525Y022012D02*
X037645Y022012D01*
X037703Y022170D02*
X037468Y022170D01*
X037307Y022329D02*
X037863Y022329D01*
X038079Y022646D02*
X037183Y022646D01*
X037342Y022804D02*
X037921Y022804D01*
X037762Y022963D02*
X037384Y022963D01*
X037384Y023121D02*
X037743Y023121D01*
X037743Y023280D02*
X037384Y023280D01*
X037384Y023438D02*
X037743Y023438D01*
X037743Y023597D02*
X037276Y023597D01*
X037117Y023755D02*
X037743Y023755D01*
X037743Y023914D02*
X036959Y023914D01*
X036961Y024072D02*
X037743Y024072D01*
X037743Y024231D02*
X037334Y024231D01*
X037435Y024389D02*
X037743Y024389D01*
X037743Y024548D02*
X037437Y024548D01*
X037339Y024706D02*
X037743Y024706D01*
X037743Y024865D02*
X036833Y024865D01*
X036833Y025023D02*
X037743Y025023D01*
X037743Y025182D02*
X036833Y025182D01*
X036833Y025340D02*
X037743Y025340D01*
X037743Y025499D02*
X036833Y025499D01*
X036776Y025657D02*
X037743Y025657D01*
X037743Y025816D02*
X036617Y025816D01*
X036523Y025974D02*
X037743Y025974D01*
X037743Y026133D02*
X036523Y026133D01*
X036523Y026291D02*
X037743Y026291D01*
X037743Y026450D02*
X036523Y026450D01*
X036523Y026608D02*
X037743Y026608D01*
X037743Y026767D02*
X036523Y026767D01*
X036523Y026925D02*
X037743Y026925D01*
X037547Y027089D02*
X037483Y027242D01*
X037483Y027401D02*
X036523Y027401D01*
X036523Y027559D02*
X037546Y027559D01*
X037757Y027718D02*
X036560Y027718D01*
X036718Y027876D02*
X037815Y027876D01*
X037793Y027879D02*
X037864Y027868D01*
X037892Y027868D01*
X037892Y028317D01*
X037909Y028317D01*
X037909Y028334D01*
X038357Y028334D01*
X038357Y028361D01*
X038346Y028432D01*
X038324Y028501D01*
X038291Y028565D01*
X038249Y028623D01*
X038198Y028674D01*
X038140Y028716D01*
X038076Y028749D01*
X038007Y028771D01*
X037936Y028783D01*
X037909Y028783D01*
X037909Y028334D01*
X037892Y028334D01*
X037892Y028783D01*
X037864Y028783D01*
X037793Y028771D01*
X037725Y028749D01*
X037661Y028716D01*
X037602Y028674D01*
X037552Y028623D01*
X037509Y028565D01*
X037477Y028501D01*
X037454Y028432D01*
X037443Y028361D01*
X037443Y028334D01*
X037892Y028334D01*
X037892Y028317D01*
X037443Y028317D01*
X037443Y028289D01*
X037454Y028218D01*
X037477Y028150D01*
X037509Y028086D01*
X037552Y028028D01*
X037602Y027977D01*
X037661Y027934D01*
X037725Y027902D01*
X037793Y027879D01*
X037892Y027876D02*
X037909Y027876D01*
X037909Y027868D02*
X037936Y027868D01*
X038007Y027879D01*
X038076Y027902D01*
X038140Y027934D01*
X038198Y027977D01*
X038249Y028028D01*
X038291Y028086D01*
X038324Y028150D01*
X038346Y028218D01*
X038357Y028289D01*
X038357Y028317D01*
X037909Y028317D01*
X037909Y027868D01*
X037986Y027876D02*
X042673Y027876D01*
X042673Y027718D02*
X038044Y027718D01*
X038255Y027559D02*
X042673Y027559D01*
X042673Y027401D02*
X038317Y027401D01*
X038123Y026925D02*
X042673Y026925D01*
X042673Y026767D02*
X038123Y026767D01*
X038123Y026608D02*
X042673Y026608D01*
X042673Y026450D02*
X038123Y026450D01*
X038123Y026291D02*
X042673Y026291D01*
X042673Y026133D02*
X038123Y026133D01*
X038123Y025974D02*
X039557Y025974D01*
X039486Y025945D02*
X039281Y025739D01*
X039170Y025471D01*
X039170Y025180D01*
X039281Y024912D01*
X039486Y024706D01*
X039755Y024595D01*
X040046Y024595D01*
X040314Y024706D01*
X042673Y024706D01*
X042673Y024548D02*
X038123Y024548D01*
X038123Y024706D02*
X039486Y024706D01*
X039328Y024865D02*
X038123Y024865D01*
X038123Y025023D02*
X039235Y025023D01*
X039170Y025182D02*
X038123Y025182D01*
X038123Y025340D02*
X039170Y025340D01*
X039181Y025499D02*
X038123Y025499D01*
X038123Y025657D02*
X039247Y025657D01*
X039357Y025816D02*
X038123Y025816D01*
X039486Y025945D02*
X039755Y026056D01*
X040046Y026056D01*
X040314Y025945D01*
X040520Y025739D01*
X040631Y025471D01*
X040631Y025180D01*
X040520Y024912D01*
X040314Y024706D01*
X040473Y024865D02*
X042673Y024865D01*
X042673Y025023D02*
X040566Y025023D01*
X040631Y025182D02*
X042673Y025182D01*
X042673Y025340D02*
X040631Y025340D01*
X040619Y025499D02*
X042673Y025499D01*
X042673Y025657D02*
X040554Y025657D01*
X040443Y025816D02*
X042673Y025816D01*
X042673Y025974D02*
X040243Y025974D01*
X038123Y024389D02*
X042673Y024389D01*
X042673Y024231D02*
X038123Y024231D01*
X036910Y024706D02*
X036833Y024706D01*
X036353Y024706D02*
X032064Y024706D01*
X032102Y024548D02*
X036353Y024548D01*
X036276Y024389D02*
X032043Y024389D01*
X032023Y024231D02*
X036215Y024231D01*
X036226Y024072D02*
X033885Y024072D01*
X034020Y023914D02*
X036317Y023914D01*
X036438Y023755D02*
X034076Y023755D01*
X034076Y023597D02*
X036597Y023597D01*
X036321Y023438D02*
X034014Y023438D01*
X033188Y023438D02*
X032424Y023438D01*
X032266Y023597D02*
X033126Y023597D01*
X033126Y023755D02*
X032107Y023755D01*
X032023Y023914D02*
X033182Y023914D01*
X033317Y024072D02*
X032023Y024072D01*
X031643Y024072D02*
X031004Y024072D01*
X031009Y024086D02*
X031019Y024151D01*
X031019Y024184D01*
X031019Y024217D01*
X031009Y024281D01*
X030988Y024344D01*
X030958Y024403D01*
X030920Y024456D01*
X030873Y024502D01*
X030820Y024541D01*
X030761Y024571D01*
X030699Y024591D01*
X030634Y024601D01*
X030601Y024601D01*
X030568Y024601D01*
X030503Y024591D01*
X030441Y024571D01*
X030382Y024541D01*
X030329Y024502D01*
X030282Y024456D01*
X030244Y024403D01*
X030214Y024344D01*
X030194Y024281D01*
X030183Y024217D01*
X030183Y024184D01*
X030601Y024184D01*
X030601Y024601D01*
X030601Y024184D01*
X030601Y024184D01*
X030601Y024184D01*
X031019Y024184D01*
X030601Y024184D01*
X030601Y024184D01*
X030183Y024184D01*
X030183Y024151D01*
X030194Y024086D01*
X030214Y024023D01*
X030244Y023965D01*
X030282Y023911D01*
X030329Y023865D01*
X030382Y023826D01*
X030441Y023796D01*
X030503Y023776D01*
X030568Y023766D01*
X030601Y023766D01*
X030601Y024184D01*
X030601Y024184D01*
X030601Y023766D01*
X030634Y023766D01*
X030699Y023776D01*
X030761Y023796D01*
X030820Y023826D01*
X030834Y023837D01*
X030802Y023759D01*
X030802Y023608D01*
X030860Y023470D01*
X030966Y023363D01*
X031105Y023306D01*
X031255Y023306D01*
X031394Y023363D01*
X031500Y023470D01*
X031558Y023608D01*
X031558Y023759D01*
X031500Y023898D01*
X031394Y024004D01*
X031255Y024061D01*
X031105Y024061D01*
X030982Y024011D01*
X030988Y024023D01*
X031009Y024086D01*
X031017Y024231D02*
X031643Y024231D01*
X031624Y024389D02*
X030965Y024389D01*
X030980Y024591D02*
X031087Y024591D01*
X031186Y024632D01*
X031261Y024708D01*
X031302Y024807D01*
X031302Y024913D01*
X031273Y024983D01*
X031273Y028361D01*
X031433Y028520D01*
X034694Y028520D01*
X034703Y028517D01*
X034742Y028520D01*
X034781Y028520D01*
X034789Y028523D01*
X034798Y028524D01*
X034833Y028542D01*
X034869Y028557D01*
X034875Y028563D01*
X034932Y028591D01*
X034987Y028591D01*
X035086Y028632D01*
X035161Y028708D01*
X035202Y028807D01*
X035202Y028913D01*
X035161Y029012D01*
X035086Y029088D01*
X034987Y029129D01*
X034880Y029129D01*
X034781Y029088D01*
X034709Y029016D01*
X034677Y029000D01*
X031286Y029000D01*
X031197Y028963D01*
X031130Y028896D01*
X030830Y028596D01*
X030793Y028508D01*
X030793Y024983D01*
X030764Y024913D01*
X030764Y024807D01*
X030805Y024708D01*
X030881Y024632D01*
X030980Y024591D01*
X030807Y024548D02*
X031564Y024548D01*
X031603Y024706D02*
X031260Y024706D01*
X031302Y024865D02*
X036353Y024865D01*
X036353Y025023D02*
X031273Y025023D01*
X031273Y025182D02*
X036353Y025182D01*
X036353Y025340D02*
X031273Y025340D01*
X031273Y025499D02*
X036255Y025499D01*
X036143Y026133D02*
X033800Y026133D01*
X033678Y026291D02*
X036143Y026291D01*
X036143Y026450D02*
X031273Y026450D01*
X031273Y026608D02*
X036143Y026608D01*
X036143Y026767D02*
X031273Y026767D01*
X031273Y026925D02*
X036143Y026925D01*
X036143Y027084D02*
X031273Y027084D01*
X031273Y027242D02*
X036143Y027242D01*
X036143Y027401D02*
X031273Y027401D01*
X031273Y027559D02*
X036143Y027559D01*
X036143Y027718D02*
X031273Y027718D01*
X031273Y027876D02*
X036181Y027876D01*
X036339Y028035D02*
X031273Y028035D01*
X031273Y028193D02*
X036498Y028193D01*
X036656Y028352D02*
X031273Y028352D01*
X031423Y028510D02*
X036815Y028510D01*
X036973Y028669D02*
X035122Y028669D01*
X035202Y028827D02*
X037132Y028827D01*
X037290Y028986D02*
X035172Y028986D01*
X034455Y030170D02*
X036443Y030170D01*
X036463Y030150D01*
X033612Y030150D01*
X033488Y030274D01*
X033488Y030773D01*
X033547Y030797D01*
X033671Y030921D01*
X033738Y031083D01*
X033738Y031858D01*
X033671Y032019D01*
X033547Y032143D01*
X033495Y032165D01*
X034101Y032165D01*
X034049Y032143D01*
X033925Y032019D01*
X033858Y031858D01*
X033858Y031083D01*
X033925Y030921D01*
X034049Y030797D01*
X034108Y030773D01*
X034108Y030517D01*
X034343Y030281D01*
X034455Y030170D01*
X034371Y030254D02*
X033509Y030254D01*
X033488Y030412D02*
X034213Y030412D01*
X034108Y030571D02*
X033488Y030571D01*
X033488Y030729D02*
X034108Y030729D01*
X033958Y030888D02*
X033637Y030888D01*
X033723Y031046D02*
X033873Y031046D01*
X033858Y031205D02*
X033738Y031205D01*
X033738Y031363D02*
X033858Y031363D01*
X033858Y031522D02*
X033738Y031522D01*
X033738Y031680D02*
X033858Y031680D01*
X033858Y031839D02*
X033738Y031839D01*
X033680Y031997D02*
X033916Y031997D01*
X034078Y032156D02*
X033517Y032156D01*
X033078Y032156D02*
X032517Y032156D01*
X032680Y031997D02*
X032916Y031997D01*
X032858Y031839D02*
X032738Y031839D01*
X032738Y031680D02*
X032858Y031680D01*
X032858Y031522D02*
X032738Y031522D01*
X032738Y031363D02*
X032858Y031363D01*
X032858Y031205D02*
X032738Y031205D01*
X032723Y031046D02*
X032873Y031046D01*
X032958Y030888D02*
X032637Y030888D01*
X033108Y030729D02*
X026891Y030729D01*
X026891Y030571D02*
X033108Y030571D01*
X033108Y030412D02*
X026891Y030412D01*
X026891Y030254D02*
X033108Y030254D01*
X033130Y030095D02*
X026953Y030095D01*
X027111Y029937D02*
X033288Y029937D01*
X033447Y029778D02*
X027270Y029778D01*
X027428Y029620D02*
X037924Y029620D01*
X038083Y029778D02*
X037632Y029778D01*
X037702Y029937D02*
X038174Y029937D01*
X038298Y030095D02*
X037668Y030095D01*
X037696Y030254D02*
X042673Y030254D01*
X042673Y030095D02*
X038569Y030095D01*
X038693Y029937D02*
X039478Y029937D01*
X039486Y029945D02*
X039281Y029739D01*
X039170Y029471D01*
X039170Y029180D01*
X039281Y028912D01*
X039486Y028706D01*
X039755Y028595D01*
X040046Y028595D01*
X040314Y028706D01*
X040520Y028912D01*
X040631Y029180D01*
X040631Y029471D01*
X040520Y029739D01*
X040314Y029945D01*
X040046Y030056D01*
X039755Y030056D01*
X039486Y029945D01*
X039320Y029778D02*
X038690Y029778D01*
X038555Y029620D02*
X039231Y029620D01*
X039170Y029461D02*
X038303Y029461D01*
X038145Y029303D02*
X039170Y029303D01*
X039185Y029144D02*
X037986Y029144D01*
X037828Y028986D02*
X039250Y028986D01*
X039365Y028827D02*
X037669Y028827D01*
X037597Y028669D02*
X037511Y028669D01*
X037481Y028510D02*
X037352Y028510D01*
X037443Y028352D02*
X037194Y028352D01*
X037035Y028193D02*
X037463Y028193D01*
X037546Y028035D02*
X036877Y028035D01*
X037892Y028035D02*
X037909Y028035D01*
X037892Y028193D02*
X037909Y028193D01*
X037892Y028352D02*
X037909Y028352D01*
X037892Y028510D02*
X037909Y028510D01*
X037892Y028669D02*
X037909Y028669D01*
X038204Y028669D02*
X039577Y028669D01*
X040224Y028669D02*
X042673Y028669D01*
X042673Y028827D02*
X040435Y028827D01*
X040550Y028986D02*
X042673Y028986D01*
X042673Y029144D02*
X040616Y029144D01*
X040631Y029303D02*
X042673Y029303D01*
X042673Y029461D02*
X040631Y029461D01*
X040569Y029620D02*
X042673Y029620D01*
X042673Y029778D02*
X040481Y029778D01*
X040322Y029937D02*
X042673Y029937D01*
X042563Y030412D02*
X037854Y030412D01*
X037923Y030571D02*
X042404Y030571D01*
X042246Y030729D02*
X037923Y030729D01*
X037923Y030888D02*
X042087Y030888D01*
X041929Y031046D02*
X037977Y031046D01*
X038002Y031205D02*
X041770Y031205D01*
X041612Y031363D02*
X037911Y031363D01*
X037556Y031363D02*
X035778Y031363D01*
X035778Y031205D02*
X037464Y031205D01*
X037489Y031046D02*
X035762Y031046D01*
X035686Y030888D02*
X037543Y030888D01*
X037543Y030729D02*
X035489Y030729D01*
X035318Y030729D02*
X035278Y030729D01*
X035278Y030690D02*
X035278Y031450D01*
X034818Y031450D01*
X034818Y031132D01*
X034830Y031058D01*
X034853Y030986D01*
X034887Y030919D01*
X034932Y030858D01*
X034985Y030804D01*
X035046Y030760D01*
X035114Y030725D01*
X035185Y030702D01*
X035260Y030690D01*
X035278Y030690D01*
X035107Y030729D02*
X034488Y030729D01*
X034592Y030571D02*
X036464Y030571D01*
X036803Y030571D02*
X037475Y030571D01*
X037766Y029461D02*
X027587Y029461D01*
X027745Y029303D02*
X037607Y029303D01*
X037449Y029144D02*
X027904Y029144D01*
X027913Y028986D02*
X031251Y028986D01*
X031061Y028827D02*
X027913Y028827D01*
X027913Y028669D02*
X030902Y028669D01*
X030794Y028510D02*
X027913Y028510D01*
X027913Y028352D02*
X030793Y028352D01*
X030793Y028193D02*
X027913Y028193D01*
X027913Y028035D02*
X030793Y028035D01*
X030793Y027876D02*
X027913Y027876D01*
X027913Y027718D02*
X030793Y027718D01*
X030793Y027559D02*
X027913Y027559D01*
X027913Y027401D02*
X030793Y027401D01*
X030793Y027242D02*
X027913Y027242D01*
X027913Y027084D02*
X030793Y027084D01*
X030793Y026925D02*
X027913Y026925D01*
X027913Y026767D02*
X030793Y026767D01*
X030793Y026608D02*
X027913Y026608D01*
X027913Y026585D02*
X027913Y026585D01*
X027776Y026450D02*
X030793Y026450D01*
X030793Y026291D02*
X027614Y026291D01*
X027452Y026133D02*
X030793Y026133D01*
X030793Y025974D02*
X027290Y025974D01*
X027128Y025816D02*
X030793Y025816D01*
X030793Y025657D02*
X026966Y025657D01*
X026891Y025499D02*
X030793Y025499D01*
X030793Y025340D02*
X026891Y025340D01*
X026891Y025182D02*
X030793Y025182D01*
X030793Y025023D02*
X026891Y025023D01*
X026891Y024865D02*
X030764Y024865D01*
X030807Y024706D02*
X026891Y024706D01*
X026891Y024548D02*
X030395Y024548D01*
X030601Y024548D02*
X030601Y024548D01*
X030601Y024389D02*
X030601Y024389D01*
X030601Y024231D02*
X030601Y024231D01*
X030601Y024072D02*
X030601Y024072D01*
X030601Y023914D02*
X030601Y023914D01*
X030802Y023755D02*
X026891Y023755D01*
X026891Y023914D02*
X030281Y023914D01*
X030198Y024072D02*
X026891Y024072D01*
X026891Y024231D02*
X030185Y024231D01*
X030237Y024389D02*
X026891Y024389D01*
X027077Y023597D02*
X030807Y023597D01*
X030877Y023438D02*
X030891Y023438D01*
X030973Y023280D02*
X032045Y023280D01*
X031887Y023438D02*
X031468Y023438D01*
X031553Y023597D02*
X031728Y023597D01*
X031643Y023755D02*
X031558Y023755D01*
X031484Y023914D02*
X031643Y023914D01*
X032204Y023121D02*
X030987Y023121D01*
X030931Y022963D02*
X036288Y022963D01*
X036663Y022804D02*
X030708Y022804D01*
X030510Y022804D02*
X029911Y022804D01*
X029549Y023121D02*
X027156Y023121D01*
X027187Y023280D02*
X029708Y023280D01*
X029391Y022963D02*
X027056Y022963D01*
X026367Y022963D02*
X016820Y022963D01*
X016130Y022963D02*
X014386Y022963D01*
X014227Y023121D02*
X016031Y023121D01*
X016000Y023280D02*
X014069Y023280D01*
X013910Y023438D02*
X016022Y023438D01*
X016110Y023597D02*
X013752Y023597D01*
X013549Y023121D02*
X012963Y023121D01*
X012898Y022963D02*
X013707Y022963D01*
X013866Y022804D02*
X011001Y022804D01*
X010843Y022963D02*
X011317Y022963D01*
X011326Y022941D02*
X011401Y022865D01*
X011500Y022824D01*
X011607Y022824D01*
X011706Y022865D01*
X011782Y022941D01*
X011823Y023040D01*
X011823Y023147D01*
X011794Y023216D01*
X011794Y023535D01*
X011757Y023623D01*
X011690Y023690D01*
X009962Y025418D01*
X009874Y025455D01*
X006147Y025455D01*
X006059Y025418D01*
X005992Y025351D01*
X004734Y024093D01*
X003454Y024093D01*
X003366Y024056D01*
X003298Y023989D01*
X002956Y023647D01*
X002889Y023580D01*
X002852Y023491D01*
X002852Y019618D01*
X002551Y019317D01*
X000513Y019317D01*
X000513Y019159D02*
X002383Y019159D01*
X002364Y019113D02*
X002364Y019007D01*
X002405Y018908D01*
X002481Y018832D01*
X002580Y018791D01*
X002687Y018791D01*
X002786Y018832D01*
X002861Y018908D01*
X002890Y018977D01*
X003296Y019383D01*
X003332Y019471D01*
X003332Y023344D01*
X003601Y023613D01*
X004881Y023613D01*
X004969Y023649D01*
X005037Y023717D01*
X006295Y024975D01*
X009726Y024975D01*
X011314Y023387D01*
X011314Y023216D01*
X011285Y023147D01*
X011285Y023040D01*
X011326Y022941D01*
X011285Y023121D02*
X010654Y023121D01*
X011105Y023597D02*
X010061Y023597D01*
X010061Y023589D02*
X009988Y023414D01*
X009855Y023281D01*
X009680Y023208D01*
X009491Y023208D01*
X009316Y023281D01*
X009182Y023414D01*
X009110Y023589D01*
X009110Y023778D01*
X009182Y023953D01*
X009316Y024087D01*
X009491Y024159D01*
X009680Y024159D01*
X009855Y024087D01*
X009988Y023953D01*
X010061Y023778D01*
X010061Y023589D01*
X009998Y023438D02*
X011263Y023438D01*
X011314Y023280D02*
X009852Y023280D01*
X009319Y023280D02*
X008153Y023280D01*
X007950Y022804D02*
X006692Y022804D01*
X006494Y022804D02*
X004417Y022804D01*
X004258Y022646D02*
X007083Y022646D01*
X007034Y022487D02*
X004100Y022487D01*
X003973Y022329D02*
X007079Y022329D01*
X007349Y022170D02*
X003973Y022170D01*
X003973Y022012D02*
X010450Y022012D01*
X010605Y021857D02*
X010605Y021857D01*
X010609Y021853D02*
X003973Y021853D01*
X003973Y021695D02*
X018271Y021695D01*
X018189Y021536D02*
X003973Y021536D01*
X003973Y021378D02*
X018178Y021378D01*
X018231Y021219D02*
X003973Y021219D01*
X003973Y021061D02*
X018394Y021061D01*
X018593Y021061D02*
X018593Y021061D01*
X018593Y021010D02*
X018626Y021010D01*
X018691Y021020D01*
X018754Y021041D01*
X018812Y021070D01*
X018826Y021081D01*
X018794Y021003D01*
X018794Y020853D01*
X018852Y020714D01*
X018958Y020607D01*
X019097Y020550D01*
X019247Y020550D01*
X019386Y020607D01*
X019492Y020714D01*
X019550Y020853D01*
X019550Y021003D01*
X019492Y021142D01*
X019386Y021248D01*
X019247Y021306D01*
X019097Y021306D01*
X018974Y021255D01*
X018980Y021267D01*
X019001Y021330D01*
X019011Y021395D01*
X019011Y021428D01*
X018593Y021428D01*
X018593Y021428D01*
X018593Y021428D01*
X018593Y021010D01*
X018793Y021061D02*
X018818Y021061D01*
X018794Y020902D02*
X015087Y020902D01*
X015246Y020744D02*
X018405Y020744D01*
X018262Y020585D02*
X015320Y020585D01*
X015320Y020427D02*
X018223Y020427D01*
X018253Y020268D02*
X015284Y020268D01*
X015125Y020110D02*
X018373Y020110D01*
X018829Y020110D02*
X024377Y020110D01*
X024250Y020268D02*
X018949Y020268D01*
X018979Y020427D02*
X024215Y020427D01*
X024249Y020585D02*
X021923Y020585D01*
X021862Y020525D02*
X021996Y020658D01*
X022068Y020833D01*
X022068Y021022D01*
X021996Y021197D01*
X021862Y021331D01*
X021688Y021403D01*
X021499Y021403D01*
X021324Y021331D01*
X021190Y021197D01*
X021118Y021022D01*
X021118Y020833D01*
X021190Y020658D01*
X021324Y020525D01*
X021499Y020452D01*
X021688Y020452D01*
X021862Y020525D01*
X022031Y020744D02*
X024375Y020744D01*
X024456Y021061D02*
X022053Y021061D01*
X022068Y020902D02*
X026297Y020902D01*
X026243Y021061D02*
X024715Y021061D01*
X024913Y021219D02*
X026243Y021219D01*
X026243Y021378D02*
X024963Y021378D01*
X025387Y021536D02*
X026243Y021536D01*
X026243Y021695D02*
X025435Y021695D01*
X025404Y021853D02*
X026172Y021853D01*
X026392Y022170D02*
X028703Y022170D01*
X028645Y022012D02*
X026551Y022012D01*
X026623Y021853D02*
X028645Y021853D01*
X028645Y021695D02*
X026623Y021695D01*
X026623Y021536D02*
X028645Y021536D01*
X028645Y021378D02*
X026623Y021378D01*
X026623Y021219D02*
X028661Y021219D01*
X028747Y021061D02*
X026676Y021061D01*
X026834Y020902D02*
X037834Y020902D01*
X039015Y020110D02*
X030796Y020110D01*
X030833Y019951D02*
X039043Y019951D01*
X039043Y019793D02*
X030833Y019793D01*
X030984Y019634D02*
X039043Y019634D01*
X039043Y019476D02*
X031142Y019476D01*
X030769Y019000D02*
X030662Y019000D01*
X030611Y019159D02*
X030504Y019159D01*
X030452Y019317D02*
X026980Y019317D01*
X026952Y019476D02*
X030294Y019476D01*
X030233Y019634D02*
X025115Y019634D01*
X025305Y019793D02*
X030233Y019793D01*
X030233Y019951D02*
X029705Y019951D01*
X029362Y019951D02*
X026755Y019951D01*
X026833Y020110D02*
X029264Y020110D01*
X029287Y020268D02*
X026802Y020268D01*
X026614Y020585D02*
X024937Y020585D01*
X024971Y020427D02*
X029474Y020427D01*
X029593Y020427D02*
X030031Y020427D01*
X030252Y020110D02*
X030271Y020110D01*
X030424Y021061D02*
X030747Y021061D01*
X030661Y021219D02*
X030510Y021219D01*
X030525Y021378D02*
X030645Y021378D01*
X030645Y021536D02*
X030525Y021536D01*
X030525Y021695D02*
X030645Y021695D01*
X030645Y021853D02*
X030525Y021853D01*
X030525Y022012D02*
X030645Y022012D01*
X030703Y022170D02*
X030468Y022170D01*
X029703Y022170D02*
X029468Y022170D01*
X029525Y022012D02*
X029645Y022012D01*
X029645Y021853D02*
X029525Y021853D01*
X029525Y021695D02*
X029645Y021695D01*
X029645Y021536D02*
X029525Y021536D01*
X029525Y021378D02*
X029645Y021378D01*
X029661Y021219D02*
X029510Y021219D01*
X029424Y021061D02*
X029747Y021061D01*
X031424Y021061D02*
X031747Y021061D01*
X031661Y021219D02*
X031510Y021219D01*
X031525Y021378D02*
X031645Y021378D01*
X031645Y021536D02*
X031525Y021536D01*
X031525Y021695D02*
X031645Y021695D01*
X031645Y021853D02*
X031525Y021853D01*
X031525Y022012D02*
X031645Y022012D01*
X031703Y022170D02*
X031468Y022170D01*
X032468Y022170D02*
X032703Y022170D01*
X032645Y022012D02*
X032525Y022012D01*
X032525Y021853D02*
X032645Y021853D01*
X032645Y021695D02*
X032525Y021695D01*
X032525Y021536D02*
X032645Y021536D01*
X032645Y021378D02*
X032525Y021378D01*
X032510Y021219D02*
X032661Y021219D01*
X032747Y021061D02*
X032424Y021061D01*
X033424Y021061D02*
X033747Y021061D01*
X033661Y021219D02*
X033510Y021219D01*
X033525Y021378D02*
X033645Y021378D01*
X033645Y021536D02*
X033525Y021536D01*
X033525Y021695D02*
X033645Y021695D01*
X033645Y021853D02*
X033525Y021853D01*
X033525Y022012D02*
X033645Y022012D01*
X033703Y022170D02*
X033468Y022170D01*
X034468Y022170D02*
X034703Y022170D01*
X034645Y022012D02*
X034525Y022012D01*
X034525Y021853D02*
X034645Y021853D01*
X034645Y021695D02*
X034525Y021695D01*
X034525Y021536D02*
X034645Y021536D01*
X034645Y021378D02*
X034525Y021378D01*
X034510Y021219D02*
X034661Y021219D01*
X034747Y021061D02*
X034424Y021061D01*
X035424Y021061D02*
X035747Y021061D01*
X035661Y021219D02*
X035510Y021219D01*
X035525Y021378D02*
X035645Y021378D01*
X035645Y021536D02*
X035525Y021536D01*
X035525Y021695D02*
X035645Y021695D01*
X035645Y021853D02*
X035525Y021853D01*
X035525Y022012D02*
X035645Y022012D01*
X035703Y022170D02*
X035468Y022170D01*
X039236Y020427D02*
X039443Y020427D01*
X039443Y020268D02*
X039394Y020268D01*
X039423Y020110D02*
X039443Y020110D01*
X039443Y019951D02*
X039423Y019951D01*
X039423Y019793D02*
X039443Y019793D01*
X039443Y019634D02*
X039423Y019634D01*
X039423Y019476D02*
X039443Y019476D01*
X039443Y019317D02*
X039423Y019317D01*
X039423Y019159D02*
X039443Y019159D01*
X039443Y019000D02*
X039423Y019000D01*
X039423Y018842D02*
X039443Y018842D01*
X039443Y018683D02*
X039423Y018683D01*
X039423Y018525D02*
X039443Y018525D01*
X039443Y018366D02*
X039423Y018366D01*
X039400Y018208D02*
X039443Y018208D01*
X039443Y018049D02*
X039328Y018049D01*
X039443Y017891D02*
X038807Y017891D01*
X038807Y018049D02*
X038838Y018049D01*
X038814Y018208D02*
X038743Y018208D01*
X038584Y018366D02*
X038909Y018366D01*
X039043Y018525D02*
X038426Y018525D01*
X038267Y018683D02*
X039043Y018683D01*
X039043Y018842D02*
X030821Y018842D01*
X030599Y018525D02*
X030553Y018506D01*
X030477Y018430D01*
X030444Y018350D01*
X030012Y018350D01*
X029960Y018402D01*
X030053Y018441D01*
X030128Y018516D01*
X030169Y018615D01*
X030169Y018722D01*
X030128Y018821D01*
X030077Y018872D01*
X030252Y018872D01*
X030599Y018525D01*
X030597Y018525D02*
X030132Y018525D01*
X030169Y018683D02*
X030442Y018683D01*
X030283Y018842D02*
X030108Y018842D01*
X029996Y018366D02*
X030450Y018366D01*
X031306Y018366D02*
X038047Y018366D01*
X038205Y018208D02*
X031392Y018208D01*
X031365Y018049D02*
X038364Y018049D01*
X038427Y017891D02*
X031872Y017891D01*
X031810Y017415D02*
X031320Y017415D01*
X030686Y017415D02*
X030052Y017415D01*
X030061Y017257D02*
X030250Y017257D01*
X030164Y017098D02*
X030061Y017098D01*
X030061Y016940D02*
X030192Y016940D01*
X030061Y016781D02*
X030686Y016781D01*
X030686Y017257D02*
X030617Y017257D01*
X029493Y017732D02*
X009110Y017732D01*
X011400Y019634D02*
X003973Y019634D01*
X003973Y019476D02*
X020172Y019476D01*
X020143Y019317D02*
X003973Y019317D01*
X003973Y019159D02*
X020226Y019159D01*
X020681Y019353D02*
X020681Y019406D01*
X020640Y019505D01*
X020564Y019581D01*
X020470Y019620D01*
X024291Y019620D01*
X024197Y019581D01*
X024121Y019505D01*
X024080Y019406D01*
X024080Y019299D01*
X024100Y019252D01*
X020781Y019252D01*
X020681Y019353D01*
X020717Y019317D02*
X024080Y019317D01*
X024109Y019476D02*
X020652Y019476D01*
X021264Y020585D02*
X019332Y020585D01*
X019505Y020744D02*
X021155Y020744D01*
X021118Y020902D02*
X019550Y020902D01*
X019526Y021061D02*
X021134Y021061D01*
X021212Y021219D02*
X019415Y021219D01*
X019008Y021378D02*
X021437Y021378D01*
X021749Y021378D02*
X024208Y021378D01*
X024226Y021536D02*
X018997Y021536D01*
X018916Y021695D02*
X024330Y021695D01*
X024258Y021219D02*
X021974Y021219D01*
X019012Y020585D02*
X018940Y020585D01*
X018839Y020744D02*
X018797Y020744D01*
X018593Y021219D02*
X018593Y021219D01*
X018593Y021378D02*
X018593Y021378D01*
X018828Y022329D02*
X014309Y022329D01*
X014347Y022367D02*
X014347Y022367D01*
X014673Y020902D02*
X013195Y020902D01*
X013131Y020967D02*
X012952Y020967D01*
X012952Y020507D01*
X013412Y020507D01*
X013412Y020685D01*
X013131Y020967D01*
X012952Y020902D02*
X012912Y020902D01*
X012912Y020744D02*
X012952Y020744D01*
X012952Y020585D02*
X012912Y020585D01*
X012668Y020902D02*
X003973Y020902D01*
X003973Y020744D02*
X012510Y020744D01*
X012452Y020585D02*
X003973Y020585D01*
X003973Y020427D02*
X012452Y020427D01*
X012472Y020268D02*
X003973Y020268D01*
X003973Y020110D02*
X011454Y020110D01*
X011654Y020110D02*
X012630Y020110D01*
X013233Y020110D02*
X014635Y020110D01*
X014477Y020268D02*
X013392Y020268D01*
X013412Y020427D02*
X014440Y020427D01*
X014440Y020585D02*
X013412Y020585D01*
X013354Y020744D02*
X014515Y020744D01*
X013418Y019000D02*
X003973Y019000D01*
X003973Y018842D02*
X013348Y018842D01*
X013381Y018683D02*
X003973Y018683D01*
X003973Y018525D02*
X014525Y018525D01*
X014527Y018366D02*
X003973Y018366D01*
X003973Y018208D02*
X014661Y018208D01*
X014907Y018208D02*
X015206Y018208D01*
X015241Y018049D02*
X003973Y018049D01*
X003973Y017891D02*
X015902Y017891D01*
X015844Y018049D02*
X015708Y018049D01*
X015763Y018208D02*
X015883Y018208D01*
X016381Y018049D02*
X029176Y018049D01*
X029334Y017891D02*
X016323Y017891D01*
X016238Y017500D02*
X015768Y017500D01*
X015686Y017418D01*
X015686Y016711D01*
X015768Y016629D01*
X015813Y016629D01*
X015813Y016258D01*
X016887Y015184D01*
X016887Y014782D01*
X016969Y014700D01*
X017439Y014700D01*
X017521Y014782D01*
X017521Y015489D01*
X017439Y015571D01*
X017037Y015571D01*
X016193Y016415D01*
X016193Y016629D01*
X016238Y016629D01*
X016320Y016711D01*
X016320Y017418D01*
X016238Y017500D01*
X016320Y017415D02*
X016855Y017415D01*
X016859Y017429D02*
X016847Y017384D01*
X016847Y017073D01*
X017195Y017073D01*
X017195Y017056D01*
X016847Y017056D01*
X016847Y016746D01*
X016859Y016700D01*
X016883Y016659D01*
X016916Y016625D01*
X016957Y016602D01*
X017003Y016589D01*
X017195Y016589D01*
X017195Y017056D01*
X017212Y017056D01*
X017212Y016589D01*
X017405Y016589D01*
X017450Y016602D01*
X017491Y016625D01*
X017525Y016659D01*
X017549Y016700D01*
X017561Y016746D01*
X017561Y017056D01*
X017212Y017056D01*
X017212Y017073D01*
X017195Y017073D01*
X017195Y017540D01*
X017003Y017540D01*
X016957Y017528D01*
X016916Y017504D01*
X016883Y017470D01*
X016859Y017429D01*
X016847Y017257D02*
X016320Y017257D01*
X016320Y017098D02*
X016847Y017098D01*
X016847Y016940D02*
X016320Y016940D01*
X016320Y016781D02*
X016847Y016781D01*
X016921Y016623D02*
X016193Y016623D01*
X016193Y016464D02*
X018313Y016464D01*
X018313Y016623D02*
X017487Y016623D01*
X017561Y016781D02*
X018186Y016781D01*
X018186Y016940D02*
X017561Y016940D01*
X017561Y017073D02*
X017561Y017384D01*
X017549Y017429D01*
X017525Y017470D01*
X017491Y017504D01*
X017450Y017528D01*
X017405Y017540D01*
X017212Y017540D01*
X017212Y017073D01*
X017561Y017073D01*
X017561Y017098D02*
X018186Y017098D01*
X018186Y017257D02*
X017561Y017257D01*
X017552Y017415D02*
X018186Y017415D01*
X018820Y017415D02*
X019355Y017415D01*
X019359Y017429D02*
X019347Y017384D01*
X019347Y017073D01*
X019695Y017073D01*
X019695Y017056D01*
X019347Y017056D01*
X019347Y016746D01*
X019359Y016700D01*
X019383Y016659D01*
X019416Y016625D01*
X019457Y016602D01*
X019503Y016589D01*
X019695Y016589D01*
X019695Y017056D01*
X019712Y017056D01*
X019712Y016589D01*
X019905Y016589D01*
X019950Y016602D01*
X019991Y016625D01*
X020025Y016659D01*
X020049Y016700D01*
X020061Y016746D01*
X020061Y017056D01*
X019712Y017056D01*
X019712Y017073D01*
X019695Y017073D01*
X019695Y017540D01*
X019503Y017540D01*
X019457Y017528D01*
X019416Y017504D01*
X019383Y017470D01*
X019359Y017429D01*
X019347Y017257D02*
X018820Y017257D01*
X018820Y017098D02*
X019347Y017098D01*
X019347Y016940D02*
X018820Y016940D01*
X018820Y016781D02*
X019347Y016781D01*
X019421Y016623D02*
X018693Y016623D01*
X018748Y016464D02*
X021161Y016464D01*
X021164Y016460D02*
X021164Y016407D01*
X021205Y016308D01*
X021281Y016232D01*
X021380Y016191D01*
X021487Y016191D01*
X021586Y016232D01*
X021661Y016308D01*
X021702Y016407D01*
X021702Y016513D01*
X021661Y016612D01*
X021586Y016688D01*
X021487Y016729D01*
X021433Y016729D01*
X021320Y016842D01*
X021320Y017418D01*
X021238Y017500D01*
X020768Y017500D01*
X020686Y017418D01*
X020686Y016711D01*
X020768Y016629D01*
X020995Y016629D01*
X021164Y016460D01*
X021208Y016306D02*
X019257Y016306D01*
X019415Y016147D02*
X021552Y016147D01*
X021543Y015989D02*
X019574Y015989D01*
X019732Y015830D02*
X021543Y015830D01*
X021543Y015672D02*
X019873Y015672D01*
X019997Y015513D02*
X020710Y015513D01*
X020686Y015355D02*
X020021Y015355D01*
X020021Y015196D02*
X020686Y015196D01*
X020686Y015038D02*
X020021Y015038D01*
X020021Y014879D02*
X020686Y014879D01*
X020747Y014721D02*
X019959Y014721D01*
X019448Y014721D02*
X019323Y014721D01*
X019323Y014879D02*
X019387Y014879D01*
X019387Y015038D02*
X019323Y015038D01*
X019323Y015196D02*
X019387Y015196D01*
X019387Y015355D02*
X019323Y015355D01*
X019363Y015513D02*
X019411Y015513D01*
X018943Y015355D02*
X018820Y015355D01*
X018820Y015489D02*
X018738Y015571D01*
X018268Y015571D01*
X018186Y015489D01*
X018186Y015355D01*
X018034Y015355D01*
X017987Y015375D01*
X017880Y015375D01*
X017781Y015334D01*
X017705Y015258D01*
X017664Y015159D01*
X017664Y015052D01*
X017705Y014954D01*
X017781Y014878D01*
X017880Y014837D01*
X017987Y014837D01*
X018086Y014878D01*
X018123Y014915D01*
X018186Y014915D01*
X018186Y014782D01*
X018268Y014700D01*
X018738Y014700D01*
X018820Y014782D01*
X018820Y015489D01*
X018796Y015513D02*
X018903Y015513D01*
X018864Y015672D02*
X016936Y015672D01*
X016778Y015830D02*
X018923Y015830D01*
X019036Y015989D02*
X016619Y015989D01*
X016461Y016147D02*
X018528Y016147D01*
X018369Y016306D02*
X016302Y016306D01*
X016082Y015989D02*
X014119Y015989D01*
X013961Y016147D02*
X015923Y016147D01*
X015813Y016306D02*
X013802Y016306D01*
X013693Y016464D02*
X015813Y016464D01*
X015813Y016623D02*
X014987Y016623D01*
X014991Y016625D02*
X015025Y016659D01*
X015049Y016700D01*
X015061Y016746D01*
X015061Y017056D01*
X014712Y017056D01*
X014712Y016589D01*
X014905Y016589D01*
X014950Y016602D01*
X014991Y016625D01*
X015061Y016781D02*
X015686Y016781D01*
X015686Y016940D02*
X015061Y016940D01*
X015061Y017073D02*
X015061Y017384D01*
X015049Y017429D01*
X015025Y017470D01*
X014991Y017504D01*
X014950Y017528D01*
X014905Y017540D01*
X014712Y017540D01*
X014712Y017073D01*
X014695Y017073D01*
X014695Y017056D01*
X014347Y017056D01*
X014347Y016746D01*
X014359Y016700D01*
X014383Y016659D01*
X014416Y016625D01*
X014457Y016602D01*
X014503Y016589D01*
X014695Y016589D01*
X014695Y017056D01*
X014712Y017056D01*
X014712Y017073D01*
X015061Y017073D01*
X015061Y017098D02*
X015686Y017098D01*
X015686Y017257D02*
X015061Y017257D01*
X015052Y017415D02*
X015686Y017415D01*
X014712Y017415D02*
X014695Y017415D01*
X014695Y017540D02*
X014503Y017540D01*
X014457Y017528D01*
X014416Y017504D01*
X014383Y017470D01*
X014359Y017429D01*
X014347Y017384D01*
X014347Y017073D01*
X014695Y017073D01*
X014695Y017540D01*
X014695Y017257D02*
X014712Y017257D01*
X014695Y017098D02*
X014712Y017098D01*
X014695Y016940D02*
X014712Y016940D01*
X014695Y016781D02*
X014712Y016781D01*
X014695Y016623D02*
X014712Y016623D01*
X014421Y016623D02*
X013693Y016623D01*
X013820Y016781D02*
X014347Y016781D01*
X014347Y016940D02*
X013820Y016940D01*
X013820Y017098D02*
X014347Y017098D01*
X014347Y017257D02*
X013820Y017257D01*
X013820Y017415D02*
X014355Y017415D01*
X013186Y017415D02*
X012552Y017415D01*
X012549Y017429D02*
X012525Y017470D01*
X012491Y017504D01*
X012450Y017528D01*
X012405Y017540D01*
X012212Y017540D01*
X012212Y017073D01*
X012561Y017073D01*
X012561Y017384D01*
X012549Y017429D01*
X012561Y017257D02*
X013186Y017257D01*
X013186Y017098D02*
X012561Y017098D01*
X012561Y016940D02*
X013186Y016940D01*
X013186Y016781D02*
X012561Y016781D01*
X012487Y016623D02*
X013313Y016623D01*
X012212Y016623D02*
X012195Y016623D01*
X012195Y016781D02*
X012212Y016781D01*
X012195Y016940D02*
X012212Y016940D01*
X012195Y017098D02*
X012212Y017098D01*
X012195Y017257D02*
X012212Y017257D01*
X012195Y017415D02*
X012212Y017415D01*
X014278Y015830D02*
X016240Y015830D01*
X016399Y015672D02*
X014436Y015672D01*
X014997Y015513D02*
X015710Y015513D01*
X015686Y015489D02*
X015686Y014782D01*
X015768Y014700D01*
X016238Y014700D01*
X016320Y014782D01*
X016320Y014915D01*
X016394Y014915D01*
X016431Y014878D01*
X016530Y014837D01*
X016637Y014837D01*
X016736Y014878D01*
X016811Y014954D01*
X016852Y015052D01*
X016852Y015159D01*
X016811Y015258D01*
X016736Y015334D01*
X016703Y015347D01*
X016695Y015355D01*
X016684Y015355D01*
X016657Y015366D01*
X016655Y015368D01*
X016654Y015368D01*
X016637Y015375D01*
X016530Y015375D01*
X016483Y015355D01*
X016320Y015355D01*
X016320Y015489D01*
X016238Y015571D01*
X015768Y015571D01*
X015686Y015489D01*
X015686Y015355D02*
X015021Y015355D01*
X015021Y015196D02*
X015686Y015196D01*
X015686Y015038D02*
X015021Y015038D01*
X015021Y014879D02*
X015686Y014879D01*
X015747Y014721D02*
X014959Y014721D01*
X016003Y015135D02*
X016604Y015135D01*
X016583Y015106D01*
X016837Y015196D02*
X016874Y015196D01*
X016887Y015038D02*
X016846Y015038D01*
X016887Y014879D02*
X016737Y014879D01*
X016948Y014721D02*
X016258Y014721D01*
X016320Y014879D02*
X016430Y014879D01*
X016696Y015355D02*
X016716Y015355D01*
X016557Y015513D02*
X016296Y015513D01*
X017497Y015513D02*
X018210Y015513D01*
X017831Y015355D02*
X017521Y015355D01*
X017521Y015196D02*
X017680Y015196D01*
X017671Y015038D02*
X017521Y015038D01*
X017521Y014879D02*
X017780Y014879D01*
X017933Y015106D02*
X017963Y015135D01*
X018503Y015135D01*
X018820Y015196D02*
X018943Y015196D01*
X018943Y015038D02*
X018820Y015038D01*
X018820Y014879D02*
X018943Y014879D01*
X018943Y014721D02*
X018758Y014721D01*
X018247Y014721D02*
X017459Y014721D01*
X018087Y014879D02*
X018186Y014879D01*
X019323Y014562D02*
X021543Y014562D01*
X021543Y014404D02*
X019323Y014404D01*
X019323Y014245D02*
X021543Y014245D01*
X021543Y014087D02*
X019323Y014087D01*
X019270Y013928D02*
X021528Y013928D01*
X021755Y013617D02*
X021923Y013786D01*
X021923Y014745D01*
X021969Y014700D01*
X022439Y014700D01*
X022443Y014705D01*
X022443Y013706D01*
X022355Y013617D01*
X021755Y013617D01*
X021907Y013770D02*
X022443Y013770D01*
X022443Y013928D02*
X021923Y013928D01*
X021923Y014087D02*
X022443Y014087D01*
X022443Y014245D02*
X021923Y014245D01*
X021923Y014404D02*
X022443Y014404D01*
X022443Y014562D02*
X021923Y014562D01*
X021923Y014721D02*
X021948Y014721D01*
X021543Y014721D02*
X021258Y014721D01*
X021433Y015096D02*
X021394Y015135D01*
X021003Y015135D01*
X021296Y015513D02*
X021543Y015513D01*
X021543Y015355D02*
X021512Y015355D01*
X021659Y016306D02*
X021710Y016306D01*
X021702Y016464D02*
X021869Y016464D01*
X021957Y016602D02*
X022003Y016589D01*
X022195Y016589D01*
X022195Y017056D01*
X021847Y017056D01*
X021847Y016746D01*
X021859Y016700D01*
X021883Y016659D01*
X021916Y016625D01*
X021957Y016602D01*
X021921Y016623D02*
X021651Y016623D01*
X021847Y016781D02*
X021381Y016781D01*
X021320Y016940D02*
X021847Y016940D01*
X021847Y017073D02*
X021847Y017384D01*
X021859Y017429D01*
X021883Y017470D01*
X021916Y017504D01*
X021957Y017528D01*
X022003Y017540D01*
X022195Y017540D01*
X022195Y017073D01*
X022195Y017056D01*
X022212Y017056D01*
X022212Y016589D01*
X022405Y016589D01*
X022450Y016602D01*
X022491Y016625D01*
X022525Y016659D01*
X022549Y016700D01*
X022561Y016746D01*
X022561Y017056D01*
X022212Y017056D01*
X022212Y017073D01*
X022195Y017073D01*
X021847Y017073D01*
X021847Y017098D02*
X021320Y017098D01*
X021320Y017257D02*
X021847Y017257D01*
X021855Y017415D02*
X021320Y017415D01*
X021003Y017065D02*
X020933Y016995D01*
X020933Y016960D01*
X020686Y016940D02*
X020061Y016940D01*
X020061Y017073D02*
X020061Y017384D01*
X020049Y017429D01*
X020025Y017470D01*
X019991Y017504D01*
X019950Y017528D01*
X019905Y017540D01*
X019712Y017540D01*
X019712Y017073D01*
X020061Y017073D01*
X020061Y017098D02*
X020686Y017098D01*
X020686Y017257D02*
X020061Y017257D01*
X020052Y017415D02*
X020686Y017415D01*
X020686Y016781D02*
X020061Y016781D01*
X019987Y016623D02*
X021002Y016623D01*
X019712Y016623D02*
X019695Y016623D01*
X019695Y016781D02*
X019712Y016781D01*
X019695Y016940D02*
X019712Y016940D01*
X019695Y017098D02*
X019712Y017098D01*
X019695Y017257D02*
X019712Y017257D01*
X019695Y017415D02*
X019712Y017415D01*
X022195Y017415D02*
X022212Y017415D01*
X022212Y017540D02*
X022212Y017073D01*
X022561Y017073D01*
X022561Y017384D01*
X022549Y017429D01*
X022525Y017470D01*
X022491Y017504D01*
X022450Y017528D01*
X022405Y017540D01*
X022212Y017540D01*
X022195Y017257D02*
X022212Y017257D01*
X022195Y017098D02*
X022212Y017098D01*
X022195Y016940D02*
X022212Y016940D01*
X022195Y016781D02*
X022212Y016781D01*
X022195Y016623D02*
X022212Y016623D01*
X022487Y016623D02*
X024421Y016623D01*
X024416Y016625D02*
X024457Y016602D01*
X024503Y016589D01*
X024695Y016589D01*
X024695Y017056D01*
X024347Y017056D01*
X024347Y016746D01*
X024359Y016700D01*
X024383Y016659D01*
X024416Y016625D01*
X024347Y016781D02*
X024235Y016781D01*
X024261Y016808D02*
X024302Y016907D01*
X024302Y017013D01*
X024261Y017112D01*
X024186Y017188D01*
X024087Y017229D01*
X023980Y017229D01*
X023881Y017188D01*
X023843Y017150D01*
X023820Y017150D01*
X023820Y017418D01*
X023738Y017500D01*
X023268Y017500D01*
X023186Y017418D01*
X023186Y016711D01*
X023268Y016629D01*
X023738Y016629D01*
X023820Y016711D01*
X023820Y016770D01*
X023843Y016770D01*
X023881Y016732D01*
X023980Y016691D01*
X024087Y016691D01*
X024186Y016732D01*
X024261Y016808D01*
X024302Y016940D02*
X024347Y016940D01*
X024347Y017073D02*
X024347Y017384D01*
X024359Y017429D01*
X024383Y017470D01*
X024416Y017504D01*
X024457Y017528D01*
X024503Y017540D01*
X024695Y017540D01*
X024695Y017073D01*
X024695Y017056D01*
X024712Y017056D01*
X024712Y016589D01*
X024905Y016589D01*
X024950Y016602D01*
X024991Y016625D01*
X025025Y016659D01*
X025049Y016700D01*
X025061Y016746D01*
X025061Y017056D01*
X024712Y017056D01*
X024712Y017073D01*
X024695Y017073D01*
X024347Y017073D01*
X024347Y017098D02*
X024267Y017098D01*
X024347Y017257D02*
X023820Y017257D01*
X023820Y017415D02*
X024355Y017415D01*
X024695Y017415D02*
X024712Y017415D01*
X024712Y017540D02*
X024712Y017073D01*
X025061Y017073D01*
X025061Y017384D01*
X025049Y017429D01*
X025025Y017470D01*
X024991Y017504D01*
X024950Y017528D01*
X024905Y017540D01*
X024712Y017540D01*
X024695Y017257D02*
X024712Y017257D01*
X024695Y017098D02*
X024712Y017098D01*
X024695Y016940D02*
X024712Y016940D01*
X024695Y016781D02*
X024712Y016781D01*
X024695Y016623D02*
X024712Y016623D01*
X024987Y016623D02*
X026921Y016623D01*
X026916Y016625D02*
X026957Y016602D01*
X027003Y016589D01*
X027195Y016589D01*
X027195Y017056D01*
X026847Y017056D01*
X026847Y016746D01*
X026859Y016700D01*
X026883Y016659D01*
X026916Y016625D01*
X026847Y016781D02*
X026320Y016781D01*
X026320Y016711D02*
X026320Y016875D01*
X026338Y016875D01*
X026381Y016832D01*
X026480Y016791D01*
X026587Y016791D01*
X026686Y016832D01*
X026761Y016908D01*
X026802Y017007D01*
X026802Y017113D01*
X026761Y017212D01*
X026686Y017288D01*
X026587Y017329D01*
X026480Y017329D01*
X026381Y017288D01*
X026348Y017255D01*
X026320Y017255D01*
X026320Y017418D01*
X026238Y017500D01*
X025768Y017500D01*
X025686Y017418D01*
X025686Y016711D01*
X025768Y016629D01*
X026238Y016629D01*
X026320Y016711D01*
X026774Y016940D02*
X026847Y016940D01*
X026847Y017073D02*
X026847Y017384D01*
X026859Y017429D01*
X026883Y017470D01*
X026916Y017504D01*
X026957Y017528D01*
X027003Y017540D01*
X027195Y017540D01*
X027195Y017073D01*
X027195Y017056D01*
X027212Y017056D01*
X027212Y016589D01*
X027405Y016589D01*
X027450Y016602D01*
X027491Y016625D01*
X027525Y016659D01*
X027549Y016700D01*
X027561Y016746D01*
X027561Y017056D01*
X027212Y017056D01*
X027212Y017073D01*
X027195Y017073D01*
X026847Y017073D01*
X026847Y017098D02*
X026802Y017098D01*
X026847Y017257D02*
X026717Y017257D01*
X026855Y017415D02*
X026320Y017415D01*
X026320Y017257D02*
X026350Y017257D01*
X025686Y017257D02*
X025061Y017257D01*
X025052Y017415D02*
X025686Y017415D01*
X025686Y017098D02*
X025061Y017098D01*
X025061Y016940D02*
X025686Y016940D01*
X025686Y016781D02*
X025061Y016781D01*
X024075Y015970D02*
X023955Y015850D01*
X023843Y015739D01*
X023843Y014109D01*
X023155Y013421D01*
X022695Y013421D01*
X022823Y013549D01*
X022823Y014926D01*
X022881Y014868D01*
X022980Y014827D01*
X023087Y014827D01*
X023186Y014868D01*
X023186Y014782D01*
X023268Y014700D01*
X023738Y014700D01*
X023820Y014782D01*
X023820Y015489D01*
X023738Y015571D01*
X023268Y015571D01*
X023186Y015489D01*
X023186Y015368D01*
X023142Y015355D01*
X023110Y015355D01*
X023087Y015365D01*
X022980Y015365D01*
X022881Y015324D01*
X022823Y015266D01*
X022823Y015881D01*
X022912Y015970D01*
X024075Y015970D01*
X023935Y015830D02*
X022823Y015830D01*
X022823Y015672D02*
X023843Y015672D01*
X023843Y015513D02*
X023796Y015513D01*
X023820Y015355D02*
X023843Y015355D01*
X023843Y015196D02*
X023820Y015196D01*
X023820Y015038D02*
X023843Y015038D01*
X023843Y014879D02*
X023820Y014879D01*
X023843Y014721D02*
X023758Y014721D01*
X023843Y014562D02*
X022823Y014562D01*
X022823Y014404D02*
X023843Y014404D01*
X023843Y014245D02*
X022823Y014245D01*
X022823Y014087D02*
X023821Y014087D01*
X023662Y013928D02*
X022823Y013928D01*
X022823Y013770D02*
X023504Y013770D01*
X023345Y013611D02*
X022823Y013611D01*
X022727Y013453D02*
X023187Y013453D01*
X023771Y013136D02*
X024727Y013136D01*
X024677Y013294D02*
X023930Y013294D01*
X024088Y013453D02*
X024677Y013453D01*
X024677Y013611D02*
X024247Y013611D01*
X024405Y013770D02*
X024677Y013770D01*
X024677Y013928D02*
X024564Y013928D01*
X024344Y014245D02*
X024223Y014245D01*
X024223Y014125D02*
X024223Y015581D01*
X024364Y015722D01*
X024364Y015657D01*
X024405Y015558D01*
X024430Y015533D01*
X024387Y015489D01*
X024387Y014782D01*
X024469Y014700D01*
X024939Y014700D01*
X025021Y014782D01*
X025021Y015489D01*
X024939Y015571D01*
X024867Y015571D01*
X024902Y015657D01*
X024902Y015763D01*
X024900Y015770D01*
X026288Y015770D01*
X026264Y015713D01*
X026264Y015607D01*
X026305Y015508D01*
X026381Y015432D01*
X026480Y015391D01*
X026587Y015391D01*
X026686Y015432D01*
X026724Y015470D01*
X026755Y015470D01*
X026887Y015338D01*
X026887Y014800D01*
X026320Y014800D01*
X026320Y014866D01*
X026323Y014866D01*
X026331Y014858D01*
X026430Y014817D01*
X026537Y014817D01*
X026636Y014858D01*
X026711Y014934D01*
X026752Y015032D01*
X026752Y015139D01*
X026711Y015238D01*
X026636Y015314D01*
X026537Y015355D01*
X026430Y015355D01*
X026331Y015314D01*
X026323Y015306D01*
X026320Y015306D01*
X026320Y015489D01*
X026238Y015571D01*
X025768Y015571D01*
X025686Y015489D01*
X025686Y014782D01*
X025768Y014700D01*
X026134Y014700D01*
X025997Y014563D01*
X025930Y014496D01*
X025902Y014429D01*
X025902Y014513D01*
X025861Y014612D01*
X025786Y014688D01*
X025687Y014729D01*
X025580Y014729D01*
X025481Y014688D01*
X025443Y014650D01*
X024749Y014650D01*
X024637Y014539D01*
X024637Y014539D01*
X024223Y014125D01*
X024223Y014404D02*
X024502Y014404D01*
X024661Y014562D02*
X024223Y014562D01*
X024223Y014721D02*
X024448Y014721D01*
X024387Y014879D02*
X024223Y014879D01*
X024223Y015038D02*
X024387Y015038D01*
X024387Y015196D02*
X024223Y015196D01*
X024223Y015355D02*
X024387Y015355D01*
X024411Y015513D02*
X024223Y015513D01*
X024314Y015672D02*
X024364Y015672D01*
X024902Y015672D02*
X026264Y015672D01*
X026296Y015513D02*
X026303Y015513D01*
X026320Y015355D02*
X026429Y015355D01*
X026538Y015355D02*
X026870Y015355D01*
X026887Y015196D02*
X026729Y015196D01*
X026752Y015038D02*
X026887Y015038D01*
X026887Y014879D02*
X026657Y014879D01*
X026483Y015086D02*
X026052Y015086D01*
X026003Y015135D01*
X025686Y015196D02*
X025021Y015196D01*
X025021Y015038D02*
X025686Y015038D01*
X025686Y014879D02*
X025021Y014879D01*
X024959Y014721D02*
X025560Y014721D01*
X025707Y014721D02*
X025747Y014721D01*
X025882Y014562D02*
X025996Y014562D01*
X026438Y014245D02*
X026795Y014245D01*
X026699Y014087D02*
X026534Y014087D01*
X026557Y013928D02*
X026677Y013928D01*
X026677Y013770D02*
X026557Y013770D01*
X026557Y013611D02*
X026677Y013611D01*
X026677Y013453D02*
X026557Y013453D01*
X026557Y013294D02*
X026677Y013294D01*
X026727Y013136D02*
X026507Y013136D01*
X026372Y012977D02*
X026862Y012977D01*
X027372Y012977D02*
X027806Y012977D01*
X027804Y012978D02*
X027865Y012934D01*
X027933Y012899D01*
X028004Y012876D01*
X028079Y012864D01*
X028097Y012864D01*
X028097Y013624D01*
X028137Y013624D01*
X028137Y013664D01*
X028097Y013664D01*
X028097Y013624D01*
X027637Y013624D01*
X027637Y013306D01*
X027649Y013232D01*
X027672Y013160D01*
X027706Y013093D01*
X027751Y013032D01*
X027804Y012978D01*
X027684Y013136D02*
X027507Y013136D01*
X027557Y013294D02*
X027639Y013294D01*
X027637Y013453D02*
X027557Y013453D01*
X027557Y013611D02*
X027637Y013611D01*
X027637Y013664D02*
X028097Y013664D01*
X028097Y014424D01*
X028079Y014424D01*
X028004Y014412D01*
X027933Y014389D01*
X027865Y014355D01*
X027804Y014310D01*
X027751Y014257D01*
X027706Y014196D01*
X027672Y014129D01*
X027649Y014057D01*
X027637Y013982D01*
X027637Y013664D01*
X027637Y013770D02*
X027557Y013770D01*
X027557Y013928D02*
X027637Y013928D01*
X027658Y014087D02*
X027534Y014087D01*
X027438Y014245D02*
X027742Y014245D01*
X027716Y014404D02*
X027977Y014404D01*
X028097Y014404D02*
X028137Y014404D01*
X028257Y014404D02*
X028366Y014404D01*
X028385Y014562D02*
X027875Y014562D01*
X028033Y014721D02*
X028247Y014721D01*
X028186Y014879D02*
X028073Y014879D01*
X028073Y015038D02*
X028186Y015038D01*
X028186Y015196D02*
X028073Y015196D01*
X028073Y015355D02*
X028186Y015355D01*
X028210Y015513D02*
X028073Y015513D01*
X028102Y015672D02*
X028864Y015672D01*
X028903Y015513D02*
X028796Y015513D01*
X028820Y015355D02*
X028979Y015355D01*
X029088Y015355D02*
X029216Y015355D01*
X029279Y015196D02*
X029374Y015196D01*
X029387Y015038D02*
X029302Y015038D01*
X029387Y014879D02*
X029207Y014879D01*
X029033Y015086D02*
X028552Y015086D01*
X028503Y015135D01*
X028758Y014721D02*
X029448Y014721D01*
X029959Y014721D02*
X030747Y014721D01*
X030768Y014700D02*
X030686Y014782D01*
X030686Y015489D01*
X030768Y015571D01*
X031238Y015571D01*
X031320Y015489D01*
X031320Y015355D01*
X031549Y015355D01*
X031576Y015329D01*
X031587Y015329D01*
X031686Y015288D01*
X031761Y015212D01*
X031802Y015113D01*
X031802Y015007D01*
X031761Y014908D01*
X031686Y014832D01*
X031587Y014791D01*
X031480Y014791D01*
X031381Y014832D01*
X031320Y014893D01*
X031320Y014782D01*
X031238Y014700D01*
X030768Y014700D01*
X030872Y014562D02*
X031927Y014562D01*
X031927Y014404D02*
X031030Y014404D01*
X031258Y014721D02*
X031927Y014721D01*
X031927Y014879D02*
X031733Y014879D01*
X031802Y015038D02*
X031927Y015038D01*
X031927Y015196D02*
X031768Y015196D01*
X031927Y015355D02*
X031550Y015355D01*
X031458Y015135D02*
X031003Y015135D01*
X030686Y015196D02*
X030021Y015196D01*
X030021Y015038D02*
X030686Y015038D01*
X030686Y014879D02*
X030021Y014879D01*
X030021Y015355D02*
X030686Y015355D01*
X030710Y015513D02*
X029997Y015513D01*
X029436Y015672D02*
X031853Y015672D01*
X031927Y015513D02*
X031296Y015513D01*
X031458Y015135D02*
X031533Y015060D01*
X031334Y014879D02*
X031320Y014879D01*
X031438Y014245D02*
X031795Y014245D01*
X031699Y014087D02*
X031534Y014087D01*
X031557Y013928D02*
X031677Y013928D01*
X031677Y013770D02*
X031557Y013770D01*
X031557Y013611D02*
X031677Y013611D01*
X031677Y013453D02*
X031557Y013453D01*
X031557Y013294D02*
X031677Y013294D01*
X031727Y013136D02*
X031507Y013136D01*
X032445Y013050D02*
X032490Y013095D01*
X032557Y013257D01*
X032557Y014032D01*
X032490Y014193D01*
X032366Y014317D01*
X032307Y014342D01*
X032307Y015518D01*
X032927Y014898D01*
X032927Y014342D01*
X032868Y014317D01*
X032744Y014193D01*
X032677Y014032D01*
X032677Y013257D01*
X032744Y013095D01*
X032789Y013050D01*
X032445Y013050D01*
X032507Y013136D02*
X032727Y013136D01*
X032677Y013294D02*
X032557Y013294D01*
X032557Y013453D02*
X032677Y013453D01*
X032677Y013611D02*
X032557Y013611D01*
X032557Y013770D02*
X032677Y013770D01*
X032677Y013928D02*
X032557Y013928D01*
X032534Y014087D02*
X032699Y014087D01*
X032795Y014245D02*
X032438Y014245D01*
X032307Y014404D02*
X032927Y014404D01*
X032927Y014562D02*
X032307Y014562D01*
X032307Y014721D02*
X032927Y014721D01*
X032927Y014879D02*
X032307Y014879D01*
X032307Y015038D02*
X032787Y015038D01*
X032629Y015196D02*
X032307Y015196D01*
X032307Y015355D02*
X032470Y015355D01*
X032312Y015513D02*
X032307Y015513D01*
X032862Y015830D02*
X034443Y015830D01*
X034443Y015672D02*
X033811Y015672D01*
X033969Y015513D02*
X034443Y015513D01*
X034443Y015355D02*
X034128Y015355D01*
X034286Y015196D02*
X034443Y015196D01*
X034443Y015038D02*
X034307Y015038D01*
X034307Y014879D02*
X034443Y014879D01*
X034443Y014721D02*
X034307Y014721D01*
X034307Y014562D02*
X034443Y014562D01*
X034443Y014404D02*
X034307Y014404D01*
X034438Y014245D02*
X034443Y014245D01*
X034823Y014404D02*
X037927Y014404D01*
X037927Y014562D02*
X034823Y014562D01*
X034823Y014721D02*
X037927Y014721D01*
X037927Y014879D02*
X034823Y014879D01*
X034823Y015038D02*
X037927Y015038D01*
X037927Y015196D02*
X034823Y015196D01*
X034823Y015355D02*
X037927Y015355D01*
X037927Y015513D02*
X034823Y015513D01*
X034823Y015672D02*
X037927Y015672D01*
X037927Y015830D02*
X034823Y015830D01*
X034823Y015989D02*
X037927Y015989D01*
X037927Y016147D02*
X034715Y016147D01*
X034664Y016306D02*
X037927Y016306D01*
X037927Y016464D02*
X032228Y016464D01*
X032387Y016306D02*
X034203Y016306D01*
X034164Y016147D02*
X032545Y016147D01*
X032704Y015989D02*
X034225Y015989D01*
X033594Y015351D02*
X033011Y015351D01*
X033307Y015055D01*
X033307Y014342D01*
X033366Y014317D01*
X033490Y014193D01*
X033557Y014032D01*
X033557Y013257D01*
X033490Y013095D01*
X033445Y013050D01*
X033789Y013050D01*
X033744Y013095D01*
X033677Y013257D01*
X033677Y014032D01*
X033744Y014193D01*
X033868Y014317D01*
X033927Y014342D01*
X033927Y015018D01*
X033594Y015351D01*
X033749Y015196D02*
X033166Y015196D01*
X033307Y015038D02*
X033908Y015038D01*
X033927Y014879D02*
X033307Y014879D01*
X033307Y014721D02*
X033927Y014721D01*
X033927Y014562D02*
X033307Y014562D01*
X033307Y014404D02*
X033927Y014404D01*
X033795Y014245D02*
X033438Y014245D01*
X033534Y014087D02*
X033699Y014087D01*
X033677Y013928D02*
X033557Y013928D01*
X033557Y013770D02*
X033677Y013770D01*
X033677Y013611D02*
X033557Y013611D01*
X033557Y013453D02*
X033677Y013453D01*
X033677Y013294D02*
X033557Y013294D01*
X033507Y013136D02*
X033727Y013136D01*
X034819Y012977D02*
X034862Y012977D01*
X035372Y012977D02*
X035862Y012977D01*
X035868Y012971D02*
X036029Y012904D01*
X036204Y012904D01*
X036366Y012971D01*
X036490Y013095D01*
X036557Y013257D01*
X036557Y014032D01*
X036490Y014193D01*
X036366Y014317D01*
X036204Y014384D01*
X036029Y014384D01*
X035868Y014317D01*
X035744Y014193D01*
X035677Y014032D01*
X035677Y013257D01*
X035744Y013095D01*
X035868Y012971D01*
X035727Y013136D02*
X035507Y013136D01*
X035557Y013294D02*
X035677Y013294D01*
X035677Y013453D02*
X035557Y013453D01*
X035557Y013611D02*
X035677Y013611D01*
X035677Y013770D02*
X035557Y013770D01*
X035557Y013928D02*
X035677Y013928D01*
X035699Y014087D02*
X035534Y014087D01*
X035438Y014245D02*
X035795Y014245D01*
X036438Y014245D02*
X036795Y014245D01*
X036744Y014193D02*
X036677Y014032D01*
X036677Y013257D01*
X036744Y013095D01*
X036868Y012971D01*
X037029Y012904D01*
X037204Y012904D01*
X037366Y012971D01*
X037490Y013095D01*
X037557Y013257D01*
X037557Y014032D01*
X037490Y014193D01*
X037366Y014317D01*
X037204Y014384D01*
X037029Y014384D01*
X036868Y014317D01*
X036744Y014193D01*
X036699Y014087D02*
X036534Y014087D01*
X036557Y013928D02*
X036677Y013928D01*
X036677Y013770D02*
X036557Y013770D01*
X036557Y013611D02*
X036677Y013611D01*
X036677Y013453D02*
X036557Y013453D01*
X036557Y013294D02*
X036677Y013294D01*
X036727Y013136D02*
X036507Y013136D01*
X036372Y012977D02*
X036862Y012977D01*
X037372Y012977D02*
X037862Y012977D01*
X037727Y013136D02*
X037507Y013136D01*
X037557Y013294D02*
X037677Y013294D01*
X037677Y013453D02*
X037557Y013453D01*
X037557Y013611D02*
X037677Y013611D01*
X037677Y013770D02*
X037557Y013770D01*
X037557Y013928D02*
X037677Y013928D01*
X037699Y014087D02*
X037534Y014087D01*
X037438Y014245D02*
X037795Y014245D01*
X038807Y017574D02*
X039626Y017574D01*
X039549Y017732D02*
X038807Y017732D01*
X038040Y018752D02*
X038040Y018752D01*
X039043Y019000D02*
X036313Y019000D01*
X036355Y019159D02*
X039043Y019159D01*
X039043Y019317D02*
X036314Y019317D01*
X042648Y022170D02*
X042673Y022170D01*
X042673Y028035D02*
X038254Y028035D01*
X038338Y028193D02*
X042673Y028193D01*
X042673Y028352D02*
X038357Y028352D01*
X038319Y028510D02*
X042673Y028510D01*
X041453Y031522D02*
X035778Y031522D01*
X035778Y031680D02*
X041295Y031680D01*
X041136Y031839D02*
X035773Y031839D01*
X035721Y031997D02*
X040978Y031997D01*
X040819Y032156D02*
X035584Y032156D01*
X035012Y032156D02*
X034517Y032156D01*
X034680Y031997D02*
X034875Y031997D01*
X034823Y031839D02*
X034738Y031839D01*
X034738Y031680D02*
X034818Y031680D01*
X034818Y031522D02*
X034738Y031522D01*
X034738Y031363D02*
X034818Y031363D01*
X034818Y031205D02*
X034738Y031205D01*
X034723Y031046D02*
X034834Y031046D01*
X034910Y030888D02*
X034637Y030888D01*
X035278Y030888D02*
X035318Y030888D01*
X035318Y031046D02*
X035278Y031046D01*
X035278Y031205D02*
X035318Y031205D01*
X035318Y031363D02*
X035278Y031363D01*
X032078Y032156D02*
X026891Y032156D01*
X026891Y031997D02*
X031916Y031997D01*
X031858Y031839D02*
X026891Y031839D01*
X026891Y031680D02*
X031858Y031680D01*
X031858Y031522D02*
X026891Y031522D01*
X026891Y031363D02*
X031858Y031363D01*
X031858Y031205D02*
X026891Y031205D01*
X026891Y031046D02*
X031873Y031046D01*
X031958Y030888D02*
X026891Y030888D01*
X031273Y026291D02*
X033388Y026291D01*
X033272Y026133D02*
X031273Y026133D01*
X031273Y025974D02*
X033278Y025974D01*
X033421Y025816D02*
X031273Y025816D01*
X031273Y025657D02*
X033597Y025657D01*
X030341Y023438D02*
X027164Y023438D01*
X025429Y022804D02*
X029232Y022804D01*
X026455Y020744D02*
X024812Y020744D01*
X024936Y020268D02*
X025102Y020268D01*
X024943Y020110D02*
X024809Y020110D01*
X024775Y022170D02*
X010829Y022170D01*
X010798Y022329D02*
X010671Y022329D01*
X010639Y022487D02*
X010512Y022487D01*
X010481Y022646D02*
X007522Y022646D01*
X006633Y023160D02*
X006605Y023160D01*
X006861Y023438D02*
X006875Y023438D01*
X006791Y023597D02*
X003585Y023597D01*
X003426Y023438D02*
X006325Y023438D01*
X006265Y023914D02*
X005233Y023914D01*
X005392Y024072D02*
X006182Y024072D01*
X006170Y024231D02*
X005550Y024231D01*
X005709Y024389D02*
X006221Y024389D01*
X006379Y024548D02*
X005867Y024548D01*
X006026Y024706D02*
X009995Y024706D01*
X009837Y024865D02*
X006184Y024865D01*
X005823Y025182D02*
X004368Y025182D01*
X004527Y025340D02*
X005981Y025340D01*
X005664Y025023D02*
X004210Y025023D01*
X004051Y024865D02*
X005506Y024865D01*
X005347Y024706D02*
X003893Y024706D01*
X003734Y024548D02*
X005189Y024548D01*
X005030Y024389D02*
X003576Y024389D01*
X003417Y024231D02*
X004872Y024231D01*
X005075Y023755D02*
X006786Y023755D01*
X006585Y023914D02*
X006585Y023914D01*
X006585Y024072D02*
X006585Y024072D01*
X006585Y024231D02*
X006585Y024231D01*
X006585Y024389D02*
X006585Y024389D01*
X006585Y024548D02*
X006585Y024548D01*
X006791Y024548D02*
X010154Y024548D01*
X010312Y024389D02*
X006950Y024389D01*
X007001Y024231D02*
X010471Y024231D01*
X010629Y024072D02*
X009869Y024072D01*
X010005Y023914D02*
X010788Y023914D01*
X010946Y023755D02*
X010061Y023755D01*
X009302Y024072D02*
X006988Y024072D01*
X007468Y023914D02*
X009166Y023914D01*
X009110Y023755D02*
X007542Y023755D01*
X007537Y023597D02*
X009110Y023597D01*
X009173Y023438D02*
X007453Y023438D01*
X010040Y025340D02*
X016295Y025340D01*
X016295Y025182D02*
X010198Y025182D01*
X010357Y025023D02*
X016295Y025023D01*
X016295Y024865D02*
X010515Y024865D01*
X010674Y024706D02*
X012894Y024706D01*
X012797Y024548D02*
X012658Y024548D01*
X012497Y024548D02*
X010832Y024548D01*
X010991Y024389D02*
X012260Y024389D01*
X012200Y024231D02*
X011149Y024231D01*
X011308Y024072D02*
X012210Y024072D01*
X012301Y023914D02*
X011466Y023914D01*
X011625Y023755D02*
X012353Y023755D01*
X012483Y023597D02*
X011768Y023597D01*
X011794Y023438D02*
X012305Y023438D01*
X012216Y023280D02*
X011794Y023280D01*
X011823Y023121D02*
X012208Y023121D01*
X012272Y022963D02*
X011791Y022963D01*
X012853Y023914D02*
X016295Y023914D01*
X016295Y024072D02*
X012945Y024072D01*
X013003Y023755D02*
X016295Y023755D01*
X016295Y024231D02*
X013318Y024231D01*
X013419Y024389D02*
X016295Y024389D01*
X016295Y024548D02*
X013421Y024548D01*
X013323Y024706D02*
X016295Y024706D01*
X016295Y025499D02*
X004685Y025499D01*
X004844Y025657D02*
X013128Y025657D01*
X013097Y025687D02*
X013173Y025612D01*
X013272Y025571D01*
X013379Y025571D01*
X013478Y025612D01*
X013553Y025687D01*
X013594Y025786D01*
X013594Y025893D01*
X013553Y025992D01*
X013478Y026067D01*
X013379Y026108D01*
X013325Y026108D01*
X013130Y026303D01*
X004953Y026303D01*
X004841Y026192D01*
X002447Y023797D01*
X002336Y023686D01*
X002336Y023199D01*
X002231Y023094D01*
X002114Y023094D01*
X002089Y023153D01*
X001965Y023277D01*
X001804Y023344D01*
X001028Y023344D01*
X000867Y023277D01*
X000743Y023153D01*
X000676Y022992D01*
X000676Y022817D01*
X000743Y022655D01*
X000867Y022531D01*
X001028Y022464D01*
X001804Y022464D01*
X001965Y022531D01*
X002089Y022655D01*
X002114Y022714D01*
X002388Y022714D01*
X002604Y022930D01*
X002716Y023041D01*
X002716Y023529D01*
X005110Y025923D01*
X012973Y025923D01*
X013057Y025840D01*
X013057Y025786D01*
X013097Y025687D01*
X013057Y025816D02*
X005002Y025816D01*
X004782Y026133D02*
X004626Y026133D01*
X004624Y025974D02*
X004467Y025974D01*
X004465Y025816D02*
X004309Y025816D01*
X004307Y025657D02*
X004150Y025657D01*
X004148Y025499D02*
X003992Y025499D01*
X003990Y025340D02*
X003833Y025340D01*
X003831Y025182D02*
X003675Y025182D01*
X003673Y025023D02*
X003516Y025023D01*
X003514Y024865D02*
X003358Y024865D01*
X003356Y024706D02*
X003199Y024706D01*
X003197Y024548D02*
X003041Y024548D01*
X003039Y024389D02*
X002882Y024389D01*
X002880Y024231D02*
X002724Y024231D01*
X002722Y024072D02*
X002565Y024072D01*
X002563Y023914D02*
X002407Y023914D01*
X002319Y023825D02*
X004883Y026390D01*
X013983Y026390D01*
X014120Y026253D01*
X014120Y026030D01*
X014082Y025992D01*
X014041Y025893D01*
X014041Y025786D01*
X014082Y025687D01*
X014157Y025612D01*
X014256Y025571D01*
X014363Y025571D01*
X014462Y025612D01*
X014538Y025687D01*
X014579Y025786D01*
X014579Y025893D01*
X014538Y025992D01*
X014500Y026030D01*
X014500Y026365D01*
X014710Y026155D01*
X014710Y026030D01*
X014672Y025992D01*
X014631Y025893D01*
X014631Y025786D01*
X014672Y025687D01*
X014748Y025612D01*
X014847Y025571D01*
X014954Y025571D01*
X015053Y025612D01*
X015128Y025687D01*
X015169Y025786D01*
X015169Y025893D01*
X015128Y025992D01*
X015090Y026030D01*
X015090Y026312D01*
X014195Y027207D01*
X004375Y027207D01*
X002263Y025094D01*
X002114Y025094D01*
X002089Y025153D01*
X001965Y025277D01*
X001804Y025344D01*
X001028Y025344D01*
X000867Y025277D01*
X000743Y025153D01*
X000676Y024992D01*
X000676Y024817D01*
X000743Y024655D01*
X000867Y024531D01*
X001028Y024464D01*
X001804Y024464D01*
X001965Y024531D01*
X002089Y024655D01*
X002114Y024714D01*
X002420Y024714D01*
X004533Y026827D01*
X014038Y026827D01*
X014095Y026770D01*
X004726Y026770D01*
X004615Y026659D01*
X002095Y024139D01*
X002089Y024153D01*
X001965Y024277D01*
X001804Y024344D01*
X001028Y024344D01*
X000867Y024277D01*
X000743Y024153D01*
X000676Y023992D01*
X000676Y023817D01*
X000743Y023655D01*
X000867Y023531D01*
X001028Y023464D01*
X001804Y023464D01*
X001965Y023531D01*
X002089Y023655D01*
X002114Y023714D01*
X002207Y023714D01*
X002319Y023825D01*
X002319Y023825D01*
X002248Y023755D02*
X002405Y023755D01*
X002336Y023597D02*
X002031Y023597D01*
X001959Y023280D02*
X002336Y023280D01*
X002336Y023438D02*
X000513Y023438D01*
X000513Y023280D02*
X000873Y023280D01*
X000730Y023121D02*
X000513Y023121D01*
X000513Y022963D02*
X000676Y022963D01*
X000681Y022804D02*
X000513Y022804D01*
X000513Y022646D02*
X000752Y022646D01*
X000973Y022487D02*
X000513Y022487D01*
X000513Y022329D02*
X000892Y022329D01*
X000864Y022315D02*
X000803Y022270D01*
X000750Y022217D01*
X000705Y022156D01*
X000671Y022088D01*
X000648Y022016D01*
X000636Y021942D01*
X000636Y021924D01*
X001396Y021924D01*
X001396Y021884D01*
X001436Y021884D01*
X001436Y021424D01*
X001754Y021424D01*
X001828Y021436D01*
X001900Y021459D01*
X001968Y021494D01*
X002029Y021538D01*
X002082Y021591D01*
X002127Y021653D01*
X002161Y021720D01*
X002184Y021792D01*
X002196Y021866D01*
X002196Y021884D01*
X001436Y021884D01*
X001436Y021924D01*
X002196Y021924D01*
X002196Y021942D01*
X002184Y022016D01*
X002161Y022088D01*
X002127Y022156D01*
X002082Y022217D01*
X002029Y022270D01*
X001968Y022315D01*
X001900Y022349D01*
X001828Y022372D01*
X001754Y022384D01*
X001436Y022384D01*
X001436Y021924D01*
X001396Y021924D01*
X001396Y022384D01*
X001078Y022384D01*
X001004Y022372D01*
X000932Y022349D01*
X000864Y022315D01*
X000716Y022170D02*
X000513Y022170D01*
X000513Y022012D02*
X000647Y022012D01*
X000636Y021884D02*
X000636Y021866D01*
X000648Y021792D01*
X000671Y021720D01*
X000705Y021653D01*
X000750Y021591D01*
X000803Y021538D01*
X000864Y021494D01*
X000932Y021459D01*
X001004Y021436D01*
X001078Y021424D01*
X001396Y021424D01*
X001396Y021884D01*
X000636Y021884D01*
X000638Y021853D02*
X000513Y021853D01*
X000513Y021695D02*
X000684Y021695D01*
X000806Y021536D02*
X000513Y021536D01*
X000513Y021378D02*
X002852Y021378D01*
X002852Y021536D02*
X002026Y021536D01*
X002148Y021695D02*
X002852Y021695D01*
X002852Y021853D02*
X002194Y021853D01*
X002185Y022012D02*
X002852Y022012D01*
X002852Y022170D02*
X002116Y022170D01*
X001940Y022329D02*
X002852Y022329D01*
X002852Y022487D02*
X001859Y022487D01*
X002080Y022646D02*
X002852Y022646D01*
X002852Y022804D02*
X002478Y022804D01*
X002637Y022963D02*
X002852Y022963D01*
X002852Y023121D02*
X002716Y023121D01*
X002716Y023280D02*
X002852Y023280D01*
X002852Y023438D02*
X002716Y023438D01*
X002783Y023597D02*
X002906Y023597D01*
X002942Y023755D02*
X003064Y023755D01*
X003100Y023914D02*
X003223Y023914D01*
X003259Y024072D02*
X003403Y024072D01*
X002662Y024706D02*
X002110Y024706D01*
X001982Y024548D02*
X002503Y024548D01*
X002345Y024389D02*
X000513Y024389D01*
X000513Y024231D02*
X000820Y024231D01*
X000709Y024072D02*
X000513Y024072D01*
X000513Y023914D02*
X000676Y023914D01*
X000702Y023755D02*
X000513Y023755D01*
X000513Y023597D02*
X000801Y023597D01*
X002012Y024231D02*
X002186Y024231D01*
X002570Y024865D02*
X002820Y024865D01*
X002729Y025023D02*
X002979Y025023D01*
X002887Y025182D02*
X003137Y025182D01*
X003046Y025340D02*
X003296Y025340D01*
X003204Y025499D02*
X003454Y025499D01*
X003363Y025657D02*
X003613Y025657D01*
X003521Y025816D02*
X003771Y025816D01*
X003680Y025974D02*
X003930Y025974D01*
X003838Y026133D02*
X004088Y026133D01*
X003997Y026291D02*
X004247Y026291D01*
X004155Y026450D02*
X004405Y026450D01*
X004314Y026608D02*
X004564Y026608D01*
X004472Y026767D02*
X004722Y026767D01*
X004252Y027084D02*
X000513Y027084D01*
X000513Y027242D02*
X016295Y027242D01*
X016295Y027084D02*
X014319Y027084D01*
X014477Y026925D02*
X016295Y026925D01*
X016295Y026767D02*
X014636Y026767D01*
X014794Y026608D02*
X016295Y026608D01*
X016295Y026450D02*
X014953Y026450D01*
X015090Y026291D02*
X016295Y026291D01*
X016295Y026133D02*
X015090Y026133D01*
X015136Y025974D02*
X016295Y025974D01*
X016295Y025816D02*
X015169Y025816D01*
X015098Y025657D02*
X016295Y025657D01*
X014702Y025657D02*
X014507Y025657D01*
X014579Y025816D02*
X014631Y025816D01*
X014665Y025974D02*
X014545Y025974D01*
X014500Y026133D02*
X014710Y026133D01*
X014574Y026291D02*
X014500Y026291D01*
X014120Y026133D02*
X013301Y026133D01*
X013143Y026291D02*
X014082Y026291D01*
X014074Y025974D02*
X013561Y025974D01*
X013594Y025816D02*
X014041Y025816D01*
X014112Y025657D02*
X013523Y025657D01*
X016295Y027401D02*
X000513Y027401D01*
X000513Y027559D02*
X016295Y027559D01*
X016295Y027718D02*
X008648Y027718D01*
X008550Y027677D02*
X008818Y027788D01*
X009024Y027994D01*
X009135Y028263D01*
X009135Y028553D01*
X009024Y028822D01*
X008818Y029028D01*
X008550Y029139D01*
X008259Y029139D01*
X007990Y029028D01*
X007784Y028822D01*
X007673Y028553D01*
X007673Y028263D01*
X007784Y027994D01*
X007990Y027788D01*
X008259Y027677D01*
X008550Y027677D01*
X008161Y027718D02*
X000513Y027718D01*
X000513Y027876D02*
X007902Y027876D01*
X007767Y028035D02*
X000513Y028035D01*
X000513Y028193D02*
X007702Y028193D01*
X007673Y028352D02*
X000513Y028352D01*
X000513Y028510D02*
X007673Y028510D01*
X007721Y028669D02*
X000513Y028669D01*
X000513Y028827D02*
X007789Y028827D01*
X007948Y028986D02*
X000513Y028986D01*
X000513Y029144D02*
X016295Y029144D01*
X016295Y028986D02*
X008861Y028986D01*
X009019Y028827D02*
X016295Y028827D01*
X016295Y028669D02*
X009088Y028669D01*
X009135Y028510D02*
X016295Y028510D01*
X016295Y028352D02*
X009135Y028352D01*
X009107Y028193D02*
X016295Y028193D01*
X016295Y028035D02*
X009041Y028035D01*
X008906Y027876D02*
X016295Y027876D01*
X016295Y029303D02*
X000513Y029303D01*
X000513Y029461D02*
X016295Y029461D01*
X016295Y029620D02*
X000513Y029620D01*
X000513Y029778D02*
X016295Y029778D01*
X016295Y029937D02*
X000513Y029937D01*
X000513Y030095D02*
X007285Y030095D01*
X007273Y030104D02*
X007334Y030060D01*
X007401Y030025D01*
X007473Y030002D01*
X007548Y029990D01*
X007565Y029990D01*
X007565Y030750D01*
X007105Y030750D01*
X007105Y030432D01*
X007117Y030358D01*
X007140Y030286D01*
X007175Y030219D01*
X007219Y030158D01*
X007273Y030104D01*
X007157Y030254D02*
X000513Y030254D01*
X000623Y030412D02*
X007109Y030412D01*
X007105Y030571D02*
X000782Y030571D01*
X000940Y030729D02*
X007105Y030729D01*
X007105Y030790D02*
X007565Y030790D01*
X007565Y030750D01*
X007605Y030750D01*
X007605Y029990D01*
X007623Y029990D01*
X007698Y030002D01*
X007770Y030025D01*
X007837Y030060D01*
X007898Y030104D01*
X007951Y030158D01*
X007996Y030219D01*
X008030Y030286D01*
X008053Y030358D01*
X008065Y030432D01*
X008065Y030750D01*
X007605Y030750D01*
X007605Y030790D01*
X007565Y030790D01*
X007565Y031550D01*
X007548Y031550D01*
X007473Y031538D01*
X007401Y031515D01*
X007334Y031481D01*
X007273Y031436D01*
X007219Y031383D01*
X007175Y031322D01*
X007140Y031254D01*
X007117Y031183D01*
X007105Y031108D01*
X007105Y030790D01*
X007105Y030888D02*
X001099Y030888D01*
X001257Y031046D02*
X007105Y031046D01*
X007124Y031205D02*
X001416Y031205D01*
X001574Y031363D02*
X007205Y031363D01*
X007421Y031522D02*
X001733Y031522D01*
X001891Y031680D02*
X016295Y031680D01*
X016295Y031522D02*
X007750Y031522D01*
X007770Y031515D02*
X007698Y031538D01*
X007623Y031550D01*
X007605Y031550D01*
X007605Y030790D01*
X008065Y030790D01*
X008065Y031108D01*
X008053Y031183D01*
X008030Y031254D01*
X007996Y031322D01*
X007951Y031383D01*
X007898Y031436D01*
X007837Y031481D01*
X007770Y031515D01*
X007605Y031522D02*
X007565Y031522D01*
X007565Y031363D02*
X007605Y031363D01*
X007605Y031205D02*
X007565Y031205D01*
X007565Y031046D02*
X007605Y031046D01*
X007605Y030888D02*
X007565Y030888D01*
X007565Y030729D02*
X007605Y030729D01*
X007605Y030571D02*
X007565Y030571D01*
X007565Y030412D02*
X007605Y030412D01*
X007605Y030254D02*
X007565Y030254D01*
X007565Y030095D02*
X007605Y030095D01*
X007885Y030095D02*
X008341Y030095D01*
X008336Y030097D02*
X008498Y030030D01*
X008673Y030030D01*
X008835Y030097D01*
X008958Y030221D01*
X009025Y030383D01*
X009025Y031158D01*
X008958Y031319D01*
X008835Y031443D01*
X008673Y031510D01*
X008498Y031510D01*
X008336Y031443D01*
X008212Y031319D01*
X008145Y031158D01*
X008145Y030383D01*
X008212Y030221D01*
X008336Y030097D01*
X008199Y030254D02*
X008014Y030254D01*
X008062Y030412D02*
X008145Y030412D01*
X008145Y030571D02*
X008065Y030571D01*
X008065Y030729D02*
X008145Y030729D01*
X008145Y030888D02*
X008065Y030888D01*
X008065Y031046D02*
X008145Y031046D01*
X008165Y031205D02*
X008046Y031205D01*
X007966Y031363D02*
X008256Y031363D01*
X008915Y031363D02*
X009256Y031363D01*
X009212Y031319D02*
X009336Y031443D01*
X009498Y031510D01*
X009673Y031510D01*
X009835Y031443D01*
X009958Y031319D01*
X010025Y031158D01*
X010025Y030383D01*
X009958Y030221D01*
X009835Y030097D01*
X009673Y030030D01*
X009498Y030030D01*
X009336Y030097D01*
X009212Y030221D01*
X009145Y030383D01*
X009145Y031158D01*
X009212Y031319D01*
X009165Y031205D02*
X009006Y031205D01*
X009025Y031046D02*
X009145Y031046D01*
X009145Y030888D02*
X009025Y030888D01*
X009025Y030729D02*
X009145Y030729D01*
X009145Y030571D02*
X009025Y030571D01*
X009025Y030412D02*
X009145Y030412D01*
X009199Y030254D02*
X008972Y030254D01*
X008829Y030095D02*
X009341Y030095D01*
X009829Y030095D02*
X010341Y030095D01*
X010336Y030097D02*
X010498Y030030D01*
X010673Y030030D01*
X010835Y030097D01*
X010958Y030221D01*
X011025Y030383D01*
X011025Y031158D01*
X010958Y031319D01*
X010835Y031443D01*
X010673Y031510D01*
X010498Y031510D01*
X010336Y031443D01*
X010212Y031319D01*
X010145Y031158D01*
X010145Y030383D01*
X010212Y030221D01*
X010336Y030097D01*
X010199Y030254D02*
X009972Y030254D01*
X010025Y030412D02*
X010145Y030412D01*
X010145Y030571D02*
X010025Y030571D01*
X010025Y030729D02*
X010145Y030729D01*
X010145Y030888D02*
X010025Y030888D01*
X010025Y031046D02*
X010145Y031046D01*
X010165Y031205D02*
X010006Y031205D01*
X009915Y031363D02*
X010256Y031363D01*
X010915Y031363D02*
X011256Y031363D01*
X011212Y031319D02*
X011145Y031158D01*
X011145Y030383D01*
X011212Y030221D01*
X011336Y030097D01*
X011498Y030030D01*
X011673Y030030D01*
X011835Y030097D01*
X011958Y030221D01*
X012025Y030383D01*
X012025Y031158D01*
X011958Y031319D01*
X011835Y031443D01*
X011673Y031510D01*
X011498Y031510D01*
X011336Y031443D01*
X011212Y031319D01*
X011165Y031205D02*
X011006Y031205D01*
X011025Y031046D02*
X011145Y031046D01*
X011145Y030888D02*
X011025Y030888D01*
X011025Y030729D02*
X011145Y030729D01*
X011145Y030571D02*
X011025Y030571D01*
X011025Y030412D02*
X011145Y030412D01*
X011199Y030254D02*
X010972Y030254D01*
X010829Y030095D02*
X011341Y030095D01*
X011829Y030095D02*
X016295Y030095D01*
X016295Y030254D02*
X011972Y030254D01*
X012025Y030412D02*
X016295Y030412D01*
X016295Y030571D02*
X012025Y030571D01*
X012025Y030729D02*
X016295Y030729D01*
X016295Y030888D02*
X012025Y030888D01*
X012025Y031046D02*
X016295Y031046D01*
X016295Y031205D02*
X012006Y031205D01*
X011915Y031363D02*
X016295Y031363D01*
X016295Y031839D02*
X002050Y031839D01*
X002208Y031997D02*
X016295Y031997D01*
X016295Y032156D02*
X002367Y032156D01*
X004093Y026925D02*
X000513Y026925D01*
X000513Y026767D02*
X003935Y026767D01*
X003776Y026608D02*
X000513Y026608D01*
X000513Y026450D02*
X003618Y026450D01*
X003459Y026291D02*
X000513Y026291D01*
X000513Y026133D02*
X003301Y026133D01*
X003142Y025974D02*
X000513Y025974D01*
X000513Y025816D02*
X002984Y025816D01*
X002825Y025657D02*
X000513Y025657D01*
X000513Y025499D02*
X002667Y025499D01*
X002508Y025340D02*
X001813Y025340D01*
X002061Y025182D02*
X002350Y025182D01*
X001019Y025340D02*
X000513Y025340D01*
X000513Y025182D02*
X000771Y025182D01*
X000689Y025023D02*
X000513Y025023D01*
X000513Y024865D02*
X000676Y024865D01*
X000722Y024706D02*
X000513Y024706D01*
X000513Y024548D02*
X000850Y024548D01*
X002102Y023121D02*
X002258Y023121D01*
X003332Y023121D02*
X004055Y023121D01*
X004213Y023280D02*
X003332Y023280D01*
X003332Y022963D02*
X003896Y022963D01*
X003738Y022804D02*
X003332Y022804D01*
X003332Y022646D02*
X003579Y022646D01*
X003493Y022487D02*
X003332Y022487D01*
X003332Y022329D02*
X003493Y022329D01*
X003493Y022170D02*
X003332Y022170D01*
X003332Y022012D02*
X003493Y022012D01*
X003493Y021853D02*
X003332Y021853D01*
X003332Y021695D02*
X003493Y021695D01*
X003493Y021536D02*
X003332Y021536D01*
X003332Y021378D02*
X003493Y021378D01*
X003493Y021219D02*
X003332Y021219D01*
X003332Y021061D02*
X003493Y021061D01*
X003493Y020902D02*
X003332Y020902D01*
X003332Y020744D02*
X003493Y020744D01*
X003493Y020585D02*
X003332Y020585D01*
X003332Y020427D02*
X003493Y020427D01*
X003493Y020268D02*
X003332Y020268D01*
X003332Y020110D02*
X003493Y020110D01*
X003480Y019951D02*
X003332Y019951D01*
X003332Y019793D02*
X003470Y019793D01*
X003493Y019634D02*
X003332Y019634D01*
X003332Y019476D02*
X003493Y019476D01*
X003493Y019317D02*
X003230Y019317D01*
X003071Y019159D02*
X003493Y019159D01*
X003493Y019000D02*
X002913Y019000D01*
X002795Y018842D02*
X003493Y018842D01*
X003493Y018683D02*
X000513Y018683D01*
X000513Y018525D02*
X003493Y018525D01*
X003493Y018366D02*
X000513Y018366D01*
X000513Y018208D02*
X003493Y018208D01*
X003493Y018049D02*
X000513Y018049D01*
X000513Y017891D02*
X003493Y017891D01*
X003493Y017732D02*
X000513Y017732D01*
X000513Y017574D02*
X003493Y017574D01*
X003493Y017415D02*
X000513Y017415D01*
X000513Y017257D02*
X003493Y017257D01*
X003493Y017098D02*
X000513Y017098D01*
X000513Y016940D02*
X003493Y016940D01*
X003493Y016781D02*
X000513Y016781D01*
X000513Y016623D02*
X003493Y016623D01*
X003493Y016464D02*
X000513Y016464D01*
X000513Y016306D02*
X003493Y016306D01*
X003493Y016147D02*
X000513Y016147D01*
X000513Y015989D02*
X003565Y015989D01*
X003724Y015830D02*
X000513Y015830D01*
X000513Y015672D02*
X003882Y015672D01*
X005938Y015196D02*
X011887Y015196D01*
X011887Y015038D02*
X006836Y015038D01*
X006902Y014879D02*
X011887Y014879D01*
X011948Y014721D02*
X006867Y014721D01*
X006055Y014562D02*
X005823Y014562D01*
X005823Y014404D02*
X005964Y014404D01*
X005990Y014245D02*
X005823Y014245D01*
X005976Y014087D02*
X006238Y014087D01*
X006134Y013928D02*
X006397Y013928D01*
X006293Y013770D02*
X006555Y013770D01*
X006934Y013928D02*
X010164Y013928D01*
X004552Y017415D02*
X003973Y017415D01*
X003973Y017574D02*
X004464Y017574D01*
X004491Y017732D02*
X003973Y017732D01*
X002472Y018842D02*
X000513Y018842D01*
X000513Y019000D02*
X002367Y019000D01*
X002364Y019113D02*
X002405Y019212D01*
X002481Y019288D01*
X002551Y019317D01*
X002709Y019476D02*
X001831Y019476D01*
X001804Y019464D02*
X001965Y019531D01*
X002089Y019655D01*
X002156Y019817D01*
X002156Y019992D01*
X002089Y020153D01*
X001965Y020277D01*
X001804Y020344D01*
X001028Y020344D01*
X000867Y020277D01*
X000743Y020153D01*
X000676Y019992D01*
X000676Y019817D01*
X000743Y019655D01*
X000867Y019531D01*
X001028Y019464D01*
X001804Y019464D01*
X002068Y019634D02*
X002852Y019634D01*
X002852Y019793D02*
X002146Y019793D01*
X002156Y019951D02*
X002852Y019951D01*
X002852Y020110D02*
X002107Y020110D01*
X001974Y020268D02*
X002852Y020268D01*
X002852Y020427D02*
X000513Y020427D01*
X000513Y020585D02*
X000813Y020585D01*
X000867Y020531D02*
X001028Y020464D01*
X001804Y020464D01*
X001965Y020531D01*
X002089Y020655D01*
X002156Y020817D01*
X002156Y020992D01*
X002089Y021153D01*
X001965Y021277D01*
X001804Y021344D01*
X001028Y021344D01*
X000867Y021277D01*
X000743Y021153D01*
X000676Y020992D01*
X000676Y020817D01*
X000743Y020655D01*
X000867Y020531D01*
X000858Y020268D02*
X000513Y020268D01*
X000513Y020110D02*
X000725Y020110D01*
X000676Y019951D02*
X000513Y019951D01*
X000513Y019793D02*
X000686Y019793D01*
X000764Y019634D02*
X000513Y019634D01*
X000513Y019476D02*
X001001Y019476D01*
X000706Y020744D02*
X000513Y020744D01*
X000513Y020902D02*
X000676Y020902D01*
X000705Y021061D02*
X000513Y021061D01*
X000513Y021219D02*
X000809Y021219D01*
X001396Y021536D02*
X001436Y021536D01*
X001436Y021695D02*
X001396Y021695D01*
X001396Y021853D02*
X001436Y021853D01*
X001436Y022012D02*
X001396Y022012D01*
X001396Y022170D02*
X001436Y022170D01*
X001436Y022329D02*
X001396Y022329D01*
X002023Y021219D02*
X002852Y021219D01*
X002852Y021061D02*
X002127Y021061D01*
X002156Y020902D02*
X002852Y020902D01*
X002852Y020744D02*
X002126Y020744D01*
X002019Y020585D02*
X002852Y020585D01*
X003987Y019951D02*
X011300Y019951D01*
X011291Y019793D02*
X003996Y019793D01*
X004784Y026291D02*
X004941Y026291D01*
X015041Y018366D02*
X015272Y018366D01*
X017195Y017415D02*
X017212Y017415D01*
X017195Y017257D02*
X017212Y017257D01*
X017195Y017098D02*
X017212Y017098D01*
X017195Y016940D02*
X017212Y016940D01*
X017195Y016781D02*
X017212Y016781D01*
X017195Y016623D02*
X017212Y016623D01*
X022561Y016781D02*
X023186Y016781D01*
X023186Y016940D02*
X022561Y016940D01*
X022561Y017098D02*
X023186Y017098D01*
X023186Y017257D02*
X022561Y017257D01*
X022552Y017415D02*
X023186Y017415D01*
X023210Y015513D02*
X022823Y015513D01*
X022823Y015355D02*
X022955Y015355D01*
X023033Y015096D02*
X023173Y015135D01*
X023503Y015135D01*
X023186Y014868D02*
X023186Y014868D01*
X023247Y014721D02*
X022823Y014721D01*
X022823Y014879D02*
X022870Y014879D01*
X025021Y015355D02*
X025686Y015355D01*
X025710Y015513D02*
X024997Y015513D01*
X025438Y014245D02*
X025468Y014245D01*
X025534Y014087D02*
X025699Y014087D01*
X025677Y013928D02*
X025557Y013928D01*
X025557Y013770D02*
X025677Y013770D01*
X025677Y013611D02*
X025557Y013611D01*
X025557Y013453D02*
X025677Y013453D01*
X025677Y013294D02*
X025557Y013294D01*
X025507Y013136D02*
X025727Y013136D01*
X025862Y012977D02*
X025372Y012977D01*
X024862Y012977D02*
X023613Y012977D01*
X028097Y012977D02*
X028137Y012977D01*
X028137Y012864D02*
X028155Y012864D01*
X028229Y012876D01*
X028301Y012899D01*
X028368Y012934D01*
X028429Y012978D01*
X028483Y013032D01*
X028527Y013093D01*
X028562Y013160D01*
X028585Y013232D01*
X028597Y013306D01*
X028597Y013624D01*
X028137Y013624D01*
X028137Y012864D01*
X028137Y013136D02*
X028097Y013136D01*
X028097Y013294D02*
X028137Y013294D01*
X028137Y013453D02*
X028097Y013453D01*
X028097Y013611D02*
X028137Y013611D01*
X028137Y013770D02*
X028097Y013770D01*
X028097Y013928D02*
X028137Y013928D01*
X028137Y014087D02*
X028097Y014087D01*
X028097Y014245D02*
X028137Y014245D01*
X028575Y014087D02*
X028699Y014087D01*
X028677Y013928D02*
X028597Y013928D01*
X028597Y013770D02*
X028677Y013770D01*
X028677Y013611D02*
X028597Y013611D01*
X028597Y013453D02*
X028677Y013453D01*
X028677Y013294D02*
X028595Y013294D01*
X028549Y013136D02*
X028727Y013136D01*
X028862Y012977D02*
X028428Y012977D01*
X029372Y012977D02*
X029862Y012977D01*
X029727Y013136D02*
X029507Y013136D01*
X029557Y013294D02*
X029677Y013294D01*
X029677Y013453D02*
X029557Y013453D01*
X029557Y013611D02*
X029677Y013611D01*
X029677Y013770D02*
X029557Y013770D01*
X029557Y013928D02*
X029677Y013928D01*
X029699Y014087D02*
X029534Y014087D01*
X029438Y014245D02*
X029795Y014245D01*
X029421Y016623D02*
X027487Y016623D01*
X027561Y016781D02*
X028186Y016781D01*
X028186Y016940D02*
X027561Y016940D01*
X027561Y017073D02*
X027561Y017384D01*
X027549Y017429D01*
X027525Y017470D01*
X027491Y017504D01*
X027450Y017528D01*
X027405Y017540D01*
X027212Y017540D01*
X027212Y017073D01*
X027561Y017073D01*
X027561Y017098D02*
X028186Y017098D01*
X028186Y017257D02*
X027561Y017257D01*
X027552Y017415D02*
X028186Y017415D01*
X027212Y017415D02*
X027195Y017415D01*
X027195Y017257D02*
X027212Y017257D01*
X027195Y017098D02*
X027212Y017098D01*
X027195Y016940D02*
X027212Y016940D01*
X027195Y016781D02*
X027212Y016781D01*
X027195Y016623D02*
X027212Y016623D01*
X028820Y016781D02*
X029347Y016781D01*
X029317Y017257D02*
X029347Y017257D01*
X029355Y017415D02*
X028820Y017415D01*
X028820Y017257D02*
X028950Y017257D01*
X025238Y022804D02*
X019080Y022804D01*
D21*
X014357Y022653D02*
X014343Y022653D01*
X010795Y021936D02*
X024809Y021936D01*
X024933Y022060D01*
X026233Y022060D01*
X026433Y021860D01*
X026433Y021034D01*
X026833Y020634D01*
X037835Y020634D01*
X038085Y020884D01*
X038085Y021644D01*
X038233Y022760D02*
X037933Y023060D01*
X037933Y027292D01*
X037900Y027325D01*
X036333Y027760D02*
X038433Y029860D01*
X037433Y029960D02*
X033533Y029960D01*
X033298Y030195D01*
X033298Y031470D01*
X034298Y031470D02*
X034298Y030595D01*
X034533Y030360D01*
X036633Y030360D01*
X037533Y030360D01*
X037733Y030560D01*
X037733Y031160D01*
X036333Y027760D02*
X036333Y025760D01*
X036601Y023184D02*
X036577Y023160D01*
X032433Y023160D01*
X031833Y023760D01*
X031833Y024560D01*
X029979Y023172D02*
X029940Y023172D01*
X030233Y020360D02*
X039033Y020360D01*
X039233Y020160D01*
X039233Y018310D01*
X039083Y018160D01*
X038617Y018065D02*
X038119Y018562D01*
X030833Y018560D01*
X030331Y019062D01*
X020703Y019062D01*
X020412Y019353D01*
X020933Y016960D02*
X021433Y016460D01*
X021733Y016060D02*
X021733Y013864D01*
X021533Y013664D01*
X006929Y013664D01*
X006233Y014360D01*
X005833Y014860D02*
X006633Y014860D01*
X005833Y014860D02*
X005633Y014660D01*
X005633Y014160D01*
X006366Y013427D01*
X022433Y013427D01*
X022633Y013627D01*
X022633Y015960D01*
X022833Y016160D01*
X031933Y016160D01*
X033117Y014977D01*
X033117Y013644D01*
X034117Y013644D02*
X034117Y015097D01*
X033673Y015541D01*
X032882Y015541D01*
X032063Y016360D01*
X022033Y016360D01*
X021733Y016060D01*
X022204Y015830D02*
X022204Y015135D01*
X022204Y015830D02*
X022233Y015860D01*
X024033Y015660D02*
X024033Y014031D01*
X023233Y013231D01*
X006263Y013231D01*
X005433Y014060D01*
X005433Y014960D01*
X006433Y015960D01*
X007333Y015960D01*
X007633Y015660D01*
X008033Y016160D02*
X006333Y016160D01*
X005233Y015060D01*
X005233Y013960D01*
X006140Y013054D01*
X023421Y013054D01*
X024827Y014460D01*
X025633Y014460D01*
X024704Y015135D02*
X024633Y015206D01*
X024633Y015710D01*
X024333Y015960D02*
X024033Y015660D01*
X024333Y015960D02*
X031833Y015960D01*
X032117Y015677D01*
X032117Y013644D01*
X031143Y013671D02*
X031143Y014110D01*
X031055Y014110D01*
X030687Y014479D01*
X028652Y014479D01*
X028633Y014460D01*
X029704Y015135D02*
X029179Y015660D01*
X029133Y015660D01*
X027233Y015165D02*
X027204Y015135D01*
X027233Y015165D02*
X027133Y015360D01*
X026833Y015660D01*
X026533Y015660D01*
X026533Y017060D02*
X026529Y017065D01*
X026003Y017065D01*
X024033Y016960D02*
X023608Y016960D01*
X023503Y017065D01*
X024349Y019353D02*
X026711Y019353D01*
X029233Y018260D02*
X016312Y018260D01*
X016112Y018060D01*
X015746Y018460D02*
X015475Y018188D01*
X015746Y018460D02*
X029333Y018460D01*
X029833Y017960D01*
X030933Y017960D01*
X031123Y018150D01*
X031123Y018168D01*
X030705Y018278D02*
X030587Y018160D01*
X029933Y018160D01*
X029433Y018660D01*
X014996Y018660D01*
X014784Y018448D01*
X013658Y018860D02*
X013617Y018818D01*
X013658Y018860D02*
X029633Y018860D01*
X029825Y018669D01*
X029900Y018669D01*
X029233Y018260D02*
X029733Y017760D01*
X031733Y017760D01*
X031912Y017581D01*
X037538Y017581D01*
X038117Y017003D01*
X038117Y013644D01*
X039117Y013644D02*
X039117Y016977D01*
X038617Y017477D01*
X038617Y018065D01*
X039633Y017917D02*
X039876Y017674D01*
X039633Y017917D02*
X039633Y020760D01*
X039583Y020810D01*
X039583Y022610D01*
X039433Y022760D01*
X038233Y022760D01*
X030233Y020360D02*
X030033Y020160D01*
X029533Y020160D01*
X029129Y017065D02*
X028503Y017065D01*
X029129Y017065D02*
X029133Y017060D01*
X030433Y017060D02*
X031008Y017060D01*
X031003Y017065D01*
X034433Y016160D02*
X034633Y015960D01*
X034633Y013060D01*
X034433Y012860D01*
X030533Y012860D01*
X030117Y013277D01*
X030117Y013644D01*
X031117Y013644D02*
X031143Y013671D01*
X019704Y015135D02*
X019683Y015156D01*
X019683Y015610D01*
X019033Y016260D01*
X018683Y016260D01*
X018503Y016440D01*
X018503Y017065D01*
X019133Y015660D02*
X019133Y014060D01*
X018933Y013860D01*
X014258Y013860D01*
X014258Y014560D01*
X014258Y013860D02*
X010533Y013860D01*
X010433Y013960D01*
X013503Y016336D02*
X014704Y015135D01*
X013503Y016336D02*
X013503Y017065D01*
X016003Y017065D02*
X016003Y016336D01*
X017204Y015135D01*
X010795Y021936D02*
X010370Y022360D01*
X007428Y022360D01*
X007303Y022485D01*
X007320Y022503D01*
X005031Y026113D02*
X002526Y023607D01*
X002526Y023120D01*
X002310Y022904D01*
X001416Y022904D01*
X001416Y023904D02*
X002129Y023904D01*
X004805Y026580D01*
X014061Y026580D01*
X014310Y026332D01*
X014310Y025840D01*
X013325Y025840D02*
X013052Y026113D01*
X005031Y026113D01*
X004454Y027017D02*
X002341Y024904D01*
X001416Y024904D01*
X004454Y027017D02*
X014117Y027017D01*
X014900Y026233D01*
X014900Y025840D01*
D22*
X030533Y019960D02*
X030533Y019660D01*
X031033Y019160D01*
X036055Y019160D01*
M02*
