G75*
%MOIN*%
%OFA0B0*%
%FSLAX24Y24*%
%IPPOS*%
%LPD*%
%AMOC8*
5,1,8,0,0,1.08239X$1,22.5*
%
%ADD10C,0.1142*%
%ADD11C,0.0631*%
%ADD12C,0.0516*%
%ADD13C,0.0316*%
%ADD14C,0.0640*%
%ADD15OC8,0.0640*%
%ADD16C,0.0594*%
%ADD17C,0.1221*%
%ADD18R,0.0788X0.0552*%
%ADD19R,0.0552X0.0631*%
%ADD20C,0.2540*%
%ADD21R,0.1300X0.1300*%
%ADD22C,0.4947*%
%ADD23R,0.0276X0.0906*%
%ADD24R,0.0197X0.0512*%
%ADD25R,0.0434X0.0512*%
%ADD26C,0.0946*%
%ADD27C,0.0575*%
%ADD28R,0.0571X0.0197*%
%ADD29R,0.0749X0.0749*%
%ADD30R,0.0749X0.0985*%
%ADD31R,0.0631X0.0552*%
%ADD32R,0.0316X0.0355*%
%ADD33R,0.0257X0.0512*%
%ADD34C,0.0394*%
%ADD35R,0.0355X0.0434*%
%ADD36R,0.0631X0.0316*%
%ADD37R,0.0355X0.0355*%
%ADD38R,0.0512X0.0355*%
D10*
X040491Y023290D03*
X008404Y028408D03*
D11*
X009585Y023684D03*
X016475Y023290D03*
X021593Y020928D03*
X026711Y023290D03*
X033601Y023684D03*
D12*
X031180Y023684D03*
X030609Y023172D03*
X030601Y024184D03*
X036593Y024172D03*
X036601Y023184D03*
X024585Y021416D03*
X024593Y020428D03*
X019172Y020928D03*
X018593Y021428D03*
X018601Y020416D03*
X012585Y023184D03*
X012577Y024172D03*
X007164Y023684D03*
X006593Y023172D03*
X006585Y024184D03*
D13*
X013109Y024471D03*
X025117Y021715D03*
X037125Y024471D03*
D14*
X037085Y021944D02*
X037085Y021344D01*
X036085Y021344D02*
X036085Y021944D01*
X035085Y021944D02*
X035085Y021344D01*
X034085Y021344D02*
X034085Y021944D01*
X033085Y021944D02*
X033085Y021344D01*
X032085Y021344D02*
X032085Y021944D01*
X031085Y021944D02*
X031085Y021344D01*
X030085Y021344D02*
X030085Y021944D01*
X029085Y021944D02*
X029085Y021344D01*
X038085Y021344D02*
X038085Y021944D01*
X039085Y021944D02*
X039085Y021344D01*
X040085Y021344D02*
X040085Y021944D01*
X040117Y013944D02*
X040117Y013344D01*
X039117Y013344D02*
X039117Y013944D01*
X038117Y013944D02*
X038117Y013344D01*
X037117Y013344D02*
X037117Y013944D01*
X036117Y013944D02*
X036117Y013344D01*
X035117Y013344D02*
X035117Y013944D01*
X034117Y013944D02*
X034117Y013344D01*
X033117Y013344D02*
X033117Y013944D01*
X032117Y013944D02*
X032117Y013344D01*
X031117Y013344D02*
X031117Y013944D01*
X030117Y013944D02*
X030117Y013344D01*
X029117Y013344D02*
X029117Y013944D01*
X028117Y013944D02*
X028117Y013344D01*
X027117Y013344D02*
X027117Y013944D01*
X026117Y013944D02*
X026117Y013344D01*
X025117Y013344D02*
X025117Y013944D01*
X001716Y019904D02*
X001116Y019904D01*
X001116Y020904D02*
X001716Y020904D01*
X001716Y021904D02*
X001116Y021904D01*
X001116Y022904D02*
X001716Y022904D01*
X001716Y023904D02*
X001116Y023904D01*
X001116Y024904D02*
X001716Y024904D01*
X007585Y030470D02*
X007585Y031070D01*
X008585Y031070D02*
X008585Y030470D01*
X009585Y030470D02*
X009585Y031070D01*
X010585Y031070D02*
X010585Y030470D01*
X011585Y030470D02*
X011585Y031070D01*
X032298Y031170D02*
X032298Y031770D01*
X033298Y031770D02*
X033298Y031170D01*
X034298Y031170D02*
X034298Y031770D01*
X035298Y031770D02*
X035298Y031170D01*
D15*
X014880Y020487D03*
X012932Y020487D03*
D16*
X037900Y027325D03*
X037900Y028325D03*
D17*
X039900Y029325D03*
X039900Y025325D03*
D18*
X035663Y024377D03*
X034403Y024377D03*
X034403Y026543D03*
X035663Y026543D03*
D19*
X002259Y014860D03*
X003007Y014860D03*
X003007Y016460D03*
X002259Y016460D03*
X004159Y016460D03*
X004907Y016460D03*
X009459Y016460D03*
X010207Y016460D03*
X010207Y015060D03*
X009459Y015060D03*
X032759Y027360D03*
X033507Y027360D03*
X033507Y028660D03*
X032759Y028660D03*
X032759Y030060D03*
X033507Y030060D03*
X038459Y030860D03*
X039207Y030860D03*
X039207Y031760D03*
X038459Y031760D03*
X033667Y016150D03*
X032919Y016150D03*
D20*
X029433Y027860D03*
D21*
X029433Y024622D03*
X029433Y031098D03*
D22*
X029433Y027860D03*
D23*
X034483Y027936D03*
X034983Y027936D03*
X035483Y027936D03*
X035983Y027936D03*
X035983Y029984D03*
X035483Y029984D03*
X034983Y029984D03*
X034483Y029984D03*
D24*
X008241Y020306D03*
X007985Y020306D03*
X007729Y020306D03*
X007473Y020306D03*
X007217Y020306D03*
X006961Y020306D03*
X006705Y020306D03*
X006449Y020306D03*
X006194Y020306D03*
X005938Y020306D03*
X005682Y020306D03*
X005426Y020306D03*
X005426Y017614D03*
X005682Y017614D03*
X005938Y017614D03*
X006194Y017614D03*
X006449Y017614D03*
X006705Y017614D03*
X006961Y017614D03*
X007217Y017614D03*
X007473Y017614D03*
X007729Y017614D03*
X007985Y017614D03*
X008241Y017614D03*
D25*
X003007Y017566D03*
X002259Y017566D03*
X002633Y018354D03*
D26*
X042248Y018897D03*
X042248Y021732D03*
D27*
X041067Y021269D03*
X041067Y019360D03*
D28*
X041195Y019803D03*
X041195Y020058D03*
X041195Y020314D03*
X041195Y020570D03*
X041195Y020826D03*
D29*
X042248Y020767D03*
X042248Y019862D03*
D30*
X038531Y019160D03*
X036936Y019160D03*
D31*
X030373Y016084D03*
X030373Y015336D03*
X025373Y015096D03*
X025373Y015844D03*
X020373Y015844D03*
X020373Y015096D03*
X016163Y015106D03*
X016163Y015854D03*
X013233Y015834D03*
X013233Y015086D03*
X011719Y024834D03*
X011719Y025582D03*
X015691Y025928D03*
X015691Y025180D03*
X032541Y025302D03*
X032541Y024554D03*
D32*
X011833Y015932D03*
X011459Y014988D03*
X012207Y014988D03*
D33*
X014259Y014948D03*
X014633Y014948D03*
X015007Y014948D03*
X015007Y015972D03*
X014259Y015972D03*
D34*
X041522Y015888D03*
X041522Y017069D03*
D35*
X041955Y017915D03*
X041088Y017915D03*
X041088Y015041D03*
X041955Y015041D03*
D36*
X040636Y015592D03*
X040636Y016773D03*
X040636Y017364D03*
D37*
X041738Y022660D03*
X042329Y022660D03*
D38*
X042233Y023306D03*
X042233Y024014D03*
M02*
