G75*
%MOIN*%
%OFA0B0*%
%FSLAX24Y24*%
%IPPOS*%
%LPD*%
%AMOC8*
5,1,8,0,0,1.08239X$1,22.5*
%
%ADD10C,0.0476*%
%ADD11C,0.0600*%
%ADD12OC8,0.0600*%
%ADD13C,0.0554*%
%ADD14C,0.1181*%
%ADD15R,0.0748X0.0512*%
%ADD16R,0.0512X0.0591*%
%ADD17C,0.2500*%
%ADD18R,0.1260X0.1260*%
%ADD19R,0.0236X0.0866*%
%ADD20R,0.0157X0.0472*%
%ADD21R,0.0394X0.0472*%
%ADD22C,0.0906*%
%ADD23C,0.0535*%
%ADD24R,0.0531X0.0157*%
%ADD25R,0.0709X0.0709*%
%ADD26R,0.0709X0.0945*%
%ADD27R,0.0591X0.0512*%
%ADD28R,0.0276X0.0315*%
%ADD29R,0.0217X0.0472*%
%ADD30R,0.0315X0.0394*%
%ADD31R,0.0591X0.0276*%
%ADD32R,0.0315X0.0315*%
%ADD33R,0.0472X0.0315*%
%ADD34C,0.0258*%
%ADD35C,0.0200*%
%ADD36C,0.0100*%
%ADD37C,0.0160*%
%ADD38C,0.0320*%
%ADD39C,0.0120*%
D10*
X018601Y020416D03*
X019172Y020928D03*
X018593Y021428D03*
X024585Y021416D03*
X024593Y020428D03*
X030609Y023172D03*
X031180Y023684D03*
X030601Y024184D03*
X036593Y024172D03*
X036601Y023184D03*
X012585Y023184D03*
X012577Y024172D03*
X007164Y023684D03*
X006593Y023172D03*
X006585Y024184D03*
D11*
X001716Y023904D02*
X001116Y023904D01*
X001116Y022904D02*
X001716Y022904D01*
X001716Y021904D02*
X001116Y021904D01*
X001116Y020904D02*
X001716Y020904D01*
X001716Y019904D02*
X001116Y019904D01*
X001116Y024904D02*
X001716Y024904D01*
X007585Y030470D02*
X007585Y031070D01*
X008585Y031070D02*
X008585Y030470D01*
X009585Y030470D02*
X009585Y031070D01*
X010585Y031070D02*
X010585Y030470D01*
X011585Y030470D02*
X011585Y031070D01*
X029085Y021944D02*
X029085Y021344D01*
X030085Y021344D02*
X030085Y021944D01*
X031085Y021944D02*
X031085Y021344D01*
X032085Y021344D02*
X032085Y021944D01*
X033085Y021944D02*
X033085Y021344D01*
X034085Y021344D02*
X034085Y021944D01*
X035085Y021944D02*
X035085Y021344D01*
X036085Y021344D02*
X036085Y021944D01*
X037085Y021944D02*
X037085Y021344D01*
X038085Y021344D02*
X038085Y021944D01*
X039085Y021944D02*
X039085Y021344D01*
X040085Y021344D02*
X040085Y021944D01*
X040117Y013944D02*
X040117Y013344D01*
X039117Y013344D02*
X039117Y013944D01*
X038117Y013944D02*
X038117Y013344D01*
X037117Y013344D02*
X037117Y013944D01*
X036117Y013944D02*
X036117Y013344D01*
X035117Y013344D02*
X035117Y013944D01*
X034117Y013944D02*
X034117Y013344D01*
X033117Y013344D02*
X033117Y013944D01*
X032117Y013944D02*
X032117Y013344D01*
X031117Y013344D02*
X031117Y013944D01*
X030117Y013944D02*
X030117Y013344D01*
X029117Y013344D02*
X029117Y013944D01*
X028117Y013944D02*
X028117Y013344D01*
X027117Y013344D02*
X027117Y013944D01*
X026117Y013944D02*
X026117Y013344D01*
X025117Y013344D02*
X025117Y013944D01*
X032298Y031170D02*
X032298Y031770D01*
X033298Y031770D02*
X033298Y031170D01*
X034298Y031170D02*
X034298Y031770D01*
X035298Y031770D02*
X035298Y031170D01*
D12*
X014880Y020487D03*
X012932Y020487D03*
D13*
X037900Y027325D03*
X037900Y028325D03*
D14*
X039900Y029325D03*
X039900Y025325D03*
D15*
X035663Y024377D03*
X034403Y024377D03*
X034403Y026543D03*
X035663Y026543D03*
D16*
X033507Y027360D03*
X032759Y027360D03*
X032759Y028660D03*
X033507Y028660D03*
X033507Y030060D03*
X032759Y030060D03*
X038459Y030860D03*
X039207Y030860D03*
X039207Y031760D03*
X038459Y031760D03*
X033667Y016150D03*
X032919Y016150D03*
X010207Y016460D03*
X009459Y016460D03*
X009459Y015060D03*
X010207Y015060D03*
X004907Y016460D03*
X004159Y016460D03*
X003007Y016460D03*
X002259Y016460D03*
X002259Y014860D03*
X003007Y014860D03*
D17*
X029433Y027860D03*
D18*
X029433Y024622D03*
X029433Y031098D03*
D19*
X034483Y029984D03*
X034983Y029984D03*
X035483Y029984D03*
X035983Y029984D03*
X035983Y027936D03*
X035483Y027936D03*
X034983Y027936D03*
X034483Y027936D03*
D20*
X008241Y020306D03*
X007985Y020306D03*
X007729Y020306D03*
X007473Y020306D03*
X007217Y020306D03*
X006961Y020306D03*
X006705Y020306D03*
X006449Y020306D03*
X006194Y020306D03*
X005938Y020306D03*
X005682Y020306D03*
X005426Y020306D03*
X005426Y017614D03*
X005682Y017614D03*
X005938Y017614D03*
X006194Y017614D03*
X006449Y017614D03*
X006705Y017614D03*
X006961Y017614D03*
X007217Y017614D03*
X007473Y017614D03*
X007729Y017614D03*
X007985Y017614D03*
X008241Y017614D03*
D21*
X003007Y017566D03*
X002259Y017566D03*
X002633Y018354D03*
D22*
X042248Y018897D03*
X042248Y021732D03*
D23*
X041067Y021269D03*
X041067Y019360D03*
D24*
X041195Y019803D03*
X041195Y020058D03*
X041195Y020314D03*
X041195Y020570D03*
X041195Y020826D03*
D25*
X042248Y020767D03*
X042248Y019862D03*
D26*
X038531Y019160D03*
X036936Y019160D03*
D27*
X030373Y016084D03*
X030373Y015336D03*
X025373Y015096D03*
X025373Y015844D03*
X020373Y015844D03*
X020373Y015096D03*
X016163Y015106D03*
X016163Y015854D03*
X013233Y015834D03*
X013233Y015086D03*
X011719Y024834D03*
X011719Y025582D03*
X015691Y025928D03*
X015691Y025180D03*
X032541Y025302D03*
X032541Y024554D03*
D28*
X011833Y015932D03*
X011459Y014988D03*
X012207Y014988D03*
D29*
X014259Y014948D03*
X014633Y014948D03*
X015007Y014948D03*
X015007Y015972D03*
X014259Y015972D03*
D30*
X041088Y015041D03*
X041955Y015041D03*
X041955Y017915D03*
X041088Y017915D03*
D31*
X040636Y017364D03*
X040636Y016773D03*
X040636Y015592D03*
D32*
X041738Y022660D03*
X042329Y022660D03*
D33*
X042233Y023306D03*
X042233Y024014D03*
D34*
X041581Y025232D03*
X037731Y022582D03*
X035001Y023572D03*
X034975Y025204D03*
X033533Y026060D03*
X032475Y026404D03*
X033311Y025292D03*
X031833Y024560D03*
X031033Y024860D03*
X027502Y023421D03*
X025333Y022553D03*
X026783Y022074D03*
X026083Y021274D03*
X026151Y020722D03*
X026911Y021082D03*
X026564Y020140D03*
X026711Y019353D03*
X028163Y019710D03*
X029533Y020160D03*
X029761Y019672D03*
X030533Y019960D03*
X031563Y019810D03*
X032601Y019712D03*
X033601Y019682D03*
X034601Y019672D03*
X035683Y019674D03*
X036055Y019160D03*
X036731Y019992D03*
X035911Y017962D03*
X036083Y016274D03*
X035471Y016072D03*
X034433Y016160D03*
X034231Y015582D03*
X033621Y015052D03*
X032594Y014855D03*
X032611Y014222D03*
X031621Y014312D03*
X031533Y015060D03*
X031651Y015582D03*
X033621Y014192D03*
X032601Y013142D03*
X031601Y013142D03*
X029611Y013022D03*
X028633Y014460D03*
X029241Y014792D03*
X029033Y015086D03*
X029133Y015660D03*
X028461Y015692D03*
X027833Y015660D03*
X026533Y015660D03*
X026483Y015086D03*
X026791Y014852D03*
X025633Y014460D03*
X024311Y014422D03*
X023383Y014174D03*
X022971Y013882D03*
X022183Y014174D03*
X021281Y014172D03*
X021433Y015096D03*
X022233Y015860D03*
X023141Y015742D03*
X023671Y015802D03*
X023033Y015096D03*
X024633Y015710D03*
X024033Y016960D03*
X024641Y017752D03*
X025371Y017732D03*
X026581Y017722D03*
X026533Y017060D03*
X028531Y017802D03*
X029151Y017682D03*
X029133Y017060D03*
X030433Y017060D03*
X031123Y018168D03*
X030705Y018278D03*
X030363Y018610D03*
X029900Y018669D03*
X033611Y017032D03*
X035631Y014272D03*
X036631Y014292D03*
X035621Y012982D03*
X039911Y016192D03*
X039876Y017674D03*
X039083Y018160D03*
X040247Y019259D03*
X041271Y013983D03*
X028283Y021174D03*
X024349Y019353D03*
X022802Y019371D03*
X021152Y019371D03*
X020412Y019353D03*
X020121Y021122D03*
X018984Y022553D03*
X017461Y022272D03*
X016502Y021521D03*
X015991Y022252D03*
X015481Y023062D03*
X015883Y023674D03*
X014861Y023882D03*
X014551Y022272D03*
X012271Y022182D03*
X011554Y023093D03*
X010682Y023471D03*
X008872Y024251D03*
X007612Y024471D03*
X005511Y023702D03*
X004542Y024391D03*
X003762Y024311D03*
X004542Y024971D03*
X005402Y025011D03*
X003681Y023252D03*
X005411Y022392D03*
X006311Y021092D03*
X007311Y021092D03*
X009411Y021992D03*
X010261Y021672D03*
X011081Y021442D03*
X011991Y020842D03*
X011554Y019860D03*
X013617Y018818D03*
X014202Y017921D03*
X014784Y018448D03*
X015475Y018188D03*
X016112Y018060D03*
X015341Y016972D03*
X013991Y016622D03*
X014621Y016192D03*
X015241Y015422D03*
X013891Y015092D03*
X013911Y014672D03*
X014258Y014560D03*
X013503Y014380D03*
X012631Y014942D03*
X010433Y013960D03*
X008911Y015192D03*
X008011Y015192D03*
X007633Y015660D03*
X008033Y016160D03*
X006511Y016592D03*
X004933Y015860D03*
X003611Y015292D03*
X004611Y014492D03*
X006233Y014360D03*
X006633Y014860D03*
X007211Y014492D03*
X006351Y013832D03*
X001702Y014021D03*
X001811Y015792D03*
X000811Y017692D03*
X002633Y019060D03*
X003211Y018892D03*
X004211Y018492D03*
X004733Y017614D03*
X007711Y018792D03*
X008873Y017600D03*
X010811Y017392D03*
X011561Y017442D03*
X011431Y016902D03*
X011081Y016472D03*
X012761Y017752D03*
X016283Y019274D03*
X017221Y020832D03*
X017483Y017774D03*
X017961Y016132D03*
X017203Y016054D03*
X016583Y015106D03*
X016661Y014712D03*
X015691Y014322D03*
X017933Y015106D03*
X018591Y014192D03*
X019921Y014102D03*
X019133Y015660D03*
X019481Y016202D03*
X021433Y016460D03*
X023183Y017774D03*
X023083Y021574D03*
X014900Y025840D03*
X014310Y025840D03*
X013791Y026152D03*
X013325Y025840D03*
X013783Y025474D03*
X014102Y027571D03*
X015602Y027571D03*
X015602Y029821D03*
X014102Y029821D03*
X012052Y028881D03*
X010502Y029121D03*
X009602Y027571D03*
X007102Y027821D03*
X007102Y029571D03*
X003352Y031071D03*
X002602Y031721D03*
X001352Y030071D03*
X000802Y026721D03*
X002352Y025821D03*
X007303Y022485D03*
X004531Y020792D03*
X003733Y019860D03*
X002511Y020592D03*
X010292Y025691D03*
X014102Y031821D03*
X015702Y031821D03*
X027202Y031821D03*
X031511Y030592D03*
X032775Y030704D03*
X033775Y030704D03*
X033911Y029392D03*
X032811Y029392D03*
X033975Y028004D03*
X034933Y028860D03*
X035975Y028804D03*
X037433Y029960D03*
X038433Y029860D03*
X036633Y030360D03*
X037733Y031160D03*
X036711Y031582D03*
X041002Y031421D03*
X041581Y029482D03*
X036811Y026092D03*
X035951Y027172D03*
X024283Y013274D03*
X026611Y012982D03*
D35*
X026489Y015086D02*
X026723Y015320D01*
X028799Y015320D01*
X029033Y015086D01*
X030123Y015086D01*
X030373Y015336D01*
X031257Y015336D01*
X031533Y015060D01*
X027833Y015660D02*
X027833Y017860D01*
X027433Y018260D01*
X025733Y018260D01*
X025333Y018660D01*
X025333Y020337D01*
X025333Y020364D02*
X025629Y020659D01*
X025629Y021912D01*
X025333Y022207D01*
X025333Y022553D01*
X024585Y021155D02*
X025333Y020407D01*
X026564Y020140D02*
X028680Y020140D01*
X029085Y020546D01*
X029085Y021644D01*
X029433Y024622D02*
X029495Y024622D01*
X029833Y024860D01*
X031033Y024860D01*
X033533Y026060D02*
X033533Y027334D01*
X033507Y027360D01*
X033507Y027886D01*
X033333Y028060D01*
X032933Y028060D01*
X032733Y028260D01*
X032733Y028634D01*
X032759Y028660D01*
X032333Y029086D01*
X032333Y029660D01*
X032033Y029960D01*
X032033Y030360D01*
X032298Y030625D01*
X032298Y031470D01*
X033507Y030060D02*
X033507Y028660D01*
X034933Y028860D02*
X035133Y028860D01*
X035483Y028510D01*
X035483Y027936D01*
X034483Y029984D02*
X033584Y029984D01*
X033507Y030060D01*
X018984Y022553D02*
X018984Y022109D01*
X018787Y021912D01*
X018357Y021912D01*
X018050Y021605D01*
X018050Y020824D01*
X018458Y020416D01*
X013502Y017856D02*
X013502Y016642D01*
X013533Y016610D01*
X013383Y016610D01*
X012733Y016610D01*
X012483Y016360D01*
X012483Y015710D01*
X012207Y015434D01*
X012207Y014988D01*
X011833Y015932D02*
X011306Y015932D01*
X010933Y015560D01*
X010933Y014310D01*
X011333Y013910D01*
X013483Y013910D01*
X015933Y013910D01*
X016163Y014140D01*
X016163Y015106D01*
X016583Y015106D01*
X017933Y015106D01*
X020363Y015106D01*
X020373Y015096D01*
X021433Y015096D01*
X023033Y015096D01*
X025373Y015096D01*
X025383Y015086D01*
X026483Y015086D01*
X026489Y015086D01*
X020373Y015096D02*
X020333Y015056D01*
X014259Y015972D02*
X014247Y015960D01*
X013983Y015960D01*
X013833Y016110D01*
X013833Y016310D01*
X013533Y016610D01*
X013502Y016729D02*
X013383Y016610D01*
X013502Y017856D02*
X012398Y018959D01*
X012144Y018959D01*
X011554Y019550D01*
X011554Y019860D01*
X011554Y023093D01*
X008241Y023142D02*
X012538Y027440D01*
X012538Y031558D01*
X012144Y031951D01*
X010963Y031951D01*
X010585Y031573D01*
X010585Y030770D01*
X009585Y030770D02*
X009585Y030008D01*
X009833Y029760D01*
X010833Y029760D01*
X011133Y029460D01*
X011133Y027760D01*
X008933Y025560D01*
X005433Y025560D01*
X004933Y025060D01*
X004933Y019660D01*
X005233Y019360D01*
X006133Y019360D01*
X006433Y019660D01*
X006433Y019960D01*
X006973Y019940D02*
X006973Y019000D01*
X006972Y018990D01*
X006968Y018980D01*
X006961Y018972D01*
X006953Y018965D01*
X006943Y018961D01*
X006933Y018960D01*
X006633Y018660D01*
X004633Y018660D01*
X004133Y019160D01*
X004133Y025060D01*
X002433Y026760D01*
X002433Y030860D01*
X003433Y031860D01*
X008333Y031860D01*
X008585Y031608D01*
X008585Y030770D01*
X011585Y030770D02*
X011585Y027519D01*
X007733Y023667D01*
X007733Y022060D01*
X007433Y021760D01*
X005633Y021760D01*
X005426Y021553D01*
X005426Y020306D01*
X003733Y019860D02*
X003689Y019904D01*
X001416Y019904D01*
X002633Y019060D02*
X002633Y018354D01*
X001627Y018354D01*
X001333Y018060D01*
X001333Y015160D01*
X001633Y014860D01*
X002259Y014860D01*
X003007Y014860D02*
X003007Y016460D01*
X003007Y017566D01*
X003055Y017614D01*
X004733Y017614D01*
X005426Y017614D01*
X004933Y016486D02*
X004933Y015860D01*
X008453Y017600D02*
X008873Y017600D01*
X008241Y020306D02*
X008241Y023142D01*
D36*
X007303Y022485D02*
X007164Y022624D01*
X007164Y023684D01*
X007311Y021092D02*
X007473Y021055D01*
X007473Y020306D01*
X007217Y020306D02*
X006961Y020306D01*
X006961Y019952D01*
X006962Y019947D01*
X006965Y019944D01*
X006968Y019941D01*
X006973Y019940D01*
X006705Y020306D02*
X006449Y020306D01*
X006433Y020290D01*
X006433Y019960D01*
X006194Y020306D02*
X006194Y021010D01*
X006311Y021092D01*
X005682Y020306D02*
X005426Y020306D01*
X007985Y020306D02*
X008241Y020306D01*
X008241Y017614D02*
X008254Y017600D01*
X008453Y017600D01*
X007985Y017614D02*
X007985Y016808D01*
X008333Y016460D01*
X009459Y016460D01*
X010207Y016460D02*
X010207Y015060D01*
X010333Y015034D01*
X010333Y014260D01*
X008133Y014260D01*
X006833Y015560D01*
X006833Y015960D01*
X006961Y016088D01*
X006961Y017614D01*
X006449Y017614D02*
X006449Y017076D01*
X005833Y016460D01*
X005833Y015660D01*
X006633Y014860D01*
X006233Y014960D02*
X006233Y014360D01*
X006194Y014400D01*
X006233Y014960D02*
X005633Y015560D01*
X005633Y016560D01*
X006194Y017120D01*
X006194Y017614D01*
X005682Y017614D02*
X005426Y017614D01*
X007473Y017614D02*
X007473Y015820D01*
X007633Y015660D01*
X008033Y016160D02*
X007729Y016464D01*
X007729Y017614D01*
X011459Y014988D02*
X011459Y014534D01*
X011633Y014360D01*
X012533Y014360D01*
X013083Y014910D01*
X013233Y015086D01*
X013333Y015086D01*
X013607Y015360D01*
X014683Y015360D01*
X015007Y015684D01*
X015007Y015972D01*
X015483Y016510D02*
X015333Y016660D01*
X014383Y016660D01*
X014283Y016560D01*
X014283Y015996D01*
X014259Y015972D01*
X015483Y016510D02*
X015483Y014610D01*
X015333Y014460D01*
X014783Y014460D01*
X014633Y014610D01*
X014633Y014948D01*
X014259Y014948D02*
X014259Y014510D01*
X014258Y014560D01*
X010433Y014160D02*
X010433Y013960D01*
X010433Y014160D02*
X010333Y014260D01*
X015475Y018188D02*
X014173Y019490D01*
X014173Y023744D01*
X014900Y024471D01*
X014900Y025840D01*
X014310Y025840D02*
X014310Y024574D01*
X013888Y024152D01*
X013888Y019344D01*
X014784Y018448D01*
X013617Y018818D02*
X013617Y024967D01*
X013325Y025258D01*
X013325Y025840D01*
X011719Y024834D02*
X011719Y024050D01*
X012585Y023184D01*
X014933Y023460D02*
X014933Y022076D01*
X018160Y018849D01*
X021483Y018849D01*
X023062Y020428D01*
X024593Y020428D01*
X025333Y020407D02*
X025333Y020364D01*
X025333Y020337D01*
X024585Y021155D02*
X024585Y021416D01*
X024349Y019353D02*
X023326Y019353D01*
X022033Y018060D01*
X019433Y018060D01*
X019133Y017760D01*
X019133Y015660D01*
X021433Y016460D02*
X022033Y015860D01*
X022233Y015860D01*
X024033Y016310D02*
X024633Y015710D01*
X024033Y016310D02*
X024033Y016960D01*
X026533Y017060D02*
X026533Y015660D01*
X025633Y014460D02*
X028633Y014460D01*
X029117Y014343D02*
X029117Y013644D01*
X029117Y014343D02*
X029333Y014560D01*
X036633Y014560D01*
X036933Y014860D01*
X036933Y017360D01*
X037248Y017674D01*
X039876Y017674D01*
X040333Y017460D02*
X040433Y017360D01*
X040632Y017360D01*
X040636Y017364D01*
X040333Y017460D02*
X040333Y017960D01*
X040133Y018160D01*
X039083Y018160D01*
X035085Y019248D02*
X035085Y021644D01*
X034085Y021644D02*
X034085Y019319D01*
X033578Y018812D01*
X031250Y018812D01*
X030716Y018278D01*
X030705Y018278D01*
X031123Y018168D02*
X031483Y018528D01*
X034365Y018528D01*
X035085Y019248D01*
X033085Y019314D02*
X032850Y019079D01*
X030310Y019079D01*
X029900Y018669D01*
X029533Y020160D02*
X030085Y020712D01*
X030085Y021644D01*
X032085Y021644D02*
X032085Y019603D01*
X031816Y019333D01*
X026791Y019333D01*
X026711Y019353D01*
X029133Y017060D02*
X029133Y015660D01*
X030433Y017060D02*
X032733Y017060D01*
X032919Y016874D01*
X032919Y016150D01*
X033667Y016150D02*
X033677Y016160D01*
X034433Y016160D01*
X031543Y017050D02*
X030433Y017060D01*
X033085Y019314D02*
X033085Y021644D01*
X033207Y022699D02*
X036751Y022699D01*
X037085Y022365D01*
X037085Y021644D01*
X039085Y021644D02*
X039085Y022208D01*
X037733Y023560D01*
X037733Y025760D01*
X036833Y026660D01*
X036833Y028960D01*
X036533Y029260D01*
X035833Y029260D01*
X035533Y029560D01*
X035533Y029934D01*
X035483Y029984D01*
X035533Y030034D01*
X035533Y030560D01*
X035833Y030860D01*
X037233Y030860D01*
X037233Y031560D01*
X037433Y031760D01*
X038459Y031760D01*
X039207Y031760D02*
X039207Y031060D01*
X039407Y030860D01*
X041433Y030860D01*
X042233Y030060D01*
X042233Y024014D01*
X042233Y023306D02*
X042233Y022755D01*
X042329Y022660D01*
X040085Y021808D02*
X040085Y021644D01*
X040085Y021808D02*
X039433Y022460D01*
X039133Y022460D01*
X037933Y023660D01*
X037933Y025860D01*
X037033Y026760D01*
X037033Y029360D01*
X036733Y029660D01*
X036033Y029660D01*
X036033Y029934D01*
X035983Y029984D01*
X036033Y030034D01*
X036033Y030260D01*
X036133Y030360D01*
X036633Y030360D01*
X037233Y030860D02*
X037433Y030660D01*
X037433Y029960D01*
X038433Y029860D02*
X038933Y029860D01*
X039133Y030060D01*
X039133Y030786D01*
X039207Y030860D01*
X039207Y031060D01*
X038459Y030860D02*
X038033Y030860D01*
X037733Y031160D01*
X034983Y027936D02*
X034983Y027223D01*
X035663Y026543D01*
X034403Y026543D02*
X034403Y027856D01*
X034405Y027872D01*
X034409Y027887D01*
X034416Y027900D01*
X034426Y027913D01*
X034439Y027923D01*
X034452Y027930D01*
X034467Y027934D01*
X034483Y027936D01*
X032541Y024573D02*
X031847Y024573D01*
X031833Y024560D01*
X032541Y024573D02*
X032541Y024554D01*
X032223Y023684D02*
X031180Y023684D01*
X032223Y023684D02*
X033207Y022699D01*
X020412Y019353D02*
X019172Y020593D01*
X019172Y020928D01*
X018601Y020416D02*
X018458Y020416D01*
X016112Y018104D02*
X016112Y018060D01*
X016112Y018104D02*
X014880Y019337D01*
X014880Y020487D01*
X014933Y023460D02*
X015691Y024217D01*
X015691Y025180D01*
D37*
X002376Y012840D02*
X000513Y014703D01*
X000513Y030302D01*
X002376Y032165D01*
X010852Y032165D01*
X010827Y032155D01*
X010760Y032087D01*
X010382Y031709D01*
X010345Y031621D01*
X010345Y031447D01*
X010336Y031443D01*
X010212Y031319D01*
X010145Y031158D01*
X010145Y030383D01*
X010212Y030221D01*
X010336Y030097D01*
X010498Y030030D01*
X010673Y030030D01*
X010835Y030097D01*
X010958Y030221D01*
X011025Y030383D01*
X011025Y031158D01*
X010958Y031319D01*
X010835Y031443D01*
X010825Y031447D01*
X010825Y031474D01*
X011063Y031711D01*
X012045Y031711D01*
X012298Y031458D01*
X012298Y027539D01*
X008037Y023278D01*
X008001Y023190D01*
X008001Y020683D01*
X007922Y020683D01*
X007918Y020687D01*
X007877Y020710D01*
X007831Y020723D01*
X007729Y020723D01*
X007627Y020723D01*
X007601Y020716D01*
X007576Y020723D01*
X007473Y020723D01*
X007371Y020723D01*
X007325Y020710D01*
X007284Y020687D01*
X007280Y020683D01*
X006387Y020683D01*
X006383Y020687D01*
X006342Y020710D01*
X006296Y020723D01*
X006194Y020723D01*
X006194Y020577D01*
X006194Y020577D01*
X006194Y020723D01*
X006091Y020723D01*
X006066Y020716D01*
X006040Y020723D01*
X005938Y020723D01*
X005938Y020577D01*
X005938Y020577D01*
X005938Y020723D01*
X005835Y020723D01*
X005789Y020710D01*
X005748Y020687D01*
X005744Y020683D01*
X005666Y020683D01*
X005666Y021453D01*
X005733Y021520D01*
X007481Y021520D01*
X007569Y021557D01*
X007637Y021624D01*
X007937Y021924D01*
X007973Y022012D01*
X007973Y023568D01*
X011789Y027383D01*
X011825Y027471D01*
X011825Y030093D01*
X011835Y030097D01*
X011958Y030221D01*
X012025Y030383D01*
X012025Y031158D01*
X011958Y031319D01*
X011835Y031443D01*
X011673Y031510D01*
X011498Y031510D01*
X011336Y031443D01*
X011212Y031319D01*
X011145Y031158D01*
X011145Y030383D01*
X011212Y030221D01*
X011336Y030097D01*
X011345Y030093D01*
X011345Y029575D01*
X011337Y029596D01*
X011037Y029896D01*
X010969Y029963D01*
X010881Y030000D01*
X009933Y030000D01*
X009835Y030098D01*
X009958Y030221D01*
X010025Y030383D01*
X010025Y031158D01*
X009958Y031319D01*
X009835Y031443D01*
X009673Y031510D01*
X009498Y031510D01*
X009336Y031443D01*
X009212Y031319D01*
X009145Y031158D01*
X009145Y030383D01*
X009212Y030221D01*
X009336Y030097D01*
X009345Y030093D01*
X009345Y029960D01*
X009382Y029872D01*
X009449Y029805D01*
X009697Y029557D01*
X009786Y029520D01*
X010734Y029520D01*
X010893Y029361D01*
X010893Y027859D01*
X008834Y025800D01*
X005386Y025800D01*
X005297Y025763D01*
X004797Y025263D01*
X004730Y025196D01*
X004693Y025108D01*
X004693Y019612D01*
X004730Y019524D01*
X005030Y019224D01*
X005097Y019157D01*
X005186Y019120D01*
X006181Y019120D01*
X006269Y019157D01*
X006569Y019457D01*
X006637Y019524D01*
X006673Y019612D01*
X006673Y019930D01*
X006733Y019930D01*
X006733Y019099D01*
X006730Y019096D01*
X006534Y018900D01*
X004733Y018900D01*
X004373Y019259D01*
X004373Y025108D01*
X004337Y025196D01*
X004269Y025263D01*
X002673Y026859D01*
X002673Y030761D01*
X003533Y031620D01*
X008234Y031620D01*
X008345Y031509D01*
X008345Y031447D01*
X008336Y031443D01*
X008212Y031319D01*
X008145Y031158D01*
X008145Y030383D01*
X008212Y030221D01*
X008336Y030097D01*
X008498Y030030D01*
X008673Y030030D01*
X008835Y030097D01*
X008958Y030221D01*
X009025Y030383D01*
X009025Y031158D01*
X008958Y031319D01*
X008835Y031443D01*
X008825Y031447D01*
X008825Y031656D01*
X008789Y031744D01*
X008721Y031811D01*
X008469Y032063D01*
X008381Y032100D01*
X003386Y032100D01*
X003297Y032063D01*
X003230Y031996D01*
X002297Y031063D01*
X002230Y030996D01*
X002193Y030908D01*
X002193Y026712D01*
X002230Y026624D01*
X003893Y024961D01*
X003893Y020080D01*
X003886Y020088D01*
X003787Y020129D01*
X003774Y020129D01*
X003737Y020144D01*
X002093Y020144D01*
X002089Y020153D01*
X001965Y020277D01*
X001804Y020344D01*
X001028Y020344D01*
X000867Y020277D01*
X000743Y020153D01*
X000676Y019992D01*
X000676Y019817D01*
X000743Y019655D01*
X000867Y019531D01*
X001028Y019464D01*
X001804Y019464D01*
X001965Y019531D01*
X002089Y019655D01*
X002093Y019664D01*
X003549Y019664D01*
X003581Y019632D01*
X003680Y019591D01*
X003787Y019591D01*
X003886Y019632D01*
X003893Y019640D01*
X003893Y019112D01*
X003930Y019024D01*
X004430Y018524D01*
X004497Y018457D01*
X004586Y018420D01*
X006681Y018420D01*
X006769Y018457D01*
X007066Y018753D01*
X007138Y018795D01*
X007213Y018925D01*
X007213Y018925D01*
X007213Y019930D01*
X007280Y019930D01*
X007284Y019926D01*
X007325Y019903D01*
X007371Y019890D01*
X007473Y019890D01*
X007473Y020036D01*
X007473Y020036D01*
X007473Y019890D01*
X007576Y019890D01*
X007601Y019897D01*
X007627Y019890D01*
X007729Y019890D01*
X007831Y019890D01*
X007877Y019903D01*
X007918Y019926D01*
X007922Y019930D01*
X008378Y019930D01*
X008460Y020012D01*
X008460Y020207D01*
X008481Y020259D01*
X008481Y023043D01*
X009110Y023672D01*
X009110Y023589D01*
X009182Y023414D01*
X009316Y023281D01*
X009491Y023208D01*
X009680Y023208D01*
X009855Y023281D01*
X009988Y023414D01*
X010061Y023589D01*
X010061Y023778D01*
X009988Y023953D01*
X009855Y024087D01*
X009680Y024159D01*
X009597Y024159D01*
X011244Y025806D01*
X011244Y025630D01*
X011671Y025630D01*
X011671Y025534D01*
X011244Y025534D01*
X011244Y025302D01*
X011256Y025257D01*
X011280Y025216D01*
X011313Y025182D01*
X011316Y025180D01*
X011284Y025148D01*
X011284Y024520D01*
X011366Y024438D01*
X011529Y024438D01*
X011529Y023971D01*
X012217Y023283D01*
X012208Y023259D01*
X012208Y023108D01*
X012265Y022970D01*
X012371Y022863D01*
X012510Y022806D01*
X012660Y022806D01*
X012799Y022863D01*
X012906Y022970D01*
X012963Y023108D01*
X012963Y023259D01*
X012906Y023398D01*
X012799Y023504D01*
X012660Y023561D01*
X012510Y023561D01*
X012486Y023551D01*
X011909Y024128D01*
X011909Y024438D01*
X012072Y024438D01*
X012154Y024520D01*
X012154Y025148D01*
X012122Y025180D01*
X012125Y025182D01*
X012158Y025216D01*
X012182Y025257D01*
X012194Y025302D01*
X012194Y025534D01*
X011767Y025534D01*
X011767Y025630D01*
X011671Y025630D01*
X011671Y026018D01*
X011456Y026018D01*
X012742Y027304D01*
X012778Y027392D01*
X012778Y031605D01*
X012742Y031694D01*
X012280Y032155D01*
X012256Y032165D01*
X016295Y032165D01*
X016295Y023730D01*
X016206Y023693D01*
X016072Y023559D01*
X016000Y023384D01*
X016000Y023195D01*
X016072Y023021D01*
X016206Y022887D01*
X016381Y022815D01*
X016570Y022815D01*
X016744Y022887D01*
X016878Y023021D01*
X016915Y023110D01*
X026271Y023110D01*
X026308Y023021D01*
X026442Y022887D01*
X026617Y022815D01*
X026806Y022815D01*
X026981Y022887D01*
X027114Y023021D01*
X027187Y023195D01*
X027187Y023384D01*
X027114Y023559D01*
X026981Y023693D01*
X026891Y023730D01*
X026891Y025584D01*
X027807Y026480D01*
X027808Y026480D01*
X027860Y026532D01*
X027913Y026583D01*
X027913Y026585D01*
X027913Y026659D01*
X027914Y026733D01*
X027913Y026733D01*
X027913Y029135D01*
X027808Y029240D01*
X026891Y030157D01*
X026891Y032165D01*
X032101Y032165D01*
X032049Y032143D01*
X031925Y032019D01*
X031858Y031858D01*
X031858Y031083D01*
X031925Y030921D01*
X032049Y030797D01*
X032058Y030793D01*
X032058Y030724D01*
X031897Y030563D01*
X031830Y030496D01*
X031793Y030408D01*
X031793Y029912D01*
X031830Y029824D01*
X031897Y029757D01*
X032093Y029561D01*
X032093Y029038D01*
X032130Y028950D01*
X032197Y028883D01*
X032363Y028716D01*
X032363Y028307D01*
X032445Y028225D01*
X032493Y028225D01*
X032493Y028212D01*
X032530Y028124D01*
X032797Y027857D01*
X032849Y027835D01*
X032807Y027835D01*
X032807Y027408D01*
X032711Y027408D01*
X032711Y027312D01*
X032323Y027312D01*
X032323Y027041D01*
X032336Y026995D01*
X032359Y026954D01*
X032393Y026921D01*
X032434Y026897D01*
X032480Y026885D01*
X032711Y026885D01*
X032711Y027312D01*
X032807Y027312D01*
X032807Y026885D01*
X033039Y026885D01*
X033085Y026897D01*
X033126Y026921D01*
X033159Y026954D01*
X033161Y026957D01*
X033193Y026925D01*
X033130Y026925D01*
X033193Y026925D02*
X033293Y026925D01*
X033293Y026183D01*
X033264Y026113D01*
X033264Y026007D01*
X033305Y025908D01*
X033381Y025832D01*
X033480Y025791D01*
X033587Y025791D01*
X033686Y025832D01*
X033761Y025908D01*
X033802Y026007D01*
X033802Y026113D01*
X033773Y026183D01*
X033773Y026925D01*
X033821Y026925D01*
X033903Y027007D01*
X033903Y027713D01*
X033821Y027795D01*
X033747Y027795D01*
X033747Y027934D01*
X033711Y028022D01*
X033537Y028196D01*
X033508Y028225D01*
X033821Y028225D01*
X033903Y028307D01*
X033903Y029013D01*
X033821Y029095D01*
X033747Y029095D01*
X033747Y029625D01*
X033821Y029625D01*
X033903Y029707D01*
X033903Y029744D01*
X034225Y029744D01*
X034225Y029493D01*
X034307Y029411D01*
X034659Y029411D01*
X034733Y029484D01*
X034807Y029411D01*
X035159Y029411D01*
X035233Y029484D01*
X035307Y029411D01*
X035414Y029411D01*
X035455Y029370D01*
X035755Y029070D01*
X036455Y029070D01*
X036643Y028881D01*
X036643Y026581D01*
X037543Y025681D01*
X037543Y023481D01*
X037655Y023370D01*
X038772Y022253D01*
X038712Y022193D01*
X038645Y022032D01*
X038645Y021257D01*
X038712Y021095D01*
X038836Y020971D01*
X038998Y020904D01*
X039173Y020904D01*
X039335Y020971D01*
X039458Y021095D01*
X039525Y021257D01*
X039525Y022032D01*
X039478Y022147D01*
X039645Y021979D01*
X039645Y021257D01*
X039712Y021095D01*
X039836Y020971D01*
X039998Y020904D01*
X040173Y020904D01*
X040335Y020971D01*
X040458Y021095D01*
X040525Y021257D01*
X040525Y022032D01*
X040458Y022193D01*
X040335Y022317D01*
X040173Y022384D01*
X039998Y022384D01*
X039842Y022320D01*
X039623Y022539D01*
X039512Y022650D01*
X039212Y022650D01*
X038123Y023739D01*
X038123Y025939D01*
X037223Y026839D01*
X037223Y029439D01*
X036923Y029739D01*
X036812Y029850D01*
X036241Y029850D01*
X036241Y030170D01*
X036443Y030170D01*
X036481Y030132D01*
X036580Y030091D01*
X036687Y030091D01*
X036786Y030132D01*
X036861Y030208D01*
X036902Y030307D01*
X036902Y030413D01*
X036861Y030512D01*
X036786Y030588D01*
X036687Y030629D01*
X036580Y030629D01*
X036481Y030588D01*
X036443Y030550D01*
X036166Y030550D01*
X036159Y030557D01*
X035807Y030557D01*
X035733Y030483D01*
X035729Y030487D01*
X035912Y030670D01*
X037155Y030670D01*
X037243Y030581D01*
X037243Y030150D01*
X037205Y030112D01*
X037164Y030013D01*
X037164Y029907D01*
X037205Y029808D01*
X037281Y029732D01*
X037380Y029691D01*
X037487Y029691D01*
X037586Y029732D01*
X037661Y029808D01*
X037702Y029907D01*
X037702Y030013D01*
X037661Y030112D01*
X037623Y030150D01*
X037623Y030739D01*
X037423Y030939D01*
X037423Y031481D01*
X037512Y031570D01*
X038063Y031570D01*
X038063Y031407D01*
X038145Y031325D01*
X038773Y031325D01*
X038833Y031385D01*
X038893Y031325D01*
X039017Y031325D01*
X039017Y031295D01*
X038893Y031295D01*
X038833Y031235D01*
X038773Y031295D01*
X038145Y031295D01*
X038063Y031213D01*
X038063Y031099D01*
X038002Y031160D01*
X038002Y031213D01*
X037961Y031312D01*
X037886Y031388D01*
X037787Y031429D01*
X037680Y031429D01*
X037581Y031388D01*
X037505Y031312D01*
X037464Y031213D01*
X037464Y031107D01*
X037505Y031008D01*
X037581Y030932D01*
X037680Y030891D01*
X037734Y030891D01*
X037843Y030781D01*
X037955Y030670D01*
X038063Y030670D01*
X038063Y030507D01*
X038145Y030425D01*
X038773Y030425D01*
X038833Y030485D01*
X038893Y030425D01*
X038943Y030425D01*
X038943Y030139D01*
X038855Y030050D01*
X038624Y030050D01*
X038586Y030088D01*
X038487Y030129D01*
X038380Y030129D01*
X038281Y030088D01*
X038205Y030012D01*
X038164Y029913D01*
X038164Y029807D01*
X038205Y029708D01*
X038281Y029632D01*
X038380Y029591D01*
X038487Y029591D01*
X038586Y029632D01*
X038624Y029670D01*
X039012Y029670D01*
X039212Y029870D01*
X039323Y029981D01*
X039323Y030425D01*
X039521Y030425D01*
X039603Y030507D01*
X039603Y030670D01*
X041355Y030670D01*
X042043Y029981D01*
X042043Y024312D01*
X041939Y024312D01*
X041857Y024230D01*
X041857Y023799D01*
X041939Y023717D01*
X042528Y023717D01*
X042610Y023799D01*
X042610Y024230D01*
X042528Y024312D01*
X042423Y024312D01*
X042423Y030139D01*
X041623Y030939D01*
X041512Y031050D01*
X039603Y031050D01*
X039603Y031213D01*
X039521Y031295D01*
X039397Y031295D01*
X039397Y031325D01*
X039521Y031325D01*
X039603Y031407D01*
X039603Y032113D01*
X039551Y032165D01*
X040810Y032165D01*
X042673Y030302D01*
X042673Y022145D01*
X042583Y022234D01*
X042366Y022324D01*
X042130Y022324D01*
X041912Y022234D01*
X041745Y022067D01*
X041674Y021896D01*
X041454Y021896D01*
X041393Y021834D01*
X041393Y021519D01*
X041297Y021614D01*
X041148Y021676D01*
X040986Y021676D01*
X040836Y021614D01*
X040721Y021500D01*
X040659Y021350D01*
X040659Y021188D01*
X040721Y021038D01*
X040770Y020990D01*
X040761Y020974D01*
X040749Y020929D01*
X040749Y020826D01*
X040749Y020724D01*
X040761Y020678D01*
X040785Y020637D01*
X040789Y020633D01*
X040789Y020060D01*
X040693Y020100D01*
X039111Y020100D01*
X039001Y020054D01*
X038719Y019772D01*
X038118Y019772D01*
X038036Y019690D01*
X038036Y018630D01*
X038118Y018548D01*
X038943Y018548D01*
X039025Y018630D01*
X039025Y019230D01*
X039295Y019500D01*
X040684Y019500D01*
X040659Y019441D01*
X040659Y019279D01*
X040721Y019129D01*
X040836Y019014D01*
X040986Y018952D01*
X041148Y018952D01*
X041297Y019014D01*
X041393Y019110D01*
X041393Y018794D01*
X041454Y018733D01*
X041674Y018733D01*
X041745Y018561D01*
X041912Y018394D01*
X042130Y018304D01*
X042366Y018304D01*
X042583Y018394D01*
X042673Y018484D01*
X042673Y018325D01*
X042252Y017904D01*
X042252Y018170D01*
X042170Y018252D01*
X041739Y018252D01*
X041657Y018170D01*
X041657Y017660D01*
X041739Y017578D01*
X042122Y017578D01*
X042122Y015378D01*
X041739Y015378D01*
X041657Y015296D01*
X041657Y014786D01*
X041739Y014704D01*
X042122Y014704D01*
X042122Y014152D01*
X040810Y012840D01*
X002376Y012840D01*
X002239Y012977D02*
X024862Y012977D01*
X024868Y012971D02*
X025029Y012904D01*
X025204Y012904D01*
X025366Y012971D01*
X025490Y013095D01*
X025557Y013257D01*
X025557Y014032D01*
X025490Y014193D01*
X025366Y014317D01*
X025204Y014384D01*
X025029Y014384D01*
X024868Y014317D01*
X024744Y014193D01*
X024677Y014032D01*
X024677Y013257D01*
X024744Y013095D01*
X024868Y012971D01*
X024727Y013136D02*
X002081Y013136D01*
X001922Y013294D02*
X024677Y013294D01*
X024677Y013453D02*
X001764Y013453D01*
X001605Y013611D02*
X024677Y013611D01*
X024677Y013770D02*
X016132Y013770D01*
X016069Y013707D02*
X016367Y014004D01*
X016403Y014092D01*
X016403Y014710D01*
X016517Y014710D01*
X016599Y014792D01*
X016599Y014837D01*
X016637Y014837D01*
X016707Y014866D01*
X017810Y014866D01*
X017880Y014837D01*
X017987Y014837D01*
X018057Y014866D01*
X019938Y014866D01*
X019938Y014782D01*
X020020Y014700D01*
X020727Y014700D01*
X020809Y014782D01*
X020809Y014856D01*
X021310Y014856D01*
X021380Y014827D01*
X021487Y014827D01*
X021557Y014856D01*
X022910Y014856D01*
X022980Y014827D01*
X023087Y014827D01*
X023157Y014856D01*
X024938Y014856D01*
X024938Y014782D01*
X025020Y014700D01*
X025510Y014700D01*
X025481Y014688D01*
X025405Y014612D01*
X025364Y014513D01*
X025364Y014407D01*
X025405Y014308D01*
X025481Y014232D01*
X025580Y014191D01*
X025687Y014191D01*
X025780Y014230D01*
X025744Y014193D01*
X025677Y014032D01*
X025677Y013257D01*
X025744Y013095D01*
X025868Y012971D01*
X026029Y012904D01*
X026204Y012904D01*
X026366Y012971D01*
X026490Y013095D01*
X026557Y013257D01*
X026557Y014032D01*
X026490Y014193D01*
X026413Y014270D01*
X026820Y014270D01*
X026744Y014193D01*
X026677Y014032D01*
X026677Y013257D01*
X026744Y013095D01*
X026868Y012971D01*
X027029Y012904D01*
X027204Y012904D01*
X027366Y012971D01*
X027490Y013095D01*
X027557Y013257D01*
X027557Y014032D01*
X027490Y014193D01*
X027413Y014270D01*
X027764Y014270D01*
X027751Y014257D01*
X027706Y014196D01*
X027672Y014129D01*
X027649Y014057D01*
X027637Y013982D01*
X027637Y013664D01*
X028097Y013664D01*
X028097Y013624D01*
X028137Y013624D01*
X028137Y013664D01*
X028597Y013664D01*
X028597Y013982D01*
X028585Y014057D01*
X028562Y014129D01*
X028527Y014196D01*
X028510Y014220D01*
X028580Y014191D01*
X028687Y014191D01*
X028780Y014230D01*
X028744Y014193D01*
X028677Y014032D01*
X028677Y013257D01*
X028744Y013095D01*
X028868Y012971D01*
X029029Y012904D01*
X029204Y012904D01*
X029366Y012971D01*
X029490Y013095D01*
X029557Y013257D01*
X029557Y014032D01*
X029490Y014193D01*
X029366Y014317D01*
X029361Y014319D01*
X029412Y014370D01*
X029995Y014370D01*
X029868Y014317D01*
X029744Y014193D01*
X029677Y014032D01*
X029677Y013257D01*
X029744Y013095D01*
X029868Y012971D01*
X030029Y012904D01*
X030204Y012904D01*
X030366Y012971D01*
X030490Y013095D01*
X030557Y013257D01*
X030557Y014032D01*
X030490Y014193D01*
X030366Y014317D01*
X030239Y014370D01*
X030995Y014370D01*
X030868Y014317D01*
X030744Y014193D01*
X030677Y014032D01*
X030677Y013257D01*
X030744Y013095D01*
X030868Y012971D01*
X031029Y012904D01*
X031204Y012904D01*
X031366Y012971D01*
X031490Y013095D01*
X031557Y013257D01*
X031557Y014032D01*
X031490Y014193D01*
X031366Y014317D01*
X031239Y014370D01*
X031995Y014370D01*
X031868Y014317D01*
X031744Y014193D01*
X031677Y014032D01*
X031677Y013257D01*
X031744Y013095D01*
X031868Y012971D01*
X032029Y012904D01*
X032204Y012904D01*
X032366Y012971D01*
X032490Y013095D01*
X032557Y013257D01*
X032557Y014032D01*
X032490Y014193D01*
X032366Y014317D01*
X032239Y014370D01*
X032995Y014370D01*
X032868Y014317D01*
X032744Y014193D01*
X032677Y014032D01*
X032677Y013257D01*
X032744Y013095D01*
X032868Y012971D01*
X033029Y012904D01*
X033204Y012904D01*
X033366Y012971D01*
X033490Y013095D01*
X033557Y013257D01*
X033557Y014032D01*
X033490Y014193D01*
X033366Y014317D01*
X033239Y014370D01*
X033995Y014370D01*
X033868Y014317D01*
X033744Y014193D01*
X033677Y014032D01*
X033677Y013257D01*
X033744Y013095D01*
X033868Y012971D01*
X034029Y012904D01*
X034204Y012904D01*
X034366Y012971D01*
X034490Y013095D01*
X034557Y013257D01*
X034557Y014032D01*
X034490Y014193D01*
X034366Y014317D01*
X034239Y014370D01*
X034995Y014370D01*
X034868Y014317D01*
X034744Y014193D01*
X034677Y014032D01*
X034677Y013257D01*
X034744Y013095D01*
X034868Y012971D01*
X035029Y012904D01*
X035204Y012904D01*
X035366Y012971D01*
X035490Y013095D01*
X035557Y013257D01*
X035557Y014032D01*
X035490Y014193D01*
X035366Y014317D01*
X035239Y014370D01*
X035995Y014370D01*
X035868Y014317D01*
X035744Y014193D01*
X035677Y014032D01*
X035677Y013257D01*
X035744Y013095D01*
X035868Y012971D01*
X036029Y012904D01*
X036204Y012904D01*
X036366Y012971D01*
X036490Y013095D01*
X036557Y013257D01*
X036557Y014032D01*
X036490Y014193D01*
X036366Y014317D01*
X036239Y014370D01*
X036712Y014370D01*
X036823Y014481D01*
X037123Y014781D01*
X037123Y017281D01*
X037326Y017484D01*
X039685Y017484D01*
X039723Y017446D01*
X039822Y017406D01*
X039929Y017406D01*
X040028Y017446D01*
X040104Y017522D01*
X040143Y017618D01*
X040143Y017381D01*
X040200Y017324D01*
X040200Y017168D01*
X040282Y017086D01*
X040298Y017086D01*
X040271Y017079D01*
X040230Y017055D01*
X040196Y017022D01*
X040173Y016981D01*
X040160Y016935D01*
X040160Y016773D01*
X040160Y016612D01*
X040173Y016566D01*
X040196Y016525D01*
X040230Y016492D01*
X040271Y016468D01*
X040317Y016456D01*
X040636Y016456D01*
X040955Y016456D01*
X041000Y016468D01*
X041041Y016492D01*
X041075Y016525D01*
X041099Y016566D01*
X041111Y016612D01*
X041111Y016773D01*
X040636Y016773D01*
X040636Y016773D01*
X040636Y016456D01*
X040636Y016773D01*
X040636Y016773D01*
X041111Y016773D01*
X041111Y016935D01*
X041099Y016981D01*
X041075Y017022D01*
X041041Y017055D01*
X041000Y017079D01*
X040973Y017086D01*
X040989Y017086D01*
X041071Y017168D01*
X041071Y017560D01*
X041052Y017578D01*
X041304Y017578D01*
X041386Y017660D01*
X041386Y018170D01*
X041304Y018252D01*
X040873Y018252D01*
X040791Y018170D01*
X040791Y017660D01*
X040810Y017642D01*
X040523Y017642D01*
X040523Y018039D01*
X040412Y018150D01*
X040212Y018350D01*
X039274Y018350D01*
X039236Y018388D01*
X039137Y018429D01*
X039030Y018429D01*
X038931Y018388D01*
X038855Y018312D01*
X038814Y018213D01*
X038814Y018107D01*
X038855Y018008D01*
X038931Y017932D01*
X039030Y017891D01*
X039137Y017891D01*
X039236Y017932D01*
X039274Y017970D01*
X040055Y017970D01*
X040143Y017881D01*
X040143Y017731D01*
X040104Y017827D01*
X040028Y017902D01*
X039929Y017943D01*
X039822Y017943D01*
X039723Y017902D01*
X039685Y017864D01*
X037169Y017864D01*
X036855Y017550D01*
X036743Y017439D01*
X036743Y014939D01*
X036555Y014750D01*
X029255Y014750D01*
X029038Y014533D01*
X028927Y014422D01*
X028927Y014342D01*
X028868Y014317D01*
X028864Y014313D01*
X028902Y014407D01*
X028902Y014513D01*
X028861Y014612D01*
X028786Y014688D01*
X028687Y014729D01*
X028580Y014729D01*
X028481Y014688D01*
X028443Y014650D01*
X025824Y014650D01*
X025786Y014688D01*
X025735Y014709D01*
X025809Y014782D01*
X025809Y014846D01*
X026360Y014846D01*
X026430Y014817D01*
X026537Y014817D01*
X026636Y014858D01*
X026711Y014934D01*
X026736Y014993D01*
X026823Y015080D01*
X028700Y015080D01*
X028776Y015003D01*
X028805Y014934D01*
X028881Y014858D01*
X028980Y014817D01*
X029087Y014817D01*
X029157Y014846D01*
X030171Y014846D01*
X030259Y014883D01*
X030317Y014940D01*
X030727Y014940D01*
X030809Y015022D01*
X030809Y015096D01*
X031158Y015096D01*
X031276Y014977D01*
X031305Y014908D01*
X031381Y014832D01*
X031480Y014791D01*
X031587Y014791D01*
X031686Y014832D01*
X031761Y014908D01*
X031802Y015007D01*
X031802Y015113D01*
X031761Y015212D01*
X031686Y015288D01*
X031616Y015317D01*
X031393Y015539D01*
X031305Y015576D01*
X030809Y015576D01*
X030809Y015650D01*
X030776Y015682D01*
X030779Y015684D01*
X030813Y015718D01*
X030836Y015759D01*
X030849Y015804D01*
X030849Y016036D01*
X030421Y016036D01*
X030421Y016132D01*
X030325Y016132D01*
X030325Y016036D01*
X029898Y016036D01*
X029898Y015804D01*
X029910Y015759D01*
X029934Y015718D01*
X029968Y015684D01*
X029971Y015682D01*
X029938Y015650D01*
X029938Y015326D01*
X029157Y015326D01*
X029116Y015343D01*
X029059Y015400D01*
X029080Y015391D01*
X029187Y015391D01*
X029286Y015432D01*
X029361Y015508D01*
X029402Y015607D01*
X029402Y015713D01*
X029361Y015812D01*
X029323Y015850D01*
X029323Y016870D01*
X029361Y016908D01*
X029402Y017007D01*
X029402Y017113D01*
X029361Y017212D01*
X029286Y017288D01*
X029187Y017329D01*
X029080Y017329D01*
X028981Y017288D01*
X028905Y017212D01*
X028864Y017113D01*
X028864Y017007D01*
X028905Y016908D01*
X028943Y016870D01*
X028943Y015850D01*
X028905Y015812D01*
X028864Y015713D01*
X028864Y015607D01*
X028891Y015542D01*
X028847Y015560D01*
X028083Y015560D01*
X028102Y015607D01*
X028102Y015713D01*
X028073Y015783D01*
X028073Y017908D01*
X028037Y017996D01*
X027969Y018063D01*
X027569Y018463D01*
X027481Y018500D01*
X025833Y018500D01*
X025573Y018759D01*
X025573Y020265D01*
X025832Y020523D01*
X025869Y020612D01*
X025869Y021960D01*
X025832Y022048D01*
X025765Y022115D01*
X025573Y022307D01*
X025573Y022429D01*
X025602Y022499D01*
X025602Y022606D01*
X025561Y022705D01*
X025486Y022780D01*
X025387Y022821D01*
X025280Y022821D01*
X025181Y022780D01*
X025105Y022705D01*
X025064Y022606D01*
X025064Y022499D01*
X025093Y022429D01*
X025093Y022160D01*
X025130Y022071D01*
X025168Y022033D01*
X025054Y022033D01*
X024937Y021985D01*
X024847Y021895D01*
X024799Y021778D01*
X024799Y021736D01*
X024660Y021794D01*
X024510Y021794D01*
X024371Y021736D01*
X024265Y021630D01*
X024208Y021491D01*
X024208Y021341D01*
X024265Y021202D01*
X024345Y021122D01*
X024345Y021107D01*
X024382Y021019D01*
X024596Y020806D01*
X024518Y020806D01*
X024379Y020748D01*
X024273Y020642D01*
X024263Y020618D01*
X022983Y020618D01*
X021404Y019039D01*
X018239Y019039D01*
X015123Y022154D01*
X015123Y023381D01*
X015770Y024027D01*
X015881Y024139D01*
X015881Y024784D01*
X016044Y024784D01*
X016126Y024866D01*
X016126Y025494D01*
X016094Y025526D01*
X016097Y025528D01*
X016130Y025561D01*
X016154Y025602D01*
X016166Y025648D01*
X016166Y025880D01*
X015739Y025880D01*
X015739Y025976D01*
X015643Y025976D01*
X015643Y026364D01*
X015372Y026364D01*
X015326Y026351D01*
X015285Y026328D01*
X015252Y026294D01*
X015228Y026253D01*
X015216Y026207D01*
X015216Y025976D01*
X015643Y025976D01*
X015643Y025880D01*
X015216Y025880D01*
X015216Y025648D01*
X015228Y025602D01*
X015252Y025561D01*
X015285Y025528D01*
X015288Y025526D01*
X015256Y025494D01*
X015256Y024866D01*
X015338Y024784D01*
X015501Y024784D01*
X015501Y024296D01*
X014743Y023539D01*
X014743Y021997D01*
X014855Y021886D01*
X018082Y018659D01*
X021561Y018659D01*
X021673Y018770D01*
X023140Y020238D01*
X024263Y020238D01*
X024273Y020214D01*
X024379Y020107D01*
X024518Y020050D01*
X024668Y020050D01*
X024807Y020107D01*
X024913Y020214D01*
X024971Y020353D01*
X024971Y020430D01*
X025093Y020308D01*
X025093Y018612D01*
X025130Y018524D01*
X025197Y018457D01*
X025197Y018457D01*
X025530Y018124D01*
X025597Y018057D01*
X025686Y018020D01*
X027334Y018020D01*
X027593Y017761D01*
X027593Y015783D01*
X027564Y015713D01*
X027564Y015607D01*
X027584Y015560D01*
X026783Y015560D01*
X026802Y015607D01*
X026802Y015713D01*
X026761Y015812D01*
X026723Y015850D01*
X026723Y016870D01*
X026761Y016908D01*
X026802Y017007D01*
X026802Y017113D01*
X026761Y017212D01*
X026686Y017288D01*
X026587Y017329D01*
X026480Y017329D01*
X026381Y017288D01*
X026305Y017212D01*
X026264Y017113D01*
X026264Y017007D01*
X026305Y016908D01*
X026343Y016870D01*
X026343Y015850D01*
X026305Y015812D01*
X026264Y015713D01*
X026264Y015607D01*
X026305Y015508D01*
X026381Y015432D01*
X026462Y015398D01*
X026411Y015347D01*
X026360Y015326D01*
X025809Y015326D01*
X025809Y015410D01*
X025776Y015442D01*
X025779Y015444D01*
X025813Y015478D01*
X025836Y015519D01*
X025849Y015564D01*
X025849Y015796D01*
X025421Y015796D01*
X025421Y015892D01*
X025325Y015892D01*
X025325Y015796D01*
X024898Y015796D01*
X024898Y015774D01*
X024861Y015862D01*
X024786Y015938D01*
X024687Y015979D01*
X024633Y015979D01*
X024223Y016389D01*
X024223Y016770D01*
X024261Y016808D01*
X024302Y016907D01*
X024302Y017013D01*
X024261Y017112D01*
X024186Y017188D01*
X024087Y017229D01*
X023980Y017229D01*
X023881Y017188D01*
X023805Y017112D01*
X023764Y017013D01*
X023764Y016907D01*
X023805Y016808D01*
X023843Y016770D01*
X023843Y016231D01*
X024364Y015710D01*
X024364Y015657D01*
X024405Y015558D01*
X024481Y015482D01*
X024580Y015441D01*
X024687Y015441D01*
X024786Y015482D01*
X024861Y015558D01*
X024898Y015646D01*
X024898Y015564D01*
X024910Y015519D01*
X024934Y015478D01*
X024968Y015444D01*
X024971Y015442D01*
X024938Y015410D01*
X024938Y015336D01*
X023157Y015336D01*
X023087Y015365D01*
X022980Y015365D01*
X022910Y015336D01*
X021557Y015336D01*
X021487Y015365D01*
X021380Y015365D01*
X021310Y015336D01*
X020809Y015336D01*
X020809Y015410D01*
X020776Y015442D01*
X020779Y015444D01*
X020813Y015478D01*
X020836Y015519D01*
X020849Y015564D01*
X020849Y015796D01*
X020421Y015796D01*
X020421Y015892D01*
X020325Y015892D01*
X020325Y015796D01*
X019898Y015796D01*
X019898Y015564D01*
X019910Y015519D01*
X019934Y015478D01*
X019968Y015444D01*
X019971Y015442D01*
X019938Y015410D01*
X019938Y015346D01*
X018057Y015346D01*
X017987Y015375D01*
X017880Y015375D01*
X017810Y015346D01*
X016707Y015346D01*
X016637Y015375D01*
X016599Y015375D01*
X016599Y015420D01*
X016566Y015452D01*
X016569Y015454D01*
X016603Y015488D01*
X016626Y015529D01*
X016639Y015574D01*
X016639Y015806D01*
X016211Y015806D01*
X016211Y015902D01*
X016115Y015902D01*
X016115Y015806D01*
X015688Y015806D01*
X015688Y015574D01*
X015700Y015529D01*
X015724Y015488D01*
X015758Y015454D01*
X015761Y015452D01*
X015728Y015420D01*
X015728Y014792D01*
X015810Y014710D01*
X015923Y014710D01*
X015923Y014239D01*
X015834Y014150D01*
X013723Y014150D01*
X013723Y014220D01*
X013731Y014228D01*
X013772Y014327D01*
X013772Y014433D01*
X013731Y014532D01*
X013656Y014608D01*
X013557Y014649D01*
X013450Y014649D01*
X013351Y014608D01*
X013275Y014532D01*
X013234Y014433D01*
X013234Y014327D01*
X013275Y014228D01*
X013283Y014220D01*
X013283Y014150D01*
X011433Y014150D01*
X011173Y014409D01*
X011173Y015461D01*
X011405Y015692D01*
X011580Y015692D01*
X011638Y015635D01*
X012029Y015635D01*
X012111Y015717D01*
X012111Y016148D01*
X012029Y016230D01*
X011638Y016230D01*
X011580Y016172D01*
X011258Y016172D01*
X011170Y016136D01*
X010797Y015763D01*
X010730Y015696D01*
X010693Y015608D01*
X010693Y014262D01*
X010730Y014174D01*
X011130Y013774D01*
X011197Y013707D01*
X011286Y013670D01*
X015981Y013670D01*
X016069Y013707D01*
X016291Y013928D02*
X024677Y013928D01*
X024699Y014087D02*
X016401Y014087D01*
X016403Y014245D02*
X024795Y014245D01*
X025366Y014404D02*
X016403Y014404D01*
X016403Y014562D02*
X025385Y014562D01*
X025438Y014245D02*
X025468Y014245D01*
X025534Y014087D02*
X025699Y014087D01*
X025677Y013928D02*
X025557Y013928D01*
X025557Y013770D02*
X025677Y013770D01*
X025677Y013611D02*
X025557Y013611D01*
X025557Y013453D02*
X025677Y013453D01*
X025677Y013294D02*
X025557Y013294D01*
X025507Y013136D02*
X025727Y013136D01*
X025862Y012977D02*
X025372Y012977D01*
X026372Y012977D02*
X026862Y012977D01*
X026727Y013136D02*
X026507Y013136D01*
X026557Y013294D02*
X026677Y013294D01*
X026677Y013453D02*
X026557Y013453D01*
X026557Y013611D02*
X026677Y013611D01*
X026677Y013770D02*
X026557Y013770D01*
X026557Y013928D02*
X026677Y013928D01*
X026699Y014087D02*
X026534Y014087D01*
X026438Y014245D02*
X026795Y014245D01*
X027438Y014245D02*
X027742Y014245D01*
X027658Y014087D02*
X027534Y014087D01*
X027557Y013928D02*
X027637Y013928D01*
X027637Y013770D02*
X027557Y013770D01*
X027557Y013611D02*
X027637Y013611D01*
X027637Y013624D02*
X027637Y013306D01*
X027649Y013232D01*
X027672Y013160D01*
X027706Y013093D01*
X027751Y013032D01*
X027804Y012978D01*
X027865Y012934D01*
X027933Y012899D01*
X028004Y012876D01*
X028079Y012864D01*
X028097Y012864D01*
X028097Y013624D01*
X027637Y013624D01*
X027637Y013453D02*
X027557Y013453D01*
X027557Y013294D02*
X027639Y013294D01*
X027684Y013136D02*
X027507Y013136D01*
X027372Y012977D02*
X027806Y012977D01*
X028097Y012977D02*
X028137Y012977D01*
X028137Y012864D02*
X028155Y012864D01*
X028229Y012876D01*
X028301Y012899D01*
X028368Y012934D01*
X028429Y012978D01*
X028483Y013032D01*
X028527Y013093D01*
X028562Y013160D01*
X028585Y013232D01*
X028597Y013306D01*
X028597Y013624D01*
X028137Y013624D01*
X028137Y012864D01*
X028137Y013136D02*
X028097Y013136D01*
X028097Y013294D02*
X028137Y013294D01*
X028137Y013453D02*
X028097Y013453D01*
X028097Y013611D02*
X028137Y013611D01*
X028597Y013611D02*
X028677Y013611D01*
X028677Y013453D02*
X028597Y013453D01*
X028595Y013294D02*
X028677Y013294D01*
X028727Y013136D02*
X028549Y013136D01*
X028428Y012977D02*
X028862Y012977D01*
X029372Y012977D02*
X029862Y012977D01*
X029727Y013136D02*
X029507Y013136D01*
X029557Y013294D02*
X029677Y013294D01*
X029677Y013453D02*
X029557Y013453D01*
X029557Y013611D02*
X029677Y013611D01*
X029677Y013770D02*
X029557Y013770D01*
X029557Y013928D02*
X029677Y013928D01*
X029699Y014087D02*
X029534Y014087D01*
X029438Y014245D02*
X029795Y014245D01*
X030438Y014245D02*
X030795Y014245D01*
X030699Y014087D02*
X030534Y014087D01*
X030557Y013928D02*
X030677Y013928D01*
X030677Y013770D02*
X030557Y013770D01*
X030557Y013611D02*
X030677Y013611D01*
X030677Y013453D02*
X030557Y013453D01*
X030557Y013294D02*
X030677Y013294D01*
X030727Y013136D02*
X030507Y013136D01*
X030372Y012977D02*
X030862Y012977D01*
X031372Y012977D02*
X031862Y012977D01*
X031727Y013136D02*
X031507Y013136D01*
X031557Y013294D02*
X031677Y013294D01*
X031677Y013453D02*
X031557Y013453D01*
X031557Y013611D02*
X031677Y013611D01*
X031677Y013770D02*
X031557Y013770D01*
X031557Y013928D02*
X031677Y013928D01*
X031699Y014087D02*
X031534Y014087D01*
X031438Y014245D02*
X031795Y014245D01*
X032438Y014245D02*
X032795Y014245D01*
X032699Y014087D02*
X032534Y014087D01*
X032557Y013928D02*
X032677Y013928D01*
X032677Y013770D02*
X032557Y013770D01*
X032557Y013611D02*
X032677Y013611D01*
X032677Y013453D02*
X032557Y013453D01*
X032557Y013294D02*
X032677Y013294D01*
X032727Y013136D02*
X032507Y013136D01*
X032372Y012977D02*
X032862Y012977D01*
X033372Y012977D02*
X033862Y012977D01*
X033727Y013136D02*
X033507Y013136D01*
X033557Y013294D02*
X033677Y013294D01*
X033677Y013453D02*
X033557Y013453D01*
X033557Y013611D02*
X033677Y013611D01*
X033677Y013770D02*
X033557Y013770D01*
X033557Y013928D02*
X033677Y013928D01*
X033699Y014087D02*
X033534Y014087D01*
X033438Y014245D02*
X033795Y014245D01*
X034438Y014245D02*
X034795Y014245D01*
X034699Y014087D02*
X034534Y014087D01*
X034557Y013928D02*
X034677Y013928D01*
X034677Y013770D02*
X034557Y013770D01*
X034557Y013611D02*
X034677Y013611D01*
X034677Y013453D02*
X034557Y013453D01*
X034557Y013294D02*
X034677Y013294D01*
X034727Y013136D02*
X034507Y013136D01*
X034372Y012977D02*
X034862Y012977D01*
X035372Y012977D02*
X035862Y012977D01*
X035727Y013136D02*
X035507Y013136D01*
X035557Y013294D02*
X035677Y013294D01*
X035677Y013453D02*
X035557Y013453D01*
X035557Y013611D02*
X035677Y013611D01*
X035677Y013770D02*
X035557Y013770D01*
X035557Y013928D02*
X035677Y013928D01*
X035699Y014087D02*
X035534Y014087D01*
X035438Y014245D02*
X035795Y014245D01*
X036438Y014245D02*
X036795Y014245D01*
X036744Y014193D02*
X036677Y014032D01*
X036677Y013257D01*
X036744Y013095D01*
X036868Y012971D01*
X037029Y012904D01*
X037204Y012904D01*
X037366Y012971D01*
X037490Y013095D01*
X037557Y013257D01*
X037557Y014032D01*
X037490Y014193D01*
X037366Y014317D01*
X037204Y014384D01*
X037029Y014384D01*
X036868Y014317D01*
X036744Y014193D01*
X036699Y014087D02*
X036534Y014087D01*
X036557Y013928D02*
X036677Y013928D01*
X036677Y013770D02*
X036557Y013770D01*
X036557Y013611D02*
X036677Y013611D01*
X036677Y013453D02*
X036557Y013453D01*
X036557Y013294D02*
X036677Y013294D01*
X036727Y013136D02*
X036507Y013136D01*
X036372Y012977D02*
X036862Y012977D01*
X037372Y012977D02*
X037862Y012977D01*
X037868Y012971D02*
X038029Y012904D01*
X038204Y012904D01*
X038366Y012971D01*
X038490Y013095D01*
X038557Y013257D01*
X038557Y014032D01*
X038490Y014193D01*
X038366Y014317D01*
X038204Y014384D01*
X038029Y014384D01*
X037868Y014317D01*
X037744Y014193D01*
X037677Y014032D01*
X037677Y013257D01*
X037744Y013095D01*
X037868Y012971D01*
X037727Y013136D02*
X037507Y013136D01*
X037557Y013294D02*
X037677Y013294D01*
X037677Y013453D02*
X037557Y013453D01*
X037557Y013611D02*
X037677Y013611D01*
X037677Y013770D02*
X037557Y013770D01*
X037557Y013928D02*
X037677Y013928D01*
X037699Y014087D02*
X037534Y014087D01*
X037438Y014245D02*
X037795Y014245D01*
X036904Y014562D02*
X042122Y014562D01*
X042122Y014404D02*
X040257Y014404D01*
X040229Y014412D02*
X040155Y014424D01*
X040137Y014424D01*
X040137Y013664D01*
X040597Y013664D01*
X040597Y013982D01*
X040585Y014057D01*
X040562Y014129D01*
X040527Y014196D01*
X040483Y014257D01*
X040429Y014310D01*
X040368Y014355D01*
X040301Y014389D01*
X040229Y014412D01*
X040137Y014404D02*
X040097Y014404D01*
X040097Y014424D02*
X040079Y014424D01*
X040004Y014412D01*
X039933Y014389D01*
X039865Y014355D01*
X039804Y014310D01*
X039751Y014257D01*
X039706Y014196D01*
X039672Y014129D01*
X039649Y014057D01*
X039637Y013982D01*
X039637Y013664D01*
X040097Y013664D01*
X040097Y013624D01*
X040137Y013624D01*
X040137Y013664D01*
X040097Y013664D01*
X040097Y014424D01*
X039977Y014404D02*
X036746Y014404D01*
X037063Y014721D02*
X040857Y014721D01*
X040873Y014704D02*
X041304Y014704D01*
X041386Y014786D01*
X041386Y015296D01*
X041304Y015378D01*
X041052Y015378D01*
X041071Y015396D01*
X041071Y015788D01*
X040989Y015870D01*
X040282Y015870D01*
X040200Y015788D01*
X040200Y015396D01*
X040282Y015314D01*
X040810Y015314D01*
X040791Y015296D01*
X040791Y014786D01*
X040873Y014704D01*
X040791Y014879D02*
X037123Y014879D01*
X037123Y015038D02*
X040791Y015038D01*
X040791Y015196D02*
X037123Y015196D01*
X037123Y015355D02*
X040242Y015355D01*
X040200Y015513D02*
X037123Y015513D01*
X037123Y015672D02*
X040200Y015672D01*
X040242Y015830D02*
X037123Y015830D01*
X037123Y015989D02*
X041177Y015989D01*
X041164Y015959D02*
X041164Y015817D01*
X041219Y015685D01*
X041319Y015585D01*
X041450Y015530D01*
X041593Y015530D01*
X041724Y015585D01*
X041824Y015685D01*
X041879Y015817D01*
X041879Y015959D01*
X041824Y016090D01*
X041724Y016190D01*
X041593Y016245D01*
X041450Y016245D01*
X041319Y016190D01*
X041219Y016090D01*
X041164Y015959D01*
X041164Y015830D02*
X041029Y015830D01*
X041071Y015672D02*
X041232Y015672D01*
X041071Y015513D02*
X042122Y015513D01*
X042122Y015672D02*
X041811Y015672D01*
X041879Y015830D02*
X042122Y015830D01*
X042122Y015989D02*
X041866Y015989D01*
X041767Y016147D02*
X042122Y016147D01*
X042122Y016306D02*
X037123Y016306D01*
X037123Y016464D02*
X040285Y016464D01*
X040160Y016623D02*
X037123Y016623D01*
X037123Y016781D02*
X040160Y016781D01*
X040160Y016773D02*
X040636Y016773D01*
X040160Y016773D01*
X040162Y016940D02*
X037123Y016940D01*
X037123Y017098D02*
X040271Y017098D01*
X040200Y017257D02*
X037123Y017257D01*
X037257Y017415D02*
X039799Y017415D01*
X039952Y017415D02*
X040143Y017415D01*
X040143Y017574D02*
X040125Y017574D01*
X040143Y017732D02*
X040143Y017732D01*
X040134Y017891D02*
X040040Y017891D01*
X039711Y017891D02*
X028073Y017891D01*
X028073Y017732D02*
X037037Y017732D01*
X036878Y017574D02*
X028073Y017574D01*
X028073Y017415D02*
X036743Y017415D01*
X036743Y017257D02*
X030617Y017257D01*
X030624Y017250D02*
X030586Y017288D01*
X030487Y017329D01*
X030380Y017329D01*
X030281Y017288D01*
X030205Y017212D01*
X030164Y017113D01*
X030164Y017007D01*
X030205Y016908D01*
X030281Y016832D01*
X030380Y016791D01*
X030487Y016791D01*
X030586Y016832D01*
X030622Y016868D01*
X031620Y016859D01*
X031631Y016870D01*
X032655Y016870D01*
X032729Y016795D01*
X032729Y016585D01*
X032605Y016585D01*
X032523Y016503D01*
X032523Y015797D01*
X032605Y015715D01*
X033233Y015715D01*
X033293Y015775D01*
X033353Y015715D01*
X033981Y015715D01*
X034063Y015797D01*
X034063Y015970D01*
X034243Y015970D01*
X034281Y015932D01*
X034380Y015891D01*
X034487Y015891D01*
X034586Y015932D01*
X034661Y016008D01*
X034702Y016107D01*
X034702Y016213D01*
X034661Y016312D01*
X034586Y016388D01*
X034487Y016429D01*
X034380Y016429D01*
X034281Y016388D01*
X034243Y016350D01*
X034063Y016350D01*
X034063Y016503D01*
X033981Y016585D01*
X033353Y016585D01*
X033293Y016525D01*
X033233Y016585D01*
X033109Y016585D01*
X033109Y016953D01*
X032923Y017139D01*
X032812Y017250D01*
X030624Y017250D01*
X030250Y017257D02*
X029317Y017257D01*
X029402Y017098D02*
X030164Y017098D01*
X030192Y016940D02*
X029374Y016940D01*
X029323Y016781D02*
X032729Y016781D01*
X032729Y016623D02*
X029323Y016623D01*
X029323Y016464D02*
X029948Y016464D01*
X029934Y016450D02*
X029910Y016409D01*
X029898Y016364D01*
X029898Y016132D01*
X030325Y016132D01*
X030325Y016520D01*
X030054Y016520D01*
X030009Y016508D01*
X029968Y016484D01*
X029934Y016450D01*
X029898Y016306D02*
X029323Y016306D01*
X029323Y016147D02*
X029898Y016147D01*
X029898Y015989D02*
X029323Y015989D01*
X029344Y015830D02*
X029898Y015830D01*
X029960Y015672D02*
X029402Y015672D01*
X029363Y015513D02*
X029938Y015513D01*
X029938Y015355D02*
X029104Y015355D01*
X028864Y015672D02*
X028102Y015672D01*
X028073Y015830D02*
X028923Y015830D01*
X028943Y015989D02*
X028073Y015989D01*
X028073Y016147D02*
X028943Y016147D01*
X028943Y016306D02*
X028073Y016306D01*
X028073Y016464D02*
X028943Y016464D01*
X028943Y016623D02*
X028073Y016623D01*
X028073Y016781D02*
X028943Y016781D01*
X028892Y016940D02*
X028073Y016940D01*
X028073Y017098D02*
X028864Y017098D01*
X028950Y017257D02*
X028073Y017257D01*
X027593Y017257D02*
X026717Y017257D01*
X026802Y017098D02*
X027593Y017098D01*
X027593Y016940D02*
X026774Y016940D01*
X026723Y016781D02*
X027593Y016781D01*
X027593Y016623D02*
X026723Y016623D01*
X026723Y016464D02*
X027593Y016464D01*
X027593Y016306D02*
X026723Y016306D01*
X026723Y016147D02*
X027593Y016147D01*
X027593Y015989D02*
X026723Y015989D01*
X026744Y015830D02*
X027593Y015830D01*
X027564Y015672D02*
X026802Y015672D01*
X026418Y015355D02*
X025809Y015355D01*
X025833Y015513D02*
X026303Y015513D01*
X026264Y015672D02*
X025849Y015672D01*
X025849Y015892D02*
X025849Y016124D01*
X025836Y016169D01*
X025813Y016210D01*
X025779Y016244D01*
X025738Y016268D01*
X025692Y016280D01*
X025421Y016280D01*
X025421Y015892D01*
X025849Y015892D01*
X025849Y015989D02*
X026343Y015989D01*
X026343Y016147D02*
X025842Y016147D01*
X025421Y016147D02*
X025325Y016147D01*
X025325Y016280D02*
X025054Y016280D01*
X025009Y016268D01*
X024968Y016244D01*
X024934Y016210D01*
X024910Y016169D01*
X024898Y016124D01*
X024898Y015892D01*
X025325Y015892D01*
X025325Y016280D01*
X025325Y015989D02*
X025421Y015989D01*
X025421Y015830D02*
X026323Y015830D01*
X026343Y016306D02*
X024307Y016306D01*
X024223Y016464D02*
X026343Y016464D01*
X026343Y016623D02*
X024223Y016623D01*
X024235Y016781D02*
X026343Y016781D01*
X026292Y016940D02*
X024302Y016940D01*
X024267Y017098D02*
X026264Y017098D01*
X026350Y017257D02*
X019323Y017257D01*
X019323Y017415D02*
X027593Y017415D01*
X027593Y017574D02*
X019323Y017574D01*
X019323Y017681D02*
X019512Y017870D01*
X022112Y017870D01*
X023405Y019163D01*
X024159Y019163D01*
X024197Y019125D01*
X024296Y019084D01*
X024403Y019084D01*
X024501Y019125D01*
X024577Y019201D01*
X024618Y019299D01*
X024618Y019406D01*
X024577Y019505D01*
X024501Y019581D01*
X024403Y019622D01*
X024296Y019622D01*
X024197Y019581D01*
X024159Y019543D01*
X023248Y019543D01*
X021955Y018250D01*
X019355Y018250D01*
X019055Y017950D01*
X019055Y017950D01*
X018943Y017839D01*
X018943Y015850D01*
X018905Y015812D01*
X018864Y015713D01*
X018864Y015607D01*
X018905Y015508D01*
X018981Y015432D01*
X019080Y015391D01*
X019187Y015391D01*
X019286Y015432D01*
X019361Y015508D01*
X019402Y015607D01*
X019402Y015713D01*
X019361Y015812D01*
X019323Y015850D01*
X019323Y017681D01*
X019374Y017732D02*
X027593Y017732D01*
X027463Y017891D02*
X022133Y017891D01*
X022291Y018049D02*
X025616Y018049D01*
X025446Y018208D02*
X022450Y018208D01*
X022608Y018366D02*
X025288Y018366D01*
X025130Y018525D02*
X022767Y018525D01*
X022925Y018683D02*
X025093Y018683D01*
X025093Y018842D02*
X023084Y018842D01*
X023242Y019000D02*
X025093Y019000D01*
X025093Y019159D02*
X024535Y019159D01*
X024618Y019317D02*
X025093Y019317D01*
X025093Y019476D02*
X024589Y019476D01*
X025093Y019634D02*
X022537Y019634D01*
X022695Y019793D02*
X025093Y019793D01*
X025093Y019951D02*
X022854Y019951D01*
X023012Y020110D02*
X024377Y020110D01*
X024809Y020110D02*
X025093Y020110D01*
X025093Y020268D02*
X024936Y020268D01*
X024971Y020427D02*
X024975Y020427D01*
X025577Y020268D02*
X026326Y020268D01*
X026336Y020293D02*
X026295Y020194D01*
X026295Y020087D01*
X026336Y019988D01*
X026412Y019912D01*
X026510Y019871D01*
X026617Y019871D01*
X026687Y019900D01*
X028728Y019900D01*
X028816Y019937D01*
X029289Y020410D01*
X029325Y020498D01*
X029325Y020967D01*
X029335Y020971D01*
X029458Y021095D01*
X029525Y021257D01*
X029525Y022032D01*
X029458Y022193D01*
X029335Y022317D01*
X029173Y022384D01*
X028998Y022384D01*
X028836Y022317D01*
X028712Y022193D01*
X028645Y022032D01*
X028645Y021257D01*
X028712Y021095D01*
X028836Y020971D01*
X028845Y020967D01*
X028845Y020645D01*
X028580Y020380D01*
X026687Y020380D01*
X026617Y020409D01*
X026510Y020409D01*
X026412Y020368D01*
X026336Y020293D01*
X026295Y020110D02*
X025573Y020110D01*
X025573Y019951D02*
X026373Y019951D01*
X026559Y019581D02*
X026483Y019505D01*
X026442Y019406D01*
X026442Y019299D01*
X026483Y019201D01*
X026559Y019125D01*
X026658Y019084D01*
X026765Y019084D01*
X026864Y019125D01*
X026882Y019143D01*
X030106Y019143D01*
X029900Y018938D01*
X029847Y018938D01*
X029748Y018897D01*
X029672Y018821D01*
X029631Y018722D01*
X029631Y018615D01*
X029672Y018516D01*
X029748Y018441D01*
X029847Y018400D01*
X029954Y018400D01*
X030053Y018441D01*
X030128Y018516D01*
X030169Y018615D01*
X030169Y018669D01*
X030389Y018889D01*
X031058Y018889D01*
X030716Y018547D01*
X030651Y018547D01*
X030553Y018506D01*
X030477Y018430D01*
X030436Y018332D01*
X030436Y018225D01*
X030477Y018126D01*
X030553Y018050D01*
X030651Y018009D01*
X030758Y018009D01*
X030857Y018050D01*
X030874Y018067D01*
X030896Y018016D01*
X030971Y017940D01*
X031070Y017899D01*
X031177Y017899D01*
X031276Y017940D01*
X031351Y018016D01*
X031392Y018115D01*
X031392Y018168D01*
X031562Y018338D01*
X034444Y018338D01*
X035164Y019058D01*
X035275Y019169D01*
X035275Y020947D01*
X035335Y020971D01*
X035458Y021095D01*
X035525Y021257D01*
X035525Y022032D01*
X035458Y022193D01*
X035335Y022317D01*
X035173Y022384D01*
X034998Y022384D01*
X034836Y022317D01*
X034712Y022193D01*
X034645Y022032D01*
X034645Y021257D01*
X034712Y021095D01*
X034836Y020971D01*
X034895Y020947D01*
X034895Y019327D01*
X034287Y018718D01*
X033753Y018718D01*
X033768Y018733D01*
X034275Y019241D01*
X034275Y020947D01*
X034335Y020971D01*
X034458Y021095D01*
X034525Y021257D01*
X034525Y022032D01*
X034458Y022193D01*
X034335Y022317D01*
X034173Y022384D01*
X033998Y022384D01*
X033836Y022317D01*
X033712Y022193D01*
X033645Y022032D01*
X033645Y021257D01*
X033712Y021095D01*
X033836Y020971D01*
X033895Y020947D01*
X033895Y019398D01*
X033499Y019002D01*
X033042Y019002D01*
X033275Y019235D01*
X033275Y020947D01*
X033335Y020971D01*
X033458Y021095D01*
X033525Y021257D01*
X033525Y022032D01*
X033458Y022193D01*
X033335Y022317D01*
X033173Y022384D01*
X032998Y022384D01*
X032836Y022317D01*
X032712Y022193D01*
X032645Y022032D01*
X032645Y021257D01*
X032712Y021095D01*
X032836Y020971D01*
X032895Y020947D01*
X032895Y019393D01*
X032771Y019269D01*
X032020Y019269D01*
X032275Y019524D01*
X032275Y020947D01*
X032335Y020971D01*
X032458Y021095D01*
X032525Y021257D01*
X032525Y022032D01*
X032458Y022193D01*
X032335Y022317D01*
X032173Y022384D01*
X031998Y022384D01*
X031836Y022317D01*
X031712Y022193D01*
X031645Y022032D01*
X031645Y021257D01*
X031712Y021095D01*
X031836Y020971D01*
X031895Y020947D01*
X031895Y019681D01*
X031737Y019523D01*
X026922Y019523D01*
X026864Y019581D01*
X026765Y019622D01*
X026658Y019622D01*
X026559Y019581D01*
X026471Y019476D02*
X025573Y019476D01*
X025573Y019634D02*
X031848Y019634D01*
X031895Y019793D02*
X030790Y019793D01*
X030703Y019706D02*
X031203Y020206D01*
X031288Y020290D01*
X031333Y020400D01*
X031333Y020971D01*
X031335Y020971D01*
X031458Y021095D01*
X031525Y021257D01*
X031525Y022032D01*
X031458Y022193D01*
X031335Y022317D01*
X031173Y022384D01*
X030998Y022384D01*
X030836Y022317D01*
X030712Y022193D01*
X030645Y022032D01*
X030645Y021257D01*
X030712Y021095D01*
X030733Y021074D01*
X030733Y020584D01*
X030279Y020130D01*
X030233Y020020D01*
X030233Y019900D01*
X030279Y019790D01*
X030363Y019706D01*
X030474Y019660D01*
X030593Y019660D01*
X030703Y019706D01*
X030949Y019951D02*
X031895Y019951D01*
X031895Y020110D02*
X031107Y020110D01*
X031266Y020268D02*
X031895Y020268D01*
X031895Y020427D02*
X031333Y020427D01*
X031333Y020585D02*
X031895Y020585D01*
X031895Y020744D02*
X031333Y020744D01*
X031333Y020902D02*
X031895Y020902D01*
X031747Y021061D02*
X031424Y021061D01*
X031510Y021219D02*
X031661Y021219D01*
X031645Y021378D02*
X031525Y021378D01*
X031525Y021536D02*
X031645Y021536D01*
X031645Y021695D02*
X031525Y021695D01*
X031525Y021853D02*
X031645Y021853D01*
X031645Y022012D02*
X031525Y022012D01*
X031468Y022170D02*
X031703Y022170D01*
X031863Y022329D02*
X031307Y022329D01*
X030863Y022329D02*
X030307Y022329D01*
X030335Y022317D02*
X030173Y022384D01*
X029998Y022384D01*
X029836Y022317D01*
X029712Y022193D01*
X029645Y022032D01*
X029645Y021257D01*
X029712Y021095D01*
X029836Y020971D01*
X029895Y020947D01*
X029895Y020791D01*
X029534Y020429D01*
X029480Y020429D01*
X029381Y020388D01*
X029305Y020312D01*
X029264Y020213D01*
X029264Y020107D01*
X029305Y020008D01*
X029381Y019932D01*
X029480Y019891D01*
X029587Y019891D01*
X029686Y019932D01*
X029761Y020008D01*
X029802Y020107D01*
X029802Y020160D01*
X030275Y020633D01*
X030275Y020947D01*
X030335Y020971D01*
X030458Y021095D01*
X030525Y021257D01*
X030525Y022032D01*
X030458Y022193D01*
X030335Y022317D01*
X030468Y022170D02*
X030703Y022170D01*
X030645Y022012D02*
X030525Y022012D01*
X030525Y021853D02*
X030645Y021853D01*
X030645Y021695D02*
X030525Y021695D01*
X030525Y021536D02*
X030645Y021536D01*
X030645Y021378D02*
X030525Y021378D01*
X030510Y021219D02*
X030661Y021219D01*
X030733Y021061D02*
X030424Y021061D01*
X030275Y020902D02*
X030733Y020902D01*
X030733Y020744D02*
X030275Y020744D01*
X030227Y020585D02*
X030733Y020585D01*
X030576Y020427D02*
X030069Y020427D01*
X029910Y020268D02*
X030417Y020268D01*
X030271Y020110D02*
X029802Y020110D01*
X029705Y019951D02*
X030233Y019951D01*
X030278Y019793D02*
X025573Y019793D01*
X025573Y019317D02*
X026442Y019317D01*
X026525Y019159D02*
X025573Y019159D01*
X025573Y019000D02*
X029963Y019000D01*
X029693Y018842D02*
X025573Y018842D01*
X025650Y018683D02*
X029631Y018683D01*
X029669Y018525D02*
X025808Y018525D01*
X024163Y019159D02*
X023401Y019159D01*
X023180Y019476D02*
X022378Y019476D01*
X022220Y019317D02*
X023022Y019317D01*
X022863Y019159D02*
X022061Y019159D01*
X021903Y019000D02*
X022705Y019000D01*
X022546Y018842D02*
X021744Y018842D01*
X021586Y018683D02*
X022388Y018683D01*
X022229Y018525D02*
X015961Y018525D01*
X015803Y018683D02*
X018057Y018683D01*
X017899Y018842D02*
X015644Y018842D01*
X015486Y019000D02*
X017740Y019000D01*
X017582Y019159D02*
X015327Y019159D01*
X015169Y019317D02*
X017423Y019317D01*
X017265Y019476D02*
X015070Y019476D01*
X015070Y019415D02*
X015070Y020054D01*
X015320Y020304D01*
X015320Y020669D01*
X015063Y020927D01*
X014698Y020927D01*
X014440Y020669D01*
X014440Y020304D01*
X014690Y020054D01*
X014690Y019258D01*
X014802Y019147D01*
X015491Y018457D01*
X015474Y018457D01*
X014363Y019568D01*
X014363Y023665D01*
X014979Y024281D01*
X015090Y024392D01*
X015090Y025649D01*
X015128Y025687D01*
X015169Y025786D01*
X015169Y025893D01*
X015128Y025992D01*
X015053Y026067D01*
X014954Y026108D01*
X014847Y026108D01*
X014748Y026067D01*
X014672Y025992D01*
X014631Y025893D01*
X014631Y025786D01*
X014672Y025687D01*
X014710Y025649D01*
X014710Y024550D01*
X014078Y023917D01*
X014078Y024073D01*
X014388Y024384D01*
X014500Y024495D01*
X014500Y025649D01*
X014538Y025687D01*
X014579Y025786D01*
X014579Y025893D01*
X014538Y025992D01*
X014462Y026067D01*
X014363Y026108D01*
X014256Y026108D01*
X014157Y026067D01*
X014082Y025992D01*
X014041Y025893D01*
X014041Y025786D01*
X014082Y025687D01*
X014120Y025649D01*
X014120Y024653D01*
X013807Y024340D01*
X013807Y025046D01*
X013515Y025337D01*
X013515Y025649D01*
X013553Y025687D01*
X013594Y025786D01*
X013594Y025893D01*
X013553Y025992D01*
X013478Y026067D01*
X013379Y026108D01*
X013272Y026108D01*
X013173Y026067D01*
X013097Y025992D01*
X013057Y025893D01*
X013057Y025786D01*
X013097Y025687D01*
X013135Y025649D01*
X013135Y025180D01*
X013427Y024889D01*
X013427Y024535D01*
X013378Y024651D01*
X013289Y024740D01*
X013172Y024789D01*
X013046Y024789D01*
X012929Y024740D01*
X012840Y024651D01*
X012791Y024534D01*
X012791Y024492D01*
X012653Y024550D01*
X012502Y024550D01*
X012363Y024492D01*
X012257Y024386D01*
X012200Y024247D01*
X012200Y024097D01*
X012257Y023958D01*
X012363Y023852D01*
X012502Y023794D01*
X012653Y023794D01*
X012791Y023852D01*
X012898Y023958D01*
X012955Y024097D01*
X012955Y024191D01*
X013046Y024153D01*
X013172Y024153D01*
X013289Y024202D01*
X013378Y024291D01*
X013427Y024407D01*
X013427Y019008D01*
X013389Y018970D01*
X013348Y018872D01*
X013348Y018765D01*
X013389Y018666D01*
X013464Y018590D01*
X013563Y018549D01*
X013670Y018549D01*
X013769Y018590D01*
X013845Y018666D01*
X013885Y018765D01*
X013885Y018872D01*
X013845Y018970D01*
X013807Y019008D01*
X013807Y019156D01*
X013809Y019154D01*
X014515Y018448D01*
X014515Y018394D01*
X014556Y018295D01*
X014632Y018220D01*
X014730Y018179D01*
X014837Y018179D01*
X014936Y018220D01*
X015012Y018295D01*
X015037Y018357D01*
X015206Y018188D01*
X015206Y018135D01*
X015247Y018036D01*
X015322Y017960D01*
X015421Y017919D01*
X015528Y017919D01*
X015627Y017960D01*
X015702Y018036D01*
X015743Y018135D01*
X015743Y018205D01*
X015844Y018105D01*
X015844Y018007D01*
X015885Y017908D01*
X015960Y017832D01*
X016059Y017791D01*
X016166Y017791D01*
X016265Y017832D01*
X016340Y017908D01*
X016381Y018007D01*
X016381Y018113D01*
X016340Y018212D01*
X016265Y018288D01*
X016166Y018329D01*
X016157Y018329D01*
X015070Y019415D01*
X015070Y019634D02*
X017106Y019634D01*
X016948Y019793D02*
X015070Y019793D01*
X015070Y019951D02*
X016789Y019951D01*
X016631Y020110D02*
X015125Y020110D01*
X015284Y020268D02*
X016472Y020268D01*
X016314Y020427D02*
X015320Y020427D01*
X015320Y020585D02*
X016155Y020585D01*
X015997Y020744D02*
X015246Y020744D01*
X015087Y020902D02*
X015838Y020902D01*
X015680Y021061D02*
X014363Y021061D01*
X014363Y021219D02*
X015521Y021219D01*
X015363Y021378D02*
X014363Y021378D01*
X014363Y021536D02*
X015204Y021536D01*
X015046Y021695D02*
X014363Y021695D01*
X014363Y021853D02*
X014887Y021853D01*
X014743Y022012D02*
X014363Y022012D01*
X014363Y022170D02*
X014743Y022170D01*
X014743Y022329D02*
X014363Y022329D01*
X014363Y022487D02*
X014743Y022487D01*
X014743Y022646D02*
X014363Y022646D01*
X014363Y022804D02*
X014743Y022804D01*
X014743Y022963D02*
X014363Y022963D01*
X014363Y023121D02*
X014743Y023121D01*
X014743Y023280D02*
X014363Y023280D01*
X014363Y023438D02*
X014743Y023438D01*
X014801Y023597D02*
X014363Y023597D01*
X014453Y023755D02*
X014960Y023755D01*
X015118Y023914D02*
X014611Y023914D01*
X014770Y024072D02*
X015277Y024072D01*
X015435Y024231D02*
X014928Y024231D01*
X015087Y024389D02*
X015501Y024389D01*
X015501Y024548D02*
X015090Y024548D01*
X015090Y024706D02*
X015501Y024706D01*
X015257Y024865D02*
X015090Y024865D01*
X015090Y025023D02*
X015256Y025023D01*
X015256Y025182D02*
X015090Y025182D01*
X015090Y025340D02*
X015256Y025340D01*
X015260Y025499D02*
X015090Y025499D01*
X015098Y025657D02*
X015216Y025657D01*
X015216Y025816D02*
X015169Y025816D01*
X015136Y025974D02*
X015643Y025974D01*
X015739Y025974D02*
X016295Y025974D01*
X016166Y025976D02*
X016166Y026207D01*
X016154Y026253D01*
X016130Y026294D01*
X016097Y026328D01*
X016056Y026351D01*
X016010Y026364D01*
X015739Y026364D01*
X015739Y025976D01*
X016166Y025976D01*
X016166Y026133D02*
X016295Y026133D01*
X016295Y026291D02*
X016132Y026291D01*
X016295Y026450D02*
X011887Y026450D01*
X012046Y026608D02*
X016295Y026608D01*
X016295Y026767D02*
X012204Y026767D01*
X012363Y026925D02*
X016295Y026925D01*
X016295Y027084D02*
X012521Y027084D01*
X012680Y027242D02*
X016295Y027242D01*
X016295Y027401D02*
X012778Y027401D01*
X012778Y027559D02*
X016295Y027559D01*
X016295Y027718D02*
X012778Y027718D01*
X012778Y027876D02*
X016295Y027876D01*
X016295Y028035D02*
X012778Y028035D01*
X012778Y028193D02*
X016295Y028193D01*
X016295Y028352D02*
X012778Y028352D01*
X012778Y028510D02*
X016295Y028510D01*
X016295Y028669D02*
X012778Y028669D01*
X012778Y028827D02*
X016295Y028827D01*
X016295Y028986D02*
X012778Y028986D01*
X012778Y029144D02*
X016295Y029144D01*
X016295Y029303D02*
X012778Y029303D01*
X012778Y029461D02*
X016295Y029461D01*
X016295Y029620D02*
X012778Y029620D01*
X012778Y029778D02*
X016295Y029778D01*
X016295Y029937D02*
X012778Y029937D01*
X012778Y030095D02*
X016295Y030095D01*
X016295Y030254D02*
X012778Y030254D01*
X012778Y030412D02*
X016295Y030412D01*
X016295Y030571D02*
X012778Y030571D01*
X012778Y030729D02*
X016295Y030729D01*
X016295Y030888D02*
X012778Y030888D01*
X012778Y031046D02*
X016295Y031046D01*
X016295Y031205D02*
X012778Y031205D01*
X012778Y031363D02*
X016295Y031363D01*
X016295Y031522D02*
X012778Y031522D01*
X012747Y031680D02*
X016295Y031680D01*
X016295Y031839D02*
X012597Y031839D01*
X012438Y031997D02*
X016295Y031997D01*
X016295Y032156D02*
X012279Y032156D01*
X012076Y031680D02*
X011031Y031680D01*
X010873Y031522D02*
X012235Y031522D01*
X012298Y031363D02*
X011915Y031363D01*
X012006Y031205D02*
X012298Y031205D01*
X012298Y031046D02*
X012025Y031046D01*
X012025Y030888D02*
X012298Y030888D01*
X012298Y030729D02*
X012025Y030729D01*
X012025Y030571D02*
X012298Y030571D01*
X012298Y030412D02*
X012025Y030412D01*
X011972Y030254D02*
X012298Y030254D01*
X012298Y030095D02*
X011829Y030095D01*
X011825Y029937D02*
X012298Y029937D01*
X012298Y029778D02*
X011825Y029778D01*
X011825Y029620D02*
X012298Y029620D01*
X012298Y029461D02*
X011825Y029461D01*
X011825Y029303D02*
X012298Y029303D01*
X012298Y029144D02*
X011825Y029144D01*
X011825Y028986D02*
X012298Y028986D01*
X012298Y028827D02*
X011825Y028827D01*
X011825Y028669D02*
X012298Y028669D01*
X012298Y028510D02*
X011825Y028510D01*
X011825Y028352D02*
X012298Y028352D01*
X012298Y028193D02*
X011825Y028193D01*
X011825Y028035D02*
X012298Y028035D01*
X012298Y027876D02*
X011825Y027876D01*
X011825Y027718D02*
X012298Y027718D01*
X012298Y027559D02*
X011825Y027559D01*
X011796Y027401D02*
X012160Y027401D01*
X012001Y027242D02*
X011648Y027242D01*
X011489Y027084D02*
X011843Y027084D01*
X011684Y026925D02*
X011331Y026925D01*
X011172Y026767D02*
X011526Y026767D01*
X011367Y026608D02*
X011014Y026608D01*
X010855Y026450D02*
X011209Y026450D01*
X011050Y026291D02*
X010697Y026291D01*
X010538Y026133D02*
X010892Y026133D01*
X010733Y025974D02*
X010380Y025974D01*
X010221Y025816D02*
X010575Y025816D01*
X010416Y025657D02*
X010063Y025657D01*
X009904Y025499D02*
X010258Y025499D01*
X010099Y025340D02*
X009746Y025340D01*
X009587Y025182D02*
X009941Y025182D01*
X009782Y025023D02*
X009429Y025023D01*
X009270Y024865D02*
X009624Y024865D01*
X009465Y024706D02*
X009112Y024706D01*
X008953Y024548D02*
X009307Y024548D01*
X009148Y024389D02*
X008795Y024389D01*
X008636Y024231D02*
X008990Y024231D01*
X008831Y024072D02*
X008478Y024072D01*
X008319Y023914D02*
X008673Y023914D01*
X008514Y023755D02*
X008161Y023755D01*
X008002Y023597D02*
X008356Y023597D01*
X008197Y023438D02*
X007973Y023438D01*
X007973Y023280D02*
X008039Y023280D01*
X008001Y023121D02*
X007973Y023121D01*
X007973Y022963D02*
X008001Y022963D01*
X008001Y022804D02*
X007973Y022804D01*
X007973Y022646D02*
X008001Y022646D01*
X008001Y022487D02*
X007973Y022487D01*
X007973Y022329D02*
X008001Y022329D01*
X008001Y022170D02*
X007973Y022170D01*
X007973Y022012D02*
X008001Y022012D01*
X008001Y021853D02*
X007866Y021853D01*
X008001Y021695D02*
X007707Y021695D01*
X007520Y021536D02*
X008001Y021536D01*
X008001Y021378D02*
X005666Y021378D01*
X005666Y021219D02*
X008001Y021219D01*
X008001Y021061D02*
X005666Y021061D01*
X005666Y020902D02*
X008001Y020902D01*
X008001Y020744D02*
X005666Y020744D01*
X005938Y020585D02*
X005938Y020585D01*
X006194Y020585D02*
X006194Y020585D01*
X006194Y020306D02*
X005938Y020306D01*
X005938Y020306D01*
X006194Y020306D01*
X006194Y020306D01*
X005938Y020036D02*
X005938Y020036D01*
X005938Y019890D01*
X006040Y019890D01*
X006066Y019897D01*
X006091Y019890D01*
X006193Y019890D01*
X006193Y019759D01*
X006034Y019600D01*
X005333Y019600D01*
X005173Y019759D01*
X005173Y024961D01*
X005533Y025320D01*
X008981Y025320D01*
X009069Y025357D01*
X011269Y027557D01*
X011337Y027624D01*
X011345Y027645D01*
X011345Y027618D01*
X007597Y023870D01*
X007530Y023803D01*
X007527Y023795D01*
X007484Y023898D01*
X007378Y024004D01*
X007239Y024061D01*
X007089Y024061D01*
X006966Y024011D01*
X006972Y024023D01*
X006993Y024086D01*
X007003Y024151D01*
X007003Y024184D01*
X007003Y024217D01*
X006993Y024281D01*
X006972Y024344D01*
X006943Y024403D01*
X006904Y024456D01*
X006857Y024502D01*
X006804Y024541D01*
X006746Y024571D01*
X006683Y024591D01*
X006618Y024601D01*
X006585Y024601D01*
X006552Y024601D01*
X006487Y024591D01*
X006425Y024571D01*
X006366Y024541D01*
X006313Y024502D01*
X006267Y024456D01*
X006228Y024403D01*
X006198Y024344D01*
X006178Y024281D01*
X006168Y024217D01*
X006168Y024184D01*
X006585Y024184D01*
X006585Y024601D01*
X006585Y024184D01*
X006585Y024184D01*
X006585Y024184D01*
X006168Y024184D01*
X006168Y024151D01*
X006178Y024086D01*
X006198Y024023D01*
X006228Y023965D01*
X006267Y023911D01*
X006313Y023865D01*
X006366Y023826D01*
X006425Y023796D01*
X006487Y023776D01*
X006552Y023766D01*
X006585Y023766D01*
X006585Y024184D01*
X007003Y024184D01*
X006585Y024184D01*
X006585Y024184D01*
X006585Y024184D01*
X006585Y023766D01*
X006618Y023766D01*
X006683Y023776D01*
X006746Y023796D01*
X006804Y023826D01*
X006818Y023837D01*
X006786Y023759D01*
X006786Y023608D01*
X006844Y023470D01*
X006950Y023363D01*
X006974Y023353D01*
X006974Y022545D01*
X007034Y022485D01*
X007034Y022432D01*
X007075Y022333D01*
X007150Y022257D01*
X007249Y022216D01*
X007356Y022216D01*
X007455Y022257D01*
X007493Y022296D01*
X007493Y022159D01*
X007334Y022000D01*
X005586Y022000D01*
X005497Y021963D01*
X005290Y021756D01*
X005222Y021688D01*
X005186Y021600D01*
X005186Y020259D01*
X005207Y020207D01*
X005207Y020012D01*
X005289Y019930D01*
X005744Y019930D01*
X005748Y019926D01*
X005789Y019903D01*
X005835Y019890D01*
X005938Y019890D01*
X005938Y020036D01*
X005938Y019951D02*
X005938Y019951D01*
X006193Y019793D02*
X005173Y019793D01*
X005173Y019951D02*
X005268Y019951D01*
X005207Y020110D02*
X005173Y020110D01*
X005173Y020268D02*
X005186Y020268D01*
X005173Y020427D02*
X005186Y020427D01*
X005173Y020585D02*
X005186Y020585D01*
X005173Y020744D02*
X005186Y020744D01*
X005173Y020902D02*
X005186Y020902D01*
X005173Y021061D02*
X005186Y021061D01*
X005173Y021219D02*
X005186Y021219D01*
X005173Y021378D02*
X005186Y021378D01*
X005173Y021536D02*
X005186Y021536D01*
X005173Y021695D02*
X005228Y021695D01*
X005173Y021853D02*
X005387Y021853D01*
X005173Y022012D02*
X007345Y022012D01*
X007493Y022170D02*
X005173Y022170D01*
X005173Y022329D02*
X007079Y022329D01*
X007032Y022487D02*
X005173Y022487D01*
X005173Y022646D02*
X006974Y022646D01*
X006974Y022804D02*
X006692Y022804D01*
X006668Y022794D02*
X006807Y022852D01*
X006913Y022958D01*
X006971Y023097D01*
X006971Y023247D01*
X006913Y023386D01*
X006807Y023492D01*
X006668Y023550D01*
X006518Y023550D01*
X006379Y023492D01*
X006273Y023386D01*
X006215Y023247D01*
X006215Y023097D01*
X006273Y022958D01*
X006379Y022852D01*
X006518Y022794D01*
X006668Y022794D01*
X006494Y022804D02*
X005173Y022804D01*
X005173Y022963D02*
X006271Y022963D01*
X006215Y023121D02*
X005173Y023121D01*
X005173Y023280D02*
X006229Y023280D01*
X006325Y023438D02*
X005173Y023438D01*
X005173Y023597D02*
X006791Y023597D01*
X006786Y023755D02*
X005173Y023755D01*
X005173Y023914D02*
X006265Y023914D01*
X006182Y024072D02*
X005173Y024072D01*
X005173Y024231D02*
X006170Y024231D01*
X006221Y024389D02*
X005173Y024389D01*
X005173Y024548D02*
X006379Y024548D01*
X006585Y024548D02*
X006585Y024548D01*
X006585Y024389D02*
X006585Y024389D01*
X006585Y024231D02*
X006585Y024231D01*
X006585Y024072D02*
X006585Y024072D01*
X006585Y023914D02*
X006585Y023914D01*
X006988Y024072D02*
X007799Y024072D01*
X007957Y024231D02*
X007001Y024231D01*
X006950Y024389D02*
X008116Y024389D01*
X008274Y024548D02*
X006791Y024548D01*
X007468Y023914D02*
X007640Y023914D01*
X006875Y023438D02*
X006861Y023438D01*
X006957Y023280D02*
X006974Y023280D01*
X006971Y023121D02*
X006974Y023121D01*
X006974Y022963D02*
X006915Y022963D01*
X008481Y022963D02*
X011314Y022963D01*
X011314Y022970D02*
X011314Y019983D01*
X011285Y019913D01*
X011285Y019807D01*
X011314Y019737D01*
X011314Y019502D01*
X011350Y019414D01*
X012008Y018756D01*
X012097Y018719D01*
X012299Y018719D01*
X013262Y017756D01*
X013262Y016850D01*
X012686Y016850D01*
X012597Y016813D01*
X012530Y016746D01*
X012280Y016496D01*
X012243Y016408D01*
X012243Y015809D01*
X012004Y015570D01*
X011967Y015482D01*
X011967Y015241D01*
X011930Y015203D01*
X011930Y014772D01*
X012012Y014690D01*
X012403Y014690D01*
X012485Y014772D01*
X012485Y015203D01*
X012447Y015241D01*
X012447Y015335D01*
X012619Y015507D01*
X012687Y015574D01*
X012723Y015662D01*
X012723Y016261D01*
X012833Y016370D01*
X013434Y016370D01*
X013534Y016270D01*
X013281Y016270D01*
X013281Y015882D01*
X013185Y015882D01*
X013185Y015786D01*
X012758Y015786D01*
X012758Y015554D01*
X012770Y015509D01*
X012794Y015468D01*
X012828Y015434D01*
X012831Y015432D01*
X012798Y015400D01*
X012798Y014893D01*
X012455Y014550D01*
X011712Y014550D01*
X011649Y014613D01*
X011649Y014690D01*
X011655Y014690D01*
X011737Y014772D01*
X011737Y015203D01*
X011655Y015285D01*
X011264Y015285D01*
X011182Y015203D01*
X011182Y014772D01*
X011264Y014690D01*
X011269Y014690D01*
X011269Y014455D01*
X011443Y014281D01*
X011555Y014170D01*
X012612Y014170D01*
X013132Y014690D01*
X013587Y014690D01*
X013669Y014772D01*
X013669Y015153D01*
X013686Y015170D01*
X014011Y015170D01*
X014011Y014666D01*
X013989Y014613D01*
X013989Y014507D01*
X014030Y014408D01*
X014106Y014332D01*
X014205Y014291D01*
X014312Y014291D01*
X014411Y014332D01*
X014486Y014408D01*
X014510Y014465D01*
X014593Y014381D01*
X014705Y014270D01*
X015412Y014270D01*
X015562Y014420D01*
X015673Y014531D01*
X015673Y016589D01*
X015523Y016739D01*
X015412Y016850D01*
X014305Y016850D01*
X014205Y016750D01*
X014093Y016639D01*
X014093Y016348D01*
X014073Y016328D01*
X014073Y016358D01*
X014037Y016446D01*
X013969Y016513D01*
X013742Y016741D01*
X013742Y017903D01*
X013705Y017992D01*
X013637Y018059D01*
X012602Y019095D01*
X012602Y019095D01*
X012534Y019163D01*
X012446Y019199D01*
X012244Y019199D01*
X011794Y019649D01*
X011794Y019737D01*
X011823Y019807D01*
X011823Y019913D01*
X011794Y019983D01*
X011794Y022970D01*
X011823Y023040D01*
X011823Y023147D01*
X011782Y023245D01*
X011706Y023321D01*
X011607Y023362D01*
X011500Y023362D01*
X011401Y023321D01*
X011326Y023245D01*
X011285Y023147D01*
X011285Y023040D01*
X011314Y022970D01*
X011285Y023121D02*
X008559Y023121D01*
X008717Y023280D02*
X009319Y023280D01*
X009173Y023438D02*
X008876Y023438D01*
X009034Y023597D02*
X009110Y023597D01*
X009852Y023280D02*
X011360Y023280D01*
X011748Y023280D02*
X012216Y023280D01*
X012208Y023121D02*
X011823Y023121D01*
X011794Y022963D02*
X012272Y022963D01*
X011794Y022804D02*
X013427Y022804D01*
X013427Y022646D02*
X011794Y022646D01*
X011794Y022487D02*
X013427Y022487D01*
X013427Y022329D02*
X011794Y022329D01*
X011794Y022170D02*
X013427Y022170D01*
X013427Y022012D02*
X011794Y022012D01*
X011794Y021853D02*
X013427Y021853D01*
X013427Y021695D02*
X011794Y021695D01*
X011794Y021536D02*
X013427Y021536D01*
X013427Y021378D02*
X011794Y021378D01*
X011794Y021219D02*
X013427Y021219D01*
X013427Y021061D02*
X011794Y021061D01*
X011794Y020902D02*
X012668Y020902D01*
X012733Y020967D02*
X012452Y020685D01*
X012452Y020507D01*
X012912Y020507D01*
X012912Y020967D01*
X012733Y020967D01*
X012912Y020902D02*
X012952Y020902D01*
X012952Y020967D02*
X013131Y020967D01*
X013412Y020685D01*
X013412Y020507D01*
X012952Y020507D01*
X012912Y020507D01*
X012912Y020467D01*
X012452Y020467D01*
X012452Y020288D01*
X012733Y020007D01*
X012912Y020007D01*
X012912Y020467D01*
X012952Y020467D01*
X012952Y020507D01*
X012952Y020967D01*
X012952Y020744D02*
X012912Y020744D01*
X012912Y020585D02*
X012952Y020585D01*
X012952Y020467D02*
X013412Y020467D01*
X013412Y020288D01*
X013131Y020007D01*
X012952Y020007D01*
X012952Y020467D01*
X012952Y020427D02*
X012912Y020427D01*
X012912Y020268D02*
X012952Y020268D01*
X012952Y020110D02*
X012912Y020110D01*
X012630Y020110D02*
X011794Y020110D01*
X011794Y020268D02*
X012472Y020268D01*
X012452Y020427D02*
X011794Y020427D01*
X011794Y020585D02*
X012452Y020585D01*
X012510Y020744D02*
X011794Y020744D01*
X011314Y020744D02*
X008481Y020744D01*
X008481Y020902D02*
X011314Y020902D01*
X011314Y021061D02*
X008481Y021061D01*
X008481Y021219D02*
X011314Y021219D01*
X011314Y021378D02*
X008481Y021378D01*
X008481Y021536D02*
X011314Y021536D01*
X011314Y021695D02*
X008481Y021695D01*
X008481Y021853D02*
X011314Y021853D01*
X011314Y022012D02*
X008481Y022012D01*
X008481Y022170D02*
X011314Y022170D01*
X011314Y022329D02*
X008481Y022329D01*
X008481Y022487D02*
X011314Y022487D01*
X011314Y022646D02*
X008481Y022646D01*
X008481Y022804D02*
X011314Y022804D01*
X012062Y023438D02*
X009998Y023438D01*
X010061Y023597D02*
X011904Y023597D01*
X011745Y023755D02*
X010061Y023755D01*
X010005Y023914D02*
X011587Y023914D01*
X011529Y024072D02*
X009869Y024072D01*
X009668Y024231D02*
X011529Y024231D01*
X011529Y024389D02*
X009827Y024389D01*
X009985Y024548D02*
X011284Y024548D01*
X011284Y024706D02*
X010144Y024706D01*
X010302Y024865D02*
X011284Y024865D01*
X011284Y025023D02*
X010461Y025023D01*
X010619Y025182D02*
X011314Y025182D01*
X011244Y025340D02*
X010778Y025340D01*
X010936Y025499D02*
X011244Y025499D01*
X011244Y025657D02*
X011095Y025657D01*
X011671Y025657D02*
X011767Y025657D01*
X011767Y025630D02*
X011767Y026018D01*
X012038Y026018D01*
X012084Y026006D01*
X012125Y025982D01*
X012158Y025948D01*
X012182Y025907D01*
X012194Y025862D01*
X012194Y025630D01*
X011767Y025630D01*
X011767Y025816D02*
X011671Y025816D01*
X011671Y025974D02*
X011767Y025974D01*
X011570Y026133D02*
X015216Y026133D01*
X015250Y026291D02*
X011729Y026291D01*
X012133Y025974D02*
X013090Y025974D01*
X013057Y025816D02*
X012194Y025816D01*
X012194Y025657D02*
X013128Y025657D01*
X013135Y025499D02*
X012194Y025499D01*
X012194Y025340D02*
X013135Y025340D01*
X013135Y025182D02*
X012124Y025182D01*
X012154Y025023D02*
X013292Y025023D01*
X013427Y024865D02*
X012154Y024865D01*
X012154Y024706D02*
X012894Y024706D01*
X012797Y024548D02*
X012658Y024548D01*
X012497Y024548D02*
X012154Y024548D01*
X012260Y024389D02*
X011909Y024389D01*
X011909Y024231D02*
X012200Y024231D01*
X012210Y024072D02*
X011966Y024072D01*
X012124Y023914D02*
X012301Y023914D01*
X012283Y023755D02*
X013427Y023755D01*
X013427Y023597D02*
X012441Y023597D01*
X012865Y023438D02*
X013427Y023438D01*
X013427Y023280D02*
X012955Y023280D01*
X012963Y023121D02*
X013427Y023121D01*
X013427Y022963D02*
X012898Y022963D01*
X012853Y023914D02*
X013427Y023914D01*
X013427Y024072D02*
X012945Y024072D01*
X013318Y024231D02*
X013427Y024231D01*
X013419Y024389D02*
X013427Y024389D01*
X013421Y024548D02*
X013427Y024548D01*
X013427Y024706D02*
X013323Y024706D01*
X013807Y024706D02*
X014120Y024706D01*
X014120Y024865D02*
X013807Y024865D01*
X013807Y025023D02*
X014120Y025023D01*
X014120Y025182D02*
X013671Y025182D01*
X013515Y025340D02*
X014120Y025340D01*
X014120Y025499D02*
X013515Y025499D01*
X013523Y025657D02*
X014112Y025657D01*
X014041Y025816D02*
X013594Y025816D01*
X013561Y025974D02*
X014074Y025974D01*
X014545Y025974D02*
X014665Y025974D01*
X014631Y025816D02*
X014579Y025816D01*
X014507Y025657D02*
X014702Y025657D01*
X014710Y025499D02*
X014500Y025499D01*
X014500Y025340D02*
X014710Y025340D01*
X014710Y025182D02*
X014500Y025182D01*
X014500Y025023D02*
X014710Y025023D01*
X014710Y024865D02*
X014500Y024865D01*
X014500Y024706D02*
X014710Y024706D01*
X014708Y024548D02*
X014500Y024548D01*
X014550Y024389D02*
X014393Y024389D01*
X014391Y024231D02*
X014235Y024231D01*
X014233Y024072D02*
X014078Y024072D01*
X013856Y024389D02*
X013807Y024389D01*
X013807Y024548D02*
X014014Y024548D01*
X015180Y023438D02*
X016022Y023438D01*
X016000Y023280D02*
X015123Y023280D01*
X015123Y023121D02*
X016031Y023121D01*
X016130Y022963D02*
X015123Y022963D01*
X015123Y022804D02*
X018889Y022804D01*
X018931Y022821D02*
X018832Y022780D01*
X018756Y022705D01*
X018715Y022606D01*
X018715Y022499D01*
X018744Y022429D01*
X018744Y022208D01*
X018688Y022152D01*
X018309Y022152D01*
X018221Y022115D01*
X017914Y021809D01*
X017846Y021741D01*
X017810Y021653D01*
X017810Y020776D01*
X017846Y020688D01*
X017914Y020621D01*
X018244Y020290D01*
X018281Y020202D01*
X018387Y020096D01*
X018526Y020038D01*
X018676Y020038D01*
X018815Y020096D01*
X018921Y020202D01*
X018979Y020341D01*
X018979Y020491D01*
X018921Y020630D01*
X018815Y020736D01*
X018676Y020794D01*
X018526Y020794D01*
X018451Y020763D01*
X018290Y020923D01*
X018290Y021140D01*
X018321Y021109D01*
X018374Y021070D01*
X018433Y021041D01*
X018495Y021020D01*
X018560Y021010D01*
X018593Y021010D01*
X018593Y021428D01*
X019011Y021428D01*
X019011Y021461D01*
X019001Y021526D01*
X018980Y021588D01*
X018951Y021647D01*
X018912Y021700D01*
X018909Y021703D01*
X018923Y021709D01*
X018991Y021776D01*
X019188Y021973D01*
X019224Y022061D01*
X019224Y022429D01*
X019253Y022499D01*
X019253Y022606D01*
X019212Y022705D01*
X019136Y022780D01*
X019038Y022821D01*
X018931Y022821D01*
X019080Y022804D02*
X025238Y022804D01*
X025429Y022804D02*
X030510Y022804D01*
X030534Y022794D02*
X030684Y022794D01*
X030823Y022852D01*
X030929Y022958D01*
X030987Y023097D01*
X030987Y023247D01*
X030929Y023386D01*
X030823Y023492D01*
X030684Y023550D01*
X030534Y023550D01*
X030395Y023492D01*
X030289Y023386D01*
X030231Y023247D01*
X030231Y023097D01*
X030289Y022958D01*
X030395Y022852D01*
X030534Y022794D01*
X030708Y022804D02*
X032834Y022804D01*
X032993Y022646D02*
X025586Y022646D01*
X025597Y022487D02*
X036694Y022487D01*
X036672Y022509D02*
X036856Y022325D01*
X036836Y022317D01*
X036712Y022193D01*
X036645Y022032D01*
X036645Y021257D01*
X036712Y021095D01*
X036836Y020971D01*
X036998Y020904D01*
X037173Y020904D01*
X037335Y020971D01*
X037458Y021095D01*
X037525Y021257D01*
X037525Y022032D01*
X037458Y022193D01*
X037335Y022317D01*
X037275Y022342D01*
X037275Y022443D01*
X036941Y022778D01*
X036835Y022884D01*
X036921Y022970D01*
X036979Y023108D01*
X036979Y023259D01*
X036921Y023398D01*
X036815Y023504D01*
X036676Y023561D01*
X036526Y023561D01*
X036387Y023504D01*
X036281Y023398D01*
X036223Y023259D01*
X036223Y023108D01*
X036281Y022970D01*
X036361Y022889D01*
X033286Y022889D01*
X032302Y023874D01*
X031510Y023874D01*
X031500Y023898D01*
X031394Y024004D01*
X031255Y024061D01*
X031105Y024061D01*
X030982Y024011D01*
X030988Y024023D01*
X031009Y024086D01*
X031019Y024151D01*
X031019Y024184D01*
X031019Y024217D01*
X031009Y024281D01*
X030988Y024344D01*
X030958Y024403D01*
X030920Y024456D01*
X030873Y024502D01*
X030820Y024541D01*
X030761Y024571D01*
X030699Y024591D01*
X030634Y024601D01*
X030601Y024601D01*
X030568Y024601D01*
X030503Y024591D01*
X030441Y024571D01*
X030382Y024541D01*
X030329Y024502D01*
X030282Y024456D01*
X030244Y024403D01*
X030214Y024344D01*
X030203Y024311D01*
X030203Y024620D01*
X030910Y024620D01*
X030980Y024591D01*
X031087Y024591D01*
X031186Y024632D01*
X031261Y024708D01*
X031302Y024807D01*
X031302Y024913D01*
X031261Y025012D01*
X031186Y025088D01*
X031087Y025129D01*
X030980Y025129D01*
X030910Y025100D01*
X030203Y025100D01*
X030203Y025310D01*
X030121Y025392D01*
X028745Y025392D01*
X028663Y025310D01*
X028663Y023934D01*
X028745Y023852D01*
X030121Y023852D01*
X030203Y023934D01*
X030203Y024056D01*
X030214Y024023D01*
X030244Y023965D01*
X030282Y023911D01*
X030329Y023865D01*
X030382Y023826D01*
X030441Y023796D01*
X030503Y023776D01*
X030568Y023766D01*
X030601Y023766D01*
X030601Y024184D01*
X030601Y024601D01*
X030601Y024184D01*
X030601Y024184D01*
X031019Y024184D01*
X030601Y024184D01*
X030601Y024184D01*
X030601Y024184D01*
X030601Y023766D01*
X030634Y023766D01*
X030699Y023776D01*
X030761Y023796D01*
X030820Y023826D01*
X030834Y023837D01*
X030802Y023759D01*
X030802Y023608D01*
X030860Y023470D01*
X030966Y023363D01*
X031105Y023306D01*
X031255Y023306D01*
X031394Y023363D01*
X031500Y023470D01*
X031510Y023494D01*
X032144Y023494D01*
X033017Y022621D01*
X033129Y022509D01*
X036672Y022509D01*
X036853Y022329D02*
X036307Y022329D01*
X036335Y022317D02*
X036173Y022384D01*
X035998Y022384D01*
X035836Y022317D01*
X035712Y022193D01*
X035645Y022032D01*
X035645Y021257D01*
X035712Y021095D01*
X035836Y020971D01*
X035998Y020904D01*
X036173Y020904D01*
X036335Y020971D01*
X036458Y021095D01*
X036525Y021257D01*
X036525Y022032D01*
X036458Y022193D01*
X036335Y022317D01*
X036468Y022170D02*
X036703Y022170D01*
X036645Y022012D02*
X036525Y022012D01*
X036525Y021853D02*
X036645Y021853D01*
X036645Y021695D02*
X036525Y021695D01*
X036525Y021536D02*
X036645Y021536D01*
X036645Y021378D02*
X036525Y021378D01*
X036510Y021219D02*
X036661Y021219D01*
X036747Y021061D02*
X036424Y021061D01*
X035747Y021061D02*
X035424Y021061D01*
X035510Y021219D02*
X035661Y021219D01*
X035645Y021378D02*
X035525Y021378D01*
X035525Y021536D02*
X035645Y021536D01*
X035645Y021695D02*
X035525Y021695D01*
X035525Y021853D02*
X035645Y021853D01*
X035645Y022012D02*
X035525Y022012D01*
X035468Y022170D02*
X035703Y022170D01*
X035863Y022329D02*
X035307Y022329D01*
X034863Y022329D02*
X034307Y022329D01*
X034468Y022170D02*
X034703Y022170D01*
X034645Y022012D02*
X034525Y022012D01*
X034525Y021853D02*
X034645Y021853D01*
X034645Y021695D02*
X034525Y021695D01*
X034525Y021536D02*
X034645Y021536D01*
X034645Y021378D02*
X034525Y021378D01*
X034510Y021219D02*
X034661Y021219D01*
X034747Y021061D02*
X034424Y021061D01*
X034275Y020902D02*
X034895Y020902D01*
X034895Y020744D02*
X034275Y020744D01*
X034275Y020585D02*
X034895Y020585D01*
X034895Y020427D02*
X034275Y020427D01*
X034275Y020268D02*
X034895Y020268D01*
X034895Y020110D02*
X034275Y020110D01*
X034275Y019951D02*
X034895Y019951D01*
X034895Y019793D02*
X034275Y019793D01*
X034275Y019634D02*
X034895Y019634D01*
X034895Y019476D02*
X034275Y019476D01*
X034275Y019317D02*
X034886Y019317D01*
X034727Y019159D02*
X034193Y019159D01*
X034035Y019000D02*
X034569Y019000D01*
X034410Y018842D02*
X033876Y018842D01*
X033656Y019159D02*
X033198Y019159D01*
X033275Y019317D02*
X033814Y019317D01*
X033895Y019476D02*
X033275Y019476D01*
X033275Y019634D02*
X033895Y019634D01*
X033895Y019793D02*
X033275Y019793D01*
X033275Y019951D02*
X033895Y019951D01*
X033895Y020110D02*
X033275Y020110D01*
X033275Y020268D02*
X033895Y020268D01*
X033895Y020427D02*
X033275Y020427D01*
X033275Y020585D02*
X033895Y020585D01*
X033895Y020744D02*
X033275Y020744D01*
X033275Y020902D02*
X033895Y020902D01*
X033747Y021061D02*
X033424Y021061D01*
X033510Y021219D02*
X033661Y021219D01*
X033645Y021378D02*
X033525Y021378D01*
X033525Y021536D02*
X033645Y021536D01*
X033645Y021695D02*
X033525Y021695D01*
X033525Y021853D02*
X033645Y021853D01*
X033645Y022012D02*
X033525Y022012D01*
X033468Y022170D02*
X033703Y022170D01*
X033863Y022329D02*
X033307Y022329D01*
X032863Y022329D02*
X032307Y022329D01*
X032468Y022170D02*
X032703Y022170D01*
X032645Y022012D02*
X032525Y022012D01*
X032525Y021853D02*
X032645Y021853D01*
X032645Y021695D02*
X032525Y021695D01*
X032525Y021536D02*
X032645Y021536D01*
X032645Y021378D02*
X032525Y021378D01*
X032510Y021219D02*
X032661Y021219D01*
X032747Y021061D02*
X032424Y021061D01*
X032275Y020902D02*
X032895Y020902D01*
X032895Y020744D02*
X032275Y020744D01*
X032275Y020585D02*
X032895Y020585D01*
X032895Y020427D02*
X032275Y020427D01*
X032275Y020268D02*
X032895Y020268D01*
X032895Y020110D02*
X032275Y020110D01*
X032275Y019951D02*
X032895Y019951D01*
X032895Y019793D02*
X032275Y019793D01*
X032275Y019634D02*
X032895Y019634D01*
X032895Y019476D02*
X032227Y019476D01*
X032068Y019317D02*
X032820Y019317D01*
X034472Y018366D02*
X038909Y018366D01*
X038814Y018208D02*
X031432Y018208D01*
X031365Y018049D02*
X038838Y018049D01*
X039258Y018366D02*
X041981Y018366D01*
X041782Y018525D02*
X034630Y018525D01*
X034789Y018683D02*
X036442Y018683D01*
X036442Y018630D02*
X036524Y018548D01*
X037348Y018548D01*
X037430Y018630D01*
X037430Y019690D01*
X037348Y019772D01*
X036524Y019772D01*
X036442Y019690D01*
X036442Y019460D01*
X035995Y019460D01*
X035885Y019414D01*
X035800Y019330D01*
X035755Y019220D01*
X035755Y019100D01*
X035800Y018990D01*
X035885Y018906D01*
X035995Y018860D01*
X036442Y018860D01*
X036442Y018630D01*
X036442Y018842D02*
X034947Y018842D01*
X035106Y019000D02*
X035796Y019000D01*
X035755Y019159D02*
X035264Y019159D01*
X035275Y019317D02*
X035795Y019317D01*
X035275Y019476D02*
X036442Y019476D01*
X036442Y019634D02*
X035275Y019634D01*
X035275Y019793D02*
X038739Y019793D01*
X038897Y019951D02*
X035275Y019951D01*
X035275Y020110D02*
X040789Y020110D01*
X040789Y020268D02*
X035275Y020268D01*
X035275Y020427D02*
X040789Y020427D01*
X040789Y020585D02*
X035275Y020585D01*
X035275Y020744D02*
X040749Y020744D01*
X040749Y020826D02*
X041195Y020826D01*
X041195Y020826D01*
X040749Y020826D01*
X040749Y020902D02*
X035275Y020902D01*
X037307Y022329D02*
X037863Y022329D01*
X037836Y022317D02*
X037712Y022193D01*
X037645Y022032D01*
X037645Y021257D01*
X037712Y021095D01*
X037836Y020971D01*
X037998Y020904D01*
X038173Y020904D01*
X038335Y020971D01*
X038458Y021095D01*
X038525Y021257D01*
X038525Y022032D01*
X038458Y022193D01*
X038335Y022317D01*
X038173Y022384D01*
X037998Y022384D01*
X037836Y022317D01*
X037703Y022170D02*
X037468Y022170D01*
X037525Y022012D02*
X037645Y022012D01*
X037645Y021853D02*
X037525Y021853D01*
X037525Y021695D02*
X037645Y021695D01*
X037645Y021536D02*
X037525Y021536D01*
X037525Y021378D02*
X037645Y021378D01*
X037661Y021219D02*
X037510Y021219D01*
X037424Y021061D02*
X037747Y021061D01*
X038424Y021061D02*
X038747Y021061D01*
X038661Y021219D02*
X038510Y021219D01*
X038525Y021378D02*
X038645Y021378D01*
X038645Y021536D02*
X038525Y021536D01*
X038525Y021695D02*
X038645Y021695D01*
X038645Y021853D02*
X038525Y021853D01*
X038525Y022012D02*
X038645Y022012D01*
X038703Y022170D02*
X038468Y022170D01*
X038307Y022329D02*
X038696Y022329D01*
X038538Y022487D02*
X037232Y022487D01*
X037073Y022646D02*
X038379Y022646D01*
X038221Y022804D02*
X036915Y022804D01*
X036914Y022963D02*
X038062Y022963D01*
X037904Y023121D02*
X036979Y023121D01*
X036970Y023280D02*
X037745Y023280D01*
X037587Y023438D02*
X036881Y023438D01*
X036668Y023794D02*
X036807Y023852D01*
X036913Y023958D01*
X036971Y024097D01*
X036971Y024191D01*
X037061Y024153D01*
X037188Y024153D01*
X037305Y024202D01*
X037394Y024291D01*
X037442Y024408D01*
X037442Y024534D01*
X037394Y024651D01*
X037305Y024740D01*
X037188Y024789D01*
X037061Y024789D01*
X036945Y024740D01*
X036855Y024651D01*
X036807Y024534D01*
X036807Y024492D01*
X036668Y024550D01*
X036518Y024550D01*
X036379Y024492D01*
X036273Y024386D01*
X036215Y024247D01*
X036215Y024097D01*
X036273Y023958D01*
X036379Y023852D01*
X036518Y023794D01*
X036668Y023794D01*
X036869Y023914D02*
X037543Y023914D01*
X037543Y024072D02*
X036961Y024072D01*
X037334Y024231D02*
X037543Y024231D01*
X037543Y024389D02*
X037435Y024389D01*
X037437Y024548D02*
X037543Y024548D01*
X037543Y024706D02*
X037339Y024706D01*
X037543Y024865D02*
X032976Y024865D01*
X032976Y024868D02*
X032944Y024900D01*
X032947Y024902D01*
X032981Y024935D01*
X033004Y024976D01*
X033016Y025022D01*
X033016Y025254D01*
X032589Y025254D01*
X032589Y025350D01*
X032493Y025350D01*
X032493Y025738D01*
X032222Y025738D01*
X032176Y025725D01*
X032135Y025702D01*
X032102Y025668D01*
X032078Y025627D01*
X032066Y025581D01*
X032066Y025350D01*
X032493Y025350D01*
X032493Y025254D01*
X032066Y025254D01*
X032066Y025022D01*
X032078Y024976D01*
X032102Y024935D01*
X032135Y024902D01*
X032138Y024900D01*
X032106Y024868D01*
X032106Y024763D01*
X032010Y024763D01*
X031986Y024788D01*
X031887Y024829D01*
X031780Y024829D01*
X031681Y024788D01*
X031605Y024712D01*
X031564Y024613D01*
X031564Y024507D01*
X031605Y024408D01*
X031681Y024332D01*
X031780Y024291D01*
X031887Y024291D01*
X031986Y024332D01*
X032037Y024383D01*
X032106Y024383D01*
X032106Y024240D01*
X032188Y024158D01*
X032894Y024158D01*
X032976Y024240D01*
X032976Y024868D01*
X033016Y025023D02*
X037543Y025023D01*
X037543Y025182D02*
X033016Y025182D01*
X033016Y025350D02*
X033016Y025581D01*
X033004Y025627D01*
X032981Y025668D01*
X032947Y025702D01*
X032906Y025725D01*
X032860Y025738D01*
X032589Y025738D01*
X032589Y025350D01*
X033016Y025350D01*
X033016Y025499D02*
X037543Y025499D01*
X037543Y025657D02*
X032987Y025657D01*
X032589Y025657D02*
X032493Y025657D01*
X032493Y025499D02*
X032589Y025499D01*
X032589Y025340D02*
X037543Y025340D01*
X038123Y025340D02*
X039170Y025340D01*
X039170Y025471D02*
X039170Y025180D01*
X039281Y024912D01*
X039486Y024706D01*
X039755Y024595D01*
X040046Y024595D01*
X040314Y024706D01*
X042043Y024706D01*
X042043Y024548D02*
X038123Y024548D01*
X038123Y024706D02*
X039486Y024706D01*
X039328Y024865D02*
X038123Y024865D01*
X038123Y025023D02*
X039235Y025023D01*
X039170Y025182D02*
X038123Y025182D01*
X038123Y025499D02*
X039181Y025499D01*
X039170Y025471D02*
X039281Y025739D01*
X039486Y025945D01*
X039755Y026056D01*
X040046Y026056D01*
X040314Y025945D01*
X040520Y025739D01*
X040631Y025471D01*
X040631Y025180D01*
X040520Y024912D01*
X040314Y024706D01*
X040473Y024865D02*
X042043Y024865D01*
X042043Y025023D02*
X040566Y025023D01*
X040631Y025182D02*
X042043Y025182D01*
X042043Y025340D02*
X040631Y025340D01*
X040619Y025499D02*
X042043Y025499D01*
X042043Y025657D02*
X040554Y025657D01*
X040443Y025816D02*
X042043Y025816D01*
X042043Y025974D02*
X040243Y025974D01*
X039557Y025974D02*
X038088Y025974D01*
X038123Y025816D02*
X039357Y025816D01*
X039247Y025657D02*
X038123Y025657D01*
X037930Y026133D02*
X042043Y026133D01*
X042043Y026291D02*
X037771Y026291D01*
X037613Y026450D02*
X042043Y026450D01*
X042043Y026608D02*
X037454Y026608D01*
X037296Y026767D02*
X042043Y026767D01*
X042043Y026925D02*
X038024Y026925D01*
X037983Y026908D02*
X038137Y026972D01*
X038254Y027089D01*
X038317Y027242D01*
X042043Y027242D01*
X042043Y027084D02*
X038248Y027084D01*
X038317Y027242D02*
X038317Y027408D01*
X038254Y027562D01*
X038137Y027679D01*
X037983Y027743D01*
X037817Y027743D01*
X037664Y027679D01*
X037547Y027562D01*
X037483Y027408D01*
X037483Y027242D01*
X037223Y027242D01*
X037223Y027084D02*
X037552Y027084D01*
X037547Y027089D02*
X037664Y026972D01*
X037817Y026908D01*
X037983Y026908D01*
X037777Y026925D02*
X037223Y026925D01*
X037547Y027089D02*
X037483Y027242D01*
X037483Y027401D02*
X037223Y027401D01*
X037223Y027559D02*
X037546Y027559D01*
X037757Y027718D02*
X037223Y027718D01*
X037223Y027876D02*
X037815Y027876D01*
X037793Y027879D02*
X037864Y027868D01*
X037892Y027868D01*
X037892Y028317D01*
X037909Y028317D01*
X037909Y028334D01*
X038357Y028334D01*
X038357Y028361D01*
X038346Y028432D01*
X038324Y028501D01*
X038291Y028565D01*
X038249Y028623D01*
X038198Y028674D01*
X038140Y028716D01*
X038076Y028749D01*
X038007Y028771D01*
X037936Y028783D01*
X037909Y028783D01*
X037909Y028334D01*
X037892Y028334D01*
X037892Y028783D01*
X037864Y028783D01*
X037793Y028771D01*
X037725Y028749D01*
X037661Y028716D01*
X037602Y028674D01*
X037552Y028623D01*
X037509Y028565D01*
X037477Y028501D01*
X037454Y028432D01*
X037443Y028361D01*
X037443Y028334D01*
X037892Y028334D01*
X037892Y028317D01*
X037443Y028317D01*
X037443Y028289D01*
X037454Y028218D01*
X037477Y028150D01*
X037509Y028086D01*
X037552Y028028D01*
X037602Y027977D01*
X037661Y027934D01*
X037725Y027902D01*
X037793Y027879D01*
X037892Y027876D02*
X037909Y027876D01*
X037909Y027868D02*
X037936Y027868D01*
X038007Y027879D01*
X038076Y027902D01*
X038140Y027934D01*
X038198Y027977D01*
X038249Y028028D01*
X038291Y028086D01*
X038324Y028150D01*
X038346Y028218D01*
X038357Y028289D01*
X038357Y028317D01*
X037909Y028317D01*
X037909Y027868D01*
X037986Y027876D02*
X042043Y027876D01*
X042043Y027718D02*
X038044Y027718D01*
X038255Y027559D02*
X042043Y027559D01*
X042043Y027401D02*
X038317Y027401D01*
X038254Y028035D02*
X042043Y028035D01*
X042043Y028193D02*
X038338Y028193D01*
X038357Y028352D02*
X042043Y028352D01*
X042043Y028510D02*
X038319Y028510D01*
X038204Y028669D02*
X039577Y028669D01*
X039486Y028706D02*
X039755Y028595D01*
X040046Y028595D01*
X040314Y028706D01*
X040520Y028912D01*
X040631Y029180D01*
X040631Y029471D01*
X040520Y029739D01*
X040314Y029945D01*
X040046Y030056D01*
X039755Y030056D01*
X039486Y029945D01*
X039281Y029739D01*
X039170Y029471D01*
X039170Y029180D01*
X039281Y028912D01*
X039486Y028706D01*
X039365Y028827D02*
X037223Y028827D01*
X037223Y028669D02*
X037597Y028669D01*
X037481Y028510D02*
X037223Y028510D01*
X037223Y028352D02*
X037443Y028352D01*
X037463Y028193D02*
X037223Y028193D01*
X037223Y028035D02*
X037546Y028035D01*
X037892Y028035D02*
X037909Y028035D01*
X037892Y028193D02*
X037909Y028193D01*
X037892Y028352D02*
X037909Y028352D01*
X037892Y028510D02*
X037909Y028510D01*
X037892Y028669D02*
X037909Y028669D01*
X037223Y028986D02*
X039250Y028986D01*
X039185Y029144D02*
X037223Y029144D01*
X037223Y029303D02*
X039170Y029303D01*
X039170Y029461D02*
X037201Y029461D01*
X037043Y029620D02*
X038311Y029620D01*
X038176Y029778D02*
X037632Y029778D01*
X037702Y029937D02*
X038174Y029937D01*
X038298Y030095D02*
X037668Y030095D01*
X037623Y030254D02*
X038943Y030254D01*
X038943Y030412D02*
X037623Y030412D01*
X037623Y030571D02*
X038063Y030571D01*
X037896Y030729D02*
X037623Y030729D01*
X037737Y030888D02*
X037475Y030888D01*
X037489Y031046D02*
X037423Y031046D01*
X037423Y031205D02*
X037464Y031205D01*
X037423Y031363D02*
X037556Y031363D01*
X037464Y031522D02*
X038063Y031522D01*
X038107Y031363D02*
X037911Y031363D01*
X038002Y031205D02*
X038063Y031205D01*
X038812Y031363D02*
X038855Y031363D01*
X039560Y031363D02*
X041612Y031363D01*
X041770Y031205D02*
X039603Y031205D01*
X039603Y031522D02*
X041453Y031522D01*
X041295Y031680D02*
X039603Y031680D01*
X039603Y031839D02*
X041136Y031839D01*
X040978Y031997D02*
X039603Y031997D01*
X039561Y032156D02*
X040819Y032156D01*
X041516Y031046D02*
X041929Y031046D01*
X042087Y030888D02*
X041675Y030888D01*
X041833Y030729D02*
X042246Y030729D01*
X042404Y030571D02*
X041992Y030571D01*
X042150Y030412D02*
X042563Y030412D01*
X042673Y030254D02*
X042309Y030254D01*
X042423Y030095D02*
X042673Y030095D01*
X042673Y029937D02*
X042423Y029937D01*
X042423Y029778D02*
X042673Y029778D01*
X042673Y029620D02*
X042423Y029620D01*
X042423Y029461D02*
X042673Y029461D01*
X042673Y029303D02*
X042423Y029303D01*
X042423Y029144D02*
X042673Y029144D01*
X042673Y028986D02*
X042423Y028986D01*
X042423Y028827D02*
X042673Y028827D01*
X042673Y028669D02*
X042423Y028669D01*
X042423Y028510D02*
X042673Y028510D01*
X042673Y028352D02*
X042423Y028352D01*
X042423Y028193D02*
X042673Y028193D01*
X042673Y028035D02*
X042423Y028035D01*
X042423Y027876D02*
X042673Y027876D01*
X042673Y027718D02*
X042423Y027718D01*
X042423Y027559D02*
X042673Y027559D01*
X042673Y027401D02*
X042423Y027401D01*
X042423Y027242D02*
X042673Y027242D01*
X042673Y027084D02*
X042423Y027084D01*
X042423Y026925D02*
X042673Y026925D01*
X042673Y026767D02*
X042423Y026767D01*
X042423Y026608D02*
X042673Y026608D01*
X042673Y026450D02*
X042423Y026450D01*
X042423Y026291D02*
X042673Y026291D01*
X042673Y026133D02*
X042423Y026133D01*
X042423Y025974D02*
X042673Y025974D01*
X042673Y025816D02*
X042423Y025816D01*
X042423Y025657D02*
X042673Y025657D01*
X042673Y025499D02*
X042423Y025499D01*
X042423Y025340D02*
X042673Y025340D01*
X042673Y025182D02*
X042423Y025182D01*
X042423Y025023D02*
X042673Y025023D01*
X042673Y024865D02*
X042423Y024865D01*
X042423Y024706D02*
X042673Y024706D01*
X042673Y024548D02*
X042423Y024548D01*
X042423Y024389D02*
X042673Y024389D01*
X042673Y024231D02*
X042609Y024231D01*
X042610Y024072D02*
X042673Y024072D01*
X042673Y023914D02*
X042610Y023914D01*
X042566Y023755D02*
X042673Y023755D01*
X042673Y023597D02*
X042534Y023597D01*
X042528Y023603D02*
X041939Y023603D01*
X041857Y023521D01*
X041857Y023090D01*
X041939Y023008D01*
X042043Y023008D01*
X042043Y022921D01*
X042040Y022928D01*
X042006Y022962D01*
X041965Y022985D01*
X041919Y022997D01*
X041738Y022997D01*
X041557Y022997D01*
X041511Y022985D01*
X041470Y022962D01*
X041437Y022928D01*
X041413Y022887D01*
X041401Y022841D01*
X041401Y022660D01*
X041401Y022479D01*
X041413Y022433D01*
X041437Y022392D01*
X041470Y022358D01*
X041511Y022335D01*
X041557Y022323D01*
X041738Y022323D01*
X041919Y022323D01*
X041965Y022335D01*
X042006Y022358D01*
X042040Y022392D01*
X042056Y022420D01*
X042113Y022363D01*
X042544Y022363D01*
X042626Y022445D01*
X042626Y022875D01*
X042544Y022957D01*
X042423Y022957D01*
X042423Y023008D01*
X042528Y023008D01*
X042610Y023090D01*
X042610Y023521D01*
X042528Y023603D01*
X042610Y023438D02*
X042673Y023438D01*
X042673Y023280D02*
X042610Y023280D01*
X042610Y023121D02*
X042673Y023121D01*
X042673Y022963D02*
X042423Y022963D01*
X042626Y022804D02*
X042673Y022804D01*
X042673Y022646D02*
X042626Y022646D01*
X042626Y022487D02*
X042673Y022487D01*
X042673Y022329D02*
X041942Y022329D01*
X041848Y022170D02*
X040468Y022170D01*
X040525Y022012D02*
X041722Y022012D01*
X041738Y022323D02*
X041738Y022660D01*
X041401Y022660D01*
X041738Y022660D01*
X041738Y022660D01*
X041738Y022997D01*
X041738Y022660D01*
X041738Y022660D01*
X041738Y022660D01*
X041738Y022323D01*
X041738Y022329D02*
X041738Y022329D01*
X041738Y022487D02*
X041738Y022487D01*
X041738Y022646D02*
X041738Y022646D01*
X041738Y022804D02*
X041738Y022804D01*
X041738Y022963D02*
X041738Y022963D01*
X041857Y023121D02*
X041212Y023121D01*
X041222Y023144D02*
X041111Y022876D01*
X040905Y022670D01*
X040636Y022559D01*
X040345Y022559D01*
X040077Y022670D01*
X039871Y022876D01*
X039760Y023144D01*
X039760Y023435D01*
X039871Y023704D01*
X040077Y023910D01*
X040345Y024021D01*
X040636Y024021D01*
X040905Y023910D01*
X041111Y023704D01*
X041222Y023435D01*
X041222Y023144D01*
X041222Y023280D02*
X041857Y023280D01*
X041857Y023438D02*
X041221Y023438D01*
X041155Y023597D02*
X041932Y023597D01*
X041901Y023755D02*
X041060Y023755D01*
X040896Y023914D02*
X041857Y023914D01*
X041857Y024072D02*
X038123Y024072D01*
X038123Y023914D02*
X040086Y023914D01*
X039922Y023755D02*
X038123Y023755D01*
X038266Y023597D02*
X039826Y023597D01*
X039761Y023438D02*
X038424Y023438D01*
X038583Y023280D02*
X039760Y023280D01*
X039769Y023121D02*
X038741Y023121D01*
X038900Y022963D02*
X039835Y022963D01*
X039943Y022804D02*
X039058Y022804D01*
X039517Y022646D02*
X040136Y022646D01*
X040307Y022329D02*
X041535Y022329D01*
X041401Y022487D02*
X039675Y022487D01*
X039834Y022329D02*
X039863Y022329D01*
X039613Y022012D02*
X039525Y022012D01*
X039525Y021853D02*
X039645Y021853D01*
X039645Y021695D02*
X039525Y021695D01*
X039525Y021536D02*
X039645Y021536D01*
X039645Y021378D02*
X039525Y021378D01*
X039510Y021219D02*
X039661Y021219D01*
X039747Y021061D02*
X039424Y021061D01*
X040424Y021061D02*
X040712Y021061D01*
X040659Y021219D02*
X040510Y021219D01*
X040525Y021378D02*
X040671Y021378D01*
X040757Y021536D02*
X040525Y021536D01*
X040525Y021695D02*
X041393Y021695D01*
X041376Y021536D02*
X041393Y021536D01*
X041411Y021853D02*
X040525Y021853D01*
X040846Y022646D02*
X041401Y022646D01*
X041401Y022804D02*
X041039Y022804D01*
X041147Y022963D02*
X041472Y022963D01*
X042004Y022963D02*
X042043Y022963D01*
X042648Y022170D02*
X042673Y022170D01*
X041858Y024231D02*
X038123Y024231D01*
X038123Y024389D02*
X042043Y024389D01*
X037543Y023755D02*
X034076Y023755D01*
X034076Y023778D02*
X034004Y023953D01*
X033975Y023981D01*
X034835Y023981D01*
X034917Y024063D01*
X034917Y024691D01*
X034835Y024773D01*
X033971Y024773D01*
X033889Y024691D01*
X033889Y024067D01*
X033870Y024087D01*
X033696Y024159D01*
X033507Y024159D01*
X033332Y024087D01*
X033198Y023953D01*
X033126Y023778D01*
X033126Y023589D01*
X033198Y023414D01*
X033332Y023281D01*
X033507Y023208D01*
X033696Y023208D01*
X033870Y023281D01*
X034004Y023414D01*
X034076Y023589D01*
X034076Y023778D01*
X034020Y023914D02*
X036317Y023914D01*
X036226Y024072D02*
X036177Y024072D01*
X036177Y024063D02*
X036177Y024691D01*
X036095Y024773D01*
X035231Y024773D01*
X035149Y024691D01*
X035149Y024063D01*
X035231Y023981D01*
X036095Y023981D01*
X036177Y024063D01*
X036177Y024231D02*
X036215Y024231D01*
X036177Y024389D02*
X036276Y024389D01*
X036177Y024548D02*
X036513Y024548D01*
X036673Y024548D02*
X036812Y024548D01*
X036910Y024706D02*
X036162Y024706D01*
X035164Y024706D02*
X034903Y024706D01*
X034917Y024548D02*
X035149Y024548D01*
X035149Y024389D02*
X034917Y024389D01*
X034917Y024231D02*
X035149Y024231D01*
X035149Y024072D02*
X034917Y024072D01*
X034076Y023597D02*
X037543Y023597D01*
X036321Y023438D02*
X034014Y023438D01*
X033867Y023280D02*
X036232Y023280D01*
X036223Y023121D02*
X033054Y023121D01*
X032896Y023280D02*
X033335Y023280D01*
X033188Y023438D02*
X032737Y023438D01*
X032579Y023597D02*
X033126Y023597D01*
X033126Y023755D02*
X032420Y023755D01*
X032200Y023438D02*
X031468Y023438D01*
X031484Y023914D02*
X033182Y023914D01*
X033317Y024072D02*
X031004Y024072D01*
X031017Y024231D02*
X032115Y024231D01*
X031624Y024389D02*
X030965Y024389D01*
X030807Y024548D02*
X031564Y024548D01*
X031603Y024706D02*
X031260Y024706D01*
X031302Y024865D02*
X032106Y024865D01*
X032066Y025023D02*
X031251Y025023D01*
X030601Y024548D02*
X030601Y024548D01*
X030601Y024389D02*
X030601Y024389D01*
X030601Y024231D02*
X030601Y024231D01*
X030601Y024072D02*
X030601Y024072D01*
X030601Y023914D02*
X030601Y023914D01*
X030802Y023755D02*
X026891Y023755D01*
X026891Y023914D02*
X028684Y023914D01*
X028663Y024072D02*
X026891Y024072D01*
X026891Y024231D02*
X028663Y024231D01*
X028663Y024389D02*
X026891Y024389D01*
X026891Y024548D02*
X028663Y024548D01*
X028663Y024706D02*
X026891Y024706D01*
X026891Y024865D02*
X028663Y024865D01*
X028663Y025023D02*
X026891Y025023D01*
X026891Y025182D02*
X028663Y025182D01*
X028694Y025340D02*
X026891Y025340D01*
X026891Y025499D02*
X032066Y025499D01*
X032095Y025657D02*
X026966Y025657D01*
X027128Y025816D02*
X033421Y025816D01*
X033278Y025974D02*
X027290Y025974D01*
X027452Y026133D02*
X033272Y026133D01*
X033293Y026291D02*
X027614Y026291D01*
X027776Y026450D02*
X029194Y026450D01*
X029223Y026444D02*
X029085Y026471D01*
X028951Y026512D01*
X028821Y026566D01*
X028697Y026632D01*
X028580Y026710D01*
X028472Y026799D01*
X028372Y026899D01*
X028283Y027007D01*
X028205Y027124D01*
X028139Y027248D01*
X028085Y027378D01*
X028045Y027512D01*
X028017Y027650D01*
X028004Y027780D01*
X029353Y027780D01*
X029353Y027940D01*
X028004Y027940D01*
X028017Y028070D01*
X028045Y028208D01*
X028085Y028342D01*
X028139Y028472D01*
X028205Y028596D01*
X028283Y028713D01*
X028372Y028821D01*
X028472Y028921D01*
X028580Y029010D01*
X028697Y029088D01*
X028821Y029154D01*
X028951Y029208D01*
X029085Y029249D01*
X029223Y029276D01*
X029353Y029289D01*
X029353Y027940D01*
X029513Y027940D01*
X029513Y029289D01*
X029643Y029276D01*
X029781Y029249D01*
X029916Y029208D01*
X030045Y029154D01*
X030169Y029088D01*
X030286Y029010D01*
X030395Y028921D01*
X030494Y028821D01*
X030583Y028713D01*
X030661Y028596D01*
X030728Y028472D01*
X030781Y028342D01*
X030822Y028208D01*
X030850Y028070D01*
X030862Y027940D01*
X029513Y027940D01*
X029513Y027780D01*
X029513Y026431D01*
X029643Y026444D01*
X029781Y026471D01*
X029916Y026512D01*
X030045Y026566D01*
X030169Y026632D01*
X030286Y026710D01*
X030395Y026799D01*
X030494Y026899D01*
X030583Y027007D01*
X030661Y027124D01*
X030728Y027248D01*
X030781Y027378D01*
X030822Y027512D01*
X030850Y027650D01*
X030862Y027780D01*
X029513Y027780D01*
X029353Y027780D01*
X029353Y026431D01*
X029223Y026444D01*
X029353Y026450D02*
X029513Y026450D01*
X029513Y026608D02*
X029353Y026608D01*
X029353Y026767D02*
X029513Y026767D01*
X029513Y026925D02*
X029353Y026925D01*
X029353Y027084D02*
X029513Y027084D01*
X029513Y027242D02*
X029353Y027242D01*
X029353Y027401D02*
X029513Y027401D01*
X029513Y027559D02*
X029353Y027559D01*
X029353Y027718D02*
X029513Y027718D01*
X029513Y027876D02*
X032778Y027876D01*
X032711Y027835D02*
X032480Y027835D01*
X032434Y027823D01*
X032393Y027799D01*
X032359Y027766D01*
X032336Y027725D01*
X032323Y027679D01*
X032323Y027408D01*
X032711Y027408D01*
X032711Y027835D01*
X032711Y027718D02*
X032807Y027718D01*
X032807Y027559D02*
X032711Y027559D01*
X032711Y027401D02*
X030788Y027401D01*
X030831Y027559D02*
X032323Y027559D01*
X032334Y027718D02*
X030856Y027718D01*
X030853Y028035D02*
X032619Y028035D01*
X032501Y028193D02*
X030825Y028193D01*
X030778Y028352D02*
X032363Y028352D01*
X032363Y028510D02*
X030707Y028510D01*
X030613Y028669D02*
X032363Y028669D01*
X032253Y028827D02*
X030489Y028827D01*
X030316Y028986D02*
X032115Y028986D01*
X032093Y029144D02*
X030065Y029144D01*
X029513Y029144D02*
X029353Y029144D01*
X029353Y028986D02*
X029513Y028986D01*
X029513Y028827D02*
X029353Y028827D01*
X029353Y028669D02*
X029513Y028669D01*
X029513Y028510D02*
X029353Y028510D01*
X029353Y028352D02*
X029513Y028352D01*
X029513Y028193D02*
X029353Y028193D01*
X029353Y028035D02*
X029513Y028035D01*
X029353Y027876D02*
X027913Y027876D01*
X027913Y027718D02*
X028010Y027718D01*
X028035Y027559D02*
X027913Y027559D01*
X027913Y027401D02*
X028078Y027401D01*
X028142Y027242D02*
X027913Y027242D01*
X027913Y027084D02*
X028232Y027084D01*
X028351Y026925D02*
X027913Y026925D01*
X027913Y026767D02*
X028512Y026767D01*
X028742Y026608D02*
X027913Y026608D01*
X027913Y026585D02*
X027913Y026585D01*
X029672Y026450D02*
X033293Y026450D01*
X033293Y026608D02*
X030125Y026608D01*
X030355Y026767D02*
X033293Y026767D01*
X033773Y026767D02*
X033889Y026767D01*
X033889Y026857D02*
X033889Y026229D01*
X033971Y026147D01*
X034835Y026147D01*
X034917Y026229D01*
X034917Y026857D01*
X034835Y026939D01*
X034593Y026939D01*
X034593Y027363D01*
X034659Y027363D01*
X034733Y027437D01*
X034793Y027377D01*
X034793Y027144D01*
X035149Y026788D01*
X035149Y026229D01*
X035231Y026147D01*
X036095Y026147D01*
X036177Y026229D01*
X036177Y026857D01*
X036095Y026939D01*
X035536Y026939D01*
X035173Y027301D01*
X035173Y027377D01*
X035233Y027437D01*
X035307Y027363D01*
X035659Y027363D01*
X035709Y027413D01*
X035721Y027393D01*
X035755Y027359D01*
X035796Y027336D01*
X035842Y027323D01*
X035983Y027323D01*
X035983Y027936D01*
X035983Y027936D01*
X035983Y027323D01*
X036125Y027323D01*
X036171Y027336D01*
X036212Y027359D01*
X036245Y027393D01*
X036269Y027434D01*
X036281Y027480D01*
X036281Y027936D01*
X035983Y027936D01*
X035983Y027936D01*
X035983Y028549D01*
X035842Y028549D01*
X035796Y028537D01*
X035755Y028513D01*
X035723Y028482D01*
X035723Y028558D01*
X035687Y028646D01*
X035619Y028713D01*
X035269Y029063D01*
X035181Y029100D01*
X035057Y029100D01*
X034987Y029129D01*
X034880Y029129D01*
X034781Y029088D01*
X034705Y029012D01*
X034664Y028913D01*
X034664Y028807D01*
X034705Y028708D01*
X034781Y028632D01*
X034880Y028591D01*
X034987Y028591D01*
X035041Y028613D01*
X035144Y028509D01*
X034807Y028509D01*
X034733Y028436D01*
X034659Y028509D01*
X034307Y028509D01*
X034225Y028427D01*
X034225Y027949D01*
X034222Y027944D01*
X034213Y027935D01*
X034213Y026939D01*
X033971Y026939D01*
X033889Y026857D01*
X033822Y026925D02*
X033958Y026925D01*
X033903Y027084D02*
X034213Y027084D01*
X034213Y027242D02*
X033903Y027242D01*
X033903Y027401D02*
X034213Y027401D01*
X034213Y027559D02*
X033903Y027559D01*
X033899Y027718D02*
X034213Y027718D01*
X034213Y027876D02*
X033747Y027876D01*
X033698Y028035D02*
X034225Y028035D01*
X034225Y028193D02*
X033540Y028193D01*
X033903Y028352D02*
X034225Y028352D01*
X033903Y028510D02*
X035144Y028510D01*
X034745Y028669D02*
X033903Y028669D01*
X033903Y028827D02*
X034664Y028827D01*
X034694Y028986D02*
X033903Y028986D01*
X033747Y029144D02*
X035681Y029144D01*
X035522Y029303D02*
X033747Y029303D01*
X033747Y029461D02*
X034257Y029461D01*
X034225Y029620D02*
X033747Y029620D01*
X033267Y029620D02*
X033124Y029620D01*
X033126Y029621D02*
X033159Y029654D01*
X033161Y029657D01*
X033193Y029625D01*
X033267Y029625D01*
X033267Y029095D01*
X033193Y029095D01*
X033133Y029035D01*
X033073Y029095D01*
X032663Y029095D01*
X032573Y029185D01*
X032573Y029585D01*
X032711Y029585D01*
X032711Y030012D01*
X032323Y030012D01*
X032323Y030009D01*
X032273Y030059D01*
X032273Y030261D01*
X032323Y030311D01*
X032323Y030108D01*
X032711Y030108D01*
X032711Y030012D01*
X032807Y030012D01*
X032807Y029585D01*
X033039Y029585D01*
X033085Y029597D01*
X033126Y029621D01*
X033267Y029461D02*
X032573Y029461D01*
X032573Y029303D02*
X033267Y029303D01*
X033267Y029144D02*
X032615Y029144D01*
X032093Y029303D02*
X027745Y029303D01*
X027587Y029461D02*
X032093Y029461D01*
X032034Y029620D02*
X027428Y029620D01*
X027270Y029778D02*
X031876Y029778D01*
X031793Y029937D02*
X027111Y029937D01*
X026953Y030095D02*
X031793Y030095D01*
X031793Y030254D02*
X026891Y030254D01*
X026891Y030412D02*
X028663Y030412D01*
X028663Y030410D02*
X028745Y030328D01*
X030121Y030328D01*
X030203Y030410D01*
X030203Y031786D01*
X030121Y031868D01*
X028745Y031868D01*
X028663Y031786D01*
X028663Y030410D01*
X028663Y030571D02*
X026891Y030571D01*
X026891Y030729D02*
X028663Y030729D01*
X028663Y030888D02*
X026891Y030888D01*
X026891Y031046D02*
X028663Y031046D01*
X028663Y031205D02*
X026891Y031205D01*
X026891Y031363D02*
X028663Y031363D01*
X028663Y031522D02*
X026891Y031522D01*
X026891Y031680D02*
X028663Y031680D01*
X028716Y031839D02*
X026891Y031839D01*
X026891Y031997D02*
X031916Y031997D01*
X031858Y031839D02*
X030151Y031839D01*
X030203Y031680D02*
X031858Y031680D01*
X031858Y031522D02*
X030203Y031522D01*
X030203Y031363D02*
X031858Y031363D01*
X031858Y031205D02*
X030203Y031205D01*
X030203Y031046D02*
X031873Y031046D01*
X031958Y030888D02*
X030203Y030888D01*
X030203Y030729D02*
X032058Y030729D01*
X031904Y030571D02*
X030203Y030571D01*
X030203Y030412D02*
X031795Y030412D01*
X031897Y030563D02*
X031897Y030563D01*
X032273Y030254D02*
X032323Y030254D01*
X032273Y030095D02*
X032711Y030095D01*
X032711Y030108D02*
X032711Y030535D01*
X032521Y030535D01*
X032538Y030577D01*
X032538Y030793D01*
X032547Y030797D01*
X032671Y030921D01*
X032738Y031083D01*
X032738Y031858D01*
X032671Y032019D01*
X032547Y032143D01*
X032495Y032165D01*
X033101Y032165D01*
X033049Y032143D01*
X032925Y032019D01*
X032858Y031858D01*
X032858Y031083D01*
X032925Y030921D01*
X033049Y030797D01*
X033210Y030730D01*
X033385Y030730D01*
X033547Y030797D01*
X033671Y030921D01*
X033738Y031083D01*
X033738Y031858D01*
X033671Y032019D01*
X033547Y032143D01*
X033495Y032165D01*
X034101Y032165D01*
X034049Y032143D01*
X033925Y032019D01*
X033858Y031858D01*
X033858Y031083D01*
X033925Y030921D01*
X034049Y030797D01*
X034210Y030730D01*
X034385Y030730D01*
X034547Y030797D01*
X034671Y030921D01*
X034738Y031083D01*
X034738Y031858D01*
X034671Y032019D01*
X034547Y032143D01*
X034495Y032165D01*
X035025Y032165D01*
X034985Y032136D01*
X034932Y032083D01*
X034887Y032022D01*
X034853Y031954D01*
X034830Y031883D01*
X034818Y031808D01*
X034818Y031490D01*
X035278Y031490D01*
X035278Y031450D01*
X035318Y031450D01*
X035318Y030690D01*
X035336Y030690D01*
X035406Y030701D01*
X035343Y030639D01*
X035343Y030557D01*
X035307Y030557D01*
X035233Y030483D01*
X035159Y030557D01*
X034807Y030557D01*
X034733Y030483D01*
X034659Y030557D01*
X034307Y030557D01*
X034225Y030475D01*
X034225Y030224D01*
X033903Y030224D01*
X033903Y030413D01*
X033821Y030495D01*
X033193Y030495D01*
X033161Y030463D01*
X033159Y030466D01*
X033126Y030499D01*
X033085Y030523D01*
X033039Y030535D01*
X032807Y030535D01*
X032807Y030108D01*
X032711Y030108D01*
X032711Y030254D02*
X032807Y030254D01*
X032807Y030412D02*
X032711Y030412D01*
X032535Y030571D02*
X035343Y030571D01*
X035278Y030690D02*
X035278Y031450D01*
X034818Y031450D01*
X034818Y031132D01*
X034830Y031058D01*
X034853Y030986D01*
X034887Y030919D01*
X034932Y030858D01*
X034985Y030804D01*
X035046Y030760D01*
X035114Y030725D01*
X035185Y030702D01*
X035260Y030690D01*
X035278Y030690D01*
X035278Y030729D02*
X035318Y030729D01*
X035318Y030888D02*
X035278Y030888D01*
X035278Y031046D02*
X035318Y031046D01*
X035318Y031205D02*
X035278Y031205D01*
X035278Y031363D02*
X035318Y031363D01*
X035318Y031450D02*
X035318Y031490D01*
X035778Y031490D01*
X035778Y031808D01*
X035766Y031883D01*
X035743Y031954D01*
X035708Y032022D01*
X035664Y032083D01*
X035611Y032136D01*
X035571Y032165D01*
X038115Y032165D01*
X038063Y032113D01*
X038063Y031950D01*
X037355Y031950D01*
X037155Y031750D01*
X037043Y031639D01*
X037043Y031050D01*
X035764Y031050D01*
X035766Y031058D01*
X035778Y031132D01*
X035778Y031450D01*
X035318Y031450D01*
X035778Y031522D02*
X037043Y031522D01*
X037043Y031363D02*
X035778Y031363D01*
X035778Y031205D02*
X037043Y031205D01*
X037085Y031680D02*
X035778Y031680D01*
X035773Y031839D02*
X037243Y031839D01*
X038063Y031997D02*
X035721Y031997D01*
X035584Y032156D02*
X038106Y032156D01*
X037243Y030571D02*
X036803Y030571D01*
X036902Y030412D02*
X037243Y030412D01*
X037243Y030254D02*
X036880Y030254D01*
X036696Y030095D02*
X037198Y030095D01*
X037164Y029937D02*
X036241Y029937D01*
X036241Y030095D02*
X036570Y030095D01*
X036884Y029778D02*
X037235Y029778D01*
X036539Y028986D02*
X035347Y028986D01*
X035506Y028827D02*
X036643Y028827D01*
X036643Y028669D02*
X035664Y028669D01*
X035723Y028510D02*
X035751Y028510D01*
X035983Y028510D02*
X035983Y028510D01*
X035983Y028549D02*
X035983Y027936D01*
X035983Y027936D01*
X036281Y027936D01*
X036281Y028393D01*
X036269Y028439D01*
X036245Y028480D01*
X036212Y028513D01*
X036171Y028537D01*
X036125Y028549D01*
X035983Y028549D01*
X035983Y028352D02*
X035983Y028352D01*
X035983Y028193D02*
X035983Y028193D01*
X035983Y028035D02*
X035983Y028035D01*
X035983Y027876D02*
X035983Y027876D01*
X035983Y027718D02*
X035983Y027718D01*
X035983Y027559D02*
X035983Y027559D01*
X035983Y027401D02*
X035983Y027401D01*
X035717Y027401D02*
X035697Y027401D01*
X035270Y027401D02*
X035197Y027401D01*
X035233Y027242D02*
X036643Y027242D01*
X036643Y027084D02*
X035391Y027084D01*
X035149Y026767D02*
X034917Y026767D01*
X034917Y026608D02*
X035149Y026608D01*
X035149Y026450D02*
X034917Y026450D01*
X034917Y026291D02*
X035149Y026291D01*
X035012Y026925D02*
X034849Y026925D01*
X034854Y027084D02*
X034593Y027084D01*
X034593Y027242D02*
X034793Y027242D01*
X034770Y027401D02*
X034697Y027401D01*
X033889Y026608D02*
X033773Y026608D01*
X033773Y026450D02*
X033889Y026450D01*
X033889Y026291D02*
X033773Y026291D01*
X033794Y026133D02*
X037092Y026133D01*
X036934Y026291D02*
X036177Y026291D01*
X036177Y026450D02*
X036775Y026450D01*
X036643Y026608D02*
X036177Y026608D01*
X036177Y026767D02*
X036643Y026767D01*
X036643Y026925D02*
X036109Y026925D01*
X036250Y027401D02*
X036643Y027401D01*
X036643Y027559D02*
X036281Y027559D01*
X036281Y027718D02*
X036643Y027718D01*
X036643Y027876D02*
X036281Y027876D01*
X036281Y028035D02*
X036643Y028035D01*
X036643Y028193D02*
X036281Y028193D01*
X036281Y028352D02*
X036643Y028352D01*
X036643Y028510D02*
X036215Y028510D01*
X035257Y029461D02*
X035210Y029461D01*
X034757Y029461D02*
X034710Y029461D01*
X034225Y030254D02*
X033903Y030254D01*
X033903Y030412D02*
X034225Y030412D01*
X033958Y030888D02*
X033637Y030888D01*
X033723Y031046D02*
X033873Y031046D01*
X033858Y031205D02*
X033738Y031205D01*
X033738Y031363D02*
X033858Y031363D01*
X033858Y031522D02*
X033738Y031522D01*
X033738Y031680D02*
X033858Y031680D01*
X033858Y031839D02*
X033738Y031839D01*
X033680Y031997D02*
X033916Y031997D01*
X034078Y032156D02*
X033517Y032156D01*
X033078Y032156D02*
X032517Y032156D01*
X032680Y031997D02*
X032916Y031997D01*
X032858Y031839D02*
X032738Y031839D01*
X032738Y031680D02*
X032858Y031680D01*
X032858Y031522D02*
X032738Y031522D01*
X032738Y031363D02*
X032858Y031363D01*
X032858Y031205D02*
X032738Y031205D01*
X032723Y031046D02*
X032873Y031046D01*
X032958Y030888D02*
X032637Y030888D01*
X032538Y030729D02*
X035107Y030729D01*
X034910Y030888D02*
X034637Y030888D01*
X034723Y031046D02*
X034834Y031046D01*
X034818Y031205D02*
X034738Y031205D01*
X034738Y031363D02*
X034818Y031363D01*
X034818Y031522D02*
X034738Y031522D01*
X034738Y031680D02*
X034818Y031680D01*
X034823Y031839D02*
X034738Y031839D01*
X034680Y031997D02*
X034875Y031997D01*
X035012Y032156D02*
X034517Y032156D01*
X035813Y030571D02*
X036464Y030571D01*
X038569Y030095D02*
X038900Y030095D01*
X039120Y029778D02*
X039320Y029778D01*
X039279Y029937D02*
X039478Y029937D01*
X039323Y030095D02*
X041930Y030095D01*
X042043Y029937D02*
X040322Y029937D01*
X040481Y029778D02*
X042043Y029778D01*
X042043Y029620D02*
X040569Y029620D01*
X040631Y029461D02*
X042043Y029461D01*
X042043Y029303D02*
X040631Y029303D01*
X040616Y029144D02*
X042043Y029144D01*
X042043Y028986D02*
X040550Y028986D01*
X040435Y028827D02*
X042043Y028827D01*
X042043Y028669D02*
X040224Y028669D01*
X039231Y029620D02*
X038555Y029620D01*
X039323Y030254D02*
X041771Y030254D01*
X041613Y030412D02*
X039323Y030412D01*
X039603Y030571D02*
X041454Y030571D01*
X037251Y025974D02*
X033789Y025974D01*
X033646Y025816D02*
X037409Y025816D01*
X033904Y024706D02*
X032976Y024706D01*
X032976Y024548D02*
X033889Y024548D01*
X033889Y024389D02*
X032976Y024389D01*
X032967Y024231D02*
X033889Y024231D01*
X033885Y024072D02*
X033889Y024072D01*
X032517Y023121D02*
X030987Y023121D01*
X030973Y023280D02*
X032359Y023280D01*
X032676Y022963D02*
X030931Y022963D01*
X030287Y022963D02*
X027056Y022963D01*
X027156Y023121D02*
X030231Y023121D01*
X030245Y023280D02*
X027187Y023280D01*
X027164Y023438D02*
X030341Y023438D01*
X030281Y023914D02*
X030183Y023914D01*
X030203Y024389D02*
X030237Y024389D01*
X030203Y024548D02*
X030395Y024548D01*
X030203Y025182D02*
X032066Y025182D01*
X032493Y025340D02*
X030173Y025340D01*
X030516Y026925D02*
X032389Y026925D01*
X032323Y027084D02*
X030634Y027084D01*
X030724Y027242D02*
X032323Y027242D01*
X032711Y027242D02*
X032807Y027242D01*
X032807Y027084D02*
X032711Y027084D01*
X032711Y026925D02*
X032807Y026925D01*
X028802Y029144D02*
X027904Y029144D01*
X027913Y028986D02*
X028551Y028986D01*
X028378Y028827D02*
X027913Y028827D01*
X027913Y028669D02*
X028254Y028669D01*
X028159Y028510D02*
X027913Y028510D01*
X027913Y028352D02*
X028089Y028352D01*
X028042Y028193D02*
X027913Y028193D01*
X027913Y028035D02*
X028014Y028035D01*
X032711Y029620D02*
X032807Y029620D01*
X032807Y029778D02*
X032711Y029778D01*
X032711Y029937D02*
X032807Y029937D01*
X032078Y032156D02*
X026891Y032156D01*
X016295Y025816D02*
X016166Y025816D01*
X016166Y025657D02*
X016295Y025657D01*
X016295Y025499D02*
X016121Y025499D01*
X016126Y025340D02*
X016295Y025340D01*
X016295Y025182D02*
X016126Y025182D01*
X016126Y025023D02*
X016295Y025023D01*
X016295Y024865D02*
X016125Y024865D01*
X016295Y024706D02*
X015881Y024706D01*
X015881Y024548D02*
X016295Y024548D01*
X016295Y024389D02*
X015881Y024389D01*
X015881Y024231D02*
X016295Y024231D01*
X016295Y024072D02*
X015814Y024072D01*
X015656Y023914D02*
X016295Y023914D01*
X016295Y023755D02*
X015497Y023755D01*
X015339Y023597D02*
X016110Y023597D01*
X016820Y022963D02*
X026367Y022963D01*
X027077Y023597D02*
X030807Y023597D01*
X030877Y023438D02*
X030891Y023438D01*
X029863Y022329D02*
X029307Y022329D01*
X029468Y022170D02*
X029703Y022170D01*
X029645Y022012D02*
X029525Y022012D01*
X029525Y021853D02*
X029645Y021853D01*
X029645Y021695D02*
X029525Y021695D01*
X029525Y021536D02*
X029645Y021536D01*
X029645Y021378D02*
X029525Y021378D01*
X029510Y021219D02*
X029661Y021219D01*
X029747Y021061D02*
X029424Y021061D01*
X029325Y020902D02*
X029895Y020902D01*
X029848Y020744D02*
X029325Y020744D01*
X029325Y020585D02*
X029690Y020585D01*
X029474Y020427D02*
X029296Y020427D01*
X029287Y020268D02*
X029147Y020268D01*
X029264Y020110D02*
X028988Y020110D01*
X028830Y019951D02*
X029362Y019951D01*
X028785Y020585D02*
X025858Y020585D01*
X025869Y020744D02*
X028845Y020744D01*
X028845Y020902D02*
X025869Y020902D01*
X025869Y021061D02*
X028747Y021061D01*
X028661Y021219D02*
X025869Y021219D01*
X025869Y021378D02*
X028645Y021378D01*
X028645Y021536D02*
X025869Y021536D01*
X025869Y021695D02*
X028645Y021695D01*
X028645Y021853D02*
X025869Y021853D01*
X025847Y022012D02*
X028645Y022012D01*
X028703Y022170D02*
X025710Y022170D01*
X025573Y022329D02*
X028863Y022329D01*
X028627Y020427D02*
X025735Y020427D01*
X024499Y020902D02*
X022068Y020902D01*
X022068Y020833D02*
X021996Y020658D01*
X021862Y020525D01*
X021688Y020452D01*
X021499Y020452D01*
X021324Y020525D01*
X021190Y020658D01*
X021118Y020833D01*
X021118Y021022D01*
X021190Y021197D01*
X021324Y021331D01*
X021499Y021403D01*
X021688Y021403D01*
X021862Y021331D01*
X021996Y021197D01*
X022068Y021022D01*
X022068Y020833D01*
X022031Y020744D02*
X024375Y020744D01*
X024365Y021061D02*
X022053Y021061D01*
X021974Y021219D02*
X024258Y021219D01*
X024208Y021378D02*
X021749Y021378D01*
X021437Y021378D02*
X019008Y021378D01*
X019011Y021395D02*
X019011Y021428D01*
X018593Y021428D01*
X018593Y021428D01*
X018593Y021428D01*
X018593Y021010D01*
X018626Y021010D01*
X018691Y021020D01*
X018754Y021041D01*
X018812Y021070D01*
X018826Y021081D01*
X018794Y021003D01*
X018794Y020853D01*
X018852Y020714D01*
X018958Y020607D01*
X018982Y020597D01*
X018982Y020514D01*
X020143Y019353D01*
X020143Y019299D01*
X020184Y019201D01*
X020260Y019125D01*
X020359Y019084D01*
X020466Y019084D01*
X020564Y019125D01*
X020640Y019201D01*
X020681Y019299D01*
X020681Y019406D01*
X020640Y019505D01*
X020564Y019581D01*
X020466Y019622D01*
X020412Y019622D01*
X019406Y020628D01*
X019492Y020714D01*
X019550Y020853D01*
X019550Y021003D01*
X019492Y021142D01*
X019386Y021248D01*
X019247Y021306D01*
X019097Y021306D01*
X018974Y021255D01*
X018980Y021267D01*
X019001Y021330D01*
X019011Y021395D01*
X018997Y021536D02*
X024226Y021536D01*
X024330Y021695D02*
X018916Y021695D01*
X019068Y021853D02*
X024830Y021853D01*
X025002Y022012D02*
X019204Y022012D01*
X019224Y022170D02*
X025093Y022170D01*
X025093Y022329D02*
X019224Y022329D01*
X019248Y022487D02*
X025069Y022487D01*
X025081Y022646D02*
X019237Y022646D01*
X018732Y022646D02*
X015123Y022646D01*
X015123Y022487D02*
X018720Y022487D01*
X018744Y022329D02*
X015123Y022329D01*
X015123Y022170D02*
X018706Y022170D01*
X018117Y022012D02*
X015266Y022012D01*
X015425Y021853D02*
X017958Y021853D01*
X017827Y021695D02*
X015583Y021695D01*
X015742Y021536D02*
X017810Y021536D01*
X017810Y021378D02*
X015900Y021378D01*
X016059Y021219D02*
X017810Y021219D01*
X017810Y021061D02*
X016217Y021061D01*
X016376Y020902D02*
X017810Y020902D01*
X017823Y020744D02*
X016534Y020744D01*
X016693Y020585D02*
X017949Y020585D01*
X018108Y020427D02*
X016851Y020427D01*
X017010Y020268D02*
X018253Y020268D01*
X018373Y020110D02*
X017168Y020110D01*
X017327Y019951D02*
X019545Y019951D01*
X019387Y020110D02*
X018829Y020110D01*
X018949Y020268D02*
X019228Y020268D01*
X019070Y020427D02*
X018979Y020427D01*
X018982Y020585D02*
X018940Y020585D01*
X018839Y020744D02*
X018797Y020744D01*
X018794Y020902D02*
X018311Y020902D01*
X018290Y021061D02*
X018394Y021061D01*
X018593Y021061D02*
X018593Y021061D01*
X018593Y021219D02*
X018593Y021219D01*
X018593Y021378D02*
X018593Y021378D01*
X018793Y021061D02*
X018818Y021061D01*
X019415Y021219D02*
X021212Y021219D01*
X021134Y021061D02*
X019526Y021061D01*
X019550Y020902D02*
X021118Y020902D01*
X021155Y020744D02*
X019505Y020744D01*
X019449Y020585D02*
X021264Y020585D01*
X021923Y020585D02*
X022950Y020585D01*
X022792Y020427D02*
X019607Y020427D01*
X019766Y020268D02*
X022633Y020268D01*
X022475Y020110D02*
X019924Y020110D01*
X020083Y019951D02*
X022316Y019951D01*
X022158Y019793D02*
X020241Y019793D01*
X020400Y019634D02*
X021999Y019634D01*
X021841Y019476D02*
X020652Y019476D01*
X020681Y019317D02*
X021682Y019317D01*
X021524Y019159D02*
X020598Y019159D01*
X020226Y019159D02*
X018119Y019159D01*
X017961Y019317D02*
X020143Y019317D01*
X020021Y019476D02*
X017802Y019476D01*
X017644Y019634D02*
X019862Y019634D01*
X019704Y019793D02*
X017485Y019793D01*
X016120Y018366D02*
X022071Y018366D01*
X023799Y017098D02*
X019323Y017098D01*
X019323Y016940D02*
X023764Y016940D01*
X023832Y016781D02*
X019323Y016781D01*
X019323Y016623D02*
X021216Y016623D01*
X021205Y016612D02*
X021164Y016513D01*
X021164Y016407D01*
X021205Y016308D01*
X021281Y016232D01*
X021380Y016191D01*
X021434Y016191D01*
X021843Y015781D01*
X021955Y015670D01*
X022043Y015670D01*
X022081Y015632D01*
X022180Y015591D01*
X022287Y015591D01*
X022386Y015632D01*
X022461Y015708D01*
X022502Y015807D01*
X022502Y015913D01*
X022461Y016012D01*
X022386Y016088D01*
X022287Y016129D01*
X022180Y016129D01*
X022081Y016088D01*
X022078Y016084D01*
X021702Y016460D01*
X021702Y016513D01*
X021661Y016612D01*
X021586Y016688D01*
X021487Y016729D01*
X021380Y016729D01*
X021281Y016688D01*
X021205Y016612D01*
X021164Y016464D02*
X019323Y016464D01*
X019323Y016306D02*
X021208Y016306D01*
X021478Y016147D02*
X020842Y016147D01*
X020836Y016169D02*
X020813Y016210D01*
X020779Y016244D01*
X020738Y016268D01*
X020692Y016280D01*
X020421Y016280D01*
X020421Y015892D01*
X020849Y015892D01*
X020849Y016124D01*
X020836Y016169D01*
X020849Y015989D02*
X021636Y015989D01*
X021795Y015830D02*
X020421Y015830D01*
X020325Y015830D02*
X019344Y015830D01*
X019323Y015989D02*
X019898Y015989D01*
X019898Y015892D02*
X019898Y016124D01*
X019910Y016169D01*
X019934Y016210D01*
X019968Y016244D01*
X020009Y016268D01*
X020054Y016280D01*
X020325Y016280D01*
X020325Y015892D01*
X019898Y015892D01*
X019898Y015672D02*
X019402Y015672D01*
X019363Y015513D02*
X019914Y015513D01*
X019938Y015355D02*
X018036Y015355D01*
X017831Y015355D02*
X016686Y015355D01*
X016617Y015513D02*
X018903Y015513D01*
X018864Y015672D02*
X016639Y015672D01*
X016639Y015902D02*
X016639Y016134D01*
X016626Y016179D01*
X016603Y016220D01*
X016569Y016254D01*
X016528Y016278D01*
X016482Y016290D01*
X016211Y016290D01*
X016211Y015902D01*
X016639Y015902D01*
X016639Y015989D02*
X018943Y015989D01*
X018943Y016147D02*
X016635Y016147D01*
X016211Y016147D02*
X016115Y016147D01*
X016115Y016290D02*
X015844Y016290D01*
X015799Y016278D01*
X015758Y016254D01*
X015724Y016220D01*
X015700Y016179D01*
X015688Y016134D01*
X015688Y015902D01*
X016115Y015902D01*
X016115Y016290D01*
X016115Y015989D02*
X016211Y015989D01*
X016211Y015830D02*
X018923Y015830D01*
X019323Y016147D02*
X019904Y016147D01*
X020325Y016147D02*
X020421Y016147D01*
X020421Y015989D02*
X020325Y015989D01*
X020849Y015672D02*
X021953Y015672D01*
X022425Y015672D02*
X024364Y015672D01*
X024450Y015513D02*
X020833Y015513D01*
X020809Y015355D02*
X021355Y015355D01*
X021512Y015355D02*
X022955Y015355D01*
X023112Y015355D02*
X024938Y015355D01*
X024914Y015513D02*
X024817Y015513D01*
X024875Y015830D02*
X025325Y015830D01*
X024898Y015989D02*
X024624Y015989D01*
X024465Y016147D02*
X024904Y016147D01*
X024245Y015830D02*
X022502Y015830D01*
X022471Y015989D02*
X024086Y015989D01*
X023928Y016147D02*
X022015Y016147D01*
X021857Y016306D02*
X023843Y016306D01*
X023843Y016464D02*
X021702Y016464D01*
X021651Y016623D02*
X023843Y016623D01*
X025000Y014721D02*
X020747Y014721D01*
X020000Y014721D02*
X016527Y014721D01*
X015923Y014562D02*
X015673Y014562D01*
X015673Y014721D02*
X015800Y014721D01*
X015728Y014879D02*
X015673Y014879D01*
X015673Y015038D02*
X015728Y015038D01*
X015728Y015196D02*
X015673Y015196D01*
X015673Y015355D02*
X015728Y015355D01*
X015709Y015513D02*
X015673Y015513D01*
X015673Y015672D02*
X015688Y015672D01*
X015673Y015830D02*
X016115Y015830D01*
X015688Y015989D02*
X015673Y015989D01*
X015673Y016147D02*
X015692Y016147D01*
X015673Y016306D02*
X018943Y016306D01*
X018943Y016464D02*
X015673Y016464D01*
X015640Y016623D02*
X018943Y016623D01*
X018943Y016781D02*
X015481Y016781D01*
X015255Y016470D02*
X015293Y016431D01*
X015293Y015217D01*
X015283Y015254D01*
X015260Y015295D01*
X015226Y015328D01*
X015185Y015352D01*
X015139Y015364D01*
X015007Y015364D01*
X014956Y015364D01*
X015197Y015605D01*
X015197Y015619D01*
X015256Y015678D01*
X015256Y016266D01*
X015174Y016348D01*
X014841Y016348D01*
X014759Y016266D01*
X014759Y015704D01*
X014605Y015550D01*
X013707Y015550D01*
X013709Y015554D01*
X013709Y015786D01*
X013281Y015786D01*
X013281Y015882D01*
X013709Y015882D01*
X013709Y015895D01*
X013780Y015824D01*
X013847Y015757D01*
X013936Y015720D01*
X014011Y015720D01*
X014011Y015678D01*
X014093Y015596D01*
X014426Y015596D01*
X014508Y015678D01*
X014508Y016266D01*
X014473Y016300D01*
X014473Y016470D01*
X015255Y016470D01*
X015261Y016464D02*
X014473Y016464D01*
X014473Y016306D02*
X014799Y016306D01*
X014759Y016147D02*
X014508Y016147D01*
X014508Y015989D02*
X014759Y015989D01*
X014759Y015830D02*
X014508Y015830D01*
X014501Y015672D02*
X014726Y015672D01*
X015105Y015513D02*
X015293Y015513D01*
X015293Y015355D02*
X015176Y015355D01*
X015007Y015355D02*
X015007Y015355D01*
X015007Y015364D02*
X015007Y014948D01*
X015007Y014948D01*
X015007Y015364D01*
X015007Y015196D02*
X015007Y015196D01*
X015007Y015038D02*
X015007Y015038D01*
X015249Y015672D02*
X015293Y015672D01*
X015293Y015830D02*
X015256Y015830D01*
X015256Y015989D02*
X015293Y015989D01*
X015293Y016147D02*
X015256Y016147D01*
X015216Y016306D02*
X015293Y016306D01*
X014236Y016781D02*
X013742Y016781D01*
X013742Y016940D02*
X018943Y016940D01*
X018943Y017098D02*
X013742Y017098D01*
X013742Y017257D02*
X018943Y017257D01*
X018943Y017415D02*
X013742Y017415D01*
X013742Y017574D02*
X018943Y017574D01*
X018943Y017732D02*
X013742Y017732D01*
X013742Y017891D02*
X015902Y017891D01*
X015844Y018049D02*
X015708Y018049D01*
X015241Y018049D02*
X013648Y018049D01*
X013637Y018059D02*
X013637Y018059D01*
X013489Y018208D02*
X014661Y018208D01*
X014527Y018366D02*
X013331Y018366D01*
X013172Y018525D02*
X014438Y018525D01*
X014280Y018683D02*
X013852Y018683D01*
X013885Y018842D02*
X014121Y018842D01*
X013963Y019000D02*
X013815Y019000D01*
X013809Y019154D02*
X013809Y019154D01*
X013427Y019159D02*
X012538Y019159D01*
X012697Y019000D02*
X013418Y019000D01*
X013348Y018842D02*
X012855Y018842D01*
X013014Y018683D02*
X013381Y018683D01*
X013427Y019317D02*
X012126Y019317D01*
X011967Y019476D02*
X013427Y019476D01*
X013427Y019634D02*
X011809Y019634D01*
X011817Y019793D02*
X013427Y019793D01*
X013427Y019951D02*
X011807Y019951D01*
X011300Y019951D02*
X008398Y019951D01*
X008460Y020110D02*
X011314Y020110D01*
X011314Y020268D02*
X008481Y020268D01*
X008481Y020427D02*
X011314Y020427D01*
X011314Y020585D02*
X008481Y020585D01*
X007729Y020585D02*
X007729Y020585D01*
X007729Y020577D02*
X007729Y020723D01*
X007729Y020577D01*
X007729Y020577D01*
X007473Y020577D02*
X007473Y020577D01*
X007473Y020723D01*
X007473Y020577D01*
X007473Y020585D02*
X007473Y020585D01*
X007473Y020306D02*
X007729Y020306D01*
X007473Y020306D01*
X007473Y020306D01*
X007729Y020306D02*
X007729Y020306D01*
X007729Y020036D02*
X007729Y019890D01*
X007729Y020036D01*
X007729Y020036D01*
X007729Y019951D02*
X007729Y019951D01*
X007473Y019951D02*
X007473Y019951D01*
X007213Y019793D02*
X011291Y019793D01*
X011314Y019634D02*
X007213Y019634D01*
X007213Y019476D02*
X011325Y019476D01*
X011447Y019317D02*
X007213Y019317D01*
X007213Y019159D02*
X011606Y019159D01*
X011764Y019000D02*
X007213Y019000D01*
X007165Y018842D02*
X011923Y018842D01*
X012335Y018683D02*
X006996Y018683D01*
X007138Y018795D02*
X007138Y018795D01*
X006837Y018525D02*
X012493Y018525D01*
X012652Y018366D02*
X007938Y018366D01*
X007924Y018380D02*
X005962Y018380D01*
X005847Y018264D01*
X005718Y018135D01*
X005718Y017990D01*
X005289Y017990D01*
X005207Y017908D01*
X005207Y017854D01*
X004857Y017854D01*
X004787Y017882D01*
X004680Y017882D01*
X004610Y017854D01*
X003344Y017854D01*
X003344Y017861D01*
X003262Y017943D01*
X002753Y017943D01*
X002670Y017861D01*
X002670Y017272D01*
X002753Y017190D01*
X002767Y017190D01*
X002767Y016895D01*
X002693Y016895D01*
X002661Y016863D01*
X002659Y016866D01*
X002626Y016899D01*
X002585Y016923D01*
X002539Y016935D01*
X002307Y016935D01*
X002307Y016508D01*
X002211Y016508D01*
X002211Y016412D01*
X001823Y016412D01*
X001823Y016141D01*
X001836Y016095D01*
X001859Y016054D01*
X001893Y016021D01*
X001934Y015997D01*
X001980Y015985D01*
X002211Y015985D01*
X002211Y016412D01*
X002307Y016412D01*
X002307Y015985D01*
X002539Y015985D01*
X002585Y015997D01*
X002626Y016021D01*
X002659Y016054D01*
X002661Y016057D01*
X002693Y016025D01*
X002767Y016025D01*
X002767Y015295D01*
X002693Y015295D01*
X002633Y015235D01*
X002573Y015295D01*
X001945Y015295D01*
X001863Y015213D01*
X001863Y015100D01*
X001733Y015100D01*
X001573Y015259D01*
X001573Y017961D01*
X001726Y018114D01*
X002296Y018114D01*
X002296Y018059D01*
X002373Y017983D01*
X002278Y017983D01*
X002278Y017585D01*
X002636Y017585D01*
X002636Y017826D01*
X002624Y017872D01*
X002600Y017913D01*
X002567Y017947D01*
X002526Y017970D01*
X002499Y017977D01*
X002888Y017977D01*
X002970Y018059D01*
X002970Y018648D01*
X002888Y018730D01*
X002873Y018730D01*
X002873Y018937D01*
X002902Y019007D01*
X002902Y019113D01*
X002861Y019212D01*
X002786Y019288D01*
X002687Y019329D01*
X002580Y019329D01*
X002481Y019288D01*
X002405Y019212D01*
X002364Y019113D01*
X002364Y019007D01*
X002393Y018937D01*
X002393Y018730D01*
X002378Y018730D01*
X002296Y018648D01*
X002296Y018594D01*
X001579Y018594D01*
X001491Y018557D01*
X001197Y018263D01*
X001130Y018196D01*
X001093Y018108D01*
X001093Y015112D01*
X001130Y015024D01*
X001430Y014724D01*
X001497Y014657D01*
X001586Y014620D01*
X001863Y014620D01*
X001863Y014507D01*
X001945Y014425D01*
X002573Y014425D01*
X002633Y014485D01*
X002693Y014425D01*
X003321Y014425D01*
X003403Y014507D01*
X003403Y015213D01*
X003321Y015295D01*
X003247Y015295D01*
X003247Y016025D01*
X003321Y016025D01*
X003403Y016107D01*
X003403Y016813D01*
X003321Y016895D01*
X003247Y016895D01*
X003247Y017190D01*
X003262Y017190D01*
X003344Y017272D01*
X003344Y017374D01*
X004610Y017374D01*
X004680Y017345D01*
X004787Y017345D01*
X004857Y017374D01*
X005207Y017374D01*
X005207Y017319D01*
X005246Y017280D01*
X005042Y017280D01*
X004842Y017080D01*
X004713Y016951D01*
X004713Y016895D01*
X004593Y016895D01*
X004561Y016863D01*
X004559Y016866D01*
X004526Y016899D01*
X004485Y016923D01*
X004439Y016935D01*
X004207Y016935D01*
X004207Y016508D01*
X004111Y016508D01*
X004111Y016412D01*
X003723Y016412D01*
X003723Y016141D01*
X003736Y016095D01*
X003759Y016054D01*
X003793Y016021D01*
X003834Y015997D01*
X003880Y015985D01*
X004111Y015985D01*
X004111Y016412D01*
X004207Y016412D01*
X004207Y015985D01*
X004439Y015985D01*
X004485Y015997D01*
X004526Y016021D01*
X004559Y016054D01*
X004561Y016057D01*
X004593Y016025D01*
X004693Y016025D01*
X004693Y015983D01*
X004664Y015913D01*
X004664Y015807D01*
X004705Y015708D01*
X004781Y015632D01*
X004880Y015591D01*
X004987Y015591D01*
X005086Y015632D01*
X005161Y015708D01*
X005202Y015807D01*
X005202Y015913D01*
X005173Y015983D01*
X005173Y016025D01*
X005221Y016025D01*
X005303Y016107D01*
X005303Y016813D01*
X005277Y016840D01*
X005645Y016840D01*
X005555Y016750D01*
X005443Y016639D01*
X005443Y015481D01*
X006043Y014881D01*
X006043Y014550D01*
X006005Y014512D01*
X005964Y014413D01*
X005964Y014307D01*
X006005Y014208D01*
X006081Y014132D01*
X006180Y014091D01*
X006287Y014091D01*
X006386Y014132D01*
X006461Y014208D01*
X006502Y014307D01*
X006502Y014413D01*
X006461Y014512D01*
X006423Y014550D01*
X006423Y014690D01*
X006481Y014632D01*
X006580Y014591D01*
X006687Y014591D01*
X006786Y014632D01*
X006861Y014708D01*
X006902Y014807D01*
X006902Y014913D01*
X006861Y015012D01*
X006786Y015088D01*
X006687Y015129D01*
X006633Y015129D01*
X006023Y015739D01*
X006023Y016381D01*
X006639Y016997D01*
X006639Y017197D01*
X006705Y017197D01*
X006705Y017614D01*
X006705Y017940D01*
X006705Y017940D01*
X006705Y017614D01*
X006705Y017614D01*
X006705Y017614D01*
X006668Y017614D01*
X006668Y017614D01*
X006705Y017614D01*
X006743Y017614D01*
X006743Y017614D01*
X006705Y017614D01*
X006705Y017614D01*
X006705Y017614D01*
X006705Y017197D01*
X006771Y017197D01*
X006771Y016167D01*
X006643Y016039D01*
X006643Y015481D01*
X006755Y015370D01*
X008055Y014070D01*
X010188Y014070D01*
X010164Y014013D01*
X010164Y013907D01*
X010205Y013808D01*
X010281Y013732D01*
X010380Y013691D01*
X010487Y013691D01*
X010586Y013732D01*
X010661Y013808D01*
X010702Y013907D01*
X010702Y014013D01*
X010661Y014112D01*
X010623Y014150D01*
X010623Y014239D01*
X010523Y014339D01*
X010523Y014627D01*
X010603Y014707D01*
X010603Y015413D01*
X010521Y015495D01*
X010397Y015495D01*
X010397Y016025D01*
X010521Y016025D01*
X010603Y016107D01*
X010603Y016813D01*
X010521Y016895D01*
X009893Y016895D01*
X009833Y016835D01*
X009773Y016895D01*
X009145Y016895D01*
X009063Y016813D01*
X009063Y016650D01*
X008412Y016650D01*
X008175Y016887D01*
X008175Y017237D01*
X008378Y017237D01*
X008460Y017319D01*
X008460Y017360D01*
X008750Y017360D01*
X008820Y017331D01*
X008927Y017331D01*
X009026Y017372D01*
X009101Y017448D01*
X009142Y017547D01*
X009142Y017653D01*
X009101Y017752D01*
X009026Y017828D01*
X008927Y017869D01*
X008820Y017869D01*
X008750Y017840D01*
X008460Y017840D01*
X008460Y017908D01*
X008378Y017990D01*
X008205Y017990D01*
X008205Y018100D01*
X008053Y018251D01*
X007924Y018380D01*
X007833Y018160D02*
X007217Y018160D01*
X007217Y017614D01*
X006705Y017574D02*
X006705Y017574D01*
X006705Y017732D02*
X006705Y017732D01*
X006705Y017891D02*
X006705Y017891D01*
X007217Y018160D02*
X006053Y018160D01*
X005938Y018044D01*
X005938Y017614D01*
X005938Y017264D01*
X005733Y017060D01*
X005133Y017060D01*
X004933Y016860D01*
X004933Y016486D01*
X004907Y016460D01*
X005303Y016464D02*
X005443Y016464D01*
X005443Y016306D02*
X005303Y016306D01*
X005303Y016147D02*
X005443Y016147D01*
X005443Y015989D02*
X005173Y015989D01*
X005202Y015830D02*
X005443Y015830D01*
X005443Y015672D02*
X005125Y015672D01*
X005443Y015513D02*
X003247Y015513D01*
X003247Y015355D02*
X005570Y015355D01*
X005729Y015196D02*
X003403Y015196D01*
X003403Y015038D02*
X005887Y015038D01*
X006043Y014879D02*
X003403Y014879D01*
X003403Y014721D02*
X006043Y014721D01*
X006043Y014562D02*
X003403Y014562D01*
X002767Y015355D02*
X001573Y015355D01*
X001573Y015513D02*
X002767Y015513D01*
X002767Y015672D02*
X001573Y015672D01*
X001573Y015830D02*
X002767Y015830D01*
X002767Y015989D02*
X002553Y015989D01*
X002307Y015989D02*
X002211Y015989D01*
X002211Y016147D02*
X002307Y016147D01*
X002307Y016306D02*
X002211Y016306D01*
X002211Y016464D02*
X001573Y016464D01*
X001573Y016306D02*
X001823Y016306D01*
X001823Y016147D02*
X001573Y016147D01*
X001573Y015989D02*
X001966Y015989D01*
X001823Y016508D02*
X002211Y016508D01*
X002211Y016935D01*
X001980Y016935D01*
X001934Y016923D01*
X001893Y016899D01*
X001859Y016866D01*
X001836Y016825D01*
X001823Y016779D01*
X001823Y016508D01*
X001823Y016623D02*
X001573Y016623D01*
X001573Y016781D02*
X001824Y016781D01*
X001573Y016940D02*
X002767Y016940D01*
X002767Y017098D02*
X001573Y017098D01*
X001573Y017257D02*
X001897Y017257D01*
X001895Y017261D02*
X001918Y017220D01*
X001952Y017186D01*
X001993Y017162D01*
X002039Y017150D01*
X002241Y017150D01*
X002241Y017548D01*
X001882Y017548D01*
X001882Y017306D01*
X001895Y017261D01*
X001882Y017415D02*
X001573Y017415D01*
X001573Y017574D02*
X002241Y017574D01*
X002241Y017585D02*
X002241Y017548D01*
X002278Y017548D01*
X002278Y017585D01*
X002241Y017585D01*
X002241Y017983D01*
X002039Y017983D01*
X001993Y017970D01*
X001952Y017947D01*
X001918Y017913D01*
X001895Y017872D01*
X001882Y017826D01*
X001882Y017585D01*
X002241Y017585D01*
X002278Y017574D02*
X002670Y017574D01*
X002636Y017548D02*
X002278Y017548D01*
X002278Y017150D01*
X002480Y017150D01*
X002526Y017162D01*
X002567Y017186D01*
X002600Y017220D01*
X002624Y017261D01*
X002636Y017306D01*
X002636Y017548D01*
X002636Y017415D02*
X002670Y017415D01*
X002686Y017257D02*
X002622Y017257D01*
X002278Y017257D02*
X002241Y017257D01*
X002241Y017415D02*
X002278Y017415D01*
X002278Y017732D02*
X002241Y017732D01*
X002241Y017891D02*
X002278Y017891D01*
X002307Y018049D02*
X001662Y018049D01*
X001573Y017891D02*
X001905Y017891D01*
X001882Y017732D02*
X001573Y017732D01*
X001093Y017732D02*
X000513Y017732D01*
X000513Y017574D02*
X001093Y017574D01*
X001093Y017415D02*
X000513Y017415D01*
X000513Y017257D02*
X001093Y017257D01*
X001093Y017098D02*
X000513Y017098D01*
X000513Y016940D02*
X001093Y016940D01*
X001093Y016781D02*
X000513Y016781D01*
X000513Y016623D02*
X001093Y016623D01*
X001093Y016464D02*
X000513Y016464D01*
X000513Y016306D02*
X001093Y016306D01*
X001093Y016147D02*
X000513Y016147D01*
X000513Y015989D02*
X001093Y015989D01*
X001093Y015830D02*
X000513Y015830D01*
X000513Y015672D02*
X001093Y015672D01*
X001093Y015513D02*
X000513Y015513D01*
X000513Y015355D02*
X001093Y015355D01*
X001093Y015196D02*
X000513Y015196D01*
X000513Y015038D02*
X001124Y015038D01*
X001275Y014879D02*
X000513Y014879D01*
X000513Y014721D02*
X001433Y014721D01*
X001863Y014562D02*
X000654Y014562D01*
X000813Y014404D02*
X005964Y014404D01*
X005990Y014245D02*
X000971Y014245D01*
X001130Y014087D02*
X008038Y014087D01*
X007880Y014245D02*
X006477Y014245D01*
X006502Y014404D02*
X007721Y014404D01*
X007563Y014562D02*
X006423Y014562D01*
X006867Y014721D02*
X007404Y014721D01*
X007246Y014879D02*
X006902Y014879D01*
X006836Y015038D02*
X007087Y015038D01*
X006929Y015196D02*
X006566Y015196D01*
X006408Y015355D02*
X006770Y015355D01*
X006643Y015513D02*
X006249Y015513D01*
X006091Y015672D02*
X006643Y015672D01*
X006643Y015830D02*
X006023Y015830D01*
X006023Y015989D02*
X006643Y015989D01*
X006752Y016147D02*
X006023Y016147D01*
X006023Y016306D02*
X006771Y016306D01*
X006771Y016464D02*
X006106Y016464D01*
X006265Y016623D02*
X006771Y016623D01*
X006771Y016781D02*
X006423Y016781D01*
X006582Y016940D02*
X006771Y016940D01*
X006771Y017098D02*
X006639Y017098D01*
X006705Y017257D02*
X006705Y017257D01*
X006705Y017415D02*
X006705Y017415D01*
X007151Y017237D02*
X007283Y017237D01*
X007283Y015742D01*
X007364Y015660D01*
X007364Y015607D01*
X007405Y015508D01*
X007481Y015432D01*
X007580Y015391D01*
X007687Y015391D01*
X007786Y015432D01*
X007861Y015508D01*
X007902Y015607D01*
X007902Y015713D01*
X007861Y015812D01*
X007786Y015888D01*
X007687Y015929D01*
X007663Y015929D01*
X007663Y016262D01*
X007764Y016160D01*
X007764Y016107D01*
X007805Y016008D01*
X007881Y015932D01*
X007980Y015891D01*
X008087Y015891D01*
X008186Y015932D01*
X008261Y016008D01*
X008302Y016107D01*
X008302Y016213D01*
X008279Y016270D01*
X009063Y016270D01*
X009063Y016107D01*
X009145Y016025D01*
X009773Y016025D01*
X009833Y016085D01*
X009893Y016025D01*
X010017Y016025D01*
X010017Y015495D01*
X009893Y015495D01*
X009861Y015463D01*
X009859Y015466D01*
X009826Y015499D01*
X009785Y015523D01*
X009739Y015535D01*
X009507Y015535D01*
X009507Y015108D01*
X009411Y015108D01*
X009411Y015012D01*
X009023Y015012D01*
X009023Y014741D01*
X009036Y014695D01*
X009059Y014654D01*
X009093Y014621D01*
X009134Y014597D01*
X009180Y014585D01*
X009411Y014585D01*
X009411Y015012D01*
X009507Y015012D01*
X009507Y014585D01*
X009739Y014585D01*
X009785Y014597D01*
X009826Y014621D01*
X009859Y014654D01*
X009861Y014657D01*
X009893Y014625D01*
X010143Y014625D01*
X010143Y014450D01*
X008212Y014450D01*
X007023Y015639D01*
X007023Y015881D01*
X007040Y015898D01*
X007151Y016009D01*
X007151Y017237D01*
X007151Y017098D02*
X007283Y017098D01*
X007283Y016940D02*
X007151Y016940D01*
X007151Y016781D02*
X007283Y016781D01*
X007283Y016623D02*
X007151Y016623D01*
X007151Y016464D02*
X007283Y016464D01*
X007283Y016306D02*
X007151Y016306D01*
X007151Y016147D02*
X007283Y016147D01*
X007283Y015989D02*
X007131Y015989D01*
X007023Y015830D02*
X007283Y015830D01*
X007353Y015672D02*
X007023Y015672D01*
X007149Y015513D02*
X007403Y015513D01*
X007308Y015355D02*
X009023Y015355D01*
X009023Y015379D02*
X009023Y015108D01*
X009411Y015108D01*
X009411Y015535D01*
X009180Y015535D01*
X009134Y015523D01*
X009093Y015499D01*
X009059Y015466D01*
X009036Y015425D01*
X009023Y015379D01*
X009117Y015513D02*
X007863Y015513D01*
X007902Y015672D02*
X010017Y015672D01*
X010017Y015830D02*
X007844Y015830D01*
X007825Y015989D02*
X007663Y015989D01*
X007663Y016147D02*
X007764Y016147D01*
X008242Y015989D02*
X010017Y015989D01*
X010397Y015989D02*
X011022Y015989D01*
X010864Y015830D02*
X010397Y015830D01*
X010397Y015672D02*
X010720Y015672D01*
X010693Y015513D02*
X010397Y015513D01*
X010603Y015355D02*
X010693Y015355D01*
X010693Y015196D02*
X010603Y015196D01*
X010603Y015038D02*
X010693Y015038D01*
X010693Y014879D02*
X010603Y014879D01*
X010603Y014721D02*
X010693Y014721D01*
X010693Y014562D02*
X010523Y014562D01*
X010523Y014404D02*
X010693Y014404D01*
X010700Y014245D02*
X010617Y014245D01*
X010672Y014087D02*
X010817Y014087D01*
X010702Y013928D02*
X010976Y013928D01*
X011134Y013770D02*
X010623Y013770D01*
X010244Y013770D02*
X001447Y013770D01*
X001288Y013928D02*
X010164Y013928D01*
X010143Y014562D02*
X008100Y014562D01*
X007942Y014721D02*
X009029Y014721D01*
X009023Y014879D02*
X007783Y014879D01*
X007625Y015038D02*
X009411Y015038D01*
X009411Y015196D02*
X009507Y015196D01*
X009507Y015355D02*
X009411Y015355D01*
X009411Y015513D02*
X009507Y015513D01*
X009802Y015513D02*
X010017Y015513D01*
X009507Y014879D02*
X009411Y014879D01*
X009411Y014721D02*
X009507Y014721D01*
X009023Y015196D02*
X007466Y015196D01*
X008302Y016147D02*
X009063Y016147D01*
X009063Y016781D02*
X008281Y016781D01*
X008175Y016940D02*
X013262Y016940D01*
X013262Y017098D02*
X008175Y017098D01*
X008397Y017257D02*
X013262Y017257D01*
X013262Y017415D02*
X009069Y017415D01*
X009142Y017574D02*
X013262Y017574D01*
X013262Y017732D02*
X009110Y017732D01*
X008460Y017891D02*
X013127Y017891D01*
X012969Y018049D02*
X008205Y018049D01*
X008097Y018208D02*
X012810Y018208D01*
X012565Y016781D02*
X010603Y016781D01*
X010603Y016623D02*
X012406Y016623D01*
X012267Y016464D02*
X010603Y016464D01*
X010603Y016306D02*
X012243Y016306D01*
X012243Y016147D02*
X012111Y016147D01*
X012111Y015989D02*
X012243Y015989D01*
X012243Y015830D02*
X012111Y015830D01*
X012105Y015672D02*
X012066Y015672D01*
X011980Y015513D02*
X011226Y015513D01*
X011173Y015355D02*
X011967Y015355D01*
X011930Y015196D02*
X011737Y015196D01*
X011737Y015038D02*
X011930Y015038D01*
X011930Y014879D02*
X011737Y014879D01*
X011686Y014721D02*
X011981Y014721D01*
X011700Y014562D02*
X012467Y014562D01*
X012434Y014721D02*
X012625Y014721D01*
X012485Y014879D02*
X012784Y014879D01*
X012798Y015038D02*
X012485Y015038D01*
X012485Y015196D02*
X012798Y015196D01*
X012798Y015355D02*
X012467Y015355D01*
X012626Y015513D02*
X012769Y015513D01*
X012758Y015672D02*
X012723Y015672D01*
X012723Y015830D02*
X013185Y015830D01*
X013185Y015882D02*
X012758Y015882D01*
X012758Y016114D01*
X012770Y016159D01*
X012794Y016200D01*
X012828Y016234D01*
X012869Y016258D01*
X012914Y016270D01*
X013185Y016270D01*
X013185Y015882D01*
X013185Y015989D02*
X013281Y015989D01*
X013281Y016147D02*
X013185Y016147D01*
X013281Y015830D02*
X013774Y015830D01*
X013709Y015672D02*
X014017Y015672D01*
X014011Y015038D02*
X013669Y015038D01*
X013669Y014879D02*
X014011Y014879D01*
X014011Y014721D02*
X013617Y014721D01*
X013702Y014562D02*
X013989Y014562D01*
X014035Y014404D02*
X013772Y014404D01*
X013738Y014245D02*
X015923Y014245D01*
X015923Y014404D02*
X015546Y014404D01*
X014571Y014404D02*
X014482Y014404D01*
X013503Y014380D02*
X013503Y013980D01*
X013483Y013910D01*
X013268Y014245D02*
X012687Y014245D01*
X012846Y014404D02*
X013234Y014404D01*
X013305Y014562D02*
X013004Y014562D01*
X011480Y014245D02*
X011338Y014245D01*
X011321Y014404D02*
X011179Y014404D01*
X011173Y014562D02*
X011269Y014562D01*
X011233Y014721D02*
X011173Y014721D01*
X011173Y014879D02*
X011182Y014879D01*
X011173Y015038D02*
X011182Y015038D01*
X011173Y015196D02*
X011182Y015196D01*
X011384Y015672D02*
X011601Y015672D01*
X011197Y016147D02*
X010603Y016147D01*
X012723Y016147D02*
X012767Y016147D01*
X012768Y016306D02*
X013498Y016306D01*
X013860Y016623D02*
X014093Y016623D01*
X014093Y016464D02*
X014019Y016464D01*
X014093Y016348D02*
X014093Y016348D01*
X012758Y015989D02*
X012723Y015989D01*
X014907Y018208D02*
X015186Y018208D01*
X015407Y018525D02*
X015424Y018525D01*
X015265Y018683D02*
X015248Y018683D01*
X015107Y018842D02*
X015090Y018842D01*
X014948Y019000D02*
X014931Y019000D01*
X014790Y019159D02*
X014773Y019159D01*
X014690Y019317D02*
X014614Y019317D01*
X014690Y019476D02*
X014456Y019476D01*
X014363Y019634D02*
X014690Y019634D01*
X014690Y019793D02*
X014363Y019793D01*
X014363Y019951D02*
X014690Y019951D01*
X014635Y020110D02*
X014363Y020110D01*
X014363Y020268D02*
X014477Y020268D01*
X014440Y020427D02*
X014363Y020427D01*
X014363Y020585D02*
X014440Y020585D01*
X014515Y020744D02*
X014363Y020744D01*
X014363Y020902D02*
X014673Y020902D01*
X013427Y020902D02*
X013195Y020902D01*
X013354Y020744D02*
X013427Y020744D01*
X013412Y020585D02*
X013427Y020585D01*
X013412Y020427D02*
X013427Y020427D01*
X013427Y020268D02*
X013392Y020268D01*
X013427Y020110D02*
X013233Y020110D01*
X016342Y018208D02*
X019312Y018208D01*
X019154Y018049D02*
X016381Y018049D01*
X016323Y017891D02*
X018995Y017891D01*
X025747Y014721D02*
X028560Y014721D01*
X028707Y014721D02*
X029225Y014721D01*
X029067Y014562D02*
X028882Y014562D01*
X028901Y014404D02*
X028927Y014404D01*
X028699Y014087D02*
X028575Y014087D01*
X028597Y013928D02*
X028677Y013928D01*
X028677Y013770D02*
X028597Y013770D01*
X028860Y014879D02*
X026657Y014879D01*
X026780Y015038D02*
X028742Y015038D01*
X030251Y014879D02*
X031334Y014879D01*
X031216Y015038D02*
X030809Y015038D01*
X031420Y015513D02*
X036743Y015513D01*
X036743Y015355D02*
X031578Y015355D01*
X031768Y015196D02*
X036743Y015196D01*
X036743Y015038D02*
X031802Y015038D01*
X031733Y014879D02*
X036684Y014879D01*
X036743Y015672D02*
X030787Y015672D01*
X030849Y015830D02*
X032523Y015830D01*
X032523Y015989D02*
X030849Y015989D01*
X030849Y016132D02*
X030849Y016364D01*
X030836Y016409D01*
X030813Y016450D01*
X030779Y016484D01*
X030738Y016508D01*
X030692Y016520D01*
X030421Y016520D01*
X030421Y016132D01*
X030849Y016132D01*
X030849Y016147D02*
X032523Y016147D01*
X032523Y016306D02*
X030849Y016306D01*
X030799Y016464D02*
X032523Y016464D01*
X033109Y016623D02*
X036743Y016623D01*
X036743Y016781D02*
X033109Y016781D01*
X033109Y016940D02*
X036743Y016940D01*
X036743Y017098D02*
X032964Y017098D01*
X034063Y016464D02*
X036743Y016464D01*
X036743Y016306D02*
X034664Y016306D01*
X034702Y016147D02*
X036743Y016147D01*
X036743Y015989D02*
X034642Y015989D01*
X034063Y015830D02*
X036743Y015830D01*
X037123Y016147D02*
X041276Y016147D01*
X040986Y016464D02*
X042122Y016464D01*
X042122Y016623D02*
X041111Y016623D01*
X041111Y016781D02*
X041304Y016781D01*
X041319Y016766D02*
X041450Y016711D01*
X041593Y016711D01*
X041724Y016766D01*
X041824Y016866D01*
X041879Y016998D01*
X041879Y017140D01*
X041824Y017271D01*
X041724Y017371D01*
X041593Y017426D01*
X041450Y017426D01*
X041319Y017371D01*
X041219Y017271D01*
X041164Y017140D01*
X041164Y016998D01*
X041219Y016866D01*
X041319Y016766D01*
X041188Y016940D02*
X041110Y016940D01*
X041164Y017098D02*
X041001Y017098D01*
X041071Y017257D02*
X041213Y017257D01*
X041071Y017415D02*
X041424Y017415D01*
X041619Y017415D02*
X042122Y017415D01*
X042122Y017257D02*
X041830Y017257D01*
X041879Y017098D02*
X042122Y017098D01*
X042122Y016940D02*
X041855Y016940D01*
X041739Y016781D02*
X042122Y016781D01*
X042122Y017574D02*
X041057Y017574D01*
X040791Y017732D02*
X040523Y017732D01*
X040523Y017891D02*
X040791Y017891D01*
X040791Y018049D02*
X040513Y018049D01*
X040355Y018208D02*
X040829Y018208D01*
X041348Y018208D02*
X041695Y018208D01*
X041657Y018049D02*
X041386Y018049D01*
X041386Y017891D02*
X041657Y017891D01*
X041657Y017732D02*
X041386Y017732D01*
X042252Y018049D02*
X042397Y018049D01*
X042555Y018208D02*
X042215Y018208D01*
X042515Y018366D02*
X042673Y018366D01*
X041695Y018683D02*
X039025Y018683D01*
X039025Y018842D02*
X041393Y018842D01*
X041393Y019000D02*
X041263Y019000D01*
X040870Y019000D02*
X039025Y019000D01*
X039025Y019159D02*
X040709Y019159D01*
X040659Y019317D02*
X039112Y019317D01*
X039270Y019476D02*
X040674Y019476D01*
X038036Y019476D02*
X037430Y019476D01*
X037430Y019634D02*
X038036Y019634D01*
X038036Y019317D02*
X037430Y019317D01*
X037430Y019159D02*
X038036Y019159D01*
X038036Y019000D02*
X037430Y019000D01*
X037430Y018842D02*
X038036Y018842D01*
X038036Y018683D02*
X037430Y018683D01*
X040636Y016773D02*
X040636Y016773D01*
X040636Y016623D02*
X040636Y016623D01*
X040636Y016464D02*
X040636Y016464D01*
X041327Y015355D02*
X041716Y015355D01*
X041657Y015196D02*
X041386Y015196D01*
X041386Y015038D02*
X041657Y015038D01*
X041657Y014879D02*
X041386Y014879D01*
X041320Y014721D02*
X041723Y014721D01*
X042122Y014245D02*
X040492Y014245D01*
X040575Y014087D02*
X042056Y014087D01*
X041898Y013928D02*
X040597Y013928D01*
X040597Y013770D02*
X041739Y013770D01*
X041581Y013611D02*
X040597Y013611D01*
X040597Y013624D02*
X040137Y013624D01*
X040137Y012864D01*
X040155Y012864D01*
X040229Y012876D01*
X040301Y012899D01*
X040368Y012934D01*
X040429Y012978D01*
X040483Y013032D01*
X040527Y013093D01*
X040562Y013160D01*
X040585Y013232D01*
X040597Y013306D01*
X040597Y013624D01*
X040597Y013453D02*
X041422Y013453D01*
X041264Y013294D02*
X040595Y013294D01*
X040549Y013136D02*
X041105Y013136D01*
X040947Y012977D02*
X040428Y012977D01*
X040137Y012977D02*
X040097Y012977D01*
X040097Y012864D02*
X040097Y013624D01*
X039637Y013624D01*
X039637Y013306D01*
X039649Y013232D01*
X039672Y013160D01*
X039706Y013093D01*
X039751Y013032D01*
X039804Y012978D01*
X039865Y012934D01*
X039933Y012899D01*
X040004Y012876D01*
X040079Y012864D01*
X040097Y012864D01*
X040097Y013136D02*
X040137Y013136D01*
X040137Y013294D02*
X040097Y013294D01*
X040097Y013453D02*
X040137Y013453D01*
X040137Y013611D02*
X040097Y013611D01*
X040097Y013770D02*
X040137Y013770D01*
X040137Y013928D02*
X040097Y013928D01*
X040097Y014087D02*
X040137Y014087D01*
X040137Y014245D02*
X040097Y014245D01*
X039742Y014245D02*
X039438Y014245D01*
X039490Y014193D02*
X039366Y014317D01*
X039204Y014384D01*
X039029Y014384D01*
X038868Y014317D01*
X038744Y014193D01*
X038677Y014032D01*
X038677Y013257D01*
X038744Y013095D01*
X038868Y012971D01*
X039029Y012904D01*
X039204Y012904D01*
X039366Y012971D01*
X039490Y013095D01*
X039557Y013257D01*
X039557Y014032D01*
X039490Y014193D01*
X039534Y014087D02*
X039658Y014087D01*
X039637Y013928D02*
X039557Y013928D01*
X039557Y013770D02*
X039637Y013770D01*
X039637Y013611D02*
X039557Y013611D01*
X039557Y013453D02*
X039637Y013453D01*
X039639Y013294D02*
X039557Y013294D01*
X039507Y013136D02*
X039684Y013136D01*
X039806Y012977D02*
X039372Y012977D01*
X038862Y012977D02*
X038372Y012977D01*
X038507Y013136D02*
X038727Y013136D01*
X038677Y013294D02*
X038557Y013294D01*
X038557Y013453D02*
X038677Y013453D01*
X038677Y013611D02*
X038557Y013611D01*
X038557Y013770D02*
X038677Y013770D01*
X038677Y013928D02*
X038557Y013928D01*
X038534Y014087D02*
X038699Y014087D01*
X038795Y014245D02*
X038438Y014245D01*
X030882Y018049D02*
X030855Y018049D01*
X030555Y018049D02*
X027984Y018049D01*
X027825Y018208D02*
X030443Y018208D01*
X030450Y018366D02*
X027667Y018366D01*
X030132Y018525D02*
X030597Y018525D01*
X030852Y018683D02*
X030183Y018683D01*
X030342Y018842D02*
X031011Y018842D01*
X030421Y016464D02*
X030325Y016464D01*
X030325Y016306D02*
X030421Y016306D01*
X030421Y016147D02*
X030325Y016147D01*
X033213Y022963D02*
X036288Y022963D01*
X015739Y026133D02*
X015643Y026133D01*
X015643Y026291D02*
X015739Y026291D01*
X011286Y027559D02*
X011272Y027559D01*
X011127Y027401D02*
X011113Y027401D01*
X010969Y027242D02*
X010955Y027242D01*
X010810Y027084D02*
X010796Y027084D01*
X010652Y026925D02*
X010638Y026925D01*
X010493Y026767D02*
X010479Y026767D01*
X010335Y026608D02*
X010321Y026608D01*
X010176Y026450D02*
X010162Y026450D01*
X010018Y026291D02*
X010004Y026291D01*
X009859Y026133D02*
X009845Y026133D01*
X009701Y025974D02*
X009687Y025974D01*
X009542Y025816D02*
X009528Y025816D01*
X009384Y025657D02*
X009370Y025657D01*
X009225Y025499D02*
X009211Y025499D01*
X009067Y025340D02*
X009029Y025340D01*
X008908Y025182D02*
X005394Y025182D01*
X005236Y025023D02*
X008750Y025023D01*
X008591Y024865D02*
X005173Y024865D01*
X005173Y024706D02*
X008433Y024706D01*
X008849Y025816D02*
X003717Y025816D01*
X003559Y025974D02*
X009008Y025974D01*
X009166Y026133D02*
X003400Y026133D01*
X003242Y026291D02*
X009325Y026291D01*
X009483Y026450D02*
X003083Y026450D01*
X002925Y026608D02*
X009642Y026608D01*
X009800Y026767D02*
X002766Y026767D01*
X002673Y026925D02*
X009959Y026925D01*
X010117Y027084D02*
X002673Y027084D01*
X002673Y027242D02*
X010276Y027242D01*
X010434Y027401D02*
X002673Y027401D01*
X002673Y027559D02*
X010593Y027559D01*
X010751Y027718D02*
X008648Y027718D01*
X008550Y027677D02*
X008818Y027788D01*
X009024Y027994D01*
X009135Y028263D01*
X009135Y028553D01*
X009024Y028822D01*
X008818Y029028D01*
X008550Y029139D01*
X008259Y029139D01*
X007990Y029028D01*
X007784Y028822D01*
X007673Y028553D01*
X007673Y028263D01*
X007784Y027994D01*
X007990Y027788D01*
X008259Y027677D01*
X008550Y027677D01*
X008161Y027718D02*
X002673Y027718D01*
X002673Y027876D02*
X007902Y027876D01*
X007767Y028035D02*
X002673Y028035D01*
X002673Y028193D02*
X007702Y028193D01*
X007673Y028352D02*
X002673Y028352D01*
X002673Y028510D02*
X007673Y028510D01*
X007721Y028669D02*
X002673Y028669D01*
X002673Y028827D02*
X007789Y028827D01*
X007948Y028986D02*
X002673Y028986D01*
X002673Y029144D02*
X010893Y029144D01*
X010893Y028986D02*
X008861Y028986D01*
X009019Y028827D02*
X010893Y028827D01*
X010893Y028669D02*
X009088Y028669D01*
X009135Y028510D02*
X010893Y028510D01*
X010893Y028352D02*
X009135Y028352D01*
X009107Y028193D02*
X010893Y028193D01*
X010893Y028035D02*
X009041Y028035D01*
X008906Y027876D02*
X010893Y027876D01*
X010893Y029303D02*
X002673Y029303D01*
X002673Y029461D02*
X010793Y029461D01*
X011155Y029778D02*
X011345Y029778D01*
X011345Y029620D02*
X011313Y029620D01*
X011345Y029937D02*
X010996Y029937D01*
X010829Y030095D02*
X011341Y030095D01*
X011199Y030254D02*
X010972Y030254D01*
X011025Y030412D02*
X011145Y030412D01*
X011145Y030571D02*
X011025Y030571D01*
X011025Y030729D02*
X011145Y030729D01*
X011145Y030888D02*
X011025Y030888D01*
X011025Y031046D02*
X011145Y031046D01*
X011165Y031205D02*
X011006Y031205D01*
X010915Y031363D02*
X011256Y031363D01*
X010511Y031839D02*
X008694Y031839D01*
X008815Y031680D02*
X010370Y031680D01*
X010345Y031522D02*
X008825Y031522D01*
X008915Y031363D02*
X009256Y031363D01*
X009165Y031205D02*
X009006Y031205D01*
X009025Y031046D02*
X009145Y031046D01*
X009145Y030888D02*
X009025Y030888D01*
X009025Y030729D02*
X009145Y030729D01*
X009145Y030571D02*
X009025Y030571D01*
X009025Y030412D02*
X009145Y030412D01*
X009199Y030254D02*
X008972Y030254D01*
X008829Y030095D02*
X009341Y030095D01*
X009355Y029937D02*
X002673Y029937D01*
X002673Y030095D02*
X007285Y030095D01*
X007273Y030104D02*
X007334Y030060D01*
X007401Y030025D01*
X007473Y030002D01*
X007548Y029990D01*
X007565Y029990D01*
X007565Y030750D01*
X007105Y030750D01*
X007105Y030432D01*
X007117Y030358D01*
X007140Y030286D01*
X007175Y030219D01*
X007219Y030158D01*
X007273Y030104D01*
X007157Y030254D02*
X002673Y030254D01*
X002673Y030412D02*
X007109Y030412D01*
X007105Y030571D02*
X002673Y030571D01*
X002673Y030729D02*
X007105Y030729D01*
X007105Y030790D02*
X007565Y030790D01*
X007565Y030750D01*
X007605Y030750D01*
X007605Y029990D01*
X007623Y029990D01*
X007698Y030002D01*
X007770Y030025D01*
X007837Y030060D01*
X007898Y030104D01*
X007951Y030158D01*
X007996Y030219D01*
X008030Y030286D01*
X008053Y030358D01*
X008065Y030432D01*
X008065Y030750D01*
X007605Y030750D01*
X007605Y030790D01*
X007565Y030790D01*
X007565Y031550D01*
X007548Y031550D01*
X007473Y031538D01*
X007401Y031515D01*
X007334Y031481D01*
X007273Y031436D01*
X007219Y031383D01*
X007175Y031322D01*
X007140Y031254D01*
X007117Y031183D01*
X007105Y031108D01*
X007105Y030790D01*
X007105Y030888D02*
X002800Y030888D01*
X002959Y031046D02*
X007105Y031046D01*
X007124Y031205D02*
X003117Y031205D01*
X003276Y031363D02*
X007205Y031363D01*
X007421Y031522D02*
X003434Y031522D01*
X003072Y031839D02*
X002050Y031839D01*
X002208Y031997D02*
X003231Y031997D01*
X002914Y031680D02*
X001891Y031680D01*
X001733Y031522D02*
X002755Y031522D01*
X002597Y031363D02*
X001574Y031363D01*
X001416Y031205D02*
X002438Y031205D01*
X002297Y031063D02*
X002297Y031063D01*
X002280Y031046D02*
X001257Y031046D01*
X001099Y030888D02*
X002193Y030888D01*
X002193Y030729D02*
X000940Y030729D01*
X000782Y030571D02*
X002193Y030571D01*
X002193Y030412D02*
X000623Y030412D01*
X000513Y030254D02*
X002193Y030254D01*
X002193Y030095D02*
X000513Y030095D01*
X000513Y029937D02*
X002193Y029937D01*
X002193Y029778D02*
X000513Y029778D01*
X000513Y029620D02*
X002193Y029620D01*
X002193Y029461D02*
X000513Y029461D01*
X000513Y029303D02*
X002193Y029303D01*
X002193Y029144D02*
X000513Y029144D01*
X000513Y028986D02*
X002193Y028986D01*
X002193Y028827D02*
X000513Y028827D01*
X000513Y028669D02*
X002193Y028669D01*
X002193Y028510D02*
X000513Y028510D01*
X000513Y028352D02*
X002193Y028352D01*
X002193Y028193D02*
X000513Y028193D01*
X000513Y028035D02*
X002193Y028035D01*
X002193Y027876D02*
X000513Y027876D01*
X000513Y027718D02*
X002193Y027718D01*
X002193Y027559D02*
X000513Y027559D01*
X000513Y027401D02*
X002193Y027401D01*
X002193Y027242D02*
X000513Y027242D01*
X000513Y027084D02*
X002193Y027084D01*
X002193Y026925D02*
X000513Y026925D01*
X000513Y026767D02*
X002193Y026767D01*
X002246Y026608D02*
X000513Y026608D01*
X000513Y026450D02*
X002404Y026450D01*
X002563Y026291D02*
X000513Y026291D01*
X000513Y026133D02*
X002721Y026133D01*
X002880Y025974D02*
X000513Y025974D01*
X000513Y025816D02*
X003038Y025816D01*
X003197Y025657D02*
X000513Y025657D01*
X000513Y025499D02*
X003355Y025499D01*
X003514Y025340D02*
X001813Y025340D01*
X001804Y025344D02*
X001965Y025277D01*
X002089Y025153D01*
X002156Y024992D01*
X002156Y024817D01*
X002089Y024655D01*
X001965Y024531D01*
X001804Y024464D01*
X001028Y024464D01*
X000867Y024531D01*
X000743Y024655D01*
X000676Y024817D01*
X000676Y024992D01*
X000743Y025153D01*
X000867Y025277D01*
X001028Y025344D01*
X001804Y025344D01*
X002061Y025182D02*
X003672Y025182D01*
X003831Y025023D02*
X002143Y025023D01*
X002156Y024865D02*
X003893Y024865D01*
X003893Y024706D02*
X002110Y024706D01*
X001982Y024548D02*
X003893Y024548D01*
X003893Y024389D02*
X000513Y024389D01*
X000513Y024231D02*
X000820Y024231D01*
X000867Y024277D02*
X000743Y024153D01*
X000676Y023992D01*
X000676Y023817D01*
X000743Y023655D01*
X000867Y023531D01*
X001028Y023464D01*
X001804Y023464D01*
X001965Y023531D01*
X002089Y023655D01*
X002156Y023817D01*
X002156Y023992D01*
X002089Y024153D01*
X001965Y024277D01*
X001804Y024344D01*
X001028Y024344D01*
X000867Y024277D01*
X000709Y024072D02*
X000513Y024072D01*
X000513Y023914D02*
X000676Y023914D01*
X000702Y023755D02*
X000513Y023755D01*
X000513Y023597D02*
X000801Y023597D01*
X000873Y023280D02*
X000513Y023280D01*
X000513Y023438D02*
X003893Y023438D01*
X003893Y023280D02*
X001959Y023280D01*
X001965Y023277D02*
X001804Y023344D01*
X001028Y023344D01*
X000867Y023277D01*
X000743Y023153D01*
X000676Y022992D01*
X000676Y022817D01*
X000743Y022655D01*
X000867Y022531D01*
X001028Y022464D01*
X001804Y022464D01*
X001965Y022531D01*
X002089Y022655D01*
X002156Y022817D01*
X002156Y022992D01*
X002089Y023153D01*
X001965Y023277D01*
X002102Y023121D02*
X003893Y023121D01*
X003893Y022963D02*
X002156Y022963D01*
X002151Y022804D02*
X003893Y022804D01*
X003893Y022646D02*
X002080Y022646D01*
X001859Y022487D02*
X003893Y022487D01*
X003893Y022329D02*
X001940Y022329D01*
X001968Y022315D02*
X001900Y022349D01*
X001828Y022372D01*
X001754Y022384D01*
X001436Y022384D01*
X001436Y021924D01*
X002196Y021924D01*
X002196Y021942D01*
X002184Y022016D01*
X002161Y022088D01*
X002127Y022156D01*
X002082Y022217D01*
X002029Y022270D01*
X001968Y022315D01*
X002116Y022170D02*
X003893Y022170D01*
X003893Y022012D02*
X002185Y022012D01*
X002196Y021884D02*
X001436Y021884D01*
X001436Y021424D01*
X001754Y021424D01*
X001828Y021436D01*
X001900Y021459D01*
X001968Y021494D01*
X002029Y021538D01*
X002082Y021591D01*
X002127Y021653D01*
X002161Y021720D01*
X002184Y021792D01*
X002196Y021866D01*
X002196Y021884D01*
X002194Y021853D02*
X003893Y021853D01*
X003893Y021695D02*
X002148Y021695D01*
X002026Y021536D02*
X003893Y021536D01*
X003893Y021378D02*
X000513Y021378D01*
X000513Y021536D02*
X000806Y021536D01*
X000803Y021538D02*
X000864Y021494D01*
X000932Y021459D01*
X001004Y021436D01*
X001078Y021424D01*
X001396Y021424D01*
X001396Y021884D01*
X001436Y021884D01*
X001436Y021924D01*
X001396Y021924D01*
X001396Y021884D01*
X000636Y021884D01*
X000636Y021866D01*
X000648Y021792D01*
X000671Y021720D01*
X000705Y021653D01*
X000750Y021591D01*
X000803Y021538D01*
X000684Y021695D02*
X000513Y021695D01*
X000513Y021853D02*
X000638Y021853D01*
X000636Y021924D02*
X001396Y021924D01*
X001396Y022384D01*
X001078Y022384D01*
X001004Y022372D01*
X000932Y022349D01*
X000864Y022315D01*
X000803Y022270D01*
X000750Y022217D01*
X000705Y022156D01*
X000671Y022088D01*
X000648Y022016D01*
X000636Y021942D01*
X000636Y021924D01*
X000647Y022012D02*
X000513Y022012D01*
X000513Y022170D02*
X000716Y022170D01*
X000892Y022329D02*
X000513Y022329D01*
X000513Y022487D02*
X000973Y022487D01*
X000752Y022646D02*
X000513Y022646D01*
X000513Y022804D02*
X000681Y022804D01*
X000676Y022963D02*
X000513Y022963D01*
X000513Y023121D02*
X000730Y023121D01*
X002031Y023597D02*
X003893Y023597D01*
X003893Y023755D02*
X002131Y023755D01*
X002156Y023914D02*
X003893Y023914D01*
X003893Y024072D02*
X002123Y024072D01*
X002012Y024231D02*
X003893Y024231D01*
X004373Y024231D02*
X004693Y024231D01*
X004693Y024389D02*
X004373Y024389D01*
X004373Y024548D02*
X004693Y024548D01*
X004693Y024706D02*
X004373Y024706D01*
X004373Y024865D02*
X004693Y024865D01*
X004693Y025023D02*
X004373Y025023D01*
X004343Y025182D02*
X004724Y025182D01*
X004874Y025340D02*
X004193Y025340D01*
X004034Y025499D02*
X005032Y025499D01*
X005191Y025657D02*
X003876Y025657D01*
X004373Y024072D02*
X004693Y024072D01*
X004693Y023914D02*
X004373Y023914D01*
X004373Y023755D02*
X004693Y023755D01*
X004693Y023597D02*
X004373Y023597D01*
X004373Y023438D02*
X004693Y023438D01*
X004693Y023280D02*
X004373Y023280D01*
X004373Y023121D02*
X004693Y023121D01*
X004693Y022963D02*
X004373Y022963D01*
X004373Y022804D02*
X004693Y022804D01*
X004693Y022646D02*
X004373Y022646D01*
X004373Y022487D02*
X004693Y022487D01*
X004693Y022329D02*
X004373Y022329D01*
X004373Y022170D02*
X004693Y022170D01*
X004693Y022012D02*
X004373Y022012D01*
X004373Y021853D02*
X004693Y021853D01*
X004693Y021695D02*
X004373Y021695D01*
X004373Y021536D02*
X004693Y021536D01*
X004693Y021378D02*
X004373Y021378D01*
X004373Y021219D02*
X004693Y021219D01*
X004693Y021061D02*
X004373Y021061D01*
X004373Y020902D02*
X004693Y020902D01*
X004693Y020744D02*
X004373Y020744D01*
X004373Y020585D02*
X004693Y020585D01*
X004693Y020427D02*
X004373Y020427D01*
X004373Y020268D02*
X004693Y020268D01*
X004693Y020110D02*
X004373Y020110D01*
X004373Y019951D02*
X004693Y019951D01*
X004693Y019793D02*
X004373Y019793D01*
X004373Y019634D02*
X004693Y019634D01*
X004778Y019476D02*
X004373Y019476D01*
X004373Y019317D02*
X004937Y019317D01*
X005095Y019159D02*
X004474Y019159D01*
X004633Y019000D02*
X006634Y019000D01*
X006733Y019159D02*
X006271Y019159D01*
X006430Y019317D02*
X006733Y019317D01*
X006733Y019476D02*
X006588Y019476D01*
X006673Y019634D02*
X006733Y019634D01*
X006733Y019793D02*
X006673Y019793D01*
X006068Y019634D02*
X005299Y019634D01*
X004271Y018683D02*
X002935Y018683D01*
X002970Y018525D02*
X004429Y018525D01*
X004112Y018842D02*
X002873Y018842D01*
X002900Y019000D02*
X003954Y019000D01*
X003893Y019159D02*
X002884Y019159D01*
X002716Y019317D02*
X003893Y019317D01*
X003893Y019476D02*
X001831Y019476D01*
X002068Y019634D02*
X003579Y019634D01*
X003888Y019634D02*
X003893Y019634D01*
X003893Y020110D02*
X003834Y020110D01*
X003893Y020268D02*
X001974Y020268D01*
X001804Y020464D02*
X001965Y020531D01*
X002089Y020655D01*
X002156Y020817D01*
X002156Y020992D01*
X002089Y021153D01*
X001965Y021277D01*
X001804Y021344D01*
X001028Y021344D01*
X000867Y021277D01*
X000743Y021153D01*
X000676Y020992D01*
X000676Y020817D01*
X000743Y020655D01*
X000867Y020531D01*
X001028Y020464D01*
X001804Y020464D01*
X002019Y020585D02*
X003893Y020585D01*
X003893Y020427D02*
X000513Y020427D01*
X000513Y020585D02*
X000813Y020585D01*
X000706Y020744D02*
X000513Y020744D01*
X000513Y020902D02*
X000676Y020902D01*
X000705Y021061D02*
X000513Y021061D01*
X000513Y021219D02*
X000809Y021219D01*
X001396Y021536D02*
X001436Y021536D01*
X001436Y021695D02*
X001396Y021695D01*
X001396Y021853D02*
X001436Y021853D01*
X001436Y022012D02*
X001396Y022012D01*
X001396Y022170D02*
X001436Y022170D01*
X001436Y022329D02*
X001396Y022329D01*
X002023Y021219D02*
X003893Y021219D01*
X003893Y021061D02*
X002127Y021061D01*
X002156Y020902D02*
X003893Y020902D01*
X003893Y020744D02*
X002126Y020744D01*
X000858Y020268D02*
X000513Y020268D01*
X000513Y020110D02*
X000725Y020110D01*
X000676Y019951D02*
X000513Y019951D01*
X000513Y019793D02*
X000686Y019793D01*
X000764Y019634D02*
X000513Y019634D01*
X000513Y019476D02*
X001001Y019476D01*
X000513Y019317D02*
X002551Y019317D01*
X002383Y019159D02*
X000513Y019159D01*
X000513Y019000D02*
X002367Y019000D01*
X002393Y018842D02*
X000513Y018842D01*
X000513Y018683D02*
X002332Y018683D01*
X002970Y018366D02*
X005948Y018366D01*
X005790Y018208D02*
X002970Y018208D01*
X002960Y018049D02*
X005718Y018049D01*
X005207Y017891D02*
X003314Y017891D01*
X002700Y017891D02*
X002613Y017891D01*
X002636Y017732D02*
X002670Y017732D01*
X003329Y017257D02*
X005019Y017257D01*
X004860Y017098D02*
X003247Y017098D01*
X003247Y016940D02*
X004713Y016940D01*
X004207Y016781D02*
X004111Y016781D01*
X004111Y016935D02*
X003880Y016935D01*
X003834Y016923D01*
X003793Y016899D01*
X003759Y016866D01*
X003736Y016825D01*
X003723Y016779D01*
X003723Y016508D01*
X004111Y016508D01*
X004111Y016935D01*
X004111Y016623D02*
X004207Y016623D01*
X004111Y016464D02*
X003403Y016464D01*
X003403Y016306D02*
X003723Y016306D01*
X003723Y016147D02*
X003403Y016147D01*
X003247Y015989D02*
X003866Y015989D01*
X004111Y015989D02*
X004207Y015989D01*
X004207Y016147D02*
X004111Y016147D01*
X004111Y016306D02*
X004207Y016306D01*
X004453Y015989D02*
X004693Y015989D01*
X004664Y015830D02*
X003247Y015830D01*
X003247Y015672D02*
X004742Y015672D01*
X005303Y016623D02*
X005443Y016623D01*
X005303Y016781D02*
X005586Y016781D01*
X003724Y016781D02*
X003403Y016781D01*
X003403Y016623D02*
X003723Y016623D01*
X002307Y016623D02*
X002211Y016623D01*
X002211Y016781D02*
X002307Y016781D01*
X001093Y017891D02*
X000513Y017891D01*
X000513Y018049D02*
X001093Y018049D01*
X001141Y018208D02*
X000513Y018208D01*
X000513Y018366D02*
X001300Y018366D01*
X001458Y018525D02*
X000513Y018525D01*
X001637Y015196D02*
X001863Y015196D01*
X007985Y017614D02*
X007985Y018008D01*
X007833Y018160D01*
X000850Y024548D02*
X000513Y024548D01*
X000513Y024706D02*
X000722Y024706D01*
X000676Y024865D02*
X000513Y024865D01*
X000513Y025023D02*
X000689Y025023D01*
X000771Y025182D02*
X000513Y025182D01*
X000513Y025340D02*
X001019Y025340D01*
X002673Y029620D02*
X009634Y029620D01*
X009476Y029778D02*
X002673Y029778D01*
X002367Y032156D02*
X010829Y032156D01*
X010670Y031997D02*
X008536Y031997D01*
X008332Y031522D02*
X007750Y031522D01*
X007770Y031515D02*
X007698Y031538D01*
X007623Y031550D01*
X007605Y031550D01*
X007605Y030790D01*
X008065Y030790D01*
X008065Y031108D01*
X008053Y031183D01*
X008030Y031254D01*
X007996Y031322D01*
X007951Y031383D01*
X007898Y031436D01*
X007837Y031481D01*
X007770Y031515D01*
X007605Y031522D02*
X007565Y031522D01*
X007565Y031363D02*
X007605Y031363D01*
X007605Y031205D02*
X007565Y031205D01*
X007565Y031046D02*
X007605Y031046D01*
X007605Y030888D02*
X007565Y030888D01*
X007565Y030729D02*
X007605Y030729D01*
X007605Y030571D02*
X007565Y030571D01*
X007565Y030412D02*
X007605Y030412D01*
X007605Y030254D02*
X007565Y030254D01*
X007565Y030095D02*
X007605Y030095D01*
X007885Y030095D02*
X008341Y030095D01*
X008199Y030254D02*
X008014Y030254D01*
X008062Y030412D02*
X008145Y030412D01*
X008145Y030571D02*
X008065Y030571D01*
X008065Y030729D02*
X008145Y030729D01*
X008145Y030888D02*
X008065Y030888D01*
X008065Y031046D02*
X008145Y031046D01*
X008165Y031205D02*
X008046Y031205D01*
X007966Y031363D02*
X008256Y031363D01*
X009915Y031363D02*
X010256Y031363D01*
X010165Y031205D02*
X010006Y031205D01*
X010025Y031046D02*
X010145Y031046D01*
X010145Y030888D02*
X010025Y030888D01*
X010025Y030729D02*
X010145Y030729D01*
X010145Y030571D02*
X010025Y030571D01*
X010025Y030412D02*
X010145Y030412D01*
X010199Y030254D02*
X009972Y030254D01*
X009838Y030095D02*
X010341Y030095D01*
D38*
X030533Y019960D02*
X031033Y020460D01*
X031033Y021592D01*
X031085Y021644D01*
X036055Y019160D02*
X036936Y019160D01*
X038531Y019160D02*
X039171Y019800D01*
X040633Y019800D01*
D39*
X040636Y019803D01*
X041195Y019803D01*
M02*
